<svg version="1.1" xmlns="http://www.w3.org/2000/svg" xmlns:xlink="http://www.w3.org/1999/xlink" width="81.5" height="59.29033" viewBox="0,0,81.5,59.29033"><defs><radialGradient cx="231.65352" cy="152.1216" r="13.1155" gradientUnits="userSpaceOnUse" id="color-1"><stop offset="0" stop-color="#000000"/><stop offset="1" stop-color="#000000" stop-opacity="0"/></radialGradient><radialGradient cx="254.60564" cy="152.1216" r="13.1155" gradientUnits="userSpaceOnUse" id="color-2"><stop offset="0" stop-color="#000000"/><stop offset="1" stop-color="#000000" stop-opacity="0"/></radialGradient></defs><g transform="translate(-206,-130.50077)"><g data-paper-data="{&quot;isPaintingLayer&quot;:true}" stroke-miterlimit="10" stroke-dasharray="" stroke-dashoffset="0" style="mix-blend-mode: normal"><path d="M253.7,131c0.3,-0.2 0.8,-0.1 0.9,0.3l2.6,10.7c0,0 6.4,4.7 8.3,8c3.2,5.5 3.3,10 3.3,10c0,0 7.1,2.1 8.3,7.8c1.2,5.7 -3.2,16.5 -22,20.2c-18.8,3.7 -33.9,-1.4 -41,-12.8c-7.1,-11.4 4.1,-25 3.5,-24.2l-2.1,-17.9c-0.1,-0.4 0.4,-0.7 0.8,-0.5l12.1,7.9c0,0 4.5,-1.7 9.2,-1.9c2.8,-0.2 5.2,0 7.5,0.4z" fill="#ffab19" fill-rule="evenodd" stroke="#001026" stroke-width="1.2" stroke-linecap="butt" stroke-linejoin="miter"/><path d="M268.5,160.4c0,0 6.9,1.8 8.1,7.5c1.2,5.7 -3.6,16 -22.2,19.6c-24.2,5 -35.7,-9.4 -29,-20c6.7,-10.7 18.2,-1.6 26.6,-2.2c7.2,-0.5 8,-6.8 16.5,-4.9z" fill="#ffffff" fill-rule="evenodd" stroke="none" stroke-width="1" stroke-linecap="butt" stroke-linejoin="miter"/><path d="M286.9,161.5c-4.7,3.8 -11.9,3.9 -11.9,3.9" fill="none" fill-rule="evenodd" stroke="#001026" stroke-width="1.2" stroke-linecap="round" stroke-linejoin="round"/><path d="M285.6,172.7c-6.3,0.5 -10.2,-1.4 -10.2,-1.4" fill="none" fill-rule="evenodd" stroke="#001026" stroke-width="1.2" stroke-linecap="round" stroke-linejoin="round"/><path d="M206.6,161.2c0,0 8.6,2.8 12.1,5.9" fill="none" fill-rule="evenodd" stroke="#001026" stroke-width="1.2" stroke-linecap="round" stroke-linejoin="round"/><path d="M219,170.6c-4.3,1.7 -11.7,0.6 -11.7,0.6" fill="none" fill-rule="evenodd" stroke="#001026" stroke-width="1.2" stroke-linecap="round" stroke-linejoin="round"/><path d="M248.66268,185.45683c-5.25713,0 -12.85103,-1.23833 -16.45459,-3.88572c-2.2615,-1.66144 -4.52139,-6.61169 -3.32592,-10.37846c1.12368,-3.54057 5.55485,-5.97188 8.15925,-5.5805c4.5183,0.67899 9.84947,4.27002 15.17338,4.27002c7.76285,0 14.2737,-6.9515 17.94022,-4.68888c0.91087,0.5621 2.09641,7.55979 -2.07849,11.99886c-4.25625,4.52557 -13.52886,8.26468 -19.41385,8.26468z" fill="#000000" fill-rule="nonzero" stroke="none" stroke-width="0" stroke-linecap="butt" stroke-linejoin="miter"/><path d="M224.68591,152.25822c0,-3.77265 3.05834,-6.83099 6.83099,-6.83099c3.77265,0 6.83099,3.05834 6.83099,6.83099c0,3.77265 -3.05834,6.83099 -6.83099,6.83099c-3.77265,0 -6.83099,-3.05834 -6.83099,-6.83099z" fill="#000000" fill-rule="nonzero" stroke="none" stroke-width="0" stroke-linecap="butt" stroke-linejoin="miter"/><path d="M247.77465,152.25822c0,-3.77265 3.05834,-6.83098 6.83099,-6.83098c3.77265,0 6.83099,3.05833 6.83099,6.83098c0,3.77265 -3.05834,6.83099 -6.83099,6.83099c-3.77265,0 -6.83099,-3.05834 -6.83099,-6.83099z" fill="#000000" fill-rule="nonzero" stroke="none" stroke-width="0" stroke-linecap="butt" stroke-linejoin="miter"/><path d="M218.53802,152.1216c0,-7.24349 5.87201,-13.1155 13.1155,-13.1155c7.24349,0 13.1155,5.87201 13.1155,13.1155c0,7.24349 -5.87201,13.1155 -13.1155,13.1155c-7.24349,0 -13.1155,-5.87201 -13.1155,-13.1155z" fill="url(#color-1)" fill-rule="nonzero" stroke="none" stroke-width="0" stroke-linecap="butt" stroke-linejoin="miter"/><path d="M241.49014,152.1216c0,-7.24348 5.87202,-13.1155 13.1155,-13.1155c7.24348,0 13.1155,5.87202 13.1155,13.1155c0,7.24348 -5.87202,13.1155 -13.1155,13.1155c-7.24348,0 -13.1155,-5.87202 -13.1155,-13.1155z" fill="url(#color-2)" fill-rule="nonzero" stroke="none" stroke-width="0" stroke-linecap="butt" stroke-linejoin="miter"/></g></g></svg>