<svg version="1.1" xmlns="http://www.w3.org/2000/svg" xmlns:xlink="http://www.w3.org/1999/xlink" width="136.3757" height="125.45695" viewBox="0,0,136.3757,125.45695"><g transform="translate(-167.95139,-76.65448)"><g data-paper-data="{&quot;isPaintingLayer&quot;:true}" fill-rule="nonzero" stroke-width="0.90024" stroke-miterlimit="10" stroke-dasharray="" stroke-dashoffset="0" style="mix-blend-mode: normal"><g stroke="#000000" stroke-linecap="round" stroke-linejoin="round"><path d="M284.8411,173.6504l-0.5347,1.5484c-2.9663,7.8213 -7.1831,12.3225 -7.1831,12.3225c0,0 0.1513,-1.3963 0.0703,-3.6397l-0.1315,-0.0459c-0.3799,1.1811 -1.0038,2.7043 -2.0408,4.5859c-2.2741,4.1321 -8.9521,7.5962 -8.9521,7.5962c0,0 0.4151,-1.4206 0.6752,-3.745l-0.0936,-0.3556c-0.7238,0.5573 -1.4746,1.0695 -2.2335,1.5682c-0.2233,0.1477 -0.4465,0.2917 -0.6734,0.4312c-0.6905,0.4295 -1.3936,0.8391 -2.1111,1.2217c-0.2835,0.1494 -0.5779,0.2881 -0.8651,0.4312c-0.5239,0.262 -1.0551,0.5095 -1.5943,0.749c-0.3961,0.1737 -0.7949,0.3466 -1.201,0.5077c-0.4204,0.1693 -0.8525,0.3214 -1.2819,0.4799c-0.7895,0.2826 -1.5907,0.5464 -2.41,0.7895c-0.2673,0.0792 -0.5347,0.1584 -0.8066,0.2322c-0.5842,0.1603 -1.173,0.3169 -1.7725,0.4556l0.0018,0.0018c-3.0096,0.7013 -6.2027,1.1586 -9.621,1.3692c-3.6982,0.2269 -7.0507,0.19 -10.1817,-0.0279v0c-2.4775,-0.1737 -4.7965,-0.4708 -6.9922,-0.8723c-0.1062,-0.0189 -0.2134,-0.0387 -0.3205,-0.0576c-0.6788,-0.1288 -1.3468,-0.2656 -2.0021,-0.4132c-0.2287,-0.0532 -0.4475,-0.1108 -0.6752,-0.1657c-0.8706,-0.207 -1.7168,-0.4339 -2.5513,-0.6752c-0.5275,-0.153 -1.0515,-0.3097 -1.5637,-0.4762c-0.3043,-0.0963 -0.6095,-0.1972 -0.9075,-0.2989c-0.8138,-0.2809 -1.6204,-0.5662 -2.4027,-0.8741l-0.136,0.1305c0.2953,2.1147 1.0245,3.2526 1.607,3.7945c1.1874,1.1064 3.4731,1.3693 3.4731,1.3693c0,0 -6.9868,0.9777 -10.7912,-4.4166c-0.4042,-0.5734 -0.812,-1.1676 -1.1991,-1.8005l-0.1666,-0.3619c-0.8264,-0.2763 -1.6636,-0.6436 -2.4901,-1.1163c-5.0395,-2.9033 -5.6724,-5.2979 -5.6724,-5.2979l0.1053,0.8777c0.4853,2.2876 0.9588,3.7315 0.9588,3.7315c0,0 -6.0316,-3.817 -8.718,-9.5371c-2.1659,-4.6174 -2.3379,-7.4144 -2.3523,-7.8844l-0.2026,-1.6798c-0.1305,-6.5781 0.2782,-13.9565 1.1821,-21.2152l0.0558,-0.1935c0.8057,-5.6112 0.0243,-14.9072 7.4693,-24.4191c13.9511,-17.8195 28.2037,-17.2001 36.7281,-30.3697c6.2702,-9.6885 4.6597,-20.8002 4.6597,-20.8002c0,0 3.845,5.4438 5.379,8.6406c1.4854,3.1157 3.0716,7.1317 3.0716,7.1317l0.0513,-0.0342c0.0351,-0.1171 0.0666,-0.2368 0.0936,-0.3565c0.4187,-1.8644 0.253,-4.621 0.253,-4.621c0,0 3.6658,10.7435 9.584,17.787c5.9146,7.04 14.4633,9.052 25.2563,33.1614c1.3432,2.996 2.5918,5.5176 3.2598,8.3129l0.3025,1.6087c0.9408,5.027 0.5708,18.915 -1.4062,24.9152v0v0v0zM215.7006,150.0388c0,0 -6.9913,7.2622 -6.5304,17.3675c0.4078,8.9412 2.7251,11.7031 3.9737,12.3945c1.2838,0.7067 3.2742,0.2881 3.2742,0.2881c0,0 -5.6301,2.9816 -10.2196,-1.0641c-3.0698,-2.7043 -6.4106,-6.1928 -7.346,-16.0324M273.8789,166.14229c0,0 0.8687,2.4865 -1.2487,7.6836c-2.382,5.8552 -7.4081,7.6665 -7.4081,7.6665c0,0 4.1762,-9.0205 0.6716,-17.5017c-1.5295,-3.7054 -6.2504,-6.4655 -11.1783,-8.4145c-6.678,-2.6432 -13.7351,-3.7955 -13.7351,-3.7955M277.0927,183.7376c-0.3763,1.1955 -1.0091,2.7556 -2.0768,4.6876c-2.2732,4.1321 -8.9512,7.5962 -8.9512,7.5962c0,0 1.2064,-4.1447 0.795,-9.8514M200.2767,170.2429c-0.686,1.273 -1.2135,2.6377 -1.5088,4.079c-1.8545,8.9863 1.4089,18.8845 1.4089,18.8845c0,0 -6.0298,-3.8153 -8.718,-9.5372c-2.3829,-5.0783 -2.3523,-7.9546 -2.3523,-7.9546M284.3019,175.2051c-2.9681,7.8213 -7.184,12.3225 -7.184,12.3225c0,0 0.8706,-7.9329 -2.6413,-16.415c-0.1584,-0.3835 -0.3376,-0.7562 -0.5275,-1.1181M240.9812,151.7807c0,0 1.1956,0.3169 4.35,2.8277c3.1545,2.5108 4.3149,5.2502 4.3149,5.2502c0,0 -9.3139,-2.4531 -14.4705,-4.3076c-5.1512,-1.8563 -22.534,-6.5898 -22.534,-6.5898M211.4875,189.1264c2.5251,3.9665 5.1521,6.1244 5.1521,6.1244c0,0 -6.1784,1.913 -11.8545,-1.354c-5.0395,-2.9032 -5.6724,-5.2979 -5.6724,-5.2979M266.6445,191.9226c-6.6591,5.1233 -14.737,7.6341 -24.5623,8.239c-11.7139,0.7211 -20.2761,-0.9902 -27.5942,-3.8611M214.28,195.7765c0.2215,2.5369 1.0371,3.8522 1.6772,4.4463c1.1883,1.1064 3.474,1.3693 3.474,1.3693c0,0 -6.9886,0.9777 -10.7921,-4.4166c-0.4042,-0.5734 -0.812,-1.1676 -1.1991,-1.8005M241.6573,152.08139c0,0 25.5147,3.1122 25.5147,17.038" fill="#be1e2d"/><path d="M272.1729,175.1412c-0.9516,10.0152 -12.4648,20.4643 -29.3137,21.4492c-14.8748,0.8777 -36.8569,-5.8111 -40.0465,-18.1282c-0.3169,-1.2379 -0.4852,-2.4334 -0.5311,-3.5821l0.3232,0.2359c1.1289,1.6528 2.3811,2.8447 3.5937,3.9106c4.5895,4.0439 10.2196,1.0623 10.2196,1.0623c0,0 -1.9904,0.4204 -3.2742,-0.2863c-1.2486,-0.6914 -3.5659,-3.4533 -3.9737,-12.3945c-0.4609,-10.1071 6.5304,-17.3675 6.5304,-17.3675l0.0243,-0.2323c5.2322,1.4494 15.6561,4.3752 19.4489,5.7427c5.1566,1.8554 14.4705,4.3076 14.4705,4.3076c0,0 -1.1604,-2.7394 -4.3149,-5.2502c-1.579,-1.2558 -2.6656,-1.9625 -3.357,-2.3559l0.6482,0.1017c0,0 19.6721,2.9078 23.2749,11.6365c3.5037,8.4821 -0.6707,17.5017 -0.6707,17.5017c0,0 4.2798,-1.5439 6.8077,-6.3791l0.1404,0.0279v0v0v0z" fill="#e6e7e8"/></g><g stroke="#000000" stroke-linecap="round" stroke-linejoin="miter"><path d="M279.1255,156.8581c0,0 9.0654,-10.1502 9.5696,-10.631c0.5041,-0.4807 4.2509,-5.0737 15.0493,-6.6429c0,0 -6.9345,30.8361 -23.0876,37.8895c0,-0.0009 1.5367,-8.8242 -1.5313,-20.6156v0v0v0zM279.1885,157.1066c-0.2332,-0.975 -0.9372,-2.6972 -0.9372,-2.6972M279.88259,179.8377c0,0 0.6202,-1.4782 0.7742,-2.3649" fill="#ff6000"/><path d="M287.0944,172.6268c0,0 -1.6177,-1.2433 -1.8041,-5.3331c-0.1197,-2.5369 0.9948,-7.1632 0.9948,-7.1632l-0.09,0.1476c0.7067,-0.8174 1.4521,-1.7725 2.1273,-2.8204c1.1442,-1.7726 2.4828,-4.431 3.7099,-7.0516l0.1899,-0.361c0,0 3.2445,-4.7452 9.9693,-5.3457l0.0774,0.0423c-1.4169,4.6876 -3.7279,11.5628 -6.2873,16.2593c-2.8708,5.2683 -6.1927,9.0943 -9.006,11.7221l0.1188,-0.0963v0v0v0zM283.48449,162.9204c0,0 2.3595,-2.3056 2.8006,-2.7899" fill="#929497"/></g><g stroke="#000000" stroke-linecap="round" stroke-linejoin="miter"><path d="M191.6209,177.4728c-16.1522,-7.0534 -23.0868,-37.8895 -23.0868,-37.8895c10.7985,1.5701 14.5453,6.1631 15.0494,6.6429c0.5041,0.4799 9.5696,10.631 9.5696,10.631c-3.0689,11.7923 -1.5322,20.6156 -1.5322,20.6156v0v0v0zM194.0263,154.40939c0,0 -0.704,1.7222 -0.9371,2.6972M191.6209,177.4728c0.1539,0.8867 0.7742,2.3649 0.7742,2.3649" fill="#ff6000"/><path d="M185.3021,172.7231c-2.8133,-2.6287 -6.1343,-6.4547 -9.0061,-11.7221c-2.5603,-4.6965 -4.8703,-11.5717 -6.2873,-16.2593l0.0775,-0.0423c6.7257,0.6014 9.9693,5.3457 9.9693,5.3457l0.1899,0.361c1.227,2.6206 2.5657,5.279 3.7099,7.0516c0.6752,1.0479 1.4206,2.003 2.1273,2.8204l-0.09,-0.1476c0,0 1.1145,4.6263 0.9947,7.1632c-0.1863,4.0898 -1.8041,5.3331 -1.8041,5.3331l0.1189,0.0963v0v0v0zM185.9926,160.1305c0.4411,0.4843 2.8006,2.7899 2.8006,2.7899" fill="#929497"/></g><path d="M228.4976,170.459v0v0v0v0v0c0.7175,0.2007 1.1343,0.9443 0.9317,1.6618c-0.2007,0.7193 -0.9407,1.1361 -1.6636,0.939c-0.0414,-0.0126 -4.2303,-1.1514 -8.3255,0.0423c-0.126,0.036 -0.2512,0.0549 -0.3763,0.0549c-0.5851,0 -1.1253,-0.3853 -1.2972,-0.974c-0.1018,-0.3439 -0.0514,-0.6977 0.1035,-0.9948c-0.253,-0.2215 -0.4924,-0.5077 -0.6581,-0.9021c-0.1944,-0.4573 0.0198,-0.9866 0.4789,-1.1802c0.4547,-0.1881 0.9858,0.0171 1.1812,0.4781c0.1548,0.3673 0.6031,0.4726 0.6085,0.4744c0.1324,0.0297 0.2485,0.0909 0.3484,0.1701c0.1333,-0.0279 0.2674,-0.0567 0.3988,-0.0792c-0.1386,-0.2088 -0.2673,-0.4429 -0.3448,-0.731c-0.1278,-0.4816 0.1585,-0.9723 0.6401,-1.101c0.4852,-0.1332 0.9741,0.1603 1.101,0.6401c0.1017,0.3835 0.5203,0.5572 0.5239,0.559c0.1954,0.0667 0.3394,0.2017 0.4448,0.3619c3.2246,-0.1503 5.7606,0.5402 5.9047,0.5807z" fill="#231f20" stroke="none" stroke-linecap="butt" stroke-linejoin="miter"/><path d="M260.7128,169.3499v0v0v0v0v0c-0.1585,0.803 -0.6401,1.2828 -1.0335,1.5718c0.0999,0.253 0.1513,0.5312 0.081,0.8156c-0.1791,0.7229 -0.8948,1.1695 -1.6348,0.9885c-2.8043,-0.6914 -6.435,-0.9425 -7.1651,-0.1989c-0.2637,0.2673 -0.6094,0.4024 -0.9596,0.4024c-0.3448,0 -0.686,-0.1306 -0.9498,-0.3907c-0.5311,-0.5222 -0.5383,-1.3765 -0.0144,-1.9095c1.4107,-1.4331 4.3878,-1.3962 6.7699,-1.083c0.1161,-0.0999 0.3006,-0.3042 0.3186,-0.5869c0.0253,-0.4942 0.4133,-0.9084 0.9444,-0.8525c0.496,0.0252 0.8768,0.4465 0.8525,0.9443c-0.018,0.3133 -0.0954,0.578 -0.1917,0.8192c0.1179,0.0243 0.2304,0.0459 0.3358,0.0703c0.0936,-0.1441 0.2106,-0.271 0.3799,-0.3448c0.0252,-0.0144 0.424,-0.2125 0.5014,-0.5978c0.099,-0.487 0.5645,-0.812 1.0587,-0.7067c0.487,0.099 0.803,0.5699 0.7067,1.0587z" fill="#231f20" stroke="none" stroke-linecap="butt" stroke-linejoin="miter"/><path d="M250.2222,179.2499c0,0 -2.6008,6.6078 -10.7588,6.5727c-8.1598,-0.0298 -11.3898,-4.9865 -11.3898,-4.9865" fill="none" stroke="#231f20" stroke-linecap="round" stroke-linejoin="miter"/></g></g></svg>