<svg version="1.1" xmlns="http://www.w3.org/2000/svg" xmlns:xlink="http://www.w3.org/1999/xlink" width="122.05165" height="96.70385" viewBox="0,0,122.05165,96.70385"><g transform="translate(-179.16553,-105.24251)"><g data-paper-data="{&quot;isPaintingLayer&quot;:true}" fill-rule="nonzero" stroke-width="0.90231" stroke-linejoin="miter" stroke-miterlimit="10" stroke-dasharray="" stroke-dashoffset="0" style="mix-blend-mode: normal"><g><path d="M197.2074,181.8811v0v0v0v0v0v0c-0.0478,-0.083 -1.444,-2.4149 -1.444,-2.4159c-3.8726,-6.2165 -4.7309,-20.2761 -4.3943,-24.6641l0.0298,-0.2102c1.1002,-18.5991 9.7497,-28.5261 14.8579,-33.7801c11.5944,-11.9333 29.1688,-12.4187 29.1688,-12.4187l0.6227,12.0732c0,0 -0.0334,-3.4723 7.0368,-9.5427c7.0684,-6.0704 17.5211,-5.1836 17.5211,-5.1836l-5.5467,15.1295c0,0 3.2697,-4.7127 5.9493,-6.4349c4.7507,-3.0482 8.7677,-1.7383 8.7677,-1.7383l-1.1073,9.3839c0,0 7.0702,9.1656 12.4815,17.7782c1.158,1.8376 2.5,3.6978 3.351,5.8376c3.0947,7.7746 3.5414,21.6312 0.0722,28.4946c-0.5992,1.2143 -1.2517,2.3934 -1.9286,3.5526c-0.176,0.2977 -0.3529,0.5936 -0.5325,0.8859c-0.62,1.0194 -1.2671,2.0189 -1.9476,2.9878c-0.092,0.129 -0.176,0.2661 -0.268,0.3952c-0.7717,1.078 -1.5857,2.1163 -2.4323,3.1258c-0.2021,0.2436 -0.4151,0.479 -0.6218,0.7208c-0.7256,0.8336 -1.4774,1.6437 -2.249,2.4231c-0.1778,0.1823 -0.3511,0.3672 -0.5307,0.5431c-0.9287,0.9076 -1.8961,1.7727 -2.8925,2.599c-0.222,0.1814 -0.4494,0.3546 -0.6733,0.5323c-0.8366,0.6676 -1.7012,1.3054 -2.5856,1.9134c-0.2554,0.1732 -0.5045,0.3554 -0.7617,0.525c-1.0803,0.71 -2.1868,1.3767 -3.3294,1.9928c-0.2039,0.111 -0.4205,0.2084 -0.6272,0.3158c-0.9765,0.5079 -1.9756,0.9752 -2.9963,1.4082c-4.3176,1.8304 -9.006,3.0221 -14.0402,3.3848c-5.7534,0.4141 -10.9618,0.2399 -15.6665,-0.3735c-1.1633,-0.1516 -2.295,-0.3329 -3.397,-0.5359c-0.2094,-0.0424 -0.4179,-0.083 -0.6254,-0.1236c-1.1173,-0.2201 -2.2139,-0.4564 -3.2662,-0.7262c-0.0063,-0.0018 -0.0144,-0.0036 -0.0216,-0.0054c-1.0542,-0.267 -2.0677,-0.5665 -3.0577,-0.8841c-0.1733,-0.055 -0.3511,-0.11 -0.5235,-0.166c-0.9512,-0.3112 -1.8781,-0.6441 -2.7715,-0.9968c-0.1571,-0.0595 -0.3087,-0.1272 -0.4648,-0.1885c-0.8818,-0.3555 -1.7418,-0.7254 -2.5667,-1.1169c-0.0316,-0.018 -0.0668,-0.0298 -0.0975,-0.046c-0.8447,-0.4041 -1.6516,-0.8263 -2.4358,-1.2585c-0.1463,-0.0811 -0.2916,-0.1605 -0.4341,-0.2417c-0.7545,-0.4285 -1.4856,-0.8661 -2.1823,-1.3171c-0.1065,-0.0677 -0.2076,-0.1381 -0.3132,-0.2066c-0.6615,-0.4366 -1.3014,-0.8823 -1.9133,-1.337c-0.0631,-0.0433 -0.1326,-0.0893 -0.1931,-0.1371c-0.6381,-0.479 -1.2409,-0.9689 -1.8221,-1.4623c-0.1129,-0.0948 -0.2239,-0.1904 -0.3322,-0.2851c-0.5667,-0.4935 -1.1118,-0.9878 -1.6245,-1.4939c-0.0586,-0.0551 -0.1119,-0.1137 -0.1696,-0.1696c-0.4829,-0.4809 -0.9413,-0.9653 -1.3745,-1.4498c-0.0605,-0.0703 -0.1291,-0.1389 -0.1905,-0.2074c-0.444,-0.5097 -1.4034,-1.7186 -1.4774,-1.8151c-0.3862,-0.5106 -0.7545,-1.0203 -1.0875,-1.5273c-0.0207,-0.0316 -0.0406,-0.0632 -0.0595,-0.0947c-0.3195,-0.4881 -0.6101,-0.9689 -0.8818,-1.448z" fill="#9a8479" stroke="#000000" stroke-linecap="butt"/><path d="M265.4608,154.747v0v0v0v0v0v0c0,0 10.5141,11.8864 7.2651,24.2167c-3.2472,12.3266 -22.6527,17.549 -37.5629,16.6117c-19.7106,-1.2404 -28.8485,-12.9789 -25.6049,-24.1815c3.2481,-11.2026 29.343,-16.4394 29.343,-16.4394l-4.2851,8.0487c0,0 3.3754,-0.5214 6.1018,-2.0803c2.7256,-1.5561 5.7147,-3.6319 5.7147,-3.6319l-6.2435,8.8453c0,0 8.2461,-0.0884 15.3867,-2.9463c7.1406,-2.8543 9.8851,-8.443 9.8851,-8.443z" fill="#e6e7e8" stroke="#000000" stroke-linecap="butt"/><g stroke="#000000"><path d="M278.9144,148.3202c0,0 16.9236,-9.5057 20.7917,-1.4226c3.8682,8.083 -3.0513,17.5554 -17.4913,26.1256c0,0 0.3186,-14.0723 -3.3004,-24.703v0v0v0v0v0v0zM278.9144,148.3202c-0.3024,-1.244 -1.3015,-3.6229 -1.3015,-3.6229M281.8394,175.2144l0.1814,-2.276" fill="#9a8479" stroke-linecap="round"/><path d="M282.0208,172.9375c0.0938,-2.6063 0.0902,-6.8977 -0.4973,-12.2563c-0.3385,-3.1187 -0.9928,-6.3357 -1.6642,-9.1142l0.0018,0.0036c9.913,-2.5233 18.7359,6.6387 18.7359,6.6387h0.0036c-4.9547,8.2247 -16.5004,14.5008 -16.5004,14.5008l-0.0794,0.2274v0v0v0v0v0v0z" fill="#ee4036" stroke-linecap="butt"/></g><g stroke="#000000"><path d="M199.4862,179.2226c-14.0564,-5.5932 -21.641,-13.1566 -19.5165,-21.1017c2.1254,-7.9459 18.5148,-1.88 18.5148,-1.88c-1.5027,10.2247 1.0017,22.9817 1.0017,22.9817v0v0v0v0v0v0zM199.0575,152.7461c0,0 -0.5036,2.3157 -0.5721,3.4948M199.6433,179.1143l0.5198,2.0442" fill="#9a8479" stroke-linecap="round"/><path d="M199.5377,178.9204c0,0 -11.1486,-3.9486 -16.8073,-10.6749l0.0027,-0.0009c0,0 6.313,-9.6834 15.4319,-8.9013l0.0009,-0.0027c-0.1516,2.6297 -0.2184,5.6572 -0.0226,8.5459c0.3303,4.9662 1.0054,8.8715 1.5,11.2278l-0.1056,-0.1939v0v0v0v0v0v0z" fill="#ee4036" stroke-linecap="butt"/></g><path d="M253.9765,174.1445c-0.6543,0 -1.2265,-0.4736 -1.3348,-1.1403c-0.1183,-0.7379 0.3844,-1.4326 1.1227,-1.5507c0.6714,-0.1056 6.6225,-1.0339 8.8156,-0.7614c0.7419,0.0938 1.2689,0.7704 1.1796,1.5083c-0.0939,0.7434 -0.7807,1.2594 -1.5108,1.1791c-1.3799,-0.1678 -5.6686,0.3663 -8.0575,0.7452c-0.0722,0.0144 -0.1444,0.0198 -0.2148,0.0198v0v0v0v0v0v0v0z" fill="#231f20" stroke="none" stroke-linecap="butt"/><path d="M232.0394,174.4332c-0.0848,0 -0.1706,-0.009 -0.259,-0.0244c-3.1254,-0.6044 -8.6216,0.0109 -8.6757,0.0163c-0.7302,0.0812 -1.4116,-0.4457 -1.4982,-1.189c-0.0848,-0.7416 0.4476,-1.4128 1.1913,-1.4976c0.2437,-0.0243 5.961,-0.6657 9.497,0.0163c0.7328,0.1407 1.2148,0.8507 1.0722,1.5877c-0.1255,0.6414 -0.6931,1.0907 -1.3276,1.0907v0v0v0v0v0v0v0z" fill="#231f20" stroke="none" stroke-linecap="butt"/><path d="M254.8853,180.4738c0,0 -3.6524,4.9247 -11.8309,4.9247c-8.1766,0 -10.3661,-3.2368 -10.3661,-3.2368" fill="none" stroke="#231f20" stroke-linecap="round"/></g></g></g></svg>