<svg version="1.1" xmlns="http://www.w3.org/2000/svg" xmlns:xlink="http://www.w3.org/1999/xlink" width="108.58588" height="104.13168" viewBox="0,0,108.58588,104.13168"><g transform="translate(-185.40008,-113.82825)"><g data-paper-data="{&quot;isPaintingLayer&quot;:true}" fill-rule="nonzero" stroke-linejoin="miter" stroke-miterlimit="10" stroke-dasharray="" stroke-dashoffset="0" style="mix-blend-mode: normal"><path d="M203.1001,149.9465c0,0 0.8403,-3.4318 7.9912,-10.7257c7.1473,-7.2903 14.8846,-9.8011 20.016,-11.8969c5.1314,-2.0958 8.5767,-12.5676 8.5767,-12.5676c0,0 4.7248,5.8553 9.5806,11.1794c4.9552,5.4295 16.4939,10.1882 28.8584,22.5875c1.4755,1.4845 2.7297,3.0383 3.7842,4.6327l0.2141,0.1864c2.7613,2.3865 12.557,11.9076 11.3001,25.7698c-0.9596,10.5618 -5.7793,13.8991 -8.1168,14.7948l-0.019,0.0774c1.2036,-2.3757 1.9201,-4.8974 2.259,-7.4568c1.1177,-8.4642 -3.4607,-13.963 -6.3955,-21.3253c-3.805,-9.5463 -14.2133,-14.9172 -27.6901,-14.6498c-25.6498,0.5059 -31.2989,14.8731 -31.2989,14.8731l-0.019,0.1864c4.7582,8.8045 6.6585,28.3337 -3.0848,34.1782c-10.495,6.2865 -26.0347,4.0926 -32.0868,-20.1982c-5.5398,-22.2309 11.048,-29.2349 15.9273,-29.1773l0.2033,-0.4681v0v0v0v0v0v0v0v0v0v0v0v0v0v0v0v0v0v0v0v0v0v0v0v0v0v0v0v0v0v0v0v0v0v0v0v0zM281.9063,153.1559c0,0 6.7298,10.6527 4.5395,23.8172M202.8968,150.4137c4.7185,0.127 7.881,3.4921 7.881,3.4921M222.1402,165.6101c-0.7942,-1.2343 -1.3481,-2.2507 -1.3481,-2.2507" fill="#f05a28" stroke="#000000" stroke-width="0.90192" stroke-linecap="round"/><path d="M286.7593,190.3698c0,0 2.1234,-3.8378 3.5565,-10.8742c1.4313,-7.04 -0.4789,-16.6124 -0.4789,-16.6124c2.3719,4.2861 4.1691,9.7867 3.5881,16.2289c-0.9307,10.2899 -5.7232,13.7991 -8.1186,14.7948l1.4529,-3.5371v0v0v0v0v0v0v0v0v0v0v0v0v0v0v0v0v0v0v0v0v0v0v0v0v0v0v0v0v0v0v0v0v0v0v0v0z" fill="#404041" stroke="#000000" stroke-width="0.90192" stroke-linecap="butt"/><g stroke="#231f20" stroke-width="0.90192"><path d="M187.5216,181.7562v0v0v0v0v0v0v0v0v0v0v0v0v0v0v0v0v0v0v0v0v0v0v0v0v0v0v0v0v0v0v0v0v0v0v0v0v0c-1.0825,-4.1682 -2.0249,-10.6681 -1.1566,-15.723c0.8927,-5.2152 3.9712,-8.5948 7.3596,-9.414c6.344,-1.5404 14.0126,7.5711 17.1345,20.3458c2.9384,12.0418 0.796,23.0385 -4.7718,25.5565c0,0 -1.8234,0.2322 -5.5028,-1.7816c-3.6766,-2.0094 -6.8554,-5.4619 -8.152,-7.6945c-1.3002,-2.23 -3.8257,-7.1139 -4.9109,-11.2892z" fill="#404041" stroke-linecap="butt"/><path d="M191.463,171.1331c2.4405,-1.0416 6.5825,3.1473 9.2526,9.36c2.6673,6.2082 2.8544,12.0913 0.4165,13.132c-2.4423,1.0398 -6.5825,-3.1509 -9.2508,-9.3617c-2.6718,-6.21 -2.8571,-12.0887 -0.4183,-13.1303v0v0v0v0v0v0v0v0v0v0v0v0v0v0v0v0v0v0v0v0v0v0v0v0v0v0v0v0v0v0v0v0v0v0v0v0zM202.1965,192.6106c-10.0495,-6.346 -9.9375,-21.6341 -9.9375,-21.6341" fill="#929497" stroke-linecap="round"/></g><path d="M218.2205,200.3636v0v0v0v0v0v0v0v0v0v0v0v0v0v0v0v0v0v0v0v0v0v0v0v0v0v0v0v0v0v0v0v0v0v0v0v0v0l-0.0542,-0.0685c0.3,-0.162 0.5964,-0.3312 0.8891,-0.5059c9.7559,-5.8517 7.8358,-25.426 3.0667,-34.2098l0.0389,-0.1548c0,0 5.6492,-14.369 31.3034,-14.8731c13.4769,-0.2674 23.8833,5.1035 27.6892,14.6498c2.9339,7.3623 7.5132,12.8611 6.3946,21.3253c-1.1684,8.8081 -6.8157,17.2219 -21.366,20.6519c-14.5511,3.4417 -13.9647,1.5971 -18.8431,3.6857c-4.8766,2.0994 -5.1287,3.0203 -5.1287,3.0203c0,0 1.5623,-3.0464 -4.6877,-4.603c-9.437,-2.3434 -18.1266,-8.1176 -19.3022,-8.9179z" fill="#e6e7e8" stroke="#000000" stroke-width="0.90192" stroke-linecap="round"/><path d="M275.21429,175.52381c0,11.67688 -9.40202,21.14286 -21,21.14286c-11.59798,0 -21,-9.46598 -21,-21.14286c0,-11.67688 9.40202,-21.14286 21,-21.14286c11.59798,0 21,9.46598 21,21.14286z" fill="#000000" stroke="#000000" stroke-width="0.90192" stroke-linecap="butt"/><path d="M269.07143,191.59524c0,8.16592 -8.95431,14.78571 -20,14.78571c-11.04569,0 -20,-6.61979 -20,-14.78571c0,-8.16592 8.95431,-14.78571 20,-14.78571c11.04569,0 20,6.61979 20,14.78571z" fill="#000000" stroke="#000000" stroke-width="0.90192" stroke-linecap="butt"/><path d="M283.21429,181.38095c0,8.20537 -5.5005,14.85714 -12.28571,14.85714c-6.78521,0 -12.28571,-6.65177 -12.28571,-14.85714c0,-8.20537 5.5005,-14.85714 12.28571,-14.85714c6.78521,0 12.28571,6.65177 12.28571,14.85714z" fill="#000000" stroke="#000000" stroke-width="0.90192" stroke-linecap="butt"/><path d="M279.24299,193.19597c0.23177,0.18573 0.28252,0.49026 0.28252,0.49026c0.62647,3.82351 0.50632,7.64515 0.7226,11.4987c0.10442,1.86043 0.71477,3.61383 0.71362,5.5436c-0.24898,1.47779 -1.35874,5.58936 -3.56349,4.0399c-1.01905,-0.71617 -0.64824,-4.06699 -0.64824,-5.10176c0,-0.05703 0.09119,-1.80381 0.00085,-1.83889c-0.34077,-0.13231 -0.71456,-0.21927 -1.07927,-0.19449c-0.51402,0.03492 0.13516,1.27505 -0.32253,1.51157c-1.38412,0.71528 -2.32274,-1.1942 -2.80664,-2.00206c-0.5627,-1.70885 -0.26731,1.50623 -2.34615,1.11355c-0.50489,-0.09537 -0.79867,-0.67089 -1.07698,-1.10281c-0.08426,-0.13076 -0.1752,-0.36862 -0.24519,-0.6106c-0.34586,0.54009 -1.24121,1.07643 -1.80265,1.01658c-1.96806,-0.20978 -1.53978,-2.35647 -1.75129,-3.45432c-0.12067,-0.62632 -1.18227,0.38411 -1.81139,0.61338l-0.47842,0.47842c-0.13572,0.13572 -0.32322,0.21967 -0.53033,0.21967c-0.41421,0 -0.75,-0.33579 -0.75,-0.75v-0.85714h0.29853c0.10441,-2.56127 1.88275,-5.2899 3.46405,-7.07162c0.77666,-0.87509 1.60801,-2.26065 2.90681,-2.38832c1.49301,-0.14677 3.42565,0.835 5.08163,0.86633c1.47209,-0.62599 2.81231,-1.50596 4.29186,-2.10275l0.66807,-0.17411c0,0 0.50906,-0.12727 0.78203,0.25691z" fill="#00ff1e" stroke="none" stroke-width="0.5" stroke-linecap="butt"/></g></g></svg>