<svg version="1.1" xmlns="http://www.w3.org/2000/svg" xmlns:xlink="http://www.w3.org/1999/xlink" width="62.40999" height="156.88047" viewBox="0,0,62.40999,156.88047"><g transform="translate(-209.24671,-171.88279)"><g data-paper-data="{&quot;isPaintingLayer&quot;:true}" fill-rule="nonzero" stroke="none" stroke-width="1" stroke-linecap="butt" stroke-linejoin="miter" stroke-miterlimit="10" stroke-dasharray="" stroke-dashoffset="0" style="mix-blend-mode: normal"><path d="M212.755,314.4c0.37,0.304 0.433,0.452 0.702,0.57c0.794,0.344 2.391,0.81 3.094,0.708c1.355,-0.192 1.169,-0.173 2.443,-0.254c0.068,-0.365 -0.74,-0.544 -0.703,-0.904c0.429,-0.208 1.457,-1.1 1.918,-1.291c0.794,-0.33 2.077,-0.62 2.878,-0.86c0.925,-0.28 2.017,-0.287 2.981,-0.135c0.709,0.112 1.085,1.882 1.223,2.547c0.085,0.407 0.65,0.661 0.906,0.986c0.222,0.283 0.837,0.598 1.009,0.91c0.392,0.711 0.87,0.67 1.33,1.291c0.497,0.671 0.914,1.144 1.656,1.484c0.879,0.403 0.452,0.475 1.526,0.715c0.526,0.117 1.632,0.413 2.139,0.537c0.442,0.107 1.358,0.378 1.365,0.957c0.595,0.942 0.783,1.774 -0.071,2.793c-0.421,0.502 -0.962,1.009 -1.521,1.287c-0.698,0.346 -1.326,0.761 -2.048,1.053c-0.813,0.329 -1.645,0.717 -2.515,0.848c-0.852,0.129 -1.717,0.461 -2.588,0.5c-1.901,0.084 -4.861,0.76 -6.091,-0.912c-0.995,-1.349 -2.493,-2.347 -3.871,-3.328c-1.464,-1.043 -2.937,-1.291 -4.489,-2.152c-0.757,-0.421 -2.165,-0.82 -2.583,-1.614c-0.406,-0.771 -0.268,-1.473 -0.311,-2.349c-0.036,-0.724 -0.002,-1.778 0.297,-2.394c0.276,-0.566 0.632,-0.725 1.428,-0.688" fill="#2fa64a"/><path d="M242.737,308.118c0.545,0.161 0.835,0.476 1.099,0.599c0.505,0.234 1.501,0.285 2.042,0.423c1.242,0.314 2.821,-0.139 4.099,-0.214c1.788,-0.104 3.416,-1.057 5.111,-1.703c0.631,-0.242 1.789,-1.079 1.88,-1.812c0.089,-0.719 -0.468,-1.504 -0.421,-2.248c0.065,-1.036 0.909,-0.4 1.684,-0.181c0.383,0.108 0.469,0.094 0.797,0.315c0.238,0.158 0.699,0.168 0.794,0.438c0.466,1.313 1.144,0.427 0.132,1.314c0.181,-0.018 -1.852,1.299 -1.719,1.432c0.705,0.699 0.896,0.476 1.579,0.906c0.754,0.475 2.254,1.545 3.063,1.899c2.092,0.912 4.363,0.757 6.62,0.757c0.776,0 1.251,-0.327 1.576,0.569c0.193,0.535 0.496,1.325 0.315,1.816c-0.502,1.363 -1.834,2.942 -3.243,3.236c-2.001,0.418 -4.053,0.644 -6.14,0.337c-1.798,-0.267 -3.866,-0.794 -5.656,-1.125c-2.235,-0.414 -4.432,-0.189 -6.579,0.398c-1.787,0.489 -3.439,0.318 -5.314,0.111c-0.563,-0.06 -1.469,-0.485 -1.849,-0.866c-0.283,-0.283 -0.461,-0.597 -0.649,-0.952c-0.325,-0.615 -0.959,-1.109 -1.028,-1.808c-0.075,-0.759 0.222,-2.228 0.726,-2.791c0.232,-0.258 0.4,-1.026 0.787,-0.945" fill="#2fa64a"/><path d="M211.051,319.536c2.019,0.328 4.187,1.668 6.086,2.434c2.118,0.854 3.833,2.437 5.992,3.229c2.409,0.886 5.342,0.578 7.745,-0.332c1.127,-0.429 2.297,-0.684 3.18,-1.317c0.546,-0.393 1.155,-0.595 1.387,-1.177c0.161,-0.403 -0.144,-0.678 0.039,-1.023c0.05,-0.095 -0.188,-0.427 -0.183,-0.526c1.172,-0.134 1.612,0.48 2.24,1.483c0.666,1.064 -0.007,1.752 -0.476,2.557c-1.139,1.953 -4.253,2.515 -6.401,3.097c-2.144,0.582 -5.418,1.123 -7.47,0.186c-0.573,-0.262 -0.628,-0.582 -0.998,-0.985c-0.313,-0.346 -0.8,-0.576 -1.167,-0.865c-0.503,-0.397 -0.772,-0.908 -1.222,-1.297c-0.37,-0.32 -0.724,-0.531 -1.167,-0.756c-1.357,-0.689 -2.988,-1.487 -4.392,-2.092c-0.577,-0.248 -1.717,-0.667 -2.233,-0.999c-0.768,-0.494 -0.422,-1.108 -0.965,-1.685" fill="#a9d7aa"/><path d="M241.96,313.245c0.155,-0.384 2.297,0.751 2.716,0.709c1.005,-0.102 2.142,0.146 3.137,-0.116c0.894,-0.238 1.568,0.014 2.365,-0.211c1.06,-0.3 2.052,-0.181 3.137,-0.07c1.109,0.111 2.168,0.444 3.301,0.562c1.342,0.14 2.755,0.369 4.119,0.492c2.146,0.191 4.107,0.336 6.204,-0.353c3.319,-1.089 3.251,-3.752 3.605,-4.055c1.392,1.047 1.401,2.768 -0.142,4.645c-1.323,1.609 -3.993,1.227 -5.87,1.405c-2.182,0.208 -4.36,-0.645 -6.487,-0.874c-0.982,-0.106 -1.923,-0.241 -2.933,-0.341c-1.398,-0.139 -3.012,-0.018 -4.351,0.318c-1.617,0.406 -3.021,0.313 -4.729,0.375c-0.984,0.035 -1.592,0.289 -2.435,-0.421c-0.517,-0.437 -0.34,-0.146 -0.679,-0.516c-0.041,-0.1 -0.402,-0.532 -0.375,-0.585" fill="#a9d7aa"/><path d="M256.837,299.873c-0.087,0.479 -0.111,0.613 -0.191,0.815c-0.19,0.482 0.161,2.009 -0.1,2.468c-0.591,1.031 0.958,2.155 0.043,2.924c-1.621,1.356 -3.398,2.165 -5.74,2.607c-0.526,0.101 -1.079,0.162 -1.578,0.36c-0.58,0.229 -1.25,0.202 -1.897,0.175c-0.545,-0.022 -0.508,0.068 -1.016,-0.007c-0.499,-0.075 -0.126,-0.241 -0.725,-0.137c-0.623,-0.106 0.245,0.053 -0.907,-0.144c-0.711,-0.12 -2.735,-0.609 -1.937,-0.537c-1.224,-0.169 -3.397,-1.69 -3.008,-2.639c0.146,-0.354 1.626,-1.724 0.362,-3.89c-0.4,-0.686 -0.448,-1.946 0.29,-2.677c0.753,-0.742 -0.335,-0.913 -0.374,-1.989c-0.039,-1.062 -0.764,-2.58 -0.579,-3.659c0.202,-1.177 0.559,-0.738 1.165,-2.019c0.346,-0.731 0.825,-3.1 0.151,-4.126c-0.711,-1.084 -0.584,-3.015 -0.835,-4.278c-0.534,-2.698 -0.337,-5.688 -0.413,-8.425c-0.065,-2.356 0.004,-4.749 0.698,-6.979c0.249,-0.803 0.456,-1.638 0.707,-2.46c0.284,-0.927 0.338,-2.083 0.433,-3.051c0.248,-2.519 0.5,-2.897 0.042,-5.371c-0.168,-0.908 -0.493,-3.272 -0.66,-4.177c-0.185,-1.001 -0.345,-1.952 -0.392,-2.996c-0.039,-0.851 -0.104,-2.043 -0.573,-2.763c-1.002,0.788 -0.991,3.075 -1.798,4.145c-0.811,1.074 -1.123,2.341 -1.754,3.521c-1.13,2.115 -1.877,4.534 -3.226,6.508c-1.333,1.948 -0.303,4.295 -0.206,5.239c0.077,0.748 -0.218,1.068 -0.385,1.807c-0.149,0.66 -0.201,1.489 -0.742,2.016c-0.443,0.431 -0.199,0.551 -0.264,1.13c-0.161,1.438 -0.771,2.275 -1.017,3.727c-0.275,1.622 -0.662,3.148 -1.054,4.655c-0.354,1.362 -0.868,3.032 -1.117,4.44c-0.243,1.365 -0.748,3.102 -0.827,5.887c-0.054,1.9 -0.508,2.175 -0.479,4.001c0.011,0.709 -0.088,0.803 -0.1,1.52c-0.015,0.898 -0.22,0.088 -0.007,0.818c0.313,1.074 -0.574,2.142 -0.641,3.261c-0.067,1.134 -0.111,0.082 0.03,1.201c0.102,0.805 0.233,3.064 0.022,3.688c-0.436,1.281 1.328,0.523 1.267,0.93c-0.346,2.278 -0.477,1.765 -1.561,4.102c-0.685,1.475 0.333,2.729 0.123,2.74c-2.023,0.093 -5.121,0.539 -6.737,1.482c-1.146,0.668 0.122,1.806 -1.315,1.811c-0.592,0.001 -1.953,0.395 -2.539,0.172c-1.037,-0.396 -0.504,0.054 -1.677,-0.479c-1.317,-0.597 -2.472,-1.044 -1.881,-0.771c1.406,0.647 -1.651,-0.563 -2.083,-1.491c-0.435,-0.937 -0.101,-5.851 0.228,-7.244c0.148,-0.629 0.681,-1.375 0.514,-2.008c-0.072,-0.273 -0.088,-1.464 0.137,-1.877c0.29,-0.532 -0.524,-0.41 -0.092,-0.98c0.348,-0.458 0.058,-1.05 0.212,-1.739c0.119,-0.532 -0.396,-1.516 -0.174,-2.008c0.232,-0.518 -0.029,-1.131 0.028,-1.698c0.096,-0.97 0.482,-2.121 0.726,-3.271c0.53,-2.503 1.314,-5.197 1.814,-7.88c0.453,-2.429 0.845,-4.68 1.293,-7.032c0.402,-2.108 0.253,-4.04 1.076,-6.112c0.414,-1.04 0.447,-2.545 0.942,-3.548c0.438,-0.889 1.721,-4.085 1.578,-3.107c-0.019,0.134 1.789,-3.421 1.656,-2.728c-0.273,1.436 0.44,-2.645 0.658,-4.054c0.218,-1.409 0.268,-2.863 0.613,-4.211c0.282,-1.102 0.332,-2.319 0.515,-3.465c0.374,-2.35 1.032,-4.665 1.075,-7.063c0.052,-2.821 0.575,-5.312 0.473,-8.126c-0.045,-1.249 0.927,-9.124 0.917,-9.115c3.984,1.208 8.729,0.344 12.742,-0.288c3.748,-0.589 7.354,-0.814 11.048,-2.116c2.533,-0.893 4.695,-2.349 7.17,-3.003c0.205,0.347 0.268,0.006 0.42,0.392c0.168,0.43 0.478,1.003 0.582,1.461c0.23,0.999 0.498,2.154 0.631,3.179c0.258,1.973 0.298,3.686 0.373,5.76c0.086,2.358 0.271,4.771 0.116,7.093c-0.153,2.34 0.021,4.701 -0.673,6.917c-0.349,1.109 -0.486,2.11 -0.715,3.253c-0.206,1.032 -0.384,2.16 -0.677,3.204c-0.274,0.979 -0.95,2.172 -1.062,3.113c-0.119,0.997 0.056,2.485 -0.646,3.277c-0.502,0.566 -0.264,0.764 -0.424,1.593c-0.141,0.729 -0.417,1.183 -0.426,1.929c-0.006,0.522 0.448,1.57 0.504,1.863c0.116,0.605 0.076,0.653 0,1.404c-0.145,1.425 -0.965,2.431 -1.125,3.718c-0.122,0.979 -0.089,2.046 -0.293,3.062c-0.445,2.219 0.391,4.493 0.583,6.718c0.405,4.702 1.266,10.396 1.614,12.8c0.202,1.396 0.427,0.688 0.711,2.158c0.378,1.967 0.412,2.692 1.67,2.591c0.241,-0.02 -0.316,1.364 0.359,1.558c0.021,0.007 0.091,0.398 0.382,1.322c0.274,0.878 0.808,0.071 0.242,0.69" fill="#536aa4"/><path d="M212.654,190.154c0.412,0.157 -0.643,-1.263 -1.738,-2.774c1.038,-1.592 0.971,-3.192 1.756,-4.968c0.959,-2.168 0.666,-5.811 4.918,-6.672c2.028,-0.41 4.834,-1.548 6.725,-0.323c0.725,0.471 0.518,0.235 1.279,0.903c3.389,2.975 2.679,0.831 3.164,1.392c-0.095,0.031 0.63,1.216 1.061,1.686c0.98,1.122 1.202,2.055 2.374,3.016c1.369,1.122 2.081,1.753 3.369,1.902c3.548,0.412 4.267,-0.872 5.954,-1.806c0.638,-0.354 1.264,-2.378 1.411,-2.879c0.181,-0.621 0.414,-2.97 0.222,-3.813c-0.111,-0.487 -0.614,-1.248 -0.552,-1.765c0.055,-0.46 -0.767,-0.498 -0.403,-0.751c1.521,-1.064 3.179,-1.44 4.678,-1.064c1.355,0.342 1.883,1.081 2.786,1.987c1.006,1.012 1.059,2.777 1.817,3.922c0.629,0.95 0.496,1.767 1.084,2.364c0.538,1.382 2.833,2.578 2.226,1.901c-0.528,-0.587 0.455,0.531 0.035,1.245c-0.938,1.598 -1.316,2.954 -2.083,3.956c0.014,0.18 -1.088,1.529 -1.03,1.498c-0.869,0.225 -0.255,0.867 -1.137,0.548c0.064,0.469 -0.333,1.488 -0.221,2.004c0.131,0.597 -0.167,0.655 -0.239,0.98c-0.154,0.705 -0.354,2.188 -0.114,3.215c0.563,2.405 0.095,3.639 0.703,5.628c0.432,1.409 -0.022,2.295 0.422,3.569c0.401,1.151 0.325,1.813 0.833,2.9c1.036,2.215 2.203,4.531 2.819,6.882c0.252,0.96 0.709,1.662 1.448,2.027c2.154,1.065 0.551,3.729 -0.465,5.369c-1.12,0.102 -0.169,-2.506 -0.854,-1.637c-0.837,1.063 -3.857,3.612 -5.154,4.193c-2.924,1.311 -5.572,2.159 -8.876,2.596c-3.611,0.476 -7.404,0.379 -10.635,0.201c-0.842,-0.047 -2.228,-0.671 -3.051,-0.61c-0.666,0.049 -2.677,-0.914 -3.243,-1.326c-2.223,-1.617 -0.252,-2.827 0.104,-3.873c0.387,-1.137 0.003,-1.075 0.39,-1.696c0.2,-0.32 0.504,-0.511 0.38,-1.26c-0.119,-0.72 -0.164,-0.756 -0.141,-1.539c0.013,-0.447 0.205,-0.48 0.6,-0.916c0.443,-0.487 0.187,-0.15 0.673,-0.789c0.468,-0.615 0.453,-0.208 0.668,-0.866c0.178,-0.546 -0.018,-0.615 0.087,-1.154c0.115,-0.595 0.537,-1.075 0.61,-1.669c0.089,-0.731 -0.113,-1.782 -0.194,-2.42c-0.148,-1.17 -0.112,-2.25 -0.43,-3.347c-0.632,-2.177 -0.605,-1.903 -1.612,-4.713c-0.197,-0.551 -0.992,-1.707 -1.178,-2.215c-0.198,-0.541 -0.322,-0.978 -0.79,-1.446c-0.328,-0.702 -0.826,-0.463 -0.991,-1.161c-0.089,-0.377 -0.342,-0.766 -0.103,-2.499c0.08,-0.577 0.626,-2.915 0.522,-3.257c-0.779,-1.433 -3.322,-2.422 -4.531,-2.398c-0.502,0.009 -1.692,-0.569 -2.479,-0.552c-1.662,0.037 -1.662,0.037 -1.662,0.037c-0.051,1.124 -0.151,2.371 -0.923,1.879M239.109,172.868c0.019,0.294 0.269,0.884 0.554,1.036c0.401,0.216 1.103,0.219 1.551,0.198c0.304,-0.014 0.684,0.028 0.979,-0.059c0.24,-0.07 0.271,-0.458 0,-0.566c-0.153,-0.062 -0.223,-0.001 -0.381,0c-0.282,0.001 -0.524,-0.065 -0.801,-0.124c-0.209,-0.044 -0.52,-0.158 -0.72,-0.237c-0.235,-0.093 -0.833,-0.301 -1.088,-0.283" fill="#2fa64a"/><path d="M213.535,187.505c1.959,0.067 4.175,0.447 5.899,1.523c0.647,0.406 1.813,0.789 2.32,1.307c0.641,0.653 0.747,1.422 0.591,2.193c-0.346,1.709 -0.823,3.589 -0.819,5.327c0.004,1.854 -0.56,4.15 -0.898,5.955c-0.281,1.497 -0.632,2.552 -0.632,4.107c0,1.686 0.629,3.247 1.025,4.828c0.375,1.498 0.311,3.704 0.227,5.296c-0.169,3.193 -0.995,5.231 -0.669,8.416c0.16,1.565 0.531,3.039 0.669,4.604c0.117,1.331 0.088,3.152 0.064,4.483c-0.024,1.343 -0.092,3.005 -0.4,4.375c-0.149,0.661 0.033,1.147 -0.009,1.884c-0.04,0.707 0.819,2.379 0.623,2.983c-1.862,0.191 -1.812,-1.859 -2.166,-2.238c-0.81,0.666 -1.836,2.721 -2.628,2.649c-1.13,-0.103 -2.707,-1.339 -3.491,-1.693c-0.023,-0.011 -0.3,-0.581 -0.382,-0.671c-0.107,-0.118 -0.606,-0.134 -0.7,-0.261c-0.232,-0.315 0.178,-0.507 0.158,-0.947c-0.035,-0.774 0,-1.561 0,-2.336c0,-1.759 0.108,-2.887 0.859,-4.359c1.244,-2.435 2.151,-5.497 1.982,-8.351c-0.093,-1.574 -0.691,-3.201 -1.133,-4.764c-0.481,-1.701 -1.015,-4.35 -1.343,-6.118c-0.571,-3.071 -0.954,-5.419 -0.438,-8.626c0.235,-1.461 0.631,-3.04 0.824,-4.49c0.119,-0.896 -0.076,-1.837 0.086,-2.723c0.16,-0.877 0.379,-1.544 0.379,-2.523c0,-3.288 0.188,-6.506 0.188,-9.738" fill="#deb252"/><path d="M251.309,189.606c1.156,-0.764 1.786,-2.109 2.486,-3.138c0.014,1.654 0.238,2.675 0.489,4.219c0.253,1.555 0.556,3.049 0.843,4.594c0.261,1.39 0.34,3.157 0.847,4.489c0.479,1.263 1.166,2.608 1.799,3.909c0.682,1.398 1.322,2.404 1.479,3.957c0.146,1.466 0.532,2.866 0.747,4.307c0.462,3.069 -0.187,5.935 -0.187,8.989c0,0.777 0.039,1.564 0,2.341c-0.041,0.821 0.109,1.665 0.062,2.468c-0.102,1.731 -0.18,2.646 1.131,3.767c1.081,0.924 1.782,2.187 2.347,3.504c0.436,1.023 0.914,3.213 0.557,4.331c-0.26,0.815 -0.728,1.23 -0.838,2.109c-0.055,0.429 0.53,1.645 0.287,1.994c-0.588,0.847 -1.436,-0.234 -1.691,-0.568c-0.249,-0.322 -0.261,-0.496 -0.615,-0.775c-0.538,-0.422 -0.044,-0.502 -0.862,-0.274c-0.705,0.194 -1.766,0.383 -2.527,0.112c-0.832,-0.294 -0.61,-0.938 -0.655,-1.777c-0.074,-1.441 -0.359,-5.646 -0.302,-7.101c0.072,-1.809 0.215,-1.435 0.114,-3.48c-0.054,-1.082 -0.417,-1.977 -0.469,-3.09c-0.044,-0.951 -0.414,-1.79 -0.61,-2.561c-0.342,-0.807 0.111,0.658 -0.18,0.272c0.613,-0.879 1.661,-2.372 1.8,-3.819c0.062,-0.628 -1.164,-2.189 -1.952,-2.168c-0.009,-0.811 -0.481,-1.49 -0.729,-2.198c-0.237,-0.675 -0.399,-1.205 -0.688,-1.866c-0.573,-1.316 -1.196,-2.462 -1.671,-3.862c-0.42,-1.236 -1.041,-2.642 -1.212,-3.931c-0.11,-0.819 -0.024,-1.461 -0.258,-2.247c-0.216,-0.728 -0.412,-1.274 -0.321,-2.061c0.2,-1.73 -0.569,-3.66 -0.854,-5.516c-0.25,-1.636 0.572,-3.207 0.964,-4.878" fill="#deb252"/><path d="M240.878,235.64c-0.133,0.073 -0.632,0.09 -0.316,-0.086c2.537,-1.397 5.189,-2.548 7.898,-3.569c0.212,-0.079 0.552,0.002 0.191,0.138c-2.667,1.005 -5.275,2.141 -7.773,3.517zM252.266,261.342c-0.055,0.144 -0.578,0.202 -0.536,0.092c1.284,-3.359 2.143,-6.891 3.058,-10.365c0.962,-3.655 1.641,-7.444 1.785,-11.224c0.134,-3.523 -0.054,-7.058 -0.248,-10.577c-0.163,-2.934 -0.421,-5.942 -1.7,-8.629c-0.049,-0.102 0.476,-0.288 0.544,-0.146c1.342,2.815 1.579,6.005 1.723,9.079c0.164,3.552 0.416,7.122 0.198,10.677c-0.223,3.609 -0.805,7.242 -1.766,10.728c-0.956,3.469 -1.773,6.998 -3.058,10.365zM232.384,263.051c-0.051,0.144 -0.577,0.206 -0.537,0.092c1.792,-4.995 4.697,-9.523 6.836,-14.373c2.108,-4.775 3.964,-9.681 5.292,-14.735c0.038,-0.143 0.57,-0.221 0.536,-0.093c-1.326,5.048 -3.166,9.972 -5.291,14.736c-2.157,4.837 -5.045,9.382 -6.836,14.373zM219.86,261.751c-0.035,0.142 -0.568,0.223 -0.534,0.093c0.635,-2.583 0.759,-5.249 1.2,-7.865c0.541,-3.214 1.423,-6.353 1.75,-9.604c0.317,-3.163 0.244,-6.32 0.397,-9.489c0.142,-2.955 0.49,-5.888 0.987,-8.804c0.023,-0.138 0.56,-0.234 0.536,-0.092c-0.578,3.392 -0.998,6.839 -1.025,10.284c-0.023,3.014 -0.077,6.039 -0.479,9.03c-0.405,3.015 -1.245,5.945 -1.69,8.952c-0.37,2.498 -0.538,5.038 -1.142,7.495zM249.649,270.193c-0.1,0.09 -0.617,0.145 -0.493,0.035c1.314,-1.195 2.844,-2.613 3.23,-4.427c0.369,-1.738 -0.563,-3.348 -0.323,-5.092c0.019,-0.136 0.556,-0.238 0.536,-0.092c-0.256,1.861 0.911,3.67 0.201,5.496c-0.647,1.663 -1.85,2.897 -3.151,4.08zM251.547,267.872c0.021,-0.137 0.558,-0.236 0.536,-0.092c-0.872,5.683 0.369,11.584 1.007,17.238c0.392,3.476 0.857,7.139 1.921,10.481c0.039,0.125 -0.5,0.283 -0.543,0.146c-1.081,-3.394 -1.603,-7.166 -1.944,-10.706c-0.545,-5.648 -1.849,-11.389 -0.977,-17.067zM241.514,267.236c0.008,0.159 -0.537,0.254 -0.543,0.147c-0.193,-3.59 0.494,-7.171 0.164,-10.757c-0.315,-3.424 -1.304,-6.747 -1.464,-10.185c-0.007,-0.16 0.538,-0.253 0.543,-0.146c0.16,3.443 1.209,6.751 1.464,10.184c0.266,3.595 -0.358,7.165 -0.164,10.757zM241.114,262.283c0.007,-0.167 0.547,-0.24 0.542,-0.144c-0.116,2.786 -1.469,5.293 -1.75,8.049c-0.312,3.072 -0.25,6.153 -0.141,9.235c0.089,2.538 0.179,5.298 1.147,7.684c0.469,1.156 1.534,2.857 1.218,4.146c-0.035,0.142 -0.568,0.223 -0.536,0.092c0.371,-1.515 -1.073,-3.304 -1.451,-4.719c-0.717,-2.682 -0.874,-5.383 -0.957,-8.146c-0.087,-2.901 -0.101,-5.796 0.241,-8.684c0.304,-2.574 1.577,-4.896 1.687,-7.513zM221.374,268.751c0.012,-0.168 0.549,-0.234 0.543,-0.147c-0.136,1.981 0.453,4.532 2.531,5.285c0.172,0.063 -0.318,0.264 -0.444,0.218c-2.13,-0.771 -2.77,-3.304 -2.63,-5.356zM229.647,273.75c-0.055,0.143 -0.579,0.202 -0.536,0.094c0.683,-1.795 2.161,-3.134 2.846,-4.91c0.969,-2.509 -0.469,-4.871 -0.295,-7.42c0.011,-0.168 0.548,-0.236 0.542,-0.145c-0.161,2.372 1.31,4.825 0.414,7.147c-0.731,1.893 -2.248,3.332 -2.971,5.234zM211.695,314.615c-0.073,-0.034 0.363,-0.258 0.511,-0.19c1.072,0.503 2.197,1.133 3.381,1.327c1.148,0.189 2.28,-0.094 3.4,-0.327c0.379,-0.078 0.121,0.169 -0.097,0.215c-1.139,0.236 -2.282,0.504 -3.45,0.378c-1.304,-0.139 -2.579,-0.856 -3.745,-1.403zM226.014,312.326c0.009,0.158 -0.536,0.254 -0.543,0.144c-0.048,-0.84 -0.248,-1.796 -0.003,-2.622c0.223,-0.755 0.642,-1.355 0.985,-2.052c0.205,-0.418 1.019,-1.904 0.375,-2.268c-0.956,-0.54 -1.93,0.382 -2.706,0.786c-1.164,0.61 -2.606,0.583 -3.887,0.602c-1.63,0.024 -3.264,-0.177 -4.861,-0.488c-0.161,-0.03 0.312,-0.243 0.444,-0.217c1.069,0.207 2.152,0.367 3.24,0.427c1.27,0.069 3.349,0.326 4.518,-0.286c0.886,-0.461 1.825,-1.243 2.867,-1.312c1.099,-0.074 1.24,0.772 0.984,1.582c-0.276,0.873 -0.822,1.569 -1.166,2.404c-0.448,1.09 -0.312,2.156 -0.247,3.3zM216.951,312.37c-0.358,0.031 0.085,-0.218 0.232,-0.229c3.995,-0.353 8.287,-2.261 9.579,-6.349c0.045,-0.144 0.575,-0.212 0.536,-0.091c-1.378,4.357 -6.132,6.299 -10.347,6.669zM212.679,311.6c-0.316,0.095 -0.362,-0.089 -0.048,-0.181c0.453,-0.136 0.91,-0.385 1.258,-0.708c0.066,-0.063 0.32,-0.204 0.129,-0.297c-0.193,-0.096 -0.387,-0.187 -0.586,-0.27c-0.589,-0.247 -1.187,-0.473 -1.755,-0.768c-0.078,-0.04 0.365,-0.262 0.51,-0.188c0.808,0.419 1.681,0.693 2.49,1.113c0.036,0.018 0.007,0.058 -0.009,0.077c-0.514,0.601 -1.24,0.997 -1.989,1.222zM231.275,270.255c0.033,-0.14 0.567,-0.224 0.536,-0.092c-0.609,2.608 -1.218,5.219 -1.827,7.828c-0.589,2.527 -1.536,5.276 -1.824,7.809c-0.603,5.297 -1.206,10.594 -1.809,15.891c-0.019,0.171 -0.551,0.227 -0.542,0.146c0.311,-2.744 0.624,-5.486 0.936,-8.228c0.285,-2.507 0.302,-5.237 0.876,-7.697c1.218,-5.219 2.436,-10.438 3.654,-15.657zM212.14,305.137c0.382,-0.052 0.129,0.183 -0.098,0.212c-3.114,0.422 -2.008,2.549 -2.024,4.809c-0.005,0.746 -0.264,2.04 0.086,2.728c0.49,0.963 1.598,1.35 2.486,1.854c0.081,0.045 -0.37,0.268 -0.51,0.188c-1.228,-0.697 -2.588,-1.142 -2.614,-2.741c-0.023,-1.44 -0.154,-2.839 -0.215,-4.269c-0.085,-1.978 1.1,-2.539 2.889,-2.781zM219.345,261.814c0.08,-0.106 0.606,-0.184 0.493,-0.032c-5.124,6.839 -4.883,16.416 -6.404,24.448c-0.387,2.041 -1.586,3.842 -1.899,5.893c-0.27,1.764 -0.679,3.528 -0.684,5.322c-0.008,2.767 0.328,5.644 -0.498,8.315c-0.045,0.144 -0.575,0.213 -0.537,0.092c0.929,-3.003 0.304,-6.19 0.535,-9.288c0.118,-1.579 0.353,-3.3 0.75,-4.822c0.57,-2.185 1.656,-4.09 1.897,-6.367c0.451,-4.254 1.209,-8.607 2.079,-12.797c0.79,-3.806 1.908,-7.615 4.268,-10.764zM239.353,306.246c-0.093,-0.098 0.41,-0.294 0.51,-0.189c2.715,2.828 6.705,3.754 10.469,2.706c1.534,-0.428 7.702,-1.865 6.073,-4.311c-0.049,-0.076 0.449,-0.287 0.543,-0.146c1.733,2.606 -5.076,4.27 -6.567,4.64c-3.987,0.988 -8.096,0.354 -11.028,-2.7zM239.854,306.088c-0.092,0.099 -0.614,0.164 -0.493,0.033c0.702,-0.763 1.073,-1.38 0.944,-2.477c-0.099,-0.841 -0.627,-1.387 -0.838,-2.166c-0.225,-0.829 0.047,-1.8 0.943,-2.039c0.318,-0.085 0.366,0.098 0.049,0.183c-0.749,0.201 -0.552,1.579 -0.312,2.024c0.318,0.593 0.678,1.161 0.701,1.854c0.04,1.19 -0.216,1.743 -0.994,2.588zM240.217,299.774c-0.133,0.073 -0.633,0.089 -0.316,-0.084c0.542,-0.295 1.067,-0.312 1.679,-0.309c1.468,0.007 2.951,0.023 4.418,-0.033c3.364,-0.128 6.617,-0.689 9.637,-2.242c0.133,-0.068 0.636,-0.081 0.315,0.084c-2.27,1.167 -4.676,1.833 -7.201,2.165c-1.314,0.173 -2.641,0.224 -3.965,0.243c-0.829,0.013 -1.66,0.005 -2.49,0.016c-0.594,0.006 -1.559,-0.12 -2.077,0.16zM256.872,301.974c-0.018,0.171 -0.552,0.229 -0.543,0.148c0.043,-0.417 -0.403,-0.95 -0.254,-1.327c0.116,-0.294 0.451,-0.525 0.544,-0.802c0.342,-1.022 -0.731,-2.056 -1.104,-2.938c-0.045,-0.11 0.483,-0.287 0.543,-0.146c0.312,0.738 1.453,1.927 1.166,2.784c-0.112,0.338 -0.406,0.487 -0.529,0.799c-0.215,0.541 0.234,0.947 0.177,1.482zM240.292,287.295c-0.049,-0.1 0.474,-0.287 0.543,-0.147c0.539,1.108 0.597,2.457 0.218,3.633c-0.298,0.923 -1.353,1.86 -1.374,2.807c-0.043,1.922 1.33,3.813 1.016,5.707c-0.022,0.138 -0.559,0.236 -0.536,0.092c0.328,-1.974 -1.224,-3.884 -0.993,-5.907c0.099,-0.874 0.968,-1.423 1.237,-2.256c0.421,-1.306 0.499,-2.675 -0.111,-3.929zM255.95,297.161c-0.056,0.143 -0.579,0.202 -0.538,0.092c0.111,-0.291 0.779,-1.136 0.262,-1.368c-0.37,-0.167 -0.817,-0.043 -1.19,-0.216c-0.095,-0.044 0.141,-0.157 0.16,-0.163c0.104,-0.039 0.246,-0.075 0.35,-0.026c0.221,0.103 0.504,0.078 0.741,0.108c0.155,0.017 0.412,0.026 0.519,0.16c0.378,0.472 -0.133,0.963 -0.304,1.413zM246.951,303.051c-0.173,-0.072 0.321,-0.268 0.444,-0.217c1.333,0.558 2.999,0.386 4.393,0.169c1.943,-0.303 3.638,-1.007 4.539,-2.877c0.069,-0.143 0.582,-0.188 0.536,-0.091c-0.825,1.705 -2.358,2.65 -4.162,3.005c-1.776,0.35 -4.02,0.737 -5.75,0.011zM226.072,305.06c-0.093,0.135 -0.583,0.158 -0.536,0.092c0.446,-0.646 0.844,-1.25 0.608,-2.082c-0.162,-0.57 -0.427,-1.066 -0.295,-1.67c0.03,-0.141 0.565,-0.227 0.536,-0.092c-0.176,0.806 0.425,1.488 0.359,2.3c-0.048,0.585 -0.346,0.979 -0.672,1.452zM256.339,302.17c-0.004,-0.162 0.54,-0.248 0.544,-0.146c0.016,0.817 -0.54,1.65 0.111,2.347c0.093,0.099 -0.412,0.293 -0.511,0.188c-0.689,-0.736 -0.126,-1.534 -0.144,-2.389z" fill="#010101"/><path d="M241.836,308.088c0.097,-0.148 0.643,-0.2 0.505,0.01c-0.723,1.11 -1.455,2.534 -1.085,3.91c0.397,1.477 1.473,2.455 2.682,3.309c0.148,0.107 -0.347,0.324 -0.504,0.214c-1.219,-0.862 -2.643,-2.076 -2.776,-3.693c-0.115,-1.4 0.43,-2.6 1.178,-3.75zM267.575,315.704c0.376,-0.048 0.188,0.266 -0.074,0.301c-1.84,0.237 -3.649,0.529 -5.503,0.263c-2.085,-0.298 -4.111,-0.91 -6.197,-1.196c-1.707,-0.235 -3.312,-0.219 -4.995,0.171c-0.906,0.209 -1.801,0.421 -2.734,0.48c-1.513,0.095 -2.985,-0.023 -4.491,-0.144c-0.367,-0.031 0.004,-0.326 0.211,-0.309c1.809,0.145 3.617,0.348 5.425,0.026c2.006,-0.358 3.802,-0.826 5.86,-0.653c1.972,0.166 3.878,0.739 5.818,1.095c2.296,0.422 4.389,0.26 6.68,-0.034zM263.861,316.271c-0.367,-0.012 0.006,-0.313 0.211,-0.307c2.374,0.078 5.295,0.129 6.568,-2.308c0.415,-0.794 0.893,-2.175 0.035,-2.896c-0.783,-0.659 -1.848,-0.655 -2.823,-0.674c-1.796,-0.034 -3.608,0.017 -5.292,-0.712c-1.592,-0.689 -3.006,-1.697 -4.543,-2.492c-0.224,-0.116 0.276,-0.344 0.432,-0.262c2.737,1.414 4.892,3.094 8.127,3.137c1.22,0.017 4.118,-0.351 4.829,1.087c0.786,1.59 -0.392,3.674 -1.834,4.498c-1.768,1.011 -3.73,0.994 -5.71,0.929zM241.238,312.818c-0.149,-0.11 0.349,-0.327 0.504,-0.211c1.572,1.164 3.635,1.166 5.497,0.904c1.709,-0.24 3.406,-0.257 5.127,-0.155c2.078,0.122 4.11,0.424 6.172,0.689c3.703,0.475 10.953,1.511 11.22,-3.934c0.01,-0.178 0.554,-0.29 0.543,-0.066c-0.257,5.24 -6.851,4.864 -10.586,4.475c-2.701,-0.28 -5.356,-0.771 -8.076,-0.884c-2.106,-0.088 -4.142,0.309 -6.23,0.313c-1.504,0.003 -2.939,-0.22 -4.171,-1.131zM256.455,308.188c-0.104,0.142 -0.651,0.187 -0.505,-0.011c0.846,-1.155 2.171,-1.671 3.21,-2.604c0.236,-0.213 0.459,-0.436 0.697,-0.644c0.367,-0.32 -0.527,-1.107 -0.715,-1.216c-0.613,-0.36 -1.568,-0.928 -2.297,-0.78c-0.325,0.067 -0.405,-0.204 -0.072,-0.271c1.02,-0.209 3.798,0.643 3.723,2.024c-0.026,0.476 -1.018,1.075 -1.353,1.327c-0.925,0.696 -1.989,1.218 -2.688,2.175zM254.546,307.581c-0.039,-0.198 0.506,-0.332 0.541,-0.148c0.047,0.243 0.196,0.471 0.408,0.601c0.151,0.091 0.334,0.212 0.472,0.062c0.123,-0.133 0.651,-0.146 0.435,0.089c-0.576,0.635 -1.703,0.176 -1.856,-0.604z" fill="#010101"/><path d="M227.041,315.315c-0.222,-0.131 0.279,-0.353 0.436,-0.262c1.845,1.081 2.733,2.876 4.358,4.202c1.401,1.143 3.104,0.923 4.625,1.711c0.742,0.383 1.448,1.05 1.517,1.946c0.149,1.934 -1.734,2.863 -3.196,3.697c-2.304,1.314 -5.177,1.954 -7.804,2.106c-1.125,0.065 -2.402,0.133 -3.473,-0.292c-1.1,-0.437 -1.704,-1.171 -2.504,-2.008c-1.885,-1.973 -4.501,-3.318 -7.051,-4.244c-0.83,-0.299 -1.917,-0.611 -2.478,-1.356c-0.625,-0.833 -0.639,-1.813 -0.644,-2.824c-0.007,-1.27 -0.181,-2.756 1.122,-3.402c0.172,-0.086 0.568,0.029 0.275,0.19c-0.052,0.029 -0.104,0.059 -0.155,0.087c-0.176,0.098 -0.657,0.018 -0.337,-0.16c0.051,-0.029 0.103,-0.059 0.155,-0.086c0.091,0.062 0.183,0.127 0.275,0.19c-0.959,0.476 -0.821,2.163 -0.794,3.035c0.027,0.888 -0.072,2.058 0.605,2.758c1.114,1.151 3.014,1.505 4.429,2.188c1.697,0.817 3.458,1.697 4.779,3.079c0.701,0.733 1.371,1.746 2.347,2.133c1.429,0.564 2.99,0.511 4.49,0.323c2.536,-0.317 5.016,-0.991 7.213,-2.33c0.758,-0.462 2.134,-1.208 2.204,-2.235c0.101,-1.503 -0.793,-2.455 -2.228,-2.81c-1.995,-0.497 -3.419,-0.833 -4.815,-2.437c-1.069,-1.225 -1.928,-2.366 -3.351,-3.199zM211.065,319.65c-0.225,-0.094 0.27,-0.33 0.432,-0.26c2.563,1.064 5.243,1.945 7.654,3.339c1.126,0.651 2.147,1.533 3.309,2.113c1.463,0.732 3.066,0.805 4.671,0.612c1.824,-0.221 9.334,-1.591 7.901,-4.596c-0.077,-0.162 0.453,-0.334 0.543,-0.146c1.397,2.931 -5.265,4.519 -7.093,4.832c-2.933,0.503 -5.343,0.413 -7.826,-1.319c-2.946,-2.054 -6.299,-3.21 -9.591,-4.575zM226.934,316.138c-0.102,0.144 -0.649,0.192 -0.506,-0.011c0.481,-0.684 0.538,-2.605 -0.147,-3.222c-0.99,-0.894 -3.491,-0.128 -4.571,0.217c-0.708,0.225 -1.409,0.48 -2.076,0.807c-1.055,0.518 -1.011,0.685 -0.417,1.539c0.505,0.728 0.968,1.43 1.299,2.253c0.069,0.171 -0.466,0.335 -0.542,0.146c-0.481,-1.198 -1.311,-2.179 -1.961,-3.283c-0.047,-0.08 0.011,-0.148 0.083,-0.188c2.118,-1.172 5.011,-2.445 7.508,-2.181c1.714,0.181 2.249,2.618 1.33,3.923zM220.155,318.034c-0.367,-0.029 0.004,-0.324 0.211,-0.309c2.048,0.16 4.877,-0.121 6.261,-1.836c0.11,-0.134 0.657,-0.176 0.505,0.012c-1.551,1.923 -4.676,2.313 -6.977,2.133z" fill="#010101"/><path d="M256.244,219.891c0.275,0.006 0.033,0.276 -0.145,0.273c-0.947,-0.02 -2.439,1.776 -3.176,2.381c-0.764,0.627 -1.526,1.266 -2.34,1.829c-1.313,0.906 -2.731,1.559 -4.266,1.997c-3.196,0.91 -6.45,1.329 -9.767,1.453c-3.351,0.125 -6.912,0.151 -10.165,-0.773c-1.087,-0.31 -2.344,-0.726 -3.121,-1.598c-1.13,-1.268 -0.188,-2.291 0.635,-3.56c0.087,-0.135 0.501,-0.148 0.385,0.032c-0.505,0.779 -1.595,2.032 -0.963,2.952c0.307,0.447 0.713,0.807 1.187,1.075c1.29,0.728 2.788,1.07 4.242,1.279c3.391,0.489 6.868,0.46 10.276,0.173c3.159,-0.266 6.581,-0.709 9.457,-2.111c1.539,-0.751 2.859,-1.828 4.174,-2.912c1.001,-0.824 2.146,-2.521 3.587,-2.49zM255.68,216.34c0.063,0.162 -0.341,0.278 -0.406,0.109c-0.716,-1.85 -1.424,-3.703 -2.136,-5.555c-0.635,-1.648 -1.465,-3.321 -1.906,-5.033c-0.906,-3.516 -0.688,-7.235 -1.602,-10.744c-0.045,-0.172 0.362,-0.281 0.407,-0.109c0.933,3.584 0.532,7.465 1.675,10.999c1.13,3.494 2.643,6.908 3.968,10.333zM248.721,172.933c0.18,0.131 -0.186,0.317 -0.317,0.221c-2.002,-1.459 -4.095,-1.225 -6.08,0.229c-0.15,0.109 -0.487,0.002 -0.264,-0.162c2.128,-1.559 4.473,-1.884 6.661,-0.288zM255.943,222.219c-0.056,0.153 -0.463,0.178 -0.384,-0.033c0.369,-1.008 1.02,-1.902 1.447,-2.887c0.294,-0.684 0.396,-1.18 -0.229,-1.735c-0.483,-0.428 -1.022,-0.771 -1.541,-1.155c-0.179,-0.133 0.186,-0.319 0.317,-0.222c0.892,0.661 2.469,1.371 2.021,2.694c-0.399,1.178 -1.205,2.176 -1.631,3.338zM228.436,177.563c-0.1,-0.172 0.291,-0.314 0.375,-0.172c1.767,3.038 4.551,7.687 8.754,6.791c1.879,-0.401 3.855,-1.126 4.675,-3.014c1.114,-2.564 1.137,-5.33 -0.234,-7.78c-0.097,-0.174 0.294,-0.316 0.375,-0.172c1.393,2.49 1.563,5.78 0.076,8.32c-0.971,1.66 -2.617,2.374 -4.426,2.808c-4.678,1.121 -7.535,-3.241 -9.595,-6.781zM250.717,189.97c-0.245,0.088 -0.306,-0.166 -0.068,-0.25c1.211,-0.434 2.013,-2.065 2.596,-3.127c0.516,-0.944 0.93,-1.932 1.428,-2.885c0.074,-0.144 0.487,-0.161 0.385,0.033c-1.018,1.952 -2.036,5.406 -4.341,6.229zM254.996,184.064c-0.043,0.165 -0.458,0.217 -0.409,0.037c0.345,-1.291 -1.116,-2.189 -1.833,-3.058c-0.656,-0.796 -1.22,-1.653 -1.609,-2.612c-0.662,-1.63 -1.082,-4.366 -2.74,-5.278c-0.189,-0.105 0.175,-0.299 0.317,-0.222c1.635,0.901 2.02,3.395 2.661,4.975c0.595,1.468 1.406,2.638 2.504,3.766c0.648,0.666 1.376,1.4 1.109,2.392zM249.965,195.111c0.047,0.171 -0.359,0.281 -0.407,0.107c-0.594,-2.187 1.323,-4.087 0.573,-6.369c-0.398,-1.21 -1.075,-2.24 -1.864,-3.231c-0.312,-0.393 -0.733,-0.761 -0.885,-1.248c-0.053,-0.169 0.354,-0.281 0.407,-0.109c0.265,0.853 1.228,1.597 1.708,2.34c0.501,0.775 1.024,1.656 1.147,2.588c0.141,1.064 0.016,2.025 -0.308,3.05c-0.326,1.031 -0.669,1.771 -0.371,2.872zM238.951,172.874c-0.191,-0.093 0.173,-0.291 0.317,-0.221c0.965,0.461 1.822,0.706 2.899,0.675c0.279,-0.008 0.179,0.265 -0.043,0.272c-1.174,0.034 -2.119,-0.222 -3.173,-0.726zM214.24,177.46c0.075,-0.144 0.487,-0.162 0.385,0.033c-1.626,3.143 -1.909,6.728 -3.521,9.871c-0.073,0.145 -0.485,0.163 -0.385,-0.033c1.611,-3.141 1.894,-6.727 3.521,-9.871zM210.709,187.354c-0.06,-0.163 0.344,-0.279 0.406,-0.108c0.462,1.262 1.363,2.151 2.382,2.986c0.174,0.143 -0.191,0.326 -0.317,0.222c-1.056,-0.867 -1.993,-1.791 -2.471,-3.1zM223.362,191.741c0.066,0.159 -0.337,0.277 -0.407,0.109c-0.633,-1.519 -2.497,-2.341 -3.936,-2.896c-2.009,-0.774 -4.145,-1.279 -6.292,-0.825c-0.249,0.053 -0.321,-0.198 -0.067,-0.252c2.232,-0.472 4.506,-0.026 6.599,0.821c1.533,0.621 3.424,1.412 4.103,3.043zM222.575,193.521c-0.183,-0.124 0.182,-0.313 0.318,-0.221c1.222,0.828 2.461,-0.253 2.9,-1.427c0.478,-1.277 0.224,-2.575 -0.9,-3.408c-0.179,-0.133 0.186,-0.319 0.317,-0.221c1.403,1.039 1.616,2.949 0.593,4.362c-0.765,1.056 -2.032,1.726 -3.228,0.915zM223.52,222.848c-0.117,0.115 -0.514,0.075 -0.336,-0.101c0.874,-0.866 0.387,-1.458 0.597,-2.405c0.025,-0.115 0.163,-0.219 0.267,-0.267c0.644,-0.295 0.797,-0.704 0.501,-1.317c-0.244,-0.506 -0.278,-0.774 -0.132,-1.326c0.121,-0.461 0.497,-0.799 0.793,-1.148c0.525,-0.618 0.896,-1.36 1.125,-2.137c0.38,-1.292 0.573,-2.635 0.575,-3.982c0.006,-3.037 -0.873,-5.587 -2.088,-8.337c-0.921,-2.085 -1.746,-3.943 -3.315,-5.601c-0.13,-0.137 0.258,-0.291 0.375,-0.172c0.01,0.011 0.02,0.021 0.031,0.032c0.131,0.133 -0.255,0.293 -0.374,0.173c-0.011,-0.011 -0.021,-0.022 -0.032,-0.033c0.125,-0.057 0.25,-0.114 0.375,-0.172c1.597,1.687 2.416,3.545 3.348,5.664c1.203,2.735 2.167,5.377 2.092,8.407c-0.036,1.467 -0.173,2.997 -0.709,4.377c-0.218,0.56 -0.456,1.164 -0.85,1.628c-0.507,0.596 -1.365,1.36 -0.941,2.239c0.313,0.645 0.698,1.384 -0.132,1.732c-0.676,0.283 -0.364,1.155 -0.497,1.699c-0.11,0.444 -0.363,0.74 -0.673,1.047z" fill="#010101"/><path d="M213.977,187.832c0.032,0.11 -0.374,0.222 -0.406,0.11c-0.003,-0.013 -0.007,-0.023 -0.01,-0.035c0.135,-0.029 0.271,-0.058 0.406,-0.086c-0.335,0.838 -0.109,2.253 -0.132,3.149c-0.045,1.722 -0.107,3.443 -0.223,5.162c-0.275,4.086 -0.758,8.15 -1.526,12.173c-0.022,0.115 -0.427,0.185 -0.404,0.063c0.86,-4.506 1.384,-9.073 1.612,-13.654c0.074,-1.498 0.113,-2.996 0.156,-4.495c0.019,-0.673 -0.142,-1.697 0.112,-2.336c0.033,-0.085 0.369,-0.207 0.405,-0.086c0.003,0.012 0.007,0.023 0.01,0.035zM220.242,207.658c-0.017,0.115 -0.423,0.19 -0.405,0.063c0.848,-5.503 1.543,-11.032 2.304,-16.547c0.016,-0.113 0.422,-0.191 0.404,-0.063c-0.761,5.515 -1.455,11.045 -2.303,16.547zM220.775,226.693c0.004,0.132 -0.404,0.205 -0.407,0.11c-0.102,-3.189 0.45,-6.294 0.591,-9.468c0.071,-1.615 0.058,-3.209 -0.282,-4.796c-0.341,-1.595 -0.739,-3.16 -0.84,-4.794c-0.009,-0.13 0.401,-0.207 0.407,-0.108c0.11,1.805 0.627,3.506 0.936,5.278c0.273,1.566 0.272,3.167 0.16,4.751c-0.212,3.017 -0.663,5.993 -0.565,9.027zM211.679,208.39c-0.003,-0.133 0.406,-0.202 0.406,-0.109c0.035,1.74 -0.01,3.545 0.27,5.267c0.302,1.866 0.883,3.651 1.365,5.474c0.323,1.219 0.499,2.409 0.684,3.651c0.204,1.371 0.7,2.653 0.901,4.02c0.018,0.125 -0.391,0.215 -0.407,0.109c-0.221,-1.501 -0.764,-2.905 -0.955,-4.417c-0.161,-1.276 -0.412,-2.498 -0.763,-3.739c-0.507,-1.793 -1.129,-3.619 -1.295,-5.485c-0.141,-1.585 -0.174,-3.179 -0.206,-4.771zM215.686,205.298c-0.046,-0.081 0.34,-0.227 0.406,-0.109c0.47,0.832 0.982,1.46 2,1.518c0.214,0.011 -0.156,0.195 -0.258,0.189c-1.08,-0.062 -1.646,-0.707 -2.148,-1.598zM220.932,240.994c-0.019,0.113 -0.425,0.188 -0.404,0.063c0.783,-4.777 0.388,-9.843 -0.118,-14.628c-0.013,-0.128 0.396,-0.212 0.407,-0.109c0.509,4.804 0.902,9.873 0.115,14.674zM214.899,226.802c0.004,-0.135 0.41,-0.197 0.407,-0.105c-0.042,1.362 -0.273,2.706 -0.266,4.069c0.006,1.095 -0.623,2.113 -1.105,3.052c-0.606,1.18 -1.83,2.946 -1.668,4.318c0.177,1.513 0.046,3.012 -0.041,4.529c-0.008,0.136 -0.412,0.194 -0.407,0.108c0.097,-1.682 0.253,-3.345 -0.047,-5.016c-0.077,-0.426 0.563,-1.425 0.75,-1.811c0.28,-0.578 0.546,-1.166 0.839,-1.737c0.654,-1.276 1.224,-2.347 1.269,-3.805c0.038,-1.206 0.231,-2.396 0.269,-3.602zM219.101,242.702c-0.004,-0.132 0.404,-0.204 0.407,-0.11c0.03,0.951 0.714,2.599 1.941,2.282c-0.06,0.045 -0.121,0.089 -0.182,0.134c-0.27,-1.346 -0.612,-2.674 -0.778,-4.038c-0.015,-0.127 0.394,-0.213 0.407,-0.109c0.166,1.364 0.508,2.692 0.777,4.038c0.015,0.074 -0.134,0.121 -0.182,0.135c-1.421,0.367 -2.35,-1.044 -2.39,-2.332zM217.014,245.408c-0.068,0.087 -0.469,0.135 -0.373,0.015c1.205,-1.536 2.653,-2.864 3.744,-4.491c0.061,-0.091 0.462,-0.147 0.373,-0.014c-1.092,1.626 -2.539,2.954 -3.744,4.49zM215.594,244.657c-0.062,0.09 -0.464,0.145 -0.373,0.013c0.846,-1.226 1.914,-2.476 2.268,-3.954c0.029,-0.116 0.432,-0.179 0.404,-0.062c-0.357,1.488 -1.447,2.768 -2.299,4.003zM214.338,244.103c-0.077,0.077 -0.475,0.116 -0.371,0.014c0.438,-0.437 0.71,-1.069 0.94,-1.631c0.227,-0.56 0.495,-1.182 0.504,-1.794c0.002,-0.134 0.408,-0.198 0.407,-0.108c-0.009,0.627 -0.266,1.271 -0.508,1.839c-0.247,0.579 -0.517,1.229 -0.972,1.68zM214.083,244.19c-0.078,-0.103 0.313,-0.237 0.381,-0.147c0.181,0.237 0.539,0.497 0.857,0.462c0.286,-0.03 0.113,0.162 -0.067,0.182c-0.441,0.049 -0.9,-0.143 -1.171,-0.497zM214.912,244.721c-0.08,-0.051 0.274,-0.215 0.382,-0.146c0.505,0.318 1.07,0.633 1.663,0.746c0.217,0.042 -0.154,0.208 -0.258,0.188c-0.641,-0.122 -1.24,-0.442 -1.787,-0.788zM213.75,239.729c0.024,-0.115 0.429,-0.183 0.404,-0.063c-0.216,1.008 -0.525,1.996 -0.833,2.977c-0.261,0.836 0.065,1.02 0.813,1.371c0.144,0.069 -0.23,0.22 -0.33,0.174c-0.41,-0.191 -1.121,-0.421 -1.012,-1.003c0.22,-1.167 0.708,-2.289 0.958,-3.456zM212.993,242.928c0.076,0.04 -0.097,0.128 -0.117,0.133c-0.08,0.033 -0.185,0.056 -0.265,0.013c-0.235,-0.126 -0.499,-0.194 -0.754,-0.271c-0.092,-0.027 0.004,-0.107 0.044,-0.128c0.081,-0.043 0.195,-0.073 0.286,-0.046c0.276,0.083 0.552,0.16 0.806,0.299z" fill="#010101"/><path d="M253.332,185.896c-0.021,-0.177 0.525,-0.292 0.542,-0.145c0.406,3.307 1.185,6.529 1.677,9.82c0.307,2.042 0.428,4.321 1.511,6.133c0.964,1.613 1.817,3.073 2.352,4.89c1.138,3.854 1.043,8.194 0.896,12.188c-0.117,3.164 -0.096,6.331 -0.236,9.494c-0.008,0.19 -0.548,0.273 -0.543,0.146c0.144,-3.292 0.225,-6.621 0.246,-9.916c0.029,-3.882 0.262,-8.023 -0.906,-11.766c-0.318,-1.02 -0.625,-2.065 -1.178,-2.989c-0.455,-0.761 -0.997,-1.489 -1.386,-2.287c-0.939,-1.926 -1.028,-4.169 -1.377,-6.254c-0.52,-3.116 -1.213,-6.173 -1.598,-9.314zM256.731,228.153c0.054,-0.161 0.591,-0.233 0.541,-0.078c-0.702,2.098 -0.521,4.84 1.254,6.402c0.694,0.61 1.694,1.159 2.104,2.024c0.44,0.934 0.377,1.951 0.661,2.93c0.048,0.158 -0.496,0.307 -0.543,0.146c-0.352,-1.208 -0.135,-2.611 -1.141,-3.556c-0.826,-0.776 -1.723,-1.364 -2.373,-2.312c-1.106,-1.613 -1.101,-3.768 -0.503,-5.556zM263.314,238.843c-0.086,0.152 -0.604,0.197 -0.537,0.081c0.585,-1.04 1.004,-1.676 0.826,-2.935c-0.123,-0.87 -0.304,-1.735 -0.604,-2.561c-0.704,-1.947 -1.765,-3.729 -3.449,-4.979c-0.119,-0.089 0.368,-0.303 0.508,-0.2c1.666,1.236 2.838,3.073 3.483,5.034c0.347,1.048 0.624,2.145 0.668,3.253c0.038,0.981 -0.434,1.489 -0.895,2.307zM256.685,239.654c-0.294,-0.044 0.195,-0.283 0.341,-0.263c1.208,0.185 2.515,0.577 3.7,0.097c0.225,-0.093 0.555,0.032 0.201,0.178c-1.392,0.566 -2.811,0.205 -4.242,-0.012zM260.818,237.502c0.199,0.075 -0.295,0.292 -0.436,0.239c-0.933,-0.349 -2.376,-0.391 -3.183,0.228c-0.115,0.09 -0.66,0.125 -0.426,-0.056c1.049,-0.807 2.83,-0.866 4.045,-0.411zM260.619,237.193c0.062,0.127 -0.463,0.309 -0.543,0.145c-0.154,-0.319 -0.699,-0.427 -1.008,-0.471c-0.633,-0.087 -1.341,-0.078 -1.833,0.392c-0.107,0.106 -0.642,0.151 -0.498,0.012c0.585,-0.558 1.378,-0.728 2.167,-0.712c0.506,0.012 1.455,0.106 1.715,0.634zM260.48,238.465c-0.051,-0.15 0.488,-0.308 0.543,-0.145c0.272,0.802 0.405,1.899 1.018,2.531c0.267,0.275 1.226,1.135 1.033,0.17c-0.328,-1.633 -0.918,-3.19 -0.75,-4.88c0.017,-0.156 0.558,-0.266 0.539,-0.081c-0.158,1.571 0.383,2.979 0.688,4.493c0.093,0.457 0.208,1.047 -0.369,1.201c-1.745,0.468 -2.34,-2.218 -2.702,-3.289z" fill="#010101"/></g></g></svg>