<svg version="1.1" xmlns="http://www.w3.org/2000/svg" xmlns:xlink="http://www.w3.org/1999/xlink" width="60" height="68" viewBox="0,0,60,68"><defs><linearGradient x1="263.75" y1="147" x2="263.75" y2="213" gradientUnits="userSpaceOnUse" id="color-1"><stop offset="0" stop-color="#ffd49b"/><stop offset="1" stop-color="#e0aa63"/></linearGradient></defs><g transform="translate(-233.75,-146)"><g data-paper-data="{&quot;isPaintingLayer&quot;:true}" fill-rule="nonzero" stroke-linejoin="miter" stroke-miterlimit="10" stroke-dasharray="" stroke-dashoffset="0" style="mix-blend-mode: normal"><path d="M234.75,213v-66h58v66z" fill="url(#color-1)" stroke="#000000" stroke-width="2" stroke-linecap="butt"/><path d="M237.4625,162.67478v-12.8404h13.18281v12.8404z" fill="#929292" stroke="none" stroke-width="0" stroke-linecap="butt"/><path d="M237.99453,165.30469h26.29688" fill="none" stroke="#000000" stroke-width="1" stroke-linecap="round"/><path d="M267.23047,150.3h21.81093" fill="none" stroke="#000000" stroke-width="1" stroke-linecap="round"/><path d="M238.30391,169.01719h32.63906" fill="none" stroke="#000000" stroke-width="1" stroke-linecap="round"/><path d="M238.76797,173.34844h28.15312" fill="none" stroke="#000000" stroke-width="1" stroke-linecap="round"/><path d="M239.07734,176.75156h19.33594" fill="none" stroke="#000000" stroke-width="1" stroke-linecap="round"/><path d="M239.38672,181.08281h25.67813" fill="none" stroke="#000000" stroke-width="1" stroke-linecap="round"/><path d="M239.54141,186.1875h18.25313" fill="none" stroke="#000000" stroke-width="1" stroke-linecap="round"/><path d="M272.95391,209.08125v-9.9h15.00469v9.9z" fill="#929292" stroke="none" stroke-width="0" stroke-linecap="butt"/><g fill="#5f5f5f" stroke="none" stroke-width="0" stroke-linecap="butt"><path d="M249.06739,162.53702c0,0.01636 -9.97122,0.02027 -9.97122,0c0,-2.40197 2.23213,-4.34915 4.98561,-4.34915c2.75348,0 4.98561,1.94718 4.98561,4.34915z"/><path d="M241.00555,154.3691c0,-1.64037 1.32978,-2.97015 2.97015,-2.97015c1.64037,0 2.97015,1.32978 2.97015,2.97015c0,1.64037 -1.32978,2.97015 -2.97015,2.97015c-1.64037,0 -2.97015,-1.32978 -2.97015,-2.97015z"/></g></g></g></svg>