<svg version="1.1" xmlns="http://www.w3.org/2000/svg" xmlns:xlink="http://www.w3.org/1999/xlink" width="35.26773" height="37.97355" viewBox="0,0,35.26773,37.97355"><g transform="translate(-225.6939,-128.93682)"><g data-paper-data="{&quot;isPaintingLayer&quot;:true}" fill-rule="nonzero" stroke="none" stroke-width="1" stroke-linecap="butt" stroke-linejoin="miter" stroke-miterlimit="10" stroke-dasharray="" stroke-dashoffset="0" style="mix-blend-mode: normal"><path d="M233.6,158.56383c0,0 -1.956,-1.074 -2.952,-5.308c-0.716,-3.055 -0.888,-8.978 0.324,-11.531c2.896,-6.094 5.828,-9.306 5.828,-9.306l4.432,15.877z" fill="#642800"/><path d="M245.924,143.68282l3.052,-9.322c0,0 3.064,0.974 5.796,6.713c2.732,5.74 -0.4,17.494 -0.4,17.494z" fill="#642800"/><path d="M252.728,161.21983c0.438,-2.177 0.705,-4.384 0.8,-6.602c2.196,-3.419 7.952,-4.753 7.396,0.963c-0.412,4.101 -3.992,7.113 -8.196,5.639z" fill="#e6be6e"/><path d="M234.548,161.23983c-1.73,0.102 -3.465,-0.088 -5.132,-0.563c-1.385,-0.489 -2.53,-1.49 -3.2,-2.796c-0.696,-1.222 -1.044,-3.67 1.26,-5.028c2.304,-1.358 4.8,0.271 5.6,1.597c0.732,1.234 1.216,5.32 1.472,6.79z" fill="#e6be6e"/><path d="M254.356,158.09283c-0.108,1.322 -0.232,2.895 -1.396,4.493c-2.996,4.102 -9.172,4.985 -13.728,3.898c-1.92,-0.447 -4.388,-1.585 -5.48,-3.642c-1.956,-3.687 -1.692,-8.999 -1.692,-9.135c0.3,-3.111 2.608,-6.697 3.9,-8.387l14.232,0.056c1.692,1.222 4.924,3.319 4.164,12.717z" fill="#e6be6e"/><path d="M252.8,147.49683c-1.776,0.591 -17.512,1.254 -19.356,0.982c-0.4,-2.516 9.6,-19.542 9.6,-19.542c0,0 9.756,16.076 9.756,18.56z" fill="#642800"/><path d="M243.748,156.35882c0.972,1.161 1.666,2.527 2.032,3.994c-1.496,0.512 -3.696,0.731 -5.2,0.228c-0.016,-1.474 0.72,-4.265 3.168,-4.222z" fill="#be965a"/><path d="M244.496,163.47283c0.04,0.194 -0.032,0.395 -0.188,0.519c-0.021,0.018 -0.044,0.034 -0.068,0.048c-0.712,-0.079 -1.428,-0.112 -2.144,-0.1c-0.127,-0.134 -0.224,-0.293 -0.284,-0.467c0.884,0 1.812,-0.032 2.684,0z" fill="#000000"/><path d="M236.66,157.22983c-0.984,0 -0.6,-1.394 -0.352,-1.909c0.116,-0.09 0.263,-0.129 0.409,-0.109c0.145,0.021 0.276,0.099 0.363,0.217c0.149,0.633 -0.006,1.299 -0.42,1.801z" fill="#000000"/><path d="M249.768,157.36582c-0.976,0.128 -0.8,-1.294 -0.62,-1.841c0.103,-0.104 0.243,-0.163 0.39,-0.163c0.147,0 0.287,0.059 0.39,0.163c0.239,0.605 0.18,1.286 -0.16,1.841z" fill="#000000"/></g></g></svg>