<svg version="1.1" xmlns="http://www.w3.org/2000/svg" xmlns:xlink="http://www.w3.org/1999/xlink" width="115.21707" height="136.65215" viewBox="0,0,115.21707,136.65215"><g transform="translate(-181.72879,-163.48467)"><g data-paper-data="{&quot;isPaintingLayer&quot;:true}" fill-rule="nonzero" stroke="none" stroke-width="1" stroke-linecap="butt" stroke-linejoin="miter" stroke-miterlimit="10" stroke-dasharray="" stroke-dashoffset="0" style="mix-blend-mode: normal"><g><path d="M262.634,251.902c-2.687,0.197 -3.473,0.197 -4.98,-4c-1.18,-3.278 -0.131,-8.261 0.458,-11.605c0.59,-3.475 1.377,-7.081 -0.458,-10.229c-1.901,-3.409 -1.311,-6.229 0.655,-8.72c1.049,-1.312 6.226,-1.836 9.044,1.901c2.622,3.41 2.949,10.885 2.753,14.36c-0.197,5.442 -4.719,18.096 -7.472,18.293z" fill="#aaa082"/><path d="M264.994,220.364c1.245,1.77 0.065,3.409 -1.508,4.131c-1.376,0.59 -3.014,0 -3.604,-1.443c0,-0.065 -0.066,-0.065 -0.066,-0.131c-0.262,-0.918 -0.065,-1.967 0.525,-2.754c0.131,-0.196 0.327,-0.393 0.524,-0.524c0.262,-0.197 0.59,-0.328 0.917,-0.459c0.852,-0.197 1.967,-0.656 3.212,1.18z" fill="#dcd2b4"/></g><g><path d="M218.463,216.102c2.752,-2.295 7.471,-1.967 10.092,0.525c2.229,2.163 1.573,7.671 -1.31,8.523c-3.212,1.64 -2.229,4.066 -1.639,7.082c0.656,3.213 0.656,6.491 1.049,9.769c0.262,2.492 0.852,5.639 -0.131,8.065c-0.656,1.705 -2.097,2.361 -3.67,2.426c-0.394,0 -2.884,-1.115 -4.26,-3.934c-2.228,-4.327 -3.605,-11.343 -3.67,-14.359c-0.197,-6.688 0.786,-15.802 3.539,-18.097z" fill="#c8bea0"/><path d="M226.131,218.79c0.655,1.902 0.065,3.607 -1.508,4.262c-1.376,0.59 -3.015,0 -3.604,-1.442c0,-0.066 -0.066,-0.066 -0.066,-0.131c-0.262,-0.918 -0.065,-1.967 0.524,-2.754c0.131,-0.197 0.328,-0.394 0.525,-0.525c0.262,-0.197 0.59,-0.328 0.917,-0.459c1.049,-0.262 2.753,0.066 3.212,1.049z" fill="#f0e6d2"/></g><g fill="#aaa082"><path d="M263.451,298.373c0.267,-4.643 2.233,-37.628 4.426,-38.603c1.049,0.459 2.098,0.984 2.36,3.147c1.12,9.264 -4.128,31.218 -5.19,35.521c2.656,0.105 5.648,0.214 5.648,0.214l0.263,1.18c0,0 -7.799,0.525 -8.389,0.197c-1.245,0 -2.425,-0.197 -3.605,-0.656l-0.524,-3.278c0.983,-0.328 1.901,-0.656 2.884,-0.918c0.065,0.065 -0.393,3.278 -0.262,3.081c0.197,0.02 1.152,0.064 2.389,0.115z"/><path d="M260.079,259.901l0.786,0.394c1.573,5.901 0.917,12.785 0.917,18.883c0,5.836 0.066,19.343 0.066,19.343l-1.901,0.393l-1.507,-2.819c0.066,0 -3.867,-33.243 1.639,-36.194z"/><path d="M268.074,254.066c0.918,2.36 -0.066,4.655 -2.228,5.507c-1.77,0.722 -4.26,0.066 -4.981,-1.967c-0.393,-1.18 -0.131,-2.491 0.721,-3.475c0.196,-0.262 0.459,-0.459 0.721,-0.655c0.393,-0.263 0.786,-0.459 1.245,-0.59c1.18,-0.197 3.473,-0.525 4.522,1.18z"/><path d="M259.62,252.689c0.655,0.262 0.983,0.983 0.721,1.639c0,0 0,0.066 -0.066,0.066c-0.262,0.59 -0.917,0.918 -1.507,0.655c-0.328,-0.196 -0.59,-0.524 -0.59,-0.918c0,-0.131 0,-0.196 0,-0.328c0,-0.131 0.066,-0.262 0.131,-0.393c0.328,-0.262 0.721,-0.852 1.311,-0.721z"/></g><g fill="#c8bea0"><path d="M218.528,263.835c0.262,-0.721 0.393,-1.311 0.983,-1.573c0.656,-0.066 1.114,0.328 1.639,0.655c4.391,10.557 5.505,23.08 7.668,34.227h-1.246c-2.49,-4.197 -3.408,-8.262 -4.522,-12.917c-1.507,-6.819 -3.539,-13.376 -4.522,-20.392z"/><path d="M229.211,296.685c0,0 2.556,-0.918 2.49,-1.049c0.393,0.655 0.459,1.442 0.262,2.163c-0.196,0.459 -1.573,0.591 -3.408,0.591c-1.573,0 -4.391,0.327 -5.832,-0.394c0,-0.131 -0.066,-0.328 -0.131,-0.524c0.589,-0.59 1.966,-0.459 2.752,-0.525z"/><path d="M227.507,261.934c1.376,-0.394 1.769,6.032 2.228,8.917c0.459,3.344 0.918,6.688 1.18,10.032c0.327,3.606 0.852,14.753 0.852,14.753l-0.918,1.901l-1.507,-0.131l-3.015,-31.145c-0.065,0 -0.196,-3.934 1.18,-4.327z"/><path d="M218.921,258.787c0,-0.197 -0.065,-0.525 -0.131,-0.787c-0.131,-2.426 0.656,-3.344 3.212,-4c1.179,-0.328 2.359,-0.065 3.342,0.656c1.966,1.705 0.59,4.917 -1.638,5.442l-1.704,0.459c-1.18,-0.197 -2.36,-0.525 -3.081,-1.77z"/><path d="M227.441,252.623c0.197,0.656 -0.262,1.377 -0.917,1.508h-0.066c-0.655,0.131 -1.245,-0.262 -1.376,-0.918c-0.066,-0.393 0.131,-0.786 0.393,-0.983c0.066,-0.066 0.197,-0.131 0.262,-0.131c0.131,-0.066 0.262,-0.066 0.394,-0.066c0.393,0 1.114,0.066 1.31,0.59z"/></g><path d="M255.163,223.97c-0.262,4.655 -6.684,4 -10.092,4.131c-3.605,0.131 -8.782,0.262 -11.731,-2.164c-3.408,-2.754 -0.721,-7.606 -3.343,-10.687c-3.08,-3.541 -7.93,-0.984 -11.6,-1.836c-0.459,-5.967 14.484,-3.016 17.63,-2.885c6.946,0.196 13.828,-0.656 20.709,-1.443c2.556,-0.328 5.964,-1.114 8.454,-0.524c2.491,0.59 4.457,3.999 1.311,5.442c-1.9,0.852 -5.308,-0.918 -7.602,-0.459c-3.867,0.721 -3.998,3.213 -3.736,10.425zM236.42,215.709c-0.393,1.18 0,5.442 1.704,6.884c0.983,0.853 2.949,0.853 4.718,1.115c3.605,0.524 5.964,-0.066 6.685,-3.016c0.459,-1.967 0.262,-2.623 0.262,-4.852c0,-2.23 -2.359,-1.967 -3.211,-1.639c-0.852,0.327 -0.066,1.704 -0.918,2.36c-0.655,0.459 -3.67,0.984 -4.522,0.131c-0.852,-0.852 0,-1.77 -1.638,-2.098c-1.638,-0.328 -2.687,-0.066 -3.08,1.115z" fill="#dcd2b4"/><path d="M291.077,270.13l-1.31,-0.066c-6.161,-8.196 -4.26,-20.457 -3.408,-30.095c0.59,-5.967 0.327,-11.934 -0.787,-17.835c-0.327,-1.573 -1.114,-11.802 5.964,-12.523c7.078,-0.721 5.178,11.999 5.178,14.949c0,5.442 -0.132,10.885 -0.328,16.327c-0.328,9.441 2.883,22.489 -5.309,29.243zM290.029,223.314c-1.245,1.115 -1.18,6.623 -1.311,8.262c-0.262,3.344 -0.262,6.688 -0.065,10.032c0.262,3.606 0.524,7.147 0.524,10.753c0,2.885 -0.524,6.753 0.065,9.507l1.18,1.246c0.524,0.262 1.114,0.262 1.638,0.131c2.491,-6.688 1.311,-13.31 1.377,-20.26c0,-3.672 -0.066,-7.278 -0.066,-10.95c0,-2.36 1.049,-8.196 -2.425,-8.917z" fill="#c8bea0"/><path d="M186.677,263.966c-3.408,-3.409 -2.097,-8.064 -1.769,-12.523c0.393,-5.049 1.311,-9.966 2.752,-14.818c1.311,-4.328 2.491,-8.655 3.474,-13.048c0.459,-2.23 1.18,-4.59 0.852,-6.819c-0.328,-2.426 -1.901,-10.819 6.16,-11.016c8.061,-0.196 1.114,14.36 0.656,15.999c-1.508,5.18 -2.163,10.884 -3.277,16.195c-1.114,5.18 -1.049,10.425 -1.966,15.605c-0.983,5.049 -1.114,9.704 -6.882,10.425zM196.049,215.643c-2.294,0.525 -3.604,7.475 -4.129,9.442c-0.917,3.672 -1.573,7.475 -2.228,11.277c-0.59,3.213 -1.376,6.361 -2.032,9.508c-0.589,2.754 -2.621,8.327 -0.72,10.884l2.228,0.59c2.097,-2.491 1.835,-7.081 2.49,-10.097c0.787,-3.672 1.77,-7.344 2.556,-11.016c0.655,-3.081 5.178,-19.473 1.835,-20.588z" fill="#dcd2b4"/><g fill="#c8bea0"><path d="M284.72,276.818c-0.327,-1.508 0.197,-3.082 1.377,-4.065c0.524,-0.394 3.604,-1.902 5.111,-1.115c2.687,1.311 3.933,5.77 2.098,7.278c-1.049,0.852 -3.081,1.705 -4.719,1.18c-1.638,-0.524 -3.015,-2.491 -3.867,-3.278z"/><path d="M289.832,281.408c0,0.655 0.066,1.245 0.066,1.835c0.065,1.64 0.065,3.213 0.131,4.852c0,1.443 -0.131,2.82 -0.524,4.197c-0.328,1.18 -0.918,1.508 -2.229,1.246c-0.327,-0.263 -0.327,-0.656 -0.327,-0.984c-0.131,-1.77 0,-3.475 0.393,-5.18c0.262,-1.049 0.459,-2.164 0.721,-3.278c0.131,-0.59 0.327,-1.115 0.524,-1.639c0.131,-0.591 0.655,-0.984 1.245,-1.049z"/><path d="M292.323,291.964c-0.852,-1.705 -1.246,-8.458 -0.656,-10.819c0.131,-0.131 0.328,-0.196 0.525,-0.262c0.196,-0.066 0.458,-0.131 0.655,-0.131c0.131,0.262 0.262,0.524 0.328,0.787c0.065,0.393 0.131,0.786 0.196,1.245c0.131,1.64 0.328,3.213 0.393,4.852c0,1.05 -0.131,2.099 -0.327,3.082c-0.066,0.59 -0.459,1.115 -1.114,1.246z"/><path d="M284.982,278.326l1.18,0.787c0.066,1.442 0,2.95 -0.262,4.393c-0.262,1.508 -0.459,3.016 -0.59,4.524c-0.065,1.049 -0.524,2.032 -1.311,2.688c-0.196,-0.262 -0.458,-0.393 -0.589,-0.59c-0.131,-0.328 -0.131,-0.721 -0.131,-1.115c0.262,-3.475 0.917,-6.884 1.441,-10.359c0.066,0 0.131,-0.066 0.262,-0.328z"/><path d="M280.133,282.391c-0.459,-0.393 -0.59,-1.049 -0.459,-1.639c0.197,-0.656 0.328,-1.377 0.59,-2.033c0.262,-0.787 0.655,-1.508 0.917,-2.295c0.394,-0.786 0.852,-1.508 1.442,-2.163c0.262,-0.263 0.59,-0.459 0.918,-0.656c0.131,0.262 0.262,0.524 0.262,0.852c-0.066,2.295 -0.656,4.525 -1.573,6.623c-0.262,0.918 -1.18,1.442 -2.097,1.311z"/></g><g><path d="M183.073,270.982c0.065,-1.049 0.328,-2.032 0.852,-2.95c0.655,-0.984 1.638,-1.705 2.752,-1.967c0.918,-0.263 1.77,0.131 2.622,0.59c0.262,0.196 0.459,0.459 0.524,0.787c0.197,0.852 0.328,1.704 0.393,2.557c-0.131,1.573 -1.114,2.95 -2.621,3.475c-0.131,0.065 -0.262,0.065 -0.393,0.065c-1.114,-0.065 -2.229,-0.327 -3.277,-0.721c-0.656,-0.262 -0.918,-0.852 -0.852,-1.836z" fill="#aaa082"/><path d="M190.872,287.702l-1.508,-0.197c-0.393,-0.393 -0.655,-0.918 -0.655,-1.508c-0.262,-2.36 -0.524,-4.721 -0.721,-7.015c-0.131,-1.05 -0.131,-2.099 0,-3.082c0,-0.525 0.197,-0.984 0.59,-1.312c0.393,-0.131 0.655,0.132 0.852,0.394c0.655,0.852 1.049,1.901 1.18,2.95c0.131,1.443 0.524,2.885 0.655,4.262c0.066,1.312 0.066,2.557 0,3.869c-0.131,0.59 -0.197,1.114 -0.393,1.639z" fill="#c8bea0"/><path d="M185.563,289.145c-0.655,-0.394 -0.983,-1.05 -0.983,-1.771c-0.065,-0.918 -0.131,-1.836 -0.196,-2.754c-0.197,-1.967 -0.263,-3.868 -0.197,-5.835c0,-0.853 0.131,-1.771 0.197,-2.623c0,-0.59 0.393,-1.049 0.983,-1.18c0.065,0.131 0.196,0.262 0.196,0.459c0.066,0.59 0.262,1.114 0.525,1.639c0.131,0.197 0.196,0.459 0.196,0.721c0.197,1.967 0.656,3.934 0.656,5.967c0,1.246 -0.132,2.492 -0.394,3.672c-0.065,0.655 -0.458,1.311 -0.983,1.705z" fill="#c8bea0"/><path d="M182.68,286.325c-1.114,-2.164 -1.311,-9.507 -0.262,-11.802c0.589,0.393 0.917,1.049 0.917,1.77c0,1.443 0,2.885 0,4.328c0,0.852 0,1.77 0.066,2.622c0.131,1.115 -0.132,2.23 -0.721,3.082z" fill="#c8bea0"/><path d="M195.328,277.277c-0.721,-0.197 -1.31,-0.722 -1.573,-1.443c-0.196,-0.328 -0.327,-0.655 -0.393,-1.049c-0.524,-2.032 -1.245,-4.065 -2.097,-5.967c-0.066,-0.196 -0.131,-0.393 -0.131,-0.524c0.262,-0.066 0.524,-0.066 0.721,-0.066c0.917,0.132 1.704,0.656 2.228,1.508c0.983,1.705 2.032,3.41 2.49,5.377c0.197,1.246 0.066,1.574 -1.245,2.164z" fill="#c8bea0"/></g><g><path d="M275.021,169.549c1.442,-0.262 4.981,2.688 6.291,3.868c4.719,10.557 9.044,22.425 9.634,24.785c1.049,4 4.457,16.458 0.787,19.67c-2.097,-0.262 -2.622,-4.589 -2.884,-6.294c-2.425,-15.474 -12.124,-35.8 -12.976,-36.653c-0.852,-0.852 -2.294,-1.114 -3.146,-2.098c-0.59,-1.639 1.245,-2.557 2.294,-3.278z" fill="#aaa082"/><path d="M294.027,214.528c0.852,2.295 -0.132,4.787 -2.098,5.639c-1.704,0.721 -3.735,-0.065 -4.456,-1.77c0,-0.066 -0.066,-0.131 -0.066,-0.131c-0.327,-1.18 -0.131,-2.426 0.656,-3.344c0.196,-0.262 0.393,-0.459 0.655,-0.656c0.328,-0.262 0.721,-0.459 1.114,-0.59c1.442,-0.197 2.949,0.131 4.195,0.852z" fill="#aaa082"/><path d="M273.12,168.106c0.131,1.377 -1.704,2.885 -3.997,3.607c-2.294,0.721 -8.324,-0.459 -7.406,-4.131c2.556,-1.836 6.16,-2.164 6.423,-2.426c2.49,0.197 4.849,1.508 4.98,2.95z" fill="#dcd2b4"/></g><g><path d="M199.392,209.349c0.72,1.704 0,3.737 -1.704,4.589c-1.377,0.59 -3.015,0 -3.605,-1.442c0,-0.066 -0.065,-0.066 -0.065,-0.131c-0.263,-0.918 -0.066,-1.967 0.524,-2.754c0.131,-0.197 0.327,-0.394 0.524,-0.525c0.262,-0.196 0.59,-0.328 0.918,-0.459c1.179,-0.131 2.359,0.131 3.408,0.722z" fill="#c8bea0"/><path d="M197.098,211.25l-0.787,-0.197c-1.9,-5.442 0.852,-12.785 2.032,-18.031c0.852,-3.868 1.573,-7.737 2.49,-11.605c0.656,-2.82 1.442,-7.016 3.408,-9.442c0.525,-0.656 3.146,-2.492 3.146,-0.262c-0.066,7.409 -5.308,30.489 -10.289,39.537z" fill="#c8bea0"/><path d="M211.712,170.27c-0.262,-0.262 -3.866,-0.787 -6.357,-2.688c-0.721,-3.737 5.309,-4.655 7.603,-3.803c2.293,0.852 4.063,2.426 3.866,3.737c-0.196,1.312 -2.687,2.689 -5.112,2.754z" fill="#dcd2b4"/></g><g><path d="M236.42,209.545c0.131,-1.049 0.459,-1.705 1.048,-1.836c0.525,-0.196 1.049,-0.327 1.639,-0.393c1.573,-0.197 3.211,0.066 4.784,0.066c1.442,-0.066 2.884,0 4.391,0h0.721c0.852,1.376 0.262,3.475 -0.524,3.999c-0.197,0.066 -0.328,0.197 -0.525,0.262c-0.983,0.328 -2.031,0.459 -3.014,0.394c-1.835,0 -3.671,-0.066 -5.506,-0.197c-0.589,0 -1.179,-0.131 -1.769,-0.328c-0.655,-0.328 -1.114,-0.852 -1.245,-1.967z" fill="#dcd2b4"/><path d="M235.109,169.746c0.131,-1.049 0.459,-1.705 1.049,-1.836c0.524,-0.197 1.048,-0.328 1.638,-0.394c1.573,-0.196 3.211,0.066 4.784,0.066c1.442,-0.066 2.884,0 4.391,0c0.262,0 0.524,0 0.721,0c0.852,1.377 0.262,3.475 -0.524,4c-0.197,0.065 -0.328,0.196 -0.524,0.262c-0.984,0.328 -2.032,0.459 -3.015,0.393c-1.835,0 -3.67,-0.065 -5.571,-0.197c-0.59,0 -1.179,-0.131 -1.769,-0.327c-0.59,-0.263 -1.049,-0.787 -1.18,-1.967z" fill="#dcd2b4"/><path d="M243.039,174.991c0.852,9.114 1.442,18.818 0.917,27.801c-0.589,1.246 -1.114,1.508 -1.9,1.049c-0.787,-1.967 -0.524,-4.655 -0.524,-6.885c0,-2.819 -0.197,-5.639 -0.263,-8.458c-0.196,-4.459 -0.131,-8.983 0.132,-13.507z" fill="#c8bea0"/><path d="M237.993,203.251c0.262,-3.672 6.422,-2.164 8.978,-2.033c2.687,6.229 -8.585,5.901 -8.978,2.033z" fill="#c8bea0"/><path d="M238.779,195.973c0.262,-3.672 5.636,-2.164 7.865,-2.033c2.424,6.295 -7.472,5.901 -7.865,2.033z" fill="#c8bea0"/><path d="M239.369,189.416c0.262,-3.672 5.243,-4 6.554,-1.246c2.031,4.328 -6.161,5.114 -6.554,1.246z" fill="#c8bea0"/><path d="M238.582,182.466c0.263,-3.672 5.243,-4 6.554,-1.246c2.032,4.393 -6.226,5.18 -6.554,1.246z" fill="#c8bea0"/><path d="M238.976,176.302c0.196,-2.95 4.26,-3.212 5.308,-0.983c1.639,3.541 -4.981,4.196 -5.308,0.983z" fill="#c8bea0"/><path d="M244.219,202.857c0.131,0.656 -0.263,1.377 -0.983,1.508h-0.066c-0.655,0.132 -1.245,-0.327 -1.376,-0.918c-0.066,-0.393 0.131,-0.786 0.459,-0.983c0.065,-0.066 0.196,-0.131 0.262,-0.131c0.131,-0.066 0.262,-0.066 0.393,-0.066c0.393,-0.065 1.114,0 1.311,0.59z" fill="#dcd2b4"/><path d="M244.153,195.645c0.131,0.656 -0.262,1.377 -0.983,1.508h-0.065c-0.656,0.131 -1.246,-0.328 -1.377,-0.918c-0.065,-0.393 0.131,-0.787 0.459,-0.984c0.066,-0.065 0.197,-0.131 0.262,-0.131c0.131,-0.065 0.262,-0.065 0.393,-0.065c0.394,-0.066 1.114,0 1.311,0.59z" fill="#dcd2b4"/><path d="M244.022,188.76c0.131,0.656 -0.262,1.377 -0.983,1.508h-0.066c-0.655,0.131 -1.245,-0.328 -1.376,-0.918c0,-0.393 0.131,-0.786 0.459,-0.983c0.065,-0.066 0.197,-0.131 0.262,-0.131c0.131,-0.066 0.262,-0.066 0.393,-0.066c0.459,-0.065 1.18,0 1.311,0.59z" fill="#dcd2b4"/><path d="M243.498,181.81c0.131,0.656 -0.262,1.377 -0.983,1.508h-0.066c-0.655,0.131 -1.245,-0.328 -1.376,-0.918c-0.066,-0.393 0.131,-0.787 0.459,-0.983c0.065,-0.066 0.196,-0.131 0.262,-0.131c0.131,-0.066 0.262,-0.066 0.393,-0.066c0.393,-0.066 1.114,0 1.311,0.59z" fill="#dcd2b4"/><path d="M243.17,175.778c0.131,0.656 -0.262,1.377 -0.983,1.508h-0.066c-0.655,0.131 -1.245,-0.328 -1.376,-0.918c-0.065,-0.393 0.131,-0.787 0.459,-0.984c0.065,-0.065 0.197,-0.131 0.262,-0.131c0.131,-0.065 0.262,-0.065 0.393,-0.065c0.394,-0.066 1.18,0 1.311,0.59z" fill="#dcd2b4"/></g><g><path d="M223.05,175.647l2.753,22.555l-4.85,1.246c-5.964,-0.984 -7.471,-24.719 -7.471,-24.719z" fill="#c8bea0"/><path d="M269.057,175.843c3.342,6.426 -2.621,23.605 -2.621,23.605l-6.357,-2.754l-0.394,-19.933z" fill="#aaa082"/><path d="M211.516,176.171c-0.328,-1.311 -0.131,-2.688 0.524,-3.868c2.228,-2.295 9.831,-0.394 12.518,-0.131c4.063,0.327 8.126,0.852 12.189,1.639c0.394,0.393 0.525,0.983 0.328,1.508c-3.015,1.967 -8.257,1.573 -11.796,1.77c-3.802,0.197 -10.617,1.771 -13.763,-0.918z" fill="#dcd2b4"/><path d="M212.958,184.498c-0.59,-1.311 -0.918,-2.491 -0.263,-3.803c6.947,-1.377 15.598,-2.098 22.676,-1.377c1.049,1.312 1.114,1.509 1.049,2.689c-6.882,3.475 -16.122,4.983 -23.462,2.491z" fill="#dcd2b4"/><path d="M215.71,190.793c4.129,-1.115 8.258,-1.902 12.518,-2.426c2.162,-0.328 7.536,-2.623 9.371,-1.049c0.328,2.557 -11.731,5.835 -13.5,6.425c-1.77,0.591 -5.571,1.771 -7.406,1.181c-2.162,-0.722 -1.442,-2.23 -0.983,-4.131z" fill="#dcd2b4"/><path d="M218.856,199.448c3.015,-1.836 6.881,-2.492 10.224,-3.738c2.883,-1.049 5.964,-2.885 9.109,-2.753c-1.245,3.212 -18.284,11.54 -19.333,6.491z" fill="#dcd2b4"/><path d="M216.169,183.908c1.638,5.574 3.473,11.081 5.636,16.458l-2.556,-0.328c-5.833,-4.131 -7.799,-24.457 -7.799,-24.457l3.212,-1.967c0.196,3.475 0.72,6.885 1.507,10.294z" fill="#dcd2b4"/><path d="M248.479,183.384l-0.721,-1.312c0.131,-0.459 0.327,-0.918 0.524,-1.377c2.425,-1.901 9.241,-0.065 12.059,0.132c3.145,0.196 6.16,0.327 9.24,1.114c0.59,0.918 0.918,1.967 1.049,3.082c-1.376,3.213 -7.799,1.508 -10.355,1.246c-4.063,-0.328 -8.061,-1.312 -11.796,-2.885z" fill="#dcd2b4"/><path d="M248.151,175.581c0.917,-3.213 7.143,-2.032 9.437,-1.967c3.932,0.131 7.865,0.197 11.731,0.328c3.932,4.196 -6.619,4.327 -7.93,4.327c-2.556,-0.065 -12.648,1.049 -13.238,-2.688z" fill="#dcd2b4"/><path d="M249.527,187.514c6.685,0.525 13.632,2.426 20.251,3.869l0.655,0.983c0.066,0.853 -0.131,1.705 -0.524,2.492c-2.425,0.262 -22.676,-4.393 -20.382,-7.344z" fill="#dcd2b4"/><path d="M249.724,194.53c0.655,-2.885 15.597,3.147 17.957,3.934l0.459,1.312c-1.049,4.327 -16.581,-2.558 -18.416,-5.246z" fill="#dcd2b4"/><path d="M267.943,188.105c0.328,-3.41 0.655,-6.295 0.262,-8.59c-0.197,-1.77 -0.786,-3.409 -1.638,-4.917l3.08,0.065c1.9,2.951 2.228,12.392 1.114,18.162c-1.114,5.508 -3.211,7.803 -3.211,7.803l-3.015,-0.066c0.459,-1.508 3.08,-8.458 3.408,-12.457z" fill="#dcd2b4"/></g></g></g></svg>