<svg version="1.1" xmlns="http://www.w3.org/2000/svg" xmlns:xlink="http://www.w3.org/1999/xlink" width="71.56418" height="85.97826" viewBox="0,0,71.56418,85.97826"><g transform="translate(-204.21791,-163.71427)"><g data-paper-data="{&quot;isPaintingLayer&quot;:true}" fill-rule="nonzero" stroke="none" stroke-width="0" stroke-linecap="butt" stroke-linejoin="miter" stroke-miterlimit="10" stroke-dasharray="" stroke-dashoffset="0" style="mix-blend-mode: normal"><path d="M240.46269,217.52715c0.99799,-4.5018 3.63098,-3.55394 6.72212,-3.55394c3.08238,0 5.98073,-0.51354 6.98512,3.9682c0.28235,1.2599 0.16496,6.3321 0.16496,7.75251c0,2.76251 0.77488,10.13227 0.00742,12.58931c-1.03088,3.30032 -3.89827,1.30358 -6.16192,1.30358c-1.67255,0 -5.10922,1.20315 -6.53299,-0.82328c-1.93775,-2.75795 -1.61267,-9.33815 -1.61267,-13.0696c0,-1.40604 0.15104,-6.91759 0.42796,-8.16677z" data-paper-data="{&quot;index&quot;:null}" fill="#e0d4b0"/><path d="M247.63736,232.93573c4.39875,0 6.69754,1.03592 6.69754,5.66317c0,4.62725 -2.29879,11.09362 -6.69754,11.09362c-4.39875,0 -6.78806,-8.00498 -6.78806,-12.63225c0,-4.62725 2.3893,-4.12455 6.78806,-4.12455z" data-paper-data="{&quot;index&quot;:null}" fill="#e0d4b0"/><path d="M238.18865,224.51732c0,3.73146 0.32508,10.31164 -1.61267,13.0696c-1.42378,2.02643 -4.86044,0.82329 -6.53299,0.82329c-2.26364,0 -5.13104,1.99674 -6.16193,-1.30358c-0.76746,-2.45702 0.00742,-9.8268 0.00742,-12.58931c0,-1.42041 -0.11738,-6.49262 0.16497,-7.7525c1.00439,-4.48174 3.90274,-3.96821 6.98512,-3.96821c3.09115,0 5.72414,-0.94786 6.72213,3.55394c0.27693,1.24917 0.42796,6.76073 0.42796,8.16677z" fill="#e0d4b0"/><path d="M255.76275,209.28326c-0.46107,3.16189 -0.72797,5.72175 -2.1214,7.29921c-1.30205,1.47402 -10.44156,1.30842 -13.27399,0.33921c-0.899,-0.30763 -0.00451,-3.14758 -1.17891,-3.14758c-1.65451,0 -1.69401,-0.69613 -1.12305,-1.07431c2.36886,-1.569 17.92853,-5.00188 17.69735,-3.41653z" data-paper-data="{&quot;index&quot;:null}" fill="#f1f1f1"/><path d="M267.41337,190.20158c2.30153,4.57614 7.4549,15.16123 7.83267,16.30684c0.90546,2.74586 0.64497,4.80388 -0.63855,5.44941c-1.33119,0.66951 -5.06829,0.3512 -7.23566,-1.49543c-3.1529,-2.68631 -9.98233,-13.44165 -10.07214,-20.73539c-0.14227,-11.55331 -7.74659,-14.32032 -4.4789,-15.96377c3.26768,-1.64345 9.40112,6.11612 14.59258,16.43833z" data-paper-data="{&quot;index&quot;:null}" fill="#e0d4b0"/><path d="M212.58663,188.84397c5.19146,-10.32221 11.3249,-18.08179 14.59258,-16.43834c3.26768,1.64345 -4.33663,4.41047 -4.4789,15.96378c-0.08981,7.29373 -6.91924,18.04908 -10.07214,20.73539c-2.16737,1.84663 -5.90447,2.16494 -7.23566,1.49543c-1.28351,-0.64553 -1.544,-2.70355 -0.63855,-5.44941c0.37777,-1.14561 5.53114,-11.7307 7.83267,-16.30685z" fill="#e0d4b0"/><path d="M256.83974,179.16099c0,2.67892 2.01571,20.86263 1.42471,23.2836c-0.61327,2.51223 -2.38288,8.06779 -3.60255,9.55772c-3.69199,4.51004 -8.99437,1.31925 -15.39795,1.31925c-1.1744,0 -0.91345,3.4735 -1.81246,3.78113c-2.83243,0.96921 -11.97194,1.13482 -13.27399,-0.3392c-1.39343,-1.57746 -1.66033,-4.13731 -2.1214,-7.29921c-0.2869,-1.96746 -1.11429,-8.45393 -1.11429,-9.39561c0,-4.96679 0.84249,-17.5899 2.7834,-23.33656c3.48058,-10.30531 9.84683,-13.01783 16.62483,-13.01783c10.55768,0 16.4897,1.57309 16.4897,15.44671z" fill="#f1f1f1"/><path d="M224.03217,175.82424c0,0 -0.7007,-1.60165 -0.7007,-2.55047c0,-1.10534 0.7007,-3.684 0.7007,-3.684h32.69924c0,0 0.70071,2.5352 0.70071,3.58954c0,1.02286 -0.70071,2.64493 -0.70071,2.64493z" fill="#409fc2"/><path d="M222.25935,181.30004l0.54304,-1.53863h34.30231v1.53863z" fill="#409fc2"/><path d="M221.98782,185.01083l0.37331,-1.62913l34.74356,-0.0905l0.27152,1.62913z" fill="#409fc2"/><path d="M221.6258,188.54062v-1.62913l35.93143,0.0905v1.53862z" fill="#409fc2"/><path d="M221.30205,191.61788l0.03283,-1.71964c0,0 22.97673,0.0905 29.43429,0.0905c3.21159,0 7.21324,0 7.21324,0v1.53863z" fill="#409fc2"/><path d="M220.65209,195.23818l0.39684,-1.62913l36.93278,-0.0905l0.28863,1.62913z" fill="#409fc2"/><path d="M220.81122,198.76797v-1.62913l37.65108,0.0905v1.53862z" fill="#409fc2"/><path d="M218.52118,212.52509z" fill="#409fc2"/><path d="M220.76991,202.29775l0.0337,-1.71964c0,0 23.58851,0.0905 30.21801,0.0905c3.2971,0 7.40529,0 7.40529,0v1.53863z" fill="#409fc2"/><path d="M221.64768,205.91805l-0.50159,-1.62913l36.91808,-0.0905l-0.97364,1.81015z" fill="#409fc2"/><path d="M222.12479,209.44784l-0.58685,-1.71965l34.93318,0.27152l-0.52699,1.26711z" fill="#409fc2"/><path d="M237.37408,235.88369c0,4.62725 -2.38931,12.63225 -6.78806,12.63225c-4.39875,0 -6.69755,-6.46637 -6.69755,-11.09362c0,-4.62725 2.2988,-5.66317 6.69755,-5.66317c4.39875,0 6.78806,-0.50272 6.78806,4.12455z" fill="#e0d4b0"/><path d="M222.57476,212.88713l-0.68506,-1.81015c0,0 20.6945,0.0905 26.51065,0.0905c2.89258,0 6.85879,0 6.85879,0v1.53863z" fill="#409fc2"/><path d="M239.59656,195.83622c0,0 -4.3264,-4.01944 -6.50227,-7.99503c-1.54339,-2.81997 -1.25381,-5.85257 -0.9213,-6.36588c0.82203,-1.269 4.12174,-1.67951 5.85968,-0.6338c1.21936,0.73367 1.94174,2.9036 1.94174,2.9036c0,0 3.34918,-3.39857 3.8748,-3.38634c1.89355,0.04407 4.62152,0.37478 5.26358,1.94068c0.23605,0.57571 0.13019,3.36725 -1.6872,5.85172c-2.79363,3.81907 -7.82903,7.68505 -7.82903,7.68505z" fill="#f23c3c"/></g></g></svg>