<svg version="1.1" xmlns="http://www.w3.org/2000/svg" xmlns:xlink="http://www.w3.org/1999/xlink" width="37.98477" height="30.05259" viewBox="0,0,37.98477,30.05259"><g transform="translate(-222.39444,-195.17046)"><g data-paper-data="{&quot;isPaintingLayer&quot;:true}" fill="#9a8479" fill-rule="nonzero" stroke="#000000" stroke-width="0.90232" stroke-miterlimit="10" stroke-dasharray="" stroke-dashoffset="0" style="mix-blend-mode: normal"><path d="M233.3923,199.2985v0v0v0v0v0v0c2.1993,4.0857 -2.2816,10.1913 -2.6534,10.7281c-0.6417,0.6261 0,0 -0.0108,0.0153c0,0 -3.2201,3.4768 -5.35,2.2977c-0.9071,-0.5006 -1.3168,-1.3883 -1.3376,-2.5512c-0.398,-0.1272 -0.9485,-0.3969 -1.1949,-0.9797c-0.4106,-0.9689 1.657,-1.7176 1.657,-1.7176v0.0144c0.0948,-0.2995 0.1968,-0.6071 0.3204,-0.9265c0.6986,-1.8078 2.4205,-5.3424 2.4205,-5.3424c0,0 3.9214,-5.6762 6.1488,-1.5381z" stroke-linecap="round" stroke-linejoin="round"/><path d="M258.2191,205.3346v0v0v0v0v0v0c0,0 2.0677,0.7506 1.6543,1.7186c-0.2446,0.5873 -0.7969,0.8561 -1.1931,0.9851c-0.0208,1.1574 -0.4296,2.0487 -1.3375,2.5494c-1.3862,0.7659 -3.1263,-0.3653 -4.1768,-1.2512c-0.4945,-0.3329 -1.0496,-0.6947 -1.5414,-0.9779c-1.241,-0.7154 -4.1931,-5.5644 -3.629,-8.2897c0.5641,-2.7253 6.5323,0 6.5323,0c1.3889,1.3352 2.8907,3.1024 3.3717,4.3501c0.1219,0.3202 0.2257,0.6306 0.3195,0.9337z" stroke-linecap="round" stroke-linejoin="round"/><path d="M235.7803,209.645v0v0v0v0v0v0c3.9006,1.4858 5.4402,2.295 4.8906,5.4028c-0.4124,2.3302 1.5767,7.4471 1.5767,7.4471c0,0 0.9657,0.2769 0.6344,1.0555c-0.3312,0.7875 -2.7264,1.3108 -5.831,1.1457c-3.1037,-0.1642 -5.5423,-0.1281 -5.8942,-0.8733c-0.3529,-0.7415 0.2942,-1.087 0.2942,-1.087c0,0 0.12,-1.7583 0.1236,-3.6482c0,-1.89 -0.3005,-7.061 -0.3005,-7.061c0,0 0.6056,-3.8674 4.5062,-2.3816z" stroke-linecap="butt" stroke-linejoin="miter"/><path d="M245.8522,210.3351v0v0v0v0v0v0c2.9331,-1.3387 4.7164,-1.5607 5.4682,0.0018c0,0 1.4702,2.7461 2.2102,5.6067c0.7383,2.8589 1.2671,6.1471 1.2671,6.1471c0,0 0.9802,0.5215 0.9729,1.0357c-0.0054,0.5142 -0.8492,1.5201 -5.2985,1.6455c-4.4476,0.1199 -6.0323,-0.6099 -6.1695,-1.2829c-0.1408,-0.6721 0.3808,-0.7316 0.3808,-0.7316c0,0 0.0614,-0.7298 0,-2.4953c-0.0604,-1.7654 -0.7933,-5.0167 -0.7933,-5.0167c0,0 -0.9711,-3.5715 1.9621,-4.9103z" stroke-linecap="butt" stroke-linejoin="miter"/><path d="M239.1529,195.6792v0v0v0v0v0v0c8.1063,-0.627 11.2027,4.074 11.2009,4.0731c0.6598,1.2142 1.4792,2.9274 1.8195,4.4917c0.0938,0.4321 0.1516,0.9183 0.166,1.4398c0,0 -0.0478,1.8114 -0.2238,2.3644c-0.7382,2.3167 -1.9404,4.8526 -4.8157,5.9992c-4.5143,1.8078 -9.3192,1.5859 -14.3119,-0.7894c-1.6849,-0.7993 -2.6831,-2.1615 -3.2219,-3.7122c-0.3845,-1.116 -0.5487,-2.5711 -0.5487,-2.5711c-0.2365,-2.4204 0.1868,-4.7831 0.4124,-5.8106c0,0 1.4179,-4.858 9.5232,-5.4849z" stroke-linecap="butt" stroke-linejoin="miter"/></g></g></svg>