<svg version="1.1" xmlns="http://www.w3.org/2000/svg" xmlns:xlink="http://www.w3.org/1999/xlink" width="73" height="73" viewBox="0,0,73,73"><g transform="translate(-19.5,-145.5)"><g data-paper-data="{&quot;isPaintingLayer&quot;:true}" fill-rule="nonzero" stroke="none" stroke-linecap="butt" stroke-linejoin="miter" stroke-miterlimit="10" stroke-dasharray="" stroke-dashoffset="0" style="mix-blend-mode: normal"><path d="M19.5,218.5v-73h73v73z" fill="#000000" stroke-width="0"/><path d="M24,180.5c0,-17.94925 14.55075,-32.5 32.5,-32.5c17.94925,0 32.5,14.55075 32.5,32.5c0,17.94925 -14.55075,32.5 -32.5,32.5c-17.94925,0 -32.5,-14.55075 -32.5,-32.5z" fill="#3d3d3d" stroke-width="0"/><path d="M30,180.5c0,-14.63554 11.86446,-26.5 26.5,-26.5c14.63554,0 26.5,11.86446 26.5,26.5c0,14.63554 -11.86446,26.5 -26.5,26.5c-14.63554,0 -26.5,-11.86446 -26.5,-26.5z" fill="#f00000" stroke-width="0"/><path d="M38.21966,171.20354c0,-5.50798 4.4651,-9.97308 9.97308,-9.97308c5.50798,0 9.97308,4.4651 9.97308,9.97308c0,5.50798 -4.4651,9.97308 -9.97308,9.97308c-5.50798,0 -9.97308,-4.4651 -9.97308,-9.97308z" fill="#f90000" stroke-width="0"/><text transform="translate(33.09137,178.72194) scale(0.17203,0.17203)" font-size="40" xml:space="preserve" fill="#990000" fill-rule="nonzero" stroke="none" stroke-width="1" stroke-linecap="butt" stroke-linejoin="miter" stroke-miterlimit="10" stroke-dasharray="" stroke-dashoffset="0" font-family="Sans Serif" font-weight="normal" text-anchor="start" style="mix-blend-mode: normal"><tspan x="0" dy="0">doppelganger</tspan><tspan x="0" dy="46.150000000000006px">   emergency</tspan></text></g></g></svg>