<svg version="1.1" xmlns="http://www.w3.org/2000/svg" xmlns:xlink="http://www.w3.org/1999/xlink" width="582.57753" height="147" viewBox="0,0,582.57753,147"><g transform="translate(317.5,-100.43755)"><g data-paper-data="{&quot;isPaintingLayer&quot;:true}" fill-rule="nonzero" stroke-linecap="butt" stroke-linejoin="miter" stroke-miterlimit="10" stroke-dasharray="" stroke-dashoffset="0" style="mix-blend-mode: normal"><path d="M229.97038,129.78652c0,-5.01001 4.06142,-9.07142 9.07143,-9.07142c5.01001,0 9.07142,4.06141 9.07142,9.07142c0,5.01001 -4.06141,9.07143 -9.07142,9.07143c-5.01001,0 -9.07143,-4.06141 -9.07143,-9.07143z" fill="none" stroke="#595959" stroke-width="2.5"/><path d="M221.68467,129.78652c0,-9.74388 7.89898,-17.64285 17.64285,-17.64285c9.74388,0 17.64285,7.89897 17.64285,17.64285c0,9.74388 -7.89898,17.64286 -17.64285,17.64286c-9.74388,0 -17.64285,-7.89898 -17.64285,-17.64286z" fill="none" stroke="#595959" stroke-width="2.5"/><path d="M-317.5,247.43755v-147h198v147z" fill-opacity="0" fill="#892163" stroke="none" stroke-width="0"/><path d="M230.97038,174.42615v-12h17.28572v12z" fill="#595959" stroke="none" stroke-width="0"/><path d="M235.25609,165.58198v-11.33929h8.57143v11.33929z" fill="#595959" stroke="none" stroke-width="0"/><g fill="#000000" stroke="#000000" stroke-width="2.5"><path d="M244.55566,118.14368c0,5.75954 -2.43355,10.42857 -5.4355,10.42857c-3.00195,0 -5.4355,-4.66903 -5.4355,-10.42857c0,-5.75954 2.43355,-10.42857 5.4355,-10.42857c3.00195,0 5.4355,4.66903 5.4355,10.42857z"/><path d="M250.83445,136.57918c-5.75954,0 -10.42857,-2.43356 -10.42857,-5.4355c0,-3.00194 4.66903,-5.4355 10.42857,-5.4355c5.75954,0 10.42857,2.43356 10.42857,5.4355c0,3.00195 -4.66903,5.4355 -10.42857,5.4355z"/><path d="M233.53487,142.43633c0,-5.75954 2.43355,-10.42857 5.4355,-10.42857c3.00195,0 5.4355,4.66903 5.4355,10.42857c0,5.75954 -2.43355,10.42857 -5.4355,10.42857c-3.00195,0 -5.4355,-4.66903 -5.4355,-10.42857z" data-paper-data="{&quot;index&quot;:null}"/><path d="M227.25609,124.00083c5.75954,0 10.42857,2.43355 10.42857,5.4355c0,3.00195 -4.66903,5.4355 -10.42857,5.4355c-5.75954,0 -10.42857,-2.43356 -10.42857,-5.4355c0,-3.00194 4.66903,-5.4355 10.42857,-5.4355z" data-paper-data="{&quot;index&quot;:null}"/></g><path d="M215.11324,129.9294c0,-13.45208 10.90506,-24.35715 24.35714,-24.35715c13.45208,0 24.35715,10.90507 24.35715,24.35715c0,13.45208 -10.90507,24.35714 -24.35715,24.35714c-13.45208,0 -24.35714,-10.90506 -24.35714,-24.35714z" fill="none" stroke="#595959" stroke-width="2.5"/><path d="M219.375,184.02084v-15.54167h41.25v15.54167z" fill="#595959" stroke="none" stroke-width="NaN"/></g></g></svg>