<svg version="1.1" xmlns="http://www.w3.org/2000/svg" xmlns:xlink="http://www.w3.org/1999/xlink" width="30.29688" height="34.78928" viewBox="0,0,30.29688,34.78928"><g transform="translate(-221.5437,-135.00842)"><g data-paper-data="{&quot;isPaintingLayer&quot;:true}" fill-rule="nonzero" stroke-linecap="butt" stroke-linejoin="miter" stroke-miterlimit="10" stroke-dasharray="" stroke-dashoffset="0" style="mix-blend-mode: normal"><g stroke="none" stroke-width="0.95"><path d="M250.0226,153.258c0.723,-0.3173 1.1096,-0.2175 1.1619,0.2974c0.0408,0.2422 0.0617,0.4864 0.0589,0.7324c-0.0247,0.4826 -0.0874,0.9538 -0.2518,1.4127c-0.1919,0.5339 -0.4218,1.0526 -0.645,1.5722c-0.0247,-0.9281 -0.1397,-1.8591 -0.3392,-2.7778c0.0038,-0.0085 0.0219,-0.0095 0.02,-0.0209c-0.0561,-0.3733 -0.0532,-0.7866 -0.0247,-1.2074c0.0038,-0.0048 0.0171,-0.0029 0.0199,-0.0086z" fill="#a86c35"/><path d="M246.1352,165.9605c-0.4712,0.4845 -0.9566,0.9519 -1.4677,1.3756c-1.1001,0.9063 -2.3095,1.8962 -3.7212,2.2429c-2.4747,-0.0636 -5.4283,-1.2958 -7.5848,-2.4244c-2.7008,-1.4079 -5.0103,-3.4171 -6.0258,-6.3631c-0.019,-0.0541 -0.1112,-0.0902 -0.2071,-0.1121c-0.0067,-0.0256 -0.0171,-0.0551 -0.0228,-0.0798c0.076,-0.095 0.151,-0.1909 0.2204,-0.2935c0.0503,-0.0713 -0.3895,-0.2565 -0.475,-0.1283c-0.5824,0.8607 -1.3348,1.293 -2.3836,0.4817c-0.3762,-0.2879 -0.7628,-0.571 -1.0887,-0.9158c-0.5434,-0.5757 -1.0763,-1.2493 -1.2739,-2.0387c-0.2527,-1.0089 0.1121,-3.9207 1.4592,-4.18c0.018,-0.0038 0.0361,-0.0076 0.0551,-0.0105c0.3125,-0.0427 0.6754,0.0523 1.0953,0.3458c0.0979,0.0665 0.5776,0.1121 0.3743,-0.0285c-0.0883,-0.0608 -0.171,-0.0978 -0.2555,-0.1472c-0.8702,-9.5038 0.8227,-17.7289 14.9245,-16.7789c13.6505,0.9205 10.6609,12.8782 10.4234,13.7531c-0.0019,0.0029 -0.0105,0.001 -0.0124,0.0048c-0.5035,0.95 -0.7286,2.2752 -0.6355,3.3896c-0.0418,0.0085 -0.0675,0.0266 -0.0599,0.0589c0.7173,3.0229 0.6517,6.5426 -1.1495,9.1865c-0.4389,0.6412 -0.9291,1.2625 -1.4487,1.8601c-0.2508,0.2622 -0.4969,0.5291 -0.7401,0.8018z" fill="#a86c35"/><g fill="#000000"><path d="M251.4894,153.1573c0.7885,1.8022 -0.5196,3.6366 -1.0896,5.2982c-0.0086,0.0256 -0.0437,0.0332 -0.0789,0.0399c-0.1263,1.8534 -0.6526,3.6556 -1.7413,5.2516c-0.9538,1.4031 -2.1936,2.6457 -3.4647,3.7582c-0.4607,0.4028 -0.9614,0.8103 -1.4915,1.1751c0.0086,0.0029 0.0143,0.0076 0.0219,0.0105c-0.171,0.0722 -0.324,0.1634 -0.4598,0.2736c-0.5995,0.3686 -1.2341,0.6688 -1.8972,0.8255c-0.0009,0 -0.0019,0 -0.0019,0c-0.0199,0.0057 -0.0494,0.0086 -0.0893,0.0076c-2.6087,-0.0513 -5.5451,-1.2996 -7.8584,-2.4263c-0.0997,-0.0484 -0.1938,-0.1045 -0.2926,-0.1548c0.001,0.0038 0.0019,0.0076 0.0029,0.0114c-0.1292,-0.0903 -0.2736,-0.1625 -0.4304,-0.2214c0.0076,-0.0019 0.0124,-0.0047 0.02,-0.0057c-2.5413,-1.3822 -4.7234,-3.3972 -5.7247,-6.1683c-0.4456,0.475 -1.0013,0.7619 -1.7148,0.4807c-1.2844,-0.5045 -2.4263,-1.5951 -3.1521,-2.7455c-1.2302,-1.9437 -0.0997,-5.8568 2.2449,-5.1262c0.0845,0.0266 0.1662,0.0437 0.2536,0.0826c-0.1406,-1.0013 -1.4183,-11.0181 3.2899,-14.211c2.716,-1.8411 5.3352,-2.7474 8.2555,-2.926c2.26,-0.1378 4.7044,0.1624 7.5126,0.8094c0.1862,0.0437 0.3695,0.0826 0.5595,0.1282c6.7393,1.6331 7.676,9.6834 6.4952,13.4216c0,0 -0.0105,0.0095 -0.0266,0.0228c0.0019,0.0076 0.018,0.0171 0.0142,0.0238c-0.2859,0.5396 -0.4845,1.2131 -0.588,1.8971c0.0218,-0.0095 0.0494,-0.0095 0.0722,-0.0171c0.5006,-0.1719 1.1276,-0.0484 1.3594,0.4845zM248.324,163.2976c1.8012,-2.6438 1.8668,-6.1636 1.1495,-9.1855c-0.0076,-0.0323 0.0171,-0.0504 0.0599,-0.0589c-0.0931,-1.1144 0.132,-2.4396 0.6355,-3.3896c0.0019,-0.0038 0.0105,-0.0019 0.0124,-0.0048c0.2375,-0.8749 3.2281,-12.8335 -10.4234,-13.7531c-14.1018,-0.95 -15.7947,7.2751 -14.9245,16.7789c0.0855,0.0494 0.1681,0.0864 0.2555,0.1472c0.2024,0.1406 -0.2764,0.0941 -0.3743,0.0285c-0.4199,-0.2926 -0.7828,-0.3885 -1.0953,-0.3458c-0.019,0.0029 -0.0371,0.0076 -0.0551,0.0105c-1.3471,0.2593 -1.7119,3.1711 -1.4592,4.18c0.1976,0.7894 0.7305,1.463 1.2739,2.0387c0.3259,0.3448 0.7125,0.6279 1.0887,0.9158c1.0479,0.8103 1.8003,0.38 2.3817,-0.4798c0,-0.0009 -0.001,-0.0009 -0.001,-0.0019c0.381,-1.0098 -1.3129,-0.6241 -1.8515,-0.6906c-0.8389,-0.0998 -1.578,-0.4912 -1.92,-1.293c-0.0427,-0.0997 0.4142,-0.0541 0.4731,0.0779c0.6118,1.426 1.9181,0.8085 3.0685,0.8921c0.5748,0.0408 0.9424,0.5149 0.7068,1.1409c-0.0693,0.1026 -0.1444,0.1986 -0.2204,0.2936c-0.0161,0.0199 -0.0304,0.0418 -0.0465,0.0617c0.0237,0.0029 0.0456,0.0124 0.0693,0.0181c0.096,0.0218 0.1881,0.0579 0.2071,0.1121c1.0165,2.945 3.325,4.9552 6.0259,6.3631c2.1565,1.1295 5.111,2.3607 7.5848,2.4244c1.4117,-0.3468 2.621,-1.3357 3.7211,-2.243c0.513,-0.4237 0.9985,-0.8911 1.4687,-1.3756c0.2537,-0.2612 0.5016,-0.5263 0.7401,-0.8018c0.5187,-0.5966 1.0098,-1.2179 1.4487,-1.8601zM250.9916,155.7005c0.1644,-0.4589 0.2271,-0.9291 0.2508,-1.4136c0.0029,-0.2451 -0.0171,-0.4893 -0.0589,-0.7325c-0.0513,-0.5139 -0.4379,-0.6137 -1.1609,-0.2964c-0.0019,0.0057 -0.0152,0.0038 -0.0199,0.0086c-0.0295,0.4208 -0.0323,0.8341 0.0247,1.2074c0.0019,0.0114 -0.0152,0.0124 -0.02,0.0209c0.1995,0.9187 0.3145,1.8497 0.3392,2.7778c0.2242,-0.5196 0.4531,-1.0383 0.645,-1.5722z"/><path d="M222.4498,155.8734c0.0485,-0.9329 1.0878,-1.0973 1.8411,-0.9092c1.2493,0.3173 1.7566,1.5742 2.6344,2.3988c0.114,0.1083 -0.3449,0.0598 -0.4351,-0.0238c-0.5995,-0.5633 -1.026,-1.2739 -1.6036,-1.8544c-0.628,-0.6289 -1.9114,-0.4712 -1.9599,0.5178c-0.0057,0.1026 -0.4835,0.0171 -0.4769,-0.1292z"/></g></g><g fill="#000000" stroke="none" stroke-width="0.95"><path d="M237.913,161.0471c-0.1245,0.0769 -0.5358,-0.1159 -0.4513,-0.1729c0.4114,-0.2584 0.874,-0.2822 1.3272,-0.4313c0.0988,-0.0333 0.4218,0.094 0.4189,0.1662c0.6812,0.1197 1.2778,0.4038 2.0045,0.3914c0.8408,-0.0152 1.6435,-0.6821 1.7908,-1.4991c0.0218,-0.1187 0.5006,-0.0076 0.4769,0.1264c-0.1444,0.8027 -0.8987,1.4601 -1.71,1.5542c-0.9234,0.1083 -1.654,-0.2451 -2.5356,-0.3848c-0.0874,-0.0133 -0.17,-0.0646 -0.2166,-0.1121c-0.3781,0.1017 -0.7666,0.1454 -1.1048,0.362z"/><path d="M239.0767,159.0027c-0.113,0.0446 -0.5472,-0.1359 -0.3876,-0.1976c1.3709,-0.5368 2.7826,-0.7296 4.1981,-0.266c0.323,0.1064 0.0199,0.1947 -0.172,0.132c-1.2188,-0.3999 -2.4785,-0.1235 -3.6385,0.3316z"/></g><g><path d="M236.5925,154.7771c-0.057,0.0047 -0.0998,0.0104 -0.1549,0.037c-0.1121,0.5662 -1.5532,1.0099 -2.0083,1.1334c-0.8816,0.2403 -1.9864,0.1235 -2.8851,-0.0789c-0.6679,-0.1472 -1.2635,-0.4218 -1.3728,-1.1837c-0.0684,-0.4702 0.1872,-0.8892 0.4484,-1.2502c0.8493,-1.1704 2.1442,-2.0339 3.5891,-1.3518c0.5748,0.2679 1.0944,0.5842 1.3908,1.1181c0.3249,0.5767 0.8845,0.9918 1.0298,1.6739" fill="#ffffff" stroke="none" stroke-width="0.95"/><path d="M236.3227,155.1219v0c-0.4712,-1.3347 -1.2835,-3.2917 -3.0125,-3.1321c-0.8094,0.0741 -1.5428,0.6146 -2.1175,1.1447c-0.9168,0.8379 -1.312,2.0387 0.4009,2.5536c1.4117,0.4237 3.5007,0.0618 4.7756,-0.6365c0.1188,-0.0636 0.5615,0.115 0.3829,0.2138c-1.5618,0.855 -3.7943,1.0516 -5.4948,0.5415c-0.6166,-0.1843 -1.0802,-0.5729 -1.3091,-1.1723c-0.2347,-0.608 0.1824,-1.0298 0.5652,-1.445c0.7648,-0.8255 1.9694,-1.6121 3.1474,-1.4373c1.7651,0.2631 2.5944,1.9085 3.1369,3.4399c0.0513,0.1349 -0.4218,0.0722 -0.475,-0.0703z" fill="#000000" stroke="none" stroke-width="0.95"/><path d="M233.01,152.9046c0.2879,0 0.5482,0.1169 0.7372,0.3059c0.1891,0.1891 0.3059,0.4494 0.3059,0.7372c0,0.2879 -0.1168,0.5482 -0.3059,0.7372c-0.189,0.1891 -0.4493,0.3059 -0.7372,0.3059c-0.2878,0 -0.5481,-0.1168 -0.7372,-0.3059c-0.189,-0.189 -0.3059,-0.4493 -0.3059,-0.7372c0,-0.2878 0.1169,-0.5481 0.3059,-0.7372c0.1891,-0.189 0.4494,-0.3059 0.7372,-0.3059z" fill="#42210b" stroke="#010101" stroke-width="0.23693"/></g><path d="M229.7544,151.0312c-0.0523,0.1302 -0.5206,-0.0199 -0.4779,-0.1273c0.9139,-2.3094 3.6841,-2.4738 5.795,-2.0045c0.286,0.0646 0.2337,0.2337 -0.0465,0.172c-1.9684,-0.4361 -4.4365,-0.1444 -5.2706,1.9598z" fill="#000000" stroke="none" stroke-width="0.95"/><g><path d="M248.362,152.974c0,0.0104 0,0.0199 0,0.0323c0,0.6194 -0.4075,1.0393 -0.9994,1.3252c-0.7638,0.3734 -1.1922,0.5225 -2.0415,0.5634c-0.8493,0.0427 -1.6359,0.0636 -2.4339,-0.1748c-0.3724,-0.1093 -0.3914,-0.1463 -0.3553,-0.5206c0.0313,-0.3183 0.1453,-0.4855 0.285,-0.7724c0.133,-0.2726 0.1529,-0.6004 0.3239,-0.8398c0.1501,-0.2166 0.0988,-0.5396 0.2803,-0.7324c0.455,-0.4883 1.0754,-0.6356 1.7613,-0.6536c0.6061,-0.0152 1.3262,0.0646 1.8221,0.3857c0.3524,0.2261 1.4497,0.8702 1.425,1.4174" fill="#ffffff" stroke="none" stroke-width="0.95"/><path d="M242.2811,154.6042v0c0.2546,-1.5039 0.7809,-3.3212 2.5023,-3.6233c0.9994,-0.1777 2.0548,0.3258 2.8576,0.8597c0.3277,0.2185 0.6431,0.4836 0.8911,0.7885c0.4854,0.5976 -0.3563,1.5666 -0.8341,1.805c-1.5238,0.7629 -3.6556,0.8674 -5.2649,0.3164c-0.3173,-0.1093 -0.0219,-0.2309 0.1786,-0.1606c1.4516,0.4931 3.5872,0.3306 4.8944,-0.493c1.2454,-0.7828 0.3952,-1.8107 -0.4456,-2.3389c-0.7723,-0.4855 -1.6834,-0.7486 -2.5536,-0.3724c-1.2074,0.5263 -1.5542,2.1992 -1.748,3.3449c-0.0228,0.1397 -0.5035,0.0266 -0.4778,-0.1263z" fill="#000000" stroke="none" stroke-width="0.95"/><path d="M244.7729,151.9356c0.5767,0.0209 1.0251,0.5064 1.0042,1.0821c-0.0209,0.5776 -0.5073,1.026 -1.083,1.006c-0.5767,-0.0228 -1.027,-0.5092 -1.0023,-1.0849c0.02,-0.5757 0.5045,-1.026 1.0811,-1.0032z" fill="#42210b" stroke="#010101" stroke-width="0.23693"/></g><path d="M243.2615,148.7997c-0.1159,0.0418 -0.5501,-0.1387 -0.3905,-0.1986c2.0834,-0.7837 4.9324,-0.8702 6.1874,1.3148c0.0465,0.0808 -0.4009,0.0475 -0.4731,-0.0779c-1.1106,-1.9342 -3.5093,-1.7233 -5.3238,-1.0383z" fill="#000000" stroke="none" stroke-width="0.95"/><g stroke="none" stroke-width="0.95"><path d="M236.1982,163.0326c0,0 1.6426,1.1286 7.9363,-0.3382c0,0 -1.0687,0.6925 -1.2274,1.5637c-0.0076,0.037 -0.0437,0.0731 -0.075,0.1102c0,0.0228 -0.0019,0.0522 -0.0019,0.0722c0,0.5272 -0.0333,0.9528 -0.3762,1.3879c-0.3002,0.3791 -1.0821,0.5871 -1.5609,0.6498c-0.7714,0.1064 -1.5314,-0.0836 -2.2011,-0.4256c-0.5691,-0.2926 -1.1733,-0.5187 -1.5732,-1.0535c-0.1207,-0.1663 -0.2071,-0.343 -0.2983,-0.5149c-0.5102,-0.3173 -0.7885,-0.7819 -0.6223,-1.4516z" fill="#700f10"/><path d="M236.2619,163.196c2.2391,0.7723 4.863,0.2973 7.1725,-0.2242c-0.02,0.018 -0.0361,0.0399 -0.0551,0.0589c-0.0057,0.0009 -0.0133,0 -0.0171,0.0028c-1.8449,1.4146 -5.0388,1.2303 -7.0842,0.2964c-0.0085,-0.0446 -0.0114,-0.0893 -0.0161,-0.1339z" fill="#ffffff"/><path d="M243.9654,162.2859c0.3838,-0.0428 0.7429,0.1748 0.666,0.5928c-0.0076,0.0446 -0.0418,0.0674 -0.0846,0.0769c-0.0541,0.1302 -0.3306,0.0532 -0.3477,-0.076c-0.0028,-0.019 -0.0161,-0.0408 -0.0228,-0.0617c-0.74,0.4626 -1.0431,1.0763 -1.2112,1.9218c-0.077,0.3971 0.0446,0.9234 -0.3173,1.1875c-0.8199,0.5985 -1.8525,0.704 -2.8415,0.6574c-1.5703,-0.0741 -3.6537,-1.6691 -3.8836,-3.3202c-0.0066,0.0114 -0.0152,0.0209 -0.0209,0.0332c-0.0009,0.0038 -0.0028,0.0076 -0.0028,0.0114c-0.0019,0.0295 -0.0209,0.0418 -0.0399,0.0551c-0.0038,0.0105 -0.0143,0.0162 -0.0171,0.0266c-0.0485,0.1606 -0.3867,0.0675 -0.3601,-0.0969c0,-0.0009 0.001,-0.0009 0.001,-0.0019c-0.0019,0 -0.0038,-0.0009 -0.0048,-0.0009c0.0095,-0.0352 0.0304,-0.0656 0.0456,-0.0988c-0.0836,-0.3135 0.2157,-0.5045 0.513,-0.4921c0.1102,-0.019 0.2252,-0.019 0.3401,0.0199c0.0599,0.0228 0.1368,0.0608 0.1501,0.1359c0.0095,0.0674 -0.0598,0.1054 -0.1187,0.1121c-0.0152,0.0009 -0.0285,0.0057 -0.0437,0.0076c2.3265,0.817 5.1851,0.1472 7.5202,-0.3914c-0.0285,-0.0209 -0.0561,-0.0447 -0.0608,-0.0827c-0.0048,-0.037 0.018,-0.0579 0.0418,-0.0779c-0.0038,-0.0095 -0.0152,-0.0142 -0.0162,-0.0256c-0.0123,-0.0665 0.057,-0.1036 0.1159,-0.1121zM242.1794,165.8655c0.191,-0.1064 0.2907,-0.3335 0.3515,-0.5909c-0.2128,-0.2537 -0.4113,-0.5254 -0.6412,-0.761c-0.2052,-0.2118 -0.4883,-0.3534 -0.7363,-0.5063c-1.2635,0.2242 -2.6495,0.1168 -3.8589,-0.2347c-0.1197,-0.0342 -0.2422,-0.0636 -0.3581,-0.1035c-0.2261,-0.077 -0.4361,-0.1663 -0.6432,-0.2594c0.1786,0.761 0.8284,1.3937 1.3661,1.9181c0.8512,0.8246 1.8221,1.0678 2.9849,0.9927c0.5406,-0.0351 1.0631,-0.1919 1.5352,-0.455zM243.1152,163.3176c0.0114,-0.0143 0.0256,-0.0257 0.037,-0.0399c-0.0503,0.0313 -0.0997,0.0617 -0.151,0.0912c-0.5168,0.2992 -1.1068,0.494 -1.7262,0.6156c0.0143,0.0038 0.0304,0.0076 0.0361,0.0114c0.266,0.1672 0.5653,0.3211 0.7933,0.5405c0.1691,0.1672 0.3192,0.3563 0.4683,0.5453c0.0447,-0.2736 0.0608,-0.5548 0.0988,-0.7457c0.0779,-0.3905 0.229,-0.7277 0.4437,-1.0184zM243.3802,163.0307c0.019,-0.019 0.0342,-0.0409 0.0551,-0.0599c-2.3094,0.5216 -4.9343,0.9966 -7.1725,0.2252c0.0048,0.0446 0.0076,0.0902 0.0162,0.1339c2.0453,0.9339 5.2392,1.1182 7.0841,-0.2964c0.0038,-0.0028 0.0114,-0.0019 0.0171,-0.0028z" fill="#000000"/></g><g fill="#000000" stroke="none" stroke-width="0.95"><path d="M251.1693,149.1626c0.0019,0.8968 0.057,1.9826 -0.5083,2.7312c-0.2213,0.2907 -0.4607,0.5567 -0.6688,0.8455l-0.0921,0.096c0.0484,-0.1492 0.1976,-0.9567 0.3325,-1.9865c0.1301,0.1036 0.4075,0.0931 0.4265,-0.1035c0.2347,-3.3811 0.0817,-7.943 -3.2233,-9.9076c-0.8854,-0.5291 -1.8715,-0.8122 -2.888,-0.9462c-1.5799,-0.2071 -3.1749,-0.4322 -4.7633,-0.5101c-2.9298,-0.1435 -6.1266,-0.1359 -8.8635,1.0478c-1.7908,0.7752 -3.9672,2.1062 -4.8213,3.9425c-0.8455,1.8098 -1.3632,4.3871 -0.6004,6.3175c0.4617,1.1714 1.0298,2.3513 1.5637,3.4932c0.1872,0.4104 0.495,0.7904 0.6555,1.2074c0.1853,0.4893 -0.2926,0.8351 -0.703,1.0963c-0.4883,-1.026 -0.9984,-1.9484 -1.7651,-2.8196c-0.0484,-0.056 -0.1282,-0.0807 -0.2071,-0.0845c-0.0133,-0.0228 -0.0285,-0.0456 -0.0551,-0.0694c-0.6298,-0.5766 -1.1371,-1.2587 -1.5314,-2.0168c0.0048,-0.0143 0.0209,-0.0181 0.0219,-0.0352c0.0047,-0.1358 -0.038,-0.2289 -0.1387,-0.3201c-0.1473,-0.1292 -0.1957,-0.3772 -0.2451,-0.5577c-0.0855,-0.323 -0.1083,-0.627 -0.2974,-0.8968c-0.095,-0.4294 -0.1548,-0.8635 -0.1881,-1.3005c0.0133,-0.0276 0.0086,-0.0599 -0.0095,-0.096c-0.0009,-0.0247 -0.0057,-0.0484 -0.0066,-0.0722c-0.0057,-0.0779 -0.0694,-0.1263 -0.1444,-0.1596c-0.1862,-0.4028 0.1548,-0.8141 0.2384,-1.2445c0.0124,-0.0589 -0.0085,-0.1111 -0.0465,-0.152c0.0579,-0.5158 0.151,-1.0241 0.2774,-1.5276c0.0304,-0.0095 0.0579,-0.0247 0.0798,-0.0475c0.2669,-0.2869 0.1681,-0.6488 0.2242,-1.0013c0.0636,-0.3952 0.4132,-0.6327 0.4949,-1.0222c0.0076,-0.0332 -0.0142,-0.0579 -0.0247,-0.0855c0.2404,-0.5063 0.5064,-0.9965 0.8104,-1.4687c0.0114,-0.0171 0.0133,-0.0342 0.0171,-0.0513c0.0788,-0.0703 0.1463,-0.151 0.1596,-0.2584c0.0209,-0.1368 -0.0086,-0.284 0.019,-0.4189c0.0788,-0.4028 0.6365,-0.6498 0.9699,-0.8199c0.0266,-0.0133 0.0428,-0.0294 0.0589,-0.0456c0,-0.0009 0.001,-0.0009 0.001,-0.0009v0c0.0066,-0.0067 0.0133,-0.0124 0.018,-0.0181c0.4484,-0.494 0.9424,-0.9386 1.4706,-1.3461c0.1406,0.0446 0.3126,0.0152 0.3116,-0.1435c-0.0057,-1.1058 1.5172,-1.0858 2.2876,-1.3062c0.0941,-0.0276 0.1178,-0.0789 0.1045,-0.134c0.5738,-0.2508 1.1562,-0.4712 1.7528,-0.6555c0.1092,0.0466 0.2527,0.0504 0.3268,-0.0332c0.5605,-0.6251 1.2236,-0.7619 2.013,-0.5159c0.0095,0.0038 0.0143,-0.0019 0.0238,0c0.0076,-0.0009 0.0133,0.0048 0.0209,0.0038c0.0133,-0.0019 0.0266,-0.0028 0.0399,-0.0047c0.0399,0 0.0788,0.0019 0.1073,-0.0143c0.7097,-0.1016 1.4203,-0.1757 2.1375,-0.2194c0.0247,-0.001 0.0257,-0.0152 0.0447,-0.02c0.0275,0.0124 0.0503,0.0333 0.0855,0.0352c0.4997,0.0313 0.9842,0.0199 1.4801,-0.0542c0.5776,-0.0855 1.2511,-0.2061 1.8012,0.0618c0.0114,0.0019 0.0171,0.0114 0.0294,0.0123c0.0038,0 0.0067,0.001 0.0105,0.001c0.0703,0.038 0.1377,0.037 0.1966,0.019c0.4437,0.0351 0.8873,0.0741 1.3291,0.1254c0.0665,0.0076 0.1045,-0.0105 0.1387,-0.0314c0.094,0.0475 0.2118,0.0646 0.2916,0.0124c0.6375,-0.4123 1.5504,0.2185 2.1993,0.3619c0.0152,0.0029 0.0218,-0.0047 0.0361,-0.0038c0.0104,0.0029 0.0161,0.0124 0.0285,0.0133c0.7799,0.0827 2.1375,0.1311 2.5137,0.9605c0.0579,0.1292 0.2688,0.1719 0.3895,0.1225c0.7799,0.1748 1.2796,0.8693 1.6691,1.5238c0.0057,0.0095 0.0162,0.0171 0.0247,0.0266c0.0019,0.0304 0.0124,0.0627 0.0456,0.1017c0.4522,0.5301 0.9738,1.0526 1.1134,1.7613c0.0133,0.0655 0.0656,0.1111 0.1283,0.1444c0.7011,0.7258 1.5171,1.7822 1.0763,2.8253c-0.0513,0.0342 -0.076,0.0883 -0.0389,0.1681c0.4246,0.9225 0.5168,2.0558 0.2384,3.0324c-0.0057,0.019 0.0114,0.0314 0.0124,0.0494c-0.0542,0.0342 -0.0827,0.0893 -0.0466,0.1729c0.2689,0.6204 0.3297,1.426 0.0124,2.0416c-0.0333,0.0646 -0.0171,0.1225 0.0171,0.1729z"/><path d="M251.6053,146.9016c0.2869,0.6792 0.3278,1.4915 0.0314,2.1736c0.0038,0.0142 0.0199,0.0218 0.0199,0.037c-0.0009,0.8598 0.0162,1.7746 -0.3182,2.585c-0.2632,0.6374 -0.8807,1.0421 -1.1685,1.6682c-0.1007,0.2204 -0.5757,0.0855 -0.4769,-0.1302c0.0836,-0.1795 0.189,-0.3401 0.3011,-0.4968c0.2081,-0.2888 0.4475,-0.5548 0.6688,-0.8455c0.5653,-0.7486 0.5102,-1.8345 0.5083,-2.7313c-0.0352,-0.0503 -0.0504,-0.1083 -0.0171,-0.1729c0.3173,-0.6156 0.2555,-1.4212 -0.0124,-2.0415c-0.0361,-0.0836 -0.0076,-0.1387 0.0466,-0.1729c-0.001,-0.0171 -0.0181,-0.0304 -0.0124,-0.0494c0.2784,-0.9766 0.1862,-2.109 -0.2384,-3.0324c-0.0371,-0.0808 -0.0124,-0.134 0.0389,-0.1682c0.4399,-1.0421 -0.3771,-2.0985 -1.0782,-2.8243c-0.0637,-0.0333 -0.1159,-0.0798 -0.1283,-0.1425c-0.1406,-0.7097 -0.6612,-1.2312 -1.1134,-1.7613c-0.0332,-0.038 -0.0437,-0.0713 -0.0456,-0.1017c-0.0076,-0.0085 -0.018,-0.0161 -0.0247,-0.0266c-0.3895,-0.6555 -0.8892,-1.349 -1.6691,-1.5238c-0.1207,0.0494 -0.3306,0.0067 -0.3895,-0.1225c-0.3762,-0.8294 -1.7347,-0.8778 -2.5137,-0.9605c-0.0114,-0.0019 -0.0171,-0.0114 -0.0285,-0.0133c-0.0143,-0.0009 -0.0209,0.0067 -0.0361,0.0038c-0.6479,-0.1444 -1.5609,-0.7752 -2.1983,-0.3629c-0.0798,0.0523 -0.1976,0.0342 -0.2917,-0.0123c-0.0332,0.0209 -0.0722,0.0389 -0.1387,0.0313c-0.4417,-0.0513 -0.8854,-0.0902 -1.329,-0.1254c-0.0589,0.0171 -0.1264,0.019 -0.1967,-0.019c-0.0038,0 -0.0066,-0.0009 -0.0104,-0.0009c-0.0114,-0.001 -0.0181,-0.0105 -0.0295,-0.0124c-0.551,-0.2679 -1.2236,-0.1472 -1.8012,-0.0617c-0.4968,0.0731 -0.9813,0.0845 -1.481,0.0532c-0.0352,-0.0019 -0.057,-0.0228 -0.0855,-0.0352c-0.0181,0.0048 -0.02,0.019 -0.0447,0.02c-0.7172,0.0427 -1.4278,0.1168 -2.1375,0.2194c-0.0275,0.0162 -0.0665,0.0133 -0.1064,0.0133c-0.0133,0.0019 -0.0266,0.0029 -0.0399,0.0048c-0.0076,0.0009 -0.0133,-0.0038 -0.0209,-0.0038c-0.0095,-0.0019 -0.0142,0.0028 -0.0237,0c-0.7895,-0.2461 -1.4526,-0.1093 -2.0131,0.5158c-0.0741,0.0836 -0.2175,0.0798 -0.3268,0.0333c-0.5966,0.1833 -1.1789,0.4037 -1.7527,0.6555c0.0133,0.0551 -0.0105,0.1073 -0.1045,0.1339c-0.7695,0.2204 -2.2933,0.2005 -2.2876,1.3063c0.0009,0.1586 -0.171,0.1871 -0.3116,0.1434c-0.5282,0.4076 -1.0222,0.8522 -1.4706,1.3462c-0.0048,0.0066 -0.0124,0.0123 -0.0181,0.018v0c0,0.001 -0.0009,0.001 -0.0009,0.001c-0.0162,0.0161 -0.0323,0.0323 -0.0589,0.0456c-0.3335,0.1691 -0.8911,0.417 -0.97,0.8198c-0.0285,0.134 0.001,0.2812 -0.019,0.419c-0.0133,0.1073 -0.0807,0.1881 -0.1596,0.2584c-0.0038,0.0171 -0.0057,0.0332 -0.0171,0.0513c-0.304,0.4721 -0.5709,0.9623 -0.8103,1.4687c0.0104,0.0275 0.0323,0.0522 0.0247,0.0855c-0.0817,0.3895 -0.4323,0.627 -0.495,1.0222c-0.0551,0.3524 0.0428,0.7144 -0.2242,1.0013c-0.0218,0.0228 -0.0494,0.037 -0.0798,0.0475c-0.1263,0.5035 -0.2194,1.0117 -0.2774,1.5276c0.038,0.0418 0.0589,0.0931 0.0466,0.152c-0.0836,0.4313 -0.4247,0.8426 -0.2385,1.2445c0.0741,0.0332 0.1387,0.0817 0.1444,0.1596c0.001,0.0247 0.0057,0.0484 0.0067,0.0722c0.018,0.037 0.0228,0.0693 0.0095,0.0959c0.0323,0.437 0.0931,0.8712 0.1881,1.3006c0.189,0.2688 0.2118,0.5738 0.2973,0.8968c0.0494,0.1814 0.0979,0.4284 0.2451,0.5576c0.1017,0.0912 0.1444,0.1843 0.1387,0.3202c-0.0009,0.0161 -0.0171,0.0209 -0.0218,0.0351c0.3942,0.7581 0.9015,1.4402 1.5314,2.0169c0.0266,0.0237 0.0418,0.0465 0.0551,0.0693c0.0788,0.0048 0.1577,0.0285 0.2071,0.0846c0.7666,0.8721 1.2768,1.7936 1.7651,2.8196c0.4104,-0.2613 0.8882,-0.6061 0.703,-1.0963c-0.1606,-0.418 -0.4684,-0.7971 -0.6555,-1.2075c-0.5339,-1.1419 -1.102,-2.3227 -1.5637,-3.4931c-0.7629,-1.9304 -0.2451,-4.5078 0.6004,-6.3175c0.854,-1.8354 3.0305,-3.1673 4.8212,-3.9425c2.737,-1.1847 5.9337,-1.1913 8.8635,-1.0479c1.5884,0.0779 3.1835,0.3031 4.7633,0.5102c1.0165,0.1339 2.0026,0.417 2.888,0.9462c3.306,1.9655 3.458,6.5265 3.2234,9.9075c-0.0181,0.1957 -0.2964,0.2062 -0.4266,0.1036c-0.0418,-0.0342 -0.0693,-0.0798 -0.0655,-0.1359c0.2356,-3.3535 0.1197,-7.8631 -3.2253,-9.7299c-0.8265,-0.4607 -1.7708,-0.6574 -2.7008,-0.7619c-1.7556,-0.1976 -3.5008,-0.4427 -5.2659,-0.5054c-3.0666,-0.1111 -6.2842,0.1112 -9.0079,1.6445c-2.242,1.2635 -3.6366,2.9592 -4.1391,5.4786c-0.2176,1.0897 -0.2242,2.2287 -0.0057,3.3174c0.2204,1.103 0.9471,2.1727 1.3803,3.2082c0.2746,0.6479 0.9225,1.4592 1.0469,2.147c0.0475,0.2688 -0.0418,0.4959 -0.1957,0.6925c-0.0199,0.0257 -0.0437,0.0494 -0.0655,0.0741c-0.2451,0.2736 -0.6052,0.4874 -0.8778,0.6707c-0.134,0.0874 -0.3477,0.0342 -0.4161,-0.1111c-0.3582,-0.7733 -0.7306,-1.4887 -1.1961,-2.166c-0.0342,-0.0494 -0.0636,-0.1007 -0.0988,-0.1501c-0.1691,-0.2366 -0.3524,-0.4684 -0.5519,-0.6964c-0.0029,-0.0028 -0.0029,-0.0057 -0.0057,-0.0085c-0.0599,-0.0019 -0.1216,-0.0209 -0.1701,-0.0665c-0.7049,-0.6413 -1.273,-1.3927 -1.7043,-2.243c-0.0332,-0.0646 -0.0247,-0.1121 0.0076,-0.1463c-0.0389,-0.0874 -0.1358,-0.1824 -0.1748,-0.2517c-0.0646,-0.1197 -0.1073,-0.2489 -0.1406,-0.381c-0.0855,-0.3211 -0.0988,-0.7191 -0.3268,-0.9747c-0.0589,-0.0646 -0.0589,-0.1187 -0.0304,-0.1596c-0.0902,-0.4227 -0.1501,-0.8464 -0.1833,-1.2768c-0.1682,-0.2156 -0.248,-0.4389 -0.21,-0.7248c0.0399,-0.2679 0.1853,-0.5121 0.2651,-0.7714c-0.0152,-0.0295 -0.039,-0.0542 -0.0361,-0.0893c0.0608,-0.646 0.1786,-1.2806 0.3467,-1.9076c0.02,-0.0789 0.0903,-0.1055 0.1682,-0.1121c0.0057,-0.0143 0.018,-0.0257 0.0228,-0.0399c0.0057,-0.0133 0.0123,-0.0257 0.0161,-0.0399c0.0703,-0.2404 0.0323,-0.533 0.0703,-0.7743c0.0447,-0.2783 0.2622,-0.4721 0.3924,-0.7087c-0.0295,-0.038 -0.0418,-0.0836 -0.019,-0.1339c0.2441,-0.5358 0.5225,-1.0488 0.8312,-1.5504c-0.0475,-0.0599 -0.0484,-0.1292 0.0409,-0.1815c0.0598,-0.0342 0.0893,-0.0836 0.1197,-0.133c0.0351,-0.0579 0.0608,-0.1225 0.0731,-0.1928c0.0333,-0.1853 0.0238,-0.3971 0.1207,-0.571c0.1852,-0.3334 0.6593,-0.5538 1.0022,-0.7248c0.5349,-0.5852 1.1153,-1.121 1.7585,-1.5884c0.0009,-0.001 0.0038,-0.001 0.0047,-0.0019c0.0333,-0.1482 0.0855,-0.2784 0.1615,-0.3886c0.039,-0.057 0.0827,-0.1092 0.1311,-0.1577c0.4161,-0.4094 1.1429,-0.532 1.767,-0.6659c0.0143,-0.0114 0.0257,-0.0238 0.0466,-0.0342c0.6346,-0.305 1.291,-0.551 1.9589,-0.7686c0.1786,-0.0589 0.3534,-0.1263 0.5348,-0.1786c0.0228,-0.0057 0.0475,-0.0066 0.0713,-0.0057c0.0304,-0.0275 0.0598,-0.0579 0.0902,-0.0836c0.551,-0.4617 1.198,-0.6023 1.9086,-0.4636c0.0798,0.0152 0.1605,0.038 0.2413,0.0608c0.2232,-0.0332 0.4474,-0.0598 0.6716,-0.0864c0.5016,-0.0599 1.0051,-0.1102 1.5096,-0.1387c0.0494,-0.0029 0.0959,0.0171 0.1406,0.0389c0.0332,-0.0142 0.0598,-0.0342 0.114,-0.0313c1.0896,0.0693 2.3807,-0.4151 3.4266,0.0351c0.4741,0.0333 0.9481,0.077 1.4222,0.1311c0.0494,0.0057 0.0855,0.0323 0.1216,0.057c0.8417,-0.5205 1.7727,0.1121 2.621,0.3031c0.9339,0.0978 2.2905,0.2175 2.8453,1.0839c0.0209,0 0.0332,-0.0114 0.0551,-0.0076c0.9984,0.171 1.6321,1.0127 2.1175,1.8316c0.0076,0.0133 0.0067,0.0238 0.0114,0.0352c0.001,0.0009 0.0019,0.0009 0.0029,0.0019c0.4778,0.5595 0.9709,1.1058 1.1561,1.8278c0.0133,0.0085 0.0276,0.0152 0.039,0.0266c0.779,0.7961 1.71,2.0244 1.1903,3.1901c-0.0038,0.0104 -0.0171,0.0104 -0.0228,0.019c0.4275,0.9661 0.5178,2.1375 0.2318,3.1521c-0.0076,0.0256 -0.0323,0.0304 -0.0475,0.0475z"/></g></g></g></svg>