<svg version="1.1" xmlns="http://www.w3.org/2000/svg" xmlns:xlink="http://www.w3.org/1999/xlink" width="32.56847" height="44.09711" viewBox="0,0,32.56847,44.09711"><g transform="translate(-223.03534,-201.62405)"><g data-paper-data="{&quot;isPaintingLayer&quot;:true}" fill-rule="nonzero" stroke-width="0.90192" stroke-miterlimit="10" stroke-dasharray="" stroke-dashoffset="0" style="mix-blend-mode: normal"><path d="M252.0648,220.7508c0,0 5.6754,7.8133 1.6382,10.7526c-2.1677,1.5872 -5.1766,-1.5529 -6.0079,-2.689c-1.2035,-1.6493 -1.6002,-2.0463 -1.8568,-4.1142c-0.2557,-2.0634 -1.2741,-9.6507 -0.8611,-12.3974c0.6496,-4.3042 3.6233,-11.4675 5.7801,-1.4431c0,0 0.6795,5.677 1.2208,9.4716l0.0867,0.4195v0v0v0v0v0v0v0v0v0v0v0v0v0v0v0v0v0v0v0v0v0v0v0v0v0v0v0v0v0v0v0v0v0v0v0v0v0zM250.8368,219.1744l1.228,1.5764" fill="#f05a28" stroke="#000000" stroke-linecap="round" stroke-linejoin="miter"/><g><path d="M248.6945,211.7707c-0.3904,2.5847 -1.4304,9.3159 -1.2632,10.6465l-0.2431,-0.5429c0.4988,1.4044 1.003,3.4021 0.843,5.479c-0.3108,4.0322 -2.5327,6.1928 -4.8937,7.3461l-0.0271,0.1314l-2.0258,8.0501c0.0388,-0.0009 0.3831,0.0198 2.8065,0.253c3.0703,0.2934 1.6409,2.1363 1.6409,2.1363l-5.7233,-0.1018l-0.2927,-0.0036l-11.5649,-0.2061c-0.1419,-0.469 -0.0289,-1.9194 0.7039,-5.5879c0.2828,-1.4413 0.5448,-2.681 0.7735,-3.6947l0.0018,-0.0072c-3.9071,-3.0257 -3.4381,-7.708 -2.2472,-11.0209c0.759,-2.1192 5.0916,-18.1159 5.0916,-18.1159c0,0 1.8831,-6.1433 9.6764,-4.0052c0,0 8.9707,1.4872 6.7443,9.2402c0,0.0027 -0.0009,0.0027 -0.0009,0.0036v0v0v0v0v0v0v0v0v0v0v0v0v0v0v0v0v0v0v0v0v0v0v0v0v0v0v0v0v0v0v0v0v0v0v0v0v0zM237.2823,235.7545c0,0 2.2969,0.3691 5.8543,-1.0533M247.4304,222.4181c-0.2033,-0.9291 -1.4132,-2.5694 -1.4132,-2.5694M230.1296,232.8286c0,0 -0.2611,0.8121 -0.6993,2.843" fill="#f05a28" stroke="#000000" stroke-linecap="round" stroke-linejoin="round"/><path d="M240.0608,245.064c-0.0072,0 -0.0144,0 -0.019,0c-0.2503,-0.0117 -0.4436,-0.2214 -0.4328,-0.469c0.01,-0.2233 -0.0497,-0.3943 -0.1861,-0.5402c-0.5747,-0.6067 -2.3159,-0.6338 -3.3568,-0.65c-0.3126,-0.0045 -0.5909,-0.009 -0.8096,-0.0234c-0.1364,-0.0099 -0.262,-0.081 -0.3397,-0.1926c-0.0777,-0.1126 -0.1012,-0.2539 -0.0624,-0.3853c0.3732,-1.255 0.7346,-2.5243 1.0961,-3.7928l0.4572,-1.6025c0.0686,-0.2394 0.3162,-0.3817 0.5584,-0.3088c0.2403,0.0676 0.3786,0.3178 0.3108,0.5564l-0.4572,1.5998c-0.3081,1.0839 -0.6171,2.1696 -0.9334,3.2445c0.0623,0.0009 0.1274,0.0018 0.1934,0.0036c1.3354,0.0189 3.1643,0.0477 4.001,0.9318c0.3072,0.3231 0.4518,0.7265 0.4328,1.1946c-0.0126,0.2449 -0.2123,0.4339 -0.4527,0.4339v0v0v0v0v0v0v0v0v0v0v0v0v0v0v0v0v0v0v0v0v0v0v0v0v0v0v0v0v0v0v0v0v0v0v0v0v0v0z" fill="#000000" stroke="none" stroke-linecap="butt" stroke-linejoin="miter"/></g><path d="M233.9355,214.7965l-2.9646,4.8623l0.0135,-0.0847c0.0958,3.4165 -0.1364,9.3492 -2.8661,10.3215c-1.4701,0.5203 -4.9263,1.3576 -4.6119,-8.0402c0.2521,-7.5703 7.0362,-14.2601 9.6638,-16.5728c0,0 2.3384,1.2963 2.4306,3.7982c0.0912,2.5036 -1.6671,5.7121 -1.6653,5.7157v0v0v0v0v0v0v0v0v0v0v0v0v0v0v0v0v0v0v0v0v0v0v0v0v0v0v0v0v0v0v0v0v0v0v0v0v0zM230.9844,219.5741c0,-1.4494 -0.403,-2.3496 -0.403,-2.3496" fill="#f05a28" stroke="#000000" stroke-linecap="round" stroke-linejoin="miter"/></g></g></svg>