<svg version="1.1" xmlns="http://www.w3.org/2000/svg" xmlns:xlink="http://www.w3.org/1999/xlink" width="145.8074" height="94.33332" viewBox="0,0,145.8074,94.33332"><g transform="translate(-33.4167,-236.91671)"><g data-paper-data="{&quot;isPaintingLayer&quot;:true}" fill-rule="nonzero" stroke="#000000" stroke-width="2.5" stroke-linecap="butt" stroke-linejoin="miter" stroke-miterlimit="10" stroke-dasharray="" stroke-dashoffset="0" style="mix-blend-mode: normal"><g fill="#000000"><g><path d="M102.73429,273.28637c-0.07246,-2.20795 1.65869,-4.05659 3.86664,-4.12905c2.20795,-0.07246 4.05659,1.65869 4.12905,3.86664c0.07246,2.20795 -1.65869,4.05659 -3.86664,4.12905c-2.20795,0.07246 -4.05659,-1.65869 -4.12905,-3.86664z"/><path d="M110.70811,272.35765c-0.07246,-2.20795 1.65869,-4.05659 3.86664,-4.12905c2.20795,-0.07246 4.05659,1.65869 4.12905,3.86664c0.07246,2.20795 -1.65869,4.05659 -3.86664,4.12905c-2.20795,0.07246 -4.05659,-1.65869 -4.12905,-3.86664z"/></g><g><path d="M118.02657,271.78395c-0.07246,-2.20795 1.65869,-4.05659 3.86664,-4.12905c2.20795,-0.07246 4.05659,1.65869 4.12905,3.86664c0.07246,2.20795 -1.65869,4.05659 -3.86664,4.12905c-2.20795,0.07246 -4.05659,-1.65869 -4.12905,-3.86664z"/><path d="M126.00038,270.85523c-0.07246,-2.20795 1.65869,-4.05659 3.86664,-4.12905c2.20795,-0.07246 4.05659,1.65869 4.12905,3.86664c0.07246,2.20795 -1.65869,4.05659 -3.86664,4.12905c-2.20795,0.07246 -4.05659,-1.65869 -4.12905,-3.86664z"/></g><g><path d="M134.62957,269.57149c-0.07246,-2.20795 1.65869,-4.05659 3.86664,-4.12905c2.20795,-0.07246 4.05659,1.65869 4.12905,3.86664c0.07246,2.20795 -1.65869,4.05659 -3.86664,4.12905c-2.20795,0.07246 -4.05659,-1.65869 -4.12905,-3.86664z"/><path d="M142.60341,268.64277c-0.07246,-2.20795 1.65869,-4.05659 3.86664,-4.12905c2.20795,-0.07246 4.05659,1.65869 4.12905,3.86664c0.07246,2.20795 -1.65869,4.05659 -3.86664,4.12905c-2.20795,0.07246 -4.05659,-1.65869 -4.12905,-3.86664z"/></g></g><g fill="#323232"><path d="M125.66671,330.00003v-21.66666h22v21.66666z"/><path d="M58.6667,330.00003v-21.66666h22v21.66666z"/><path d="M52.6667,318.00003v-45.66666h101.33334v45.66666z"/></g><g fill="#323232"><path d="M57.1667,273.83338l-6.85969,-22.17968c0,0 39.66179,-13.48699 55.54509,-13.48699c16.93776,0 55.91398,13.48699 55.91398,13.48699l-5.9327,22.17968c0,0 -34.34626,-10 -50.16667,-10c-16.9856,0 -48.5,10 -48.5,10z"/><path d="M34.6667,269.73243c0,-10.03317 8.3189,-18.16667 18.35207,-18.16667c10.03318,0 17.98126,8.1335 17.98126,18.16667c0,10.03318 -36.33333,10.03317 -36.33333,0z"/><path d="M141.64076,269.73243c0,-10.03317 8.3189,-18.16667 18.35207,-18.16667c10.03318,0 17.98126,8.1335 17.98126,18.16667c0,10.03318 -36.33333,10.03317 -36.33333,0z"/></g><path d="M77.70875,283.37073v-22.24764h7.41588v22.24764z" fill="#121212"/><path d="M128.13673,283.37073v-22.24764h7.41588v22.24764z" fill="#121212"/></g></g></svg>