<svg version="1.1" xmlns="http://www.w3.org/2000/svg" xmlns:xlink="http://www.w3.org/1999/xlink" width="42.91092" height="35" viewBox="0,0,42.91092,35"><g transform="translate(-218.54454,-162.5)"><g data-paper-data="{&quot;isPaintingLayer&quot;:true}" stroke-miterlimit="10" stroke-dasharray="" stroke-dashoffset="0" style="mix-blend-mode: normal"><path d="M218.54454,197.5v-35h42.91092v35z" fill="#ffe800" fill-rule="nonzero" stroke="none" stroke-width="NaN" stroke-linecap="butt" stroke-linejoin="miter"/><path d="M238.65397,180.52713v0v0v0v0v0v0c-0.00051,-0.01788 -0.02351,-0.5249 -0.02342,-0.52506c-0.08606,-1.36497 1.01806,-3.75236 1.46203,-4.44393l0.02352,-0.03192c1.82815,-2.96022 4.12933,-3.82613 5.43444,-4.23746c2.963,-0.93492 5.8952,0.5418 5.8952,0.5418l-0.96692,2.03997c0,0 0.30204,-0.5738 2.00201,-0.94557c1.69967,-0.37193 3.33954,0.69963 3.33954,0.69963l-2.25185,1.99601c0,0 0.95493,-0.48517 1.54798,-0.53097c1.05098,-0.08036 1.59535,0.49076 1.59535,0.49076l-1.01315,1.44463c0,0 0.35055,2.133 0.47736,4.02817c0.02762,0.40466 0.08349,0.82933 0.03388,1.25648c-0.17982,1.55222 -1.33363,3.86978 -2.51184,4.69086c-0.20606,0.14656 -0.41775,0.28261 -0.63171,0.41323c-0.0553,0.03335 -0.11059,0.06633 -0.16601,0.09847c-0.19221,0.11267 -0.38712,0.21968 -0.58481,0.31869c-0.02655,0.01306 -0.0525,0.02816 -0.07906,0.04123c-0.22234,0.10887 -0.44812,0.20748 -0.67671,0.29845c-0.0548,0.02215 -0.11067,0.04198 -0.16607,0.06343c-0.19312,0.07277 -0.38846,0.13937 -0.58434,0.19916c-0.04538,0.01422 -0.09024,0.02927 -0.13535,0.04228c-0.23306,0.06695 -0.46872,0.1235 -0.70571,0.17109c-0.05256,0.01016 -0.10529,0.01849 -0.15784,0.02788c-0.19666,0.03566 -0.39529,0.06393 -0.59453,0.08556c-0.05733,0.00585 -0.11442,0.01374 -0.17172,0.01885c-0.24048,0.02105 -0.48144,0.03265 -0.72385,0.03274c-0.04335,0.00019 -0.08759,-0.00298 -0.13108,-0.00363c-0.20552,-0.00299 -0.41116,-0.01466 -0.61731,-0.03387c-0.87192,-0.08148 -1.74823,-0.30081 -2.60797,-0.68705c-0.98253,-0.44149 -1.82335,-0.93142 -2.54246,-1.44895c-0.17782,-0.12795 -0.34781,-0.25799 -0.511,-0.38897c-0.03067,-0.02552 -0.06135,-0.05066 -0.09187,-0.07571c-0.16419,-0.13514 -0.32354,-0.27111 -0.47264,-0.40867c-0.00088,-0.00085 -0.00205,-0.00187 -0.00307,-0.0028c-0.14966,-0.13726 -0.28975,-0.27627 -0.42438,-0.41616c-0.02362,-0.02439 -0.04798,-0.04918 -0.07136,-0.07366c-0.12881,-0.13541 -0.25171,-0.27223 -0.36735,-0.40934c-0.02056,-0.0237 -0.03948,-0.04825 -0.05972,-0.07216c-0.11348,-0.13654 -0.2221,-0.27353 -0.32304,-0.41094c-0.0036,-0.00576 -0.00834,-0.01082 -0.01195,-0.0162c-0.10307,-0.14125 -0.19834,-0.28212 -0.28898,-0.42263c-0.01687,-0.02629 -0.03372,-0.05221 -0.04996,-0.07818c-0.08608,-0.13727 -0.16752,-0.27396 -0.24212,-0.40981c-0.01151,-0.02056 -0.0219,-0.04109 -0.03319,-0.06171c-0.07008,-0.13037 -0.1358,-0.26031 -0.19613,-0.38926c-0.00654,-0.01271 -0.01389,-0.02643 -0.0196,-0.03964c-0.06248,-0.13526 -0.11819,-0.26919 -0.17004,-0.40178c-0.01016,-0.02558 -0.01995,-0.05113 -0.02936,-0.07629c-0.04946,-0.13132 -0.09529,-0.26086 -0.13475,-0.38947c-0.00475,-0.01425 -0.00833,-0.0286 -0.01286,-0.0429c-0.0368,-0.12183 -0.06925,-0.24206 -0.09756,-0.36008c-0.00372,-0.01692 -0.00892,-0.03427 -0.01295,-0.05097c-0.02785,-0.12312 -0.0785,-0.40683 -0.08212,-0.42925c-0.01827,-0.11815 -0.03367,-0.23456 -0.04351,-0.3474c-0.0006,-0.00703 -0.00108,-0.01399 -0.00139,-0.02084c-0.0093,-0.10854 -0.01449,-0.21332 -0.01672,-0.31615z" fill="#9a8479" fill-rule="nonzero" stroke="#000000" stroke-width="0.5" stroke-linecap="butt" stroke-linejoin="miter"/><path d="M252.27791,182.11139v0v0v0v0v0v0c0,0 0.67575,2.88531 -0.95045,4.62464c-1.62558,1.73888 -5.27834,0.87872 -7.64653,-0.59593c-3.13053,-1.94965 -3.59313,-4.68876 -2.0677,-6.24317c1.52617,-1.55401 6.27994,-0.10376 6.27994,-0.10376l-1.41732,0.94367c0,0 0.60109,0.21323 1.18737,0.19842c0.5859,-0.01442 1.26116,-0.09094 1.26116,-0.09094l-1.80983,0.90118c0,0 1.36347,0.7158 2.7905,0.8784c1.4267,0.16319 2.37287,-0.51251 2.37287,-0.51251z" fill="#e6e7e8" fill-rule="nonzero" stroke="#000000" stroke-width="0.5" stroke-linecap="butt" stroke-linejoin="miter"/><g fill-rule="nonzero" stroke="#000000" stroke-width="0.5" stroke-linejoin="miter"><path d="M255.05887,182.24639c0,0 3.62411,-0.06383 3.54412,1.6076c-0.07997,1.67143 -2.05647,2.61583 -5.18943,2.74583c0,0 1.29873,-2.28524 1.64531,-4.35344v0v0v0zM255.05887,182.24639c0.06046,-0.23129 0.10691,-0.71087 0.10691,-0.71087M253.15777,186.92681l0.2314,-0.3581" fill="#9a8479" stroke-linecap="round"/><path d="M253.38925,186.56856c0.24625,-0.42016 0.62574,-1.12598 1.00376,-2.05896c0.22057,-0.54269 0.39793,-1.12951 0.53363,-1.64575l-0.00002,0.00075c1.85316,0.46315 2.49217,2.75079 2.49217,2.75079l0.00059,0.00032c-1.54299,0.9133 -3.99694,0.9225 -3.99694,0.9225l-0.03319,0.03035v0v0v0v0z" fill="#ee4036" stroke-linecap="butt"/></g><g fill-rule="nonzero" stroke="#000000" stroke-width="0.5" stroke-linejoin="miter"><path d="M239.26405,180.29191c-1.81547,-2.16445 -2.39249,-4.07962 -1.33955,-5.19762c1.05317,-1.11805 3.21031,1.33074 3.21031,1.33074c-1.15262,1.54783 -1.87076,3.86687 -1.87076,3.86687v0v0v0v0v0zM241.53854,175.90125c0,0 -0.28789,0.33609 -0.40358,0.52387M239.29947,180.28801l-0.0956,0.3821" fill="#9a8479" stroke-linecap="round"/><path d="M239.29929,180.24678c0,0 -1.48309,-1.63655 -1.81764,-3.24352l0.00052,0.00009c0,0 1.89548,-1.0328 3.32535,-0.09659l0.00039,-0.00036c-0.25783,0.41889 -0.53695,0.91069 -0.76061,1.40293c-0.38554,0.84569 -0.62045,1.5475 -0.74782,1.97868l-0.00019,-0.04123v0v0v0v0z" fill="#ee4036" stroke-linecap="butt"/></g><path d="M248.67192,184.28316c-0.10757,-0.05795 -0.15969,-0.18649 -0.11845,-0.30568c0.0459,-0.13178 0.19008,-0.20147 0.32191,-0.1555c0.11973,0.0421 1.1803,0.41657 1.5167,0.65561c0.11366,0.08113 0.14037,0.23903 0.06034,0.35244c-0.08128,0.11389 -0.23989,0.1379 -0.3528,0.06003c-0.21199,-0.1498 -0.96435,-0.44183 -1.39064,-0.59113c-0.01315,-0.00403 -0.02549,-0.00953 -0.03707,-0.01577v0v0v0v0v0v0z" fill="#231f20" fill-rule="nonzero" stroke="none" stroke-width="0.5" stroke-linecap="butt" stroke-linejoin="miter"/><path d="M245.03993,182.3877c-0.01394,-0.00751 -0.02725,-0.01659 -0.04042,-0.02695c-0.46028,-0.37617 -1.41834,-0.7618 -1.42771,-0.76571c-0.12724,-0.05132 -0.19259,-0.1983 -0.14099,-0.32816c0.05174,-0.12943 0.19871,-0.19262 0.32849,-0.14069c0.04222,0.01759 1.03894,0.41851 1.55985,0.84381c0.10801,0.08804 0.12437,0.24744 0.03565,0.35598c-0.07744,0.09433 -0.21055,0.11792 -0.31485,0.06173v0v0v0v0z" fill="#231f20" fill-rule="nonzero" stroke="none" stroke-width="0.5" stroke-linecap="butt" stroke-linejoin="miter"/><path d="M248.26075,185.40418c0,0 -1.03662,0.48613 -2.38115,-0.23822c-1.34422,-0.72418 -1.41749,-1.45023 -1.41749,-1.45023" fill="none" fill-rule="nonzero" stroke="#231f20" stroke-width="0.5" stroke-linecap="round" stroke-linejoin="miter"/><path d="M233.80264,171.6507c0.07872,-0.06984 0.22728,-0.06095 0.2722,0.05068l1.18026,2.98923c0,0 2.03851,1.10241 2.71998,1.98034c1.14543,1.46188 1.35459,2.75882 1.35459,2.75882c0,0 2.13673,0.32271 2.71197,1.92252c0.57524,1.5998 -0.26419,4.89834 -5.55107,6.72106c-5.28688,1.82273 -9.85657,0.95316 -12.36583,-2.05819c-2.50925,-3.01134 0.18391,-7.39173 0.04249,-7.13642l-1.32411,-5.09077c-0.04493,-0.11164 0.0876,-0.21839 0.21125,-0.17659l3.81455,1.79921c0,0 1.23286,-0.67172 2.58361,-0.9178c0.80147,-0.16998 1.50332,-0.20829 2.18427,-0.18478z" fill="#000000" fill-rule="evenodd" stroke="#000000" stroke-width="1.2" stroke-linecap="butt" stroke-linejoin="miter"/><path d="M239.25897,179.55741c0,0 2.06689,0.244 2.64213,1.8438c0.57524,1.5998 -0.39986,4.7698 -5.63293,6.55561c-6.79595,2.41486 -10.6974,-1.28754 -9.18503,-4.62038c1.50837,-3.36175 5.19754,-1.19158 7.60194,-1.70151c2.0615,-0.43295 2.04042,-2.28633 4.57388,-2.07752z" fill="#000000" fill-rule="evenodd" stroke="#000000" stroke-width="1" stroke-linecap="butt" stroke-linejoin="miter"/><path d="M230.58092,183.91255c-0.01602,-0.11564 0.0876,-0.21839 0.20725,-0.20551c0.57733,0.12626 2.20256,0.37252 3.95318,0.24782c1.57316,-0.12958 2.48626,-0.34448 2.9079,-0.49129c0.14054,-0.04893 0.27621,0.07959 0.23842,0.23215c-0.15204,0.81662 -0.9502,3.13708 -4.00978,3.38421c-2.67087,0.07541 -3.18742,-1.73878 -3.29696,-3.16739z" fill="#000000" fill-rule="evenodd" stroke="#000000" stroke-width="1.2" stroke-linecap="round" stroke-linejoin="round"/><path d="M244.62248,179.1384c-1.20656,1.28684 -3.28407,1.60416 -3.28407,1.60416" fill="#000000" fill-rule="evenodd" stroke="#000000" stroke-width="1.2" stroke-linecap="round" stroke-linejoin="round"/><path d="M244.69527,182.42839c-1.8013,0.3969 -3.0049,0.00383 -3.0049,0.00383" fill="#000000" fill-rule="evenodd" stroke="#000000" stroke-width="1.2" stroke-linecap="round" stroke-linejoin="round"/><path d="M234.4653,180.89929c0.60711,-0.08412 1.25114,-0.11442 1.30809,0.08394c0.08499,0.40074 -0.23651,1.2703 -0.69506,1.3633c-0.51237,0.12992 -1.82673,-0.42459 -1.89082,-0.88716c-0.07697,-0.34292 0.69959,-0.47997 1.27779,-0.56009z" fill="#000000" fill-rule="evenodd" stroke="#000000" stroke-width="1.2" stroke-linecap="round" stroke-linejoin="round"/><path d="M221.39571,182.26817c0,0 2.59842,0.465 3.73444,1.22101" fill="#000000" fill-rule="evenodd" stroke="#000000" stroke-width="1.2" stroke-linecap="round" stroke-linejoin="round"/><path d="M225.35708,184.48902c-1.17504,0.66371 -3.35844,0.64212 -3.35844,0.64212" fill="#000000" fill-rule="evenodd" stroke="#000000" stroke-width="1.2" stroke-linecap="round" stroke-linejoin="round"/><path d="M236.1377,178.67504c0.01649,0.32063 -0.20319,0.59495 -0.49467,0.60995c-0.29148,0.01499 -0.53815,-0.23534 -0.55465,-0.55596c-0.01649,-0.32063 0.20319,-0.59495 0.49467,-0.60994c0.29148,-0.01499 0.53815,0.23534 0.55465,0.55596" fill="#ff0000" fill-rule="evenodd" stroke="#ff0000" stroke-width="1" stroke-linecap="butt" stroke-linejoin="miter"/><path d="M228.89427,179.8952c0.01649,0.32063 -0.20319,0.59495 -0.49467,0.60995c-0.29148,0.01499 -0.53815,-0.23534 -0.55465,-0.55596c-0.01649,-0.32063 0.20319,-0.59495 0.49467,-0.60995c0.29298,0.01415 0.53815,0.23534 0.55465,0.55596" fill="#ff0000" fill-rule="evenodd" stroke="#ff0000" stroke-width="1" stroke-linecap="butt" stroke-linejoin="miter"/></g></g></svg>