<svg version="1.1" xmlns="http://www.w3.org/2000/svg" xmlns:xlink="http://www.w3.org/1999/xlink" width="123.28885" height="45.60925" viewBox="0,0,123.28885,45.60925"><g transform="translate(-14.64568,-172.07344)"><g data-paper-data="{&quot;isPaintingLayer&quot;:true}" fill-rule="nonzero" stroke="none" stroke-linecap="butt" stroke-linejoin="miter" stroke-miterlimit="10" stroke-dasharray="" stroke-dashoffset="0" style="mix-blend-mode: normal"><path d="M14.64568,205.09729c0,-7.43678 0,-16.60464 0,-20.89363c0,-5.04817 4.56298,-12.13022 9.45703,-12.13022c13.41842,0 76.72023,0 102.682,0c6.8898,0 11.14982,7.2635 11.14982,15.18782c0,6.43214 0,13.29965 0,17.07162c0,5.41587 -3.7935,13.34981 -10.26919,13.34981c-25.73818,0 -91.24183,0 -104.26713,0c-4.40821,0 -8.75252,-5.48047 -8.75252,-12.5854z" fill="#1fff00" stroke-width="0"/><text transform="translate(21.73797,195.54824) scale(0.46388,0.46388)" font-size="40" xml:space="preserve" fill="#ffffff" fill-rule="nonzero" stroke="none" stroke-width="1" stroke-linecap="butt" stroke-linejoin="miter" stroke-miterlimit="10" stroke-dasharray="" stroke-dashoffset="0" font-family="Sans Serif" font-weight="normal" text-anchor="start" style="mix-blend-mode: normal"><tspan x="0" dy="0">Less than 10</tspan></text><text transform="translate(22.4549,207.54569) scale(0.18672,0.18672)" font-size="40" xml:space="preserve" fill="#ffffff" fill-rule="nonzero" stroke="none" stroke-width="1" stroke-linecap="butt" stroke-linejoin="miter" stroke-miterlimit="10" stroke-dasharray="" stroke-dashoffset="0" font-family="Sans Serif" font-weight="normal" text-anchor="start" style="mix-blend-mode: normal"><tspan x="0" dy="0">Younger Kids</tspan></text><text transform="translate(75.11527,207.54569) scale(0.18672,0.18672)" font-size="40" xml:space="preserve" fill="#ffffff" fill-rule="nonzero" stroke="none" stroke-width="1" stroke-linecap="butt" stroke-linejoin="miter" stroke-miterlimit="10" stroke-dasharray="" stroke-dashoffset="0" font-family="Sans Serif" font-weight="normal" text-anchor="start" style="mix-blend-mode: normal"><tspan x="0" dy="0">Click to change</tspan></text><text transform="translate(19.75,212.56663) scale(0.083,0.083)" font-size="40" xml:space="preserve" fill="#ffffff" fill-rule="nonzero" stroke="none" stroke-width="1" stroke-linecap="butt" stroke-linejoin="miter" stroke-miterlimit="10" stroke-dasharray="" stroke-dashoffset="0" font-family="Sans Serif" font-weight="normal" text-anchor="start" style="mix-blend-mode: normal"><tspan x="0" dy="0">less creepy things</tspan><tspan x="0" dy="46.150000000000006px">no jumpscares</tspan></text></g></g></svg>