<svg version="1.1" xmlns="http://www.w3.org/2000/svg" xmlns:xlink="http://www.w3.org/1999/xlink" width="92.86445" height="70.17992" viewBox="0,0,92.86445,70.17992"><g transform="translate(-193.56778,-155.80862)"><g data-paper-data="{&quot;isPaintingLayer&quot;:true}" fill-rule="nonzero" stroke-miterlimit="10" stroke-dasharray="" stroke-dashoffset="0" style="mix-blend-mode: normal"><path d="M239.9093,214.99589c0,-1.3647 0.3828,-3.3251 2.5004,-3.7676c3.0551,-0.6409 6.5506,2.4527 7.5013,3.3629c-0.0703,0.3622 1.1185,7.6704 1.1185,8.304c0,2.1422 -0.5725,2.2271 -0.7947,2.2623c-2.0918,0.3045 -7.6665,-5.5575 -10.2253,-8.9681c-0.0352,-0.1851 -0.1002,-0.5971 -0.1002,-1.1935z" fill="#ffc93e" stroke="#603813" stroke-width="1.32684" stroke-linecap="butt" stroke-linejoin="miter"/><path d="M231.4387,225.23639c-1.5165,-1.6453 -1.7328,-6.1041 -1.7328,-8.0008c0,-0.8048 0.0411,-1.3401 0.0431,-1.3567l0.0027,-0.0412c0,0 -0.0047,-0.1718 -0.0047,-0.2348c0,-3.5719 3.2886,-4.8118 3.8459,-4.9982c1.904,0.0232 5.1952,0.9241 5.9807,2.2835c0.0796,0.1366 0.1539,0.3091 0.1539,0.53c0,0.1938 -0.0577,0.4286 -0.2222,0.7119c-0.0763,0.13 -1.4284,3.3251 -2.5721,5.7751l-0.8173,2.2656c-0.6117,1.9796 -1.5743,3.9606 -2.6219,3.9606c-0.8279,0.0013 -1.5,-0.2919 -2.0553,-0.895z" fill="#ffc93e" stroke="#603813" stroke-width="1.32684" stroke-linecap="butt" stroke-linejoin="miter"/><path d="M274.3295,199.34179l-1.4787,-2.6092c-1.6194,-2.8202 -3.4903,-5.4023 -5.1402,-7.6752c-2.121,-2.9276 -3.9666,-5.9568 -4.5776,-8.097c-0.2203,-0.7709 -0.1141,-1.5066 0.203,-1.9133c0.0305,-0.1095 0.3503,-0.2839 0.5758,-0.3304c2.7174,-0.5871 13.9657,5.8706 16.772,9.3224c4.1112,5.0553 5.7551,12.1466 4.8383,15.7184c-0.3762,1.4595 -1.2174,2.4938 -2.4354,2.9861c-3.1135,1.2578 -5.1614,-1.0124 -8.7572,-7.4018z" fill="#ffc93e" stroke="#603813" stroke-width="1.32684" stroke-linecap="butt" stroke-linejoin="miter"/><path d="M277.5478,187.30669c0,16.5351 -14.4944,28.1748 -33.8955,28.1748c-3.5984,0 -7.1178,-0.5042 -10.4608,-1.4954l-0.1798,-0.0517c0,0 -5.2476,-0.4412 -11.9608,8.383c-1.3467,1.7713 -1.2267,3.4226 -3.1247,2.9144c-0.6329,-0.1692 -1.098,-0.6343 -1.4774,-1.4788c-0.9076,-2.0141 -0.2376,-6.7861 0.8717,-9.8352l0.1745,-0.479l-0.4007,-0.3171c-0.0982,-0.0783 -10.9863,-8.0121 -12.0862,-19.3812c-0.9587,-9.9101 4.0475,-15.5525 6.1247,-18.6534l1.1935,-1.9876c0.2632,-0.64034 7.61547,-13.66993 18.93648,-15.49478c6.15884,-0.99276 12.14459,-1.73393 18.33911,-0.44556c4.45508,0.92659 15.67529,2.88488 21.26826,8.86145c6.264,6.69362 6.67765,17.60091 6.67765,21.28609z" fill="#ffc93e" stroke="#603813" stroke-width="1.32684" stroke-linecap="round" stroke-linejoin="round"/><g stroke="none" stroke-width="0.66342" stroke-linecap="butt" stroke-linejoin="miter"><path d="M233.3998,188.51739v0c0,-2.984 2.4188,-5.4042 5.4036,-5.4055c2.9834,0 5.4022,2.4215 5.4022,5.4055c0,2.9821 -2.4182,5.4003 -5.4022,5.4003c-2.9841,0 -5.4036,-2.4182 -5.4036,-5.4003z" fill="#ffffff"/><path d="M239.5305,184.56869c1.0488,0 1.9995,0.426 2.6875,1.1146c0.6886,0.688 1.1145,1.6386 1.1145,2.6875c0,1.0489 -0.4259,1.9996 -1.1145,2.6875c-0.688,0.6887 -1.6387,1.1146 -2.6875,1.1146c-1.0489,0 -1.9996,-0.4259 -2.6875,-1.1146c-0.6887,-0.6879 -1.1146,-1.6386 -1.1146,-2.6875c0,-1.0489 0.4259,-1.9995 1.1146,-2.6875c0.6879,-0.6886 1.6386,-1.1146 2.6875,-1.1146z" fill="#603813"/></g><g stroke="none" stroke-width="0.66342" stroke-linecap="butt" stroke-linejoin="miter"><path d="M259.4271,188.51739v0c0,-2.984 2.4188,-5.4042 5.4042,-5.4055c2.9834,0 5.4023,2.4215 5.4023,5.4055c0,2.9821 -2.4202,5.4003 -5.4023,5.4003c-2.9854,0 -5.4042,-2.4182 -5.4042,-5.4003z" fill="#ffffff"/><path d="M261.7551,188.37079v0c0,-2.0991 1.701,-3.8021 3.8014,-3.8021c2.099,0 3.802,1.7037 3.802,3.8021c0,2.1011 -1.703,3.8007 -3.802,3.8007c-2.1004,0 -3.8014,-1.701 -3.8014,-3.8007z" fill="#603813"/></g><path d="M196.0944,209.37469c-1.1073,-0.7072 -1.7455,-1.8748 -1.8483,-3.3808c-0.2501,-3.6826 2.6643,-10.352 7.6286,-14.57c3.3901,-2.8806 15.6302,-7.1716 18.1937,-6.0989c0.2116,0.0889 0.4955,0.3172 0.5042,0.4326c0.2395,0.4564 0.2076,1.1975 -0.15,1.9153c-0.9911,1.9929 -3.3595,4.6353 -5.9814,7.1225c-2.038,1.9398 -4.3474,4.1304 -6.4537,6.6096l-1.9319,2.2888c-4.7017,5.6272 -7.1331,7.4887 -9.9612,5.6809z" fill="#ffc93e" stroke="#603813" stroke-width="1.32684" stroke-linecap="butt" stroke-linejoin="miter"/><path d="M256.83979,205.52159c0,0 -4.918,0.0039 -8.3618,-2.9476" fill="none" stroke="#603813" stroke-width="1.32684" stroke-linecap="round" stroke-linejoin="round"/></g></g></svg>