<svg version="1.1" xmlns="http://www.w3.org/2000/svg" xmlns:xlink="http://www.w3.org/1999/xlink" width="65.2125" height="50.625" viewBox="0,0,65.2125,50.625"><defs><linearGradient x1="217.6875" y1="139.70625" x2="217.6875" y2="188.33125" gradientUnits="userSpaceOnUse" id="color-1"><stop offset="0" stop-color="#ffd49b"/><stop offset="1" stop-color="#e0aa63"/></linearGradient></defs><g transform="translate(-185.08125,-138.70625)"><g data-paper-data="{&quot;isPaintingLayer&quot;:true}" fill-rule="nonzero" stroke-linecap="butt" stroke-linejoin="miter" stroke-miterlimit="10" stroke-dasharray="" stroke-dashoffset="0" style="mix-blend-mode: normal"><path d="M249.29375,188.33125h-63.2125v-48.625h63.2125z" fill="url(#color-1)" stroke="#000000" stroke-width="2"/><g fill="#929292" stroke="none" stroke-width="0"><path d="M201.64856,183.97526h-11.51523v-11.82229h11.51523z"/><path d="M201.64856,169.96507h-11.51523v-11.82229h11.51523z"/><path d="M201.64856,155.76297h-11.51523v-11.82229h11.51523z"/></g><g fill="#929292" stroke="none" stroke-width="0"><path d="M215.83085,183.97526h-11.51521v-11.82229h11.51521z"/><path d="M215.83085,169.96507h-11.51521v-11.82229h11.51521z"/><path d="M215.83085,155.76297h-11.51521v-11.82229h11.51521z"/></g><g fill="#929292" stroke="none" stroke-width="0"><path d="M230.21575,183.97526h-11.51521v-11.82229h11.51521z"/><path d="M230.21575,169.96507h-11.51521v-11.82229h11.51521z"/><path d="M230.21575,155.76297h-11.51521v-11.82229h11.51521z"/></g><path d="M244.80325,183.97526h-11.51521v-11.82229h11.51521z" fill="#929292" stroke="none" stroke-width="0"/><g fill="#5f5f5f" stroke="none" stroke-width="0"><path d="M244.65899,173.10965c0.01636,0 0.02027,9.97122 0,9.97122c-2.40197,0 -4.34915,-2.23213 -4.34915,-4.98561c0,-2.75348 1.94718,-4.98561 4.34915,-4.98561z"/><path d="M236.49107,181.17149c-1.64037,0 -2.97015,-1.32978 -2.97015,-2.97015c0,-1.64037 1.32978,-2.97015 2.97015,-2.97015c1.64037,0 2.97015,1.32978 2.97015,2.97015c0,1.64037 -1.32978,2.97015 -2.97015,2.97015z"/></g><g fill="#5f5f5f" stroke="none" stroke-width="0"><path d="M230.09773,173.10965c0.01636,0 0.02027,9.97122 0,9.97122c-2.40197,0 -4.34915,-2.23213 -4.34915,-4.98561c0,-2.75348 1.94718,-4.98561 4.34915,-4.98561z"/><path d="M221.92981,181.17149c-1.64037,0 -2.97015,-1.32978 -2.97015,-2.97015c0,-1.64037 1.32978,-2.97015 2.97015,-2.97015c1.64037,0 2.97015,1.32978 2.97015,2.97015c0,1.64037 -1.32978,2.97015 -2.97015,2.97015z"/></g><g fill="#5f5f5f" stroke="none" stroke-width="0"><path d="M230.09773,159.07312c0.01636,0 0.02027,9.97122 0,9.97122c-2.40197,0 -4.34915,-2.23213 -4.34915,-4.98561c0,-2.75348 1.94718,-4.98561 4.34915,-4.98561z"/><path d="M221.92981,167.13496c-1.64037,0 -2.97015,-1.32978 -2.97015,-2.97015c0,-1.64037 1.32978,-2.97015 2.97015,-2.97015c1.64037,0 2.97015,1.32978 2.97015,2.97015c0,1.64037 -1.32978,2.97015 -2.97015,2.97015z"/></g><g fill="#5f5f5f" stroke="none" stroke-width="0"><path d="M230.09773,144.9054c0.01636,0 0.02027,9.97122 0,9.97122c-2.40197,0 -4.34915,-2.23213 -4.34915,-4.98561c0,-2.75348 1.94718,-4.98561 4.34915,-4.98561z"/><path d="M221.92981,152.96724c-1.64037,0 -2.97015,-1.32978 -2.97015,-2.97015c0,-1.64037 1.32978,-2.97015 2.97015,-2.97015c1.64037,0 2.97015,1.32978 2.97015,2.97015c0,1.64037 -1.32978,2.97015 -2.97015,2.97015z"/></g><g fill="#5f5f5f" stroke="none" stroke-width="0"><path d="M215.66764,173.10966c0.01636,0 0.02027,9.97122 0,9.97122c-2.40197,0 -4.34915,-2.23213 -4.34915,-4.98561c0,-2.75348 1.94718,-4.98561 4.34915,-4.98561z"/><path d="M207.49972,181.1715c-1.64037,0 -2.97015,-1.32978 -2.97015,-2.97015c0,-1.64037 1.32978,-2.97015 2.97015,-2.97015c1.64037,0 2.97015,1.32978 2.97015,2.97015c0,1.64037 -1.32978,2.97015 -2.97015,2.97015z"/></g><g fill="#5f5f5f" stroke="none" stroke-width="0"><path d="M215.66765,159.07312c0.01636,0 0.02027,9.97122 0,9.97122c-2.40197,0 -4.34915,-2.23213 -4.34915,-4.98561c0,-2.75348 1.94718,-4.98561 4.34915,-4.98561z"/><path d="M207.49973,167.13496c-1.64037,0 -2.97015,-1.32978 -2.97015,-2.97015c0,-1.64037 1.32978,-2.97015 2.97015,-2.97015c1.64037,0 2.97015,1.32978 2.97015,2.97015c0,1.64037 -1.32978,2.97015 -2.97015,2.97015z"/></g><g fill="#5f5f5f" stroke="none" stroke-width="0"><path d="M215.66765,144.90541c0.01636,0 0.02027,9.97122 0,9.97122c-2.40197,0 -4.34915,-2.23213 -4.34915,-4.98561c0,-2.75348 1.94718,-4.98561 4.34915,-4.98561z"/><path d="M207.49973,152.96725c-1.64037,0 -2.97015,-1.32978 -2.97015,-2.97015c0,-1.64037 1.32978,-2.97015 2.97015,-2.97015c1.64037,0 2.97015,1.32978 2.97015,2.97015c0,1.64037 -1.32978,2.97015 -2.97015,2.97015z"/></g><g fill="#5f5f5f" stroke="none" stroke-width="0"><path d="M201.63111,173.10966c0.01636,0 0.02027,9.97122 0,9.97122c-2.40197,0 -4.34915,-2.23213 -4.34915,-4.98561c0,-2.75348 1.94718,-4.98561 4.34915,-4.98561z"/><path d="M193.46319,181.1715c-1.64037,0 -2.97015,-1.32978 -2.97015,-2.97015c0,-1.64037 1.32978,-2.97015 2.97015,-2.97015c1.64037,0 2.97015,1.32978 2.97015,2.97015c0,1.64037 -1.32978,2.97015 -2.97015,2.97015z"/></g><g fill="#5f5f5f" stroke="none" stroke-width="0"><path d="M201.63112,159.07312c0.01636,0 0.02027,9.97122 0,9.97122c-2.40197,0 -4.34915,-2.23213 -4.34915,-4.98561c0,-2.75348 1.94718,-4.98561 4.34915,-4.98561z"/><path d="M193.4632,167.13496c-1.64037,0 -2.97015,-1.32978 -2.97015,-2.97015c0,-1.64037 1.32978,-2.97015 2.97015,-2.97015c1.64037,0 2.97015,1.32978 2.97015,2.97015c0,1.64037 -1.32978,2.97015 -2.97015,2.97015z"/></g><g fill="#5f5f5f" stroke="none" stroke-width="0"><path d="M201.63112,144.90541c0.01636,0 0.02027,9.97122 0,9.97122c-2.40197,0 -4.34915,-2.23213 -4.34915,-4.98561c0,-2.75348 1.94718,-4.98561 4.34915,-4.98561z"/><path d="M193.4632,152.96725c-1.64037,0 -2.97015,-1.32978 -2.97015,-2.97015c0,-1.64037 1.32978,-2.97015 2.97015,-2.97015c1.64037,0 2.97015,1.32978 2.97015,2.97015c0,1.64037 -1.32978,2.97015 -2.97015,2.97015z"/></g></g></g></svg>