<svg version="1.1" xmlns="http://www.w3.org/2000/svg" xmlns:xlink="http://www.w3.org/1999/xlink" width="16.15997" height="25.60921" viewBox="0,0,16.15997,25.60921"><g transform="translate(-237.39409,-136.25038)"><g data-paper-data="{&quot;isPaintingLayer&quot;:true}" fill-rule="nonzero" stroke="none" stroke-width="1" stroke-linecap="butt" stroke-linejoin="miter" stroke-miterlimit="10" stroke-dasharray="" stroke-dashoffset="0" style="mix-blend-mode: normal"><path d="M253.333,146.582c0.297,2.378 0.392,8.476 -0.345,9.887c-0.756,1.444 -0.771,4.134 -3.503,5.022c-2.732,0.888 -7.279,0.303 -9.665,-3.209c-1.127,-1.66 -1.517,-3.245 -1.737,-5.216c-0.16,-1.438 -0.252,-6.243 -0.375,-6.529c0.031,-2.539 0.714,-4.802 2.104,-6.239c0.548,-0.567 3.268,-1.877 5.665,-1.729c3.294,0.204 6.413,2.028 6.413,2.028c0,0 1.032,2.684 1.443,5.985" fill="#be965a"/><path d="M245.984,154.513c1.068,0 2.02,0.042 2.02,0.568c0,0.263 -0.994,0.574 -2.022,0.589c-1.027,0.014 -2.087,-0.268 -2.108,-0.547c0.457,-0.554 1.042,-0.61 2.11,-0.61" fill="#000000"/><path d="M250.682,148.006c0.219,0.707 0.259,1.247 -0.238,1.75c-0.814,-0.4 -0.543,-1.073 -0.559,-1.75z" fill="#000000"/><path d="M241.328,149.879c-0.567,-0.165 -0.567,-0.165 -0.836,-0.765c0.107,-0.176 0.228,-0.379 0.367,-0.609c0.199,0.038 0.363,0.069 0.533,0.102c0.215,0.436 0.255,0.824 -0.064,1.272" fill="#000000"/><path d="M251.89,140.597c0,0 -2.322,3.511 -7.03,4.972c-4.708,1.46 -7.136,2.541 -7.136,2.541c-0.329,-2.541 -1.441,-7.785 3.739,-11.002c0.706,-0.438 3.474,-1.439 6.368,-0.405c2.322,0.829 4.059,3.894 4.059,3.894" fill="#000000"/><path d="M251.89,140.597c-2.107,7.043 -9.743,7.621 -9.743,7.621l2.821,-3.625z" fill="#000000"/><path d="M251.89,140.597c2.075,2.777 1.547,8.058 1.547,8.058l-4.47,-5.751z" fill="#000000"/></g></g></svg>