<svg version="1.1" xmlns="http://www.w3.org/2000/svg" xmlns:xlink="http://www.w3.org/1999/xlink" width="42.91092" height="35" viewBox="0,0,42.91092,35"><g transform="translate(-218.54454,-162.5)"><g data-paper-data="{&quot;isPaintingLayer&quot;:true}" fill-rule="nonzero" stroke-linejoin="miter" stroke-miterlimit="10" stroke-dasharray="" stroke-dashoffset="0" style="mix-blend-mode: normal"><path d="M218.54454,197.5v-35h42.91092v35z" fill="#ffe800" stroke="none" stroke-width="NaN" stroke-linecap="butt"/><path d="M227.35803,176.37262c0,-2.12026 1.5994,-3.2815 2.52185,-4.27078c2.11513,-2.26838 5.25842,-2.40935 10.12012,-2.40935c5.09902,0 8.70285,-0.16098 10.70196,2.47179c0.73822,0.97222 1.94,2.3254 1.94,4.20834c0,0.26759 -0.00831,6.49508 -0.0247,6.75854c-0.4111,6.61079 -5.9029,11.84526 -12.61727,11.84526c-6.73654,0 -12.24243,-5.26909 -12.62118,-11.91079c-0.0138,-0.24197 -0.02079,-6.44759 -0.02079,-6.69301z" fill="#0fdc00" stroke="none" stroke-width="0" stroke-linecap="butt"/><path d="M227.35803,177.66555c0,-6.98196 5.66,-12.64197 12.64197,-12.64197c6.98196,0 12.64197,5.66 12.64197,12.64197c0,6.98196 -5.66,12.64197 -12.64197,12.64197c-6.98196,0 -12.64197,-5.66 -12.64197,-12.64197z" fill="#13ff00" stroke="none" stroke-width="0" stroke-linecap="butt"/><g stroke-width="3.5"><path d="M236.02106,176.16529c0,0 0.7938,-7.17514 2.08732,-7.17514c0.01792,0 3.89958,0.01401 3.92691,0.04945c1.62191,2.10243 1.68274,7.12569 1.68274,7.12569" fill="none" stroke="#0ba200" stroke-linecap="round"/><path d="M234.52081,186.34093v-11.74113h10.95839v11.74113z" fill="#0ba200" stroke="none" stroke-linecap="butt"/></g><text transform="translate(234.28,185.76875) scale(0.5,0.5)" font-size="40" xml:space="preserve" fill="#ffffff" fill-rule="nonzero" stroke="none" stroke-width="1" stroke-linecap="butt" stroke-linejoin="miter" stroke-miterlimit="10" stroke-dasharray="" stroke-dashoffset="0" font-family="Sans Serif" font-weight="normal" text-anchor="start" style="mix-blend-mode: normal"><tspan x="0" dy="0">5</tspan></text><text transform="translate(183.7,135.2) scale(0.5,0.5)" font-size="40" xml:space="preserve" fill="#ffffff" fill-rule="nonzero" stroke="none" stroke-width="1" stroke-linecap="butt" stroke-linejoin="miter" stroke-miterlimit="10" stroke-dasharray="" stroke-dashoffset="0" font-family="Sans Serif" font-weight="normal" text-anchor="start" style="mix-blend-mode: normal"><tspan x="0" dy="0"> </tspan></text></g></g></svg>