<svg version="1.1" xmlns="http://www.w3.org/2000/svg" xmlns:xlink="http://www.w3.org/1999/xlink" width="44" height="46" viewBox="0,0,44,46"><g transform="translate(-218,-164.125)"><g data-paper-data="{&quot;isPaintingLayer&quot;:true}" fill-rule="nonzero" stroke-linejoin="miter" stroke-miterlimit="10" stroke-dasharray="" stroke-dashoffset="0" style="mix-blend-mode: normal"><path d="M240,166.125c8.51428,0 21.98553,22.92797 21.95702,23.38646c-0.7154,11.50434 -10.27244,20.61354 -21.95702,20.61354c-11.72317,0 -21.30471,-9.16946 -21.96382,-20.72759c-0.02316,-0.40619 21.66456,-23.27241 21.96382,-23.27241z" fill="#d80000" stroke="none" stroke-width="0" stroke-linecap="butt"/><path d="M218,186.125c0,-12.15026 9.84974,-22 22,-22c12.15026,0 22,9.84974 22,22c0,12.15026 -9.84974,22 -22,22c-12.15026,0 -22,-9.84974 -22,-22z" fill="#ff0000" stroke="none" stroke-width="0" stroke-linecap="butt"/><g stroke-width="3.5"><path d="M234.83721,184.05737c0,0 -4.19309,-11.84217 -2.16665,-12.82228c0.02808,-0.01358 6.11977,-2.9328 6.18945,-2.898c4.13395,2.06476 8.03541,9.88822 8.03541,9.88822" fill="none" stroke="#9c0000" stroke-linecap="round"/><path d="M230.46491,201.22222v-20.43233h19.07018v20.43233z" fill="#9c0000" stroke="none" stroke-linecap="butt"/></g></g></g></svg>