<svg version="1.1" xmlns="http://www.w3.org/2000/svg" xmlns:xlink="http://www.w3.org/1999/xlink" width="42.91092" height="35" viewBox="0,0,42.91092,35"><g transform="translate(-218.54454,-162.5)"><g data-paper-data="{&quot;isPaintingLayer&quot;:true}" fill-rule="nonzero" stroke-linejoin="miter" stroke-miterlimit="10" stroke-dasharray="" stroke-dashoffset="0" style="mix-blend-mode: normal"><path d="M218.54454,197.5v-35h42.91092v35z" fill="#ffe800" stroke="none" stroke-width="NaN" stroke-linecap="butt"/><path d="M227.10511,188.45197v0v0v0v0v0v0c-0.01434,-0.0249 -0.43319,-0.72445 -0.43319,-0.72475c-1.16175,-1.86491 -1.41924,-6.08269 -1.31826,-7.39906l0.00894,-0.06306c0.33005,-5.5796 2.92484,-8.55764 4.45727,-10.1338c3.47824,-3.57991 8.75044,-3.72553 8.75044,-3.72553l0.18681,3.62188c0,0 -0.01002,-1.04167 2.11099,-2.86275c2.12047,-1.82108 5.25621,-1.55504 5.25621,-1.55504l-1.66397,4.53875c0,0 0.98089,-1.41378 1.78475,-1.93043c1.42518,-0.91444 2.63025,-0.52148 2.63025,-0.52148l-0.33218,2.81511c0,0 2.12101,2.74962 3.74437,5.33334c0.34739,0.55127 0.74998,1.10931 1.00528,1.75124c0.92839,2.33233 1.0624,6.48921 0.02166,8.54819c-0.17976,0.36428 -0.3755,0.718 -0.57857,1.06576c-0.0528,0.08931 -0.10587,0.17808 -0.15975,0.26576c-0.186,0.30581 -0.38012,0.60566 -0.58427,0.89632c-0.0276,0.0387 -0.0528,0.07983 -0.0804,0.11856c-0.2315,0.32339 -0.4757,0.63488 -0.72967,0.93772c-0.06063,0.07308 -0.12453,0.1437 -0.18654,0.21624c-0.21768,0.25007 -0.44321,0.4931 -0.67468,0.72691c-0.05334,0.05469 -0.10533,0.11016 -0.15921,0.16293c-0.2786,0.27227 -0.56882,0.5318 -0.86773,0.77968c-0.0666,0.05442 -0.13482,0.10638 -0.20199,0.15969c-0.25097,0.20028 -0.51035,0.39161 -0.77566,0.57401c-0.07662,0.05196 -0.15135,0.10662 -0.2285,0.1575c-0.32408,0.213 -0.65603,0.413 -0.9988,0.59783c-0.06117,0.0333 -0.12615,0.06252 -0.18816,0.09474c-0.29294,0.15237 -0.59267,0.29255 -0.89887,0.42245c-1.29525,0.54911 -2.70174,0.90661 -4.21196,1.01542c-1.72598,0.12423 -3.28847,0.07197 -4.69984,-0.11205c-0.34898,-0.04548 -0.68848,-0.09987 -1.01908,-0.16077c-0.06282,-0.01272 -0.12537,-0.0249 -0.18762,-0.03708c-0.33518,-0.06603 -0.66415,-0.13692 -0.97984,-0.21786c-0.00189,-0.00054 -0.00432,-0.00108 -0.00648,-0.00162c-0.31625,-0.0801 -0.6203,-0.16995 -0.91729,-0.26522c-0.05199,-0.0165 -0.10533,-0.033 -0.15705,-0.0498c-0.28535,-0.09336 -0.56342,-0.19323 -0.83143,-0.29903c-0.04713,-0.01785 -0.09261,-0.03816 -0.13944,-0.05655c-0.26453,-0.10665 -0.52253,-0.21762 -0.76999,-0.33506c-0.00948,-0.0054 -0.02004,-0.00894 -0.02925,-0.0138c-0.2534,-0.12123 -0.49547,-0.24788 -0.73072,-0.37754c-0.04389,-0.02433 -0.08748,-0.04815 -0.13023,-0.07251c-0.22634,-0.12855 -0.44567,-0.25982 -0.65468,-0.39512c-0.03195,-0.02031 -0.06228,-0.04143 -0.09396,-0.06198c-0.19845,-0.13098 -0.39041,-0.26468 -0.57398,-0.40109c-0.01893,-0.01299 -0.03978,-0.02679 -0.05793,-0.04113c-0.19143,-0.1437 -0.37226,-0.29066 -0.54662,-0.43868c-0.03387,-0.02844 -0.06717,-0.05712 -0.09966,-0.08553c-0.17001,-0.14805 -0.33353,-0.29633 -0.48734,-0.44816c-0.01758,-0.01653 -0.03357,-0.03411 -0.05088,-0.05088c-0.14487,-0.14427 -0.28238,-0.28958 -0.41234,-0.43493c-0.01815,-0.02109 -0.03873,-0.04167 -0.05715,-0.06222c-0.1332,-0.15291 -0.42101,-0.51557 -0.44321,-0.54452c-0.11586,-0.15318 -0.22634,-0.30608 -0.32624,-0.45818c-0.00621,-0.00948 -0.01218,-0.01896 -0.01785,-0.02841c-0.09585,-0.14643 -0.18303,-0.29066 -0.26453,-0.43439z" fill="#9a8479" stroke="#000000" stroke-width="0.5" stroke-linecap="butt"/><path d="M247.58066,180.31193v0v0v0v0v0v0c0,0 3.15416,3.56584 2.17948,7.26485c-0.97414,3.6979 -6.79566,5.26458 -11.26861,4.9834c-5.91305,-0.37211 -8.65435,-3.89358 -7.6813,-7.25429c0.97441,-3.3607 8.8027,-4.93171 8.8027,-4.93171l-1.2855,2.41456c0,0 1.0126,-0.15642 1.8305,-0.62408c0.81766,-0.46682 1.71437,-1.08955 1.71437,-1.08955l-1.87301,2.65353c0,0 2.47377,-0.02652 4.61591,-0.88387c2.14213,-0.85627 2.96546,-2.53284 2.96546,-2.53284z" fill="#e6e7e8" stroke="#000000" stroke-width="0.5" stroke-linecap="butt"/><g stroke="#000000" stroke-width="0.5"><path d="M251.61665,178.38393c0,0 5.07697,-2.85165 6.23737,-0.42677c1.16043,2.42485 -0.91537,5.2665 -5.24727,7.8375c0,0 0.09558,-4.22159 -0.9901,-7.41073v0v0v0v0zM251.61665,178.38393c-0.09072,-0.37319 -0.39044,-1.08685 -0.39044,-1.08685M252.49413,186.45201l0.05442,-0.68278" fill="#9a8479" stroke-linecap="round"/><path d="M252.54855,185.76895c0.02814,-0.78187 0.02706,-2.06926 -0.14919,-3.67681c-0.10155,-0.93559 -0.29783,-1.90067 -0.49925,-2.7342l0.00054,0.00108c2.97383,-0.75697 5.62064,1.99156 5.62064,1.99156h0.00108c-1.48638,2.46735 -4.95001,4.35014 -4.95001,4.35014l-0.02382,0.06822v0v0v0v0v0z" fill="#ee4036" stroke-linecap="butt"/></g><g stroke="#000000" stroke-width="0.5"><path d="M227.78873,187.65444c-4.21682,-1.67792 -6.49215,-3.94689 -5.85482,-6.33037c0.63761,-2.38372 5.55431,-0.56399 5.55431,-0.56399c-0.4508,3.06734 0.3005,6.89435 0.3005,6.89435v0v0v0v0v0zM227.66012,179.71167c0,0 -0.15108,0.69469 -0.17163,1.04842M227.83586,187.62195l0.15594,0.61325" fill="#9a8479" stroke-linecap="round"/><path d="M227.80418,187.56378c0,0 -3.3445,-1.18455 -5.04208,-3.2024l0.00081,-0.00027c0,0 1.89386,-2.90495 4.62947,-2.67033l0.00027,-0.00081c-0.04548,0.78889 -0.06552,1.69712 -0.00678,2.56371c0.09909,1.48983 0.30161,2.66139 0.44999,3.36826l-0.03168,-0.05817v0v0v0v0v0z" fill="#ee4036" stroke-linecap="butt"/></g><path d="M244.13545,186.13104c-0.19629,0 -0.36794,-0.14208 -0.40043,-0.34208c-0.03549,-0.22136 0.11532,-0.42977 0.3368,-0.4652c0.20142,-0.03168 1.98671,-0.31016 2.64462,-0.22841c0.22256,0.02814 0.38066,0.23111 0.35387,0.45248c-0.02817,0.22301 -0.2342,0.37781 -0.45323,0.35372c-0.41396,-0.05034 -1.70054,0.10989 -2.4172,0.22355c-0.02166,0.00432 -0.04332,0.00594 -0.06444,0.00594v0v0v0v0v0v0z" fill="#231f20" stroke="none" stroke-width="0.5" stroke-linecap="butt"/><path d="M237.55447,186.21765c-0.02544,0 -0.05118,-0.0027 -0.0777,-0.00732c-0.9376,-0.18132 -2.58642,0.00327 -2.60265,0.00489c-0.21906,0.02436 -0.42347,-0.13371 -0.44945,-0.35669c-0.02544,-0.22247 0.13428,-0.42383 0.35738,-0.44927c0.07311,-0.00729 1.78826,-0.19971 2.84904,0.00489c0.21984,0.04221 0.36443,0.2552 0.32165,0.4763c-0.03765,0.19242 -0.20793,0.3272 -0.39827,0.3272v0v0v0v0v0z" fill="#231f20" stroke="none" stroke-width="0.5" stroke-linecap="butt"/><path d="M244.40808,188.02979c0,0 -1.0957,1.47738 -3.54919,1.47738c-2.45292,0 -3.10976,-0.97102 -3.10976,-0.97102" fill="none" stroke="#231f20" stroke-width="0.5" stroke-linecap="round"/><path d="M221.5,193.8l37.4,-28.2" fill="none" stroke="#ff0000" stroke-width="1" stroke-linecap="round"/><path d="M258.9,193.8l-37.4,-28.2" data-paper-data="{&quot;index&quot;:null}" fill="none" stroke="#ff0000" stroke-width="1" stroke-linecap="round"/></g></g></svg>