<svg version="1.1" xmlns="http://www.w3.org/2000/svg" xmlns:xlink="http://www.w3.org/1999/xlink" width="32" height="41" viewBox="0,0,32,41"><defs><linearGradient x1="202.25" y1="149.5" x2="202.25" y2="188.5" gradientUnits="userSpaceOnUse" id="color-1"><stop offset="0" stop-color="#ffd49b"/><stop offset="1" stop-color="#e0aa63"/></linearGradient></defs><g transform="translate(-186.25,-148.5)"><g data-paper-data="{&quot;isPaintingLayer&quot;:true}" fill-rule="nonzero" stroke-linejoin="miter" stroke-miterlimit="10" stroke-dasharray="" stroke-dashoffset="0" style="mix-blend-mode: normal"><path d="M187.25,188.5v-39h30v39z" fill="url(#color-1)" stroke="#000000" stroke-width="2" stroke-linecap="butt"/><path d="M190.4375,161.375v-9.375h9.625v9.375z" fill="#929292" stroke="none" stroke-width="0" stroke-linecap="butt"/><path d="M190.9375,163.625h16.375" fill="none" stroke="#000000" stroke-width="1" stroke-linecap="round"/><path d="M190.9375,167h12" fill="none" stroke="#000000" stroke-width="1" stroke-linecap="round"/><path d="M190.9375,171h17.75" fill="none" stroke="#000000" stroke-width="1" stroke-linecap="round"/><path d="M190.8125,174.375h7.25" fill="none" stroke="#000000" stroke-width="1" stroke-linecap="round"/><path d="M190.8125,178.875h15.625" fill="none" stroke="#000000" stroke-width="1" stroke-linecap="round"/><path d="M208.75391,169.08125v-3.5h5.30469v3.5z" fill="#929292" stroke="none" stroke-width="0" stroke-linecap="butt"/><g fill="#5f5f5f" stroke="none" stroke-width="0" stroke-linecap="butt"><path d="M199.1924,161.28996c0,0.01288 -7.84623,0.01595 -7.84623,0c0,-1.89008 1.75644,-3.42229 3.92311,-3.42229c2.16667,0 3.92311,1.53221 3.92311,3.42229z"/><path d="M192.84864,154.86273c0,-1.29078 1.04639,-2.33718 2.33717,-2.33718c1.29078,0 2.33718,1.04639 2.33718,2.33718c0,1.29078 -1.04639,2.33718 -2.33718,2.33718c-1.29078,0 -2.33717,-1.04639 -2.33717,-2.33718z"/></g></g></g></svg>