<svg version="1.1" xmlns="http://www.w3.org/2000/svg" xmlns:xlink="http://www.w3.org/1999/xlink" width="60.88674" height="103.61619" viewBox="0,0,60.88674,103.61619"><g transform="translate(-243.54812,-111.77954)"><g data-paper-data="{&quot;isPaintingLayer&quot;:true}" fill-rule="nonzero" stroke="none" stroke-width="1" stroke-linecap="butt" stroke-linejoin="miter" stroke-miterlimit="10" stroke-dasharray="" stroke-dashoffset="0" style="mix-blend-mode: normal"><g><g><path d="M299.007,197.85872c0,0 2.43441,0.98898 3.65161,4.71667c0.83683,2.51048 2.28226,4.26022 1.59758,4.56452c-1.36935,0.68468 -2.58656,-3.27124 -2.58656,-3.27124c0,0 0.22823,3.65161 0.15215,4.86882c0,1.14113 -0.3043,3.49946 -0.83683,3.72769c-0.83683,0.38038 -0.76075,-0.98898 -0.76075,-3.49946c0,0 -0.22823,2.05403 -0.76075,3.11909c-0.45645,0.9129 -1.36935,1.29328 -1.52151,0c0,0 -0.76075,1.90188 -1.59758,-0.3043c0,0 -1.44543,1.06505 -0.9129,-4.10806c0.3043,-2.20618 -3.27124,-10.80269 3.57554,-9.81371z" fill="#ffd0ae"/><path d="M296.42044,211.78049c0,0 0.07608,-0.38038 0.15215,-0.9129c0.07608,-0.53253 0.15215,-1.29328 0.22823,-2.05403c0.07608,-0.76075 0.15215,-1.44543 0.15215,-2.05403c0.07608,-0.53253 0.15215,-0.9129 0.15215,-0.9129c0,0 0.07608,0.38038 0.15215,0.9129c0.07608,0.53253 0.07608,1.29328 0,2.05403c-0.07608,0.76075 -0.22823,1.52151 -0.38038,2.05403c-0.22823,0.53253 -0.45645,0.9129 -0.45645,0.9129z" fill="#bf8865"/><path d="M298.17017,212.3891c0,0 0.07608,-0.38038 0.15215,-0.98898c0.07608,-0.6086 0.15215,-1.36935 0.22823,-2.20618c0.07608,-0.76075 0.07608,-1.59758 0.15215,-2.20618c0,-0.3043 0,-0.53253 0.07608,-0.76075c0,-0.15215 0,-0.3043 0,-0.3043c0,0 0.15215,0.38038 0.22823,0.98898c0.07608,0.6086 0.15215,1.44543 0.07608,2.20618c-0.07608,0.83683 -0.22823,1.59758 -0.45645,2.20618c-0.3043,0.68468 -0.45645,1.06505 -0.45645,1.06505z" fill="#bf8865"/><path d="M300.14812,210.48721c0,0 0,-0.3043 0,-0.76075c0,-0.45645 0,-1.06505 0.07608,-1.67366c0.07608,-0.6086 0.07608,-1.2172 0.15215,-1.67366c0,-0.22823 0.07608,-0.45645 0.07608,-0.53253c0,-0.15215 0,-0.22823 0,-0.22823c0,0 0.15215,0.3043 0.22823,0.76075c0.07608,0.45645 0.07608,1.06505 0.07608,1.67366c-0.07608,0.6086 -0.15215,1.2172 -0.3043,1.67366c-0.15215,0.45645 -0.3043,0.76075 -0.3043,0.76075z" fill="#bf8865"/><path d="M299.76775,198.39125c0,0 0.07608,0 0.22823,0c0.15215,0.07608 0.38038,0.15215 0.53253,0.3043c0.38038,0.3043 0.83683,0.83683 1.14113,1.36935c0.3043,0.53253 0.6086,1.14113 0.76075,1.67366c0.15215,0.45645 0.22823,0.76075 0.22823,0.76075c0,0 -0.22823,-0.22823 -0.45645,-0.68468c-0.3043,-0.38038 -0.6086,-0.98898 -0.9129,-1.52151c-0.3043,-0.53253 -0.68468,-1.06505 -0.98898,-1.44543c-0.15215,-0.15215 -0.3043,-0.3043 -0.38038,-0.38038c-0.07608,-0.07608 -0.15215,-0.07608 -0.15215,-0.07608z" fill="#bf8865"/><path d="M301.74571,203.86866c0,0 -0.3043,0.07608 -0.68468,0c-0.45645,0 -0.98898,-0.22823 -1.44543,-0.6086c-0.22823,-0.15215 -0.45645,-0.38038 -0.6086,-0.6086c-0.15215,-0.22823 -0.3043,-0.45645 -0.38038,-0.6086c-0.07608,-0.15215 -0.15215,-0.38038 -0.15215,-0.45645c0,-0.15215 -0.07608,-0.15215 -0.07608,-0.15215c0,0 0.07608,0.07608 0.15215,0.15215c0.07608,0.07608 0.15215,0.22823 0.3043,0.38038c0.15215,0.15215 0.3043,0.3043 0.45645,0.53253c0.15215,0.15215 0.38038,0.38038 0.53253,0.45645c0.22823,0.15215 0.38038,0.3043 0.6086,0.38038c0.22823,0.15215 0.38038,0.22823 0.6086,0.3043c0.38038,0.15215 0.68468,0.22823 0.68468,0.22823z" fill="#bf8865"/></g><g><path d="M301.74571,198.69555c0,0 -3.11909,4.33629 -8.36828,1.59758l-0.53253,-2.20618c0,0 -2.13011,-0.53253 -2.73871,-2.66263c-0.6086,-2.13011 0.07608,-3.87984 -0.6086,-5.09704c-0.6086,-1.2172 -1.90188,-8.90081 -2.35833,-11.33522c-1.36935,-7.30323 8.44436,-6.61855 10.42231,-4.33629c1.97796,2.28226 1.74973,6.00995 2.43441,7.75968c0.68468,1.74973 1.2172,4.64059 1.2172,6.00995c0,1.44543 1.14113,4.10806 0.9129,5.5535c-0.3043,1.44543 -0.83683,2.51048 -0.83683,2.51048z" fill="#ccad87"/><path d="M297.33334,197.63049c0,0 -0.3043,0.15215 -0.9129,0.3043c-0.6086,0.15215 -1.52151,0.38038 -2.58656,0.38038c-0.53253,0 -1.14113,-0.07608 -1.74973,-0.22823c-0.6086,-0.22823 -1.2172,-0.53253 -1.67366,-1.14113c-0.22823,-0.3043 -0.38038,-0.6086 -0.45645,-0.98898c-0.07608,-0.38038 -0.15215,-0.68468 -0.22823,-1.06505c-0.15215,-0.68468 -0.22823,-1.44543 -0.3043,-2.13011c-0.07608,-0.76075 -0.07608,-1.44543 -0.22823,-2.13011c-0.15215,-0.68468 -0.3043,-1.36935 -0.53253,-1.97796c-0.38038,-1.29328 -0.6086,-2.51048 -0.76075,-3.57554c-0.15215,-1.06505 -0.22823,-1.97796 -0.3043,-2.58656c-0.07608,-0.6086 -0.07608,-0.98898 -0.07608,-0.98898c0,0 0.07608,0.38038 0.15215,0.98898c0.07608,0.6086 0.22823,1.52151 0.45645,2.51048c0.22823,1.06505 0.53253,2.28226 0.9129,3.49946c0.15215,0.6086 0.38038,1.29328 0.53253,2.05403c0.15215,0.68468 0.15215,1.44543 0.22823,2.13011c0.07608,0.68468 0.15215,1.36935 0.3043,2.13011c0.07608,0.38038 0.15215,0.68468 0.22823,0.98898c0.07608,0.3043 0.22823,0.6086 0.38038,0.83683c0.38038,0.53253 0.83683,0.83683 1.44543,1.06505c0.53253,0.22823 1.14113,0.3043 1.67366,0.3043c1.06505,0.07608 1.97796,-0.07608 2.58656,-0.22823c0.6086,-0.07608 0.9129,-0.15215 0.9129,-0.15215z" fill="#8c6c54"/><path d="M299.6156,197.17404c0,0 0.3043,0 0.83683,-0.22823c0.22823,-0.15215 0.53253,-0.3043 0.76075,-0.6086c0.22823,-0.3043 0.45645,-0.68468 0.53253,-1.14113c0.07608,-0.45645 0.07608,-0.98898 0.07608,-1.52151c-0.07608,-0.53253 -0.07608,-1.14113 -0.22823,-1.74973c-0.07608,-0.6086 -0.3043,-1.2172 -0.45645,-1.82581c-0.15215,-0.6086 -0.3043,-1.29328 -0.3043,-1.97796c-0.15215,-1.29328 -0.3043,-2.58656 -0.6086,-3.72769c-0.15215,-0.6086 -0.3043,-1.14113 -0.45645,-1.67366c-0.15215,-0.53253 -0.3043,-1.06505 -0.38038,-1.52151c-0.22823,-0.98898 -0.22823,-1.82581 -0.3043,-2.35833c-0.07608,-0.6086 -0.07608,-0.9129 -0.07608,-0.9129c0,0 0.07608,0.3043 0.15215,0.9129c0.07608,0.53253 0.22823,1.36935 0.45645,2.28226c0.15215,0.45645 0.3043,0.98898 0.45645,1.52151c0.22823,0.53253 0.38038,1.14113 0.53253,1.67366c0.3043,1.2172 0.53253,2.51048 0.68468,3.80376c0.07608,0.68468 0.15215,1.29328 0.3043,1.90188c0.15215,0.6086 0.3043,1.2172 0.45645,1.82581c0.07608,0.6086 0.15215,1.2172 0.15215,1.74973c0,0.53253 0,1.14113 -0.15215,1.59758c-0.15215,0.53253 -0.38038,0.9129 -0.68468,1.2172c-0.3043,0.3043 -0.6086,0.45645 -0.9129,0.53253c-0.3043,0.07608 -0.53253,0.15215 -0.68468,0.15215c-0.07608,0.07608 -0.15215,0.07608 -0.15215,0.07608z" fill="#8c6c54"/><path d="M301.82178,198.61947c0,0 -0.07608,0.15215 -0.22823,0.38038c-0.15215,0.22823 -0.38038,0.53253 -0.76075,0.83683c-0.15215,0.15215 -0.38038,0.3043 -0.6086,0.45645c-0.22823,0.15215 -0.45645,0.3043 -0.68468,0.45645c-0.22823,0.15215 -0.53253,0.22823 -0.83683,0.38038c-0.3043,0.07608 -0.6086,0.15215 -0.9129,0.22823c-0.3043,0.07608 -0.6086,0.07608 -0.9129,0.07608c-0.3043,0 -0.6086,-0.07608 -0.9129,-0.07608c-0.3043,-0.07608 -0.53253,-0.15215 -0.83683,-0.15215c-0.22823,-0.07608 -0.45645,-0.15215 -0.68468,-0.22823c-0.45645,-0.15215 -0.76075,-0.38038 -0.98898,-0.45645c-0.22823,-0.15215 -0.38038,-0.22823 -0.38038,-0.22823c0,0 0.15215,0.07608 0.38038,0.15215c0.22823,0.07608 0.6086,0.22823 1.06505,0.3043c0.22823,0.07608 0.45645,0.15215 0.68468,0.15215c0.22823,0 0.53253,0.07608 0.76075,0.07608c0.3043,0 0.53253,0 0.83683,0c0.3043,0 0.6086,0 0.83683,-0.07608c0.3043,-0.07608 0.53253,-0.07608 0.83683,-0.15215c0.3043,-0.07608 0.53253,-0.15215 0.76075,-0.3043c0.53253,-0.22823 0.9129,-0.45645 1.29328,-0.76075c0.38038,-0.22823 0.68468,-0.45645 0.83683,-0.68468c0.3043,-0.22823 0.45645,-0.38038 0.45645,-0.38038z" fill="#8c6c54"/></g><g><path d="M288.88898,180.28533c0,0 0.22823,0.07608 0.53253,0.15215c0.15215,0.07608 0.3043,0.07608 0.53253,0.15215c0.15215,0.07608 0.38038,0.15215 0.6086,0.15215c0.38038,0.15215 0.83683,0.22823 1.14113,0.3043c0.15215,0 0.3043,0.07608 0.38038,0.07608c0.07608,0 0.15215,0 0.15215,0c0,0 -0.22823,0.07608 -0.53253,0.07608c-0.15215,0 -0.38038,0 -0.53253,-0.07608c-0.22823,0 -0.45645,-0.07608 -0.6086,-0.15215c-0.45645,-0.15215 -0.83683,-0.3043 -1.14113,-0.53253c-0.3043,0 -0.53253,-0.15215 -0.53253,-0.15215z" fill="#8c6c54"/><path d="M287.21533,178.68775c-1.2172,-1.14113 -1.59758,-3.19516 -3.87984,-8.29221c-2.28226,-5.09704 -4.10806,-22.74651 4.10806,-22.97473c7.22715,-0.22823 9.28118,6.99893 9.96586,9.96586c0.68468,2.96694 0.68468,11.86774 1.44543,13.92178c0.83683,2.05403 0.38038,6.4664 -1.82581,7.53145c-2.89086,1.36935 -8.59651,0.98898 -9.81371,-0.15215z" fill="#ccad87"/><path d="M289.80189,179.7528c0,0 -0.07608,0 -0.3043,-0.07608c-0.15215,-0.07608 -0.45645,-0.07608 -0.76075,-0.15215c-0.3043,-0.07608 -0.76075,-0.22823 -1.14113,-0.53253c-0.38038,-0.3043 -0.83683,-0.68468 -1.14113,-1.2172c-0.68468,-0.98898 -1.2172,-2.35833 -1.74973,-3.72769c-0.53253,-1.36935 -1.2172,-2.81479 -1.74973,-4.33629c-0.22823,-0.76075 -0.53253,-1.52151 -0.68468,-2.28226c-0.22823,-0.76075 -0.38038,-1.52151 -0.53253,-2.28226c-0.15215,-0.76075 -0.22823,-1.44543 -0.3043,-2.13011c-0.07608,-0.68468 -0.07608,-1.36935 -0.07608,-1.90188c0,-0.6086 0,-1.14113 0,-1.67366c0,-0.45645 0,-0.9129 0.07608,-1.29328c0.07608,-0.68468 0.07608,-1.06505 0.07608,-1.06505c0,0 0,0.38038 0.07608,1.06505c0,0.38038 0,0.76075 0.07608,1.29328c0,0.45645 0.07608,1.06505 0.07608,1.59758c0.07608,0.6086 0.07608,1.2172 0.22823,1.90188c0.07608,0.68468 0.22823,1.36935 0.38038,2.13011c0.15215,0.76075 0.3043,1.44543 0.53253,2.20618c0.22823,0.76075 0.45645,1.52151 0.76075,2.20618c0.53253,1.52151 1.14113,2.96694 1.67366,4.41237c0.22823,0.68468 0.45645,1.36935 0.68468,2.05403c0.22823,0.6086 0.53253,1.2172 0.83683,1.67366c0.3043,0.53253 0.68468,0.9129 0.98898,1.2172c0.38038,0.3043 0.76075,0.45645 1.06505,0.6086c0.53253,0.15215 0.9129,0.3043 0.9129,0.3043z" fill="#8c6c54"/><path d="M297.33334,178.61167c0,0 0.15215,-0.3043 0.45645,-0.83683c0.3043,-0.53253 0.83683,-1.2172 1.2172,-2.13011c0.22823,-0.45645 0.3043,-0.98898 0.3043,-1.52151c0,-0.53253 -0.15215,-1.14113 -0.3043,-1.74973c-0.3043,-1.29328 -0.53253,-2.66263 -0.68468,-3.95591c-0.15215,-1.36935 -0.3043,-2.73871 -0.3043,-4.03199c0,-0.68468 0,-1.29328 0,-1.82581c0,-0.6086 -0.07608,-1.14113 -0.15215,-1.67366c-0.22823,-2.05403 -0.3043,-3.42339 -0.3043,-3.42339c0,0 0.07608,0.3043 0.22823,0.9129c0.07608,0.6086 0.3043,1.44543 0.45645,2.43441c0.07608,0.53253 0.15215,1.06505 0.22823,1.67366c0.07608,0.6086 0.07608,1.2172 0.15215,1.82581c0.07608,1.29328 0.22823,2.66263 0.38038,3.95591c0.15215,1.36935 0.38038,2.73871 0.6086,3.95591c0.15215,0.6086 0.3043,1.29328 0.22823,1.90188c0,0.6086 -0.22823,1.2172 -0.45645,1.67366c-0.22823,0.45645 -0.53253,0.83683 -0.76075,1.2172c-0.22823,0.3043 -0.45645,0.6086 -0.6086,0.83683c-0.53253,0.45645 -0.68468,0.76075 -0.68468,0.76075z" fill="#8c6c54"/></g></g><g><g><path d="M287.2914,189.79474c0,0 4.56452,4.64059 5.02097,6.1621c0,0 -7.3793,6.54247 -16.58441,5.32527c-9.20511,-1.2172 -22.36613,-6.92285 -26.32205,-15.97581l5.47742,-0.9129c-0.07608,0 25.02877,9.88979 32.40807,5.40134z" fill="#ccad87"/><path d="M292.31237,195.95684c0,0 -0.15215,-0.15215 -0.38038,-0.38038c-0.22823,-0.22823 -0.53253,-0.6086 -0.76075,-0.98898c-0.22823,-0.38038 -0.45645,-0.76075 -0.68468,-1.06505c-0.15215,-0.3043 -0.3043,-0.53253 -0.3043,-0.53253c0,0 0.22823,0.07608 0.53253,0.3043c0.3043,0.22823 0.6086,0.53253 0.83683,0.9129c0.22823,0.38038 0.45645,0.76075 0.6086,1.06505c0.07608,0.45645 0.15215,0.68468 0.15215,0.68468z" fill="#8c6c54"/></g><g><path d="M254.19866,184.39339c0,0 6.99893,6.99893 13.8457,7.9879c17.49731,2.43441 21.225,-1.2172 21.225,-1.2172l0.9129,1.90188c-2.89086,3.11909 -8.97688,3.95591 -20.38817,3.11909c-14.68253,-1.06505 -17.64946,-11.56344 -17.64946,-11.56344z" fill="#633c22"/><g><path d="M265.00135,193.2942c1.44543,1.59758 1.2172,8.97688 -2.35833,11.03092c-3.57554,2.05403 -10.11801,-1.52151 -10.42231,-4.41237c-0.3043,-2.89086 1.74973,-9.50941 3.95591,-10.57446c1.14113,-0.53253 7.3793,2.35833 8.82473,3.95591z" fill="#633c22"/><path d="M255.64409,190.17512c0,0 0.07608,0.22823 0.15215,0.53253c0.07608,0.3043 0.22823,0.83683 0.38038,1.36935c0.15215,0.53253 0.38038,1.2172 0.76075,1.82581c0.15215,0.3043 0.38038,0.6086 0.6086,0.83683c0.3043,0.22823 0.53253,0.38038 0.9129,0.3043c0.38038,0 0.76075,-0.07608 1.14113,-0.07608c0.38038,-0.07608 0.76075,-0.07608 1.14113,-0.15215c0.76075,-0.07608 1.44543,-0.15215 2.05403,-0.22823c1.2172,-0.15215 1.97796,-0.22823 1.97796,-0.22823c0,0 -0.76075,0.22823 -1.90188,0.53253c-0.6086,0.15215 -1.29328,0.3043 -1.97796,0.38038c-0.38038,0.07608 -0.76075,0.07608 -1.14113,0.15215c-0.38038,0.07608 -0.83683,0.07608 -1.2172,0.15215h-0.15215c-0.07608,0 -0.15215,0 -0.15215,0c-0.15215,0 -0.22823,-0.07608 -0.38038,-0.07608c-0.07608,-0.07608 -0.22823,-0.07608 -0.3043,-0.15215c-0.07608,-0.07608 -0.15215,-0.15215 -0.22823,-0.22823c-0.3043,-0.3043 -0.53253,-0.68468 -0.68468,-0.98898c-0.3043,-0.68468 -0.53253,-1.36935 -0.6086,-1.97796c-0.38038,-1.14113 -0.38038,-1.97796 -0.38038,-1.97796z" fill="#45281c"/><path d="M257.69812,194.13103c0,-0.42015 0.3406,-0.76075 0.76075,-0.76075c0.42015,0 0.76075,0.3406 0.76075,0.76075c0,0.42015 -0.3406,0.76075 -0.76075,0.76075c-0.42015,0 -0.76075,-0.3406 -0.76075,-0.76075z" fill="#8c7539"/><path d="M255.56801,203.64044c0,0 0.3043,0.15215 0.76075,0.38038c0.45645,0.22823 1.2172,0.45645 2.05403,0.68468c0.83683,0.22823 1.97796,0.3043 2.96694,0c0.53253,-0.15215 0.98898,-0.45645 1.44543,-0.83683c0.45645,-0.38038 0.76075,-0.83683 1.06505,-1.36935c0.6086,-0.98898 1.14113,-2.13011 1.36935,-3.19516c0.15215,-0.53253 0.22823,-1.06505 0.3043,-1.59758c0.07608,-0.53253 0.07608,-0.98898 0.07608,-1.44543c0,-0.22823 0,-0.45645 -0.07608,-0.68468c0,-0.22823 -0.07608,-0.38038 -0.07608,-0.6086c-0.07608,-0.38038 -0.15215,-0.68468 -0.22823,-0.9129c-0.15215,-0.53253 -0.22823,-0.83683 -0.22823,-0.83683c0,0 0,0.07608 0.07608,0.22823c0.07608,0.15215 0.15215,0.3043 0.22823,0.6086c0.07608,0.22823 0.22823,0.53253 0.3043,0.9129c0.07608,0.38038 0.15215,0.76075 0.22823,1.2172c0.07608,0.45645 0.07608,0.98898 0,1.52151c0,0.53253 -0.07608,1.06505 -0.22823,1.67366c-0.3043,1.14113 -0.76075,2.28226 -1.36935,3.34731c-0.3043,0.53253 -0.68468,1.06505 -1.2172,1.44543c-0.45645,0.38038 -1.06505,0.76075 -1.59758,0.9129c-0.6086,0.15215 -1.14113,0.15215 -1.67366,0.15215c-0.53253,-0.07608 -1.06505,-0.15215 -1.44543,-0.3043c-0.9129,-0.22823 -1.59758,-0.6086 -2.05403,-0.9129c-0.22823,-0.15215 -0.38038,-0.22823 -0.53253,-0.3043c-0.07608,-0.07608 -0.15215,-0.07608 -0.15215,-0.07608z" fill="#45281c"/></g></g><g><g><g><path d="M279.9121,139.50898c0,0 1.14113,6.23817 2.43441,7.91183c1.29328,1.67366 3.65161,3.49946 3.65161,3.49946c0,0 -0.9129,5.8578 -7.53145,8.21613c-9.66156,3.49946 -18.41022,-9.58548 -18.41022,-9.58548c0,0 -0.76075,-0.98898 3.19516,-2.35833c3.87984,-1.36935 4.10806,-7.75968 4.10806,-7.75968c7.60753,-8.82473 12.55242,0.07608 12.55242,0.07608z" fill="#ffd0ae"/><path d="M266.52285,143.84527c1.52151,1.82581 10.87876,15.51936 10.87876,15.51936c0,0 3.87984,-12.78065 4.41237,-13.31317c0,0 2.13011,-0.76075 6.54247,0.83683c2.96694,1.06505 3.87984,4.03199 3.87984,4.03199c0,0 -0.98898,12.9328 -0.83683,15.74758c0.15215,2.81479 -0.83683,16.20403 -0.83683,19.17097c0,1.14113 0.3043,3.57554 -1.74973,6.4664c-2.05403,2.89086 -7.22715,1.82581 -13.92178,1.82581c-6.69462,0 -19.32312,-4.41237 -20.99678,-7.9879c-1.52151,-3.34731 1.44543,-5.02097 2.20618,-9.96586c0.76075,-4.94489 -4.03199,-26.62635 -4.03199,-26.62635c0,0 0.45645,-1.67366 8.44436,-3.87984c4.26022,-1.06505 6.00995,-1.82581 6.00995,-1.82581z" fill="#ccad87"/></g><path d="M275.65189,159.06033c0,0 0.22823,-0.22823 0.53253,-0.53253c0.3043,-0.3043 0.76075,-0.68468 1.29328,-1.06505c0.45645,-0.38038 0.98898,-0.68468 1.36935,-0.83683c0.38038,-0.22823 0.68468,-0.3043 0.68468,-0.3043c0,0 -0.22823,0.22823 -0.53253,0.53253c-0.3043,0.3043 -0.83683,0.68468 -1.29328,1.06505c-0.45645,0.38038 -0.98898,0.68468 -1.44543,0.83683c-0.3043,0.22823 -0.6086,0.3043 -0.6086,0.3043z" fill="#8c5634"/><path d="M274.89113,157.00629c0,0 0.3043,0.07608 0.83683,0.15215c0.45645,0.07608 1.14113,0.3043 1.74973,0.53253c0.6086,0.22823 1.2172,0.45645 1.67366,0.68468c0.45645,0.22823 0.76075,0.38038 0.76075,0.38038c0,0 -0.3043,0 -0.83683,-0.15215c-0.45645,-0.07608 -1.14113,-0.3043 -1.74973,-0.53253c-0.6086,-0.22823 -1.2172,-0.45645 -1.67366,-0.68468c-0.45645,-0.15215 -0.76075,-0.38038 -0.76075,-0.38038z" fill="#8c5634"/><path d="M272.91318,155.86517c0,0 0.45645,-0.3043 1.2172,-0.76075c0.76075,-0.45645 1.82581,-0.98898 2.81479,-1.52151c1.06505,-0.53253 2.13011,-0.98898 2.96694,-1.36935c0.83683,-0.3043 1.36935,-0.53253 1.36935,-0.53253c0,0 -0.45645,0.3043 -1.2172,0.76075c-0.76075,0.45645 -1.82581,0.98898 -2.81479,1.52151c-1.06505,0.53253 -2.13011,0.98898 -2.96694,1.36935c-0.83683,0.38038 -1.36935,0.53253 -1.36935,0.53253z" fill="#8c5634"/><path d="M271.39167,152.21355c0,0 0.6086,0.15215 1.52151,0.38038c0.9129,0.22823 2.05403,0.6086 3.19516,0.98898c1.14113,0.38038 2.28226,0.83683 3.19516,1.2172c0.83683,0.38038 1.36935,0.6086 1.36935,0.6086c0,0 -0.6086,-0.15215 -1.52151,-0.38038c-0.9129,-0.22823 -2.05403,-0.6086 -3.19516,-0.98898c-1.14113,-0.38038 -2.28226,-0.83683 -3.19516,-1.2172c-0.76075,-0.3043 -1.36935,-0.6086 -1.36935,-0.6086z" fill="#8c5634"/></g><path d="M285.4656,193.97888c0,0 0.15215,0 0.38038,0c0.22823,0 0.6086,-0.07608 1.06505,-0.3043c0.45645,-0.15215 0.9129,-0.53253 1.36935,-0.98898c0.45645,-0.45645 0.83683,-1.14113 1.14113,-1.90188c0.6086,-1.52151 0.9129,-3.42339 0.98898,-5.47742c0.07608,-0.98898 0,-2.05403 0,-3.11909c0,-1.06505 0,-2.20618 0,-3.27124c0,-2.20618 0.15215,-4.41237 0.22823,-6.4664c0.07608,-2.05403 0.22823,-3.95591 0.3043,-5.62957c0.07608,-1.67366 0.15215,-3.04301 0.22823,-3.95591c0,-0.98898 0,-1.52151 0,-1.52151c0,0 0,0.15215 0,0.38038c0,0.22823 0.07608,0.6086 0.07608,1.14113c0,0.98898 0.07608,2.35833 0,3.95591c0,1.67366 -0.07608,3.57554 -0.15215,5.62957c-0.07608,2.05403 -0.15215,4.26022 -0.22823,6.4664c0,1.06505 -0.07608,2.20618 0,3.27124c0,1.06505 0,2.13011 -0.07608,3.19516c-0.15215,2.05403 -0.45645,4.03199 -1.2172,5.5535c-0.38038,0.76075 -0.76075,1.44543 -1.29328,1.90188c-0.45645,0.45645 -0.98898,0.76075 -1.44543,0.98898c-0.45645,0.15215 -0.83683,0.22823 -1.06505,0.22823c-0.15215,0 -0.3043,-0.07608 -0.3043,-0.07608z" fill="#8c6c54"/><path d="M255.64409,188.12108c0,0 -0.07608,-0.07608 -0.22823,-0.15215c-0.15215,-0.07608 -0.38038,-0.3043 -0.68468,-0.53253c-0.3043,-0.22823 -0.6086,-0.53253 -0.9129,-0.98898c-0.3043,-0.45645 -0.6086,-0.98898 -0.68468,-1.59758c-0.15215,-0.6086 -0.07608,-1.36935 0.22823,-2.05403c0.3043,-0.68468 0.68468,-1.36935 0.98898,-2.05403c0.68468,-1.36935 1.2172,-2.96694 1.36935,-4.56452c0.15215,-0.83683 0.15215,-1.59758 0.15215,-2.43441c0,-0.83683 -0.07608,-1.59758 -0.15215,-2.35833c-0.15215,-1.52151 -0.3043,-2.96694 -0.53253,-4.26022c-0.15215,-1.2172 -0.3043,-2.28226 -0.45645,-2.96694c-0.15215,-0.68468 -0.22823,-1.14113 -0.22823,-1.14113c0,0 0.15215,0.38038 0.3043,1.14113c0.15215,0.68468 0.38038,1.74973 0.6086,2.96694c0.22823,1.2172 0.45645,2.66263 0.68468,4.18414c0.07608,0.76075 0.15215,1.59758 0.22823,2.43441c0,0.83683 0,1.67366 -0.07608,2.51048c-0.22823,1.67366 -0.76075,3.34731 -1.52151,4.71667c-0.38038,0.68468 -0.76075,1.36935 -1.06505,1.97796c-0.3043,0.6086 -0.38038,1.29328 -0.3043,1.82581c0.22823,1.2172 0.9129,2.05403 1.36935,2.58656c0.22823,0.22823 0.45645,0.45645 0.6086,0.6086c0.22823,0.07608 0.3043,0.15215 0.3043,0.15215z" fill="#8c6c54"/></g></g><g><g><g><path d="M250.69919,199.98883c0,0 1.97796,1.59758 2.13011,5.5535c0.07608,2.66263 0.98898,4.79274 0.22823,4.94489c-1.52151,0.3043 -1.52151,-3.87984 -1.52151,-3.87984c0,0 -0.9129,3.80376 -0.3043,5.24919c0.45645,1.06505 0.22823,2.96694 -0.22823,3.19516c-0.53253,0.15215 -1.2172,-2.43441 -1.67366,-4.10806c0,0 0.22823,2.05403 0.22823,3.27124c-0.07608,1.29328 -0.45645,1.67366 -1.2172,0.38038c0,0 -0.9129,1.97796 -1.82581,-2.05403c0,0 -0.83683,0.38038 -1.14113,-1.82581c-0.3043,-2.20618 -0.9129,-13.46532 5.32527,-10.72661z" fill="#ffd0ae"/><path d="M250.47097,214.59528c0,0 -0.07608,-0.07608 -0.22823,-0.22823c-0.07608,-0.15215 -0.3043,-0.38038 -0.38038,-0.68468c-0.15215,-0.3043 -0.3043,-0.68468 -0.38038,-1.06505c-0.15215,-0.38038 -0.22823,-0.83683 -0.3043,-1.29328c-0.15215,-0.9129 -0.07608,-1.82581 0,-2.51048c0,-0.3043 0.07608,-0.6086 0.15215,-0.83683c0.07608,-0.22823 0.07608,-0.3043 0.07608,-0.3043c0,0 0,0.07608 0,0.3043c0,0.22823 0,0.45645 0.07608,0.83683c0,0.3043 0.07608,0.68468 0.07608,1.14113c0.07608,0.38038 0.07608,0.83683 0.15215,1.29328c0.07608,0.83683 0.3043,1.74973 0.45645,2.35833c0.15215,0.6086 0.3043,0.98898 0.3043,0.98898z" fill="#bf8865"/><path d="M248.26479,214.5192c0,0 -0.22823,-0.3043 -0.53253,-0.9129c-0.15215,-0.3043 -0.22823,-0.68468 -0.3043,-1.06505c-0.07608,-0.38038 -0.15215,-0.83683 -0.22823,-1.2172c-0.07608,-0.83683 -0.07608,-1.67366 0.07608,-2.28226c0.07608,-0.6086 0.22823,-1.06505 0.22823,-1.06505c0,0 0,0.07608 0,0.3043c0,0.15215 0,0.45645 0.07608,0.76075c0,0.3043 0,0.68468 0.07608,1.06505c0,0.38038 0.07608,0.76075 0.07608,1.2172c0.07608,0.83683 0.22823,1.59758 0.3043,2.20618c0.07608,0.6086 0.22823,0.98898 0.22823,0.98898z" fill="#bf8865"/><path d="M246.3629,212.46517c0,0 -0.15215,-0.3043 -0.22823,-0.76075c-0.15215,-0.45645 -0.22823,-1.06505 -0.3043,-1.74973c-0.07608,-0.6086 0,-1.29328 0.07608,-1.74973c0.07608,-0.45645 0.22823,-0.76075 0.22823,-0.76075c0,0 0,0.07608 0,0.22823c0,0.15215 0,0.3043 0.07608,0.53253c0.07608,0.45645 0.07608,1.06505 0.15215,1.67366c0.07608,0.6086 0.07608,1.2172 0.07608,1.67366c0,0.6086 -0.07608,0.9129 -0.07608,0.9129z" fill="#bf8865"/></g><path d="M251.23172,200.74958c0,0 0.07608,0 0.22823,0.07608c0.15215,0.07608 0.3043,0.22823 0.45645,0.45645c0.3043,0.38038 0.53253,1.06505 0.76075,1.67366c0.15215,0.6086 0.22823,1.29328 0.22823,1.82581c0,0.53253 0,0.83683 0,0.83683c0,0 -0.15215,-0.3043 -0.22823,-0.76075c-0.15215,-0.45645 -0.3043,-1.06505 -0.45645,-1.74973c-0.15215,-0.6086 -0.3043,-1.2172 -0.45645,-1.67366c-0.07608,-0.22823 -0.15215,-0.38038 -0.22823,-0.53253c-0.22823,-0.07608 -0.3043,-0.15215 -0.3043,-0.15215z" fill="#bf8865"/></g><g><path d="M244.99355,199.60845c0,0 -0.68468,-0.98898 -1.14113,-2.43441c-0.45645,-1.44543 0.38038,-4.41237 0.15215,-5.8578c-0.15215,-1.44543 -0.07608,-4.48844 0.38038,-6.39032c0.45645,-1.90188 -0.22823,-5.70565 1.36935,-8.29221c1.59758,-2.66263 11.25914,-4.71667 10.87876,3.04301c-0.15215,2.58656 -0.3043,10.65054 -0.76075,12.01989c-0.45645,1.36935 0.45645,3.04301 0.15215,5.32527c-0.3043,2.28226 -2.35833,3.04301 -2.35833,3.04301l-0.22823,2.35833c-4.86882,3.49946 -8.52043,-0.53253 -8.52043,-0.53253z" fill="#ccad87"/><path d="M249.10161,200.21705c0,0 0.38038,0.07608 0.98898,0.07608c0.6086,0 1.59758,0.07608 2.66263,-0.15215c0.53253,-0.07608 1.06505,-0.3043 1.59758,-0.6086c0.53253,-0.3043 0.98898,-0.76075 1.2172,-1.36935c0.3043,-0.6086 0.22823,-1.29328 0.3043,-1.97796c0,-0.68468 0,-1.44543 0,-2.20618c0,-0.68468 -0.15215,-1.44543 -0.07608,-2.20618c0.07608,-0.76075 0.15215,-1.44543 0.22823,-2.13011c0.15215,-1.36935 0.3043,-2.66263 0.38038,-3.72769c0.07608,-1.06505 0.07608,-1.97796 0.15215,-2.66263c0,-0.6086 0,-0.98898 0,-0.98898c0,0 0.07608,0.38038 0.07608,0.98898c0,0.6086 0.07608,1.59758 0.07608,2.66263c0,1.14113 -0.07608,2.43441 -0.3043,3.80376c-0.07608,0.68468 -0.22823,1.36935 -0.22823,2.13011c-0.07608,0.68468 0.07608,1.44543 0.07608,2.20618c0,0.76075 0,1.44543 0,2.20618c0,0.68468 0,1.52151 -0.38038,2.13011c-0.3043,0.68468 -0.83683,1.2172 -1.44543,1.52151c-0.6086,0.3043 -1.2172,0.45645 -1.74973,0.53253c-1.14113,0.15215 -2.05403,0.07608 -2.66263,0c-0.6086,-0.15215 -0.9129,-0.22823 -0.9129,-0.22823z" fill="#8c6c54"/><path d="M246.74328,200.0649c0,0 -0.07608,0 -0.22823,0c-0.15215,0 -0.38038,0 -0.68468,-0.07608c-0.3043,-0.07608 -0.6086,-0.22823 -0.98898,-0.53253c-0.3043,-0.3043 -0.6086,-0.68468 -0.83683,-1.14113c-0.15215,-0.45645 -0.3043,-1.06505 -0.38038,-1.67366c-0.07608,-0.6086 -0.07608,-1.2172 -0.07608,-1.82581c0,-0.6086 0.07608,-1.29328 0.15215,-1.97796c0.07608,-0.68468 0.07608,-1.29328 0,-1.97796c-0.07608,-1.36935 0,-2.73871 0.15215,-4.03199c0.07608,-0.6086 0.15215,-1.2172 0.3043,-1.82581c0.15215,-0.53253 0.22823,-1.06505 0.3043,-1.59758c0.07608,-0.98898 0.15215,-1.82581 0.15215,-2.43441c0,-0.6086 0,-0.9129 0,-0.9129c0,0 0.07608,0.3043 0.07608,0.9129c0,0.6086 0.07608,1.44543 0,2.43441c0,0.53253 -0.07608,1.06505 -0.22823,1.67366c-0.07608,0.53253 -0.15215,1.14113 -0.22823,1.82581c-0.07608,1.2172 -0.15215,2.58656 -0.07608,3.95591c0,0.68468 0.07608,1.36935 -0.07608,2.05403c-0.07608,0.68468 -0.15215,1.29328 -0.22823,1.90188c0,0.6086 0,1.2172 0,1.82581c0,0.6086 0.07608,1.14113 0.22823,1.59758c0.15215,0.45645 0.38038,0.83683 0.68468,1.14113c0.3043,0.3043 0.6086,0.45645 0.83683,0.53253c0.83683,0.15215 1.14113,0.15215 1.14113,0.15215z" fill="#8c6c54"/><path d="M244.8414,201.89071c0,0 0.15215,0.07608 0.3043,0.22823c0.22823,0.15215 0.53253,0.38038 0.9129,0.6086c0.38038,0.22823 0.83683,0.45645 1.36935,0.6086c0.53253,0.15215 1.06505,0.22823 1.67366,0.3043c0.3043,0 0.6086,0 0.83683,0c0.3043,-0.07608 0.53253,-0.07608 0.83683,-0.15215c0.22823,-0.07608 0.53253,-0.15215 0.76075,-0.22823c0.22823,-0.07608 0.45645,-0.15215 0.68468,-0.22823c0.45645,-0.15215 0.76075,-0.38038 0.98898,-0.45645c0.22823,-0.15215 0.38038,-0.15215 0.38038,-0.15215c0,0 -0.15215,0.07608 -0.3043,0.22823c-0.22823,0.15215 -0.53253,0.45645 -0.9129,0.6086c-0.22823,0.07608 -0.38038,0.22823 -0.68468,0.38038c-0.22823,0.07608 -0.53253,0.22823 -0.76075,0.3043c-0.3043,0.07608 -0.6086,0.15215 -0.9129,0.15215c-0.3043,0 -0.6086,0.07608 -0.9129,0.07608c-0.3043,0 -0.6086,0 -0.9129,-0.07608c-0.3043,-0.07608 -0.6086,-0.15215 -0.83683,-0.22823c-0.3043,-0.07608 -0.53253,-0.22823 -0.76075,-0.38038c-0.22823,-0.15215 -0.45645,-0.22823 -0.6086,-0.38038c-0.38038,-0.3043 -0.6086,-0.53253 -0.83683,-0.76075c-0.22823,-0.38038 -0.3043,-0.45645 -0.3043,-0.45645z" fill="#8c6c54"/></g><g><path d="M254.50296,181.95899c0,0 -0.15215,0.15215 -0.45645,0.3043c-0.3043,0.15215 -0.68468,0.38038 -1.14113,0.45645c-0.22823,0.07608 -0.45645,0.07608 -0.6086,0.15215c-0.22823,0 -0.38038,0 -0.6086,0c-0.3043,0 -0.53253,-0.07608 -0.53253,-0.07608c0,0 0.22823,0 0.53253,-0.07608c0.3043,-0.07608 0.76075,-0.15215 1.14113,-0.22823c0.22823,-0.07608 0.38038,-0.07608 0.6086,-0.15215c0.22823,-0.07608 0.38038,-0.07608 0.53253,-0.15215c0.3043,-0.15215 0.53253,-0.22823 0.53253,-0.22823z" fill="#8c6c54"/><path d="M246.51505,179.98103c-2.13011,-1.2172 -2.35833,-5.8578 -1.44543,-7.91183c0.9129,-2.05403 1.36935,-11.33522 2.20618,-14.37823c0.83683,-3.04301 3.27124,-10.42231 10.49839,-9.81371c8.21613,0.68468 5.40134,18.86667 2.89086,24.03979c-2.51048,5.17312 -3.04301,7.30323 -4.26022,8.44436c-1.36935,1.14113 -7.075,1.2172 -9.88979,-0.38038z" fill="#ccad87"/><path d="M253.74221,181.35038c0,0 0.38038,-0.07608 0.9129,-0.3043c0.3043,-0.07608 0.68468,-0.22823 0.98898,-0.45645c0.38038,-0.22823 0.68468,-0.6086 0.98898,-0.98898c0.6086,-0.83683 1.14113,-1.97796 1.59758,-3.19516c0.22823,-0.6086 0.45645,-1.29328 0.76075,-1.90188c0.3043,-0.68468 0.6086,-1.29328 0.83683,-1.97796c0.3043,-0.68468 0.6086,-1.29328 0.83683,-1.97796c0.3043,-0.68468 0.53253,-1.29328 0.68468,-1.90188c0.22823,-0.6086 0.38038,-1.2172 0.53253,-1.82581c0.15215,-0.6086 0.3043,-1.14113 0.38038,-1.67366c0.15215,-1.06505 0.3043,-1.97796 0.38038,-2.58656c0.07608,-0.6086 0.15215,-0.98898 0.15215,-0.98898c0,0 0,0.38038 0,0.98898c0,0.6086 -0.07608,1.52151 -0.15215,2.58656c-0.07608,0.53253 -0.15215,1.14113 -0.3043,1.74973c-0.07608,0.6086 -0.3043,1.2172 -0.45645,1.90188c-0.22823,0.68468 -0.45645,1.29328 -0.68468,1.97796c-0.22823,0.68468 -0.53253,1.29328 -0.83683,1.97796c-0.3043,0.68468 -0.6086,1.29328 -0.9129,1.97796c-0.3043,0.6086 -0.53253,1.29328 -0.83683,1.90188c-0.53253,1.2172 -1.14113,2.43441 -1.82581,3.27124c-0.38038,0.45645 -0.76075,0.76075 -1.14113,0.98898c-0.38038,0.22823 -0.76075,0.3043 -1.06505,0.38038c-0.3043,0.07608 -0.53253,0.07608 -0.68468,0.15215c-0.07608,-0.07608 -0.15215,-0.07608 -0.15215,-0.07608z" fill="#8c6c54"/><path d="M246.21075,179.98103c0,0 -0.15215,-0.3043 -0.45645,-0.83683c-0.15215,-0.3043 -0.38038,-0.6086 -0.6086,-0.98898c-0.22823,-0.38038 -0.45645,-0.83683 -0.68468,-1.29328c-0.22823,-0.53253 -0.3043,-1.14113 -0.3043,-1.74973c0,-0.6086 0.15215,-1.29328 0.3043,-1.97796c0.38038,-1.29328 0.6086,-2.66263 0.83683,-4.10806c0.22823,-1.36935 0.45645,-2.81479 0.6086,-4.10806c0.07608,-0.68468 0.07608,-1.29328 0.22823,-1.90188c0.07608,-0.6086 0.22823,-1.2172 0.3043,-1.74973c0.22823,-1.06505 0.45645,-1.90188 0.6086,-2.51048c0.15215,-0.6086 0.22823,-0.98898 0.22823,-0.98898c0,0 -0.22823,1.44543 -0.53253,3.57554c-0.07608,0.53253 -0.15215,1.14113 -0.22823,1.74973c-0.07608,0.6086 -0.07608,1.2172 -0.15215,1.90188c-0.15215,1.36935 -0.3043,2.73871 -0.53253,4.18414c-0.22823,1.44543 -0.53253,2.81479 -0.9129,4.10806c-0.15215,0.68468 -0.38038,1.2172 -0.38038,1.82581c0,0.6086 0.07608,1.14113 0.22823,1.67366c0.3043,0.98898 0.83683,1.74973 1.06505,2.35833c0.22823,0.45645 0.38038,0.83683 0.38038,0.83683z" fill="#8c6c54"/></g></g><g><g><g><path d="M286.83495,155.25656c1.14113,-0.15215 2.35833,0.6086 2.05403,2.58656c-0.3043,1.97796 1.52151,2.05403 2.13011,1.90188c0,0 -2.35833,1.44543 -3.87984,-0.6086c0,0 0.53253,1.06505 1.2172,1.36935c0,0 -2.81479,-0.83683 -2.89086,-3.34731c-0.07608,-0.76075 0.3043,-1.74973 1.36935,-1.90188z" fill="#bf7547"/><path d="M291.01909,159.745c0,0 -0.07608,0.07608 -0.22823,0.07608c-0.15215,0.07608 -0.45645,0.07608 -0.76075,0c-0.3043,-0.07608 -0.68468,-0.3043 -0.9129,-0.6086c-0.15215,-0.15215 -0.22823,-0.3043 -0.3043,-0.53253c-0.07608,-0.15215 -0.15215,-0.45645 -0.15215,-0.68468c0,-0.45645 0.07608,-0.83683 0.07608,-1.2172c0,-0.15215 0,-0.3043 -0.07608,-0.45645c-0.07608,-0.15215 -0.15215,-0.3043 -0.22823,-0.38038c-0.15215,-0.22823 -0.38038,-0.38038 -0.53253,-0.45645c-0.15215,-0.07608 -0.22823,-0.15215 -0.22823,-0.15215c0,0 0.07608,0 0.3043,0.07608c0.15215,0.07608 0.38038,0.15215 0.68468,0.38038c0.15215,0.15215 0.22823,0.22823 0.3043,0.45645c0.07608,0.15215 0.15215,0.38038 0.15215,0.6086c0.07608,0.38038 0,0.83683 0,1.2172c0,0.22823 0,0.3043 0.07608,0.53253c0.07608,0.15215 0.15215,0.3043 0.22823,0.45645c0.22823,0.3043 0.45645,0.53253 0.68468,0.6086c0.22823,0.15215 0.53253,0.15215 0.68468,0.15215c0.15215,0 0.22823,-0.07608 0.22823,-0.07608z" fill="#8c5634"/></g><g><path d="M286.9871,133.27081c0,0 3.57554,4.79274 -0.15215,8.52043c0,0 2.66263,1.67366 0.38038,5.78172c0,0 2.35833,1.74973 0.07608,4.71667c0,0 1.52151,1.44543 -0.07608,3.49946c0,0 -3.11909,-0.07608 -2.28226,-3.72769c0,0 -1.59758,-2.20618 -0.53253,-4.56452c0,0 -3.49946,-2.05403 -1.29328,-6.23817c0,0 -3.65161,-3.87984 -1.2172,-7.075c2.43441,-3.19516 3.95591,-2.20618 5.09704,-0.9129z" fill="#bf7547"/><path d="M285.31345,135.62914c0,0 -0.15215,0.22823 -0.38038,0.6086c-0.07608,0.15215 -0.22823,0.38038 -0.3043,0.68468c-0.07608,0.22823 -0.22823,0.53253 -0.3043,0.76075c-0.22823,0.53253 -0.3043,1.06505 -0.38038,1.52151c-0.07608,0.22823 -0.07608,0.38038 -0.07608,0.53253c0,0.15215 -0.07608,0.22823 -0.07608,0.22823c0,0 0,-0.07608 -0.07608,-0.22823c0,-0.15215 -0.07608,-0.3043 -0.07608,-0.53253c0,-0.22823 0,-0.45645 0,-0.76075c0,-0.3043 0.07608,-0.6086 0.22823,-0.83683c0.22823,-0.6086 0.53253,-1.06505 0.9129,-1.44543c0.3043,-0.38038 0.53253,-0.53253 0.53253,-0.53253z" fill="#8c5634"/><path d="M283.94409,137.83532c0,0 -0.15215,-0.15215 -0.3043,-0.3043c-0.15215,-0.15215 -0.38038,-0.45645 -0.6086,-0.68468c-0.22823,-0.22823 -0.45645,-0.45645 -0.6086,-0.68468c-0.07608,-0.07608 -0.15215,-0.15215 -0.22823,-0.22823c-0.07608,-0.07608 -0.07608,-0.07608 -0.07608,-0.07608c0,0 0.15215,0 0.45645,0.15215c0.22823,0.07608 0.53253,0.3043 0.76075,0.6086c0.22823,0.3043 0.38038,0.6086 0.53253,0.83683c0.07608,0.22823 0.07608,0.38038 0.07608,0.38038z" fill="#8c5634"/><path d="M285.23737,142.62807c0,0 -0.15215,0.22823 -0.22823,0.53253c-0.15215,0.3043 -0.3043,0.68468 -0.45645,1.14113c-0.15215,0.38038 -0.22823,0.83683 -0.22823,1.14113c-0.07608,0.3043 -0.07608,0.6086 -0.07608,0.6086c0,0 0,-0.07608 -0.07608,-0.15215c-0.07608,-0.07608 -0.07608,-0.22823 -0.15215,-0.38038c-0.07608,-0.15215 -0.07608,-0.38038 -0.07608,-0.6086c0,-0.22823 0.07608,-0.45645 0.15215,-0.68468c0.15215,-0.45645 0.45645,-0.9129 0.68468,-1.14113c0.22823,-0.38038 0.45645,-0.45645 0.45645,-0.45645z" fill="#8c5634"/><path d="M283.71587,143.38882c0,0 0.07608,0.07608 0.15215,0.15215c0.07608,0.07608 0.15215,0.22823 0.22823,0.3043c0.07608,0.15215 0.07608,0.3043 0.07608,0.38038c0,0.07608 0,0.22823 0,0.22823c0,0 -0.07608,-0.07608 -0.15215,-0.15215c-0.07608,-0.07608 -0.15215,-0.22823 -0.22823,-0.3043c-0.07608,-0.15215 -0.07608,-0.3043 -0.07608,-0.38038c0,-0.15215 0,-0.22823 0,-0.22823z" fill="#8c5634"/><path d="M286.60673,148.02941c0,0 -0.07608,0.22823 -0.22823,0.53253c-0.15215,0.3043 -0.3043,0.68468 -0.53253,0.98898c-0.15215,0.38038 -0.3043,0.76075 -0.45645,1.06505c-0.07608,0.15215 -0.07608,0.3043 -0.15215,0.38038c0,0.07608 -0.07608,0.15215 -0.07608,0.15215c0,0 -0.07608,-0.22823 -0.07608,-0.53253c0,-0.3043 0.07608,-0.76075 0.22823,-1.2172c0.22823,-0.38038 0.45645,-0.76075 0.68468,-0.98898c0.38038,-0.3043 0.6086,-0.38038 0.6086,-0.38038z" fill="#8c5634"/><path d="M286.3785,152.44178c0,0 0,0.15215 0,0.45645c0,0.22823 0,0.6086 0,0.9129c0,0.3043 0,0.6086 0,0.9129c0,0.22823 0,0.45645 0,0.45645c0,0 -0.15215,-0.07608 -0.3043,-0.38038c-0.07608,-0.15215 -0.15215,-0.22823 -0.15215,-0.45645c-0.07608,-0.15215 -0.07608,-0.38038 -0.07608,-0.53253c0,-0.38038 0.07608,-0.76075 0.22823,-0.98898c0.15215,-0.3043 0.3043,-0.38038 0.3043,-0.38038z" fill="#8c5634"/><g fill="#8c5634"><path d="M285.00914,149.01839c0,0 0.07608,0 0.15215,0.07608c0.07608,0.07608 0.15215,0.15215 0.22823,0.22823c0.07608,0.07608 0.07608,0.22823 0.07608,0.3043c0,0.07608 -0.07608,0.15215 -0.07608,0.15215c0,0 -0.07608,-0.07608 -0.07608,-0.15215c-0.07608,-0.07608 -0.15215,-0.15215 -0.15215,-0.22823c0,-0.07608 -0.07608,-0.07608 -0.07608,-0.15215c0,-0.07608 0,-0.07608 -0.07608,-0.15215z"/><path d="M285.4656,153.05038c0,0 0.07608,0 0.15215,0.07608c0.07608,0 0.15215,0.07608 0.3043,0.15215c0.07608,0.07608 0.15215,0.15215 0.15215,0.3043c0,0.07608 0.07608,0.15215 0.07608,0.15215c0,0 -0.07608,0 -0.15215,-0.07608c-0.07608,0 -0.15215,-0.07608 -0.3043,-0.15215c-0.07608,-0.07608 -0.15215,-0.15215 -0.15215,-0.3043c-0.07608,-0.07608 -0.07608,-0.15215 -0.07608,-0.15215z"/></g><path d="M287.36748,133.72726c0,0 0.38038,0.38038 0.76075,1.14113c0.38038,0.76075 0.76075,1.82581 0.68468,2.96694c0,0.3043 -0.07608,0.53253 -0.07608,0.83683c-0.07608,0.3043 -0.15215,0.53253 -0.22823,0.76075c-0.07608,0.22823 -0.22823,0.45645 -0.3043,0.68468c-0.07608,0.22823 -0.22823,0.38038 -0.38038,0.53253c-0.15215,0.15215 -0.22823,0.3043 -0.38038,0.45645c-0.15215,0.15215 -0.22823,0.22823 -0.3043,0.3043c-0.15215,0.15215 -0.3043,0.22823 -0.3043,0.22823c0,0 0.07608,-0.15215 0.22823,-0.3043c0.07608,-0.07608 0.15215,-0.22823 0.22823,-0.38038c0.07608,-0.15215 0.15215,-0.3043 0.22823,-0.45645c0.07608,-0.15215 0.22823,-0.38038 0.3043,-0.6086c0.07608,-0.22823 0.15215,-0.45645 0.22823,-0.68468c0.07608,-0.22823 0.15215,-0.45645 0.15215,-0.76075c0,-0.22823 0.07608,-0.53253 0.07608,-0.76075c0,-0.22823 0,-0.53253 0,-0.76075c0,-0.22823 -0.07608,-0.53253 -0.07608,-0.76075c-0.07608,-0.22823 -0.07608,-0.45645 -0.15215,-0.68468c-0.07608,-0.22823 -0.15215,-0.45645 -0.22823,-0.6086c-0.15215,-0.38038 -0.22823,-0.68468 -0.38038,-0.9129c0,-0.07608 -0.07608,-0.22823 -0.07608,-0.22823z" fill="#8c5634"/><path d="M283.25941,141.25871c0,0 -0.07608,0.07608 -0.15215,0.3043c-0.07608,0.15215 -0.15215,0.45645 -0.22823,0.76075c-0.07608,0.15215 -0.07608,0.3043 -0.15215,0.53253c-0.07608,0.15215 -0.07608,0.38038 -0.07608,0.6086c0,0.22823 0,0.38038 0,0.6086c0,0.22823 0,0.38038 0.07608,0.6086c0,0.22823 0.15215,0.38038 0.15215,0.6086c0.07608,0.22823 0.15215,0.38038 0.22823,0.53253c0.07608,0.15215 0.22823,0.3043 0.3043,0.45645c0.07608,0.15215 0.22823,0.3043 0.3043,0.38038c0.22823,0.3043 0.38038,0.45645 0.53253,0.6086c0.15215,0.15215 0.22823,0.22823 0.22823,0.22823c0,0 -0.07608,-0.07608 -0.3043,-0.15215c-0.15215,-0.07608 -0.45645,-0.22823 -0.68468,-0.45645c-0.15215,-0.15215 -0.3043,-0.22823 -0.38038,-0.38038c-0.15215,-0.15215 -0.22823,-0.3043 -0.38038,-0.53253c-0.07608,-0.22823 -0.22823,-0.38038 -0.3043,-0.6086c-0.07608,-0.22823 -0.15215,-0.45645 -0.22823,-0.68468c-0.07608,-0.22823 -0.07608,-0.45645 -0.07608,-0.68468c0,-0.22823 0,-0.45645 0.07608,-0.68468c0.07608,-0.22823 0.07608,-0.45645 0.15215,-0.6086c0.07608,-0.22823 0.15215,-0.38038 0.22823,-0.53253c0.3043,-0.6086 0.68468,-0.9129 0.68468,-0.9129z" fill="#8c5634"/><path d="M287.2914,147.49688c0,0 0.3043,0.15215 0.68468,0.53253c0.15215,0.22823 0.3043,0.45645 0.45645,0.76075c0.15215,0.3043 0.15215,0.68468 0.15215,0.98898c0,0.15215 0,0.38038 -0.07608,0.53253c-0.07608,0.15215 -0.07608,0.3043 -0.15215,0.45645c-0.15215,0.3043 -0.3043,0.53253 -0.38038,0.76075c-0.15215,0.22823 -0.3043,0.38038 -0.38038,0.45645c-0.07608,0.07608 -0.15215,0.15215 -0.15215,0.15215c0,0 0,-0.07608 0.07608,-0.22823c0.07608,-0.15215 0.15215,-0.3043 0.22823,-0.53253c0.07608,-0.22823 0.15215,-0.45645 0.22823,-0.76075c0.07608,-0.15215 0.07608,-0.3043 0.07608,-0.45645c0.07608,-0.15215 0,-0.3043 0.07608,-0.45645c0,-0.15215 0,-0.3043 0,-0.45645c0,-0.15215 0,-0.3043 -0.07608,-0.45645c-0.07608,-0.3043 -0.15215,-0.53253 -0.3043,-0.76075c-0.22823,-0.22823 -0.45645,-0.53253 -0.45645,-0.53253z" fill="#8c5634"/><path d="M285.08522,152.0614c0,0 0,0.3043 0,0.76075c0,0.22823 0,0.45645 0.07608,0.76075c0,0.15215 0.07608,0.22823 0.07608,0.38038c0.07608,0.15215 0.07608,0.3043 0.15215,0.38038c0.07608,0.15215 0.15215,0.22823 0.22823,0.38038c0.07608,0.15215 0.15215,0.22823 0.3043,0.3043c0.07608,0.07608 0.22823,0.15215 0.3043,0.22823c0.07608,0.07608 0.22823,0.15215 0.3043,0.15215c0.22823,0.15215 0.38038,0.15215 0.53253,0.22823c0.15215,0.07608 0.22823,0.07608 0.22823,0.07608c0,0 -0.07608,0 -0.22823,0c-0.15215,0 -0.38038,0 -0.6086,-0.07608c-0.15215,0 -0.22823,-0.07608 -0.38038,-0.15215c-0.15215,-0.07608 -0.3043,-0.07608 -0.38038,-0.22823c-0.15215,-0.07608 -0.3043,-0.15215 -0.38038,-0.3043c-0.15215,-0.15215 -0.22823,-0.22823 -0.3043,-0.45645c-0.15215,-0.3043 -0.22823,-0.6086 -0.3043,-0.98898c0,-0.3043 0,-0.6086 0.07608,-0.83683c0.15215,-0.3043 0.3043,-0.6086 0.3043,-0.6086z" fill="#8c5634"/></g></g><g><g><path d="M262.11049,131.7493c-1.2172,-5.78172 -0.76075,-18.02984 9.96586,-19.32312c6.84677,-0.83683 15.29113,3.04301 13.31317,16.35618c0,0 1.29328,5.02097 0.07608,8.74866c-1.2172,3.72769 -2.89086,7.22715 -7.30323,7.60753c-6.39032,0.53253 -14.30215,-5.17312 -16.05188,-13.38925z" fill="#ffd0ae"/><path d="M286.0742,134.33586c0,0 0,0.38038 -0.07608,1.06505c-0.07608,0.68468 -0.15215,1.67366 -0.45645,2.81479c-0.3043,1.14113 -0.76075,2.43441 -1.59758,3.72769c-0.83683,1.2172 -2.05403,2.43441 -3.57554,2.96694c-0.76075,0.3043 -1.59758,0.38038 -2.35833,0.38038c-0.76075,0 -1.52151,-0.07608 -2.28226,-0.22823c-1.44543,-0.22823 -2.81479,-0.6086 -3.95591,-1.06505c-1.06505,-0.45645 -1.90188,-1.06505 -2.43441,-1.44543c-0.3043,-0.22823 -0.45645,-0.38038 -0.6086,-0.53253c-0.15215,-0.15215 -0.22823,-0.22823 -0.22823,-0.22823c0,0 0.3043,0.22823 0.9129,0.6086c0.6086,0.38038 1.44543,0.83683 2.51048,1.29328c1.06505,0.38038 2.43441,0.76075 3.87984,0.9129c0.76075,0.07608 1.44543,0.15215 2.28226,0.22823c0.76075,0.07608 1.52151,-0.07608 2.20618,-0.3043c1.44543,-0.53253 2.58656,-1.59758 3.42339,-2.81479c0.83683,-1.2172 1.36935,-2.51048 1.67366,-3.57554c0.3043,-1.14113 0.53253,-2.13011 0.6086,-2.73871c0.07608,-0.68468 0.07608,-1.06505 0.07608,-1.06505z" fill="#bf8865"/></g><g fill="#4a311f"><path d="M272.60887,129.16274c0,-0.88232 0.37466,-1.59758 0.83683,-1.59758c0.46217,0 0.83683,0.71526 0.83683,1.59758c0,0.88232 -0.37466,1.59758 -0.83683,1.59758c-0.46217,0 -0.83683,-0.71526 -0.83683,-1.59758z"/><path d="M270.93522,128.40199c0,0 0.15215,-0.22823 0.53253,-0.53253c0.15215,-0.15215 0.38038,-0.3043 0.68468,-0.45645c0.22823,-0.15215 0.6086,-0.22823 0.9129,-0.22823c0.15215,0 0.3043,0 0.45645,0c0.15215,0 0.3043,0.07608 0.45645,0.15215c0.15215,0.07608 0.3043,0.15215 0.38038,0.22823c0.15215,0.07608 0.22823,0.15215 0.3043,0.22823c0.15215,0.15215 0.22823,0.3043 0.3043,0.45645c0.07608,0.15215 0.07608,0.15215 0.07608,0.15215c0,0 -0.07608,-0.07608 -0.15215,-0.15215c-0.07608,-0.07608 -0.07608,-0.07608 -0.15215,-0.15215c-0.07608,-0.07608 -0.15215,-0.07608 -0.22823,-0.15215c-0.07608,-0.07608 -0.15215,-0.07608 -0.3043,-0.15215c-0.07608,-0.07608 -0.22823,-0.07608 -0.3043,-0.15215c-0.15215,-0.07608 -0.22823,-0.07608 -0.38038,-0.07608c-0.15215,0 -0.22823,0 -0.38038,0c-0.53253,0.07608 -1.06505,0.22823 -1.44543,0.45645c-0.45645,0.22823 -0.76075,0.38038 -0.76075,0.38038z"/></g><g><g><path d="M287.13925,137.68317c-0.15215,2.28226 -0.9129,3.87984 -0.9129,3.87984c0,-0.76075 -0.38038,-2.28226 -0.38038,-2.28226c0.22823,1.36935 -0.38038,3.72769 -0.98898,4.79274c-0.6086,1.06505 0.45645,2.20618 0.45645,2.20618c-1.06505,0 -1.36935,-1.06505 -1.36935,-1.06505c0.3043,2.66263 -1.74973,3.65161 -1.74973,3.65161c0.45645,-0.53253 0.45645,-1.74973 0.45645,-1.74973c-0.45645,2.35833 -3.34731,2.43441 -3.34731,2.43441c0.22823,1.82581 -1.52151,2.58656 -1.52151,2.58656c0,0 -0.07608,-1.29328 -2.66263,-1.52151c-2.51048,-0.22823 -3.87984,-1.90188 -3.87984,-1.90188c0,0.6086 0.9129,1.36935 0.9129,1.36935c-6.00995,-0.98898 -6.1621,-6.84677 -6.1621,-6.84677c-0.3043,1.06505 -0.15215,1.82581 -0.15215,1.82581c-3.49946,-1.29328 0.22823,-8.21613 0.68468,-10.04194c0.22823,-1.06505 0.3043,-2.81479 0.3043,-4.03199c-0.15215,-0.6086 -0.38038,-1.29328 -0.6086,-1.52151c0,0 -3.11909,4.26022 -0.98898,9.35726c0,0 -4.79274,2.43441 -7.75968,-3.49946c-0.9129,-1.82581 1.14113,-3.95591 1.14113,-3.95591c-0.98898,0.83683 -2.35833,0.07608 -2.35833,0.07608c1.59758,-0.53253 0.83683,-2.96694 1.2172,-4.48844c0.6086,-2.35833 2.28226,-3.72769 2.28226,-3.72769c-0.9129,0.38038 -2.05403,0 -2.05403,0c0,0 2.96694,-1.74973 4.33629,-5.93387c1.36935,-4.18414 6.92285,-6.08602 10.72661,-5.09704c0,0 1.74973,-0.9129 5.62957,0.07608c3.87984,0.98898 6.99893,5.40134 7.30323,7.9879c0.38038,2.58656 0.22823,7.30323 2.43441,7.30323c0,0 -1.2172,0.68468 -1.97796,0.15215c0.53253,0.38038 2.13011,1.82581 1.74973,4.41237c-0.45645,3.04301 -1.14113,4.48844 0.83683,5.40134c0,0 -0.83683,0.3043 -1.59758,0.15215zM285.92205,133.11866c-0.07608,-1.67366 -0.3043,-3.11909 -0.6086,-4.41237c-0.07608,-2.89086 0.07608,-10.04194 -3.19516,-11.33522c-3.27124,-1.29328 -4.48844,0.45645 -4.48844,0.45645c0,0 -2.96694,-1.97796 -5.93387,-0.07608c-2.96694,1.97796 -4.48844,5.62957 -4.18414,8.21613c0.15215,1.06505 0.22823,2.05403 0.3043,2.96694c0.45645,2.51048 1.2172,4.71667 2.43441,6.23817c-0.07608,-0.45645 0,-1.06505 0,-1.06505c3.49946,3.04301 12.47635,2.35833 13.99785,1.59758c1.2172,-0.6086 1.67366,-1.67366 1.67366,-2.58656z" fill="#bf7547"/><path d="M288.73683,137.53102c0,0 -0.15215,0 -0.45645,-0.15215c-0.3043,-0.15215 -0.76075,-0.38038 -0.98898,-0.9129c-0.15215,-0.3043 -0.15215,-0.6086 -0.15215,-0.9129c0,-0.3043 0.15215,-0.6086 0.22823,-0.98898c0.15215,-0.6086 0.3043,-1.29328 0.38038,-1.97796c0.07608,-0.68468 0.07608,-1.36935 0,-1.97796c-0.07608,-0.3043 -0.15215,-0.6086 -0.22823,-0.9129c-0.07608,-0.3043 -0.22823,-0.53253 -0.38038,-0.76075c-0.22823,-0.45645 -0.53253,-0.76075 -0.76075,-0.98898c-0.22823,-0.22823 -0.38038,-0.3043 -0.38038,-0.3043c0,0 0.15215,0.07608 0.38038,0.3043c0.15215,0.07608 0.3043,0.22823 0.45645,0.38038c0.15215,0.15215 0.3043,0.3043 0.53253,0.53253c0.15215,0.22823 0.3043,0.45645 0.45645,0.76075c0.07608,0.15215 0.15215,0.3043 0.15215,0.45645c0.07608,0.15215 0.07608,0.3043 0.15215,0.45645c0.07608,0.3043 0.15215,0.68468 0.15215,1.06505c0,0.38038 0,0.76075 -0.07608,1.06505c-0.07608,0.68468 -0.22823,1.44543 -0.45645,2.05403c-0.07608,0.3043 -0.22823,0.6086 -0.22823,0.9129c-0.07608,0.3043 -0.07608,0.53253 0,0.76075c0.15215,0.45645 0.45645,0.76075 0.76075,0.9129c0.22823,0.15215 0.45645,0.22823 0.45645,0.22823z" fill="#8c5634"/><path d="M288.12823,127.64124c0,0 -0.07608,0 -0.3043,-0.07608c-0.15215,-0.07608 -0.45645,-0.07608 -0.76075,-0.3043c-0.3043,-0.22823 -0.45645,-0.6086 -0.6086,-1.06505c-0.15215,-0.45645 -0.22823,-0.98898 -0.3043,-1.59758c-0.15215,-1.14113 -0.3043,-2.51048 -0.68468,-3.95591c-0.3043,-1.44543 -0.83683,-2.89086 -1.74973,-4.18414c-0.83683,-1.29328 -1.97796,-2.35833 -3.34731,-2.96694c-0.68468,-0.3043 -1.29328,-0.53253 -1.97796,-0.76075c-0.6086,-0.22823 -1.29328,-0.38038 -1.82581,-0.45645c-1.14113,-0.22823 -2.13011,-0.3043 -2.81479,-0.22823c-0.68468,0.07608 -1.06505,0.22823 -1.06505,0.22823c0,0 0.3043,-0.22823 0.98898,-0.38038c0.68468,-0.15215 1.67366,-0.15215 2.89086,0c0.6086,0.07608 1.2172,0.22823 1.90188,0.38038c0.68468,0.15215 1.36935,0.38038 2.05403,0.68468c1.36935,0.6086 2.66263,1.74973 3.49946,3.11909c0.9129,1.36935 1.44543,2.89086 1.74973,4.33629c0.3043,1.44543 0.38038,2.89086 0.53253,4.03199c0.07608,0.6086 0.15215,1.14113 0.22823,1.59758c0.07608,0.45645 0.3043,0.83683 0.53253,1.06505c0.22823,0.22823 0.53253,0.3043 0.68468,0.38038c0.3043,0.15215 0.38038,0.15215 0.38038,0.15215z" fill="#8c5634"/><path d="M277.70592,117.9036c0,0 -0.15215,-0.38038 -0.38038,-0.83683c-0.22823,-0.53253 -0.6086,-1.14113 -1.14113,-1.67366c-0.22823,-0.3043 -0.45645,-0.53253 -0.76075,-0.83683c-0.22823,-0.22823 -0.45645,-0.45645 -0.68468,-0.6086c-0.22823,-0.15215 -0.38038,-0.3043 -0.53253,-0.45645c-0.15215,-0.07608 -0.22823,-0.15215 -0.22823,-0.15215c0,0 0.07608,0 0.22823,0.07608c0.15215,0.07608 0.38038,0.15215 0.6086,0.3043c0.22823,0.15215 0.53253,0.3043 0.83683,0.53253c0.3043,0.22823 0.53253,0.53253 0.83683,0.83683c0.22823,0.3043 0.45645,0.6086 0.6086,0.98898c0.15215,0.3043 0.3043,0.68468 0.38038,0.9129c0.22823,0.53253 0.22823,0.9129 0.22823,0.9129z" fill="#8c5634"/><path d="M257.54597,127.03264c0,0 0,-0.45645 0.15215,-1.06505c0.07608,-0.3043 0.22823,-0.6086 0.45645,-0.98898c0.22823,-0.38038 0.45645,-0.68468 0.76075,-0.98898c0.53253,-0.6086 1.2172,-1.14113 1.82581,-1.36935c0.22823,-0.15215 0.53253,-0.22823 0.68468,-0.3043c0.15215,-0.07608 0.22823,-0.07608 0.22823,-0.07608c0,0 -0.07608,0.07608 -0.22823,0.15215c-0.15215,0.07608 -0.38038,0.22823 -0.6086,0.45645c-0.22823,0.15215 -0.53253,0.38038 -0.76075,0.68468c-0.15215,0.15215 -0.3043,0.3043 -0.38038,0.38038c-0.15215,0.15215 -0.3043,0.3043 -0.38038,0.45645c-0.3043,0.3043 -0.53253,0.6086 -0.76075,0.9129c-0.22823,0.3043 -0.38038,0.6086 -0.53253,0.83683c-0.3043,0.45645 -0.45645,0.9129 -0.45645,0.9129z" fill="#8c5634"/><path d="M256.40484,131.52108c0,0 0.22823,0 0.6086,0.07608c0.15215,0 0.38038,0 0.6086,0c0.22823,0 0.45645,-0.07608 0.68468,-0.15215c0.22823,-0.07608 0.45645,-0.15215 0.6086,-0.3043c0.07608,-0.07608 0.15215,-0.15215 0.22823,-0.15215c0.07608,-0.07608 0.15215,-0.15215 0.22823,-0.15215c0.15215,-0.15215 0.22823,-0.22823 0.3043,-0.3043c0.07608,-0.07608 0.15215,-0.15215 0.15215,-0.15215c0,0 0,0.07608 -0.07608,0.15215c-0.07608,0.07608 -0.07608,0.3043 -0.22823,0.45645c-0.07608,0.07608 -0.07608,0.15215 -0.22823,0.3043c-0.07608,0.07608 -0.15215,0.22823 -0.3043,0.22823c-0.07608,0.07608 -0.22823,0.15215 -0.3043,0.22823c-0.15215,0.07608 -0.22823,0.15215 -0.38038,0.15215c-0.3043,0.07608 -0.53253,0.07608 -0.83683,0.07608c-0.22823,0 -0.45645,-0.07608 -0.68468,-0.15215c-0.22823,-0.15215 -0.38038,-0.3043 -0.38038,-0.3043z" fill="#8c5634"/><path d="M261.19758,119.34903c0,0 0.07608,-0.15215 0.15215,-0.45645c0.07608,-0.22823 0.22823,-0.68468 0.38038,-1.14113c0.15215,-0.45645 0.38038,-1.06505 0.6086,-1.59758c0.15215,-0.3043 0.3043,-0.6086 0.53253,-0.83683c0.15215,-0.3043 0.45645,-0.53253 0.6086,-0.76075c0.22823,-0.22823 0.45645,-0.45645 0.76075,-0.68468c0.22823,-0.22823 0.53253,-0.38038 0.83683,-0.53253c0.3043,-0.15215 0.53253,-0.3043 0.83683,-0.38038c0.22823,-0.15215 0.53253,-0.22823 0.76075,-0.3043c0.22823,-0.07608 0.45645,-0.15215 0.68468,-0.15215c0.22823,0 0.38038,-0.07608 0.53253,-0.07608c0.3043,-0.07608 0.45645,-0.07608 0.45645,-0.07608c0,0 -0.15215,0.07608 -0.45645,0.15215c-0.15215,0.07608 -0.3043,0.07608 -0.45645,0.15215c-0.22823,0.07608 -0.38038,0.15215 -0.6086,0.3043c-0.22823,0.07608 -0.45645,0.22823 -0.68468,0.38038c-0.22823,0.15215 -0.53253,0.22823 -0.76075,0.45645c-0.22823,0.15215 -0.53253,0.38038 -0.76075,0.53253c-0.22823,0.15215 -0.45645,0.45645 -0.68468,0.68468c-0.22823,0.22823 -0.45645,0.45645 -0.6086,0.76075c-0.22823,0.22823 -0.38038,0.53253 -0.53253,0.76075c-0.3043,0.53253 -0.53253,1.06505 -0.76075,1.52151c-0.22823,0.45645 -0.38038,0.83683 -0.53253,1.06505c-0.07608,0.15215 -0.15215,0.22823 -0.15215,0.3043c-0.07608,-0.15215 -0.15215,-0.07608 -0.15215,-0.07608z" fill="#8c5634"/></g><g fill="#8c5634"><path d="M277.93414,152.13748c0,0 0.22823,-0.22823 0.53253,-0.53253c0.15215,-0.15215 0.3043,-0.38038 0.45645,-0.6086c0.15215,-0.22823 0.3043,-0.45645 0.3043,-0.76075c0.07608,-0.22823 0.07608,-0.53253 0.07608,-0.76075c-0.07608,-0.22823 -0.07608,-0.53253 -0.22823,-0.68468c-0.07608,-0.22823 -0.15215,-0.38038 -0.22823,-0.53253c-0.07608,-0.15215 -0.07608,-0.22823 -0.07608,-0.22823c0,0 0.07608,0.07608 0.15215,0.15215c0.07608,0.07608 0.22823,0.22823 0.38038,0.45645c0.15215,0.22823 0.3043,0.45645 0.38038,0.76075c0,0.15215 0.07608,0.3043 0.07608,0.45645c0,0.15215 0,0.38038 -0.07608,0.53253c-0.07608,0.3043 -0.22823,0.6086 -0.45645,0.9129c-0.22823,0.22823 -0.45645,0.38038 -0.6086,0.53253c-0.38038,0.22823 -0.68468,0.3043 -0.68468,0.3043z"/><path d="M279.37957,149.55092c0,0 0.3043,-0.07608 0.76075,-0.3043c0.45645,-0.22823 0.98898,-0.45645 1.44543,-0.83683c0.07608,-0.07608 0.22823,-0.15215 0.3043,-0.3043c0.07608,-0.07608 0.22823,-0.22823 0.3043,-0.3043c0.07608,-0.07608 0.15215,-0.22823 0.22823,-0.38038c0.07608,-0.07608 0.15215,-0.22823 0.15215,-0.3043c0.07608,-0.22823 0.15215,-0.38038 0.15215,-0.53253c0.07608,-0.15215 0.07608,-0.22823 0.07608,-0.22823c0,0 0,0.07608 0,0.22823c0,0.15215 0,0.38038 0,0.6086c0,0.15215 -0.07608,0.22823 -0.07608,0.38038c-0.07608,0.15215 -0.07608,0.3043 -0.15215,0.45645c-0.15215,0.3043 -0.38038,0.53253 -0.6086,0.76075c-0.3043,0.22823 -0.53253,0.38038 -0.83683,0.53253c-0.3043,0.15215 -0.6086,0.15215 -0.83683,0.22823c-0.53253,0 -0.9129,0 -0.9129,0z"/><path d="M285.38952,146.27968c0,0 -0.15215,-0.07608 -0.3043,-0.22823c-0.15215,-0.15215 -0.38038,-0.45645 -0.45645,-0.83683c-0.07608,-0.38038 0,-0.9129 0.22823,-1.36935c0.15215,-0.45645 0.3043,-0.9129 0.45645,-1.44543c0.3043,-0.98898 0.45645,-1.97796 0.45645,-2.73871c0,-0.15215 0,-0.38038 -0.07608,-0.53253c0,-0.15215 -0.07608,-0.3043 -0.07608,-0.38038c-0.07608,-0.22823 -0.15215,-0.3043 -0.15215,-0.3043c0,0 0.07608,0.07608 0.22823,0.3043c0.07608,0.07608 0.15215,0.22823 0.15215,0.38038c0.07608,0.15215 0.07608,0.3043 0.15215,0.53253c0.15215,0.83683 0,1.90188 -0.3043,2.89086c-0.15215,0.53253 -0.3043,0.98898 -0.53253,1.44543c-0.22823,0.45645 -0.38038,0.83683 -0.3043,1.2172c0,0.38038 0.15215,0.68468 0.22823,0.83683c0.15215,0.07608 0.3043,0.22823 0.3043,0.22823z"/><path d="M286.30242,141.48694c0,0 0.07608,-0.3043 0.15215,-0.76075c0.07608,-0.45645 0.22823,-1.06505 0.3043,-1.59758c0.07608,-0.6086 0.15215,-1.14113 0.15215,-1.59758c0,-0.22823 0,-0.38038 -0.07608,-0.53253c0,-0.15215 -0.07608,-0.22823 -0.07608,-0.22823c0,0 0.07608,0.07608 0.15215,0.15215c0.07608,0.07608 0.07608,0.15215 0.15215,0.22823c0.07608,0.07608 0.07608,0.15215 0.15215,0.3043c0.15215,0.45645 0.15215,1.14113 0.07608,1.74973c-0.07608,0.6086 -0.3043,1.2172 -0.53253,1.59758c-0.3043,0.45645 -0.45645,0.68468 -0.45645,0.68468z"/><path d="M282.27043,148.86624c0,0 0.22823,-0.15215 0.45645,-0.45645c0.3043,-0.3043 0.53253,-0.68468 0.76075,-1.14113c0.07608,-0.22823 0.15215,-0.45645 0.22823,-0.68468c0.07608,-0.22823 0.07608,-0.45645 0.15215,-0.68468c0.07608,-0.22823 0.07608,-0.38038 0.07608,-0.45645c0,-0.15215 0,-0.15215 0,-0.15215c0,0 0,0.07608 0.07608,0.15215c0,0.15215 0.07608,0.3043 0.07608,0.53253c0,0.22823 0,0.45645 0,0.76075c0,0.3043 -0.07608,0.53253 -0.22823,0.83683c-0.15215,0.22823 -0.3043,0.53253 -0.45645,0.68468c-0.15215,0.22823 -0.38038,0.38038 -0.53253,0.45645c-0.3043,0.15215 -0.6086,0.15215 -0.6086,0.15215z"/><path d="M272.2285,150.15952c0,0 -0.15215,0 -0.53253,0c-0.3043,0 -0.76075,-0.07608 -1.29328,-0.22823c-0.3043,-0.07608 -0.53253,-0.22823 -0.83683,-0.3043c-0.3043,-0.15215 -0.6086,-0.3043 -0.83683,-0.53253c-0.3043,-0.22823 -0.53253,-0.45645 -0.83683,-0.68468c-0.3043,-0.22823 -0.45645,-0.53253 -0.68468,-0.83683c-0.15215,-0.3043 -0.38038,-0.6086 -0.53253,-0.98898c-0.15215,-0.38038 -0.3043,-0.68468 -0.38038,-0.98898c-0.07608,-0.3043 -0.15215,-0.68468 -0.22823,-0.98898c0,-0.3043 -0.07608,-0.6086 -0.07608,-0.9129c-0.07608,-0.3043 0,-0.53253 0,-0.76075c0,-0.22823 0,-0.38038 0,-0.6086c0,-0.3043 0,-0.53253 0,-0.53253c0,0 0,0.15215 0.07608,0.53253c0.07608,0.3043 0.07608,0.76075 0.15215,1.29328c0.07608,0.22823 0.07608,0.53253 0.15215,0.83683c0.07608,0.3043 0.22823,0.6086 0.3043,0.9129c0.07608,0.3043 0.22823,0.6086 0.38038,0.9129c0.15215,0.3043 0.38038,0.6086 0.53253,0.9129c0.22823,0.3043 0.38038,0.6086 0.6086,0.83683c0.22823,0.22823 0.45645,0.45645 0.76075,0.68468c0.22823,0.22823 0.53253,0.38038 0.76075,0.53253c0.3043,0.15215 0.53253,0.3043 0.76075,0.38038c0.45645,0.22823 0.9129,0.38038 1.2172,0.45645c0.38038,0 0.53253,0.07608 0.53253,0.07608z"/><path d="M265.91425,145.06248c0,0 -0.07608,0 -0.3043,-0.07608c-0.15215,-0.07608 -0.38038,-0.15215 -0.68468,-0.3043c-0.15215,-0.07608 -0.22823,-0.22823 -0.38038,-0.38038c-0.07608,-0.15215 -0.22823,-0.3043 -0.3043,-0.45645c-0.07608,-0.15215 -0.15215,-0.38038 -0.15215,-0.53253c-0.07608,-0.22823 -0.07608,-0.38038 -0.07608,-0.6086c0,-0.22823 0,-0.38038 0,-0.6086c0,-0.22823 0.07608,-0.38038 0.07608,-0.53253c0.07608,-0.38038 0.22823,-0.68468 0.3043,-0.98898c0.07608,-0.3043 0.22823,-0.45645 0.3043,-0.6086c0.07608,-0.15215 0.15215,-0.22823 0.15215,-0.22823c0,0 -0.07608,0.38038 -0.15215,0.9129c0,0.3043 -0.15215,0.6086 -0.15215,0.98898c0,0.15215 -0.07608,0.38038 -0.07608,0.53253c0,0.15215 0,0.38038 0,0.53253c0,0.15215 0,0.38038 0.07608,0.53253c0,0.15215 0.07608,0.3043 0.07608,0.53253c0.07608,0.3043 0.22823,0.6086 0.45645,0.76075c0.15215,0.22823 0.38038,0.38038 0.45645,0.45645c0.3043,0.07608 0.38038,0.07608 0.38038,0.07608z"/></g></g><g fill="#4a311f"><path d="M281.28146,128.93452c0,-0.88232 0.37466,-1.59758 0.83683,-1.59758c0.46217,0 0.83683,0.71526 0.83683,1.59758c0,0.88232 -0.37466,1.59758 -0.83683,1.59758c-0.46217,0 -0.83683,-0.71526 -0.83683,-1.59758z"/><path d="M279.68388,128.09769c0,0 0.15215,-0.22823 0.53253,-0.53253c0.15215,-0.15215 0.38038,-0.3043 0.68468,-0.45645c0.22823,-0.15215 0.6086,-0.22823 0.9129,-0.22823c0.15215,0 0.3043,0 0.45645,0c0.15215,0 0.3043,0.07608 0.45645,0.15215c0.15215,0.07608 0.3043,0.15215 0.38038,0.22823c0.15215,0.07608 0.22823,0.15215 0.3043,0.22823c0.15215,0.15215 0.22823,0.3043 0.3043,0.45645c0.07608,0.15215 0.07608,0.15215 0.07608,0.15215c0,0 -0.07608,-0.07608 -0.15215,-0.15215c-0.07608,-0.07608 -0.07608,-0.07608 -0.15215,-0.15215c-0.07608,-0.07608 -0.15215,-0.07608 -0.22823,-0.15215c-0.07608,-0.07608 -0.15215,-0.07608 -0.3043,-0.15215c-0.07608,-0.07608 -0.22823,-0.07608 -0.3043,-0.15215c-0.15215,-0.07608 -0.22823,-0.07608 -0.38038,-0.07608c-0.15215,0 -0.22823,0 -0.38038,0c-0.53253,0.07608 -1.06505,0.22823 -1.44543,0.45645c-0.53253,0.22823 -0.76075,0.38038 -0.76075,0.38038z"/></g><path d="M275.65189,139.28075c0,0 0.38038,0 0.98898,0c0.6086,0 1.36935,0 2.20618,0c0.76075,0 1.59758,-0.07608 2.13011,-0.22823c0.3043,-0.07608 0.53253,-0.07608 0.68468,-0.15215c0.15215,-0.07608 0.3043,-0.07608 0.3043,-0.07608c0,0 -0.07608,0.07608 -0.22823,0.15215c-0.15215,0.07608 -0.38038,0.22823 -0.68468,0.3043c-0.3043,0.07608 -0.6086,0.22823 -0.98898,0.3043c-0.38038,0.07608 -0.76075,0.07608 -1.2172,0.15215c-0.83683,0 -1.59758,-0.07608 -2.20618,-0.22823c-0.6086,0 -0.98898,-0.22823 -0.98898,-0.22823z" fill="#8c5634"/><path d="M271.01129,126.80441c-1.14113,0 -1.67366,-0.83683 0.07608,-1.29328c2.13011,-0.6086 5.40134,0.15215 5.24919,1.2172c-0.22823,1.06505 -1.52151,0.07608 -2.43441,0.07608c-0.98898,-0.15215 -2.05403,0 -2.89086,0z" fill="#bf7547"/><path d="M281.43361,126.80441c-0.76075,0.07608 -1.82581,1.06505 -2.05403,0c-0.22823,-1.06505 2.43441,-1.90188 4.33629,-1.36935c1.52151,0.45645 1.14113,1.2172 0.15215,1.29328c-0.76075,0 -1.59758,-0.07608 -2.43441,0.07608z" fill="#bf7547"/><g><path d="M266.14248,135.32484c-3.34731,2.43441 -3.04301,-1.97796 -3.04301,-1.97796c0,0 -2.28226,-3.95591 0.38038,-5.09704c2.58656,-1.06505 3.65161,2.73871 3.65161,2.73871c0.3043,1.59758 -0.3043,3.80376 -0.98898,4.33629z" fill="#ffd0ae"/><path d="M263.40377,130.76032c0,0 0,-0.07608 0,-0.3043c0,-0.22823 0,-0.45645 0.07608,-0.83683c0.07608,-0.15215 0.07608,-0.38038 0.22823,-0.53253c0.15215,-0.15215 0.3043,-0.3043 0.6086,-0.38038c0.22823,-0.07608 0.53253,0 0.76075,0.07608c0.22823,0.07608 0.45645,0.3043 0.6086,0.45645c0.3043,0.38038 0.53253,0.76075 0.6086,1.2172c0.15215,0.38038 0.22823,0.76075 0.22823,1.14113c0.07608,0.68468 -0.07608,1.14113 -0.07608,1.14113c0,0 0,-0.45645 -0.15215,-1.06505c-0.15215,-0.6086 -0.45645,-1.44543 -0.98898,-2.05403c-0.15215,-0.15215 -0.22823,-0.22823 -0.38038,-0.3043c-0.15215,-0.07608 -0.3043,-0.07608 -0.45645,-0.07608c-0.3043,0.07608 -0.53253,0.3043 -0.68468,0.6086c-0.15215,0.3043 -0.22823,0.53253 -0.22823,0.76075c-0.15215,0 -0.15215,0.15215 -0.15215,0.15215z" fill="#bf8865"/><path d="M265.83818,130.5321c0,0 -0.07608,0.07608 -0.22823,0.22823c-0.15215,0.15215 -0.3043,0.3043 -0.45645,0.53253c-0.3043,0.38038 -0.6086,0.9129 -0.6086,0.9129c0,0 0,-0.15215 0,-0.38038c0,-0.22823 0.07608,-0.53253 0.3043,-0.76075c0.07608,-0.15215 0.22823,-0.22823 0.3043,-0.3043c0.07608,-0.07608 0.22823,-0.15215 0.3043,-0.15215c0.22823,-0.15215 0.38038,-0.07608 0.38038,-0.07608z" fill="#bf8865"/></g><g fill="#bf8865"><path d="M279.3035,130.76032c0,0 0.38038,0.15215 0.83683,0.6086c0.45645,0.45645 0.98898,1.06505 1.29328,1.97796c0.07608,0.22823 0.07608,0.45645 0.07608,0.68468c0,0.15215 0,0.22823 0,0.3043c0,0.15215 -0.07608,0.22823 -0.07608,0.3043c-0.15215,0.38038 -0.45645,0.68468 -0.76075,0.83683c-0.53253,0.38038 -0.9129,0.45645 -0.9129,0.45645c0,0 0.07608,-0.07608 0.22823,-0.15215c0.15215,-0.07608 0.38038,-0.22823 0.53253,-0.45645c0.22823,-0.22823 0.45645,-0.45645 0.53253,-0.76075c0,-0.07608 0.07608,-0.15215 0.07608,-0.22823c0,-0.07608 0,-0.22823 0,-0.22823c0,-0.15215 -0.07608,-0.38038 -0.07608,-0.53253c-0.22823,-0.76075 -0.68468,-1.36935 -0.98898,-1.90188c-0.45645,-0.53253 -0.76075,-0.9129 -0.76075,-0.9129z"/><path d="M277.93414,135.55307c0,0 0.22823,-0.3043 0.53253,-0.38038c0.3043,-0.15215 0.6086,-0.07608 0.68468,-0.07608c0,0 -0.07608,0.07608 -0.15215,0.15215c-0.07608,0.07608 -0.22823,0.15215 -0.38038,0.22823c-0.3043,0.15215 -0.68468,0.07608 -0.68468,0.07608z"/></g><g><path d="M281.35753,134.79231c2.81479,1.44543 1.2172,3.42339 1.2172,3.42339c-0.15215,-0.76075 -0.76075,-1.06505 -0.76075,-1.06505c0.3043,0.45645 -0.22823,0.98898 -0.22823,0.98898c-0.3043,-0.53253 -1.06505,-1.36935 -1.06505,-1.36935c0.45645,0.6086 0.3043,1.52151 0.3043,1.52151c-1.2172,0 -1.52151,-0.98898 -1.52151,-0.98898c-0.38038,1.44543 -2.28226,1.59758 -2.28226,1.59758c-0.38038,-0.53253 -0.15215,-1.29328 -0.15215,-1.29328c-0.53253,0.9129 -2.20618,1.36935 -2.20618,1.36935c-0.68468,-1.52151 0.53253,-2.28226 0.53253,-2.28226c-0.45645,0.15215 -0.9129,0.6086 -0.9129,0.6086c0.15215,-1.2172 1.2172,-1.74973 2.89086,-1.97796c1.44543,0.6086 2.35833,1.36935 4.18414,-0.53253z" fill="#bf7547"/><path d="M274.58683,139.05253c0,0 0.15215,-0.07608 0.38038,-0.22823c0.22823,-0.15215 0.45645,-0.3043 0.76075,-0.45645c0.3043,-0.15215 0.53253,-0.3043 0.76075,-0.38038c0.07608,-0.07608 0.22823,-0.07608 0.22823,-0.15215c0.07608,-0.07608 0.07608,-0.07608 0.07608,-0.07608c0,0 0,0.15215 -0.15215,0.38038c-0.15215,0.22823 -0.38038,0.45645 -0.68468,0.6086c-0.3043,0.15215 -0.6086,0.22823 -0.9129,0.3043c-0.22823,0 -0.45645,0 -0.45645,0z" fill="#8c5634"/><path d="M274.28253,137.3028c0,0 0,-0.15215 0.15215,-0.3043c0.07608,-0.15215 0.3043,-0.3043 0.45645,-0.45645c0.22823,-0.15215 0.45645,-0.22823 0.6086,-0.22823c0.22823,0 0.3043,0 0.3043,0c0,0 0,0 -0.07608,0.07608c-0.07608,0 -0.07608,0.07608 -0.15215,0.15215c-0.15215,0.15215 -0.3043,0.22823 -0.53253,0.38038c-0.22823,0.15215 -0.38038,0.22823 -0.53253,0.3043c-0.15215,0.07608 -0.22823,0.07608 -0.22823,0.07608z" fill="#8c5634"/><path d="M276.94517,138.97645c0,0 0.15215,-0.07608 0.45645,-0.15215c0.22823,-0.07608 0.53253,-0.22823 0.83683,-0.45645c0.3043,-0.15215 0.53253,-0.38038 0.68468,-0.6086c0.07608,-0.07608 0.15215,-0.15215 0.22823,-0.22823c0.07608,-0.07608 0.07608,-0.07608 0.07608,-0.07608c0,0 0,0.07608 0,0.15215c0,0.07608 0,0.22823 -0.07608,0.38038c-0.07608,0.15215 -0.15215,0.3043 -0.22823,0.45645c-0.07608,0.15215 -0.22823,0.3043 -0.38038,0.38038c-0.3043,0.22823 -0.76075,0.38038 -1.06505,0.3043c-0.38038,-0.07608 -0.53253,-0.15215 -0.53253,-0.15215z" fill="#8c5634"/><path d="M282.42259,138.29178c0,0 0,-0.07608 0.07608,-0.15215c0.07608,-0.07608 0.07608,-0.3043 0.15215,-0.45645c0.07608,-0.38038 0.15215,-0.83683 -0.07608,-1.29328c-0.07608,-0.07608 -0.07608,-0.22823 -0.15215,-0.3043c-0.07608,-0.07608 -0.15215,-0.22823 -0.22823,-0.3043c-0.07608,-0.07608 -0.15215,-0.15215 -0.22823,-0.22823c-0.07608,-0.07608 -0.15215,-0.15215 -0.22823,-0.22823c-0.15215,-0.15215 -0.3043,-0.22823 -0.38038,-0.3043c-0.07608,-0.07608 -0.15215,-0.15215 -0.15215,-0.15215c0,0 0.07608,0 0.15215,0.07608c0.07608,0.07608 0.3043,0.07608 0.45645,0.15215c0.15215,0.07608 0.38038,0.22823 0.6086,0.38038c0.22823,0.15215 0.38038,0.38038 0.53253,0.68468c0.15215,0.3043 0.22823,0.6086 0.15215,0.9129c0,0.3043 -0.15215,0.53253 -0.22823,0.68468c-0.07608,0.15215 -0.22823,0.3043 -0.3043,0.38038c-0.15215,0.15215 -0.15215,0.15215 -0.15215,0.15215z" fill="#8c5634"/><path d="M280.67285,138.36785c0,0 -0.07608,-0.07608 -0.07608,-0.22823c0,-0.07608 -0.07608,-0.15215 -0.07608,-0.22823c0,-0.07608 0,-0.15215 -0.07608,-0.3043c-0.07608,-0.38038 -0.07608,-0.76075 -0.07608,-0.76075c0,0 0.07608,0.07608 0.22823,0.15215c0.07608,0.07608 0.07608,0.15215 0.15215,0.22823c0,0.07608 0.07608,0.22823 0.07608,0.3043c0,0.22823 0,0.38038 0,0.53253c-0.07608,0.22823 -0.15215,0.3043 -0.15215,0.3043z" fill="#8c5634"/><path d="M281.43361,138.2157c0,0 0,-0.07608 0,-0.15215c0,-0.07608 0.07608,-0.22823 0.07608,-0.3043c0,-0.07608 0,-0.07608 0.07608,-0.15215c0,-0.07608 0,-0.07608 0.07608,-0.15215c0,-0.07608 0.07608,-0.15215 0.07608,-0.15215c0,0 0.07608,0.07608 0.07608,0.15215c0.07608,0.07608 0.07608,0.22823 0.07608,0.38038c0,0.07608 -0.07608,0.15215 -0.07608,0.22823c0,0.07608 -0.07608,0.07608 -0.15215,0.15215c-0.15215,0 -0.22823,0 -0.22823,0z" fill="#8c5634"/></g></g><g><g><path d="M260.66506,159.06033c0,2.51048 -2.73871,3.42339 -2.73871,3.42339c0.68468,-0.3043 1.14113,-1.44543 1.14113,-1.44543c-1.52151,2.20618 -3.87984,0.83683 -3.87984,0.83683c0.6086,0.07608 2.51048,-0.07608 2.05403,-2.05403c-0.38038,-1.97796 0.76075,-2.73871 1.90188,-2.66263c1.06505,0.07608 1.52151,1.06505 1.52151,1.90188z" fill="#bf7547"/><path d="M255.18764,161.87511c0,0 0.07608,0 0.3043,0c0.15215,0 0.38038,-0.07608 0.68468,-0.15215c0.22823,-0.15215 0.45645,-0.38038 0.68468,-0.68468c0.07608,-0.15215 0.15215,-0.3043 0.22823,-0.45645c0.07608,-0.15215 0.07608,-0.3043 0.07608,-0.53253c0,-0.38038 -0.07608,-0.76075 -0.07608,-1.2172c0,-0.22823 0.07608,-0.38038 0.15215,-0.6086c0.07608,-0.15215 0.22823,-0.3043 0.3043,-0.45645c0.22823,-0.22823 0.45645,-0.3043 0.68468,-0.38038c0.15215,-0.07608 0.22823,-0.07608 0.22823,-0.07608c0,0 -0.07608,0.07608 -0.22823,0.15215c-0.15215,0.07608 -0.3043,0.3043 -0.45645,0.53253c-0.07608,0.15215 -0.15215,0.22823 -0.15215,0.38038c0,0.15215 -0.07608,0.3043 -0.07608,0.45645c0,0.38038 0.15215,0.76075 0.15215,1.2172c0,0.22823 -0.07608,0.45645 -0.15215,0.68468c-0.07608,0.22823 -0.15215,0.38038 -0.3043,0.53253c-0.22823,0.3043 -0.6086,0.6086 -0.9129,0.68468c-0.3043,0.07608 -0.6086,0.07608 -0.76075,0c-0.3043,0 -0.38038,-0.07608 -0.38038,-0.07608z" fill="#8c5634"/></g><g><path d="M263.02339,135.85737c2.58656,3.04301 -0.9129,7.15108 -0.9129,7.15108c2.35833,4.10806 -0.98898,6.31425 -0.98898,6.31425c1.2172,2.28226 -0.3043,4.56452 -0.3043,4.56452c1.06505,3.57554 -2.05403,3.80376 -2.05403,3.80376c-1.67366,-1.97796 -0.22823,-3.49946 -0.22823,-3.49946c-2.43441,-2.89086 -0.15215,-4.71667 -0.15215,-4.71667c-2.43441,-4.03199 0.15215,-5.78172 0.15215,-5.78172c-3.87984,-3.57554 -0.53253,-8.52043 -0.53253,-8.52043c1.06505,-1.29328 2.51048,-2.35833 5.02097,0.68468z" fill="#bf7547"/><path d="M259.75215,137.45495c0,0 0.3043,0.15215 0.6086,0.45645c0.3043,0.3043 0.68468,0.83683 0.9129,1.36935c0.07608,0.3043 0.22823,0.6086 0.22823,0.83683c0.07608,0.3043 0.07608,0.53253 0.07608,0.76075c0,0.22823 -0.07608,0.38038 -0.07608,0.53253c0,0.15215 -0.07608,0.22823 -0.07608,0.22823c0,0 0,-0.07608 -0.07608,-0.22823c0,-0.15215 -0.07608,-0.3043 -0.15215,-0.53253c-0.07608,-0.45645 -0.22823,-0.98898 -0.45645,-1.44543c-0.07608,-0.22823 -0.22823,-0.53253 -0.38038,-0.76075c-0.15215,-0.22823 -0.22823,-0.45645 -0.38038,-0.6086c0,-0.38038 -0.22823,-0.6086 -0.22823,-0.6086z" fill="#8c5634"/><path d="M261.27366,139.66113c0,0 0,-0.15215 0.07608,-0.45645c0.07608,-0.22823 0.22823,-0.6086 0.45645,-0.83683c0.22823,-0.3043 0.53253,-0.53253 0.76075,-0.6086c0.22823,-0.15215 0.45645,-0.15215 0.45645,-0.15215c0,0 0,0.07608 -0.07608,0.07608c-0.07608,0.07608 -0.07608,0.15215 -0.15215,0.22823c-0.15215,0.22823 -0.38038,0.45645 -0.53253,0.68468c-0.22823,0.22823 -0.38038,0.53253 -0.6086,0.68468c-0.22823,0.22823 -0.38038,0.38038 -0.38038,0.38038z" fill="#8c5634"/><path d="M260.2086,144.45387c0,0 0.22823,0.07608 0.53253,0.3043c0.3043,0.22823 0.6086,0.6086 0.76075,1.06505c0.07608,0.22823 0.15215,0.45645 0.15215,0.68468c0,0.22823 0,0.45645 0,0.6086c0,0.15215 -0.07608,0.3043 -0.15215,0.45645c-0.07608,0.07608 -0.07608,0.15215 -0.07608,0.15215c0,0 0,-0.22823 -0.07608,-0.6086c-0.07608,-0.3043 -0.15215,-0.76075 -0.3043,-1.14113c-0.15215,-0.38038 -0.38038,-0.76075 -0.53253,-1.06505c-0.22823,-0.22823 -0.3043,-0.45645 -0.3043,-0.45645z" fill="#8c5634"/><path d="M259.06748,149.93129c0,0 0.22823,0.07608 0.45645,0.3043c0.22823,0.22823 0.53253,0.53253 0.76075,0.9129c0.22823,0.38038 0.3043,0.83683 0.3043,1.2172c0,0.38038 -0.07608,0.53253 -0.07608,0.53253c0,0 0,-0.07608 -0.07608,-0.15215c0,-0.07608 -0.07608,-0.22823 -0.15215,-0.38038c-0.15215,-0.3043 -0.3043,-0.68468 -0.45645,-0.98898c-0.22823,-0.38038 -0.38038,-0.76075 -0.53253,-0.98898c-0.07608,-0.22823 -0.22823,-0.45645 -0.22823,-0.45645z" fill="#8c5634"/><path d="M259.52393,154.26758c0,0 0.15215,0.15215 0.3043,0.38038c0.15215,0.22823 0.3043,0.6086 0.3043,0.9129c0,0.15215 0,0.38038 -0.07608,0.53253c0,0.15215 -0.07608,0.3043 -0.15215,0.45645c-0.15215,0.22823 -0.3043,0.38038 -0.3043,0.38038c0,0 0,-0.15215 0,-0.45645c0,-0.22823 0,-0.53253 0,-0.9129c0,-0.3043 -0.07608,-0.6086 -0.07608,-0.9129c0,-0.15215 0,-0.38038 0,-0.38038z" fill="#8c5634"/><g fill="#8c5634"><path d="M261.73011,145.13855c0,0 0,0.07608 0,0.22823c0,0.15215 0,0.22823 -0.07608,0.38038c-0.07608,0.15215 -0.07608,0.22823 -0.15215,0.38038c-0.07608,0.07608 -0.15215,0.15215 -0.15215,0.15215c0,0 0,-0.07608 0,-0.22823c0,-0.15215 0,-0.22823 0.07608,-0.38038c0.07608,-0.15215 0.07608,-0.22823 0.15215,-0.38038c0.15215,-0.07608 0.15215,-0.15215 0.15215,-0.15215z"/><path d="M260.66506,150.8442c0,0 0,0.07608 0,0.15215c0,0.07608 0,0.07608 0,0.15215c0,0.07608 -0.07608,0.07608 -0.07608,0.15215c-0.07608,0.07608 -0.15215,0.15215 -0.15215,0.22823c-0.07608,0.07608 -0.07608,0.15215 -0.07608,0.15215c0,0 -0.07608,-0.07608 -0.07608,-0.15215c0,-0.07608 0,-0.22823 0.07608,-0.38038c0.07608,-0.07608 0.15215,-0.22823 0.22823,-0.22823c0,-0.07608 0.07608,-0.07608 0.07608,-0.07608z"/><path d="M260.43683,154.87619c0,0 0,0.07608 0,0.15215c0,0.07608 -0.07608,0.15215 -0.15215,0.3043c-0.07608,0.07608 -0.15215,0.15215 -0.3043,0.15215c-0.07608,0.07608 -0.15215,0.07608 -0.15215,0.07608c0,0 0,-0.07608 0,-0.15215c0,-0.07608 0.07608,-0.15215 0.15215,-0.3043c0.07608,-0.07608 0.15215,-0.15215 0.3043,-0.15215c0.07608,-0.07608 0.15215,-0.07608 0.15215,-0.07608z"/></g><path d="M257.69812,135.70522c0,0 -0.07608,0.15215 -0.15215,0.38038c-0.07608,0.22823 -0.22823,0.53253 -0.3043,0.9129c-0.07608,0.22823 -0.07608,0.38038 -0.15215,0.6086c-0.07608,0.22823 -0.07608,0.45645 -0.15215,0.68468c0,0.22823 -0.07608,0.53253 -0.07608,0.76075c0,0.22823 0,0.53253 0,0.76075c0,0.22823 0.07608,0.53253 0.15215,0.76075c0.07608,0.22823 0.15215,0.45645 0.22823,0.76075c0.07608,0.22823 0.15215,0.45645 0.3043,0.68468c0.07608,0.22823 0.22823,0.38038 0.3043,0.53253c0.07608,0.15215 0.15215,0.38038 0.3043,0.45645c0.07608,0.15215 0.15215,0.22823 0.22823,0.38038c0.15215,0.22823 0.22823,0.3043 0.22823,0.3043c0,0 -0.07608,-0.07608 -0.3043,-0.22823c-0.07608,-0.07608 -0.22823,-0.15215 -0.3043,-0.3043c-0.15215,-0.07608 -0.22823,-0.3043 -0.38038,-0.45645c-0.15215,-0.15215 -0.3043,-0.3043 -0.38038,-0.53253c-0.07608,-0.22823 -0.22823,-0.45645 -0.38038,-0.68468c-0.07608,-0.22823 -0.22823,-0.53253 -0.22823,-0.76075c-0.07608,-0.3043 -0.15215,-0.53253 -0.15215,-0.83683c-0.15215,-1.14113 0.15215,-2.28226 0.53253,-3.04301c0.3043,-0.76075 0.68468,-1.14113 0.68468,-1.14113z" fill="#8c5634"/><path d="M262.18656,143.00844c0,0 0.38038,0.3043 0.68468,0.9129c0.07608,0.15215 0.15215,0.3043 0.22823,0.53253c0.07608,0.15215 0.15215,0.38038 0.15215,0.6086c0,0.22823 0.07608,0.45645 0.07608,0.68468c0,0.22823 0,0.45645 -0.07608,0.68468c0,0.22823 -0.15215,0.45645 -0.15215,0.68468c-0.07608,0.22823 -0.22823,0.38038 -0.3043,0.6086c-0.15215,0.15215 -0.22823,0.38038 -0.38038,0.53253c-0.15215,0.15215 -0.3043,0.3043 -0.38038,0.38038c-0.22823,0.22823 -0.53253,0.38038 -0.68468,0.53253c-0.15215,0.07608 -0.22823,0.15215 -0.22823,0.15215c0,0 0.07608,-0.07608 0.22823,-0.22823c0.15215,-0.15215 0.3043,-0.38038 0.53253,-0.6086c0.07608,-0.15215 0.22823,-0.3043 0.3043,-0.45645c0.07608,-0.15215 0.15215,-0.3043 0.3043,-0.53253c0.07608,-0.15215 0.15215,-0.38038 0.22823,-0.53253c0.07608,-0.22823 0.15215,-0.38038 0.15215,-0.6086c0.07608,-0.22823 0.07608,-0.38038 0.07608,-0.6086c0,-0.22823 0,-0.38038 0,-0.6086c-0.07608,-0.22823 -0.07608,-0.38038 -0.07608,-0.53253c-0.07608,-0.15215 -0.07608,-0.38038 -0.15215,-0.53253c-0.07608,-0.3043 -0.22823,-0.6086 -0.3043,-0.76075c-0.22823,-0.22823 -0.22823,-0.3043 -0.22823,-0.3043z" fill="#8c5634"/><path d="M258.3828,149.47484c0,0 -0.22823,0.22823 -0.38038,0.68468c-0.07608,0.22823 -0.15215,0.45645 -0.22823,0.76075c0,0.15215 0,0.3043 -0.07608,0.45645c0,0.15215 0,0.3043 0,0.45645c0,0.15215 0,0.3043 0.07608,0.45645c0.07608,0.15215 0.07608,0.3043 0.15215,0.45645c0.07608,0.3043 0.22823,0.53253 0.3043,0.76075c0.07608,0.22823 0.15215,0.38038 0.22823,0.53253c0.07608,0.15215 0.07608,0.22823 0.07608,0.22823c0,0 -0.07608,-0.07608 -0.15215,-0.15215c-0.07608,-0.07608 -0.3043,-0.22823 -0.38038,-0.45645c-0.15215,-0.22823 -0.3043,-0.45645 -0.45645,-0.76075c-0.07608,-0.15215 -0.15215,-0.3043 -0.15215,-0.45645c-0.07608,-0.15215 -0.07608,-0.3043 -0.07608,-0.53253c0,-0.38038 0,-0.68468 0.07608,-1.06505c0.07608,-0.3043 0.22823,-0.6086 0.38038,-0.76075c0.3043,-0.45645 0.6086,-0.6086 0.6086,-0.6086z" fill="#8c5634"/><path d="M260.81721,153.88721c0,0 0.15215,0.3043 0.3043,0.76075c0.07608,0.22823 0.07608,0.53253 0.07608,0.83683c0,0.3043 -0.07608,0.68468 -0.22823,0.98898c-0.07608,0.15215 -0.15215,0.3043 -0.3043,0.45645c-0.07608,0.15215 -0.22823,0.22823 -0.38038,0.38038c-0.15215,0.07608 -0.3043,0.15215 -0.38038,0.22823c-0.15215,0.07608 -0.22823,0.07608 -0.38038,0.15215c-0.22823,0.07608 -0.45645,0.07608 -0.6086,0.07608c-0.15215,0 -0.22823,0 -0.22823,0c0,0 0.07608,-0.07608 0.22823,-0.07608c0.15215,-0.07608 0.3043,-0.15215 0.53253,-0.22823c0.07608,-0.07608 0.22823,-0.07608 0.3043,-0.15215c0.07608,-0.07608 0.22823,-0.15215 0.3043,-0.22823c0.07608,-0.07608 0.22823,-0.15215 0.3043,-0.3043c0.07608,-0.07608 0.15215,-0.22823 0.22823,-0.38038c0.07608,-0.15215 0.07608,-0.22823 0.15215,-0.38038c0,-0.15215 0.07608,-0.3043 0.07608,-0.38038c0.07608,-0.3043 0.07608,-0.53253 0.07608,-0.76075c-0.07608,-0.68468 -0.07608,-0.98898 -0.07608,-0.98898z" fill="#8c5634"/></g></g></g></g></g></svg>