<svg version="1.1" xmlns="http://www.w3.org/2000/svg" xmlns:xlink="http://www.w3.org/1999/xlink" width="60.33909" height="24.911" viewBox="0,0,60.33909,24.911"><g transform="translate(-208.99992,-131)"><g data-paper-data="{&quot;isPaintingLayer&quot;:true}" fill-rule="nonzero" stroke="none" stroke-width="1" stroke-linecap="butt" stroke-linejoin="miter" stroke-miterlimit="10" stroke-dasharray="" stroke-dashoffset="0" style="mix-blend-mode: normal"><g><path d="M223.66601,139.351c-0.15,1.165 -1.042,1.756 -2.086,1.996c-1.919,0.462 -1.128,4.158 -3.097,4.361c-1.011,0.112 -1.549,-0.61 -2.559,-0.443c-1.228,0.204 -1.094,1.978 -2.289,2.366c-1.095,0.351 -2.492,0.443 -2.829,-0.739c-0.27,-0.961 0.202,-1.57 0.337,-2.587c-0.186,-0.998 -1.314,-0.813 -1.887,-1.626c-0.605,-0.869 -0.049,-2.014 0.742,-2.661c1.128,-0.925 2.744,-0.167 3.367,-1.552c0.235,-0.517 0.033,-0.943 0.202,-1.479c0.658,-2.088 3.316,-1.847 5.116,-0.813c0.776,0.445 1.28,-0.629 2.155,-0.739c0.96,-0.129 2.003,0.277 2.155,1.331c0.151,1.052 0.807,1.552 0.673,2.585z" fill="#272525"/><path d="M224.95601,141.704c-0.575,0.316 -3.125,0.051 -3.68,-0.711c-0.661,-0.908 0.641,-4.403 1.53,-4.647c0.703,-0.193 2.979,0.934 3.167,1.861c0.072,0.361 -0.14,3.016 -1.017,3.497z" fill="#272525"/><path d="M224.87901,140.979c-0.338,0.186 -2.458,-0.11 -2.727,-0.479c-0.269,-0.372 0.707,-3.18 1.111,-3.291c0.403,-0.111 2.155,0.887 2.222,1.22c0.066,0.332 -0.27,2.365 -0.606,2.55z" fill="#ff9cd1"/></g><g><path d="M255.25201,137.471c0,-1.129 0.643,-2.176 1.669,-2.226c0.864,-0.032 1.224,0.9 2.087,0.851c0.73,-0.049 0.941,-0.701 1.61,-1.047c1.966,-1.02 3.353,-0.229 3.516,1.375c0.194,1.93 3.608,1.341 3.399,3.273c-0.074,0.719 -0.746,0.981 -0.655,1.702c0.06,0.572 0.655,0.572 1.072,0.916c0.596,0.49 1.344,1.239 1.389,2.074c-0.356,1.178 -0.835,1.963 -1.907,2.356c-1.046,0.376 -2.195,-0.945 -3.179,-1.421c-0.804,-0.391 -1.235,0.688 -2.087,0.917c-1.206,0.328 -2.727,0.082 -2.979,-1.244c-0.166,-0.867 0.117,-1.897 -0.658,-2.16c-0.908,-0.294 -1.997,-0.146 -2.207,-1.177c-0.131,-0.704 0.478,-1.277 0.062,-1.833c-0.401,-0.54 -1.327,0 -1.55,-0.654c-0.207,-0.638 0.418,-1.014 0.418,-1.702z" fill="#272525"/><path d="M251.81301,138.207c0.187,-0.928 2.461,-2.055 3.166,-1.861c0.888,0.244 2.191,3.739 1.529,4.647c-0.555,0.762 -3.106,1.027 -3.68,0.711c-0.877,-0.481 -1.09,-3.136 -1.015,-3.497z" fill="#272525"/><path d="M252.29901,138.429c0.067,-0.333 1.818,-1.331 2.223,-1.22c0.405,0.111 1.381,2.919 1.112,3.291c-0.271,0.369 -2.393,0.665 -2.729,0.479c-0.337,-0.185 -0.673,-2.218 -0.606,-2.55z" fill="#ff9cd1"/></g><g><path d="M222.59001,148.247c-1.091,-0.778 -1.475,-2.257 -0.858,-3.301c0.618,-1.043 2.004,-1.259 3.096,-0.48c1.09,0.778 1.474,2.257 0.857,3.3c-0.618,1.044 -2.004,1.26 -3.095,0.481z" data-paper-data="{&quot;origPos&quot;:null}" fill="#272525"/><path d="M225.49601,147.543c-0.375,0.634 -1.261,0.732 -1.978,0.221c-0.716,-0.512 -0.996,-1.44 -0.621,-2.072c0.375,-0.633 1.26,-0.733 1.978,-0.221c0.718,0.51 0.995,1.438 0.621,2.072z" data-paper-data="{&quot;origPos&quot;:null}" fill="#cf8c6e"/></g><g data-paper-data="{&quot;origPos&quot;:null}"><path d="M252.16501,147.766c-0.617,-1.043 -0.231,-2.522 0.858,-3.3c1.092,-0.779 2.478,-0.563 3.095,0.48c0.618,1.044 0.233,2.523 -0.857,3.301c-1.092,0.779 -2.477,0.563 -3.096,-0.481z" fill="#272525"/><path d="M252.97601,145.471c0.717,-0.512 1.603,-0.412 1.979,0.221c0.373,0.632 0.095,1.561 -0.622,2.072c-0.717,0.511 -1.603,0.413 -1.978,-0.221c-0.376,-0.634 -0.098,-1.562 0.621,-2.072z" fill="#cf8c6e"/><path d="M252.16501,147.766c-0.617,-1.043 -0.231,-2.522 0.858,-3.3c1.092,-0.779 2.478,-0.563 3.095,0.48c0.618,1.044 0.233,2.523 -0.857,3.301c-1.092,0.779 -2.477,0.563 -3.096,-0.481z" fill="none"/><path d="M252.16501,147.766c-0.617,-1.043 -0.231,-2.522 0.858,-3.3c1.092,-0.779 2.478,-0.563 3.095,0.48c0.618,1.044 0.233,2.523 -0.857,3.301c-1.092,0.779 -2.477,0.563 -3.096,-0.481z" fill="none"/></g><path d="M224.55201,143.492c-0.776,-0.702 -1.205,-1.829 -0.91,-3.03c0.307,-1.22 1.675,-0.592 2.036,-1.773c0.295,-0.962 0.014,-1.738 0.375,-2.663c0.522,-1.312 1.567,-1.663 2.626,-1.331c2.077,0.666 1.418,-2.051 3.429,-3.03c1.822,-0.886 2.572,0.906 3.429,1.036c1.112,0.166 1.501,-1.701 3.43,-1.701c1.93,0 2.225,1.867 3.336,1.7c0.857,-0.13 1.608,-1.921 3.43,-1.036c2.013,0.98 1.354,3.696 3.432,3.031c1.059,-0.332 2.104,0.019 2.624,1.331c0.362,0.924 0.081,1.7 0.376,2.662c0.361,1.182 1.729,0.554 2.036,1.773c0.294,1.202 -0.134,2.329 -0.911,3.03z" fill="#272525"/><path d="M222.59001,148.247c-1.091,-0.778 -1.475,-2.257 -0.858,-3.301c0.618,-1.043 2.004,-1.259 3.096,-0.48c1.09,0.778 1.474,2.257 0.857,3.3c-0.618,1.044 -2.004,1.26 -3.095,0.481z" fill="none"/><path d="M222.59001,148.247c-1.091,-0.778 -1.475,-2.257 -0.858,-3.301c0.618,-1.043 2.004,-1.259 3.096,-0.48c1.09,0.778 1.474,2.257 0.857,3.3c-0.618,1.044 -2.004,1.26 -3.095,0.481z" fill="none"/><path d="M224.07101,146.08c0,-5.4295 6.662,-9.831 14.88,-9.831c8.218,0 14.88,4.4015 14.88,9.831c0,5.4295 -6.662,9.831 -14.88,9.831c-8.218,0 -14.88,-4.4015 -14.88,-9.831z" data-paper-data="{&quot;origPos&quot;:null}" fill="#272525"/><path d="M252.27901,146.08c0,3.814 -5.184,8.796 -13.328,8.796c-8.147,0 -13.33,-4.982 -13.33,-8.796c0,-3.813 5.182,-8.128 13.329,-8.128c8.147,0 13.329,4.315 13.329,8.128z" fill="#cf8c6e"/><path d="M237.17401,147.82769c-0.082,0.357 -0.894,0.468 -0.96,-0.009c-0.032,-0.245 0.468,-2.001 2.491,-2.022h0.037c2.018,0.022 2.521,1.777 2.488,2.022c-0.064,0.477 -0.876,0.366 -0.958,0.009c-0.082,-0.353 -0.317,-1.153 -1.529,-1.171h-0.04c-1.21,0.019 -1.448,0.819 -1.529,1.171z" data-paper-data="{&quot;origPos&quot;:null,&quot;index&quot;:null}" fill="#272525"/><path d="M232.43901,148.9351c0,0 2.319,1.109 6.351,1.109c4.032,0 6.353,-1.109 6.353,-1.109c0,1.062 -2.318,4.897 -6.353,4.897c-4.032,0 -6.351,-3.836 -6.351,-4.897z" data-paper-data="{&quot;origPos&quot;:null}" fill="#272525"/><path d="M232.12501,142.8081c0,-0.8163 0.4974,-1.478 1.111,-1.478c0.6136,0 1.111,0.6617 1.111,1.478c0,0.8163 -0.4974,1.478 -1.111,1.478c-0.6136,0 -1.111,-0.6617 -1.111,-1.478z" data-paper-data="{&quot;origPos&quot;:null}" fill="#272525"/><path d="M243.23501,142.8081c0,-0.8163 0.4974,-1.478 1.111,-1.478c0.6136,0 1.111,0.6617 1.111,1.478c0,0.8163 -0.4974,1.478 -1.111,1.478c-0.6136,0 -1.111,-0.6617 -1.111,-1.478z" data-paper-data="{&quot;origPos&quot;:null}" fill="#272525"/></g></g></svg>