<svg version="1.1" xmlns="http://www.w3.org/2000/svg" xmlns:xlink="http://www.w3.org/1999/xlink" width="58.37727" height="46.19342" viewBox="0,0,58.37727,46.19342"><defs><linearGradient x1="251.90609" y1="145.59653" x2="251.90609" y2="147.29684" gradientUnits="userSpaceOnUse" id="color-1"><stop offset="0" stop-color="#ffffff"/><stop offset="1" stop-color="#ffffff" stop-opacity="0"/></linearGradient></defs><g transform="translate(-210.6925,-126.30747)"><g data-paper-data="{&quot;isPaintingLayer&quot;:true}" fill-rule="nonzero" stroke="none" stroke-linecap="butt" stroke-linejoin="miter" stroke-miterlimit="10" stroke-dasharray="" stroke-dashoffset="0" style="mix-blend-mode: normal"><path d="M264.50728,149.43166c0,8.40058 -3.68981,18.35854 -11.08766,22.1438c-1.61484,0.82626 -4.59053,0.97947 -7.28287,0.91089c-3.01233,-0.07673 -5.66996,-0.43114 -5.66996,-0.43114c0,0 -11.68143,1.03981 -15.85541,-2.24798c-5.18044,-4.08055 -7.99614,-13.57165 -7.99614,-20.37557c0,-12.28596 10.72099,-22.24571 23.94602,-22.24571c13.22502,0 23.94602,9.95974 23.94602,22.24571z" fill="#e0d4b0" stroke-width="0"/><path d="M269.06977,137.35948c0,6.10385 -5.01159,11.052 -11.1937,11.052c-6.18211,0 -11.1937,-4.94815 -11.1937,-11.052c0,-6.10385 5.01159,-11.052 11.1937,-11.052c6.18211,0 11.1937,4.94815 11.1937,11.05202z" fill="#e0d4b0" stroke-width="0"/><path d="M221.8862,126.30747c6.18211,0 11.1937,4.94815 11.1937,11.05202c0,6.10385 -5.01159,11.052 -11.1937,11.052c-6.18211,0 -11.1937,-4.94815 -11.1937,-11.052c0,-6.10385 5.01159,-11.052 11.1937,-11.052z" data-paper-data="{&quot;index&quot;:null}" fill="#e0d4b0" stroke-width="0"/><path d="M252.99241,148.28869c0,2.73891 -1.26876,4.95924 -2.83385,4.95924c-1.56509,0 -2.83385,-2.22032 -2.83385,-4.95924c0,-2.73891 1.26876,-4.95924 2.83385,-4.95924c1.56509,0 2.83385,2.22032 2.83385,4.95924z" fill="#2f2d25" stroke-width="0"/><path d="M234.85578,152.96453c0,0 3.77754,-1.03907 5.57323,-1.03907c1.57623,0 4.62862,1.03907 4.62862,1.03907l-5.00646,5.76216z" fill="#2f2d25" stroke-width="0"/><path d="M248.22209,167.03931c0,0.70847 -0.70846,0.70847 -0.70846,0.70847l-0.18234,-0.00547c-2.85176,-0.3611 -6.68656,-1.08066 -7.58608,-4.39063c-0.21169,-0.77894 -0.11912,-1.65559 -0.11912,-2.45237c0,0 0,-0.70847 0.70847,-0.70847c0.70847,0 0.70846,0.70847 0.70846,0.70847c0,0.66334 -0.09874,1.43055 0.0698,2.08179c0.68746,2.65635 4.20628,3.08571 6.39424,3.35523l0.00658,-0.00547c0,0 0.70847,0 0.70847,0.70846z" fill="#2f2d25" stroke-width="0.5"/><path d="M253.84255,162.93023c0.70846,0 0.70846,0.70846 0.70846,0.70846l-0.05729,0.46801c-0.19463,0.45223 -0.46172,1.15509 -0.78677,1.51839c-1.56758,1.75201 -4.24062,2.21715 -6.47671,2.21715c0,0 -0.70846,0 -0.70846,-0.70847c0,-0.70847 0.70846,-0.70847 0.70846,-0.70847c2.38561,0 4.95413,-0.51602 5.96114,-2.87677l-0.05729,0.09016c0,0 0,-0.70846 0.70846,-0.70846z" fill="#2f2d25" stroke-width="0.5"/><path d="M232.3324,167.03931c0,-0.70847 0.70846,-0.70846 0.70846,-0.70846l0.00659,0.00547c2.18795,-0.26952 5.70678,-0.69887 6.39424,-3.35523c0.16854,-0.65124 0.0698,-1.41845 0.0698,-2.08179c0,0 0,-0.70847 0.70847,-0.70847c0.70847,0 0.70846,0.70847 0.70846,0.70847c0,0.79678 0.09256,1.67343 -0.11912,2.45237c-0.89952,3.30996 -4.73432,4.02951 -7.58608,4.39063l-0.18234,0.00547c0,0 -0.70846,0 -0.70846,-0.70847z" data-paper-data="{&quot;index&quot;:null}" fill="#2f2d25" stroke-width="0.5"/><path d="M226.71194,162.93023c0.70847,0 0.70847,0.70846 0.70847,0.70846l-0.05729,-0.09016c1.007,2.36075 3.57552,2.87677 5.96114,2.87677c0,0 0.70847,0 0.70847,0.70847c0,0.70847 -0.70847,0.70847 -0.70847,0.70847c-2.2361,0 -4.90912,-0.46515 -6.47671,-2.21715c-0.32505,-0.3633 -0.59215,-1.06617 -0.78677,-1.51839l-0.05729,-0.46801c0,0 0,-0.70846 0.70847,-0.70846z" data-paper-data="{&quot;index&quot;:null}" fill="#2f2d25" stroke-width="0.5"/><path d="M250.96148,159.48239c0,-0.39127 0.31718,-0.70846 0.70846,-0.70846c0.39127,0 0.70847,0.31718 0.70847,0.70846c0,0.39127 -0.3172,0.70847 -0.70847,0.70847c-0.39127,0 -0.70846,-0.3172 -0.70846,-0.70847z" fill="#2f2d25" stroke-width="0.5"/><path d="M258.14056,160.427c0,-0.39127 0.31718,-0.70846 0.70846,-0.70846c0.39127,0 0.70846,0.31718 0.70846,0.70846c0,0.39127 -0.31718,0.70846 -0.70846,0.70846c-0.39127,0 -0.70846,-0.31718 -0.70846,-0.70846z" fill="#2f2d25" stroke-width="0.5"/><path d="M255.49564,154.28699c0,-0.39127 0.31718,-0.70846 0.70846,-0.70846c0.39127,0 0.70847,0.31718 0.70847,0.70846c0,0.39127 -0.3172,0.70846 -0.70847,0.70846c-0.39127,0 -0.70846,-0.31718 -0.70846,-0.70846z" fill="#2f2d25" stroke-width="0.5"/><path d="M227.72393,160.04916c0,-0.39127 0.31718,-0.70846 0.70846,-0.70846c0.39127,0 0.70847,0.31718 0.70847,0.70846c0,0.39127 -0.31718,0.70846 -0.70847,0.70846c-0.39127,0 -0.70846,-0.31718 -0.70846,-0.70846z" fill="#2f2d25" stroke-width="0.5"/><path d="M221.11161,160.33255c0,-0.39127 0.31718,-0.70847 0.70846,-0.70847c0.39127,0 0.70846,0.3172 0.70846,0.70847c0,0.39127 -0.31718,0.70846 -0.70846,0.70846c-0.39127,0 -0.70846,-0.31718 -0.70846,-0.70846z" fill="#2f2d25" stroke-width="0.5"/><path d="M223.00084,154.85377c0,-0.39127 0.31718,-0.70846 0.70846,-0.70846c0.39127,0 0.70847,0.31718 0.70847,0.70846c0,0.39127 -0.31718,0.70847 -0.70847,0.70847c-0.39127,0 -0.70846,-0.3172 -0.70846,-0.70847z" fill="#2f2d25" stroke-width="0.5"/><path d="M247.69207,138.37212c0.0461,-0.0016 0.07462,0.001 0.07462,0.001c2.06165,0.19616 4.20826,1.23473 6.07589,2.13441c0.76048,0.36634 1.78547,0.65502 1.20142,2.0032c-0.43712,1.00899 -1.6175,0.6497 -2.27777,0.45104c-1.76114,-0.5299 -3.38724,-1.51396 -5.12653,-2.08733c-0.32518,-0.1732 -0.75485,-0.22458 -0.97554,-0.5196c-0.22323,-0.29842 -0.15425,-0.72922 -0.23137,-1.09382l0.39095,-0.77776c0,0 0.41564,-0.41564 0.86833,-0.11113z" fill="#2f2d25" stroke-width="0.5"/><path d="M225.28908,142.08435c-0.03613,-0.14451 -0.03428,-0.26623 -0.00881,-0.36836c-0.13891,-0.4406 0.27104,-0.74809 0.27104,-0.74809c1.02728,-0.7595 2.1135,-1.14196 3.32849,-1.52557c0.52448,-0.1656 1.10392,-0.17769 1.59337,-0.42858c0.22154,-0.11355 0.34844,-0.37354 0.57511,-0.47648c0.31736,-0.14413 0.67557,-0.1726 1.01626,-0.24626c0.55128,-0.11919 1.81387,-0.47512 2.31648,0.06849c0.96377,1.04234 0.38389,1.87828 -0.54206,2.39738c-0.77433,0.43411 -2.01316,0.40362 -2.86443,0.61268c-0.80338,0.19731 -1.41097,0.56839 -2.26708,0.66123c-0.75169,0.31418 -1.40116,0.27313 -2.1814,0.47456l-0.37785,0.09446c0,0 -0.6873,0.17183 -0.85914,-0.51548z" fill="#2f2d25" stroke-width="0.5"/><path d="M252.80348,146.44669c0,0.46953 -0.40178,0.85016 -0.89739,0.85016c-0.49561,0 -0.89739,-0.38063 -0.89739,-0.85016c0,-0.46953 0.40178,-0.85016 0.89739,-0.85016c0.49561,0 0.89739,0.38063 0.89739,0.85016z" fill="url(#color-1)" stroke-width="0"/></g></g></svg>