<svg version="1.1" xmlns="http://www.w3.org/2000/svg" xmlns:xlink="http://www.w3.org/1999/xlink" width="211.3" height="163" viewBox="0,0,211.3,163"><g transform="translate(-134.35,-98.5)"><g data-paper-data="{&quot;isPaintingLayer&quot;:true}" stroke-miterlimit="10" stroke-dasharray="" stroke-dashoffset="0" style="mix-blend-mode: normal"><path d="M344.65,260.5h-209.3v-161h209.3z" fill="#ffd49b" fill-rule="nonzero" stroke="#000000" stroke-width="2" stroke-linecap="butt" stroke-linejoin="miter"/><text transform="translate(151.25,129.25) scale(0.5,0.5)" font-size="40" xml:space="preserve" fill="#000000" fill-rule="nonzero" stroke="none" stroke-width="1" stroke-linecap="butt" stroke-linejoin="miter" stroke-miterlimit="10" stroke-dasharray="" stroke-dashoffset="0" font-family="Sans Serif" font-weight="normal" text-anchor="start" style="mix-blend-mode: normal"><tspan x="0" dy="0">Joseph</tspan></text><text transform="translate(151.25,158.99324) scale(0.45571,0.45571)" font-size="40" xml:space="preserve" fill="#000000" fill-rule="nonzero" stroke="none" stroke-width="1" stroke-linecap="butt" stroke-linejoin="miter" stroke-miterlimit="10" stroke-dasharray="" stroke-dashoffset="0" font-family="Sans Serif" font-weight="normal" text-anchor="start" style="mix-blend-mode: normal"><tspan x="0" dy="0">Davis</tspan></text><text transform="translate(145.75,187.54139) scale(0.29896,0.29896)" font-size="40" xml:space="preserve" fill="#000000" fill-rule="nonzero" stroke="none" stroke-width="1" stroke-linecap="butt" stroke-linejoin="miter" stroke-miterlimit="10" stroke-dasharray="" stroke-dashoffset="0" font-family="Sans Serif" font-weight="normal" text-anchor="start" style="mix-blend-mode: normal"><tspan x="0" dy="0">Buisness man</tspan></text><text transform="translate(145.25,223.76317) scale(0.39204,0.39204)" font-size="40" xml:space="preserve" fill="#000000" fill-rule="nonzero" stroke="none" stroke-width="1" stroke-linecap="butt" stroke-linejoin="miter" stroke-miterlimit="10" stroke-dasharray="" stroke-dashoffset="0" font-family="Sans Serif" font-weight="normal" text-anchor="start" style="mix-blend-mode: normal"><tspan x="0" dy="0">I Live on the third floor</tspan><tspan x="0" dy="46.15px">In room 301.</tspan></text><text transform="translate(144.75,203.01026) scale(0.30337,0.30337)" font-size="40" xml:space="preserve" fill="#000000" fill-rule="nonzero" stroke="none" stroke-width="1" stroke-linecap="butt" stroke-linejoin="miter" stroke-miterlimit="10" stroke-dasharray="" stroke-dashoffset="0" font-family="Sans Serif" font-weight="normal" text-anchor="start" style="mix-blend-mode: normal"><tspan x="0" dy="0">ID: 3875</tspan></text><g fill-rule="evenodd" stroke-width="0.75"><path d="M299.85348,164.49014c0.18792,-0.12528 0.50113,-0.06264 0.56377,0.18792l1.62864,6.70249c0,0 4.00897,2.94408 5.19913,5.01121c2.00448,3.4452 2.06712,6.26401 2.06712,6.26401c0,0 4.44745,1.31544 5.19913,4.88592c0.75168,3.57048 -2.00448,10.33561 -13.78082,12.6533c-11.77634,2.31769 -21.235,-0.87696 -25.68245,-8.01793c-4.44745,-7.14097 2.56824,-15.66002 2.19241,-15.15891l-1.31544,-11.21258c-0.06264,-0.25056 0.25056,-0.43848 0.50112,-0.3132l7.57945,4.94857c0,0 2.81881,-1.06488 5.76289,-1.19016c1.75392,-0.12528 3.25729,0 4.69801,0.25056z" fill="#ffab19" stroke="#001026" stroke-linecap="butt" stroke-linejoin="miter"/><path d="M309.12422,182.90633c0,0 4.32217,1.12752 5.07385,4.698c0.75168,3.57048 -2.25504,10.02241 -13.9061,12.27746c-15.15891,3.132 -22.36251,-5.88817 -18.16563,-12.52802c4.19689,-6.70249 11.40049,-1.00224 16.66226,-1.37808c4.51009,-0.3132 5.0112,-4.25952 10.33561,-3.06936z" fill="#ffffff" stroke="none" stroke-linecap="butt" stroke-linejoin="miter"/><path d="M289.39259,189.60882c0,-0.25056 0.25056,-0.43848 0.50112,-0.37584c1.19016,0.43848 4.57273,1.44072 8.33114,1.69128c3.38256,0.18792 5.38705,-0.00001 6.32665,-0.18793c0.3132,-0.06264 0.56376,0.25056 0.43848,0.56376c-0.56376,1.69128 -2.94409,6.38929 -9.5213,6.01345c-5.70025,-0.6264 -6.26401,-4.63537 -6.07609,-7.70473z" fill="#ffffff" stroke="#001026" stroke-linecap="round" stroke-linejoin="round"/><path d="M320.65,183.59537c-2.94408,2.38032 -7.45417,2.44297 -7.45417,2.44297" fill="none" stroke="#001026" stroke-linecap="round" stroke-linejoin="round"/><path d="M319.83568,190.61106c-3.94633,0.3132 -6.38929,-0.87696 -6.38929,-0.87696" fill="none" stroke="#001026" stroke-linecap="round" stroke-linejoin="round"/><path d="M298.53805,184.34705c1.31544,0 2.69353,0.12528 2.75617,0.56376c0.06264,0.87696 -0.87697,2.63088 -1.87921,2.69352c-1.12752,0.12528 -3.7584,-1.44072 -3.7584,-2.44296c-0.06264,-0.75168 1.62865,-0.81432 2.88144,-0.81432z" fill="#001026" stroke="#001026" stroke-linecap="round" stroke-linejoin="round"/><path d="M270.35,183.40745c0,0 5.38704,1.75392 7.57945,3.69576" fill="none" stroke="#001026" stroke-linecap="round" stroke-linejoin="round"/><path d="M278.11737,189.29562c-2.69353,1.06488 -7.32889,0.37584 -7.32889,0.37584" fill="none" stroke="#001026" stroke-linecap="round" stroke-linejoin="round"/><g><path d="M305.92958,177.01816c1.81657,2.8188 1.8792,6.01345 0.12528,7.14097c-1.75392,1.12752 -4.63536,-0.18792 -6.51457,-3.00672c-1.81657,-2.8188 -1.8792,-6.01345 -0.12528,-7.14097c1.75392,-1.19016 4.698,0.18792 6.51457,3.00673z" fill="#ffffff" stroke="#001026" stroke-linecap="round" stroke-linejoin="round"/><path d="M305.67902,180.58864c0,0.68904 -0.50112,1.2528 -1.12752,1.2528c-0.6264,0 -1.12752,-0.56376 -1.12752,-1.2528c0,-0.68904 0.50112,-1.2528 1.12752,-1.2528c0.6264,0 1.12752,0.56376 1.12752,1.2528" fill="#001026" stroke="none" stroke-linecap="butt" stroke-linejoin="miter"/></g><g><path d="M290.39483,178.77208c1.87921,2.75617 1.75392,6.13873 0.06264,7.32889c-2.06712,1.19016 -4.82328,0.3132 -6.70249,-2.44296c-1.94185,-2.75617 -2.06712,-6.32665 -0.12528,-7.70473c1.94185,-1.44072 4.88592,0.06264 6.76513,2.8188z" fill="#ffffff" stroke="#001026" stroke-linecap="round" stroke-linejoin="round"/><path d="M290.01899,182.40521c0,0.68904 -0.50112,1.2528 -1.12752,1.2528c-0.6264,0 -1.12752,-0.56376 -1.12752,-1.2528c0,-0.68904 0.50112,-1.2528 1.12752,-1.2528c0.6264,0.06264 1.12752,0.56376 1.12752,1.2528" fill="#001026" stroke="none" stroke-linecap="butt" stroke-linejoin="miter"/></g></g><text transform="translate(257.22323,254.4375) scale(0.33207,0.33207)" font-size="40" xml:space="preserve" fill="#000000" fill-rule="nonzero" stroke="none" stroke-width="1" stroke-linecap="butt" stroke-linejoin="miter" stroke-miterlimit="10" stroke-dasharray="" stroke-dashoffset="0" font-family="Sans Serif" font-weight="normal" text-anchor="start" style="mix-blend-mode: normal"><tspan x="0" dy="0">Ex: 4/21/1989</tspan></text></g></g></svg>