<svg version="1.1" xmlns="http://www.w3.org/2000/svg" xmlns:xlink="http://www.w3.org/1999/xlink" width="72.09551" height="78.77233" viewBox="0,0,72.09551,78.77233"><g transform="translate(-207.49336,-167.54898)"><g data-paper-data="{&quot;isPaintingLayer&quot;:true}" fill-rule="evenodd" stroke="none" stroke-width="1" stroke-linecap="butt" stroke-linejoin="miter" stroke-miterlimit="10" stroke-dasharray="" stroke-dashoffset="0" style="mix-blend-mode: normal"><g><g fill="#a0640a"><path d="M222.28732,216.40432h10.35693c-1.25283,2.75024 -4.34319,9.00089 -4.34319,9.00089c0,0 -5.67965,0.25004 -7.76772,-0.50007c0.16705,-1.00006 1.16926,-6.00063 1.75397,-8.50082z"/></g><path d="M216.19008,243.24036l4.67736,1.16678c-0.41766,0.83343 -0.66819,1.75017 -0.66819,1.75017c-0.08356,0.33336 -9.02062,-0.83343 -9.4382,-0.83343c0,0 0.08348,-0.83343 0.08348,-0.91674c0.83524,-0.08332 5.34556,-1.16678 5.34556,-1.16678z" fill="#000000"/><g><path d="M227.54931,229.57226c-1.58692,4.16714 -5.17851,11.75121 -6.68187,14.83488l-4.67736,-1.16678l3.59151,-18.66858h10.1064c-1.00229,2.25025 -2.08806,4.41709 -2.33868,5.00048z" fill="#f01446"/><path d="M228.30103,228.65554l-9.4382,-1.33347l0.41762,-1.66683l9.93934,1.0001z" fill="#f5cfcf"/><path d="M227.29874,231.90587l-9.4382,-1.41681l0.41762,-1.66684l9.93934,1.00011z" fill="#f5cfcf"/></g></g><g><g fill="#a0640a"><path d="M263.54809,224.90514c-2.08806,0.75011 -7.76772,0.50007 -7.76772,0.50007c0,0 -3.09036,-6.25065 -4.34327,-9.00089h10.35701c0.6682,2.50019 1.58692,7.50076 1.75397,8.50082z"/></g><path d="M273.32039,245.32388c-0.41766,0 -9.35464,1.3335 -9.35464,0.91674c0,0 -0.25061,-0.91674 -0.66819,-1.75017l4.5938,-1.83349c0,0 4.5938,1.66685 5.42904,1.75017c0.08348,0.08332 0.08348,0.91674 0,0.91674z" fill="#000000"/><g><path d="M267.97484,242.65697l-4.5938,1.83349c-1.50344,-3.08359 -5.09494,-10.75106 -6.68187,-14.83479c-0.25061,-0.66679 -1.2529,-2.75032 -2.33868,-5.08388h10.10641z" fill="#f01446"/><path d="M255.11219,226.73868l9.93934,-1.0001l0.41761,1.66683l-9.4382,1.33347z" fill="#f5cfcf"/><path d="M256.11447,229.90567l9.93934,-1.0001l0.41762,1.66683l-9.4382,1.41681z" fill="#f5cfcf"/></g></g><path d="M224.62598,203.2363l-3.17391,10.75109c-0.66819,-0.83342 -1.00229,-2.66693 -1.00229,-2.66693l1.25286,-7.50076z" fill="#a0640a"/><path d="M266.13734,202.06952v1.75018c-2.92334,2.33357 -3.34096,10.83443 -3.34096,10.83443l-3.25743,-12.33458z" fill="#a0640a"/><path d="M219.11341,219.82131c1.00229,-4.83382 2.25514,-9.50096 3.8421,-14.08476c0.58467,-1.75018 1.16933,-3.50036 1.754,-5.33388c0.16705,-0.66673 3.8421,-9.83433 3.8421,-9.83433c0,0 20.79744,2.16689 29.14982,2.33357c0.91876,2.0002 4.84438,19.66866 6.43134,27.00274h-14.19906l-4.25971,-13.168v0.08335l-7.85125,0.08334l-4.25971,12.58461z" fill="#000000"/><path d="M274.74029,200.56936c-1.67048,2.0002 -3.8421,3.41701 -6.26429,4.16709c-1.25286,0.33336 -2.58924,0.25002 -3.508,1.25012c-0.50115,0.50005 -1.16933,1.75018 -1.33638,1.83352c-0.91876,-1.83352 -0.75171,-2.25023 -1.83752,-3.91707c-1.08581,-1.66683 -3.75858,-0.50005 -4.51029,-2.16689c1.16933,-0.91676 3.59152,-0.25002 5.01143,-0.75007c1.41991,-0.50005 5.01143,-1.91687 6.26429,-3.66704c1.25286,-1.66683 3.92562,-4.66714 2.25514,-10.1677c-1.67048,-5.41721 -6.68191,-7.5841 -11.86039,-7.5841c0,0 -4.76085,-1.16679 -4.17619,-5.08385c0.58467,-3.91707 4.09267,-4.00041 4.09267,-4.00041c0.75171,0 8.93705,1.16679 14.7002,5.25053c3.09039,2.16689 5.67962,8.1675 5.93019,10.25104c0.58466,4.41711 -1.83752,11.25114 -4.76086,14.58481z" fill="#a0640a"/><path d="M224.45893,203.73635c-1.16933,0.25002 -1.50342,0.50005 -2.00457,1.66684c-0.91876,2.16689 -1.16934,3.58369 -2.00458,5.91726c-0.75171,-1.66683 0.58467,-3.33367 -0.58467,-4.83382c-0.91876,-1.25012 -3.42448,-1.83352 -4.59381,-2.75028c-4.00914,-3.08364 -6.59839,-7.41742 -7.51714,-12.33458c-0.91876,-4.83382 0.58467,-11.75119 4.59381,-15.33489c4.59381,-4.00041 10.02286,-5.83392 13.61439,-5.75059c0,0 5.262,-0.66673 5.51257,3.91707c0.25057,4.5838 -3.508,4.91716 -3.508,4.91716c-0.25057,0.08334 -7.51714,-0.33337 -10.8581,4.33377c-3.34096,4.66714 -3.09038,9.50097 -0.91876,13.33469c1.00229,1.83352 2.50572,3.83372 4.17619,4.83382c0.83524,0.50005 1.754,0.83342 2.75629,1.0001c0.75171,0 2.58924,-0.75007 3.25743,-0.08334c1.16933,1.25012 -1.4199,1.0001 -1.92105,1.16678z" fill="#a0640a"/><path d="M254.94514,180.73402c1.67048,6.584 4.1762,13.75139 5.09496,17.7518l-17.12239,0.66673l-18.79287,0.75008c1.67048,-6.33398 4.25972,-13.00131 5.93019,-19.33529c-1.50343,0.08334 -3.00686,-0.08334 -4.51029,-0.25003c0,0 -4.59382,-9.41762 -4.51029,-10.41772c0,0 10.02286,-2.58359 21.13154,-2.33356c6.84895,0.25002 13.78144,1.0001 20.54687,2.25023c0,0.33336 -2.75628,10.91777 -2.75628,10.91777c0,0 -1.25286,0.25002 -5.01144,0z" fill="#f01446"/></g></g></svg>