<svg version="1.1" xmlns="http://www.w3.org/2000/svg" xmlns:xlink="http://www.w3.org/1999/xlink" width="90.90743" height="164.64738" viewBox="0,0,90.90743,164.64738"><g transform="translate(-179.75,-114.99991)"><g data-paper-data="{&quot;isPaintingLayer&quot;:true}" fill-rule="nonzero" stroke="none" stroke-width="1" stroke-linecap="butt" stroke-linejoin="miter" stroke-miterlimit="10" stroke-dasharray="" stroke-dashoffset="0" style="mix-blend-mode: normal"><g><path d="M209.643,248.845c-1.446,0.269 -15.254,-0.53 -15.254,-0.53c0,0 6.175,-15.268 8.026,-19.872c1.921,-4.771 3.908,-9.543 6.02,-14.224c2.38,-0.275 23.536,-4.593 24.934,-4.306c0.387,0.894 -20.388,32.241 -23.726,38.932z" fill="#be0a3c"/><path d="M192.767,251.968h15.093c0,0 -12.957,22.281 -15.545,25.555c-3.707,0.066 -9.037,0.871 -12.565,-0.322l0.381,-0.626h5.188c0.541,-3.596 7.341,-23.993 7.448,-24.607z" fill="#6e1e3c"/><path d="M213.268,244.94l-4.004,8.165l-16.813,-0.543c-0.202,-0.912 1.821,-6.483 2.773,-8.421z" fill="#f0e6d2"/><path d="M207.816,256.131h-16.355c0.078,-0.411 0.143,-0.817 0.22,-1.228h16.658c-0.197,0.399 -0.372,0.809 -0.523,1.228z" fill="#f0e6d2"/></g><g><path d="M244.013,230.539c-0.262,7.39 1.571,17.6 1.571,17.6l-16.301,0.596c-3.719,-5.188 -5.521,-14.468 -6.045,-20.653c-0.333,-3.948 -2.499,-18.16 -2.499,-18.16c0,0 22.911,-1.33 24.625,-0.924c0.136,0.238 0.404,6.262 0.404,6.262c-1.014,5.034 -1.602,10.146 -1.755,15.279z" fill="#f01446"/><path d="M257.169,279.074c-1.249,0.459 -9.049,1.05 -9.679,-0.065l0.22,-0.424c1.276,0.07 2.556,0.026 3.825,-0.131c-3.016,-4.557 -8.263,-8.033 -11.898,-12.155c-2.707,-3.077 -6.89,-8.874 -10.114,-13.353h18.3c1.059,4.348 2.838,8.356 4.254,12.56c1.344,4.002 3.819,8.201 4.616,12.316c0.125,0.429 0.284,0.848 0.476,1.252z" fill="#6e1e3c"/><path d="M248.809,252.419c0,0 -19.234,0.036 -19.727,-0.041c-1.483,-2.248 -2.648,-4.691 -3.463,-7.259l21.489,0.114c0.172,1.354 1.701,7.186 1.701,7.186z" fill="#f0e6d2"/><path d="M249.477,256.376h-19.448c-0.209,-0.525 -0.381,-1.032 -0.506,-1.473l19.49,0.113c0.125,0.463 0.28,0.917 0.464,1.36z" fill="#f0e6d2"/><path d="M238.442,248.263c-0.971,0.102 -1.95,0.102 -2.921,0c-2.005,-4.025 -0.964,-32.801 0.398,-37.376c0.685,0.042 3.052,-0.036 3.719,0c0.148,2.052 -1.268,10.735 -1.595,19.353c-0.185,6.011 -0.051,12.027 0.399,18.023z" fill="#ffc800"/></g><g><path d="M225.631,178.742c-0.827,0 -23.345,-0.56 -23.434,-0.656c0.666,-0.936 3.438,-2.928 6.234,-4.419c2.797,-1.491 7.627,-1.706 9.876,-1.789c4.944,-0.179 8.9,-0.137 10.346,-0.108c0.381,0.34 -2.873,6.722 -3.022,6.972z" fill="#824600"/><path d="M250.623,171.779l-6.545,13.12c-1.624,0.131 -21.649,-2.6 -23.339,-2.678c0,-1.121 3.57,-10.407 3.57,-10.407c0,0 25.832,-0.131 26.314,-0.035z" fill="#6e1e3c"/></g><g fill="#ffc800"><path d="M270.657,120.347c-1.106,2.237 -3.266,4.103 -5.092,5.761c-1.565,1.402 -20.395,18.894 -24.464,22.872c-4.069,3.978 -51.759,49.817 -51.759,49.817c0,0 -1.309,-0.34 -1.784,-0.424c14.528,-18.142 65.876,-74.65 69.547,-78.032c1.707,-1.574 3.873,-4.073 6.02,-4.956c2.832,-1.163 4.349,0.513 6.491,2.302c0.682,0.715 1.056,1.671 1.041,2.66z"/><path d="M185.681,196.643c0.809,-2.445 4.051,-2.553 4.944,-2.308c0.565,0.155 3.522,1.193 3.861,2.439c0.339,1.247 -0.071,3.06 -1.832,4.348c-1.761,1.288 -7.788,-2.04 -6.973,-4.479z"/></g><g><path d="M210.786,177.614c0,0 3.444,0.793 2.326,2.982c-1.119,2.189 -2.975,4.175 -5.319,3.25c-2.344,-0.924 1.702,-5.522 2.993,-6.232z" fill="#642800"/><path d="M199.393,188.542c-1.028,-0.048 -1.97,-0.588 -2.532,-1.452c-0.562,-0.864 -0.676,-1.946 -0.306,-2.908c0.875,-2.6 4.986,-6.172 5.622,-6.608c1.738,-1.193 4.992,-1.193 6.896,-0.316c4.021,1.789 -0.595,8.034 -2.725,8.862c-2.008,1.518 -4.441,2.365 -6.955,2.422z" fill="#824600"/><path d="M210.831,182.359c-0.809,-0.233 -5.271,-0.239 -4.676,-2.493c0.595,-2.255 5.913,-0.829 5.913,-0.829c1.589,2.075 -0.428,3.554 -1.237,3.322z" fill="#642800"/></g><path d="M253.588,197.201c-1.719,5.153 -7.514,18.87 -7.514,18.87l-38.022,-0.274c0,0 4.319,-9.96 9.519,-17.892c5.372,-8.218 11.679,-14.48 16.194,-18.953c4.968,-4.793 11.646,-7.386 18.538,-7.199c0,0 0.47,23.987 1.285,25.448z" fill="#be0a3c"/><g><path d="M247.959,216.776h-42.835l1.785,-4.92h42.24l-1.19,4.92" fill="#6e1e3c"/><path d="M225.619,210.877h3.254v6.877h-3.254v-6.877" fill="#f01446"/><path d="M211.956,210.877h3.254v6.877h-3.254v-6.877" fill="#f01446"/><path d="M240.258,210.877h3.808v6.877h-3.808v-6.877" fill="#f01446"/></g><g><path d="M202.633,186.764c2.505,0.751 0.232,7.3 -1.356,8.898c-2.442,2.481 -6.052,3.406 -9.382,2.404c-1.399,-0.388 -3.862,-0.835 -4.213,-2.571c-1.302,-6.435 7.973,-10.735 9.668,-9.966c2.094,0.937 2.772,0.49 5.283,1.235z" fill="#824600"/><path d="M253.482,195.994c0,0 -37.736,0.042 -41.52,-0.894c-0.125,-0.99 1.66,-6.805 1.66,-6.805l20.638,-0.692l13.297,-10.967z" fill="#824600"/><path d="M215.047,196.815c-1.036,-0.065 -10.043,-0.483 -14.802,-0.662l3.7,-8.695c3.367,-0.084 8.347,-0.066 11.102,-0.036z" fill="#f01446"/><path d="M252.4,171.744c4.605,1.789 7.913,4.771 7.407,10.067c-0.631,6.56 -6.146,15.363 -6.146,15.363l-15.355,-12.745c0,0 9.138,-9.298 14.094,-12.685z" fill="#f01446"/></g></g></g></svg>