<svg version="1.1" xmlns="http://www.w3.org/2000/svg" xmlns:xlink="http://www.w3.org/1999/xlink" width="127.7642" height="109.23601" viewBox="0,0,127.7642,109.23601"><g transform="translate(-166.71209,-178.47912)"><g data-paper-data="{&quot;isPaintingLayer&quot;:true}" fill-rule="nonzero" stroke="none" stroke-width="1" stroke-linecap="butt" stroke-linejoin="miter" stroke-miterlimit="10" stroke-dasharray="" stroke-dashoffset="0" style="mix-blend-mode: normal"><g><g><path d="M280.14033,245.71007c0,1.82581 -0.38038,7.075 -1.74973,10.87876c-1.5215,4.18414 -1.59758,8.97688 -1.67365,11.7156c0,1.06505 0.45645,3.87984 3.11908,5.70565c1.90188,1.29328 2.05403,3.80376 1.90188,7.3793c0,0 -6.1621,0.76076 -7.45538,-0.53252c0,0 -0.3043,-3.80377 -1.59758,-5.09705c-0.91291,-0.83683 -2.81479,-2.7387 -2.51049,-4.94489c1.29328,-8.97688 -1.36935,-14.53038 -2.05403,-16.28011c-0.98898,-2.81479 -0.15215,-5.93387 0.68468,-7.30322c0.83683,-1.36936 1.59758,-4.71667 0.9129,-9.50941c-0.45645,-3.49946 -0.68467,-8.74866 -1.44543,-11.56345c-0.76076,-2.81479 -0.83682,-4.26021 -1.67365,-6.46639c-1.67365,-4.64059 -2.81479,-12.17204 0.68468,-15.0629c3.49946,-2.89086 13.8457,-3.95592 19.01882,2.73871c3.49946,4.56452 -2.20619,19.93172 -2.28226,20.23602c-2.35834,10.27016 -3.72769,15.13898 -3.87984,18.10591z" fill="#73432d"/><path d="M270.02232,242.51491c0,0 0,-0.38038 0,-1.14113c0,-0.76075 -0.07608,-1.74973 -0.15215,-3.04301c-0.07608,-1.21721 -0.22822,-2.66264 -0.45645,-4.26022c-0.07608,-0.76075 -0.22823,-1.59758 -0.3043,-2.35834c-0.07608,-0.83683 -0.3043,-1.59758 -0.38038,-2.43441c-0.15215,-0.83683 -0.3043,-1.59758 -0.45645,-2.4344c-0.15215,-0.83683 -0.38038,-1.59758 -0.53253,-2.35834c-0.15215,-0.76075 -0.38037,-1.52151 -0.53252,-2.20619c-0.15215,-0.68467 -0.38038,-1.36935 -0.53253,-1.97795c-0.15215,-0.6086 -0.3043,-1.14113 -0.45646,-1.67365c-0.15215,-0.45645 -0.22823,-0.91291 -0.38038,-1.29328c-0.22823,-0.68467 -0.3043,-1.14113 -0.3043,-1.14113c0,0 0.15215,0.38038 0.38037,1.06506c0.22823,0.68467 0.60861,1.67365 0.98898,2.89086c0.15215,0.6086 0.38037,1.21721 0.6086,1.90188c0.22823,0.68467 0.38038,1.44543 0.60861,2.20619c0.15215,0.76075 0.38038,1.5215 0.53253,2.35833c0.15215,0.83683 0.3043,1.59758 0.45645,2.4344c0.15215,0.83683 0.3043,1.67366 0.38038,2.43441c0.07608,0.83683 0.22822,1.59758 0.3043,2.43441c0.15215,1.5215 0.22823,3.04301 0.3043,4.26022c0,1.21721 0,2.28225 0,3.04301c-0.07608,0.9129 -0.07608,1.29328 -0.07608,1.29328z" fill="#543825"/><path d="M284.40055,226.46302c0,0 0.07607,-0.45645 0.22822,-1.06505c0.15215,-0.68467 0.38038,-1.5215 0.6086,-2.35833c0.45645,-1.67365 0.98898,-3.42339 0.98898,-3.42339c0,0 0,0.45646 0,1.14113c-0.07608,0.68467 -0.22823,1.52151 -0.45645,2.43441c-0.22823,0.83683 -0.53253,1.67366 -0.83683,2.28226c-0.38038,0.6086 -0.53252,0.98898 -0.53252,0.98898z" fill="#543825"/><path d="M272.00028,250.35066c0,0 0,0.22823 0.07608,0.6086c0.07608,0.38037 0.15215,0.83683 0.3043,1.29328c0.07608,0.22823 0.15215,0.45645 0.22823,0.68468c0.07608,0.22823 0.22823,0.38037 0.3043,0.53252c0.07608,0.15215 0.22822,0.3043 0.3043,0.38038c0.07608,0.07608 0.15215,0.15215 0.15215,0.15215c0,0 -0.07608,0 -0.15215,-0.07608c-0.07608,-0.07608 -0.3043,-0.07608 -0.45645,-0.22823c-0.15215,-0.15215 -0.38038,-0.3043 -0.45645,-0.53252c-0.15215,-0.22823 -0.22823,-0.45646 -0.38038,-0.76076c-0.15215,-0.53252 -0.15215,-1.06506 -0.07608,-1.44543c0.07608,-0.38037 0.15215,-0.6086 0.15215,-0.6086z" fill="#543825"/></g><path d="M274.66291,279.48749c1.82581,0 7.22715,-0.6086 9.88979,-1.29328c0.76076,2.35834 0.3043,5.24919 0.3043,5.24919c-2.35834,0.76076 -7.45538,1.29328 -9.73764,0.6086c0,0 0.15215,-2.81479 -0.45645,-4.56452z" fill="#b3927e"/><path d="M271.23952,256.58883c1.2172,0.91291 1.90188,-0.3043 3.11908,-0.83682c1.2172,-0.53252 3.57554,1.06506 3.57554,1.06506c0,0 -0.53253,6.39032 1.06505,8.5965c0.98898,1.36935 1.2172,3.65161 1.2172,3.65161c-1.36935,-1.67365 -1.44543,-2.20618 -1.44543,-2.20618c0,0 0.45646,1.5215 1.82581,3.80376c1.36935,2.28226 4.94489,3.65161 4.94489,3.65161c-0.6086,0.98898 -2.05403,0.53253 -2.05403,0.53253c3.49946,0.98898 2.35834,6.46639 2.35834,6.46639c-0.83683,-1.5215 -1.14113,-1.59758 -1.74973,-2.1301c0.15215,1.06505 -0.38038,1.90188 -1.06505,2.66263c0,-1.90188 -1.14113,-3.19516 -1.14113,-3.19516c0.83683,2.66264 -1.90188,4.18414 -1.90188,4.18414c0,-1.36935 -1.29328,-3.72768 -1.29328,-3.72768c-0.38038,0.83683 0.3043,3.19516 0.68468,3.19516c-0.6086,0 -2.43441,-1.52151 -3.04301,-2.81479c0.22823,0.76076 1.2172,2.81478 2.13011,3.72769c-4.03199,0 -4.79274,-3.04301 -4.79274,-3.04301c-0.22823,1.82581 0.68468,2.96693 0.68468,2.96693c-3.95592,-0.53253 -3.72769,-4.64059 -3.72769,-4.64059c-1.44543,1.67365 -0.91291,2.58656 -0.91291,2.58656c-1.90188,-2.35834 -0.68468,-5.85779 -0.68468,-5.85779c-0.68468,1.2172 -2.58656,1.90188 -2.58656,1.90188c0,0 1.74973,-2.81479 1.74973,-6.08602c0,-3.27123 1.36935,-4.33629 1.36935,-4.33629c-1.06505,1.44543 -2.43441,1.59758 -2.43441,1.59758c2.51049,-1.59758 1.82581,-10.04194 1.44543,-13.31317c0,0 1.44543,0.68467 2.66264,1.59758z" fill="#d9c4b6"/></g><g><g><path d="M236.5492,206.8356c0,0 -0.68467,20.99678 -11.18306,28.45216c-10.49839,7.45538 -11.4113,15.82366 -11.107,22.51828c0.15215,4.18414 0.60861,16.81264 4.41237,18.02984c4.10807,1.29328 2.96694,8.06398 2.96694,8.06398c-2.28226,0.68468 -6.99892,1.06506 -9.28118,0.38038c0,0 0.07607,-5.62957 -1.59758,-6.08603c-1.67365,-0.45645 -3.87984,-1.82581 -2.96693,-4.33629c0.9129,-2.51049 -0.3043,-13.76963 -1.44543,-17.19302c-1.06506,-3.49946 -4.64059,-9.8137 -1.97796,-13.46532c2.66263,-3.65161 8.82473,-13.61748 6.84678,-19.93172c-1.97796,-6.31425 -12.70457,-30.58226 2.13011,-34.1578c14.83468,-3.57554 24.80054,2.20619 23.20296,17.72554z" fill="#73432d"/><path d="M211.52043,280.02002c1.82581,0 7.22716,-0.6086 9.88979,-1.29328c0.76075,2.35834 0.3043,5.24919 0.3043,5.24919c-2.35834,0.76076 -7.45538,1.29328 -9.73764,0.60861c0,0 0.07607,-2.89087 -0.45646,-4.56452z" fill="#b3927e"/><path d="M206.95591,250.19851c0,0 -0.22822,-0.3043 -0.45645,-0.9129c-0.07608,-0.3043 -0.22823,-0.60861 -0.22823,-0.98898c-0.07608,-0.38037 -0.07608,-0.76075 -0.07608,-1.14113c0.07608,-0.22823 0.07608,-0.38038 0.15215,-0.6086c0.07608,-0.22823 0.07608,-0.38037 0.22823,-0.53252c0.07608,-0.15215 0.15215,-0.3043 0.3043,-0.45646c0.07608,-0.15215 0.22822,-0.3043 0.3043,-0.38038c0.22823,-0.22823 0.45646,-0.38037 0.60861,-0.45645c0.15215,-0.07608 0.22822,-0.15215 0.22822,-0.15215c0,0 -0.07607,0.07608 -0.15215,0.22823c-0.07608,0.07608 -0.15215,0.15215 -0.22823,0.22822c-0.07608,0.07608 -0.15215,0.22823 -0.22823,0.3043c-0.07608,0.07608 -0.15215,0.22822 -0.22823,0.38037c-0.07608,0.15215 -0.15215,0.3043 -0.22823,0.45646c-0.07608,0.15215 -0.07607,0.3043 -0.15215,0.53253c-0.07608,0.15215 -0.07608,0.38038 -0.07608,0.53253c-0.07608,0.76075 0,1.44543 0.07608,2.05403c0.07608,0.53252 0.15215,0.9129 0.15215,0.9129z" fill="#543825"/><path d="M208.09704,237.03749c0,0 0.22823,-0.45645 0.68467,-1.29328c0.38037,-0.83683 0.91291,-1.97796 1.44544,-3.42338c0.53252,-1.44543 1.06505,-3.19517 1.2172,-5.09705c0.07608,-0.9129 0,-1.90188 -0.3043,-2.89086c-0.3043,-0.98898 -0.60861,-1.97796 -0.98898,-2.89086c-0.68467,-1.97796 -1.36936,-3.87984 -1.97796,-5.78172c-0.6086,-1.82581 -0.98898,-3.65162 -1.36935,-5.09705c-0.3043,-1.5215 -0.53252,-2.81479 -0.68467,-3.65161c-0.15215,-0.9129 -0.22823,-1.36936 -0.22823,-1.36936c0,0 0.07608,0.53253 0.3043,1.36936c0.07608,0.45645 0.22823,0.98898 0.38038,1.59758c0.15215,0.6086 0.3043,1.29328 0.53252,2.05403c0.22823,0.76075 0.38038,1.52151 0.68468,2.43441c0.22823,0.83683 0.53252,1.74973 0.83683,2.66263c0.6086,1.82581 1.29328,3.72769 2.05403,5.70565c0.3043,0.98898 0.68468,1.97796 0.9129,2.96694c0.3043,0.98898 0.38037,2.05403 0.3043,3.04301c-0.07608,0.98898 -0.3043,1.90188 -0.53253,2.73871c-0.22823,0.83683 -0.53252,1.67366 -0.83683,2.35834c-0.6086,1.44543 -1.21721,2.58656 -1.67365,3.34731c-0.45645,0.76075 -0.76076,1.21721 -0.76076,1.21721z" fill="#543825"/><path d="M226.65941,234.29878c0,0 0.38037,-0.3043 0.9129,-0.9129c0.3043,-0.3043 0.60861,-0.68468 0.91291,-1.14113c0.3043,-0.45645 0.76075,-0.98898 1.14113,-1.5215c0.15215,-0.3043 0.38038,-0.6086 0.6086,-0.9129c0.15215,-0.3043 0.38038,-0.68468 0.6086,-0.98898c0.38037,-0.68467 0.76075,-1.44543 1.14113,-2.20618c0.3043,-0.83683 0.76075,-1.59758 1.06506,-2.51048c0.3043,-0.83683 0.6086,-1.74973 0.9129,-2.66263l0.38037,-1.29328c0.15215,-0.45645 0.22823,-0.91291 0.38038,-1.36936c0.22823,-0.9129 0.45645,-1.74973 0.6086,-2.58656c0.15215,-0.83683 0.38038,-1.67365 0.45645,-2.51048c0.15215,-0.76075 0.22822,-1.52151 0.3043,-2.20618c0.22823,-1.36936 0.3043,-2.58656 0.38038,-3.34731c0.07608,-0.83683 0.15215,-1.29328 0.15215,-1.29328c0,0 0,0.45645 -0.07608,1.29328c0,0.38037 -0.07608,0.9129 -0.07608,1.44543c0,0.6086 -0.07608,1.21721 -0.15215,1.90188c-0.07608,0.68467 -0.15215,1.44543 -0.22823,2.28226c-0.07608,0.83683 -0.22822,1.67365 -0.38037,2.51048c-0.15215,0.83683 -0.38037,1.74973 -0.53252,2.66263c-0.07608,0.45645 -0.22823,0.91291 -0.3043,1.36936l-0.38038,1.36935c-0.22823,0.9129 -0.6086,1.74973 -0.9129,2.66264c-0.3043,0.9129 -0.76075,1.67365 -1.06506,2.51048c-0.38037,0.76075 -0.76075,1.5215 -1.2172,2.20618c-0.22823,0.38037 -0.38038,0.68468 -0.60861,0.98898c-0.22823,0.3043 -0.45645,0.60861 -0.6086,0.91291c-0.38037,0.6086 -0.83683,1.06506 -1.21721,1.5215c-0.38037,0.45645 -0.68468,0.76075 -0.98898,1.06506c-0.76075,0.53252 -1.2172,0.76075 -1.2172,0.76075z" fill="#543825"/></g><path d="M208.17312,257.04528c1.21721,0.91291 1.90188,-0.3043 3.11909,-0.83683c1.21721,-0.53252 2.81479,1.59758 2.81479,1.59758c0,0 0.15215,5.8578 1.74973,8.06398c0.98898,1.36935 1.21721,3.65161 1.21721,3.65161c-1.36936,-1.67365 -1.44544,-2.20619 -1.44544,-2.20619c0,0 0.45645,1.5215 1.82581,3.80376c1.36936,2.28226 4.94489,3.65161 4.94489,3.65161c-0.6086,0.98898 -2.05403,0.53253 -2.05403,0.53253c3.49946,0.98898 2.35834,6.4664 2.35834,6.4664c-0.83683,-1.5215 -1.14114,-1.59758 -1.74974,-2.13011c0.15215,1.06505 -0.38037,1.90188 -1.06505,2.66264c0,-1.90188 -1.14113,-3.19516 -1.14113,-3.19516c0.83683,2.66264 -1.90188,4.18414 -1.90188,4.18414c0,-1.36935 -1.29328,-3.72769 -1.29328,-3.72769c-0.38037,0.83683 0.30431,3.19516 0.68468,3.19516c-0.6086,0 -2.43441,-1.52151 -3.04301,-2.81479c0.22823,0.76076 1.2172,2.81478 2.1301,3.72769c-4.03199,0 -4.79274,-3.04301 -4.79274,-3.04301c-0.22823,1.82581 0.68467,2.96693 0.68467,2.96693c-3.95592,-0.53253 -3.72769,-4.64059 -3.72769,-4.64059c-1.44543,1.67365 -0.9129,2.58656 -0.9129,2.58656c-1.90188,-2.35834 -0.68468,-5.8578 -0.68468,-5.8578c-0.68467,1.2172 -2.58655,1.90188 -2.58655,1.90188c0,0 1.74973,-2.81479 1.74973,-6.08602c0,-3.27123 1.36935,-4.33629 1.36935,-4.33629c-1.06506,1.44543 -2.43441,1.59758 -2.43441,1.59758c2.43441,-1.67365 2.4344,-10.04193 2.05403,-13.31317c0,0 1.06506,0.68467 2.13011,1.59758z" fill="#d9c4b6"/></g><g><g><path d="M199.72876,189.03399c-7.53145,-2.58656 -8.74866,11.63952 -6.61855,20.76855c2.05403,9.12903 -2.28226,12.24812 -3.72769,16.43226c-1.44543,4.18414 1.21721,5.78172 1.21721,5.78172c-2.05403,0.83683 -3.34731,-1.06505 -3.34731,-1.06505c0,0 2.05403,6.23817 0.22822,9.12903c-1.90188,2.89086 0.6086,5.62957 0.6086,5.62957c-2.66263,0 -2.89086,-3.34731 -2.89086,-3.34731c0,6.00994 -5.40134,8.06398 -5.40134,8.06398c0.38037,7.68361 -6.84678,8.74865 -6.84678,8.74865c2.89086,-2.05403 1.67366,-5.62957 1.67366,-5.62957c-1.67365,5.62957 -7.45538,3.49946 -7.45538,3.49946c4.33629,0.83683 6.4664,-6.00994 2.66263,-8.2922c-3.80376,-2.28226 0.22823,-8.52044 0.22823,-8.52044c-1.90188,0.6086 -3.34731,-0.83683 -3.34731,-0.83683c5.62957,-0.83683 2.51049,-7.6836 2.28226,-13.31317c-0.22823,-5.62957 4.56452,-7.30323 4.56452,-7.30323c-4.56451,0 -3.49946,-3.95591 -3.49946,-3.95591c0,0 0.22823,3.34731 5.02097,1.2172c4.79274,-2.13011 0.22823,-14.98683 0.22823,-21.37715c0,-6.4664 4.79274,-13.31317 13.08495,-15.74758c8.2922,-2.51048 13.31317,6.61855 13.31317,6.61855c2.20619,4.26021 0.38038,4.33629 -1.97796,3.49946z" fill="#453027"/><path d="M190.59973,232.01652c0,0 -0.07608,0.07608 -0.3043,0.15215c-0.15215,0.07608 -0.45646,0.22823 -0.83683,0.22823c-0.15215,0 -0.38037,0 -0.6086,0c-0.22823,0 -0.45646,-0.15215 -0.68468,-0.22823c-0.22823,-0.15215 -0.45645,-0.22823 -0.6086,-0.45646c-0.22823,-0.15215 -0.3043,-0.38037 -0.45645,-0.6086c-0.15215,-0.22823 -0.22823,-0.45645 -0.38038,-0.6086c-0.07608,-0.22823 -0.15215,-0.45645 -0.22823,-0.68467c-0.15215,-0.45645 -0.15215,-0.83683 -0.22823,-1.21721c-0.07608,-0.68467 -0.07607,-1.21721 -0.07607,-1.21721c0,0 0.15215,0.45646 0.3043,1.14113c0.15215,0.3043 0.22823,0.68468 0.38038,1.14113c0.07608,0.22823 0.15215,0.38037 0.22823,0.6086c0.07608,0.15215 0.22822,0.38038 0.3043,0.60861c0.15215,0.15215 0.22823,0.38037 0.38038,0.53252c0.15215,0.15215 0.3043,0.3043 0.45646,0.38037c0.15215,0.07608 0.3043,0.22823 0.53252,0.22823c0.15215,0.07608 0.38037,0.07608 0.53252,0.07608c0.3043,0 0.6086,0 0.83683,-0.07608c0.3043,0 0.45645,0 0.45645,0z" fill="#261a11"/><path d="M188.08924,245.71007c0,0 -0.15215,0.07608 -0.38037,0.07608c-0.15215,0 -0.22822,0 -0.45645,0c-0.07608,0 -0.15215,-0.00001 -0.22823,-0.07608c-0.07608,0 -0.15215,-0.07607 -0.3043,-0.15215c-0.15215,-0.07608 -0.38037,-0.22823 -0.53252,-0.38038c-0.15215,-0.15215 -0.3043,-0.38037 -0.45645,-0.6086c-0.15215,-0.22823 -0.3043,-0.45645 -0.38038,-0.68468c-0.07608,-0.22823 -0.22822,-0.53252 -0.22822,-0.76075c-0.07608,-0.22823 -0.15215,-0.53253 -0.15215,-0.76076c0,-0.22823 -0.07608,-0.53253 -0.07608,-0.76075c0,-0.22823 0,-0.45645 0,-0.68467c0,-0.22823 0,-0.45645 0,-0.6086c0.07608,-0.76075 0.07608,-1.29328 0.07608,-1.29328c0,0 0.07608,0.53253 0.15215,1.29328c0.07608,0.38037 0.15215,0.83683 0.22822,1.29327c0.07608,0.22823 0.07608,0.45645 0.15216,0.76075c0.07608,0.22823 0.15215,0.45646 0.15215,0.76076c0.07608,0.22823 0.15215,0.45645 0.22823,0.68467c0.07608,0.22823 0.22823,0.45645 0.3043,0.68468c0.15215,0.15215 0.22822,0.38037 0.38037,0.53252c0.15215,0.15215 0.3043,0.3043 0.45646,0.38038c0.15215,0.07608 0.3043,0.15215 0.45645,0.22823c0.15215,0.07608 0.3043,0.07607 0.38038,0.07607c0.07608,0 0.22822,0 0.22822,0z" fill="#261a11"/><path d="M182.91613,248.0684c-0.3043,0.6086 -0.76076,1.06506 -1.21721,1.5215c-0.22823,0.22823 -0.53253,0.38038 -0.83683,0.53253c-0.3043,0.15215 -0.6086,0.3043 -0.9129,0.38038c-0.15215,0.07608 -0.3043,0.07607 -0.45645,0.15215c-0.15215,0.07608 -0.3043,0.07608 -0.45645,0.07608l-0.53253,0.07608h-0.53253c-0.3043,0 -0.68468,-0.07608 -0.98898,-0.15215c-0.15215,0 -0.3043,-0.07607 -0.45645,-0.15215c-0.15215,-0.07608 -0.3043,-0.15215 -0.45645,-0.15215c0.53252,-0.07608 1.14113,-0.3043 1.59758,-0.53253c0.22823,-0.15215 0.45645,-0.3043 0.68467,-0.45645c0.22823,-0.15215 0.45645,-0.38037 0.6086,-0.6086c0.07608,-0.07608 0.15215,-0.22823 0.22823,-0.3043c0.07608,-0.07608 0.15215,-0.22823 0.22823,-0.38038l0.22822,-0.38037l0.15215,-0.38038c0.15215,-0.22823 0.15215,-0.53253 0.22823,-0.83683c0.07608,-0.3043 0.07608,-0.53253 0.15215,-0.83683c0,0.15215 0,0.3043 0,0.45645c0,0.15215 0,0.3043 0,0.45645c-0.07608,0.3043 -0.07608,0.6086 -0.15215,0.83683l-0.15215,0.45645l-0.22823,0.38038c-0.15215,0.22823 -0.3043,0.53253 -0.53252,0.76075c-0.22823,0.22823 -0.45645,0.38037 -0.68468,0.6086l-0.38038,0.22823l-0.22822,0.07608c-0.53252,0.22823 -1.14113,0.38038 -1.67366,0.38038c0.3043,0 0.6086,0.07608 0.98898,0.07608h0.45646c0.15215,0 0.3043,0 0.45645,0c0.3043,0 0.6086,0 0.9129,-0.07608c0.15215,0 0.3043,-0.07608 0.45645,-0.07608c0.15215,0 0.3043,-0.07608 0.45645,-0.07608c0.3043,-0.07608 0.6086,-0.22823 0.83683,-0.3043c0.3043,-0.15215 0.53253,-0.3043 0.83683,-0.45645c0.22823,-0.15215 0.53252,-0.38038 0.76075,-0.53253c0.15215,-0.22823 0.38038,-0.45645 0.6086,-0.76075z" fill="#261a11"/><path d="M167.09247,257.12136c0,0 0.15216,0 0.53253,0.07608c0.3043,0.07608 0.76075,0.07608 1.29327,0.07608c0.3043,0 0.53253,0 0.83683,-0.07608c0.3043,0 0.6086,-0.07608 0.9129,-0.15215c0.3043,-0.07608 0.6086,-0.15215 0.98898,-0.3043c0.3043,-0.15215 0.6086,-0.3043 0.9129,-0.53252c0.3043,-0.15215 0.53253,-0.45645 0.76075,-0.68468c0.22823,-0.22823 0.38038,-0.53253 0.6086,-0.83683c0.15215,-0.3043 0.22822,-0.6086 0.38037,-0.83683c0.07608,-0.3043 0.15215,-0.6086 0.22823,-0.83683c0.07608,-0.22823 0.15215,-0.53253 0.15215,-0.68468c0,-0.22823 0.07608,-0.38038 0.07608,-0.53253c0.07608,-0.3043 0.07608,-0.53253 0.07608,-0.53253c0,0 0,0.15215 0,0.53253c0,0.15215 0,0.38037 0,0.6086c0,0.07608 0,0.22823 0,0.38038c0,0.15215 -0.07608,0.22823 -0.07608,0.38038c-0.07608,0.3043 -0.07608,0.6086 -0.15215,0.9129c-0.07608,0.3043 -0.22823,0.6086 -0.38038,0.98898c-0.22823,0.3043 -0.38037,0.6086 -0.6086,0.9129c-0.22823,0.3043 -0.53253,0.6086 -0.83683,0.76075c-0.3043,0.22823 -0.68467,0.38038 -0.98898,0.53253c-0.38037,0.15215 -0.68468,0.22823 -1.06506,0.3043c-0.38037,0.07608 -0.68468,0.07608 -0.98898,0.07608c-0.3043,0 -0.6086,0 -0.9129,0c-1.06506,-0.22823 -1.74973,-0.53253 -1.74973,-0.53253z" fill="#261a11"/><path d="M166.71209,239.4719c0,0 0.45646,0.22823 1.06506,0.45645c0.15215,0.07608 0.38038,0.07608 0.53253,0.15215c0.22823,0.07608 0.38037,0.07607 0.6086,0.07607c0.22823,0 0.45645,0 0.6086,0c0.22823,0 0.45645,-0.07607 0.6086,-0.15215c0.22823,-0.07608 0.38038,-0.15215 0.6086,-0.3043c0.15215,-0.15215 0.38037,-0.22822 0.53252,-0.38037c0.15215,-0.15215 0.3043,-0.3043 0.45646,-0.45646c0.15215,-0.15215 0.22823,-0.3043 0.38038,-0.45645c0.22823,-0.3043 0.38037,-0.53252 0.45645,-0.68467c0.15215,-0.15215 0.15215,-0.3043 0.15215,-0.3043c0,0 0,0.15215 -0.07608,0.3043c-0.07608,0.22823 -0.15215,0.53252 -0.3043,0.83683c-0.07608,0.15215 -0.15215,0.3043 -0.3043,0.53253c-0.15215,0.15215 -0.3043,0.38037 -0.45646,0.53252c-0.15215,0.15215 -0.38037,0.3043 -0.53252,0.45645c-0.22823,0.15215 -0.45645,0.22823 -0.68467,0.38038c-0.22823,0.07608 -0.53253,0.15215 -0.76076,0.15215c-0.22823,0.07608 -0.53253,0 -0.76075,0c-0.45645,-0.07608 -0.9129,-0.22823 -1.2172,-0.38038c-0.6086,-0.38037 -0.91291,-0.76075 -0.91291,-0.76075z" fill="#261a11"/><path d="M170.0594,214.97566c0,0 0,0.15215 0,0.45645c0,0.3043 0,0.68468 0.07608,1.14113c0,0.22823 0.15215,0.45645 0.22823,0.68468c0.07608,0.07608 0.15215,0.22823 0.15215,0.3043c0.07608,0.15215 0.15215,0.22822 0.22823,0.3043c0.07608,0.15215 0.22823,0.15215 0.3043,0.3043c0.07608,0.07608 0.22822,0.15215 0.38037,0.22823c0.15215,0.07608 0.22823,0.15215 0.38038,0.15215l0.45645,0.07608c0.3043,0.07608 0.60861,0 0.91291,0.07608c0.3043,0 0.6086,-0.07608 0.9129,-0.07608c0.6086,-0.07608 1.06506,-0.22823 1.59758,-0.3043c0.9129,-0.22823 1.52151,-0.38038 1.52151,-0.38038c0,0 -0.53253,0.30431 -1.44544,0.68468c-0.22823,0.07608 -0.45645,0.15215 -0.76075,0.22822c-0.22823,0.07608 -0.53253,0.15215 -0.83683,0.22823c-0.3043,0 -0.6086,0.15215 -0.9129,0.15215c-0.3043,0 -0.68468,0 -0.98898,-0.07608l-0.45645,-0.07608c-0.15215,-0.07608 -0.3043,-0.15215 -0.45646,-0.22823c-0.15215,-0.07608 -0.3043,-0.15215 -0.38037,-0.3043c-0.15215,-0.07608 -0.22823,-0.22823 -0.38038,-0.38038c-0.07608,-0.15215 -0.22822,-0.22823 -0.22822,-0.38038c-0.07608,-0.15215 -0.15216,-0.3043 -0.15216,-0.38037c-0.07608,-0.3043 -0.15215,-0.53253 -0.15215,-0.76075c-0.07608,-0.45645 0,-0.9129 0.07608,-1.14113c-0.15215,-0.38037 -0.07608,-0.53253 -0.07608,-0.53253z" fill="#261a11"/><path d="M200.56559,186.37135c0,0 -0.38037,-0.68468 -1.2172,-1.52151c-0.22823,-0.22823 -0.38038,-0.45645 -0.68468,-0.68467c-0.22823,-0.22823 -0.53252,-0.45645 -0.76075,-0.68468c-0.3043,-0.22823 -0.6086,-0.45645 -0.9129,-0.6086c-0.3043,-0.15215 -0.68468,-0.38038 -0.98898,-0.45646c-0.3043,-0.15215 -0.68468,-0.22823 -1.06506,-0.3043c-0.38037,-0.07608 -0.76075,-0.07607 -1.06505,-0.15215c-0.38037,0 -0.68468,0 -0.98898,0c-0.3043,0 -0.6086,0.07607 -0.9129,0.07607c-0.3043,0.07608 -0.53252,0.07608 -0.76075,0.15215c-0.22823,0.07608 -0.45645,0.07608 -0.6086,0.15215c-0.3043,0.07608 -0.53252,0.15215 -0.53252,0.15215c0,0 0.15215,-0.07608 0.45645,-0.22823c0.15215,-0.07608 0.38038,-0.15215 0.6086,-0.22823c0.22823,-0.07608 0.45645,-0.15215 0.76075,-0.22822c0.3043,-0.07608 0.60861,-0.15215 0.91291,-0.15215c0.3043,0 0.68468,-0.07608 1.06506,-0.07608c0.38037,0.07608 0.76075,0 1.14112,0.15215c0.38037,0.07608 0.76076,0.15215 1.14113,0.3043c0.38037,0.15215 0.76075,0.3043 1.06506,0.53253c0.38037,0.22823 0.68468,0.45645 0.9129,0.68468c0.6086,0.45645 1.06506,0.98898 1.36936,1.44543c0.76075,0.9129 1.06505,1.67365 1.06505,1.67365z" fill="#261a11"/><path d="M199.65269,187.51248c0,0 -0.22823,-0.15215 -0.53253,-0.45645c-0.38037,-0.22823 -0.91291,-0.6086 -1.59758,-0.9129c-0.68467,-0.3043 -1.5215,-0.6086 -2.4344,-0.68467c-0.9129,-0.07608 -1.90188,0.15215 -2.73871,0.68467c-0.45645,0.22823 -0.76076,0.6086 -1.14113,0.9129c-0.15215,0.15215 -0.3043,0.38038 -0.45645,0.53253c-0.15215,0.22823 -0.3043,0.38038 -0.45645,0.6086c-0.22823,0.38037 -0.53252,0.76075 -0.68467,1.2172c-0.22823,0.38037 -0.38038,0.76076 -0.53253,1.14113c-0.15215,0.38037 -0.3043,0.68468 -0.38037,0.98898c-0.15215,0.3043 -0.22823,0.53253 -0.3043,0.76076c-0.15215,0.45645 -0.22823,0.68467 -0.22823,0.68467c0,0 0.07608,-0.22823 0.15215,-0.68467c0.07608,-0.22823 0.07608,-0.45646 0.22823,-0.76076c0.07608,-0.3043 0.15215,-0.68468 0.3043,-0.98898c0.3043,-0.76075 0.60861,-1.59758 1.14113,-2.4344c0.15215,-0.22823 0.3043,-0.38038 0.45645,-0.6086c0.15215,-0.22823 0.3043,-0.38038 0.45645,-0.6086c0.38037,-0.38037 0.76076,-0.76075 1.21721,-1.06505c0.9129,-0.6086 2.05403,-0.83683 3.04301,-0.68468c0.98898,0.07608 1.90188,0.45646 2.58656,0.9129c0.68467,0.38037 1.21721,0.83683 1.52151,1.14113c0.22823,0.15215 0.38037,0.3043 0.38037,0.3043z" fill="#261a11"/></g><path d="M198.96801,188.95791c0,0 -0.22823,-0.07608 -0.68467,-0.15215c-0.22823,0 -0.45646,0 -0.76076,0c-0.3043,0.07608 -0.6086,0.07608 -0.9129,0.22823c-0.15215,0.07608 -0.3043,0.15215 -0.45646,0.22823c-0.15215,0.07608 -0.3043,0.22823 -0.45645,0.3043c-0.15215,0.15215 -0.3043,0.22822 -0.45645,0.45645c-0.15215,0.15215 -0.3043,0.3043 -0.38038,0.53252c-0.22823,0.38037 -0.45645,0.76076 -0.68467,1.14113c-0.15215,0.45645 -0.38038,0.83683 -0.53253,1.29328c-0.15215,0.45645 -0.3043,0.9129 -0.38037,1.36935c-0.07608,0.45645 -0.22823,0.91291 -0.3043,1.36936c-0.07608,0.45645 -0.15215,0.83683 -0.22822,1.29328c-0.07608,0.38037 -0.15215,0.76075 -0.15215,1.14113c-0.15215,1.44543 -0.3043,2.43441 -0.3043,2.43441c0,0 0,-0.98898 0,-2.43441c0,-0.38037 0.07608,-0.76075 0.07608,-1.14113c0.07608,-0.38037 0.07608,-0.83683 0.15215,-1.29328c0.07608,-0.45645 0.15215,-0.91291 0.3043,-1.36936c0.07608,-0.45645 0.22822,-0.9129 0.38037,-1.44543c0.15215,-0.45645 0.38038,-0.91291 0.53253,-1.36936c0.22823,-0.45645 0.45645,-0.83683 0.76075,-1.2172c0.15215,-0.15215 0.3043,-0.38038 0.45645,-0.53253c0.15215,-0.15215 0.38038,-0.3043 0.53253,-0.45645c0.15215,-0.15215 0.38037,-0.22823 0.53252,-0.3043c0.15215,-0.07608 0.38038,-0.22823 0.53253,-0.22823c0.38037,-0.15215 0.68467,-0.15215 0.98897,-0.15215c0.3043,0 0.53253,0 0.76076,0.07608c0.45645,0.15215 0.68467,0.22823 0.68467,0.22823z" fill="#261a11"/><path d="M172.95026,259.17539c0,0 0.15216,-0.07608 0.53253,-0.15215c0.3043,-0.07608 0.76076,-0.22822 1.29328,-0.53252c0.53252,-0.22823 1.06506,-0.60861 1.59758,-0.98898c0.3043,-0.22823 0.53253,-0.45645 0.83683,-0.68467c0.3043,-0.22823 0.45645,-0.53253 0.68467,-0.83683c0.22823,-0.3043 0.38038,-0.6086 0.6086,-0.9129c0.15215,-0.3043 0.3043,-0.68467 0.45645,-0.98898c0.07608,-0.3043 0.22823,-0.68468 0.3043,-0.9129c0.07608,-0.3043 0.15215,-0.6086 0.22823,-0.9129c0.07608,-0.3043 0.15215,-0.53252 0.15215,-0.76075c0,-0.22823 0.07608,-0.45646 0.07608,-0.60861c0.07608,-0.3043 0.07608,-0.53252 0.07608,-0.53252c0,0 0,0.22822 0,0.53252c0,0.15215 0,0.38038 0,0.60861c0,0.22823 0,0.53252 -0.07608,0.76075c-0.07608,0.3043 -0.07607,0.6086 -0.15215,0.9129c-0.07608,0.3043 -0.15215,0.68468 -0.3043,0.98898c-0.15215,0.3043 -0.3043,0.68467 -0.45645,1.06505c-0.22823,0.3043 -0.38038,0.68468 -0.60861,0.98898c-0.22823,0.3043 -0.45645,0.6086 -0.76075,0.83683c-0.3043,0.3043 -0.6086,0.53253 -0.83683,0.68468c-0.3043,0.22823 -0.6086,0.38038 -0.9129,0.53253c-0.3043,0.15215 -0.6086,0.3043 -0.83683,0.38037c-0.53252,0.22823 -0.98898,0.3043 -1.36936,0.3043c-0.38037,0.22823 -0.53253,0.22823 -0.53253,0.22823z" fill="#261a11"/><path d="M175.0043,216.19286c0,0 0.15215,0 0.3043,-0.15215c0.22823,-0.15215 0.45646,-0.3043 0.68468,-0.68468c0.22823,-0.38037 0.53252,-0.76076 0.68467,-1.36936c0.15215,-0.53252 0.3043,-1.2172 0.38037,-1.97795c0,-0.38037 0.07608,-0.76076 0.07608,-1.14113c0,-0.38037 0,-0.76076 -0.07608,-1.21721c-0.07608,-0.38037 -0.07608,-0.83683 -0.15215,-1.29328c-0.07608,-0.45645 -0.15215,-0.9129 -0.22822,-1.29328c-0.15215,-0.9129 -0.3043,-1.82581 -0.53253,-2.73871c-0.22823,-0.9129 -0.38038,-1.90188 -0.6086,-2.89086c-0.15215,-0.98898 -0.3043,-1.90188 -0.45645,-2.89086c-0.15215,-0.98898 -0.22822,-1.90188 -0.22822,-2.81479c0,-0.9129 0,-1.82581 0.15215,-2.66263c0.07608,-0.45645 0.15215,-0.83683 0.22822,-1.21721c0.15215,-0.38037 0.22823,-0.76076 0.3043,-1.14113c0.53252,-1.36936 1.14113,-2.4344 1.59758,-3.19516c0.22823,-0.38037 0.45646,-0.60861 0.53253,-0.83683c0.15215,-0.22823 0.22822,-0.3043 0.22822,-0.3043c0,0 -0.22823,0.45646 -0.68467,1.14113c-0.38037,0.76075 -0.98899,1.8258 -1.44544,3.19516c-0.15215,0.38037 -0.15215,0.68468 -0.3043,1.06506c-0.07608,0.38037 -0.15215,0.76076 -0.15215,1.21721c-0.07608,0.83683 -0.07608,1.67365 -0.07608,2.58656c0.07608,0.9129 0.15215,1.82581 0.3043,2.81479c0.15215,0.9129 0.3043,1.90188 0.45646,2.89086c0.15215,0.98898 0.38037,1.90188 0.53252,2.89086c0.22823,0.9129 0.38037,1.90188 0.53252,2.81479c0.07608,0.45645 0.15215,0.9129 0.15215,1.36935c0,0.45645 0.07608,0.91291 0.07608,1.29328c0,0.45645 0,0.83683 0,1.21721c0,0.38037 -0.07608,0.76076 -0.07608,1.14113c-0.07608,0.38037 -0.07608,0.68468 -0.15215,1.06506c-0.07608,0.3043 -0.15215,0.6086 -0.3043,0.9129c-0.22823,0.6086 -0.53252,0.98898 -0.76075,1.36936c-0.3043,0.3043 -0.53253,0.53253 -0.76076,0.6086c-0.07608,0.22823 -0.22822,0.22823 -0.22822,0.22823z" fill="#261a11"/></g><g><g><g><path d="M288.96506,191.7727c4.10807,8.14005 4.86881,17.95377 1.82581,25.78952c-6.39033,16.20404 -32.94059,16.35618 -51.65511,9.20511c-7.83576,-2.96694 -15.67151,-0.53252 -33.5492,-2.96694c-10.49839,-1.44543 -17.57339,-14.83468 -11.94382,-27.91963c5.62957,-13.08495 20.08388,-18.10592 31.64732,-12.17204c13.8457,7.075 35.60323,-0.22823 40.70027,-3.19516c4.71666,-2.73871 18.94275,3.11909 22.97474,11.25914z" fill="#874e35"/><path d="M226.12688,184.01302c0,0 0.45645,0.22822 1.36936,0.53252c0.45645,0.15215 0.98898,0.3043 1.59758,0.45645c0.6086,0.15215 1.36936,0.3043 2.13011,0.53253c0.76075,0.15215 1.59758,0.3043 2.51048,0.38037c0.45645,0.07608 0.91291,0.15215 1.36936,0.15215c0.45645,0.07608 0.98898,0.07608 1.44543,0.15215c0.98898,0.07608 2.05403,0.07608 3.04301,0.15215c1.06506,0 2.1301,0 3.19516,-0.07608c1.06506,-0.07608 2.13011,-0.15215 3.19517,-0.22823c1.06506,-0.15215 2.05403,-0.22822 3.04301,-0.38037c0.98898,-0.15215 1.90188,-0.38038 2.81479,-0.53253c0.9129,-0.15215 1.74973,-0.38037 2.51048,-0.6086c0.76075,-0.15215 1.5215,-0.3043 2.1301,-0.53252c0.6086,-0.15215 1.14113,-0.3043 1.59758,-0.45646c0.91291,-0.22823 1.44543,-0.38038 1.44543,-0.38038c0,0 -0.53253,0.15215 -1.36936,0.45645c-0.45645,0.15215 -0.98898,0.3043 -1.59758,0.53253c-0.6086,0.22823 -1.29327,0.45645 -2.1301,0.6086c-0.76075,0.22823 -1.59758,0.45645 -2.51048,0.68468c-0.9129,0.15215 -1.82581,0.38037 -2.81479,0.6086c-0.98898,0.15215 -2.05403,0.3043 -3.04301,0.45645c-1.06506,0.15215 -2.13011,0.15215 -3.19517,0.3043c-1.06506,0 -2.1301,0.07608 -3.19516,0c-1.06506,-0.07608 -2.13011,-0.07608 -3.11909,-0.15216c-0.53252,-0.07608 -0.98898,-0.07607 -1.44543,-0.15215c-0.45645,-0.07608 -0.91291,-0.15215 -1.36936,-0.22823c-0.9129,-0.15215 -1.74973,-0.38037 -2.58656,-0.53252c-0.76075,-0.22823 -1.52151,-0.38038 -2.13011,-0.60861c-0.6086,-0.15215 -1.14113,-0.38037 -1.59758,-0.53252c-0.83683,-0.3043 -1.29328,-0.6086 -1.29328,-0.6086z" fill="#633c22"/></g><path d="M243.6242,228.21276c0,0 0.68467,0.22823 1.82581,0.53253c1.14113,0.3043 2.89086,0.68468 4.9449,1.06506c4.10807,0.76075 9.58549,1.5215 15.13898,1.29328c1.36935,0 2.73871,-0.15215 4.10806,-0.3043c1.36935,-0.15215 2.66264,-0.38038 3.95592,-0.68468c0.6086,-0.15215 1.2172,-0.3043 1.82581,-0.45645c0.6086,-0.15215 1.2172,-0.3043 1.74973,-0.53253c1.14113,-0.38037 2.20619,-0.76076 3.11909,-1.21721c0.45645,-0.22823 0.9129,-0.45645 1.36935,-0.68467c0.38038,-0.22823 0.83682,-0.45645 1.14112,-0.68468c0.76076,-0.38037 1.29328,-0.83683 1.82581,-1.14113c0.98898,-0.76075 1.52151,-1.14113 1.52151,-1.14113c0,0 -0.53253,0.45645 -1.44543,1.2172c-0.53253,0.38037 -1.06505,0.83683 -1.82581,1.29328c-0.38038,0.22823 -0.76075,0.45645 -1.14112,0.68467c-0.38038,0.22823 -0.83683,0.45646 -1.36935,0.68468c-0.91291,0.45645 -1.97796,0.9129 -3.11909,1.29328c-1.14113,0.38037 -2.35833,0.76075 -3.65161,1.06505c-1.29328,0.3043 -2.58656,0.53253 -3.95592,0.68468c-1.36935,0.15215 -2.73871,0.3043 -4.18414,0.3043c-1.36935,0.07608 -2.81479,0 -4.18414,-0.07608c-1.36935,-0.07608 -2.73871,-0.15215 -4.03199,-0.3043c-2.58656,-0.3043 -5.02097,-0.76076 -7.075,-1.14113c-2.05403,-0.45645 -3.72769,-0.9129 -4.86882,-1.29328c-0.98898,-0.22823 -1.67366,-0.45645 -1.67366,-0.45645z" fill="#633c22"/></g><g><path d="M289.72581,193.82673c0,0 2.43441,6.84678 4.56452,7.3793c0,0 -2.05403,-0.07608 -2.66263,-1.59758c0,0 2.81478,2.58656 2.81478,4.79274c0,0 -0.53252,-1.29328 -1.36935,-1.29328c0,0 2.20618,3.34731 -0.53253,5.78172" fill="#874e35"/><path d="M292.16022,205.9227c0,0 0.15215,0.45646 0.3043,1.14113c0.15215,0.68467 0.22823,1.67365 0.22823,2.58656c0,0.9129 -0.15215,1.90188 -0.3043,2.58656c-0.07608,0.38037 -0.22823,0.60861 -0.3043,0.83683c-0.07608,0.22823 -0.15215,0.3043 -0.15215,0.3043c0,0 0,-0.15215 0,-0.3043c0,-0.22823 0.07608,-0.53253 0.07608,-0.83683c0.07608,-0.68467 0.07608,-1.59758 0.15215,-2.51048c0,-0.9129 0,-1.82581 0,-2.58656c0,-0.76075 0,-1.21721 0,-1.21721z" fill="#633c22"/><path d="M294.29033,201.12996c0,0 -0.07608,0 -0.22823,0c-0.15215,-0.07608 -0.38038,-0.15215 -0.6086,-0.3043c-0.45645,-0.3043 -0.98898,-0.83683 -1.36936,-1.44543c-0.38038,-0.6086 -0.68467,-1.29328 -0.83682,-1.82581c-0.07608,-0.22823 -0.15215,-0.45645 -0.15215,-0.6086c0,-0.15215 -0.07608,-0.22823 -0.07608,-0.22823c0,0 0.22823,0.3043 0.45646,0.76075c0.3043,0.45645 0.6086,1.06506 0.98897,1.67366c0.38038,0.6086 0.76076,1.14113 1.14113,1.52151c0.38038,0.3043 0.68468,0.45645 0.68468,0.45645z" fill="#633c22"/><path d="M294.44248,204.40119c0,0 -0.07608,-0.22823 -0.22823,-0.6086c-0.15215,-0.38037 -0.3043,-0.83683 -0.53253,-1.2172c-0.22823,-0.45645 -0.45645,-0.83683 -0.68467,-1.14113c-0.07608,-0.15215 -0.15215,-0.3043 -0.22823,-0.38038c-0.07608,-0.07608 -0.07608,-0.15215 -0.07608,-0.15215c0,0 0.07608,0 0.15215,0.07608c0.07608,0.07608 0.22823,0.15215 0.38038,0.22823c0.15215,0.15215 0.3043,0.3043 0.45645,0.45645c0.15215,0.22823 0.3043,0.45646 0.38038,0.68468c0.22823,0.45645 0.3043,0.98898 0.38038,1.36935c0.07608,0.38037 0,0.68468 0,0.68468z" fill="#633c22"/><path d="M293.07313,203.10791c0,0 0.22823,0.22823 0.45645,0.6086c0.15215,0.15215 0.22822,0.45645 0.3043,0.68468c0.07608,0.22823 0.15215,0.53253 0.22823,0.83683c0.07608,0.3043 0.07608,0.6086 0,0.9129c0,0.3043 -0.07608,0.53252 -0.15215,0.76075c-0.07608,0.22823 -0.15215,0.38038 -0.22823,0.45646c-0.07608,0.07608 -0.07607,0.15215 -0.07607,0.15215c0,0 0,-0.07608 0,-0.22823c0,-0.15215 0,-0.3043 0.07607,-0.53252c0,-0.22823 0,-0.45645 0,-0.68467c0,-0.22823 0,-0.53253 -0.07607,-0.83683c-0.07608,-0.53252 -0.22823,-1.06506 -0.3043,-1.52151c-0.15215,-0.3043 -0.22823,-0.6086 -0.22823,-0.6086z" fill="#633c22"/></g></g><g><g><path d="M223.38817,209.65039c0,0 -0.68467,20.99678 -11.18306,28.45216c-10.49839,7.45538 -11.41129,15.82365 -11.10699,22.51828c0.15215,4.18414 0.6086,16.81264 4.41236,18.02984c4.10807,1.29328 2.96694,8.06398 2.96694,8.06398c-2.28226,0.68468 -6.99892,1.06506 -9.28118,0.38038c0,0 0.07607,-5.62957 -1.59759,-6.08602c-1.67365,-0.45645 -3.87984,-1.82581 -2.96693,-4.33629c0.9129,-2.51049 -0.3043,-13.76963 -1.44543,-17.19302c-1.14113,-3.42338 -4.64059,-9.8137 -1.97796,-13.46532c2.66263,-3.65161 8.82473,-13.61748 6.84678,-19.93172c-1.97796,-6.31425 -12.70457,-30.58226 2.13011,-34.1578c14.83468,-3.57554 24.80054,2.20619 23.20296,17.72554z" fill="#874e35"/><path d="M198.35941,282.8348c1.82581,0 7.22715,-0.6086 9.88978,-1.29327c0.76075,2.35834 0.3043,5.24919 0.3043,5.24919c-2.35834,0.76076 -7.45538,1.29328 -9.73764,0.60861c0,0 0.15215,-2.89087 -0.45645,-4.56452z" fill="#b3927e"/><path d="M193.79489,253.0133c0,0 -0.22823,-0.3043 -0.45646,-0.9129c-0.07608,-0.3043 -0.22823,-0.60861 -0.22823,-0.98898c-0.07608,-0.38037 -0.07608,-0.76075 -0.07608,-1.14113c0.07608,-0.22823 0.07608,-0.38038 0.15215,-0.6086c0.07608,-0.22823 0.07608,-0.38038 0.22823,-0.53253c0.07608,-0.15215 0.15215,-0.3043 0.3043,-0.45645c0.07608,-0.15215 0.22822,-0.3043 0.3043,-0.38038c0.22823,-0.22823 0.45645,-0.38037 0.6086,-0.45645c0.15215,-0.07608 0.22822,-0.15215 0.22822,-0.15215c0,0 -0.07608,0.07608 -0.15215,0.22823c-0.07608,0.07608 -0.15215,0.15215 -0.22822,0.22822c-0.07608,0.07608 -0.15215,0.22823 -0.22823,0.3043c-0.07608,0.07608 -0.15215,0.22823 -0.22823,0.38038c-0.07608,0.15215 -0.15215,0.3043 -0.22822,0.45645c-0.07608,0.15215 -0.07608,0.3043 -0.15216,0.53253c-0.07608,0.15215 -0.07607,0.38038 -0.07607,0.53253c-0.07608,0.76075 0,1.44543 0.07607,2.05403c0.07608,0.53252 0.15216,0.9129 0.15216,0.9129z" fill="#633c22"/><path d="M195.01209,239.85227c0,0 0.22823,-0.45645 0.68468,-1.29328c0.38037,-0.83683 0.91291,-1.97796 1.44543,-3.42338c0.53252,-1.44543 1.06506,-3.19517 1.21721,-5.09705c0.07608,-0.9129 0,-1.90188 -0.3043,-2.89086c-0.3043,-0.98898 -0.60861,-1.97795 -0.98898,-2.89086c-0.68467,-1.97796 -1.36936,-3.87984 -1.97796,-5.78172c-0.6086,-1.82581 -0.98898,-3.65162 -1.36935,-5.09705c-0.3043,-1.5215 -0.53253,-2.81479 -0.68468,-3.65161c-0.15215,-0.9129 -0.22822,-1.36936 -0.22822,-1.36936c0,0 0.07607,0.53253 0.3043,1.36936c0.07608,0.45645 0.22823,0.98898 0.38038,1.59758c0.15215,0.6086 0.3043,1.29328 0.53253,2.05403c0.22823,0.76075 0.38037,1.52151 0.68467,2.43441c0.22823,0.83683 0.53253,1.74973 0.83683,2.66263c0.6086,1.82581 1.29327,3.72769 2.05403,5.70565c0.3043,0.98898 0.68468,1.97795 0.9129,2.96693c0.3043,0.98898 0.38038,2.05403 0.3043,3.04301c-0.07608,0.98898 -0.3043,1.90188 -0.53252,2.73871c-0.22823,0.83683 -0.53253,1.67366 -0.83683,2.35834c-0.6086,1.44543 -1.21721,2.58656 -1.67365,3.34731c-0.53252,0.76075 -0.76075,1.21721 -0.76075,1.21721z" fill="#633c22"/><path d="M213.57446,237.11356c0,0 0.38038,-0.3043 0.91291,-0.9129c0.3043,-0.3043 0.6086,-0.68468 0.9129,-1.14113c0.3043,-0.45645 0.76076,-0.98898 1.14113,-1.5215c0.15215,-0.3043 0.38038,-0.6086 0.60861,-0.9129c0.15215,-0.3043 0.38037,-0.68468 0.6086,-0.98898c0.38037,-0.68467 0.76076,-1.44543 1.14113,-2.20618c0.3043,-0.83683 0.76075,-1.59758 1.06506,-2.51048c0.3043,-0.83683 0.6086,-1.74973 0.9129,-2.66263l0.38038,-1.29328c0.15215,-0.45645 0.22823,-0.91291 0.38038,-1.36936c0.22823,-0.9129 0.45645,-1.74973 0.6086,-2.58656c0.15215,-0.83683 0.38038,-1.67365 0.45646,-2.51048c0.15215,-0.76075 0.22822,-1.52151 0.3043,-2.20618c0.22823,-1.36936 0.3043,-2.58656 0.38038,-3.34731c0.07608,-0.83683 0.15215,-1.29328 0.15215,-1.29328c0,0 0,0.45645 -0.07608,1.29328c0,0.38037 -0.07608,0.9129 -0.07608,1.44543c0,0.6086 -0.07608,1.21721 -0.15215,1.90188c-0.07608,0.68467 -0.15215,1.44543 -0.22823,2.28226c-0.07608,0.83683 -0.22822,1.67365 -0.38037,2.51048c-0.15215,0.83683 -0.38038,1.74973 -0.53253,2.66263c-0.07608,0.45645 -0.22822,0.91291 -0.3043,1.36936l-0.38038,1.36935c-0.22823,0.9129 -0.6086,1.74973 -0.9129,2.66263c-0.3043,0.9129 -0.76075,1.67366 -1.06506,2.51049c-0.38037,0.76075 -0.76076,1.5215 -1.21721,2.20618c-0.22823,0.38037 -0.38037,0.68468 -0.6086,0.98898c-0.22823,0.3043 -0.45645,0.60861 -0.6086,0.91291c-0.38037,0.6086 -0.83683,1.06506 -1.2172,1.5215c-0.38037,0.45645 -0.68468,0.76075 -0.98898,1.06506c-0.83683,0.53252 -1.21721,0.76075 -1.21721,0.76075z" fill="#633c22"/></g><path d="M195.01209,259.86007c1.21721,0.91291 1.90188,-0.3043 3.11909,-0.83683c1.21721,-0.53253 2.81479,1.59758 2.81479,1.59758c0,0 0.15215,5.8578 1.74973,8.06398c0.98898,1.36935 1.21721,3.65161 1.21721,3.65161c-1.36936,-1.67365 -1.44543,-2.20619 -1.44543,-2.20619c0,0 0.45645,1.5215 1.82581,3.80376c1.36936,2.28226 4.9449,3.65161 4.9449,3.65161c-0.6086,0.98898 -2.05403,0.53253 -2.05403,0.53253c3.49946,0.98898 2.35834,6.4664 2.35834,6.4664c-0.83683,-1.5215 -1.14113,-1.59758 -1.74973,-2.13011c0.15215,1.06505 -0.38038,1.90188 -1.06506,2.66263c0,-1.90188 -1.14113,-3.19516 -1.14113,-3.19516c0.83683,2.66264 -1.90188,4.18414 -1.90188,4.18414c0,-1.36935 -1.29328,-3.72769 -1.29328,-3.72769c-0.38037,0.83683 0.3043,3.19516 0.68467,3.19516c-0.6086,0 -2.43441,-1.5215 -3.04301,-2.81478c0.22823,0.76076 1.21721,2.81478 2.13011,3.72769c-4.03199,0 -4.79274,-3.04301 -4.79274,-3.04301c-0.22823,1.82581 0.68468,2.96694 0.68468,2.96694c-3.95592,-0.53253 -3.72769,-4.64059 -3.72769,-4.64059c-1.44543,1.67365 -0.9129,2.58656 -0.9129,2.58656c-1.90188,-2.35834 -0.68467,-5.8578 -0.68467,-5.8578c-0.68467,1.2172 -2.58656,1.90188 -2.58656,1.90188c0,0 1.74973,-2.81479 1.74973,-6.08603c0,-3.27123 1.36936,-4.33629 1.36936,-4.33629c-1.06506,1.44543 -2.43441,1.59758 -2.43441,1.59758c2.43441,-1.67365 2.43441,-10.04194 2.05403,-13.31317c0,0 0.9129,0.68467 2.13011,1.59758z" fill="#ebd4c5"/></g><g><g><path d="M269.64194,249.05738c0,1.82581 -0.38038,7.075 -1.74973,10.87877c-1.5215,4.18414 -1.59758,8.97688 -1.67366,11.71559c0,1.06505 0.45646,3.87984 3.11909,5.70565c1.90188,1.29328 2.05403,3.80377 1.90188,7.37931c0,0 -6.1621,0.76075 -7.45538,-0.53253c0,0 -0.30431,-3.80376 -1.59759,-5.09704c-0.91291,-0.83683 -2.81478,-2.73871 -2.51048,-4.9449c1.29328,-8.97688 -1.36936,-14.53038 -2.05403,-16.28011c-0.98898,-2.81479 -0.15215,-5.93387 0.68468,-7.30322c0.83683,-1.36936 1.59758,-4.71667 0.9129,-9.50941c-0.45645,-3.49946 -0.68467,-8.74866 -1.44543,-11.56344c-0.76076,-2.81479 -0.83682,-4.26021 -1.67365,-6.4664c-1.67365,-4.64059 -2.81479,-12.17204 0.68467,-15.0629c3.49946,-2.89086 13.8457,-3.95592 19.01882,2.73871c3.49946,4.56452 -2.20618,19.93173 -2.28226,20.23603c-2.35834,10.27016 -3.80376,15.13898 -3.87984,18.10591z" fill="#874e35"/><path d="M259.44785,245.86222c0,0 0,-0.38038 0,-1.14113c0,-0.76075 -0.07608,-1.74973 -0.15215,-3.04301c-0.07608,-1.21721 -0.22823,-2.66264 -0.45645,-4.26022c-0.07608,-0.76075 -0.22823,-1.59758 -0.3043,-2.35833c-0.07608,-0.83683 -0.3043,-1.59758 -0.38038,-2.43441c-0.15215,-0.83683 -0.3043,-1.59758 -0.45645,-2.43441c-0.15215,-0.83683 -0.38038,-1.59758 -0.53253,-2.35833c-0.15215,-0.76075 -0.38038,-1.52151 -0.53253,-2.20618c-0.15215,-0.68467 -0.38037,-1.36936 -0.53252,-1.97796c-0.15215,-0.6086 -0.3043,-1.14113 -0.45645,-1.67365c-0.15215,-0.45645 -0.22823,-0.91291 -0.38038,-1.29328c-0.22823,-0.68467 -0.3043,-1.14113 -0.3043,-1.14113c0,0 0.15215,0.38038 0.38038,1.06506c0.22823,0.68467 0.6086,1.67365 0.98898,2.89086c0.15215,0.6086 0.38038,1.21721 0.60861,1.90188c0.22823,0.68467 0.38038,1.44543 0.6086,2.20618c0.15215,0.76075 0.38037,1.5215 0.53252,2.35833c0.15215,0.83683 0.3043,1.59758 0.45646,2.43441c0.15215,0.83683 0.3043,1.67365 0.38038,2.43441c0.07608,0.83683 0.22823,1.59758 0.3043,2.43441c0.15215,1.5215 0.22823,3.04301 0.3043,4.26021c0,1.21721 0,2.28226 0,3.04301c0,0.9129 -0.07608,1.29328 -0.07608,1.29328z" fill="#633c22"/><path d="M273.82608,229.81034c0,0 0.07608,-0.45646 0.22823,-1.06506c0.15215,-0.68467 0.38038,-1.52151 0.6086,-2.35834c0.45645,-1.67365 0.98898,-3.42338 0.98898,-3.42338c0,0 0,0.45646 0,1.14113c-0.07608,0.68467 -0.22823,1.5215 -0.45645,2.4344c-0.22823,0.83683 -0.53253,1.67366 -0.83683,2.28226c-0.3043,0.6086 -0.53253,0.98898 -0.53253,0.98898z" fill="#633c22"/><path d="M261.50189,253.69797c0,0 0,0.22823 0.07608,0.60861c0.07608,0.38037 0.15215,0.83683 0.3043,1.29328c0.07608,0.22823 0.15215,0.45645 0.22823,0.68468c0.07608,0.22823 0.22823,0.38038 0.3043,0.53253c0.07608,0.15215 0.22823,0.3043 0.3043,0.38037c0.07608,0.07608 0.15215,0.15215 0.15215,0.15215c0,0 -0.07608,0 -0.15215,-0.07608c-0.07608,-0.07608 -0.3043,-0.07608 -0.45646,-0.22823c-0.15215,-0.15215 -0.38037,-0.3043 -0.45645,-0.53253c-0.15215,-0.22823 -0.22823,-0.45645 -0.38038,-0.76075c-0.15215,-0.53252 -0.15215,-1.06506 -0.07608,-1.44543c0.07608,-0.38037 0.15215,-0.60861 0.15215,-0.60861z" fill="#633c22"/></g><path d="M264.16452,282.8348c1.82581,0 7.22715,-0.6086 9.88979,-1.29327c0.76076,2.35834 0.3043,5.24919 0.3043,5.24919c-2.35834,0.76076 -7.45538,1.29328 -9.73764,0.60861c0,0 0.07608,-2.89087 -0.45645,-4.56452z" fill="#b3927e"/><path d="M260.66506,259.93615c1.2172,0.91291 1.90189,-0.3043 3.11909,-0.83683c1.2172,-0.53253 3.57554,1.06506 3.57554,1.06506c0,0 -0.53253,6.39032 1.06505,8.5965c0.98898,1.36935 1.2172,3.65161 1.2172,3.65161c-1.36935,-1.67365 -1.44543,-2.20619 -1.44543,-2.20619c0,0 0.45645,1.5215 1.82581,3.80376c1.36935,2.28226 4.9449,3.65161 4.9449,3.65161c-0.6086,0.98898 -2.05403,0.53253 -2.05403,0.53253c3.49946,0.98898 2.35833,6.4664 2.35833,6.4664c-0.83683,-1.5215 -1.14113,-1.59758 -1.74973,-2.13011c0.15215,1.06505 -0.38038,1.90188 -1.06505,2.66263c0,-1.90188 -1.14113,-3.19516 -1.14113,-3.19516c0.83683,2.66264 -1.90188,4.18414 -1.90188,4.18414c0,-1.36935 -1.29328,-3.72769 -1.29328,-3.72769c-0.38038,0.83683 0.3043,3.19516 0.68468,3.19516c-0.6086,0 -2.43441,-1.52151 -3.04301,-2.81479c0.22823,0.76076 1.2172,2.81479 2.13011,3.72769c-4.03199,0 -4.79274,-3.04301 -4.79274,-3.04301c-0.22823,1.82581 0.68468,2.96694 0.68468,2.96694c-3.95592,-0.53253 -3.72769,-4.64059 -3.72769,-4.64059c-1.44543,1.67365 -0.91291,2.58656 -0.91291,2.58656c-1.90188,-2.35834 -0.68468,-5.8578 -0.68468,-5.8578c-0.68468,1.2172 -2.58656,1.90188 -2.58656,1.90188c0,0 1.74973,-2.81479 1.74973,-6.08603c0,-3.27123 1.36935,-4.33629 1.36935,-4.33629c-1.06505,1.44543 -2.43441,1.59758 -2.43441,1.59758c2.51049,-1.59758 1.82581,-10.04193 1.44543,-13.31317c0,0 1.74973,0.68467 2.66264,1.59758z" fill="#ebd4c5"/></g></g></g></svg>