<svg version="1.1" xmlns="http://www.w3.org/2000/svg" xmlns:xlink="http://www.w3.org/1999/xlink" width="73" height="73" viewBox="0,0,73,73"><g transform="translate(-19.5,-145.5)"><g data-paper-data="{&quot;isPaintingLayer&quot;:true}" fill-rule="nonzero" stroke="none" stroke-linecap="butt" stroke-linejoin="miter" stroke-miterlimit="10" stroke-dasharray="" stroke-dashoffset="0" style="mix-blend-mode: normal"><path d="M19.5,218.5v-73h73v73z" fill="#000000" stroke-width="0"/><path d="M24,180.5c0,-17.94925 14.55075,-32.5 32.5,-32.5c17.94925,0 32.5,14.55075 32.5,32.5c0,17.94925 -14.55075,32.5 -32.5,32.5c-17.94925,0 -32.5,-14.55075 -32.5,-32.5z" fill="#3d3d3d" stroke-width="0"/><path d="M31.67578,180.19532c0,-13.71003 11.11419,-24.82422 24.82422,-24.82422c13.71003,0 24.82422,11.11419 24.82422,24.82422c0,13.71003 -11.11419,24.82422 -24.82422,24.82422c-13.71003,0 -24.82422,-11.11419 -24.82422,-24.82422z" fill="#f00000" stroke-width="0"/><path d="M38.88394,171.3638c0,-5.36335 4.34784,-9.71118 9.71119,-9.71118c5.36335,0 9.71119,4.34784 9.71119,9.71119c0,5.36335 -4.34784,9.71119 -9.71119,9.71119c-5.36335,0 -9.71119,-4.34785 -9.71119,-9.71119z" fill="#f90000" stroke-width="0"/><text transform="translate(34.57166,178.52969) scale(0.16115,0.16115)" font-size="40" xml:space="preserve" fill="#990000" fill-rule="nonzero" stroke="none" stroke-width="1" stroke-linecap="butt" stroke-linejoin="miter" stroke-miterlimit="10" stroke-dasharray="" stroke-dashoffset="0" font-family="Sans Serif" font-weight="normal" text-anchor="start" style="mix-blend-mode: normal"><tspan x="0" dy="0">doppelganger</tspan><tspan x="0" dy="46.150000000000006px">   emergency</tspan></text></g></g></svg>