<svg version="1.1" xmlns="http://www.w3.org/2000/svg" xmlns:xlink="http://www.w3.org/1999/xlink" width="151.12016" height="113.78956" viewBox="0,0,151.12016,113.78956"><g transform="translate(-134.44934,-121.11708)"><g data-paper-data="{&quot;isPaintingLayer&quot;:true}" stroke-miterlimit="10" stroke-dasharray="" stroke-dashoffset="0" style="mix-blend-mode: normal"><g fill-rule="evenodd"><path d="M220.35354,200.78817c0.7199,0.5308 2.24115,1.708 -0.70444,4.64798c-2.94559,2.93998 -9.86374,2.45086 -10.65197,2.31418c-3.07151,-0.43109 -6.81564,-1.0803 -10.71471,-3.17727c-11.33725,-6.0255 -9.19771,-18.94999 -4.99627,-20.35282c4.10291,-1.41991 4.39407,6.85144 8.97606,12.61904c1.98886,2.57768 4.70954,3.86137 6.98884,4.76405c3.24751,1.17205 10.30115,-1.46159 11.1025,-0.81518z" fill="#ffab19" stroke="#001026" stroke-width="1.2" stroke-linecap="round" stroke-linejoin="round"/><path d="M197.302,188.57029c1.11519,2.93366 3.52041,7.20741 3.52041,7.20741c0,0 -3.49184,-1.5189 -5.8514,-0.20266c-1.89711,0.99045 -1.87885,3.22644 -1.80138,3.95032c-1.05879,-1.50299 -2.32774,-3.54987 -2.71508,-7.16926c-0.38734,-3.61939 1.31551,-7.58679 3.38861,-7.83628c2.03893,-0.05243 2.27531,1.51094 3.45885,4.05048z" fill="#ffffff" stroke="none" stroke-width="1" stroke-linecap="butt" stroke-linejoin="miter"/></g><path d="M223.50324,211.88949c-1.97855,0.87484 -8.83912,4.15091 -17.05008,5.26447l-0.4112,0.03019c-0.4112,0.03019 -0.69369,0.48867 -0.56496,0.91696c1.26498,2.65515 3.49934,7.9142 -2.21023,8.64956c-5.51252,0.76953 -12.85805,-14.81454 -8.08767,-17.74259c2.11125,-1.05481 3.66666,-0.07467 4.48509,0.47321c0.45848,0.28248 0.95113,0.3679 1.46086,0.3548c1.2507,-0.1891 3.55503,-0.60148 5.38379,-1.19781c4.61264,-1.43302 5.7517,-2.14894 7.97856,-3.2852c2.22686,-1.13626 7.39136,-3.99597 10.49026,-0.21089c2.69167,3.20701 0.4056,5.85538 -1.47442,6.7473z" fill="#ffab19" fill-rule="evenodd" stroke="#001026" stroke-width="1.2" stroke-linecap="round" stroke-linejoin="round"/><path d="M242.72305,194.11173c0.42431,0.47954 5.20454,8.61584 7.48266,7.184c2.72349,-1.6591 6.67544,-5.13503 9.65872,-1.2685c2.98328,3.86653 -4.67348,8.22245 -7.78711,9.20494c-7.32818,1.87559 -11.83786,-4.8944 -12.74686,-6.67589c-0.90901,-1.78149 -2.51685,-4.80057 -2.07265,-7.36234c0.5769,-2.74175 4.0465,-2.85058 5.46524,-1.0822z" fill="#ffab19" fill-rule="evenodd" stroke="#001026" stroke-width="1.2" stroke-linecap="round" stroke-linejoin="round"/><g fill-rule="evenodd"><path d="M238.84089,217.08626c1.74452,2.23084 5.61059,6.85939 5.61059,6.85939c0,0 14.51687,-0.02016 13.28679,7.07399c-0.73463,4.23678 -7.99962,3.99199 -17.40325,1.44803c-0.57409,-0.20104 -1.1311,-0.5006 -1.55541,-0.98015c-1.84305,-2.24793 -7.09369,-8.84192 -10.36859,-13.36796c-4.82236,-6.72271 -9.0011,-11.30399 -9.0011,-11.30399c-6.95702,-9.63016 0.4395,-11.89987 3.91986,-16.16801c3.16371,-3.61261 4.11086,-2.63644 9.81763,-0.42901c3.26459,1.07352 5.18393,1.7108 7.36867,1.98813c3.26857,0.46526 1.85733,5.09218 0.54345,7.40167c0,0 -2.01154,3.40642 -3.61704,5.05639c-1.96942,1.99283 -3.40805,3.26577 -4.74416,3.94752z" fill="#ffab19" stroke="#001026" stroke-width="1.2" stroke-linecap="round" stroke-linejoin="round"/><path d="M231.82864,208.35995c0,0 -1.27293,-1.43863 -2.59314,-3.18992c-1.66307,-2.11523 -3.3774,-3.93486 -0.87719,-6.6476c2.18356,-2.05719 4.40528,-4.91971 8.34367,-1.29354c3.7755,3.39494 1.47632,5.53358 1.47632,5.53358c-2.93646,4.05798 -6.34966,5.59749 -6.34966,5.59749z" fill="#ffffff" stroke="none" stroke-width="1" stroke-linecap="butt" stroke-linejoin="miter"/></g><path d="M218.35157,197.70075c1.68929,3.13469 4.44134,7.16411 -0.29089,9.28684c-6.37705,2.2435 -9.49655,-8.44662 -9.88389,-12.06601c-0.35715,-3.20818 2.54632,-4.73458 5.00441,-6.03373c4.7664,-2.31979 8.79184,-4.46358 12.47676,-2.30225c4.61897,2.62776 0.38851,5.95391 -2.38225,7.30033c-1.66588,0.82756 -3.34884,1.75365 -4.55226,2.25543c-0.38101,0.4414 -0.58205,1.01549 -0.37188,1.55939z" fill="#ffab19" fill-rule="evenodd" stroke="#001026" stroke-width="1.2" stroke-linecap="round" stroke-linejoin="round"/><path d="M190.52443,185.44956c-19.95899,0 -36.13895,-2.59294 -36.13895,-5.7915c0,-3.19856 16.17996,-5.7915 36.13895,-5.7915c2.70575,0 13.20193,1.58377 20.58212,-0.04945c6.40284,-1.41694 9.8301,-6.11465 11.5844,-5.74003c2.31099,0.49351 3.02726,8.47766 -3.33293,12.77796c-6.10997,4.13112 -19.05433,4.59451 -28.83359,4.59451z" fill="#ffffff" fill-rule="nonzero" stroke="#001026" stroke-width="1.2" stroke-linecap="butt" stroke-linejoin="miter"/><path d="M261.25103,138.83583c0.34163,-0.11529 0.79854,0.11105 0.7913,0.5233l-0.26605,11.00814c0,0 4.96092,6.19994 5.93937,9.87998c1.66294,6.14204 0.59163,10.5138 0.59163,10.5138c0,0 6.31171,3.8707 5.99127,9.68683c-0.32043,5.81613 -7.37259,15.10414 -26.48867,13.79821c-19.11608,-1.30593 -32.37508,-10.15007 -36.27317,-23.00211c-3.89809,-12.85204 10.44775,-23.07931 9.66068,-22.46244l2.61753,-17.83167c0.00724,-0.41225 0.56796,-0.5722 0.90235,-0.27524l9.63511,10.76961c0,0 4.78701,-0.47387 9.37787,0.55277c2.75596,0.53354 5.02182,1.34955 7.1392,2.33276z" fill="#ffab19" fill-rule="evenodd" stroke="#001026" stroke-width="1.2" stroke-linecap="butt" stroke-linejoin="miter"/><path d="M267.91375,171.06948c0,0 6.19642,3.52908 5.87599,9.3452c-0.32043,5.81613 -7.62912,14.51746 -26.5261,13.16686c-24.66844,-1.45193 -32.03717,-18.34311 -22.81574,-26.84105c9.24739,-8.59452 17.99163,3.17826 26.25952,4.77886c7.08306,1.38574 9.49068,-4.49077 17.20632,-0.44987z" fill="#ffffff" fill-rule="evenodd" stroke="none" stroke-width="1" stroke-linecap="butt" stroke-linejoin="miter"/><path d="M284.9695,182.18775c-5.88795,1.36454 -12.40803,-1.69137 -12.40803,-1.69137" fill="none" fill-rule="evenodd" stroke="#001026" stroke-width="1.2" stroke-linecap="round" stroke-linejoin="round"/><path d="M278.90659,191.69413c-5.8853,-2.30288 -8.56318,-5.71593 -8.56318,-5.71593" fill="none" fill-rule="evenodd" stroke="#001026" stroke-width="1.2" stroke-linecap="round" stroke-linejoin="round"/><path d="M250.9959,168.90463c2.02804,0.54501 4.10076,1.30912 4.01566,2.01109c-0.26677,1.37798 -2.44205,3.69275 -4.01318,3.37407c-1.79023,-0.27401 -5.19749,-3.77837 -4.78225,-5.32354c0.21486,-1.18484 2.8483,-0.58068 4.77977,-0.06162z" fill="#001026" fill-rule="evenodd" stroke="#001026" stroke-width="1.2" stroke-linecap="round" stroke-linejoin="round"/><path d="M207.92711,155.77721c0,0 7.57864,4.93601 10.15417,8.83814" fill="none" fill-rule="evenodd" stroke="#001026" stroke-width="1.2" stroke-linecap="round" stroke-linejoin="round"/><path d="M217.46265,168.07328c-4.59386,0.52577 -11.45482,-2.45705 -11.45482,-2.45705" fill="none" fill-rule="evenodd" stroke="#001026" stroke-width="1.2" stroke-linecap="round" stroke-linejoin="round"/><path d="M263.56246,166.06885c-0.28548,1.06231 -1.29165,1.72385 -2.25738,1.46432c-0.96574,-0.25953 -1.50475,-1.33631 -1.21926,-2.39862c0.28548,-1.06231 1.29165,-1.72385 2.25738,-1.46432c0.96574,0.25953 1.50475,1.33631 1.21926,2.39862" fill="#001026" fill-rule="evenodd" stroke="none" stroke-width="1" stroke-linecap="butt" stroke-linejoin="miter"/><path d="M238.66645,162.38125c-0.28548,1.06231 -1.29165,1.72385 -2.25738,1.46432c-0.96574,-0.25953 -1.50475,-1.33631 -1.21926,-2.39862c0.28548,-1.06231 1.29165,-1.72385 2.25738,-1.46432c0.93978,0.3561 1.50475,1.33631 1.21926,2.39862" fill="#001026" fill-rule="evenodd" stroke="none" stroke-width="1" stroke-linecap="butt" stroke-linejoin="miter"/><path d="M224.05492,152.09032c0.94063,-5.93926 22.44859,-2.53291 21.50796,3.40634c-0.94063,5.93926 -6.5179,9.99144 -12.45715,9.05081c-5.93926,-0.94063 -9.99144,-6.5179 -9.05081,-12.45715z" fill="#000000" fill-rule="nonzero" stroke="none" stroke-width="0" stroke-linecap="butt" stroke-linejoin="miter"/><path d="M249.86929,157.08636c1.07534,-5.91635 22.50035,-2.02219 21.425,3.89416c-1.07534,5.91635 -6.74323,9.84077 -12.65958,8.76542c-5.91635,-1.07534 -9.84077,-6.74323 -8.76542,-12.65958z" fill="#000000" fill-rule="nonzero" stroke="none" stroke-width="0" stroke-linecap="butt" stroke-linejoin="miter"/><path d="M226.1287,151.68233l-6.18733,-2.86217" fill="none" fill-rule="nonzero" stroke="#000000" stroke-width="2" stroke-linecap="round" stroke-linejoin="miter"/><path d="M253.4266,156.51127l-9.54383,-2.3483" fill="none" fill-rule="nonzero" stroke="#000000" stroke-width="2" stroke-linecap="round" stroke-linejoin="miter"/><path d="M261.8416,150.0054l6.04337,7.86094" fill="none" fill-rule="nonzero" stroke="#000000" stroke-width="2" stroke-linecap="round" stroke-linejoin="miter"/><path d="M233.17902,179.00422c0,0 8.70854,0.66115 12.9493,1.80081c4.53872,1.21973 13.44991,5.29365 13.44991,5.29365" fill="none" fill-rule="nonzero" stroke="#001026" stroke-width="1.2" stroke-linecap="round" stroke-linejoin="miter"/><path d="M231.10714,143.86837l12.30472,3.30674" fill="none" fill-rule="nonzero" stroke="#001026" stroke-width="1.2" stroke-linecap="round" stroke-linejoin="miter"/><path d="M254.85751,148.32285l12.30472,3.30674" fill="none" fill-rule="nonzero" stroke="#001026" stroke-width="1.2" stroke-linecap="round" stroke-linejoin="miter"/><path d="M250.47717,184.09621c-1.14325,4.25416 -4.25083,7.11678 -6.94095,6.39384c-2.69013,-0.72294 -3.94412,-4.75767 -2.80087,-9.01184c0.58076,-2.16105 2.78852,-1.25031 5.25297,-0.55101c2.38696,0.67731 5.05136,1.0759 4.48886,3.16901z" fill="#ff56f1" fill-rule="nonzero" stroke="#001026" stroke-width="1.2" stroke-linecap="butt" stroke-linejoin="miter"/><path d="M182.14934,121.61631c0.3,-0.2 0.8,-0.1 0.9,0.3l2.6,10.7c0,0 6.4,4.7 8.3,8c3.2,5.5 3.3,10 3.3,10c0,0 7.1,2.1 8.3,7.8c1.2,5.7 -3.2,16.5 -22,20.2c-18.8,3.7 -33.9,-1.4 -41,-12.8c-7.1,-11.4 4.1,-25 3.5,-24.2l-2.1,-17.9c-0.1,-0.4 0.4,-0.7 0.8,-0.5l12.1,7.9c0,0 4.5,-1.7 9.2,-1.9c2.8,-0.2 5.2,0 7.5,0.4z" fill="#ffffff" fill-rule="evenodd" stroke="#001026" stroke-width="1.2" stroke-linecap="butt" stroke-linejoin="miter"/><path d="M196.94934,151.0163c0,0 6.9,1.8 8.1,7.5c1.2,5.7 -3.6,16 -22.2,19.6c-24.2,5 -35.7,-9.4 -29,-20c6.7,-10.7 18.2,-1.6 26.6,-2.2c7.2,-0.5 8,-6.8 16.5,-4.9z" fill="#ff0000" fill-rule="evenodd" stroke="none" stroke-width="1" stroke-linecap="butt" stroke-linejoin="miter"/><path d="M165.44934,161.71631c0,-0.4 0.4,-0.7 0.8,-0.6c1.9,0.7 7.3,2.3 13.3,2.7c5.4,0.3 8.6,0 10.1,-0.3c0.5,-0.1 0.9,0.4 0.7,0.9c-0.9,2.7 -4.7,10.2 -15.2,9.6c-9.1,-1 -10,-7.4 -9.7,-12.3z" fill="#ffffff" fill-rule="evenodd" stroke="#001026" stroke-width="1.2" stroke-linecap="round" stroke-linejoin="round"/><path d="M215.34934,152.11631c-4.7,3.8 -11.9,3.9 -11.9,3.9" fill="none" fill-rule="evenodd" stroke="#001026" stroke-width="1.2" stroke-linecap="round" stroke-linejoin="round"/><path d="M214.04934,163.31631c-6.3,0.5 -10.2,-1.4 -10.2,-1.4" fill="none" fill-rule="evenodd" stroke="#001026" stroke-width="1.2" stroke-linecap="round" stroke-linejoin="round"/><path d="M180.04934,153.31631c2.1,0 4.3,0.2 4.4,0.9c0.1,1.4 -1.4,4.2 -3,4.3c-1.8,0.2 -6,-2.3 -6,-3.9c-0.1,-1.2 2.6,-1.3 4.6,-1.3z" fill="#ff0000" fill-rule="evenodd" stroke="#001026" stroke-width="1.2" stroke-linecap="round" stroke-linejoin="round"/><path d="M135.04934,151.81631c0,0 8.6,2.8 12.1,5.9" fill="none" fill-rule="evenodd" stroke="#001026" stroke-width="1.2" stroke-linecap="round" stroke-linejoin="round"/><path d="M147.44934,161.21631c-4.3,1.7 -11.7,0.6 -11.7,0.6" fill="none" fill-rule="evenodd" stroke="#001026" stroke-width="1.2" stroke-linecap="round" stroke-linejoin="round"/><path d="M191.84934,141.61631c2.9,4.5 3,9.6 0.2,11.4c-2.8,1.8 -7.4,-0.3 -10.4,-4.8c-2.9,-4.5 -3,-9.6 -0.2,-11.4c2.8,-1.9 7.5,0.3 10.4,4.8z" fill="#ffffff" fill-rule="evenodd" stroke="#001026" stroke-width="1.2" stroke-linecap="round" stroke-linejoin="round"/><path d="M187.3085,146.82333c0,0.47441 -0.34502,0.86256 -0.77631,0.86256c-0.43129,0 -0.77631,-0.38815 -0.77631,-0.86256c0,-0.47441 0.34503,-0.86257 0.77631,-0.86257c0.43129,0 0.77631,0.38816 0.77631,0.86257" fill="#001026" fill-rule="evenodd" stroke="none" stroke-width="1" stroke-linecap="butt" stroke-linejoin="miter"/><path d="M167.04934,144.41631c3,4.4 2.8,9.8 0.1,11.7c-3.3,1.9 -7.7,0.5 -10.7,-3.9c-3.1,-4.4 -3.3,-10.1 -0.2,-12.3c3.1,-2.3 7.8,0.1 10.8,4.5z" fill="#ffffff" fill-rule="evenodd" stroke="#001026" stroke-width="1.2" stroke-linecap="round" stroke-linejoin="round"/><path d="M161.97253,150.10762c0,0.47441 -0.34502,0.86256 -0.77631,0.86256c-0.43129,0 -0.77631,-0.38815 -0.77631,-0.86256c0,-0.47441 0.34503,-0.86257 0.77631,-0.86257c0.43129,0 0.77631,0.38816 0.77631,0.86257" fill="#001026" fill-rule="evenodd" stroke="none" stroke-width="1" stroke-linecap="butt" stroke-linejoin="miter"/></g></g></svg>