<svg version="1.1" xmlns="http://www.w3.org/2000/svg" xmlns:xlink="http://www.w3.org/1999/xlink" width="92.86445" height="107.69417" viewBox="0,0,92.86445,107.69417"><g transform="translate(-193.56777,-118.29436)"><g data-paper-data="{&quot;isPaintingLayer&quot;:true}" fill-rule="nonzero" stroke-miterlimit="10" stroke-dasharray="" stroke-dashoffset="0" style="mix-blend-mode: normal"><path d="M239.90929,214.99588c0,-1.3647 0.3828,-3.3251 2.5004,-3.7676c3.0551,-0.6409 6.5506,2.4527 7.5013,3.3629c-0.0703,0.3622 1.1185,7.6704 1.1185,8.304c0,2.1422 -0.5725,2.2271 -0.7947,2.2623c-2.0918,0.3045 -7.6665,-5.5575 -10.2253,-8.9681c-0.0352,-0.1851 -0.1002,-0.5971 -0.1002,-1.1935v0z" fill="#ffc93e" stroke="#603813" stroke-width="1.32684" stroke-linecap="butt" stroke-linejoin="miter"/><path d="M231.43869,225.23638c-1.5165,-1.6453 -1.7328,-6.1041 -1.7328,-8.0008c0,-0.8048 0.0411,-1.3401 0.0431,-1.3567l0.0027,-0.0412c0,0 -0.0047,-0.1718 -0.0047,-0.2348c0,-3.5719 3.2886,-4.8118 3.8459,-4.9982c1.904,0.0232 5.1952,0.9241 5.9807,2.2835c0.0796,0.1366 0.1539,0.3091 0.1539,0.53c0,0.1938 -0.0577,0.4286 -0.2222,0.7119c-0.0763,0.13 -1.4284,3.3251 -2.5721,5.7751l-0.8173,2.2656c-0.6117,1.9796 -1.5743,3.9606 -2.6219,3.9606c-0.8279,0.0013 -1.5,-0.2919 -2.0553,-0.895v0z" fill="#ffc93e" stroke="#603813" stroke-width="1.32684" stroke-linecap="butt" stroke-linejoin="miter"/><path d="M274.32949,199.34178l-1.4787,-2.6092c-1.6194,-2.8202 -3.4903,-5.4023 -5.1402,-7.6752c-2.121,-2.9276 -3.9666,-5.9568 -4.5776,-8.097c-0.2203,-0.7709 -0.1141,-1.5066 0.203,-1.9133c0.0305,-0.1095 0.3503,-0.2839 0.5758,-0.3304c2.7174,-0.5871 13.9657,5.8706 16.772,9.3224c4.1112,5.0553 5.7551,12.1466 4.8383,15.7184c-0.3762,1.4595 -1.2174,2.4938 -2.4354,2.9861c-3.1135,1.2578 -5.1614,-1.0124 -8.7572,-7.4018v0z" fill="#ffc93e" stroke="#603813" stroke-width="1.32684" stroke-linecap="butt" stroke-linejoin="miter"/><path d="M230.05149,149.50698c3.9932,-2.1701 -0.128,-10.3408 -4.1152,-18.2447c-2.1793,-4.3216 -6.0656,-11.6205 -4.8025,-12.3045c2.4434,-1.3242 14.1163,12.4511 18.8485,18.0032l4.8237,5.4945c0,0 3.4485,4.2306 6.0875,7.021c0.0465,0.0484 2.5416,-0.339 4.2652,-1.7714c1.4051,-1.1722 1.2193,-2.4838 1.6665,-5.2423c0.4106,-2.5343 0.8565,-7.1205 2.2165,-7.1437c2.0486,-0.0312 3.3954,8.4128 3.9201,11.5408l0.2899,1.6732c0.688,3.7204 4.2771,14.9064 4.431,15.3807c0.0491,0.1154 0.1301,0.2654 0.1301,0.2654l0.0298,0.0604l0.0411,0.0504c5.5423,6.8737 9.6641,15.2082 9.6641,23.0167c0,16.5351 -14.4944,28.1748 -33.8955,28.1748c-3.5984,0 -7.1178,-0.5042 -10.4608,-1.4954l-0.1798,-0.0517c0,0 -5.2476,-0.4412 -11.9608,8.383c-1.3467,1.7713 -1.2267,3.4226 -3.1247,2.9144c-0.6329,-0.1692 -1.098,-0.6343 -1.4774,-1.4788c-0.9076,-2.0141 -0.2376,-6.7861 0.8717,-9.8352l0.1745,-0.479l-0.4007,-0.3171c-0.0982,-0.0783 -10.9863,-8.0121 -12.0862,-19.3812c-0.9587,-9.9101 4.0475,-15.5525 6.1247,-18.6534l1.1935,-1.9876c1.5066,-3.6654 -1.3289,-8.7631 -3.8313,-13.2611c-1.494,-2.6855 -3.9056,-6.6043 -3.3609,-7.5252c0.6044,-1.0203 2.7645,0.0657 4.9458,1.106c1.7687,0.8452 3.4704,2.0393 4.6519,1.2518c1.2287,-0.818 0.4226,-2.8726 -0.6939,-5.7167c-1.0502,-2.6709 -3.0385,-6.8902 -2.2749,-8.6317c0.2103,-0.479 0.5792,-0.8154 1.1278,-1.0283c2.0288,-0.7855 4.9292,2.6318 7.2771,5.3047c2.864,3.2634 6.1121,6.9613 9.8836,4.908v0z" fill="#ffc93e" stroke="#603813" stroke-width="1.32684" stroke-linecap="round" stroke-linejoin="round"/><g stroke="none" stroke-width="0.66342" stroke-linecap="butt" stroke-linejoin="miter"><path d="M233.39979,188.51738v0c0,-2.984 2.4188,-5.4042 5.4036,-5.4055c2.9834,0 5.4022,2.4215 5.4022,5.4055c0,2.9821 -2.4182,5.4003 -5.4022,5.4003c-2.9841,0 -5.4036,-2.4182 -5.4036,-5.4003z" fill="#ffffff"/><path d="M239.53049,184.56868c1.0488,0 1.9995,0.426 2.6875,1.1146c0.6886,0.688 1.1145,1.6386 1.1145,2.6875c0,1.0489 -0.4259,1.9996 -1.1145,2.6875c-0.688,0.6887 -1.6387,1.1146 -2.6875,1.1146c-1.0489,0 -1.9996,-0.4259 -2.6875,-1.1146c-0.6887,-0.6879 -1.1146,-1.6386 -1.1146,-2.6875c0,-1.0489 0.4259,-1.9995 1.1146,-2.6875c0.6879,-0.6886 1.6386,-1.1146 2.6875,-1.1146z" fill="#603813"/></g><g stroke="none" stroke-width="0.66342" stroke-linecap="butt" stroke-linejoin="miter"><path d="M259.42709,188.51738v0c0,-2.984 2.4188,-5.4042 5.4042,-5.4055c2.9834,0 5.4023,2.4215 5.4023,5.4055c0,2.9821 -2.4202,5.4003 -5.4023,5.4003c-2.9854,0 -5.4042,-2.4182 -5.4042,-5.4003z" fill="#ffffff"/><path d="M261.75509,188.37078v0c0,-2.0991 1.701,-3.8021 3.8014,-3.8021c2.099,0 3.802,1.7037 3.802,3.8021c0,2.1011 -1.703,3.8007 -3.802,3.8007c-2.1004,0 -3.8014,-1.701 -3.8014,-3.8007z" fill="#603813"/></g><path d="M196.09439,209.37468c-1.1073,-0.7072 -1.7455,-1.8748 -1.8483,-3.3808c-0.2501,-3.6826 2.6643,-10.352 7.6286,-14.57c3.3901,-2.8806 15.6302,-7.1716 18.1937,-6.0989c0.2116,0.0889 0.4955,0.3172 0.5042,0.4326c0.2395,0.4564 0.2076,1.1975 -0.15,1.9153c-0.9911,1.9929 -3.3595,4.6353 -5.9814,7.1225c-2.038,1.9398 -4.3474,4.1304 -6.4537,6.6096l-1.9319,2.2888c-4.7017,5.6272 -7.1331,7.4887 -9.9612,5.6809v0z" fill="#ffc93e" stroke="#603813" stroke-width="1.32684" stroke-linecap="butt" stroke-linejoin="miter"/><path d="M256.83979,205.52158c0,0 -4.918,0.0039 -8.3618,-2.9476" fill="none" stroke="#603813" stroke-width="1.32684" stroke-linecap="round" stroke-linejoin="round"/></g></g></svg>