<svg version="1.1" xmlns="http://www.w3.org/2000/svg" xmlns:xlink="http://www.w3.org/1999/xlink" width="39.31955" height="34.49315" viewBox="0,0,39.31955,34.49315"><g transform="translate(-221.76613,-130.22099)"><g data-paper-data="{&quot;isPaintingLayer&quot;:true}" stroke="none" stroke-linecap="butt" stroke-linejoin="miter" stroke-miterlimit="10" stroke-dasharray="" stroke-dashoffset="0" style="mix-blend-mode: normal"><path d="M249.76669,153.3979c0.91873,-2.25024 7.60067,-3.58366 6.26428,1.00015c-1.33639,4.58381 -6.1808,3.25031 -6.1808,3.25031c0,0 -0.41758,-3.16699 -0.08348,-4.25045z" fill="#a0640a" fill-rule="evenodd" stroke-width="1"/><path d="M254.10988,150.23092c0.16705,4.91716 -2.00458,9.33433 -4.09265,11.58449c-3.50802,3.75038 -10.69103,3.00035 -12.52857,2.41696c-3.42446,-1.08346 -6.68195,-6.00062 -8.60296,-10.50111c-0.66819,-1.75017 -1.16934,-3.58366 -1.58692,-5.41723l16.45417,-8.91749c0,0 7.43362,1.58345 7.8512,2.16684c0.50115,0.66671 2.50573,5.1672 2.50573,8.66754z" fill="#a0640a" fill-rule="evenodd" stroke-width="1"/><path d="M225.87882,137.89632l0.50115,-0.33335c-0.75168,-2.00021 -2.50573,-5.25051 0.83524,-5.8339c2.00458,-0.41675 4.92789,1.83349 5.59609,3.66706c0.3341,0.16664 0.3341,0.16664 0.66819,-0.0834c-0.3341,-1.50013 -0.91873,-3.41694 0.3341,-4.58381c3.84212,-2.16684 5.67965,3.16699 7.76772,5.33391l0.50115,-0.08332c0.41766,-1.66685 -0.75168,-4.00041 1.75397,-4.08373c1.67049,0 2.42225,1.41673 3.25749,2.5002c2.00458,2.5836 4.84433,7.33412 4.84433,7.33412c0,0 0,2.91695 -4.34318,3.66698c-2.17163,0.41675 -5.93019,-1.83349 -11.77689,0.41675c-5.8467,2.25024 -5.67965,10.08436 -5.67965,10.08436c0,0 -6.26428,-11.66789 -7.01596,-13.33466c-0.58471,-1.25018 -2.17163,-5.00056 -0.83524,-6.00062c1.00229,-0.91674 2.83983,0.75003 3.5915,1.33342z" fill="#000000" fill-rule="evenodd" stroke-width="1"/><path d="M231.05733,157.2316c0,0 -4.84441,1.3335 -6.1808,-3.25031c-1.33639,-4.58381 5.34556,-3.25031 6.26428,-1.00006c0.41766,1.08338 -0.08348,4.25037 -0.08348,4.25037z" fill="#a0640a" fill-rule="evenodd" stroke-width="1"/><path d="M250.33568,154.05498c0,3.38275 -3.77759,6.125 -8.4375,6.125c-4.65991,0 -8.4375,-2.74225 -8.4375,-6.125c0,-3.38274 3.77759,-6.125 8.4375,-6.125c4.65991,0 8.4375,2.74226 8.4375,6.125z" fill="#000000" fill-rule="nonzero" stroke-width="0"/><path d="M246.46068,154.36748c0,4.59087 -3.18997,8.3125 -7.125,8.3125c-3.93503,0 -7.125,-3.72163 -7.125,-8.3125c0,-4.59087 3.18997,-8.3125 7.125,-8.3125c3.93503,0 7.125,3.72163 7.125,8.3125z" fill="#000000" fill-rule="nonzero" stroke-width="0"/><path d="M241.21068,152.74248c0,3.76244 2.68629,6.8125 6,6.8125c3.31371,0 6,-3.05006 6,-6.8125c0,-3.76244 -2.68629,-6.8125 -6,-6.8125c-3.31371,0 -6,3.05006 -6,6.8125z" fill="#000000" fill-rule="nonzero" stroke-width="0"/><path d="M248.96068,159.74248c0,1.82944 -2.0427,3.3125 -4.5625,3.3125c-2.5198,0 -4.5625,-1.48306 -4.5625,-3.3125c0,-1.82944 2.0427,-3.3125 4.5625,-3.3125c2.5198,0 4.5625,1.48306 4.5625,3.3125z" fill="#000000" fill-rule="nonzero" stroke-width="0"/><path d="M261.08568,154.61748c0,0.86294 -8.42265,1.5625 -18.8125,1.5625c-0.15593,0 -0.032,-3.125 0,-3.125c10.38985,0 18.8125,0.69956 18.8125,1.5625z" fill="#00ff06" fill-rule="nonzero" stroke-width="0"/></g></g></svg>