<svg version="1.1" xmlns="http://www.w3.org/2000/svg" xmlns:xlink="http://www.w3.org/1999/xlink" width="35.15513" height="48.15457" viewBox="0,0,35.15513,48.15457"><g transform="translate(-224.05798,-134.04035)"><g data-paper-data="{&quot;isPaintingLayer&quot;:true}" fill-rule="nonzero" stroke="none" stroke-width="0.95" stroke-linecap="butt" stroke-linejoin="miter" stroke-miterlimit="10" stroke-dasharray="" stroke-dashoffset="0" style="mix-blend-mode: normal"><path d="M253.47356,149.58895c-0.1482,0.1102 0.1853,0.0827 0.2062,0.2774c0.0684,0.6517 0.0038,1.1847 0.0655,1.825c0.0627,0.6498 -0.4189,1.2872 -0.2945,1.956c0.1321,0.7182 -0.1672,1.349 0.0076,2.0539c0.039,0.1596 0.0627,0.3971 0.1796,0.5206c0.0893,0.095 0.3182,0.0941 0.38,0.1663c0.1491,0.1719 0.1434,0.683 0.151,0.9139c0.0428,1.2901 -0.1919,2.5241 -0.3933,3.8323c-0.1016,0.6507 -0.0912,1.3138 -0.2812,1.9503c-0.1045,0.3496 -0.1045,0.6859 -0.2099,1.0365c-0.1482,0.4902 -0.4646,0.8911 -0.666,1.349c-0.3268,0.7448 -0.5481,1.4668 -0.9975,2.1736c-0.1719,0.2679 -0.4265,0.493 -0.5671,0.7799c-0.0941,0.191 -0.0323,0.2508 -0.191,0.4456c-0.0779,0.095 -0.171,0.1748 -0.2641,0.2375c-1.1713,0.7885 -2.9421,0.988 -4.2873,0.9205c-0.6764,-0.0342 -1.4735,-0.1045 -2.0948,-0.2726c-0.2489,-0.0665 -0.3496,0.3572 -0.5728,0.2707c-0.3392,-0.132 0.1662,0.3183 0,0.6384c-0.2679,0.5159 -0.0342,0.8873 0.2612,1.2445c0.3582,0.4361 0.1064,0.5273 0.495,0.9481c0.2375,0.2556 0.5063,0.6774 0.6393,1.0004c0.1435,0.3496 0.4247,0.816 0.6185,1.139c0.3439,0.5729 0.3971,0.9272 0.6688,1.5267c0.3021,0.6669 0.645,1.4839 0.5339,2.2372c-0.0817,0.5463 -0.1368,1.711 -0.7192,2.0615c-0.285,0.172 -0.7106,1.046 -1.0307,1.0726c-0.6441,0.0532 -1.1305,0.3059 -1.616,0.3011c-0.8189,-0.0066 -1.8734,-0.2014 -2.3902,-0.95c-0.1852,-0.266 -1.1001,-1.1571 -1.2806,-1.4288c-0.7961,-1.197 -1.102,-1.5789 -1.7366,-3.0352c-0.3068,-0.704 -0.5814,-1.7832 -1.0934,-2.3655c-0.4921,-0.5596 -0.1368,-1.1733 -0.6831,-1.6635c-0.5766,-0.5168 -0.284,-1.0022 -0.855,-1.5456c-0.2299,-0.2176 -0.3895,-1.2094 -0.6621,-1.3842c-0.2518,-0.1615 0,0 -0.2233,-0.6374c0.1853,-0.4684 0.513,-0.8721 0.685,-1.7233c0.2498,-1.2341 0.0418,-2.0492 0.2555,-3.3022c0.1083,-0.6394 -0.3923,-1.0849 -0.3524,-1.7414c0.0199,-0.2973 -0.1758,-0.379 -0.2204,-0.6821c-0.0409,-0.2764 0.0513,-0.4693 -0.1017,-0.6773c-0.0446,-0.1435 0.1197,-1.6815 -0.4237,-1.1543c-0.8455,0.8218 -1.7385,0.628 -2.0843,0.2679c-0.4075,-0.4246 -0.8379,-0.6213 -1.2464,-1.0602c-0.4807,-0.5168 -0.6631,-0.9699 -0.9243,-1.5998c-0.2651,-0.6393 -0.9215,-1.2359 -0.628,-1.9047c0.267,-0.6109 0.1881,-1.6929 0.8921,-1.8411c0.6403,-0.1349 1.5162,-0.1387 2.0653,0.1358c0.5291,0.2651 1.5285,1.1087 1.9332,1.5267c0.8398,0.8673 0.5016,1.1124 0.6783,1.3965c0.019,-0.3648 0.4741,0.3515 0.704,0.6222c0.3762,0.4864 0.57,0.5368 0.6935,1.1695c0.0646,0.3258 0.1225,-0.0456 0.1206,0.2717c-0.0028,0.304 0,-0.8645 0.0561,-0.5615c0.1026,-0.9414 0.0342,0.5805 0.1377,-0.38c0.0504,-0.4531 0.0399,-0.3534 -0.0294,-0.8265c-0.0855,-0.5909 0.0665,-0.2147 -0.0361,-0.8094c0.1168,0.3021 -0.7895,-2.8101 -0.4684,-2.0539c0.2214,0.5235 -0.3923,-2.0168 -0.3999,-1.4554c0.0617,-0.4436 1.5931,3.9644 1.5732,3.497c-0.02,-0.4123 0.3125,-1.3671 0.2508,-1.7832c-0.1938,-1.3034 -0.1739,-2.0482 -0.4427,-3.3392c-0.1264,-0.6118 -0.3097,-1.4051 -0.3382,-2.0121c-0.0238,-0.5026 -0.5168,-1.3462 -0.1473,-1.7642c0.1511,0.5871 -0.0817,-1.5238 0.267,-1.0345c0.3363,0.4721 0.9376,2.4339 1.4145,2.7635c1.1343,0.7819 1.6473,1.1163 2.964,1.4925c-0.4085,-0.1862 1.1514,0.4275 0.894,0.1491c-0.2831,-0.3059 -0.723,-0.3524 -0.9424,-0.7106c-0.2109,-0.3439 -0.6755,-0.873 -0.9244,-1.2027c-0.3211,-0.4265 -0.6906,-0.6384 -0.5301,-1.1276c0.4532,0.4655 -0.5263,-1.5504 -0.1976,-0.9985c0.3943,0.6612 1.8269,1.4953 2.5185,1.9399c0.6678,0.4304 1.899,0.6793 2.5498,0.7743c0.7685,0.113 1.8449,0.19 2.7075,0.2289c0.7296,0.0323 1.6796,-0.0104 2.3683,-0.1472c-0.2945,0.2356 0.1615,0.0598 0.152,0.0408l0.6717,0.0979c1.1447,-0.1767 1.0545,-0.0551 2.184,-0.1558" fill="#d8ad8c"/><path d="M245.06896,156.10215c0.5766,0.6888 -1.4944,1.3661 -1.9323,1.4022c-0.9405,0.077 -2.2306,-0.0427 -2.9897,-0.645c-0.4845,-0.3829 -0.9139,-0.9681 -0.6469,-1.6416c0.2631,-0.6603 1.3965,-0.7296 2.0045,-0.7591c1.3908,-0.0684 2.716,0.4465 3.5558,1.5305M249.67266,155.35455c-0.5824,-0.1549 -0.6261,0.9823 -0.2831,1.1856c0.2698,0.1596 0.9623,0.1881 1.2882,0.1672c0.74,-0.0466 1.4668,-0.5529 1.9313,-1.1495c0.4228,-0.5444 0.8531,-1.2835 0.1226,-1.7385c-0.5995,-0.3724 -1.2303,-0.0589 -1.8107,0.2422c-0.3658,0.1881 -1.4811,0.798 -1.4507,1.255" fill="#f5f6f6"/><path d="M250.53236,154.19645c0.399,-0.3857 1.3082,-0.6156 1.8088,-0.3163c0.0428,0.6754 0.1169,1.5304 -0.6773,1.7689c-0.9928,0.2992 -1.0042,-0.7714 -1.0906,-1.4127" fill="#33512e"/><path d="M242.16666,154.52805c0.2261,-0.02 0.3487,0.0855 0.5729,0.1444c0.4389,0.113 1.4829,0.3923 1.6796,0.8274c0.2745,0.608 -0.4627,1.273 -0.9833,1.3671c-0.4797,0.0874 -0.9291,-0.4285 -1.4839,-0.7401c-0.3439,-0.1938 -0.5681,-1.728 -0.0437,-1.4544" fill="#33512e"/><path d="M250.59036,164.22275c0.057,0.3088 -0.2404,0.4047 -0.3639,0.6223c-0.132,0.2337 -0.0779,0.5795 -0.1909,0.7942c-0.2413,0.4579 -0.9709,0.3154 -1.3994,0.2802c-0.5681,-0.0475 -1.0754,-0.0085 -1.6007,-0.2318c-0.2679,-0.113 -1.1353,-0.5871 -1.1638,-0.8607c0.7201,-0.0608 1.4877,-0.1577 2.2278,-0.3515c0.4284,-0.113 0.8512,-0.2023 1.3024,-0.2346c0.3088,-0.0219 0.8968,-0.0808 1.1562,0.0665" fill="#f5f6f6"/><path d="M253.57716,156.11354c0.189,-0.1662 -0.1929,-0.9946 -0.229,-1.4364c-0.0446,-0.5975 0.1672,-1.0963 0.2736,-1.6786c0.1083,-0.5909 0.133,-1.1638 0.0874,-1.787c-0.0484,-0.6545 -0.1092,-1.0402 -0.2517,-1.6948c-0.0447,-0.0123 -0.3401,-0.056 -0.3838,-0.0399c-0.6954,0.0399 -1.4849,0.1264 -1.8468,0.1178c-0.6536,-0.0142 -1.9209,0.0846 -2.5631,0.0732c-1.1723,-0.0219 -2.1565,0.0247 -3.3241,-0.1501c-1.1913,-0.1777 -2.3142,-0.4085 -3.3877,-1.0222c-1.0811,-0.6175 -1.6473,-1.1049 -2.393,-1.9855c0.0427,0.873 0.4503,1.5893 0.8189,2.2971c0.2109,0.4028 0.4569,0.8198 0.8341,1.102c0.3258,0.2422 0.9614,0.4911 1.14,0.8493c-1.1248,-0.0409 -2.9422,-0.6793 -3.7886,-1.5001c-1.3984,-1.3556 -1.616,-3.3326 -1.6255,-4.2389c-0.0722,0.7914 -0.228,2.2905 -0.2118,3.1084c0.0152,0.7923 0.3268,1.6207 0.437,2.4415c0.228,1.6986 0.9044,4.4926 0.2831,5.7133c-0.096,-0.9462 -1.1391,-2.5013 -1.5656,-3.4114c-0.3259,0.9633 1.1903,1.177 0.9519,3.8389c-0.1036,1.16 0.437,1.2673 -0.2803,2.1793c-0.2508,-1.2112 -0.399,-0.9604 -0.9813,-1.7366c-0.3145,-0.208 -0.3962,-0.7419 -0.3145,-0.208c-0.0228,-0.0361 -0.1491,-0.4769 -0.1681,-0.5007c-0.2698,-0.3325 -0.4446,-0.4636 -0.7287,-0.8664c-0.2878,-0.4066 -1.0146,-1.3319 -1.4354,-1.4943c-0.818,-0.3164 -1.0108,-0.7277 -1.7718,-0.5216c-2.6372,0.7144 -1.652,3.0657 -0.7657,4.4954c0.5662,0.9101 2.1641,2.3475 2.737,2.3475c0.4626,0 1.1713,-1.0175 1.4345,-0.8113c0.2175,0.17 0.0123,0.645 0.0931,0.95c0.4636,1.7565 1.0782,3.4447 0.8578,5.433c-0.3363,0.191 -2.0995,1.7936 -2.4491,1.8782c-0.0684,-0.5767 0.2717,-2.2192 0.4332,-2.7645c0.1824,-0.6175 -1.3936,1.3841 -1.4677,0.7172c-0.7676,1.0061 -0.5539,1.1448 -1.862,1.3433c0.1083,-0.3705 0.7685,-1.3927 0.988,-1.71c0.3372,-0.4883 0.2156,-1.7252 0.2489,-2.2638c0.0598,-0.989 -0.3848,-0.9871 -0.6137,-2.0387c-0.0456,0.9775 0.075,3.7686 -1.5248,4.1895c0.4589,-1.2588 -0.3372,-4.6246 -0.893,-5.7105c-0.5111,-0.9946 -0.7913,-1.8335 -1.2445,-2.869c-0.398,-0.912 -0.7704,-1.5561 -1.2996,-2.5688c-0.5424,-1.0431 -0.7153,-2.1156 -1.0307,-3.286c-0.152,-0.5738 -0.0181,-1.1723 -0.2613,-1.7072c-0.2669,-0.5871 -0.2261,-1.2815 -0.2185,-1.9304c0.0143,-1.0535 -0.0826,-1.7081 0.552,-2.5488c2.2097,-2.926 2.4139,-1.5789 2.9906,-2.6667c1.0203,-1.9228 -0.3439,-1.729 2.9687,-4.8279c0.8978,-0.8388 2.7579,-1.6406 3.6499,-2.0263c1.2132,-0.5254 2.755,-0.8503 4.2665,-0.9833c1.3176,-0.1149 2.6733,0.2309 3.9757,0.3211c1.3186,0.0922 1.8326,0.5311 3.3934,0.9282c-0.0076,-0.0038 1.0422,0.6792 1.1875,0.4788c1.0992,0.2337 0.609,0.3391 1.5846,0.8037c0.0266,0.0323 0.9681,0.6222 1.35,0.912c1.1609,0.6384 0.437,0.475 1.4829,1.291c0.7505,0.5852 2.566,2.0634 3.2433,2.6382c0.9149,0.9129 1.349,1.5086 1.9095,2.393c0.5757,0.9101 1.0536,1.9114 1.1362,2.9317c-0.8236,-0.6745 -1.7451,-1.7784 -3.4323,-1.5019c0.646,1.1761 1.824,1.5988 2.6714,2.3417c0.6479,0.5691 1.6321,1.0849 1.7831,2.0026c-0.703,0.0874 -1.9161,-0.2527 -2.64,-0.2669c-0.6641,-0.0133 -1.2331,0.0028 -1.843,0c0.3002,1.1029 1.1438,1.7784 1.5703,2.8148c0.247,0.6014 0.457,1.0374 0.5738,1.7233c0.133,0.779 0.5007,1.2759 0.76,1.9266c-0.2023,-0.1966 -0.6032,-0.4816 -0.8312,-0.6726c-0.3354,-0.2821 -0.8199,-0.8996 -1.1704,-1.1799c0.1881,0.6831 0.2194,1.4621 0.4161,2.1622c0.1881,0.6622 0.57,1.9523 0.6868,2.6372c-0.1729,-0.285 -1.2654,-1.3252 -1.5608,-1.6853c-0.4712,-0.5766 -1.0792,-0.475 -1.4117,-1.0887" fill="#a15927"/><path d="M234.75956,159.36735c-1.1628,2.4719 -3.649,0.2726 -4.5239,-1.2759c-0.5805,-1.0241 -1.2122,-2.1973 -0.7971,-3.3677c0.4114,-1.1657 1.4725,-1.3975 2.5603,-1.1638c0.2289,0.0485 0.171,0.247 -0.0532,0.1986c-1.3557,-0.2898 -1.9893,0.4408 -2.3085,1.6188c-0.1568,0.5757 0.3467,1.4734 0.569,1.9608c0.6042,1.3281 2.9393,4.5714 4.1829,1.9294c0.0636,-0.1358 0.4275,-0.0199 0.3705,0.0998zM230.91106,157.95565c-0.0503,0.1111 0.9861,0.9595 2.0758,0.551c0.4864,-0.1482 1.0117,-0.3097 1.3594,-0.1606c0.3259,0.2138 0.1026,0.5691 0.1558,0.5406c-0.0608,0.0247 0.2062,-0.3069 -0.1349,-0.5786c-0.3714,-0.1871 -0.9186,-0.0484 -1.4155,0.0656c-1.0621,0.2964 -1.8667,-0.5083 -1.8154,-0.5814c-0.0779,-0.0969 -0.2005,-0.1482 -0.2698,-0.1169c-0.0703,0.0314 -0.0504,0.1577 0.0446,0.2803zM233.76296,156.45845c-0.1216,0.0427 -0.7875,-0.9396 -1.8705,-1.4868c-0.5719,-0.1662 -1.2037,-0.0361 -1.5134,0.2746c-0.3021,0.3382 -0.1653,0.6707 -0.2004,0.6555c0.0323,0.0161 -0.076,-0.3259 0.2299,-0.6251c0.3078,-0.2765 0.9272,-0.3591 1.4364,-0.1748c0.9433,0.5415 1.6093,1.5988 1.7442,1.5722c0.1225,0.1026 0.2593,0.134 0.3011,0.0703c0.0428,-0.0646 -0.0152,-0.1928 -0.1273,-0.2859zM231.01176,153.55805c2.0625,-0.4389 3.5179,1.6397 4.3235,3.2433c0.1225,0.2432 -0.3791,0.2261 -0.4703,0.0447c-0.6365,-1.2683 -1.8753,-3.3307 -3.5615,-2.9716c-0.1986,0.0427 -0.5881,-0.2527 -0.2917,-0.3164zM253.46216,156.42235c-0.3173,-0.8161 -0.132,-2.0045 -0.1092,-2.8529c0.0399,-1.3689 0.4569,-2.6096 -0.1387,-3.9406c-0.0523,-0.1206 0.4294,-0.0684 0.4921,0.0741c0.5472,1.2236 0.2394,2.2553 0.1634,3.5131c-0.057,0.9605 -0.2689,2.3712 0.0845,3.2813c0.0485,0.1283 -0.436,0.0694 -0.4921,-0.075zM248.42816,169.90665c-2.8681,0.6042 -6.3698,-0.6033 -8.7609,-2.205c-2.983,-1.9969 -4.9182,-4.502 -5.2906,-8.1605c-0.0038,-0.037 0.3601,-0.0057 0.3715,0.0998c0.2954,2.9155 1.5171,5.1661 3.78,7.0043c2.5242,2.0501 6.2881,3.8209 9.5922,3.1246c0.0836,-0.0171 0.4028,0.1168 0.3078,0.1368zM249.67836,157.94135c-1.1115,-1.1523 -0.6935,-4.293 0.3819,-5.3475c0.0351,-0.0352 0.1529,0.0133 0.113,0.0522c-1.0535,1.0336 -1.4772,4.143 -0.3933,5.2659c0.0523,0.0541 -0.0684,0.0646 -0.1016,0.0294zM250.15336,158.63584c0.5776,0.5814 1.3205,1.1856 1.3205,2.0738c0.0019,0.9605 -0.8607,0.836 -1.4231,1.2939c-0.1026,0.0846 -0.5358,-0.1102 -0.4674,-0.1662c0.4503,-0.3667 1.1001,-0.3183 1.3176,-0.9006c0.3629,-0.9662 -0.5956,-1.7385 -1.1951,-2.3418c-0.1016,-0.1016 0.3658,-0.0408 0.4475,0.0409zM249.35726,161.64825c-0.6736,0.1207 -1.1704,0.5947 -1.8791,0.286c-0.6432,-0.2803 -0.7287,-0.9757 -0.2318,-1.4554c0.0475,-0.0456 0.2726,0.0465 0.2327,0.0845c-0.3866,0.3734 -0.4702,1.0118 0.0656,1.3034c0.5225,0.2841 1.1048,-0.2251 1.6102,-0.3154c0.0589,-0.0104 0.2727,0.0846 0.2024,0.0969zM244.06386,169.73945c-0.513,0.9623 -0.0751,2.1204 0.4332,2.9896c0.1045,0.1786 -0.2736,0.1786 -0.3544,0.0399c-0.5519,-0.9433 -0.9699,-2.1593 -0.4189,-3.192c0.0769,-0.1434 0.4313,-0.0076 0.3401,0.1625zM253.81176,156.33874c1.5552,0.721 0.2698,4.6493 -0.0076,5.7665c-0.5937,2.3921 -1.5152,4.9333 -3.059,6.8704c-0.1197,0.152 -0.5947,-0.0295 -0.456,-0.2043c1.3158,-1.6501 2.1318,-3.7449 2.737,-5.7617c0.323,-1.0764 0.57,-2.1765 0.7552,-3.2842c0.0979,-0.5823 0.5881,-2.7901 -0.1767,-3.1445c-0.3097,-0.1434 -0.0275,-0.3515 0.2071,-0.2422zM250.85916,168.78185c-0.6241,0.7381 -1.6691,1.0127 -2.5916,1.1257c-0.0969,0.0124 -0.4332,-0.1529 -0.2337,-0.1776c0.8873,-0.1102 1.8782,-0.3762 2.4786,-1.0849c0.0712,-0.0836 0.4246,0.0446 0.3467,0.1368zM235.48246,162.70375c0.1606,1.0564 0.2993,2.0947 0.2603,3.1644c-0.0446,1.2122 -0.5519,2.2572 -0.9832,3.364c-0.058,0.1482 -0.4256,0.0399 -0.3705,-0.0998c0.322,-0.8284 0.6916,-1.6188 0.8806,-2.4918c0.2831,-1.3044 0.0361,-2.6781 -0.1605,-3.9758c-0.0247,-0.1662 0.3524,-0.1064 0.3733,0.039z" fill="#010101"/><path d="M245.41946,164.76805c0.0133,-0.0636 0.039,-0.1121 0.0903,-0.151c0.0693,-0.0551 0.1824,-0.0371 0.2603,-0.0162c0.0399,0.0114 0.266,0.0922 0.2175,0.1758c-0.0674,0.1178 -0.1273,0.2413 -0.1957,0.36c-0.0779,0.1359 -0.5358,0.0276 -0.4949,-0.133c0.0427,-0.1653 0.1463,-0.284 0.2337,-0.4246c0.094,-0.152 0.5624,0.0237 0.4949,0.133c-0.0864,0.1396 -0.1909,0.2612 -0.2327,0.4237c-0.1644,-0.0447 -0.3297,-0.0893 -0.495,-0.133c0.0684,-0.1188 0.1283,-0.2423 0.1967,-0.361c0.1586,0.0532 0.3192,0.1064 0.4778,0.1596c-0.038,0.0304 -0.0475,0.0532 -0.0579,0.0997c-0.0342,0.152 -0.5301,0.0266 -0.495,-0.133zM245.67216,164.76805c0.818,0.1549 1.6274,-0.2356 2.3931,-0.4626c0.76,-0.2261 1.5181,-0.2784 2.3018,-0.1938c0.1169,0.0123 0.5415,0.2166 0.2185,0.1814c-1.6805,-0.1814 -3.1777,0.95 -4.8165,0.6384c-0.1881,-0.0361 -0.4455,-0.2299 -0.0969,-0.1634zM245.52396,164.82035c1.0906,0.3999 1.8554,1.0459 3.1018,0.9433c0.5405,-0.0437 1.0573,0.0019 1.1609,-0.6175c0.0731,-0.4341 0.1748,-0.7144 0.4626,-1.0526c0.1463,-0.171 0.6166,0.0266 0.4541,0.2176c-0.3866,0.455 -0.4009,0.9832 -0.5396,1.538c-0.018,0.0722 -0.0959,0.1045 -0.1615,0.1131c-0.7305,0.0912 -1.4459,0.2232 -2.185,0.1738c-0.8749,-0.0579 -1.5874,-0.6859 -2.3835,-0.9785c-0.2917,-0.1073 -0.209,-0.4474 0.0902,-0.3372z" fill="#010101"/><path d="M245.00056,156.12405c-0.5529,-1.5219 -5.4559,-2.3522 -5.2782,-0.1245c0.1463,1.8516 4.4688,1.6625 5.11,0.229c0.0798,-0.1805 0.5672,-0.0276 0.495,0.133c-0.8389,1.8743 -5.9309,1.7394 -6.1133,-0.5681c-0.1995,-2.5137 5.6487,-1.3538 6.2824,0.3885c0.0646,0.1767 -0.4342,0.114 -0.4959,-0.0579zM242.07356,154.76835c-0.3277,0.7904 -0.0655,1.6065 0.7961,1.863c0.8721,0.2584 1.5267,-0.3819 1.4678,-1.2388c-0.0095,-0.1625 0.3638,-0.0922 0.3733,0.0418c0.1625,2.4054 -3.9672,1.5466 -3.0086,-0.7648c0.0579,-0.1396 0.4246,-0.0285 0.3714,0.0988zM249.09216,156.46315c-0.2954,-1.8145 2.7902,-4.0916 4.1154,-2.3066c0.7059,0.9519 -0.7134,1.9352 -1.4155,2.2762c-0.8046,0.3895 -1.8411,0.5615 -2.6438,0.0798c-0.2081,-0.1254 0.2897,-0.0646 0.3781,-0.0114c0.6517,0.3914 1.7556,-0.1738 2.3123,-0.5177c0.5367,-0.3325 1.1466,-0.913 1.0193,-1.6065c-0.2175,-1.1875 -1.7214,-0.3629 -2.2629,0.0589c-0.6327,0.494 -1.1495,1.2854 -1.0136,2.1157c0.0171,0.114 -0.4693,0.0285 -0.4893,-0.0884zM250.63976,154.31805c0.0969,0.6356 0.1776,1.5048 1.063,1.1989c0.6888,-0.2375 0.6185,-1.2074 0.3981,-1.7385c-0.0551,-0.1301 0.1947,-0.1263 0.2365,-0.0266c0.3059,0.7363 0.2337,1.7556 -0.6678,1.9827c-0.9842,0.247 -1.1676,-0.7021 -1.2806,-1.4364c-0.0181,-0.1235 0.2337,-0.0893 0.2508,0.0199z" fill="#010101"/><path d="M237.12696,145.06605c-0.0532,3.0865 1.7138,4.9343 4.7443,5.5964c0.8075,0.1777 -0.0133,-0.1121 -0.2888,-0.3049c-0.2955,-0.2071 -0.5824,-0.4845 -0.8066,-0.7667c-0.7714,-0.9728 -1.2226,-2.0634 -1.4934,-3.2699c-0.019,-0.0874 0.3259,0.0057 0.3658,0.0684c3.02,4.6484 10.3407,2.9108 14.9644,2.9479c1.0336,0.0085 2.0653,0.0798 3.0932,0.1786c0.3629,0.0361 1.2112,0.3097 0.8711,-0.3392c-0.1843,-0.3534 -0.5006,-0.6013 -0.797,-0.855c-1.217,-1.0364 -2.6087,-1.8126 -3.5217,-3.1616c-0.0313,-0.0446 0.0893,-0.037 0.1007,-0.037c1.5371,0.1083 2.7047,0.7305 3.8124,1.7898c-0.1169,-0.0171 -0.2337,-0.0342 -0.3506,-0.0504c-0.4427,-2.0643 -1.538,-3.8969 -3.0685,-5.3428c-1.7651,-1.6672 -3.7563,-3.249 -6.0942,-3.9871c-0.2527,-0.0798 -0.0124,-0.1188 0.1263,-0.0751c2.09,0.6593 3.7231,1.8934 5.3723,3.3003c1.9617,1.6749 3.4751,3.5929 4.0299,6.1731c0.0209,0.0941 -0.3107,-0.0123 -0.3496,-0.0503c-0.3591,-0.342 -0.7097,-0.647 -1.1201,-0.9339c-0.512,-0.3591 -2.6011,-1.1561 -1.4155,0.1273c0.4418,0.4788 0.9595,0.8503 1.4811,1.2398c0.9709,0.7248 1.8895,1.3547 2.4272,2.4614c0.0238,0.0475 -0.0826,0.0399 -0.1007,0.0371c-4.217,-0.5833 -8.3752,0.0684 -12.5922,-0.1729c-2.6505,-0.1511 -5.7048,-0.9633 -7.2324,-3.3155c0.1235,0.0228 0.2442,0.0456 0.3667,0.0684c0.4171,1.8591 1.2996,3.6261 3.1008,4.4802c0.1454,0.0693 0.0352,0.1083 -0.0703,0.0845c-1.5143,-0.341 -3.02,-0.5909 -4.218,-1.652c-1.3091,-1.1609 -1.7356,-2.6477 -1.7071,-4.3377c0,-0.0551 0.3724,-0.001 0.3705,0.0988zM229.03676,165.48155c1.5209,-1.1182 1.843,-2.6781 1.3338,-4.4422c-0.058,-0.2062 0.4142,-0.076 0.4797,0.0209c1.4811,2.1745 0.931,5.3884 -1.2739,6.8628c-0.1311,-0.0817 -0.2613,-0.1634 -0.3924,-0.2451c1.5504,-0.9396 3.098,-1.7043 3.9406,-3.3982c0.0846,-0.1719 0.4427,-0.0579 0.4959,0.096c0.3895,1.1533 0.0171,2.9307 -0.7809,3.8399c-0.1415,-0.0732 -0.2831,-0.1463 -0.4246,-0.2204c0.9965,-0.494 2.1403,-1.2711 2.8699,-2.1176c0.1159,-0.1349 0.5909,0.0447 0.4579,0.1976c-0.7286,0.8455 -1.9389,1.672 -2.9374,2.166c-0.1064,0.0532 -0.57,-0.056 -0.4246,-0.2213c0.759,-0.8645 1.1086,-2.6182 0.7419,-3.7022c0.1653,0.0323 0.3297,0.0637 0.4959,0.096c-0.8721,1.7546 -2.4348,2.5365 -4.0432,3.5102c-0.1406,0.0855 -0.5985,-0.1073 -0.3923,-0.2451c2.109,-1.4098 2.6125,-4.5334 1.2036,-6.6015c0.1596,0.0066 0.3192,0.0142 0.4798,0.0209c0.5234,1.8107 0.1928,3.4314 -1.3709,4.5809c-0.1453,0.1064 -0.6013,-0.0922 -0.4588,-0.1976zM237.04906,145.15435c-0.8474,3.8333 1.1685,7.5696 0.5386,11.419c-0.0152,0.0855 -0.2327,0.0171 -0.2479,-0.0494c-0.342,-1.4725 -0.9719,-2.7911 -1.672,-4.1249c-0.0551,-0.1035 0.1938,-0.0741 0.2299,-0.0038c0.5614,1.0688 1.0887,2.1356 1.4649,3.2851c0.2261,0.3734 0.2403,0.5064 0.0475,0.399c0.038,-0.284 0.0627,-0.569 0.075,-0.8559c0.0523,-0.8465 -0.0532,-1.7034 -0.1662,-2.5413c-0.3439,-2.5507 -1.0868,-5.0169 -0.5178,-7.5943c0.019,-0.0836 0.267,-0.0209 0.248,0.0665zM254.58796,149.51674c0.6498,0.9985 1.2483,1.9855 1.6976,3.0913c0.2898,0.7154 0.5007,1.4564 0.8009,2.1679c0.2384,0.5624 0.6289,1.0422 0.8683,1.6074c0.0522,0.1235 -0.3097,0.0285 -0.3563,-0.0275c-0.6659,-0.7904 -1.4411,-1.4526 -2.2268,-2.1176c0.1112,0.001 0.2214,0.0019 0.3316,0.0029c0.4227,1.8021 0.8588,3.5995 1.1609,5.4264c-0.1245,-0.0171 -0.247,-0.0342 -0.3705,-0.0523c-0.2081,-1.3537 -1.4212,-2.4073 -2.5536,-3.0381c-0.2185,-0.1225 0.1149,-0.1529 0.2251,-0.0921c1.2037,0.6697 2.4767,1.747 2.699,3.1825c0.0199,0.1311 -0.3506,0.0617 -0.3696,-0.0523c-0.303,-1.8259 -0.7391,-3.6233 -1.1609,-5.4254c-0.0323,-0.1378 0.2888,-0.0342 0.3316,0.0028c0.8046,0.6812 1.595,1.3595 2.2762,2.167c-0.1188,-0.0086 -0.2375,-0.0181 -0.3563,-0.0276c-0.4921,-1.1628 -1.1181,-2.165 -1.5238,-3.3848c-0.4132,-1.2407 -1.1077,-2.3446 -1.8154,-3.4333c-0.0884,-0.1349 0.2831,-0.0893 0.342,0.0028zM251.03396,138.68775c-1.5874,-1.9086 -4.1904,-2.908 -6.5037,-3.5796c-2.9231,-0.8465 -6.1446,-1.0621 -9.0744,-0.1463c-0.1938,0.0608 -0.5842,-0.2214 -0.2916,-0.3126c3.0827,-0.9642 6.3697,-0.684 9.4477,0.1492c2.4254,0.6564 5.1813,1.7812 6.8315,3.7639c0.1976,0.2375 -0.2774,0.2831 -0.4095,0.1254zM235.50716,134.92094c-3.7021,1.6967 -7.8166,3.782 -7.1801,8.5567c0.0238,0.1852 -0.474,0.0921 -0.4949,-0.0665c-0.646,-4.8517 3.4998,-6.9901 7.2779,-8.721c0.1397,-0.0637 0.5938,0.1406 0.3971,0.2308zM228.05536,142.15995c-9.0668,5.3913 2.4396,16.15 1.4583,23.4859c-0.0228,0.1672 -0.5197,0.0542 -0.495,-0.133c0.9956,-7.4423 -10.6105,-18.0908 -1.3566,-23.5932c0.1387,-0.0827 0.5966,0.1197 0.3933,0.2403zM235.99166,152.55104c0.0513,1.1742 0.6774,2.2002 0.9035,3.3393c0.2137,1.0668 0.0456,2.2857 -0.2337,3.3202c-0.0143,0.0494 -0.2527,-0.0095 -0.248,-0.0665c0.0865,-0.9747 -0.7799,-1.8211 -1.406,-2.4595c-0.0484,-0.0504 0.1834,-0.019 0.2233,0.0209c0.6498,0.6631 1.52,1.5048 1.4307,2.5051c-0.0827,-0.0228 -0.1653,-0.0446 -0.248,-0.0665c0.3202,-1.1894 0.4066,-2.4557 0.1653,-3.6698c-0.208,-1.0346 -0.7875,-1.9143 -0.835,-2.9897c-0.001,-0.0323 0.2451,-0.0028 0.2479,0.0665z" fill="#010101"/></g></g></svg>