<svg version="1.1" xmlns="http://www.w3.org/2000/svg" xmlns:xlink="http://www.w3.org/1999/xlink" width="1410.6322" height="448.11774" viewBox="0,0,1410.6322,448.11774"><g transform="translate(465.49708,-117.66167)"><g data-paper-data="{&quot;isPaintingLayer&quot;:true}" fill="#ffab19" fill-rule="evenodd" stroke="#001026" stroke-width="5" stroke-linecap="round" stroke-linejoin="round" stroke-miterlimit="10" stroke-dasharray="" stroke-dashoffset="0" style="mix-blend-mode: normal"><path d="M-457.36256,514.70008c-18.4502,-62.45945 12.83799,-142.22327 30.31146,-189.17531c17.47346,-46.95207 110.13374,-228.42584 297.88982,-202.91894c80.31064,15.45522 283.405,101.72891 220.34025,206.55078c-63.06475,104.82187 -171.43474,29.74571 -243.99169,-3.67136c-60.81893,-29.0487 -156.26554,187.20292 -165.43848,200.36018c-30.19451,48.09789 -116.83963,55.40907 -139.11135,-11.14532z" data-paper-data="{&quot;index&quot;:null}"/><path d="M937.00059,514.70011c-22.27172,66.55439 -108.91684,59.2432 -139.11135,11.14532c-9.17294,-13.15726 -104.61955,-229.40887 -165.43847,-200.36018c-72.55696,33.41707 -180.92694,108.49323 -243.9917,3.67136c-63.06475,-104.82187 140.02961,-191.09556 220.34025,-206.55078c187.75608,-25.50689 280.41635,155.96687 297.88982,202.91894c17.47347,46.95204 48.76166,126.71585 30.31146,189.17531z" data-paper-data="{&quot;index&quot;:null}"/></g></g></svg>