<svg version="1.1" xmlns="http://www.w3.org/2000/svg" xmlns:xlink="http://www.w3.org/1999/xlink" width="820" height="820" viewBox="0,0,820,820"><g transform="translate(170,230)"><g data-paper-data="{&quot;isPaintingLayer&quot;:true}" stroke-miterlimit="10" stroke-dasharray="" stroke-dashoffset="0" style="mix-blend-mode: normal"><path d="M-170,590v-820h820v820z" fill="#330000" fill-rule="nonzero" stroke="none" stroke-width="0" stroke-linecap="butt" stroke-linejoin="miter"/><g fill-rule="evenodd" stroke="#000000"><path d="M161.69987,361.35957c3.74534,1.87267 11.70419,6.08618 0.46817,22.00387c-11.23602,15.91769 -43.53957,19.19486 -47.28491,19.19486c-14.51319,0.46817 -32.30355,0.46817 -51.96658,-6.08618c-57.11643,-18.7267 -57.58459,-80.05663 -39.32606,-89.88815c17.79036,-9.83152 25.74921,28.09005 51.49842,51.03025c11.23602,10.29968 24.81287,14.04502 36.04889,16.38586c15.91769,2.809 46.34858,-14.98136 50.56208,-12.64052z" fill="#000000" stroke-width="1.2" stroke-linecap="round" stroke-linejoin="round"/><path d="M45.59435,323.43801c7.49068,12.64052 22.00387,30.43088 22.00387,30.43088c0,0 -17.32219,-4.21351 -27.15371,3.74534c-7.95885,6.08618 -6.08618,16.38586 -5.14984,19.66303c-6.08618,-6.08618 -13.57686,-14.51319 -18.25853,-30.89905c-4.68167,-16.38586 0,-36.04889 9.36335,-38.8579c9.36335,-1.87267 11.70419,5.14984 19.19486,15.91769z" fill="#ffffff" stroke-width="1" stroke-linecap="butt" stroke-linejoin="miter"/></g><path d="M185.10824,410.04898c-8.42701,5.61801 -37.45339,26.21738 -74.43862,37.92156l-1.87267,0.46817c-1.87267,0.46817 -2.809,2.809 -1.87267,4.68167c7.95885,11.23602 22.47204,33.70805 -3.27717,41.6669c-24.81287,7.95885 -71.16145,-58.05276 -51.49842,-75.37496c8.89518,-6.55434 16.85403,-3.27717 21.06753,-1.4045c2.34084,0.93633 4.68167,0.93633 7.02251,0.46817c5.61801,-1.87267 15.91769,-5.61801 23.87654,-9.83152c20.1312,-10.29968 24.81287,-14.51319 34.17622,-21.5357c9.36335,-7.02251 30.89905,-24.34471 48.22124,-9.36335c14.98136,12.64052 6.55434,26.68554 -1.4045,32.30355z" fill="#000000" fill-rule="evenodd" stroke="#000000" stroke-width="1.2" stroke-linecap="round" stroke-linejoin="round"/><path d="M259.54686,312.67016c2.34084,1.87267 30.89905,35.58072 40.2624,27.15371c11.23602,-9.83152 26.68554,-29.02638 43.53957,-13.57686c16.85403,15.44953 -14.98136,41.6669 -28.55821,48.68941c-32.30355,14.51319 -58.52093,-13.10869 -64.13894,-20.59937c-5.61801,-7.49068 -15.44953,-20.1312 -15.44953,-32.30355c0.46817,-13.10869 16.38586,-16.38586 24.34471,-9.36335z" fill="#000000" fill-rule="evenodd" stroke="#000000" stroke-width="1.2" stroke-linecap="round" stroke-linejoin="round"/><g fill="#000000" fill-rule="evenodd" stroke="#000000"><path d="M260.01503,421.75317c9.83152,8.89518 31.36722,27.15371 31.36722,27.15371c0,0 66.94794,-11.70419 66.94794,22.00387c0,20.1312 -33.70805,24.81287 -79.12029,20.59937c-2.809,-0.46817 -5.61801,-1.4045 -7.95885,-3.27717c-10.29968,-8.89518 -39.79423,-35.11256 -58.52093,-53.37109c-27.62188,-27.15371 -50.56208,-44.94407 -50.56208,-44.94407c-39.79423,-38.8579 -7.49068,-55.24376 5.14984,-77.71579c11.70419,-19.19486 16.85403,-15.44953 44.94407,-9.83152c15.91769,2.34084 25.28104,3.74534 35.58072,3.27717c15.44953,-0.46817 12.64052,22.00387 8.42701,33.70805c0,0 -6.55434,17.32219 -12.64052,26.21738c-7.49068,10.76785 -13.10869,17.79036 -18.7267,22.00387z" stroke-width="1.2" stroke-linecap="round" stroke-linejoin="round"/><path d="M220.68896,387.10878c0,0 -7.02251,-5.61801 -14.51319,-12.64052c-9.36335,-8.42701 -18.7267,-15.44953 -9.36335,-29.96272c8.42701,-11.23602 16.38586,-26.21738 37.45339,-12.64052c20.1312,12.64052 11.23602,24.34471 11.23602,24.34471c-10.29968,21.06753 -24.81287,30.89905 -24.81287,30.89905z" stroke-width="1" stroke-linecap="butt" stroke-linejoin="miter"/></g><path d="M149.99568,348.71905c10.29968,13.10869 26.21738,29.49455 6.08618,43.0714c-27.62188,15.44953 -50.56208,-31.36722 -55.24376,-47.75308c-4.21351,-14.51319 7.95885,-23.87654 18.25853,-31.83538c20.1312,-14.51319 36.98523,-27.62188 55.71192,-20.59937c23.40837,8.42701 6.55434,27.15371 -5.14984,35.58072c-7.02251,5.14984 -14.04502,10.76785 -19.19486,14.04502c-1.4045,2.34084 -1.87267,5.14984 -0.46817,7.49068z" fill="#000000" fill-rule="evenodd" stroke="#000000" stroke-width="1.2" stroke-linecap="round" stroke-linejoin="round"/><path d="M297.46842,33.1742c1.4045,-0.93633 3.74534,-0.46817 4.21351,1.4045l12.17235,50.09391c0,0 29.96272,22.00387 38.8579,37.45339c14.98136,25.74921 15.44953,46.81674 15.44953,46.81674c0,0 33.23989,9.83152 38.8579,36.51706c5.61801,26.68554 -14.98136,77.24763 -102.99683,94.56982c-88.01548,17.32219 -158.70876,-6.55434 -191.94864,-59.92543c-33.23989,-53.37109 19.19486,-117.04186 16.38586,-113.29652l-9.83152,-83.80197c-0.46817,-1.87267 1.87267,-3.27717 3.74534,-2.34084l56.64826,36.98523c0,0 21.06753,-7.95885 43.0714,-8.89518c13.10869,-0.93633 24.34471,0 35.11256,1.87267z" fill="#000000" fill-rule="evenodd" stroke="#000000" stroke-width="1.2" stroke-linecap="butt" stroke-linejoin="miter"/><path d="M366.7572,170.81543c0,0 32.30355,8.42701 37.92156,35.11256c5.61801,26.68554 -16.85403,74.90679 -103.93317,91.76082c-113.29652,23.40837 -167.13577,-44.00774 -135.76855,-93.63348c31.36722,-50.09391 85.20647,-7.49068 124.53254,-10.29968c33.70805,-2.34084 37.45339,-31.83538 77.24763,-22.9402z" fill="#000000" fill-rule="evenodd" stroke="#000000" stroke-width="1" stroke-linecap="butt" stroke-linejoin="miter"/><path d="M219.28446,220.90934c0,-1.87267 1.87267,-3.27717 3.74534,-2.809c8.89518,3.27717 34.17622,10.76785 62.26627,12.64052c25.28104,1.4045 40.2624,0 47.28491,-1.4045c2.34084,-0.46817 4.21351,1.87267 3.27717,4.21351c-4.21351,12.64052 -22.00387,47.75308 -71.16145,44.94407c-42.60324,-4.68167 -46.81674,-34.64439 -45.41224,-57.58459z" fill="#ffffff" fill-rule="evenodd" stroke="#000000" stroke-width="1.2" stroke-linecap="round" stroke-linejoin="round"/><path d="M452.9,175.96527c-22.00387,17.79036 -55.71192,18.25853 -55.71192,18.25853" fill="#ffffff" fill-rule="evenodd" stroke="#000000" stroke-width="1.2" stroke-linecap="round" stroke-linejoin="round"/><path d="M446.81383,228.40002c-29.49455,2.34084 -47.75308,-6.55434 -47.75308,-6.55434" fill="#000000" fill-rule="evenodd" stroke="#ffffff" stroke-width="1.2" stroke-linecap="round" stroke-linejoin="round"/><path d="M287.6369,181.58328c9.83152,0 20.1312,0.93633 20.59937,4.21351c0.46817,6.55434 -6.55434,19.66303 -14.04502,20.1312c-8.42701,0.93633 -28.09005,-10.76785 -28.09005,-18.25853c-0.46817,-5.61801 12.17235,-6.08618 21.5357,-6.08618z" fill="#ffffff" fill-rule="evenodd" stroke="#000000" stroke-width="1.2" stroke-linecap="round" stroke-linejoin="round"/><path d="M76.96156,174.56077c0,0 40.2624,13.10869 56.64826,27.62188" fill="#000000" fill-rule="evenodd" stroke="#ffffff" stroke-width="1.2" stroke-linecap="round" stroke-linejoin="round"/><path d="M135.01432,218.5685c-20.1312,7.95885 -54.77559,2.809 -54.77559,2.809" fill="#000000" fill-rule="evenodd" stroke="#ffffff" stroke-width="1.2" stroke-linecap="round" stroke-linejoin="round"/><path d="M319.10599,149.92411c-0.44378,5.13069 -4.53823,9.00581 -9.20249,8.60239c-4.66426,-0.40342 -8.03258,-4.924 -7.58881,-10.05469c0.44378,-5.13069 4.53827,-9.00576 9.20253,-8.60234c4.66426,0.40342 8.03258,4.924 7.58881,10.05469" fill="#ffffff" fill-rule="evenodd" stroke="#000000" stroke-width="1" stroke-linecap="butt" stroke-linejoin="miter"/><path d="M201.32954,153.36486c-0.44378,5.13069 -4.53823,9.00581 -9.20249,8.60239c-4.66426,-0.40342 -8.03258,-4.924 -7.58881,-10.05469c0.44378,-5.13069 4.53823,-9.00581 9.20249,-8.60239c4.6239,0.86986 8.03258,4.924 7.58881,10.05469" fill="#ffffff" fill-rule="evenodd" stroke="#000000" stroke-width="1" stroke-linecap="butt" stroke-linejoin="miter"/><path d="M312.33274,460.37698c0,31.67382 -53.44946,57.35051 -119.38269,57.35051c-65.93324,0 -119.38269,-25.67669 -119.38269,-57.35051c0,-31.67382 53.44946,-57.35051 119.38269,-57.35051c65.93324,0 119.38269,25.67669 119.38269,57.35051z" fill="#000000" fill-rule="nonzero" stroke="#000000" stroke-width="1" stroke-linecap="butt" stroke-linejoin="miter"/><path d="M315.84399,396.00396c0,32.96662 -26.72473,59.69135 -59.69135,59.69135c-32.96662,0 -59.69135,-26.72473 -59.69135,-59.69135c0,-32.96662 26.72473,-59.69135 59.69135,-59.69135c32.96662,0 59.69135,26.72473 59.69135,59.69135z" fill="#000000" fill-rule="nonzero" stroke="#000000" stroke-width="1" stroke-linecap="butt" stroke-linejoin="miter"/><path d="M59.52233,407.70814c0,-40.72345 30.91684,-73.73637 69.0547,-73.73637c38.13785,0 69.0547,33.01292 69.0547,73.73637c0,40.72345 -30.91684,73.73637 -69.0547,73.73637c-38.13785,0 -69.0547,-33.01292 -69.0547,-73.73637z" fill="#000000" fill-rule="nonzero" stroke="#000000" stroke-width="1" stroke-linecap="butt" stroke-linejoin="miter"/><path d="M386.06911,435.79819c0,42.01629 -39.30106,76.07721 -87.78139,76.07721c-48.48033,0 -87.78139,-34.06091 -87.78139,-76.07721c0,-42.01629 39.30106,-76.07721 87.78139,-76.07721c48.48033,0 87.78139,34.06091 87.78139,76.07721z" fill="#000000" fill-rule="nonzero" stroke="#000000" stroke-width="1" stroke-linecap="butt" stroke-linejoin="miter"/><path d="M301.79897,482.02972c0,23.59377 -29.34478,42.72028 -65.54344,42.72028c-36.19866,0 -65.54344,-19.12651 -65.54344,-42.72028c0,-23.59377 29.34478,-42.72028 65.54344,-42.72028c36.19866,0 65.54344,19.12651 65.54344,42.72028z" fill="#000000" fill-rule="nonzero" stroke="#000000" stroke-width="1" stroke-linecap="butt" stroke-linejoin="miter"/><path d="M123.89535,362.06182c0,-41.3699 51.8774,-74.90679 115.87144,-74.90679c63.99404,0 115.87144,33.53689 115.87144,74.90679c0,41.3699 -51.8774,74.90679 -115.87144,74.90679c-63.99404,0 -115.87144,-33.53689 -115.87144,-74.90679z" fill="#000000" fill-rule="nonzero" stroke="#000000" stroke-width="1" stroke-linecap="butt" stroke-linejoin="miter"/></g></g></svg>