<svg version="1.1" xmlns="http://www.w3.org/2000/svg" xmlns:xlink="http://www.w3.org/1999/xlink" width="122.05165" height="96.70268" viewBox="0,0,122.05165,96.70268"><g transform="translate(-179.16553,-120.96926)"><g data-paper-data="{&quot;isPaintingLayer&quot;:true}" fill-rule="nonzero" stroke-width="0.90231" stroke-linejoin="miter" stroke-miterlimit="10" stroke-dasharray="" stroke-dashoffset="0" style="mix-blend-mode: normal"><path d="M198.0892,139.58535c0.0189,-0.0315 0.0388,-0.0631 0.0595,-0.0947c0.333,-0.507 0.7013,-1.0167 1.0875,-1.5273c0.074,-0.0965 1.0334,-1.3054 1.4774,-1.8151c0.0614,-0.0685 0.13,-0.1371 0.1905,-0.2074c0.4332,-0.4845 0.8916,-0.9689 1.3745,-1.4498c0.0577,-0.0559 0.111,-0.1145 0.1696,-0.1696c0.5127,-0.5061 1.0578,-1.0004 1.6245,-1.4939c0.1083,-0.0947 0.2193,-0.1903 0.3322,-0.2851c0.5812,-0.4934 1.184,-0.9833 1.8221,-1.4623c0.0605,-0.0478 0.13,-0.0938 0.1931,-0.1371c0.6119,-0.4547 1.2518,-0.9004 1.9133,-1.337c0.1056,-0.0685 0.2067,-0.1389 0.3132,-0.2066c0.6967,-0.451 1.4278,-0.8886 2.1823,-1.3171c0.1425,-0.0812 0.2878,-0.1606 0.4341,-0.2417c0.7842,-0.4322 1.5911,-0.8544 2.4358,-1.2585c0.0307,-0.0162 0.0659,-0.028 0.0975,-0.046c0.8249,-0.3915 1.6849,-0.7614 2.5667,-1.1169c0.1561,-0.0613 0.3077,-0.129 0.4648,-0.1885c0.8934,-0.3527 1.8203,-0.6856 2.7715,-0.9968c0.1724,-0.056 0.3502,-0.111 0.5235,-0.166c0.99,-0.3176 2.0035,-0.6171 3.0577,-0.8841c0.0072,-0.0018 0.0153,-0.0036 0.0216,-0.0054c1.0523,-0.2698 2.1489,-0.5061 3.2662,-0.7262c0.2075,-0.0406 0.416,-0.0812 0.6254,-0.1236c1.102,-0.203 2.2337,-0.3843 3.397,-0.5359c4.7047,-0.6134 9.9131,-0.7876 15.6665,-0.3735c5.0342,0.3627 9.7226,1.5544 14.0402,3.3848c1.0207,0.433 2.0198,0.9003 2.9963,1.4082c0.2067,0.1074 0.4233,0.2048 0.6272,0.3158c1.1426,0.6161 2.2491,1.2828 3.3294,1.9928c0.2572,0.1696 0.5063,0.3518 0.7617,0.525c0.8844,0.608 1.749,1.2458 2.5856,1.9134c0.2239,0.1777 0.4513,0.3509 0.6733,0.5323c0.9964,0.8263 1.9638,1.6914 2.8925,2.599c0.1796,0.1759 0.3529,0.3608 0.5307,0.5431c0.7716,0.7794 1.5234,1.5895 2.249,2.4231c0.2067,0.2418 0.4197,0.4772 0.6218,0.7208c0.8466,1.0095 1.6606,2.0478 2.4323,3.1258c0.092,0.1291 0.176,0.2662 0.268,0.3952c0.6805,0.9689 1.3276,1.9684 1.9476,2.9878c0.1796,0.2923 0.3565,0.5882 0.5325,0.8859c0.6769,1.1592 1.3294,2.3383 1.9286,3.5526c3.4692,6.8634 3.0225,20.72 -0.0722,28.4946c-0.851,2.1398 -2.193,4 -3.351,5.8376c-5.4113,8.6126 -12.4815,17.7782 -12.4815,17.7782l1.1073,9.3839c0,0 -4.017,1.3099 -8.7677,-1.7383c-2.6796,-1.7222 -5.9493,-6.4349 -5.9493,-6.4349l5.5467,15.1295c0,0 -10.4527,0.8868 -17.5211,-5.1836c-7.0702,-6.0704 -7.0368,-9.5427 -7.0368,-9.5427l-0.6227,12.0732c0,0 -17.5744,-0.4854 -29.1688,-12.4187c-5.1082,-5.254 -13.7577,-15.181 -14.8579,-33.7801l-0.0298,-0.2102c-0.3366,-4.388 0.5217,-18.4476 4.3943,-24.6641c0,-0.001 1.3962,-2.3329 1.444,-2.4159v0v0v0v0v0v0c0.2717,-0.4791 0.5623,-0.9599 0.8818,-1.448z" data-paper-data="{&quot;index&quot;:null}" fill="#9a8479" stroke="#000000" stroke-linecap="butt"/><path d="M255.5757,159.72445c-7.1406,-2.8579 -15.3867,-2.9463 -15.3867,-2.9463l6.2435,8.8453c0,0 -2.9891,-2.0758 -5.7147,-3.6319c-2.7264,-1.5589 -6.1018,-2.0803 -6.1018,-2.0803l4.2851,8.0487c0,0 -26.0949,-5.2368 -29.343,-16.4394c-3.2436,-11.2026 5.8943,-22.9411 25.6049,-24.1815c14.9102,-0.9373 34.3157,4.2851 37.5629,16.6117c3.249,12.3303 -7.2651,24.2167 -7.2651,24.2167v0v0v0v0v0v0c0,0 -2.7445,-5.5887 -9.8851,-8.443z" data-paper-data="{&quot;index&quot;:null}" fill="#e6e7e8" stroke="#000000" stroke-linecap="butt"/><g data-paper-data="{&quot;index&quot;:null}" stroke="#000000"><path d="M278.9144,174.59425v0v0v0v0v0c3.619,-10.6307 3.3004,-24.703 3.3004,-24.703c14.44,8.5702 21.3595,18.0426 17.4913,26.1256c-3.8681,8.0831 -20.7917,-1.4226 -20.7917,-1.4226zM277.6129,178.21715c0,0 0.9991,-2.3789 1.3015,-3.6229M282.0208,149.97605l-0.1814,-2.276" fill="#9a8479" stroke-linecap="round"/><path d="M282.0208,149.97695v0v0v0v0v0l0.0794,0.2274c0,0 11.5457,6.2761 16.5004,14.5008h-0.0036c0,0 -8.8229,9.162 -18.7359,6.6387l-0.0018,0.0036c0.6714,-2.7785 1.3257,-5.9955 1.6642,-9.1142c0.5875,-5.3586 0.5911,-9.65 0.4973,-12.2563z" fill="#ee4036" stroke-linecap="butt"/></g><g data-paper-data="{&quot;index&quot;:null}" stroke="#000000"><path d="M199.4862,143.69185v0v0v0v0v0c0,0 -2.5044,12.757 -1.0017,22.9817c0,0 -16.3894,6.0659 -18.5148,-1.88c-2.1245,-7.9451 5.4601,-15.5085 19.5165,-21.1017zM198.4854,166.67355c0.0685,1.1791 0.5721,3.4948 0.5721,3.4948M200.1631,141.75595l-0.5198,2.0442" fill="#9a8479" stroke-linecap="round"/><path d="M199.5377,143.99405v0v0v0v0v0l0.1056,-0.1939c-0.4946,2.3563 -1.1697,6.2616 -1.5,11.2278c-0.1958,2.8887 -0.129,5.9162 0.0226,8.5459l-0.0009,-0.0027c-9.1189,0.7821 -15.4319,-8.9013 -15.4319,-8.9013l-0.0027,-0.0009c5.6587,-6.7263 16.8073,-10.6749 16.8073,-10.6749z" fill="#ee4036" stroke-linecap="butt"/></g><path d="M253.9765,148.76995v0v0v0v0v0v0c0.0704,0 0.1426,0.0054 0.2148,0.0198c2.3889,0.3789 6.6776,0.913 8.0575,0.7452c0.7301,-0.0803 1.4169,0.4357 1.5108,1.1791c0.0893,0.7379 -0.4377,1.4145 -1.1796,1.5083c-2.1931,0.2725 -8.1442,-0.6558 -8.8156,-0.7614c-0.7383,-0.1181 -1.241,-0.8128 -1.1227,-1.5507c0.1083,-0.6667 0.6805,-1.1403 1.3348,-1.1403z" data-paper-data="{&quot;index&quot;:null}" fill="#231f20" stroke="none" stroke-linecap="butt"/><path d="M232.0394,148.48125v0v0v0v0v0v0c0.6345,0 1.2021,0.4493 1.3276,1.0907c0.1426,0.737 -0.3394,1.447 -1.0722,1.5877c-3.536,0.682 -9.2533,0.0406 -9.497,0.0163c-0.7437,-0.0848 -1.2761,-0.756 -1.1913,-1.4976c0.0866,-0.7433 0.768,-1.2702 1.4982,-1.189c0.0541,0.0054 5.5503,0.6207 8.6757,0.0163c0.0884,-0.0154 0.1742,-0.0244 0.259,-0.0244z" data-paper-data="{&quot;index&quot;:null}" fill="#231f20" stroke="none" stroke-linecap="butt"/><path d="M232.6883,140.75275c0,0 2.1895,-3.2368 10.3661,-3.2368c8.1785,0 11.8309,4.9247 11.8309,4.9247" data-paper-data="{&quot;index&quot;:null}" fill="none" stroke="#231f20" stroke-linecap="round"/></g></g></svg>