<svg version="1.1" xmlns="http://www.w3.org/2000/svg" xmlns:xlink="http://www.w3.org/1999/xlink" width="211.3" height="163" viewBox="0,0,211.3,163"><g transform="translate(-134.35,-98.5)"><g data-paper-data="{&quot;isPaintingLayer&quot;:true}" fill="#000000" fill-rule="nonzero" stroke="#000000" stroke-width="2" stroke-linecap="butt" stroke-linejoin="miter" stroke-miterlimit="10" stroke-dasharray="" stroke-dashoffset="0" style="mix-blend-mode: normal"><path d="M336.76137,231.04913c0,0 -1.24099,29.45087 -10.67309,29.45087c-12.36507,0 -46.51684,0 -82.56763,0c-13.21922,0 -17.75333,-39.44314 -30.50269,-39.44314c-11.95038,0 -32.20407,39.44314 -42.07268,39.44314c-21.09952,0 -35.59529,0 -35.59529,0c0,0 0,-52.0455 0,-92.51373c0,-11.87587 21.03634,-15.9179 21.03634,-24.19179c0,-3.48122 -21.03634,-13.3381 -21.03634,-15.77726c0,-12.98641 0,-28.51722 0,-28.51722c0,0 80.86723,0 117.63701,0c8.3574,0 19.01407,12.0959 29.45087,12.0959c12.49677,0 24.90641,-12.0959 35.76178,-12.0959c15.28812,0 26.45034,0 26.45034,0c0,0 0,71.2896 0,100.56669c0,22.69546 -7.88863,30.98244 -7.88863,30.98244z"/></g></g></svg>