<svg version="1.1" xmlns="http://www.w3.org/2000/svg" xmlns:xlink="http://www.w3.org/1999/xlink" width="53.5774" height="85.38787" viewBox="0,0,53.5774,85.38787"><g transform="translate(-213.2113,-165.84703)"><g data-paper-data="{&quot;isPaintingLayer&quot;:true}" fill-rule="nonzero" stroke-width="1" stroke-linejoin="miter" stroke-miterlimit="10" stroke-dasharray="" stroke-dashoffset="0" style="mix-blend-mode: normal"><g fill="#ffffff" stroke="#1af5ff" stroke-linecap="butt"><path d="M218.57525,204.81288l5.69759,-28.30204c0,0 0.28596,-1.41672 0.99959,-2.41714c0.66292,-0.92933 1.73232,-1.45263 2.33809,-1.3302c0.55744,0.11266 2.39737,0.72616 3.21655,1.84243c1.05558,1.43841 1.04736,3.44123 1.04736,3.44123l-4.50316,28.30203z"/><path d="M222.18003,203.87073c4.28159,0.39391 7.44558,4.04926 7.06699,8.16446c-0.3786,4.11521 -4.15642,7.13191 -8.43801,6.738c-4.28159,-0.39391 -7.44558,-4.04926 -7.06698,-8.16447c0.3786,-4.11521 4.15642,-7.1319 8.438,-6.738z"/></g><path d="M221.58928,179.49512c0,0 0.34143,-1.80713 1.02736,-3.51886c0.45909,-1.14566 1.13234,-2.2455 1.7389,-2.74361c0.97001,-0.79657 2.93771,-0.81772 3.42305,-0.69815c0.54531,0.13435 1.82436,0.70521 2.11819,2.06584c0.338,1.5651 -1.81056,10.45523 -1.81056,10.45523z" data-paper-data="{&quot;index&quot;:null}" fill="#ffffff" stroke="#1af5ff" stroke-linecap="round"/><g data-paper-data="{&quot;index&quot;:null}" fill="#ffffff" stroke="#1af5ff" stroke-linecap="butt"><path d="M252.62872,206.3492l-4.50316,-28.30203c0,0 -0.00822,-2.00281 1.04736,-3.44123c0.81919,-1.11628 2.65911,-1.72977 3.21655,-1.84243c0.60577,-0.12243 1.67516,0.40087 2.33809,1.3302c0.71364,1.00042 0.9996,2.41714 0.9996,2.41714l5.69758,28.30204z"/><path d="M266.25798,210.60873c0.3786,4.11521 -2.7854,7.77056 -7.06698,8.16447c-4.28159,0.3939 -8.0594,-2.6228 -8.43801,-6.738c-0.37859,-4.11521 2.7854,-7.77055 7.06699,-8.16446c4.28159,-0.3939 8.0594,2.62279 8.438,6.738z"/></g><path d="M251.89557,186.17604c0,0 -2.14856,-8.89013 -1.81056,-10.45524c0.29384,-1.36062 1.57287,-1.93149 2.11819,-2.06584c0.48532,-0.11957 2.45303,-0.09841 3.42304,0.69816c0.60657,0.49811 1.27982,1.59795 1.7389,2.74361c0.68592,1.71173 1.02736,3.51885 1.02736,3.51885z" data-paper-data="{&quot;index&quot;:null}" fill="#ffffff" stroke="#1af5ff" stroke-linecap="round"/><g><path d="M224.62292,236.80808l4.07789,-38.8127l9.45725,1.43419v37.46815z" fill="#ffffff" stroke="#1af5ff" stroke-linecap="butt"/><path d="M224.73496,237.65655l0.60448,-10.86537l12.93067,0.23786v10.653z" fill="#000000" stroke="#000000" stroke-linecap="butt"/><g data-paper-data="{&quot;index&quot;:null}"><g><path d="M238.40824,234.26621c0,0 0.16317,0.79988 0.29127,1.94152c0.15312,1.36459 0.28197,3.19083 0.37471,4.36021c0.06554,0.82639 0.25661,2.02673 0.3207,3.16256c0.12132,2.15019 0.0993,4.22953 0.0993,4.22953c0,0 -2.56899,0.32588 -5.59947,0.48293c-1.95919,0.10153 -4.21661,0.06025 -5.74299,0.05785c-1.95275,-0.00305 -5.04279,-0.01227 -7.60298,-0.15012c-2.77366,-0.14935 -4.94637,-0.42815 -4.94637,-0.42815c0,0 -0.01865,-3.51939 1.19383,-6.80335c0.80496,-2.18021 2.45621,-4.25664 3.91569,-5.13059c1.27474,-0.76333 3.7689,-1.52289 6.31157,-1.78147c5.28677,-0.53765 11.38473,0.05909 11.38473,0.05909z" data-paper-data="{&quot;index&quot;:null}" fill="#fbff00" stroke="#1af5ff" stroke-linecap="round"/><path d="M223.29466,238.52956c0.63139,0.75548 1.52262,1.87894 1.92869,2.56186c0.58791,0.98874 1.20718,2.53341 1.822,4.04354c0.70699,1.73653 1.20271,3.38501 1.20271,3.38501c0,0 -5.04279,-0.01226 -7.60298,-0.15012c-2.77366,-0.14935 -4.94637,-0.42815 -4.94637,-0.42815c0,0 -0.01865,-3.51939 1.19383,-6.80335c0.40141,-1.08721 1.26352,-2.4974 2.14002,-3.50628c0.88117,-1.01425 1.77567,-1.62431 1.77567,-1.62431c0,0 1.23022,1.01868 2.48644,2.52179z" data-paper-data="{&quot;index&quot;:null}" fill="#ff0000" stroke="#1af5ff" stroke-linecap="round"/><path d="M240.11061,249.24633c0,0 -2.32005,0.29391 -5.27274,0.42145c-2.33975,0.10106 -5.15681,0.04164 -6.96721,0.04364c-1.69328,0.00188 -4.16615,0.03094 -6.40799,-0.05463c-3.29841,-0.12588 -6.19689,-0.383 -6.19689,-0.383c0,0 -0.24324,-0.23019 -0.34699,-0.52903c-0.07566,-0.21793 -0.02242,-0.4883 -0.0162,-0.65393c0.00608,-0.1618 0.0058,-0.42869 0.10187,-0.63897c0.12275,-0.26865 0.34736,-0.46645 0.34736,-0.46645c0,0 2.9687,0.37834 6.27947,0.42653c2.23682,0.03256 4.56712,0.00168 6.24037,-0.02506c1.81226,-0.02895 4.44328,-0.08971 6.75884,-0.204c2.89203,-0.14274 5.31606,-0.3409 5.31606,-0.3409c0,0 0.17181,0.11692 0.28346,0.34345c0.12366,0.25088 0.18954,0.62375 0.21572,0.84974c0.01811,0.15641 0.05323,0.42758 0.00598,0.65758c-0.0652,0.3173 -0.34112,0.5536 -0.34112,0.5536z" fill="#d8d8d8" stroke="#1af5ff" stroke-linecap="butt"/><path d="M238.72909,248.79852c-0.27661,0 -0.50085,-0.26155 -0.50085,-0.58418c0,-0.32263 0.22425,-0.58418 0.50085,-0.58418c0.27661,0 0.50084,0.26155 0.50084,0.58418c0,0.32263 -0.22423,0.58418 -0.50084,0.58418z" fill="#ffffff" stroke="#ffffff" stroke-linecap="butt"/><path d="M236.6466,248.94475c-0.27661,0 -0.50084,-0.26155 -0.50084,-0.58418c0,-0.32264 0.22423,-0.58418 0.50084,-0.58418c0.27661,0 0.50084,0.26154 0.50084,0.58418c0,0.32264 -0.22423,0.58418 -0.50084,0.58418z" fill="#ffffff" stroke="#ffffff" stroke-linecap="butt"/><path d="M234.18082,249.0734c-0.27661,0 -0.50084,-0.26155 -0.50084,-0.58418c0,-0.32264 0.22423,-0.58418 0.50084,-0.58418c0.27661,0 0.50084,0.26154 0.50084,0.58418c0,0.32264 -0.22424,0.58418 -0.50084,0.58418z" fill="#ffffff" stroke="#ffffff" stroke-linecap="butt"/><path d="M231.29813,249.15342c-0.27661,0 -0.50084,-0.26154 -0.50084,-0.58418c0,-0.32263 0.22424,-0.58418 0.50084,-0.58418c0.27661,0 0.50084,0.26154 0.50084,0.58418c0,0.32263 -0.22424,0.58418 -0.50084,0.58418z" fill="#ffffff" stroke="#ffffff" stroke-linecap="butt"/><path d="M228.20699,249.1362c-0.27661,0 -0.50084,-0.26154 -0.50084,-0.58418c0,-0.32264 0.22424,-0.58418 0.50084,-0.58418c0.27661,0 0.50084,0.26154 0.50084,0.58418c0,0.32264 -0.22424,0.58418 -0.50084,0.58418z" fill="#ffffff" stroke="#ffffff" stroke-linecap="butt"/><path d="M224.96993,249.21623c-0.27661,0 -0.50084,-0.26155 -0.50084,-0.58418c0,-0.32264 0.22424,-0.58418 0.50084,-0.58418c0.27661,0 0.50085,0.26154 0.50085,0.58418c0,0.32264 -0.22424,0.58418 -0.50085,0.58418z" fill="#ffffff" stroke="#ffffff" stroke-linecap="butt"/><path d="M222.08724,249.15038c-0.27661,0 -0.50084,-0.26154 -0.50084,-0.58418c0,-0.32263 0.22424,-0.58418 0.50084,-0.58418c0.27661,0 0.50084,0.26155 0.50084,0.58418c0,0.32263 -0.22424,0.58418 -0.50084,0.58418z" fill="#ffffff" stroke="#ffffff" stroke-linecap="butt"/><path d="M219.24624,249.06021c-0.27661,0 -0.50084,-0.26155 -0.50084,-0.58418c0,-0.32264 0.22424,-0.58418 0.50084,-0.58418c0.27661,0 0.50084,0.26154 0.50084,0.58418c0,0.32264 -0.22424,0.58418 -0.50084,0.58418z" fill="#ffffff" stroke="#ffffff" stroke-linecap="butt"/><path d="M216.98891,248.8728c-0.27661,0 -0.50084,-0.26155 -0.50084,-0.58418c0,-0.32264 0.22424,-0.58418 0.50084,-0.58418c0.27661,0 0.50084,0.26154 0.50084,0.58418c0,0.32264 -0.22424,0.58418 -0.50084,0.58418z" fill="#ffffff" stroke="#ffffff" stroke-linecap="butt"/></g><path d="M233.417,237.37546c0.4732,0 5.418,0.14502 5.418,0.14502c0,0 0.37858,2.62669 0.47216,3.91565c0.09301,1.28117 0.08764,3.79487 0.08764,3.79487c0,0 -4.03789,0.44655 -6.04132,0.44655c-2.00344,0 -3.62754,-1.8419 -3.62754,-4.11399c0,-2.27211 1.68763,-4.18809 3.69107,-4.18809z" fill="#ff0000" stroke="#000000" stroke-linecap="butt"/><g fill="none" stroke="none" stroke-linecap="butt" font-family="sans-serif" font-weight="normal" font-size="12" text-anchor="start"><g/><g data-paper-data="{&quot;index&quot;:null}"/><g/><g data-paper-data="{&quot;index&quot;:null}"/></g><path d="M231.22527,233.46039c4.12694,0 7.47249,0.45539 7.47249,1.01714c0,0.16596 0.22895,1.07958 -0.28895,1.21798c-0.62775,0.16775 -4.26371,0.42868 -7.5567,0.37911c-3.05245,-0.04595 -5.77353,-0.39199 -6.42996,-0.50975c-0.95136,-0.17067 -0.66935,-0.85657 -0.66935,-1.08733c0,-0.56175 3.34555,-1.01714 7.47248,-1.01714z" fill="#d8d8d8" stroke="#1af5ff" stroke-linecap="butt"/></g></g><g data-paper-data="{&quot;index&quot;:null}"><path d="M242.29421,236.89771v-37.46815l9.45725,-1.43419l4.0779,38.8127z" fill="#ffffff" stroke="#1af5ff" stroke-linecap="butt"/><path d="M242.18217,237.68203v-10.653l12.93067,-0.23786l0.60448,10.86538z" fill="#000000" stroke="#000000" stroke-linecap="butt"/><g data-paper-data="{&quot;index&quot;:null}"><g><path d="M242.04403,234.2662c0,0 6.09796,-0.59674 11.38473,-0.05909c2.54266,0.25859 5.03682,1.01814 6.31157,1.78147c1.45948,0.87395 3.11074,2.95039 3.91569,5.13059c1.21248,3.28396 1.19383,6.80336 1.19383,6.80336c0,0 -2.1727,0.2788 -4.94636,0.42815c-2.56018,0.13786 -5.65024,0.14706 -7.60299,0.15011c-1.52638,0.0024 -3.78379,0.04368 -5.74299,-0.05785c-3.03047,-0.15705 -5.59946,-0.48293 -5.59946,-0.48293c0,0 -0.02202,-2.07933 0.0993,-4.22953c0.06409,-1.13583 0.25516,-2.33617 0.3207,-3.16257c0.09275,-1.16938 0.22159,-2.99562 0.37471,-4.36021c0.1281,-1.14164 0.29128,-1.94152 0.29128,-1.94152z" data-paper-data="{&quot;index&quot;:null}" fill="#fbff00" stroke="#1af5ff" stroke-linecap="round"/><path d="M257.15761,238.52956c1.25621,-1.50311 2.48644,-2.52179 2.48644,-2.52179c0,0 0.89451,0.61006 1.77567,1.62431c0.87651,1.00888 1.73861,2.41907 2.14002,3.50628c1.21247,3.28396 1.19383,6.80335 1.19383,6.80335c0,0 -2.1727,0.2788 -4.94636,0.42815c-2.56019,0.13786 -7.60299,0.15012 -7.60299,0.15012c0,0 0.49573,-1.64849 1.20272,-3.38501c0.61481,-1.51013 1.23408,-3.0548 1.82199,-4.04354c0.40607,-0.68292 1.29731,-1.80638 1.9287,-2.56186z" data-paper-data="{&quot;index&quot;:null}" fill="#ff0000" stroke="#1af5ff" stroke-linecap="round"/><path d="M240.34167,249.24633c0,0 -0.27591,-0.23631 -0.34112,-0.5536c-0.04726,-0.23 -0.01214,-0.50116 0.00598,-0.65757c0.02618,-0.22599 0.09206,-0.59887 0.21572,-0.84975c0.11166,-0.22653 0.28346,-0.34345 0.28346,-0.34345c0,0 2.42404,0.19816 5.31607,0.34091c2.31555,0.11429 4.94657,0.17505 6.75883,0.204c1.67326,0.02674 4.00355,0.05761 6.24037,0.02506c3.31077,-0.04819 6.27947,-0.42653 6.27947,-0.42653c0,0 0.22462,0.1978 0.34737,0.46645c0.09607,0.21028 0.09579,0.47717 0.10186,0.63897c0.00622,0.16563 0.05946,0.43601 -0.01619,0.65393c-0.10375,0.29884 -0.34699,0.52903 -0.34699,0.52903c0,0 -2.89848,0.25713 -6.19689,0.38301c-2.24183,0.08557 -4.71471,0.0565 -6.40799,0.05462c-1.81041,-0.002 -4.62745,0.05741 -6.96721,-0.04364c-2.95269,-0.12753 -5.27274,-0.42144 -5.27274,-0.42144z" fill="#d8d8d8" stroke="#1af5ff" stroke-linecap="butt"/><path d="M241.22234,248.21434c0,-0.32263 0.22423,-0.58418 0.50084,-0.58418c0.2766,0 0.50084,0.26155 0.50084,0.58418c0,0.32263 -0.22423,0.58418 -0.50084,0.58418c-0.2766,0 -0.50084,-0.26155 -0.50084,-0.58418z" fill="#ffffff" stroke="#ffffff" stroke-linecap="butt"/><path d="M243.30483,248.36056c0,-0.32264 0.22423,-0.58418 0.50084,-0.58418c0.2766,0 0.50084,0.26154 0.50084,0.58418c0,0.32263 -0.22423,0.58418 -0.50084,0.58418c-0.27661,0 -0.50084,-0.26154 -0.50084,-0.58418z" fill="#ffffff" stroke="#ffffff" stroke-linecap="butt"/><path d="M245.77061,248.48922c0,-0.32264 0.22423,-0.58418 0.50084,-0.58418c0.2766,0 0.50084,0.26154 0.50084,0.58418c0,0.32263 -0.22423,0.58418 -0.50084,0.58418c-0.2766,0 -0.50084,-0.26154 -0.50084,-0.58418z" fill="#ffffff" stroke="#ffffff" stroke-linecap="butt"/><path d="M248.6533,248.56924c0,-0.32264 0.22423,-0.58418 0.50084,-0.58418c0.2766,0 0.50084,0.26155 0.50084,0.58418c0,0.32264 -0.22423,0.58418 -0.50084,0.58418c-0.2766,0 -0.50084,-0.26155 -0.50084,-0.58418z" fill="#ffffff" stroke="#ffffff" stroke-linecap="butt"/><path d="M251.74445,248.55201c0,-0.32264 0.22422,-0.58418 0.50084,-0.58418c0.2766,0 0.50084,0.26154 0.50084,0.58418c0,0.32263 -0.22423,0.58418 -0.50084,0.58418c-0.2766,0 -0.50084,-0.26154 -0.50084,-0.58418z" fill="#ffffff" stroke="#ffffff" stroke-linecap="butt"/><path d="M254.98149,248.63205c0,-0.32264 0.22423,-0.58418 0.50084,-0.58418c0.2766,0 0.50084,0.26154 0.50084,0.58418c0,0.32263 -0.22423,0.58418 -0.50084,0.58418c-0.27661,0 -0.50084,-0.26154 -0.50084,-0.58418z" fill="#ffffff" stroke="#ffffff" stroke-linecap="butt"/><path d="M257.86418,248.56619c0,-0.32263 0.22423,-0.58418 0.50084,-0.58418c0.27661,0 0.50084,0.26155 0.50084,0.58418c0,0.32264 -0.22423,0.58418 -0.50084,0.58418c-0.27661,0 -0.50084,-0.26155 -0.50084,-0.58418z" fill="#ffffff" stroke="#ffffff" stroke-linecap="butt"/><path d="M260.70518,248.47602c0,-0.32264 0.22423,-0.58418 0.50084,-0.58418c0.27661,0 0.50084,0.26154 0.50084,0.58418c0,0.32263 -0.22423,0.58418 -0.50084,0.58418c-0.27661,0 -0.50084,-0.26154 -0.50084,-0.58418z" fill="#ffffff" stroke="#ffffff" stroke-linecap="butt"/><path d="M262.96252,248.28861c0,-0.32264 0.22423,-0.58418 0.50084,-0.58418c0.27661,0 0.50085,0.26154 0.50085,0.58418c0,0.32263 -0.22423,0.58418 -0.50085,0.58418c-0.27661,0 -0.50084,-0.26154 -0.50084,-0.58418z" fill="#ffffff" stroke="#ffffff" stroke-linecap="butt"/></g><path d="M250.72633,241.56355c0,2.2721 -1.6241,4.114 -3.62754,4.114c-2.00343,0 -6.04132,-0.44655 -6.04132,-0.44655c0,0 -0.00537,-2.5137 0.08764,-3.79487c0.09357,-1.28895 0.47215,-3.91565 0.47215,-3.91565c0,0 4.94481,-0.14502 5.41801,-0.14502c2.00343,0 3.69106,1.91598 3.69106,4.18809z" fill="#ff0000" stroke="#000000" stroke-linecap="butt"/><g fill="none" stroke="none" stroke-linecap="butt" font-family="sans-serif" font-weight="normal" font-size="12" text-anchor="start"><g/><g data-paper-data="{&quot;index&quot;:null}"/><g/><g data-paper-data="{&quot;index&quot;:null}"/></g><path d="M249.22699,233.46039c4.12694,0 7.47248,0.45539 7.47248,1.01714c0,0.23076 0.282,0.91666 -0.66935,1.08733c-0.65643,0.11776 -3.37751,0.4638 -6.42996,0.50975c-3.29299,0.04958 -6.92896,-0.21135 -7.5567,-0.37911c-0.5179,-0.1384 -0.28896,-1.05202 -0.28896,-1.21798c0,-0.56175 3.34555,-1.01714 7.47249,-1.01714z" fill="#d8d8d8" stroke="#1af5ff" stroke-linecap="butt"/></g></g><g stroke-linecap="butt"><path d="M226.1822,207.99829v-35.90771c0,0 2.32989,-0.81032 5.41771,-1.25159c2.88796,-0.41271 6.46178,-0.4583 8.77107,-0.4583c1.85933,0 4.75799,0.05286 7.2409,0.39301c3.55952,0.48765 6.52161,1.31688 6.52161,1.31688v35.90771c0,0 -9.309,0.67227 -14.00978,0.67227c-4.61472,0 -13.94153,-0.67228 -13.94153,-0.67228z" fill="#ffffff" stroke="#1af5ff"/><path d="M241.48406,201.04142c0,1.11386 -0.75247,2.01683 -1.68069,2.01683c-0.92822,0 -1.68069,-0.90297 -1.68069,-2.01683c0,-1.11386 0.75247,-2.01683 1.68069,-2.01683c0.92822,0 1.68069,0.90297 1.68069,2.01683z" fill="#000000" stroke="#000000"/><path d="M233.19267,180.53702c0,0.80446 -0.60198,1.45659 -1.34456,1.45659c-0.74257,0 -1.34455,-0.65213 -1.34455,-1.45659c0,-0.80446 0.60198,-1.4566 1.34455,-1.4566c0.74257,0 1.34456,0.65214 1.34456,1.4566z" fill="#000000" stroke="none"/><path d="M249.94353,180.59304c0,0.80446 -0.60198,1.4566 -1.34455,1.4566c-0.74257,0 -1.34455,-0.65214 -1.34455,-1.4566c0,-0.80446 0.60198,-1.45659 1.34455,-1.45659c0.74257,0 1.34455,0.65213 1.34455,1.45659z" fill="#000000" stroke="none"/></g><g stroke="#1af5ff"><path d="M253.93111,200.80687v9.29045c0,0 -2.97731,0.5175 -6.60518,0.93646c-2.57092,0.2969 -5.59721,0.54431 -7.54997,0.52301c-2.11449,-0.02307 -5.40585,-0.30161 -8.1172,-0.70082c-3.17164,-0.46698 -5.62578,-1.06301 -5.62578,-1.06301v-9.00678c0,0 9.07408,0.6447 13.58837,0.64804c4.77089,0.00353 14.30975,-0.62737 14.30975,-0.62737z" fill="#fbff00" stroke-linecap="round"/><path d="M247.07984,209.04124l-0.5403,-4.49115l6.96173,-0.75124l0.5403,4.49115c0,0 -0.53642,0.53744 -1.33701,0.8849c-0.67237,0.29181 -1.56757,0.3965 -2.1298,0.45717c-0.55407,0.05979 -1.54472,0.19479 -2.30363,0.02517c-0.69899,-0.15623 -1.19129,-0.616 -1.19129,-0.616z" fill="#000000" stroke-linecap="butt"/><path d="M231.91376,209.76744c-0.75889,0.16962 -1.74955,0.03462 -2.30363,-0.02517c-0.56223,-0.06067 -1.45743,-0.16537 -2.1298,-0.45718c-0.80059,-0.34745 -1.33701,-0.88489 -1.33701,-0.88489l0.5403,-4.49115l6.96172,0.75124l-0.5403,4.49115c0,0 -0.4923,0.45978 -1.1913,0.61601z" data-paper-data="{&quot;index&quot;:null}" fill="#000000" stroke-linecap="butt"/><path d="M238.3655,211.41803v-9.90598h2.99565v9.90598z" fill="#000000" stroke-linecap="butt"/></g><path d="M225.9581,203.96464v-35.90772c0,0 2.32989,-0.81032 5.41771,-1.25159c2.88796,-0.41271 6.46179,-0.4583 8.77108,-0.4583c1.85933,0 4.75798,0.05287 7.2409,0.39302c3.55952,0.48765 6.52161,1.31687 6.52161,1.31687v35.90772c0,0 -9.30899,0.67228 -14.00978,0.67227c-4.61472,0 -13.94153,-0.67228 -13.94153,-0.67228z" fill="#ffffff" stroke="#1af5ff" stroke-linecap="butt"/></g></g></svg>