<svg version="1.1" xmlns="http://www.w3.org/2000/svg" xmlns:xlink="http://www.w3.org/1999/xlink" width="39.119" height="26.88038" viewBox="0,0,39.119,26.88038"><g transform="translate(-221.812,-137.36029)"><g data-paper-data="{&quot;isPaintingLayer&quot;:true}" fill-rule="nonzero" stroke="none" stroke-width="1" stroke-linecap="butt" stroke-linejoin="miter" stroke-miterlimit="10" stroke-dasharray="" stroke-dashoffset="0" style="mix-blend-mode: normal"><path d="M249.837,156.329c-0.12,-0.192 0.567,-5.256 1.33,-6.753c0.675,-1.324 2.644,-2.681 4.037,-1.866c1.725,1.015 1.17,3.531 0.4,4.892c-1.127,2.01 -3.614,3.073 -5.767,3.727z" fill="#dc785a"/><path d="M225.746,152.602c-0.771,-1.361 -1.326,-3.877 0.399,-4.892c1.394,-0.815 3.362,0.542 4.037,1.866c0.763,1.497 1.454,6.561 1.33,6.753c-2.136,-0.654 -4.624,-1.717 -5.766,-3.727z" fill="#dc785a"/><path d="M248.951,139.9184c1.645,-2.576 10.71,5.759 11.98,6.906c-0.895,3.532 -3.594,5.43 -7.021,6.276c-1.445,-2.03 -2.551,-4.284 -3.274,-6.673c-0.659,-2.038 -1.629,-4.35 -1.685,-6.509z" data-paper-data="{&quot;index&quot;:null}" fill="#ffc800"/><path d="M231.867,146.9014c-0.256,2.487 -0.916,4.916 -1.952,7.19c-3.538,-0.152 -6.537,-1.488 -8.103,-4.775c1.035,-1.376 8.306,-11.332 10.423,-9.129c0.363,2.131 -0.14,4.587 -0.368,6.714z" data-paper-data="{&quot;index&quot;:null}" fill="#ffc800"/><path d="M252.425,143.469l-23.433,-0.057c0,0 0.184,-6.127 12.28,-6.051c9.512,0.076 11.153,6.108 11.153,6.108z" fill="#ffc800"/><path d="M252.633,145.607c0.283,1.826 -0.671,4.655 -0.915,6.473c-0.531,3.944 -1.661,8.009 -4.976,10.365c-2.779,1.974 -6.98,2.335 -10.286,1.011c-1.709,-0.678 -3.347,-2.315 -4.393,-3.796c-0.963,-1.734 -1.777,-3.548 -2.432,-5.421c-0.707,-2.336 -0.287,-3.21 -0.239,-4.165c0.171,-0.346 0.267,-3.977 0.439,-4.318z" fill="#dc785a"/><path d="M242.649,150.234c-0.072,1.798 -4.428,2.576 -4.304,-0.309c0.123,-2.885 -0.044,-4.791 1.968,-4.815c2.013,-0.024 2.4,3.314 2.336,5.124z" fill="#dc5050"/><path d="M248.551,147.06l4.213,0.096l-0.814,4.928l-3.399,-5.024" fill="#ffc800"/><path d="M232.638,147.06l-3.394,5.024l-0.819,-4.928l4.213,-0.096" fill="#ffc800"/><path d="M227.507,149.335c-0.1,-1.613 0.128,-5.65 1.25,-6.553h24.51c1.083,1.152 0.683,4.575 0.284,6.268z" fill="#00a0dc"/><path d="M243.3,154.106c0,0 -0.615,1.204 -2.931,1.116c-2.316,-0.088 -2.767,-1.076 -2.767,-1.076z" fill="#000000"/><path d="M247.693,151.498c-0.687,0.955 -1.418,-0.626 -0.655,-1.308c0.495,0.044 0.667,0.401 0.655,1.308z" fill="#000000"/><path d="M234.12,151.55c-0.499,-0.212 -0.46,-0.658 -0.543,-1.059l0.65,-0.498c0.727,0.241 0.576,1.397 -0.107,1.557z" fill="#000000"/><path d="M253.902,147.558l-26.619,-0.008l0.348,-3.279l26.271,-0.104v3.391" fill="#006482"/></g></g></svg>