<svg version="1.1" xmlns="http://www.w3.org/2000/svg" xmlns:xlink="http://www.w3.org/1999/xlink" width="91.75481" height="200.00689" viewBox="0,0,91.75481,200.00689"><g transform="translate(-190.84746,-163.91043)"><g data-paper-data="{&quot;isPaintingLayer&quot;:true}" fill-rule="nonzero" stroke="none" stroke-width="1" stroke-linecap="butt" stroke-linejoin="miter" stroke-miterlimit="10" stroke-dasharray="" stroke-dashoffset="0" style="mix-blend-mode: normal"><g data-paper-data="{&quot;origPos&quot;:null}"><path d="M245.55038,363.91732l0.9,-9.7l14.8,0.6l9.4,2.3l7.4,6.8z" fill="#ebebeb"/><path d="M244.75038,355.61732l-3.7,-50.4l-6.4,-62h30l0.7,62.3v50.1z" fill="#80bdc4"/></g><g><g data-paper-data="{&quot;origPos&quot;:null}" fill="#9b6a2d"><path d="M270.95038,221.89502c-3.2,0.4 -8.6,-1.3 -8.6,-1.3c0,0 -8.1,-46.9 -1.1,-48.6c12.6,-3.4 14.9,46.6 14.9,46.6c0,0 -2.1,2.9 -5.2,3.3z" data-paper-data="{&quot;origPos&quot;:null}"/></g><path d="M256.55038,203.59512c0,0 -8.25,-31.9 3.25,-34.1c10.1,-2 20.85,28 20.85,28z" data-paper-data="{&quot;origPos&quot;:null}" fill="#9e5011"/></g><g data-paper-data="{&quot;origPos&quot;:null}"><path d="M207.65038,363.91732l0.9,-9.7l14.8,0.6l9.4,2.3l7.4,6.8z" fill="#ebebeb"/><path d="M209.15038,355.61732l0.5,-52.3l0.7,-60.1h29.1l-6.6,61.8l-4.7,50.6z" fill="#80bdc4"/></g><g data-paper-data="{&quot;origPos&quot;:null}" fill="#9b6a2d"><g data-paper-data="{&quot;origPos&quot;:null}"><path d="M278.95038,245.69512l-8.2,2.4l-8.8,-27.1c0,0 3.1,-4.2 6.7,-3.9c2.7,0.1999 7.3,1 7.3,1z" data-paper-data="{&quot;origPos&quot;:null}"/></g><path d="M275.46618,268.26792c-1.8835,0.2693 -1.1129,-8.7499 -2.8775,-8.9118c-1.3528,-0.1411 0.2592,5.4528 -0.1748,6.3537c-0.5321,0.9203 -3.2735,-0.5779 -3.2735,-0.5779c0,0 -2.5351,-5.1062 -2.9591,-7.7746c-1.062,-5.9061 4.6028,-11.8129 4.6028,-11.8129l7.2768,-0.3129c0,0 4.395,6.2685 4.5396,10.6227c0.0867,4.0599 -3.0078,9.562 -3.0078,9.562c0,0 -2.3025,2.798 -4.1265,2.8517z" data-paper-data="{&quot;origPos&quot;:null,&quot;index&quot;:null,&quot;origRot&quot;:0}"/></g><path d="M207.95038,248.31732l-0.2,-76.3c0,0 15.2,-7.9 28.2,-8.1c13,-0.2 23.9334,4.0111 26.3334,5.3111c2.3,1.2 3.0666,81.2889 3.0666,81.2889c0,0 -17.1,2.8 -28.7,2.7c-11.8,-0.2 -28.7,-4.9 -28.7,-4.9z" data-paper-data="{&quot;origPos&quot;:null}" fill="#ba5f14"/><g data-paper-data="{&quot;origPos&quot;:null}"><path d="M197.55038,224.61732c-2.5,-0.2 -6.3,-2.2 -6.3,-2.2c0,0 5.6,-50.6 19.9,-50.3c11.2,-0.3 -7.2,51.3 -7.2,51.3c0,0 -3.9,1.4 -6.4,1.2z" fill="#9b6a2d"/><path d="M191.45038,198.71732c0,0 11.4,-29 18.4,-28.2c16.6,1.8 3.9,36.9 3.9,36.9z" fill="#9e5011"/></g><g fill="#9b6a2d"><path d="M193.25038,249.31732l-2.1,-27.7c0,0 4,-1.2 6.3,-1.6c3.2,-0.6 6.7,3.3 6.7,3.3l-3.2,27.7z"/><path d="M195.75038,268.41732c0,0 -4.1,-4.8 -4.8,-8.8c-0.7,-4.3 2.4,-11.3 2.4,-11.3l7.2,-1.1c0,0 6.7,4.7 6.8,10.7c0.1,2.7 -1.4,8.2 -1.4,8.2c0,0 -2.4,2 -3.1,1.2c-0.7,-0.8 -0.1,-6.6 -1.4,-6.2c-1.7,0.5 0.8,9.2 -1.1,9.3c-1.8,0.3 -4.6,-2 -4.6,-2z"/></g></g></g></svg>