<svg version="1.1" xmlns="http://www.w3.org/2000/svg" xmlns:xlink="http://www.w3.org/1999/xlink" width="181.16355" height="112.50968" viewBox="0,0,181.16355,112.50968"><g transform="translate(-154.68741,-178.351)"><g data-paper-data="{&quot;isPaintingLayer&quot;:true}" fill-rule="nonzero" stroke="none" stroke-width="1" stroke-linecap="butt" stroke-linejoin="miter" stroke-miterlimit="10" stroke-dasharray="" stroke-dashoffset="0" style="mix-blend-mode: normal"><path d="M187.434,259.231c0,3.485 1.535,9.401 -0.888,12.4c-5.009,-2.594 -6.625,-6.97 -8.725,-11.913l-0.808,0.162c-1.292,3.241 1.373,8.347 1.05,11.832c-6.382,-0.486 -6.301,-7.294 -9.613,-10.941l-0.566,0.243c0.808,3.242 3.313,6.808 3.393,10.131c-3.312,3.565 -9.129,-18.235 -9.452,-19.532c-2.019,-8.347 -4.281,-16.857 -5.412,-25.366c-1.778,-13.129 -2.182,-30.958 -1.212,-45.87l28.921,-1.783l4.12,48.95c1.212,5.916 -0.808,25.69 -0.808,31.687z" fill="#a0aa1e"/><path d="M334.869,249.83c-0.808,5.835 -1.777,15.479 -6.624,19.451l-0.889,-0.081c-0.97,-1.54 0.242,-6.241 0,-8.186c-3.07,-1.783 -3.151,10.536 -7.432,9.401c-0.808,-2.674 -0.324,-8.752 -2.262,-10.697c-3.07,0.243 -4.282,7.861 -6.706,10.049l-1.211,-0.081c-2.747,-2.269 -5.332,-23.016 -5.332,-26.339l-2.909,-54.866c3.555,-2.026 24.882,-9.239 28.841,-10.13c1.777,1.945 2.424,12.804 2.747,15.155c0.565,3.809 1.211,7.537 1.535,11.346c0.565,7.293 0.969,14.668 1.131,21.962c0.161,7.78 0.242,15.236 -0.889,23.016z" fill="#a0aa1e"/><path d="M278.4,263.689l24.72,3.809c0,0.405 -3.716,22.286 -3.716,22.286l9.775,0.162c0,0 -0.081,0.649 -0.162,0.892c-3.231,0.081 -31.345,-0.081 -31.345,-0.081c0,0 0.566,-26.582 0.728,-27.068z" fill="#a0aa1e"/><path d="M271.775,278.925c-1.535,-13.453 -1.373,-50.571 -1.373,-52.759l38.939,16.857c0.323,2.269 -1.616,22.611 -2.02,26.987c-0.242,2.836 -0.081,5.916 -0.242,8.834z" fill="#005a5a"/><path d="M268.544,272.765h41.604v13.372h-41.604z" fill="#006482"/><path d="M217.487,290.757c0,0 -28.114,0.162 -31.345,0.081c-0.081,-0.243 -0.162,-0.892 -0.162,-0.892l9.775,-0.162c0,0 -3.716,-21.881 -3.716,-22.286l24.721,-3.809c0.081,0.486 0.727,27.068 0.727,27.068z" fill="#a0aa1e"/><path d="M190.585,277.628c-2.1,-8.347 -3.797,-32.984 -3.797,-32.984l35.304,-10.212l0.08,43.115z" fill="#005a5a"/><path d="M185.738,274.386h39.504v13.372h-39.504z" fill="#006482"/></g></g></svg>