<svg version="1.1" xmlns="http://www.w3.org/2000/svg" xmlns:xlink="http://www.w3.org/1999/xlink" width="127.42545" height="93.81484" viewBox="0,0,127.42545,93.81484"><g transform="translate(-180.21645,-167.88198)"><g data-paper-data="{&quot;isPaintingLayer&quot;:true}" fill-rule="nonzero" stroke-linejoin="miter" stroke-miterlimit="10" stroke-dasharray="" stroke-dashoffset="0" style="mix-blend-mode: normal"><path d="M266.98401,207.44683c0,0 -10.204,5.671 -21.028,4.98c-10.824,-0.691 -23.616,-3.854 -24.356,-9.046l7.088,-3.994z" fill="#006482" stroke="none" stroke-width="1" stroke-linecap="butt"/><g stroke="none" stroke-width="1" stroke-linecap="butt"><path d="M225.07601,234.92083l-5.676,-6.65l2.608,-9.513l10.644,-0.488l-3.172,10.377l-4.404,6.274" fill="#e6be6e"/><path d="M213.21201,250.20983l6.188,-21.939l10.208,0.28l-6.812,20.821l-9.584,0.838" fill="#faf0e6"/><path d="M218.71201,223.17083l5.352,-21.743l16.612,-0.032l-7.328,22.426l-14.636,-0.651" fill="#281446"/><path d="M205.52401,260.50282l6.616,-0.859l10.18,0.623l-0.236,1.298l-16.872,0.132l0.312,-1.194" fill="#00a0dc"/><path d="M206.70801,259.21283c1.193,-0.065 2.381,-0.208 3.556,-0.428l2.8,-12.529h11.656l-2.4,14.011l-16.8,0.236c0.158,-0.339 0.291,-0.689 0.4,-1.047c0.251,-0.113 0.516,-0.195 0.788,-0.243z" fill="#281446"/><path d="M218.65601,249.11983c0.849,0 1.618,0.344 2.174,0.9c0.557,0.556 0.902,1.324 0.902,2.171c0,0.848 -0.345,1.616 -0.902,2.172c-0.556,0.556 -1.325,0.9 -2.174,0.9c-0.849,0 -1.618,-0.344 -2.174,-0.9c-0.557,-0.556 -0.902,-1.324 -0.902,-2.172c0,-0.847 0.345,-1.615 0.902,-2.171c0.556,-0.556 1.325,-0.9 2.174,-0.9z" fill="#00a0dc"/><path d="M211.70401,249.24383l0.14,-0.779h3.172l-0.252,0.779h-3.06" fill="#006482"/><path d="M211.35601,251.06483l0.14,-0.783h3.172l-0.252,0.783h-3.06" fill="#00a0dc"/><path d="M211.01201,252.88183l0.14,-0.783h3.172l-0.256,0.783h-3.056" fill="#006482"/><path d="M210.66401,254.69983l0.14,-0.783h3.172l-0.252,0.783h-3.06" fill="#00a0dc"/><path d="M210.31601,256.51683l0.14,-0.779h3.172l-0.252,0.779h-3.06" fill="#006482"/></g><path d="M230.87601,197.02583h25.812v11.986h-25.812z" fill="#281446" stroke="none" stroke-width="1" stroke-linecap="butt"/><g stroke="none" stroke-width="1" stroke-linecap="butt"><path d="M262.43201,234.92083l-4.404,-6.274l-3.168,-10.377l10.644,0.488l2.604,9.513l-5.676,6.65" fill="#e6be6e"/><path d="M274.296,250.20983l-9.58,-0.838l-6.812,-20.821l10.204,-0.28l6.188,21.939" fill="#faf0e6"/><path d="M268.80001,223.17083l-14.64,0.651l-7.324,-22.426l16.612,0.032l5.352,21.743" fill="#281446"/><path d="M281.98801,260.50282l0.312,1.194l-16.872,-0.132l-0.236,-1.298l10.18,-0.623l6.616,0.859" fill="#00a0dc"/><path d="M281.60001,259.45583c0.108,0.358 0.242,0.708 0.4,1.047l-16.8,-0.236l-2.4,-14.011h11.64l2.8,12.529c1.176,0.221 2.365,0.363 3.56,0.428c0.276,0.046 0.545,0.128 0.8,0.243z" fill="#281446"/><path d="M268.85601,249.11983c0.849,0 1.618,0.344 2.174,0.9c0.557,0.556 0.902,1.324 0.902,2.171c0,0.848 -0.345,1.616 -0.902,2.172c-0.556,0.556 -1.325,0.9 -2.174,0.9c-0.849,0 -1.618,-0.344 -2.174,-0.9c-0.557,-0.556 -0.902,-1.324 -0.902,-2.172c0,-0.847 0.345,-1.615 0.902,-2.171c0.556,-0.556 1.325,-0.9 2.174,-0.9z" fill="#00a0dc"/><path d="M275.808,249.24383h-3.06l-0.252,-0.779h3.172l0.14,0.779" fill="#006482"/><path d="M276.152,251.06483h-3.056l-0.252,-0.783h3.172l0.136,0.783" fill="#00a0dc"/><path d="M276.50001,252.88183h-3.06l-0.252,-0.783h3.172l0.14,0.783" fill="#006482"/><path d="M276.84801,254.69983h-3.06l-0.252,-0.783h3.172l0.14,0.783" fill="#00a0dc"/><path d="M277.19601,256.51683h-3.06l-0.252,-0.779h3.172l0.14,0.779" fill="#006482"/></g><path d="M266.98401,207.43483c-7.664,0.415 -16.656,-3.235 -24.32,-3.491c-3.924,-0.12 -7.864,-0.052 -11.796,-0.12c-2.748,-0.056 -6.696,0.515 -9.268,-0.455l7.348,-29.791c0,0 0.048,-2.621 1.276,-4.154c1.228,-1.534 6.6,-1.534 6.6,-1.534c3.92,0 14.408,-0.132 17.668,0.687c0.368,1.082 2.424,5.54 2.424,5.54c0,0 9.32,31.564 10.068,33.318z" fill="#00a0dc" stroke="none" stroke-width="1" stroke-linecap="butt"/><g><path d="M255.13601,192.18583c-1.092,3.263 -2.956,4.481 -3.452,4.836c-2.025,1.407 -4.327,2.367 -6.752,2.816c-5.856,1.122 -12.236,-0.607 -14.748,-6.466c0,0 -2.296,-4.434 -1.324,-8.787c0.828,-3.69 4.752,-7.301 6.604,-8.387c2.272,-1.338 6.336,-1.658 7.048,-1.658c2.26,0.02 8.076,-0.407 12.524,7.764c1.968,3.619 0.964,7.281 0.1,9.882z" fill="#e6781e" stroke="none" stroke-width="1" stroke-linecap="butt"/><path d="M242.48401,200.46883c-0.08,-8.639 -0.016,-17.581 0.052,-26.212" fill="none" stroke="#824600" stroke-width="0.5" stroke-linecap="round"/><path d="M250.71201,197.77683c-4.8,-3.503 -5.98,-10.68 -4.424,-16.104c0.591,-2.206 1.848,-4.178 3.6,-5.647" fill="none" stroke="#824600" stroke-width="0.5" stroke-linecap="round"/><path d="M235.76401,175.85383c1.621,1.665 2.749,3.746 3.26,6.011c1.288,5.592 -0.196,12.925 -5.512,15.976" fill="none" stroke="#824600" stroke-width="0.5" stroke-linecap="round"/></g><g stroke="none" stroke-width="1" stroke-linecap="butt"><path d="M233.56001,177.92283c-0.256,0.471 -0.904,2.333 -1.768,3.247c-1.203,1.249 -2.754,2.109 -4.452,2.468c0.492,-0.623 1.152,-2.688 2.72,-4.161c0.976,-0.919 2.932,-1.626 3.5,-1.554z" fill="#be965a"/><path d="M183.88001,191.43083c-4.28,-3.072 -3.628,-7.189 -3.628,-7.189c0,0 37.74,-0.092 45.312,-0.544c3.036,-0.179 8.472,-4.944 9.36,-4.393c0.888,0.551 -3.384,3.267 -2.496,3.878c0.888,0.611 4.8,-3.375 5.736,-2.656c0.936,0.719 -5.016,4.649 -3.848,5.312c1.168,0.663 4.436,-2.824 4.716,-2.049c0.28,0.775 -2.912,4.446 -3.504,5.14c-0.772,0.907 -2.376,2.88 -4.852,4.074c-2.476,1.195 -5.824,1.598 -6.66,1.722c-2.056,0.275 -23.092,0.08 -26.62,-0.236c-6.344,-0.551 -9.22,-0.028 -13.516,-3.059z" fill="#e6be6e"/><path d="M194.31201,179.11683c-1.732,2.377 -3.784,5.508 1.296,7.018c5.08,1.509 -5.68,1.218 -8.292,1.745c-2.612,0.527 -4.428,-3.123 -6.872,-2.101c-1.32,-7.928 5.156,-13.919 12.136,-15.896c3.516,-1.01 6.88,-1.222 10.516,-1.35c1.856,-0.068 3.724,-0.104 5.6,-0.104c0.924,0 12.328,-0.08 14.924,0v7.908l-23.364,-0.024c0,0 -4.212,0.428 -5.944,2.804z" fill="#e6be6e"/><path d="M232.94801,177.75883c-5.008,0.084 -12.748,0.168 -16.8,-0.048v-9.693c4.552,-0.084 20.408,-0.292 24.184,0.507c2.724,0.587 -6.156,9.214 -7.384,9.234z" fill="#00a0dc"/></g><g stroke="none" stroke-width="1" stroke-linecap="butt"><path d="M258.77601,185.53983c-0.548,0.227 -5.456,-2.553 -6.78,-4.454c-0.76,-1.094 -0.532,-1.937 0.656,-2.316c1.188,-0.38 3.412,2.037 4.4,3.447c0.748,1.009 1.33,2.13 1.724,3.323z" fill="#be965a"/><path d="M248.96001,178.32583c0.776,-0.774 4,1.682 5.58,3.391c1.76,1.925 4.4,3.547 12.18,3.547c2.248,0 4.492,-0.08 6.74,-0.036c1.684,0.032 21.308,0 21.308,0c0,0 9.232,-1.338 12.432,-1.338c1.016,0.443 -0.756,3.77 -1.2,4.537c-0.918,1.437 -2.132,2.662 -3.56,3.595c-3.164,2.177 -7.236,2.796 -10.968,3.111c-8.176,0.707 -30.604,0.595 -31.624,0.583c-2.828,-0.024 -6.232,-1.374 -7.532,-3.195c-0.912,-1.27 -5.792,-7.948 -5.516,-8.667c0.276,-0.719 3.232,2.872 4.272,1.33c1.04,-1.542 -4.24,-3.994 -4.092,-5.348c0.148,-1.354 4.236,3.028 5.556,2.728c0.264,-1.649 -4.352,-3.463 -3.576,-4.238z" fill="#e6be6e"/><path d="M307.43601,184.83283c-5.472,1.306 -16.356,0.77 -16.356,0.77c0,0 3.252,-1.018 3.868,-2.492c0.444,-1.074 1.128,-2.316 -0.12,-4.098c-1.248,-1.781 -5.768,-1.841 -5.768,-1.841c0,0 -20.572,-0.088 -22.928,-0.12l0.668,-8.195c4.284,0.02 25.188,0.459 29.484,1.713c3.033,0.901 5.787,2.558 8,4.817c1.688,1.721 4.076,6.714 3.152,9.446z" fill="#e6be6e"/><path d="M270.332,178.92583c-4.084,0.007 -9.776,-0.24 -13.908,-0.308c-1.24,-0.024 -10.16,-10.352 -10.16,-10.352l24.068,0.091z" fill="#00a0dc"/></g></g></g></svg>