<svg version="1.1" xmlns="http://www.w3.org/2000/svg" xmlns:xlink="http://www.w3.org/1999/xlink" width="99.8614" height="155.03338" viewBox="0,0,99.8614,155.03338"><g transform="translate(-182.33585,-131.9978)"><g data-paper-data="{&quot;isPaintingLayer&quot;:true}" fill-rule="nonzero" stroke="none" stroke-width="1" stroke-linecap="butt" stroke-linejoin="miter" stroke-miterlimit="10" stroke-dasharray="" stroke-dashoffset="0" style="mix-blend-mode: normal"><g><g fill="#ffde8a" opacity="0.9"><path d="M244.2,135.4c-12.8,1.6 -14.6,20.5 -16.1,30.3c-0.9,5.9 -1.6,11.7 -2.9,17.5c-0.9,4 -2.1,8.6 -5,11.6c-6.8,6.9 -32.6,23.7 -15.4,33.5c5.4,3.1 12.9,2.5 17.5,7c3.9,3.8 2,9.1 -1,12.8c-3.8,4.7 -9.4,8.4 -15,10.5c-4,1.6 -10,2.8 -13.1,-1.1c-1.3,-1.6 1,-3.9 2.3,-2.3c3.9,4.8 13.3,-0.9 16.9,-3.4c3.9,-2.6 13.4,-10.5 6.5,-15c-5.4,-3.5 -12.5,-3 -17.7,-7.1c-4.9,-3.9 -6.5,-9.4 -4,-15.2c2.9,-6.7 8.9,-11.8 14.3,-16.5c4.1,-3.6 7.8,-6.1 9.5,-11.4c3.5,-10.8 3.6,-22.5 6.2,-33.5c2.2,-9.2 6.4,-19.6 17,-20.9c2.1,-0.2 2,3 0,3.2z"/></g><g fill="#ffde8a" opacity="0.9"><path d="M244.4,132.4c10.9,3.2 10.7,17.3 11,26.5c0.5,11.7 0.2,26 8.6,35.3c7.5,8.2 22.9,17.9 16.8,31.1c-2.5,5.5 -7.7,7.9 -12.9,10.1c-6.2,2.6 -11.3,6.1 -12.1,13.4c-1.4,12.4 16.6,11.1 24.4,10.2c2.1,-0.3 2.1,3 0,3.2c-8.9,1 -25.9,1.8 -27.6,-10.4c-0.8,-5.4 1.7,-11.5 5.9,-15c4.4,-3.6 10.1,-4.6 14.8,-7.7c6.8,-4.5 6.7,-12.2 2.4,-18.4c-3.9,-5.7 -9.8,-9.5 -14.3,-14.8c-7.8,-9.1 -8.5,-21.9 -8.9,-33.3c-0.3,-8 1.3,-24.2 -8.7,-27.2c-2,-0.6 -1.2,-3.7 0.6,-3z"/></g><path d="M247,250.7c0.7,-2.4 -2.6,-4.9 -4.1,-6.3c-1.9,-1.7 -4,-3.4 -5.8,-5.3c-2.6,-2.9 -4,-6.9 -1.5,-10.4c2.8,-3.8 7.8,-5.7 11.4,-8.6c5.5,-4.4 8.3,-10.5 9.1,-17.4c1,-7.7 0.3,-15.7 -0.3,-23.4c-0.7,-9 -1.8,-18.1 -3.8,-26.9c-1.2,-5.1 -2.8,-14.9 -8.4,-17.3c-2,-0.8 -0.3,-3.6 1.6,-2.8c6.6,2.9 8.6,13.8 10,20c2,9.1 3.1,18.4 3.8,27.7c0.7,8.3 1.4,17 0,25.2c-1,6.1 -3.7,11.9 -8.3,16.1c-2.1,1.9 -4.4,3.4 -6.7,4.9c-2,1.3 -4.3,2.5 -5.7,4.4c-5.2,7.1 14.1,12.9 11.9,21.2c-0.6,2 -3.7,1.1 -3.2,-1.1z" fill="#f7b5bc"/><path d="M195.8,246.1c-1,-5.2 -0.3,-10.4 3.6,-14.2c3.7,-3.6 9.1,-5.4 14,-7c5.1,-1.7 11.1,-2.7 15.8,-5.5c4.7,-2.7 6.7,-9.1 8.3,-13.9c2.5,-7.6 4.7,-15.4 6.5,-23.2c2.3,-9.3 4,-18.8 4.7,-28.3c0.2,-3.7 1.8,-18.2 -4.4,-18.7c-1.9,-0.2 -1.9,-3.2 0,-3c8.2,0.7 7.7,13 7.5,18.8c-0.7,18 -5.6,35.7 -10.7,52.9c-1.6,5.2 -3.5,11 -7.1,15.2c-3.4,3.9 -8.9,5.2 -13.6,6.7c-9.9,3.1 -24.5,6 -21.9,19.5c0.4,1.9 -2.5,2.7 -2.7,0.7z" fill="#f2e5d1"/><path d="M195.9,283.1c-5.1,-6.2 -8.3,-13 -10.4,-20.7c-1.8,-6.5 -4.4,-13.5 -2.5,-20.3c1.6,-5.8 5.8,-10.4 10,-14.6c3.7,-3.7 10,-8 9.3,-14c-0.6,-5.3 -3.4,-10.1 -3.2,-15.6c0.2,-5.3 2.8,-10.1 6.8,-13.5c4.3,-3.7 9.7,-5.7 15.3,-6.3c5.2,-0.6 9,-1.4 12.8,-5.3c9.5,-9.8 10.6,-25.6 8.6,-38.4c-0.4,-2.1 2.8,-3 3.1,-0.9c2.1,13.3 1,28.8 -7.8,39.7c-2.7,3.3 -6.1,6.1 -10.2,7.3c-2.6,0.7 -5.3,0.5 -7.9,1c-2.8,0.5 -5.6,1.4 -8.2,2.8c-5.3,2.9 -9.3,8 -9.2,14.3c0.1,5.3 2.9,9.9 3.3,15.1c0.3,4.7 -2.7,8.4 -5.8,11.6c-4.8,4.8 -10.6,9.4 -13.2,15.9c-2.6,6.5 0,13 1.7,19.3c2,7.4 4.9,14.2 9.8,20.2c1.3,1.6 -1,3.9 -2.3,2.4z" fill="#ef8989"/><g fill="#fce4b4" opacity="0.6"><path d="M265,265.1c-4.1,-5.1 -7.3,-10.9 -4.7,-17.5c1.4,-3.5 4.1,-6.2 5.3,-9.8c1.4,-4.2 -0.1,-8 -1.1,-12c-1.3,-5.1 -5.4,-10.3 -3,-15.7c2.2,-4.8 7,-7.7 10.1,-11.7c4.6,-6 2.2,-15.1 0.2,-21.7c-2.9,-9.3 -7.3,-18.3 -12.7,-26.5c-3.5,-5.3 -8.6,-13.2 -15.3,-14.9c-2,-0.5 -1.1,-3.6 0.9,-3.1c7.6,2 13.3,10.3 17.3,16.4c5.4,8.1 9.7,17 12.7,26.3c2.1,6.7 4.4,15.4 1.6,22.2c-1.9,4.4 -6,7.5 -9.2,10.9c-1.9,2 -3.6,4.4 -2.9,7.3c0.3,1.6 1.3,2.9 1.9,4.4c0.7,1.7 1.1,3.5 1.6,5.3c0.8,3.2 2,6.4 1.9,9.7c-0.2,2.9 -1.2,5.5 -2.6,8c-1.9,3.4 -4.6,6.3 -4.4,10.5c0.2,3.7 2.5,6.9 4.7,9.7c1.3,1.6 -0.9,4 -2.3,2.2z"/></g><g fill="#fce4b4" opacity="0.6"><path d="M230.7,286.9c-2.2,-0.4 -4.8,-1.4 -5.2,-4c-0.4,-2.4 1.3,-4.9 2.5,-6.8c3.6,-5.5 11.3,-14.5 7.3,-21.5c-1.5,-2.6 -4.3,-4.3 -6.6,-6.2c-2.4,-2 -4.7,-4.2 -6.3,-6.9c-1.9,-3.3 -2.7,-7.2 -4,-10.8c-1.1,-3 -2.2,-6.1 -2.2,-9.4c0,-6.4 4.3,-11 7.9,-15.8c2.8,-3.7 5.3,-7.6 7.7,-11.6c6.5,-10.6 12.6,-22 16.3,-34c2.4,-7.6 5.6,-21.1 -4.4,-24.7c-1.9,-0.7 -1.1,-3.8 0.9,-3.1c10.9,3.9 10,16.4 7.6,25.6c-3.1,12.1 -9,23.4 -15.2,34.1c-2.6,4.5 -5.4,8.9 -8.3,13.1c-3.2,4.5 -7.8,8.7 -8.9,14.2c-0.7,3.5 0.4,6.9 1.6,10.1c1.3,3.8 2.1,8.1 4.3,11.5c3.3,5.2 9.9,7.5 12.8,13c3.1,5.9 -0.3,12.9 -3.4,18c-1.7,2.7 -3.7,5.3 -5.3,8.1c-1.5,2.7 -1.2,3.7 1.9,4.3c2.1,0.5 1.2,3.6 -1,2.8z"/></g><path d="M228.1,268.7c-5.7,-4.1 -10.6,-9.2 -14.8,-14.8c-2.8,-3.6 -5.7,-7.5 -7.3,-11.9c-2.5,-6.8 -2,-14 0.2,-20.7c1.7,-5.3 3.7,-10.4 7.9,-14.2c3.9,-3.5 8.5,-6.3 12.9,-9.1c4.3,-2.8 9.3,-5.7 12.3,-10c2,-2.9 2.9,-6.7 3.8,-10c1.3,-4.8 2.2,-9.6 2.9,-14.5c1.2,-8.5 2.9,-21.2 -3,-28.4c-1.3,-1.6 1,-3.9 2.3,-2.3c6.3,7.8 5.2,20.2 4.1,29.5c-1,8.2 -2.5,16.8 -5.7,24.4c-3.7,8.9 -14.5,13.4 -22,18.6c-4.5,3.1 -8.1,6.3 -10.3,11.5c-3.1,7.3 -5.1,15.2 -2.6,23c1.3,4.3 4.1,8.1 6.8,11.6c4.1,5.3 8.7,10.4 14.2,14.3c1.7,1.2 0.1,4 -1.7,3z" fill="#f7b5bc"/><path d="M245.3,135c-6.6,7.2 -8.8,16 -4.3,25c3.9,7.8 10.7,14 17.4,19.4c3.1,2.5 6.3,4.8 9.6,7.1c2.7,1.9 5.7,3.4 7.7,6c2.3,2.8 4,7 2.7,10.6c-1.2,3.3 -4.8,5 -7.8,6.3c-1.9,0.9 -4.5,1.3 -5.6,3.4c-0.8,1.5 -0.6,3.3 -0.3,4.9c0.8,4.6 3.2,9 5.5,13.1c2.1,3.8 4.5,7.5 6.4,11.4c0.9,1.8 2.5,5.3 -0.3,6.3c-1.2,0.4 -2.5,-0.2 -3.6,-0.6c-3.2,-1.4 -5.7,-1.7 -8.5,0.7c-5.8,5.1 -6.4,15.3 -2.8,21.8c1,1.8 -1.8,3.4 -2.8,1.6c-4,-7.2 -3.6,-16.8 1.3,-23.5c1.9,-2.6 4.5,-4.7 7.7,-5.1c1.6,-0.2 3.2,0 4.7,0.6c0.4,0.1 2.7,0.9 2.9,1.2c0.1,0.2 0,0 0,0.1c0,-0.3 -0.6,0.7 -0.5,0.7c0,0 -0.2,-0.9 -0.3,-1.2c-0.7,-1.6 -1.6,-3.2 -2.5,-4.7c-2.5,-4.4 -5.2,-8.7 -7.3,-13.2c-1.9,-3.8 -3.8,-8.3 -3.4,-12.6c0.5,-5.1 4.4,-6.3 8.5,-8.1c2.2,-0.9 5.1,-2.2 5.7,-4.8c0.5,-2.6 -1.2,-5.7 -2.8,-7.5c-2.3,-2.6 -6,-4.4 -8.8,-6.4c-6.5,-4.6 -12.9,-9.6 -18.3,-15.5c-4.8,-5.3 -9.1,-11.6 -10.1,-18.9c-1,-7.8 2.4,-14.8 7.6,-20.4c1.5,-1.6 3.8,0.7 2.3,2.3z" fill="#ef8989"/></g></g></g></svg>