<svg version="1.1" xmlns="http://www.w3.org/2000/svg" xmlns:xlink="http://www.w3.org/1999/xlink" width="118.41772" height="84.308" viewBox="0,0,118.41772,84.308"><g transform="translate(-183.08048,-165.081)"><g data-paper-data="{&quot;isPaintingLayer&quot;:true}" fill-rule="nonzero" stroke="none" stroke-width="1" stroke-linecap="butt" stroke-linejoin="miter" stroke-miterlimit="10" stroke-dasharray="" stroke-dashoffset="0" style="mix-blend-mode: normal"><path d="M273.797,204.306c0,0 -7.208,5.413 -23.7,6.119c-16.492,0.706 -33.304,-0.839 -36.794,-2.407c-3.431,-1.533 -3.798,-4.414 -3.798,-4.414l15.913,-12.657z" fill="#006482"/><path d="M257.424,207.616h-31.147l-3.993,-16.452h39.134l-3.994,16.452" fill="#281446"/><g><path d="M263.103,211.85c-0.132,0.919 -0.555,15.673 -0.555,15.673l-10.259,-0.353l-0.399,-14.971z" fill="#dc785a"/><path d="M251.698,233.466l-0.004,-6.994l11.601,0.209l-0.276,6.508l-11.321,0.277" fill="#faf0e6"/><path d="M263.77,232.21l-0.871,15.249c0,0 3.227,-0.109 2.995,0.83l-6.357,0.446l-8.665,-5.421l-0.052,-11.397z" fill="#00a0dc"/><path d="M255.068,234.225c0.704,0 1.342,0.287 1.804,0.751c0.462,0.464 0.748,1.105 0.748,1.813c0,0.707 -0.286,1.348 -0.748,1.812c-0.462,0.465 -1.1,0.752 -1.804,0.752c-0.704,0 -1.341,-0.287 -1.803,-0.752c-0.462,-0.464 -0.748,-1.105 -0.748,-1.812c0,-0.708 0.286,-1.349 0.748,-1.813c0.462,-0.464 1.099,-0.751 1.803,-0.751z" fill="#006482"/><path d="M264.273,234.241l-0.399,0.838h-2.796c0.132,-0.276 0.272,-0.553 0.4,-0.838z" fill="#faf0e6"/><path d="M264.245,236.644v0.843h-3.171l0.212,-0.425c0.068,-0.125 0.132,-0.261 0.188,-0.402z" fill="#f0e6d2"/><path d="M264.149,239.911h-3.474c0.136,-0.281 0.264,-0.562 0.399,-0.843h3.171v0.65c-0.032,0.08 -0.06,0.145 -0.096,0.193z" fill="#faf0e6"/><path d="M263.838,242.351h-3.335c0.096,-0.221 0.196,-0.438 0.292,-0.659c0.024,-0.064 0.052,-0.124 0.08,-0.184h3.37c-0.032,0.064 -0.064,0.128 -0.1,0.192c-0.108,0.213 -0.207,0.426 -0.307,0.651z" fill="#f0e6d2"/><path d="M260.871,243.932h3.378c-0.136,0.28 -0.264,0.561 -0.399,0.838h-3.231c0.084,-0.281 0.164,-0.562 0.252,-0.838z" fill="#faf0e6"/><path d="M265.91,248.273l-0.144,1.116h-14.875v-6.091c0,0 6.801,-0.691 7.292,4.847z" fill="#281446"/><path d="M268.718,217.708l-20.802,0.02l-0.059,-19.987l21.304,-0.028l-0.443,19.995" fill="#281446"/></g><g><path d="M231.975,212.199l-0.399,14.971l-10.259,0.353c0,0 -0.423,-14.754 -0.559,-15.673z" fill="#dc785a"/><path d="M232.171,233.466l-11.321,-0.277l-0.28,-6.508l11.605,-0.209l-0.004,6.994" fill="#faf0e6"/><path d="M233.065,231.917l-0.051,11.397l-8.666,5.421l-6.357,-0.446c-0.232,-0.939 2.995,-0.83 2.995,-0.83l-0.867,-15.249z" fill="#00a0dc"/><path d="M228.801,234.225c0.704,0 1.342,0.287 1.803,0.751c0.462,0.464 0.748,1.105 0.748,1.813c0,0.707 -0.286,1.348 -0.748,1.812c-0.461,0.465 -1.099,0.752 -1.803,0.752c-0.704,0 -1.342,-0.287 -1.804,-0.752c-0.462,-0.464 -0.748,-1.105 -0.748,-1.812c0,-0.708 0.286,-1.349 0.748,-1.813c0.462,-0.464 1.1,-0.751 1.804,-0.751z" fill="#006482"/><path d="M222.387,234.241c0.128,0.285 0.268,0.562 0.4,0.838h-2.796l-0.399,-0.838z" fill="#faf0e6"/><path d="M222.395,236.66c0.056,0.141 0.116,0.277 0.188,0.402l0.208,0.425h-3.171v-0.843z" fill="#f0e6d2"/><path d="M219.62,239.718v-0.65h3.175c0.131,0.281 0.263,0.562 0.399,0.843h-3.47z" fill="#faf0e6"/><path d="M219.72,241.7l-0.1,-0.192h3.374c0.024,0.06 0.052,0.12 0.076,0.184c0.096,0.221 0.196,0.438 0.296,0.659h-3.339c-0.099,-0.225 -0.199,-0.438 -0.307,-0.651z" fill="#f0e6d2"/><path d="M223.238,244.77h-3.235c-0.135,-0.277 -0.263,-0.558 -0.399,-0.838h3.378c0.1,0.276 0.18,0.557 0.256,0.838z" fill="#faf0e6"/><path d="M225.686,248.145c0.487,-5.538 7.288,-4.847 7.288,-4.847v6.091h-14.859l-0.144,-1.116z" fill="#281446"/><path d="M215.383,217.708l-0.679,-19.995l21.308,0.028l-0.063,19.987l-20.566,-0.02" fill="#281446"/></g><g><path d="M208.902,210.594c1.398,4.895 6.266,10.032 4.457,13.125c-0.895,0.121 -1.598,-0.317 -2.185,-0.75c-1.106,-1.408 -1.941,-2.624 -2.46,-4.334c-0.127,-0.06 -1.042,-1.685 -2.611,-0.618c-1.57,1.068 -3.966,2.456 -7.743,0.245c-3.466,-2.034 -5.938,-5.393 -5.695,-9.631c0.216,-3.719 2.129,-7.259 5.938,-8.025c2.919,-0.602 5.475,-0.285 7.731,1.156c3.127,1.974 1.174,3.94 2.568,8.832z" fill="#dc5050"/><path d="M189.818,189.976c13.242,-21.083 29.203,-20.084 32.657,-22.25l6.597,22.234c0,0 -9.66,1.328 -15.106,6.625c-5.447,5.297 -8.686,20.261 -8.015,27.287c0.072,0.782 0.284,13.214 -2.368,8.94c-1.05,-1.665 -0.775,-9.165 -4.245,-8.322c-3.47,0.842 -1.693,10.922 -3.933,12.816c-2.237,-0.401 -2.037,-2.977 -2.396,-4.698c-0.511,-2.464 0.503,-7.93 -3.119,-7.625c-3.622,0.305 -1.661,9.848 -3.622,9.194c-1.957,-0.659 -7.643,-26.372 3.55,-44.201z" fill="#dc785a"/></g><g><path d="M277.471,221.304l-0.459,0.277c0.063,1.464 -1.294,6.994 -3.646,6.572c-2.049,-0.369 0.215,-6.372 0.531,-7.624c0.691,-2.781 1.429,-5.216 1.134,-8.089c-0.296,-2.874 0.052,-6.168 2.332,-8.106c2.28,-1.938 11.061,-2.757 12.779,5.329c1.693,7.985 -4.725,15.308 -12.671,11.641z" fill="#dc5050"/><path d="M269.512,197.986c-5.459,-5.261 -10.89,-7.588 -13.521,-7.942l3.969,-21.644c2.516,0.642 12.994,2.431 25.865,12.399c4.516,3.503 11.648,11.324 14.499,25.048c2.169,10.473 0.763,28.049 0.268,28.089c-3.255,0.289 -1.254,-9.246 -4.852,-9.583c-3.598,-0.337 -3.262,6.886 -3.546,8.19c-0.527,2.428 -0.052,6.69 -3.111,5.867c-1.513,-1.79 -0.742,-4.847 -0.934,-7.05c-0.12,-1.413 -0.547,-3.347 -1.522,-4.551c-3.254,-3.984 -4.48,5.963 -5.047,7.275c-0.839,1.975 -2.316,3.154 -3.195,0.43c-0.683,-2.111 0.779,-6.501 -1.373,-19.314c-1.019,-6.063 -2.584,-12.479 -7.5,-17.214z" fill="#dc785a"/></g><g><path d="M254.126,167.87l-2.424,10.666l-27.302,0.052l2.248,-10.878l27.478,0.16" fill="#dc785a"/><path d="M255.767,166.899l4.605,0.233l10.414,30.934l-15.019,-31.167" fill="#006482"/><path d="M225.79,166.61l-12.887,28.912l7.711,-28.735l5.176,-0.177" fill="#006482"/><path d="M209.505,203.604l14.116,-38.523l7.017,0.602c0,0 1.309,9.197 9.667,9.173c11.665,-0.032 10.678,-9.341 10.678,-9.341l6.258,-0.169l16.556,38.96z" fill="#00a0dc"/></g></g></g></svg>