<svg version="1.1" xmlns="http://www.w3.org/2000/svg" xmlns:xlink="http://www.w3.org/1999/xlink" width="586.33332" height="147" viewBox="0,0,586.33332,147"><g transform="translate(-211.16668,-100.43753)"><g data-paper-data="{&quot;isPaintingLayer&quot;:true}" fill-rule="nonzero" stroke="none" stroke-width="0" stroke-linecap="butt" stroke-linejoin="miter" stroke-miterlimit="10" stroke-dasharray="" stroke-dashoffset="0" style="mix-blend-mode: normal"><path d="M211.16668,180.00002c0,-15.92421 12.90913,-28.83333 28.83333,-28.83333c15.92421,0 28.83333,12.90913 28.83333,28.83333c0,15.92421 -12.90913,28.83333 -28.83333,28.83333c-15.92421,0 -28.83333,-12.90913 -28.83333,-28.83333z" fill="#565656"/><path d="M215.17579,180.00002c0,-13.71003 11.11419,-24.82422 24.82422,-24.82422c13.71003,0 24.82422,11.11419 24.82422,24.82422c0,13.71003 -11.11419,24.82422 -24.82422,24.82422c-13.71003,0 -24.82422,-11.11419 -24.82422,-24.82422z" fill="#f00000"/><path d="M217.12048,180.00002c0,-12.63601 10.24352,-22.87952 22.87953,-22.87952c12.63601,0 22.87953,10.24352 22.87953,22.87953c0,12.63601 -10.24352,22.87953 -22.87952,22.87953c-12.63601,0 -22.87952,-10.24352 -22.87952,-22.87952z" fill="#f05757"/><path d="M231.59892,180.00002c0,-4.63978 3.7613,-8.40108 8.40108,-8.40108c4.63978,0 8.40108,3.7613 8.40108,8.40108c0,4.63978 -3.7613,8.40108 -8.40108,8.40108c-4.63978,0 -8.40108,-3.7613 -8.40108,-8.40108z" fill="#f00000"/><path d="M230.35433,180.00002c0,-5.32716 4.31852,-9.64568 9.64568,-9.64568c5.32716,0 9.64568,4.31852 9.64568,9.64568c0,5.32716 -4.31852,9.64568 -9.64568,9.64568c-5.32716,0 -9.64568,-4.31852 -9.64568,-9.64568z" fill-opacity="0.57322" fill="#eaeaea"/><path d="M599.5,247.43754v-147h198v147z" fill-opacity="0" fill="#892163"/></g></g></svg>