<svg version="1.1" xmlns="http://www.w3.org/2000/svg" xmlns:xlink="http://www.w3.org/1999/xlink" width="60.68556" height="51.6863" viewBox="0,0,60.68556,51.6863"><g transform="translate(-206.10722,-120.5)"><g data-paper-data="{&quot;isPaintingLayer&quot;:true}" fill-rule="nonzero" stroke="none" stroke-width="1" stroke-linecap="butt" stroke-linejoin="miter" stroke-miterlimit="10" stroke-dasharray="" stroke-dashoffset="0" style="mix-blend-mode: normal"><g><path d="M246.3,145.9c2.3,-3.8 8,-3.5 11.6,-3.5c3.6,0 6.8,-2.3 8.5,-1.9c1.7,0.4 -2.5,1.9 -5.3,4.7c-2.8,2.8 -6.5,7.9 -13.2,6.2c-2.8,-0.7 -2.6,-3.8 -1.6,-5.5z" fill="#a2b04a"/><path d="M248.8,149.2c0.4,-0.1 1.1,-0.3 1.8,-0.7c0.3,-0.2 0.7,-0.5 1,-0.8c0.2,-0.1 0.4,-0.3 0.5,-0.5l0.2,-0.3l0.3,-0.3c0.1,-0.2 0.4,-0.4 0.6,-0.6c0.2,-0.2 0.5,-0.4 0.7,-0.5c0.5,-0.3 1,-0.5 1.5,-0.7c1,-0.4 2.1,-0.7 3.1,-0.9c1,-0.2 1.9,-0.4 2.7,-0.6c0.8,-0.2 1.4,-0.4 1.9,-0.5c0.4,-0.1 0.7,-0.2 0.7,-0.2c0,0 -0.3,0.1 -0.7,0.3c-0.5,0.2 -1.1,0.5 -1.9,0.7c-0.8,0.3 -1.7,0.5 -2.7,0.8c-1,0.2 -2.1,0.5 -3.1,0.9c-0.6,0.1 -1,0.4 -1.5,0.6c-0.5,0.3 -0.9,0.5 -1.2,0.9c-0.2,0.2 -0.3,0.4 -0.5,0.6c-0.1,0.2 -0.3,0.3 -0.5,0.5c-0.4,0.3 -0.8,0.5 -1.2,0.7c-0.8,0.4 -1.5,0.5 -2,0.5c-0.5,0 -0.8,0 -0.8,0c0,0 0.2,0 1.1,0.1z" fill="#698237"/><path d="M246.4,145.6c0.2,-0.3 0.4,-0.6 0.7,-1c0.3,-0.3 0.8,-0.7 1.3,-1c0.5,-0.3 1.1,-0.6 1.7,-0.8c0.6,-0.2 1.2,-0.3 1.8,-0.4c0.6,-0.1 1.1,-0.1 1.6,-0.1c0.4,0 0.8,0.1 1.1,0.1c0.2,0 0.4,0 0.4,0c0,0 -0.1,0.1 -0.4,0.1c-0.3,0.1 -0.6,0.1 -1.1,0.2c-0.5,0.1 -1,0.2 -1.6,0.3c-0.5,0.1 -1.1,0.2 -1.7,0.4c-0.5,0.2 -1.1,0.5 -1.6,0.7c-0.5,0.2 -0.9,0.5 -1.3,0.8c-0.7,0.5 -1,1.1 -1,1.1c0,0 0,-0.2 0.1,-0.4z" fill="#698237"/></g><path d="M258.3,137.1c2.7,5.2 3.9,21.1 -0.7,26.6c-4.6,5.5 -14.2,9.4 -18.3,8.3c-4.1,-1 -19.2,-13.8 -15.2,-30.7c4,-16.9 29.9,-12.5 34.2,-4.2z" fill="#5c3e2c"/><path d="M229.3,163.5c1.4,-4.6 10.6,-5.9 12.2,1.5c0,0 -0.2,5.4 1.2,7c-1.3,0.2 -2.5,0.2 -3.3,0c-2,-0.4 -6.5,-3.5 -10.1,-8.5z" fill="#a2b04a"/><g><path d="M224.1,135.6c4.4,-12 17.9,-13.7 25.2,-8.2c8.1,6.1 7.1,19.7 7.1,19.7c0,0 4.2,6.4 -1.7,14c-3,3.8 -7.1,6.1 -12.8,6.3c-4.7,0.2 -16,-4.8 -18.5,-15c-1,-4.6 -0.9,-12.4 0.7,-16.8z" fill="#a2b04a"/><path d="M237.6,150.4c-0.60751,0 -1.1,-1.11929 -1.1,-2.5c0,-1.38071 0.49249,-2.5 1.1,-2.5c0.60751,0 1.1,1.11929 1.1,2.5c0,1.38071 -0.49249,2.5 -1.1,2.5z" fill="#382c18"/><path d="M250.2,149.8c-0.60751,0 -1.1,-1.11929 -1.1,-2.5c0,-1.38071 0.49249,-2.5 1.1,-2.5c0.60751,0 1.1,1.11929 1.1,2.5c0,1.38071 -0.49249,2.5 -1.1,2.5z" fill="#382c18"/><path d="M246.2,150.5c0.2,0.3 0.5,0.7 0.8,1.1c0.3,0.4 0.6,0.9 0.9,1.2c0.4,0.2 0.9,0.5 1.4,0.7c0.5,0.2 1.1,0.4 1.6,0.7c0.3,0.2 0.6,0.3 0.8,0.6c0.3,0.3 0.4,0.7 0.2,1.1c-0.1,0.1 -0.2,0.3 -0.3,0.4c-0.1,0.1 -0.1,0.2 -0.3,0.3c-0.3,0.2 -0.5,0.3 -0.8,0.4c-0.6,0.2 -1.1,0.3 -1.6,0.3c-0.5,0 -1,0 -1.4,0c-0.9,-0.1 -1.6,-0.1 -2.1,-0.1c-0.5,0 -0.8,0.1 -0.8,0.1c0,0 0.3,-0.1 0.8,-0.2c0.5,-0.1 1.2,-0.2 2.1,-0.2c0.8,0 1.9,-0.1 2.8,-0.4c0.2,0 0.4,-0.2 0.6,-0.3c0.1,-0.1 0.2,-0.2 0.3,-0.3c0.1,-0.1 0.1,-0.2 0.2,-0.3c0.1,-0.2 0,-0.3 -0.1,-0.5c-0.1,-0.1 -0.4,-0.3 -0.6,-0.4c-0.5,-0.2 -1,-0.5 -1.5,-0.7c-0.5,-0.3 -1,-0.5 -1.5,-0.9c-0.4,-0.4 -0.6,-0.9 -0.9,-1.3c-0.2,-0.4 -0.5,-0.8 -0.7,-1.2c-0.9,-1.5 -1.4,-2.5 -1.4,-2.5c0,0 0.7,1 1.5,2.4z" fill="#546626"/><path d="M244.4,156.8c0,0 -0.1,0.1 -0.2,0.1c-0.1,0 -0.2,0 -0.3,0.1c-0.2,0.1 -0.3,0.2 -0.5,0.2c-0.2,0.1 -0.3,0.1 -0.3,0.1c0,0 0,-0.2 0.1,-0.3c0.1,-0.1 0.1,-0.1 0.2,-0.2c0.1,-0.1 0.2,-0.1 0.3,-0.2c0.2,-0.1 0.4,-0.1 0.6,-0.1c0.2,0 0.3,0 0.3,0c0,0 0,0.1 -0.2,0.3z" fill="#546626"/><path d="M247,161.4c-0.5,0.2 -1,0.4 -1.6,0.5c-0.6,0.1 -1.3,0.1 -1.9,0.1c-0.7,0 -1.3,-0.1 -1.9,-0.2c-0.6,-0.2 -1.2,-0.3 -1.6,-0.5c-0.4,-0.2 -0.7,-0.4 -1,-0.5c-0.3,-0.1 -0.4,-0.2 -0.4,-0.2c0,0 0.1,0 0.4,0.1c0.3,0 0.6,0.1 1.1,0.2c0.5,0.1 1,0.2 1.6,0.3c0.6,0 1.2,0.1 1.8,0.1c1.2,0 2.4,-0.1 3.3,-0.3c0.9,-0.1 1.5,-0.4 1.5,-0.4c0,0 -0.5,0.4 -1.3,0.8z" fill="#546626"/><path d="M252.1,143.1c-0.4,-0.1 -1,-0.1 -1.6,-0.2c-0.6,-0.1 -1.2,-0.2 -1.6,-0.3c-0.2,0 -0.4,-0.1 -0.5,-0.1c-0.1,-0.1 -0.2,-0.1 -0.2,-0.1c0,0 0.3,-0.1 0.8,-0.2c0.5,-0.1 1.1,-0.1 1.7,0c0.6,0 1.2,0.2 1.6,0.4c0.4,0.2 0.7,0.4 0.7,0.4c0,0 -0.3,0 -0.9,0.1z" fill="#546626"/><path d="M235.7,143.2c0.5,-0.2 1.2,-0.5 1.9,-0.6c0.7,-0.1 1.5,-0.2 2,-0.1c0.5,0.1 0.9,0.2 0.9,0.2c0,0 0,0.1 -0.2,0.1c-0.1,0 -0.3,0 -0.6,0.1c-0.5,0.1 -1.2,0.2 -1.9,0.3c-0.7,0.1 -1.4,0.2 -1.9,0.3c-0.5,0 -0.9,0.1 -0.9,0.1c0,0 0.3,-0.3 0.7,-0.4z" fill="#546626"/><path d="M252.8,163.5c-0.4,0.4 -1,0.9 -1.8,1.4c-0.4,0.3 -0.8,0.5 -1.3,0.8c-0.5,0.2 -1,0.5 -1.6,0.7c-0.5,0.2 -1.1,0.4 -1.7,0.6c-0.6,0.1 -1.3,0.3 -1.9,0.4c-0.4,0 -0.7,0.1 -1,0.1c-0.4,0 -0.7,0 -1,0c-0.6,0 -1.2,-0.1 -1.8,-0.1c-0.6,-0.1 -1.2,-0.2 -1.7,-0.4c-0.6,-0.2 -1.1,-0.3 -1.5,-0.5c-0.5,-0.1 -0.9,-0.3 -1.2,-0.5c-0.4,-0.2 -0.7,-0.4 -0.9,-0.5c-0.4,-0.3 -0.7,-0.5 -0.7,-0.5c0,0 0.3,0.2 0.8,0.4c0.3,0.1 0.5,0.3 0.9,0.4c0.4,0.1 0.8,0.2 1.2,0.4c0.4,0.2 0.9,0.3 1.4,0.4c0.5,0.2 1,0.2 1.6,0.3c0.6,0.1 1.2,0.1 1.8,0.1c0.3,0 0.6,0 0.9,0l0.9,-0.1c0.6,0 1.2,-0.2 1.8,-0.3c0.6,-0.1 1.2,-0.3 1.7,-0.5c0.5,-0.2 1,-0.4 1.5,-0.6c0.4,-0.2 0.9,-0.5 1.3,-0.7c0.8,-0.5 1.4,-0.9 1.9,-1.2c0.4,-0.3 0.7,-0.5 0.7,-0.5c0,0 -0.2,0.2 -0.3,0.4z" fill="#698237"/></g><g><g><g><path d="M258.3,137.1c-2.7,-4.7 -11.5,-5.1 -14.6,-4.5c-3.1,0.6 -11.8,5.3 -13.5,13c-1.7,7.6 1.6,23.6 9.1,26.5c0,0 -19.2,-6.1 -21.2,-8.9c-2.5,-3.7 -3,-16.8 -2.9,-21.2c0,-2 3.3,-10.5 3.3,-10.5c0,0 -0.8,-7.4 -2.8,-8.7c0,0 5,-1.4 10.2,-0.8c5.2,0.6 10.3,-3 17.5,-0.5c11.8,4 14.9,15.6 14.9,15.6z" fill="#7d543d"/><path d="M218.5,132.5c-0.6,1.3 -1.3,2.9 -1.8,4.7c-0.3,0.9 -0.5,1.8 -0.7,2.8c-0.2,1 -0.3,1.9 -0.4,2.9c-0.1,1 -0.1,1.9 -0.1,2.9c0,1 0,2 0.1,2.9c0.2,1.9 0.3,3.6 0.5,5.1c0.3,2.9 0.6,4.9 0.6,4.9c0,0 -0.5,-2 -1,-4.9c-0.3,-1.5 -0.5,-3.2 -0.7,-5.1c-0.1,-1 -0.2,-1.9 -0.2,-2.9c-0.1,-1 -0.1,-2 0,-3c0.1,-1 0.2,-2 0.4,-3c0.2,-1 0.4,-1.9 0.7,-2.8c0.3,-0.9 0.6,-1.7 1,-2.5c0.4,-0.8 0.7,-1.5 1.1,-2.2c0.7,-1.3 1.5,-2.3 2,-3c0.5,-0.7 0.9,-1 0.9,-1c0,0 -1.3,1.6 -2.4,4.2z" fill="#523219"/><path d="M251.7,132.9c-1.1,-0.2 -2.9,-0.5 -4.9,-0.5c-1.1,0 -2.2,0.1 -3.3,0.4c-1.2,0.3 -2.3,0.8 -3.4,1.4c-2.3,1.2 -4.4,2.9 -6.2,5c-0.8,1 -1.7,2.2 -2.3,3.3c-0.1,0.3 -0.3,0.6 -0.4,0.9c-0.1,0.3 -0.2,0.6 -0.3,0.9c-0.2,0.6 -0.4,1.3 -0.5,1.9c-0.5,2.5 -0.5,4.9 -0.4,7c0.1,2.1 0.3,3.8 0.5,5c0.2,1.1 0.4,1.8 0.4,1.8c0,0 -0.2,-0.6 -0.5,-1.8c-0.3,-1.1 -0.6,-2.8 -0.8,-4.9c0,-1.1 -0.1,-2.2 -0.1,-3.4c0,-1.2 0.1,-2.5 0.3,-3.8c0.1,-0.7 0.3,-1.3 0.5,-2c0.1,-0.3 0.2,-0.7 0.3,-1c0.1,-0.3 0.3,-0.6 0.4,-0.9c0.7,-1.2 1.5,-2.3 2.4,-3.4c1.9,-2.1 4.1,-3.9 6.4,-5.1c1.1,-0.6 2.3,-1.1 3.5,-1.3c1.2,-0.3 2.4,-0.3 3.4,-0.3c2.1,0.1 3.8,0.5 5,0.8c1.1,0.3 1.8,0.5 1.8,0.5c0,0 -0.7,-0.1 -1.8,-0.5z" fill="#523219"/><path d="M239.2,120.7c-0.7,0 -1.6,0 -2.8,0.1c-1.2,0 -2.5,0.3 -3.9,0.6c-0.7,0.1 -1.5,0.4 -2.2,0.5c-0.7,0.2 -1.5,0.3 -2.3,0.3c-1.6,0 -3.2,-0.2 -4.6,-0.2c-0.7,0 -1.4,0 -2.1,0c-0.7,0 -1.3,0 -1.9,0.1c-1.2,0.1 -2.1,0.3 -2.8,0.4c-0.6,0.1 -1,0.2 -1,0.2c0,0 0.4,-0.1 1,-0.3c0.3,-0.1 0.7,-0.2 1.2,-0.3c0.5,-0.1 1,-0.2 1.6,-0.3c0.6,-0.1 1.2,-0.1 1.9,-0.2c0.7,-0.1 1.4,-0.1 2.1,-0.1c1.4,0 3,0.1 4.5,0.1c0.7,0 1.5,-0.1 2.2,-0.2c0.8,-0.2 1.5,-0.4 2.2,-0.5c1.4,-0.3 2.8,-0.4 4,-0.4c1.2,0 2.1,0.2 2.8,0.2c0.7,0.1 1.1,0.1 1.1,0.1c0,0 -0.3,0 -1,-0.1z" fill="#523219"/></g><path d="M218.8,163.7c0.3,0.2 0.6,0.4 1,0.6c0.4,0.2 0.8,0.4 1.3,0.7c0.9,0.5 2.1,1 3.3,1.5c1.2,0.6 2.5,1.1 3.9,1.6c1.4,0.6 2.7,1.1 4,1.5c1.3,0.4 2.5,0.8 3.5,1.2c2,0.7 3.4,1.2 3.4,1.2c0,0 -1.4,-0.2 -3.5,-0.8c-1.1,-0.2 -2.3,-0.6 -3.6,-1c-1.3,-0.4 -2.6,-0.9 -4,-1.4c-1.3,-0.6 -2.7,-1.1 -3.9,-1.7c-1.2,-0.5 -2.4,-1.1 -3.3,-1.7c-0.4,-0.3 -0.9,-0.5 -1.2,-0.8c-0.3,-0.3 -0.7,-0.5 -0.9,-0.7c-0.4,-0.4 -0.7,-0.7 -0.7,-0.7c0,0 0.3,0.2 0.7,0.5z" fill="#523219"/></g><g fill="#523219"><path d="M225.3,133.4c-0.4,0.6 -0.8,1.4 -1.3,2.2c-0.4,0.8 -0.9,1.6 -1.2,2.2c-0.2,0.4 -0.3,0.6 -0.4,0.8c-0.1,0.2 -0.2,0.3 -0.2,0.3c0,0 0,-0.5 0.2,-1.2c0.2,-0.7 0.5,-1.6 1,-2.4c0.4,-0.8 1,-1.6 1.5,-2.1c0.5,-0.5 0.9,-0.8 0.9,-0.8c0,0 -0.2,0.4 -0.5,1z"/><path d="M222.5,132.3c-0.4,0.6 -0.8,1.4 -1.3,2.2c-0.4,0.8 -0.9,1.6 -1.2,2.2c-0.2,0.4 -0.3,0.6 -0.4,0.8c-0.1,0.2 -0.2,0.3 -0.2,0.3c0,0 0,-0.5 0.2,-1.2c0.2,-0.7 0.5,-1.6 1,-2.4c0.4,-0.8 1,-1.6 1.5,-2.1c0.5,-0.5 0.9,-0.8 0.9,-0.8c0,0 -0.2,0.4 -0.5,1z"/><path d="M225.9,136c-0.6,-0.4 -1.4,-0.8 -2.2,-1.3c-0.8,-0.4 -1.6,-0.9 -2.2,-1.2c-0.4,-0.2 -0.6,-0.3 -0.8,-0.4c-0.2,-0.1 -0.3,-0.2 -0.3,-0.2c0,0 0.5,0 1.2,0.2c0.7,0.2 1.6,0.5 2.4,1c0.8,0.4 1.6,1 2.1,1.5c0.5,0.5 0.8,0.9 0.8,0.9c0,0 -0.5,-0.2 -1,-0.5z"/><path d="M224.4,138.1c-0.6,-0.4 -1.4,-0.8 -2.2,-1.3c-0.8,-0.4 -1.6,-0.9 -2.2,-1.2c-0.4,-0.2 -0.6,-0.3 -0.8,-0.4c-0.2,-0.1 -0.3,-0.2 -0.3,-0.2c0,0 0.5,0 1.2,0.2c0.7,0.2 1.6,0.5 2.4,1c0.8,0.4 1.6,1 2.1,1.5c0.5,0.5 0.8,0.9 0.8,0.9c0,0 -0.4,-0.2 -1,-0.5z"/></g></g><g><path d="M225,155c-6.7,1.7 -10.4,-3.4 -13.2,-6.2c-2.8,-2.8 -7,-4.3 -5.3,-4.7c1.7,-0.4 4.9,1.9 8.5,1.9c3.6,0 9.3,-0.3 11.6,3.5c1,1.7 1.3,4.8 -1.6,5.5z" fill="#a2b04a"/><path d="M224.9,152.5c-0.5,-0.1 -1.2,-0.1 -2,-0.5c-0.4,-0.1 -0.8,-0.4 -1.2,-0.7c-0.1,-0.1 -0.3,-0.3 -0.5,-0.5c-0.2,-0.2 -0.3,-0.4 -0.5,-0.6c-0.4,-0.4 -0.7,-0.6 -1.2,-0.9c-0.5,-0.2 -1,-0.4 -1.5,-0.6c-1,-0.4 -2.1,-0.6 -3.1,-0.9c-1,-0.3 -1.9,-0.5 -2.7,-0.8c-0.8,-0.2 -1.5,-0.5 -1.9,-0.7c-0.5,-0.2 -0.7,-0.3 -0.7,-0.3c0,0 0.2,0.1 0.7,0.2c0.4,0.1 1.1,0.3 1.9,0.5c0.7,0.2 1.7,0.4 2.7,0.6c1,0.3 2,0.5 3.1,0.9c0.5,0.2 1,0.4 1.5,0.7c0.2,0.2 0.5,0.3 0.7,0.5c0.2,0.2 0.5,0.4 0.6,0.6l0.3,0.3l0.2,0.3c0.2,0.2 0.3,0.3 0.5,0.5c0.3,0.4 0.7,0.6 1,0.8c0.7,0.4 1.3,0.6 1.8,0.7c0.4,0.1 0.7,0.1 0.7,0.1c0,0 -0.3,0 -0.4,-0.2z" fill="#698237"/><path d="M225.7,148.4c-0.3,-0.3 -0.8,-0.5 -1.3,-0.8c-0.6,-0.2 -1.1,-0.4 -1.7,-0.6c-0.5,-0.1 -1.1,-0.3 -1.7,-0.4c-0.6,-0.1 -1.1,-0.2 -1.6,-0.3c-0.4,-0.1 -0.8,-0.2 -1.1,-0.2c-0.2,-0.1 -0.4,-0.1 -0.4,-0.1c0,0 0.1,0 0.4,0c0.2,0 0.6,-0.1 1.1,-0.1c0.5,0 1,0 1.6,0.1c0.6,0.1 1.2,0.2 1.8,0.4c0.6,0.2 1.2,0.5 1.7,0.8c0.5,0.3 1,0.6 1.3,1c0.4,0.4 0.6,0.7 0.7,1c0.2,0.2 0.2,0.4 0.2,0.4c0,0 -0.3,-0.6 -1,-1.2z" fill="#698237"/></g></g></g></svg>