<svg version="1.1" xmlns="http://www.w3.org/2000/svg" xmlns:xlink="http://www.w3.org/1999/xlink" width="47.73932" height="43.47175" viewBox="0,0,47.73932,43.47175"><g transform="translate(-216.52816,-122.012)"><g data-paper-data="{&quot;isPaintingLayer&quot;:true}" fill-rule="nonzero" stroke="none" stroke-width="1" stroke-linecap="butt" stroke-linejoin="miter" stroke-miterlimit="10" stroke-dasharray="" stroke-dashoffset="0" style="mix-blend-mode: normal"><g><path d="M241.466,155.911c2.687,-0.918 6.161,-0.721 8.782,-1.443c0.393,0.787 0.459,4.59 0.393,5.377c-0.065,0.787 -0.262,1.442 -0.393,2.229c-0.066,0.525 -0.393,0.918 -0.786,1.246c-1.377,1.115 -3.146,1.574 -4.916,1.311c-0.852,-0.065 -1.573,-0.59 -1.9,-1.377c-0.459,-1.311 -1.442,-5.835 -1.18,-7.343z" fill="#c8bea0"/><path d="M241.138,163.189c0.066,0.852 -0.458,1.639 -1.31,1.901c-1.311,0.525 -2.818,0.525 -4.129,0c-0.59,-0.262 -1.049,-0.655 -1.311,-1.245c-0.459,-0.984 -0.721,-1.968 -0.786,-3.017c-0.066,-0.524 -0.787,-4.393 -0.525,-4.983l7.537,0.459c0.066,0.394 0.328,3.803 0.328,4.131c0.065,0.918 0.131,1.836 0.196,2.754z" fill="#f0e6d2"/><path d="M231.767,161.812c-0.066,0.328 -0.197,0.656 -0.394,0.983c-1.966,0.459 -3.473,-0.196 -4.718,-1.639c-0.656,-0.852 -1.049,-1.77 -1.245,-2.819c-0.131,-0.328 -0.983,-3.541 -0.656,-3.869c1.049,0.328 6.226,1.181 7.275,1.574c0.131,1.967 0.065,3.934 -0.262,5.77z" fill="#f0e6d2"/><path d="M257.392,152.37c0.196,1.443 0,5.77 -0.394,7.016c-0.327,1.115 -1.245,2.032 -2.359,2.426c-0.655,-0.197 -1.311,-0.525 -1.77,-0.984c-0.131,-0.131 -0.262,-0.262 -0.393,-0.459c-0.327,-0.59 -1.114,-5.573 -1.048,-6.491c0.524,-0.131 4.587,-1.508 5.964,-1.508z" fill="#aaa082"/><path d="M245.857,122.012c12.255,0 19.464,10.557 18.285,22.162c-0.262,2.688 -1.114,5.311 -2.36,7.737c-1.441,2.492 -7.995,4.328 -10.682,4.983c-6.292,1.508 -8.585,1.967 -15.139,1.508c-5.374,-0.393 -13.042,-1.77 -16.384,-6.425c-3.146,-4.393 -3.474,-11.802 -2.687,-16.982c1.048,-6.754 4.522,-9.114 10.879,-10.491c5.898,-1.246 12.124,-2.426 18.088,-2.492z" fill="#dcd2b4"/><path d="M260.079,139.978c1.441,3.934 -0.132,6.622 -3.474,8.065c-2.687,1.18 -6.619,0.131 -7.733,-3.279c-0.59,-1.967 -0.197,-4.13 1.114,-5.77c0.328,-0.393 0.721,-0.786 1.114,-1.114c0.59,-0.394 1.18,-0.722 1.901,-0.918c1.9,-0.394 5.57,-0.722 7.078,3.016z" fill="#ffffff"/><path d="M232.946,139.453c2.163,3.213 0,7.082 -3.342,8.524c-2.687,1.18 -6.619,0.131 -7.733,-3.278c-0.59,-1.836 -0.131,-4.393 1.114,-5.77c0.327,-0.394 0.721,-0.787 1.114,-1.115c0.59,-0.393 1.18,-0.721 1.9,-0.918c1.901,-0.459 4.785,-0.656 6.947,2.557z" fill="#ffffff"/><path d="M228.621,142.207c-0.131,0.721 -0.197,1.639 -1.245,1.77c-0.852,-0.524 -0.59,-1.311 -0.59,-2.032c0.065,-0.459 0.393,-0.853 0.917,-0.918c0.525,0.197 0.852,0.656 0.918,1.18z" fill="#dcd2b4"/><path d="M254.18,143.912c-0.393,-0.787 -0.131,-1.508 -0.065,-2.164c0.065,0 0.065,-0.065 0.065,-0.065c0.197,-0.328 0.721,-0.459 1.049,-0.197c0.262,0.524 0.393,1.18 0.327,1.836c-0.065,0.262 -0.131,0.328 -0.72,0.852z" fill="#dcd2b4"/><path d="M227.703,141.027c0.525,0.197 0.852,0.656 0.918,1.18c-0.131,0.787 -0.131,1.639 -1.245,1.77c-0.852,-0.524 -0.59,-1.311 -0.59,-2.032c0.065,-0.459 0.459,-0.853 0.917,-0.918z" fill="#000000"/><path d="M254.836,144.174l-0.721,-0.328c-0.394,-0.786 -0.131,-1.508 -0.066,-2.163c0.197,-0.394 0.656,-0.525 1.049,-0.263c0,0 0.065,0 0.065,0.066c0.328,0.59 0.459,1.246 0.328,1.836c0,0.262 -0.066,0.328 -0.655,0.852z" fill="#000000"/><path d="M246.316,151.846c-0.197,0.262 -0.262,1.77 -2.032,0.852c-1.769,-0.918 -1.573,-2.688 -2.818,-2.492c-1.245,0.197 -1.573,2.689 -3.408,2.689c-1.835,0 -1.311,-2.295 -1.114,-3.344c0.262,-1.574 0.721,-3.082 0.918,-4.656c0.262,-1.508 0.72,-3.016 1.376,-4.393c0.262,-0.852 1.048,-1.442 1.966,-1.377c3.146,0.459 5.177,9.311 5.112,12.721z" fill="#c8bea0"/></g></g></g></svg>