<svg version="1.1" xmlns="http://www.w3.org/2000/svg" xmlns:xlink="http://www.w3.org/1999/xlink" width="81.5" height="70.6487" viewBox="0,0,81.5,70.6487"><g transform="translate(-206,-119.1424)"><g data-paper-data="{&quot;isPaintingLayer&quot;:true}" stroke-miterlimit="10" stroke-dasharray="" stroke-dashoffset="0" style="mix-blend-mode: normal"><path d="M253.7,131c0.3,-0.2 0.8,-0.1 0.9,0.3l2.6,10.7c0,0 6.4,4.7 8.3,8c3.2,5.5 3.3,10 3.3,10c0,0 7.1,2.1 8.3,7.8c1.2,5.7 -3.2,16.5 -22,20.2c-18.8,3.7 -33.9,-1.4 -41,-12.8c-7.1,-11.4 4.1,-25 3.5,-24.2l-2.1,-17.9c-0.1,-0.4 0.4,-0.7 0.8,-0.5l12.1,7.9c0,0 4.5,-1.7 9.2,-1.9c2.8,-0.2 5.2,0 7.5,0.4z" fill="#b2b2b2" fill-rule="evenodd" stroke="#001026" stroke-width="1.2" stroke-linecap="butt" stroke-linejoin="miter"/><path d="M268.5,160.4c0,0 6.9,1.8 8.1,7.5c1.2,5.7 -3.6,16 -22.2,19.6c-24.2,5 -35.7,-9.4 -29,-20c6.7,-10.7 18.2,-1.6 26.6,-2.2c7.2,-0.5 8,-6.8 16.5,-4.9z" fill="#ffffff" fill-rule="evenodd" stroke="none" stroke-width="1" stroke-linecap="butt" stroke-linejoin="miter"/><path d="M286.9,161.5c-4.7,3.8 -11.9,3.9 -11.9,3.9" fill="none" fill-rule="evenodd" stroke="#001026" stroke-width="1.2" stroke-linecap="round" stroke-linejoin="round"/><path d="M285.6,172.7c-6.3,0.5 -10.2,-1.4 -10.2,-1.4" fill="none" fill-rule="evenodd" stroke="#001026" stroke-width="1.2" stroke-linecap="round" stroke-linejoin="round"/><path d="M206.6,161.2c0,0 8.6,2.8 12.1,5.9" fill="none" fill-rule="evenodd" stroke="#001026" stroke-width="1.2" stroke-linecap="round" stroke-linejoin="round"/><path d="M219,170.6c-4.3,1.7 -11.7,0.6 -11.7,0.6" fill="none" fill-rule="evenodd" stroke="#001026" stroke-width="1.2" stroke-linecap="round" stroke-linejoin="round"/><g fill-rule="nonzero" stroke="#001026" stroke-width="1.2" stroke-linecap="butt" stroke-linejoin="miter"><path d="M218.13934,143.96388c-0.63263,-7.74404 -5.3611,-16.90886 0.6642,-20.94921c2.83478,-1.9009 14.6268,-1.05636 18.27022,-1.354c5.35682,-0.43761 16.40102,-3.67297 20.34067,-0.62337c4.43521,3.4332 1.46988,13.52716 1.96254,19.55779c0.15237,1.86514 -40.95404,6.84026 -41.23763,3.36879z" fill="#ffffff"/><path d="M218.55399,147.50438l-0.36639,-4.48506l45.84727,-3.74536l0.36639,4.48506z" fill="#008aff"/></g><path d="M260.9583,165.19365c0,9.35432 -8.84238,16.9375 -19.75,16.9375c-10.90762,0 -19.75,-7.58318 -19.75,-16.9375c0,-9.35432 8.84238,-16.9375 19.75,-16.9375c10.90762,0 19.75,7.58318 19.75,16.9375z" fill="#000000" fill-rule="nonzero" stroke="none" stroke-width="0" stroke-linecap="butt" stroke-linejoin="miter"/><path d="M230.9583,167.69365c0,9.07818 8.25475,16.4375 18.4375,16.4375c10.18275,0 18.4375,-7.35932 18.4375,-16.4375c0,-9.07818 -8.25475,-16.4375 -18.4375,-16.4375c-10.18275,0 -18.4375,7.35932 -18.4375,16.4375z" fill="#000000" fill-rule="nonzero" stroke="none" stroke-width="0" stroke-linecap="butt" stroke-linejoin="miter"/><path d="M261.3333,176.94365c0,5.6264 -7.49923,10.1875 -16.75,10.1875c-9.25077,0 -16.75,-4.5611 -16.75,-10.1875c0,-5.6264 7.49923,-10.1875 16.75,-10.1875c9.25077,0 16.75,4.5611 16.75,10.1875z" fill="#000000" fill-rule="nonzero" stroke="none" stroke-width="0" stroke-linecap="butt" stroke-linejoin="miter"/></g></g></svg>