<svg version="1.1" xmlns="http://www.w3.org/2000/svg" xmlns:xlink="http://www.w3.org/1999/xlink" width="97.39169" height="59.10055" viewBox="0,0,97.39169,59.10055"><g transform="translate(-193.23543,-131.90268)"><g data-paper-data="{&quot;isPaintingLayer&quot;:true}" fill-rule="nonzero" stroke="none" stroke-width="1" stroke-linecap="butt" stroke-linejoin="miter" stroke-miterlimit="10" stroke-dasharray="" stroke-dashoffset="0" style="mix-blend-mode: normal"><g><path d="M290.3,170.5c-2.3,7.6 -13,13.1 -20.5,15c-12.8,3.3 -26.4,7.1 -39.4,4.8c-29.7,-5.2 -34.9,-17.5 -34.9,-17.5c-5.7,-8.4 0.3,-23 7.6,-28c14.2,-9.8 29.9,-15.4 46.7,-11.8c7.7,1.6 14.9,3.5 21.9,7.4c14.1,7.8 20.5,23.5 18.6,30.1z" fill="#f4c76e" opacity="0.9"/><path d="M289.2,172.4c-0.6,1.2 -1.4,2.4 -2.4,3.5c-0.4,-1.5 -0.8,-3 -1.3,-4.5c-1.2,-3.3 -3.6,-6 -5.7,-8.9c-3.8,-5.3 -6.6,-11.4 -11.8,-15.6c-2.3,-1.9 -4.7,-3.6 -7.1,-5.3c0.3,0.4 0.5,0.7 0.8,1c2.3,2.8 4.4,5.6 5.7,9c1.5,3.7 2.1,7.6 3.3,11.4c1.4,4.4 3.3,6.9 7.3,9.1c2.4,1.4 4.9,2.8 6.4,5.2c0.1,0.2 0.3,0.5 0.4,0.7c-0.8,0.7 -1.7,1.4 -2.6,2c-0.4,-0.7 -0.9,-1.4 -1.4,-2c-1.9,-2.1 -4.9,-3 -7.2,-4.6c-2.3,-1.5 -3.8,-3.5 -4.9,-6c-2.9,-6.8 -3,-14.3 -7.6,-20.3c-2.1,-2.8 -4.4,-5.5 -7.1,-7.7c3,4.1 5,9 5.6,12.9c1,6.8 0.2,13.7 1.6,20.4c1.1,5.1 3.3,9.6 6.6,13.4c-1.2,0.3 -2.3,0.6 -3.5,0.9c-5.6,-7.2 -7.2,-16.1 -7.4,-25.5c-0.1,-6.3 -0.5,-11.9 -3.8,-17.3c-1.7,-2.8 -4.3,-6.4 -7.5,-8.1c-0.1,0 -0.2,0 -0.3,0c4.4,6.9 3.6,15.1 2.9,23.2c-0.4,5.7 -1,11.9 0.3,17.5c1,4.5 3.7,8.3 5.3,12.6c-1,0.2 -2.1,0.4 -3.2,0.6c-1.4,-3.8 -3.8,-7.2 -4.9,-11.1c-1.4,-5.1 -1.2,-10.6 -0.9,-15.8c0.4,-8.3 2.7,-17.9 -2.1,-25.2c-2.3,2.8 -2.9,7 -3.1,10.6c-0.4,5.7 0.1,11.4 0.5,17c0.6,8.7 0.1,18.8 -5.5,25.5c-1.3,-0.1 -2.7,-0.3 -4,-0.5c8.2,-7.3 6.5,-20.7 5.9,-30.8c-0.3,-6.1 -1.1,-15.3 2.1,-21.5c-1.6,1.6 -2.8,3.6 -3.7,5.3c-2.7,4.9 -4.5,10.4 -6.2,15.8c-1.5,4.8 -3,9.6 -5.3,14.1c-2.5,4.7 -6.7,8.3 -9.8,12.5c-1.1,-0.4 -2.1,-0.8 -3.1,-1.2c3.3,-4.7 7.9,-8.6 10.5,-13.9c2.6,-5.2 4,-10.7 5.8,-16.2c1.3,-3.9 3.3,-10.1 6.3,-14.9c-2.9,1.9 -6,3.6 -8.7,5.8c-5,4.2 -9.9,8.9 -14.2,13.9c-4,4.7 -8.9,9.7 -9.6,16.1c-0.1,1 -0.2,2 -0.2,3c-1.4,-1.1 -2.4,-2.1 -3.1,-3c0.6,-4.8 2.7,-8.7 5.9,-12.7c5.2,-6.3 10.5,-12 16.5,-17.5c3.9,-3.6 9,-6.1 13.2,-9.4c-0.9,0.3 -1.9,0.6 -2.8,1c-3.1,1.4 -5.9,3.9 -8.9,5.6c-2.9,1.7 -5.9,3.1 -8.9,4.7c-5.4,2.8 -12.7,4.7 -16.5,9.8c-0.5,0.7 -1.5,2.1 -2.3,3.7c0.5,-3.1 1.7,-6.2 3.3,-8.9c3.2,-2.4 7,-4 10.9,-5.9c4,-2 8,-4 11.8,-6.2c3.6,-2.1 6.9,-5.1 10.9,-6.5c1.5,-0.4 3,-0.8 4.5,-1.1c4.9,-0.4 9.8,-0.2 14.8,0.9c2.3,0.5 4.5,1 6.7,1.6c0.2,0.1 0.3,0.1 0.4,0.2c4.5,2.5 8.7,5.5 12.7,8.7c5.5,4.3 8.5,10.1 12.4,15.7c2.3,3.3 5.2,6.3 6.7,10.1c0.4,0.9 0.7,1.9 0.6,3.1z" fill="#fefefe" opacity="0.4"/><path d="M287.5,157.1c0.1,1.4 0,2.7 -0.5,3.8c-2.5,5.9 -15.6,17.7 -37.2,19.5c-25.5,2.1 -43.1,-5.1 -47.3,-9.3c-3.9,-3.9 -6.2,-11.8 -6,-18.5c1.8,-3.3 4.1,-6.1 6.6,-7.8c14.2,-9.8 29.9,-15.4 46.7,-11.8c7.7,1.6 14.9,3.5 21.9,7.4c7.5,4.2 12.8,10.6 15.8,16.7z" fill="#efc25e" opacity="0.7"/></g><path d="M215.7,160.1c-0.2,-3.8 0.3,-8.1 3.7,-8.6c3.4,-0.5 5.2,4.2 6.1,8.1c-1.4,-0.3 -3.3,-0.4 -5.3,-0.2c-1.7,0.1 -3.2,0.4 -4.5,0.7z" fill="#000000"/><path d="M220.7,159.4c-0.8,0.1 -1.6,-0.5 -2,-1.4c0.7,0 1.3,-0.6 1.3,-1.3c0,-0.7 -0.6,-1.3 -1.3,-1.3h-0.1c0.3,-0.6 0.7,-1.1 1.3,-1.2c1.1,-0.2 2.1,0.9 2.3,2.3c0.2,1.5 -0.4,2.8 -1.5,2.9z" fill="#ff0000"/><path d="M216.1,143.9c2.4,-0.1 4.6,-1.1 7,-1.3c1.1,-0.1 1.1,1.6 0,1.7c-2.4,0.2 -4.6,1.2 -7,1.3c-1.1,0.1 -1.1,-1.6 0,-1.7z" fill="#323a3d"/><path d="M257.8,158.5c0.1,-4.6 1.3,-9.4 5,-9c2.9,0.3 4.4,4.8 4.9,8.7c-1.4,-0.3 -3.6,-0.5 -5.9,-0.3c-1.5,0.1 -2.8,0.3 -4,0.6z" fill="#000000"/><path d="M264.3,155.3c0.1,1.4 -0.7,2.6 -1.7,2.7c-0.7,0 -1.3,-0.5 -1.7,-1.3c0.6,-0.2 1,-0.7 1,-1.3c0,-0.7 -0.5,-1.2 -1.1,-1.3c0.3,-0.9 0.9,-1.5 1.6,-1.5c1.1,-0.1 2,1.1 1.9,2.7z" fill="#ff0000"/><path d="M259.1,141.9c2.4,0.4 4.8,0.5 7.2,1c1,0.2 0.6,1.8 -0.5,1.6c-2.4,-0.5 -4.8,-0.6 -7.2,-1c-1.1,-0.2 -0.6,-1.8 0.5,-1.6z" fill="#323a3d"/><path d="M230.1,168.8c4.6,1.3 9.2,1.5 13.9,1.1c4.1,-0.3 8.1,-0.7 11.7,-2.7c1,-0.5 1.9,1 0.9,1.5c-3.6,2 -7.6,2.5 -11.6,2.8c-5.2,0.5 -10.3,0.4 -15.3,-1.1c-1.1,-0.3 -0.6,-1.9 0.4,-1.6z" fill="#323a3d"/></g></g></svg>