<svg version="1.1" xmlns="http://www.w3.org/2000/svg" xmlns:xlink="http://www.w3.org/1999/xlink" width="73.84068" height="121.91145" viewBox="0,0,73.84068,121.91145"><g transform="translate(-203.61522,-112.17708)"><g data-paper-data="{&quot;isPaintingLayer&quot;:true}" fill-rule="nonzero" stroke="none" stroke-width="1" stroke-linecap="butt" stroke-linejoin="miter" stroke-miterlimit="10" stroke-dasharray="" stroke-dashoffset="0" style="mix-blend-mode: normal"><g fill="#00a0b4"><path d="M240.2414,225.2491c-0.5819,5.7616 -2.3923,7.6822 -5.9483,8.5145c-1.8103,0.4481 -3.556,0.5121 -5.1724,-0.3201c-3.4267,-1.7926 -4.1379,-6.786 -5.8836,-10.051c-3.4914,-0.9603 -3.0388,2.6888 -8.0173,2.6888c-8.6638,0 -8.5991,-4.5453 -10.2155,-17.5411c-1.6164,-12.9958 34.0086,-8.9626 34.0086,-8.9626c0,0 1.8104,19.9738 1.2285,25.6715z"/><path d="M246.1897,222.4322c-1.2285,-3.2649 0.2586,-19.2056 0.2586,-19.2056l25.6681,2.8809c0,0 0.9052,8.3864 1.0345,11.0112c0.3232,11.9075 -3.5561,13.5079 -6.2069,13.4439c-3.6854,-0.128 -9.569,-7.5542 -10.7974,-10.179c-1.4871,-3.2649 -7.6294,-1.1523 -9.9569,2.0486z"/></g><g><path d="M227.31035,172.04954v-21.19019h27.99569v21.19019z" fill="#006482"/><path d="M247.61207,151.43552c0,0 0.19397,3.20093 -0.51724,4.67336c-0.71121,1.47243 -2.26293,1.40841 -4.13793,0.70421c-1.875,-0.70421 -1.16379,-4.60934 -1.16379,-4.60934z" fill="#ffffff"/><path d="M252.84914,171.98552c-0.90517,4.86542 -6.65948,8.70654 -14.87069,7.23411c-6.46552,-1.15233 -11.37931,-3.64907 -10.47414,-8.32243c1.03448,-5.1215 7.43534,-7.93832 14.87069,-6.78598c8.0819,1.15233 12.09052,1.79253 10.47414,7.8743z" fill="#000000"/><path d="M276.44828,206.93972c-0.19396,4.60934 0.06465,11.33131 -2.52155,15.36449c-2.58621,4.03318 -7.82328,3.32897 -10.73276,0c-2.39224,-2.68878 -3.42672,-11.58738 -10.60345,-11.01121c-7.17673,0.57617 -0.90517,14.98038 -9.375,18.30935c-4.13793,1.60047 -10.21552,-1.28037 -12.73707,-4.73738c-1.35776,-1.85654 0,-8.32243 -5.17242,-8.8986c-5.17242,-0.57617 -6.85345,4.48131 -10.47414,5.1215c-7.88793,1.40841 -10.28017,-13.37991 -10.60344,-21.31823c-0.38793,-8.45047 -0.96983,-16.4528 -0.32328,-24.83925c1.09914,-14.78832 -0.32327,-30.85701 6.07759,-44.81308c5.81896,-12.6757 23.14655,-20.16589 37.24138,-17.34906c14.61207,2.94486 22.04742,11.58738 26.44397,25.60747c5.04311,16.00467 2.06896,31.88131 3.62069,48.2701c0.58189,6.59393 -0.51724,13.63598 -0.84052,20.29393zM241.21121,153.1c-6.72414,-0.38411 -10.73275,3.7771 -10.15086,8.77056c0.5819,4.99346 4.65517,7.42617 9.50431,7.42617c4.84914,0 10.02155,-1.66449 10.21552,-7.49019c0.19396,-5.8257 -3.23276,-8.25841 -9.56896,-8.70654z" fill="#aadcdc"/><path d="M216.7069,131.65374c-3.36207,-2.11262 4.4612,-11.33131 7.69396,-9.34673c2.78017,1.7285 -4.3319,11.45935 -7.69396,9.34673z" fill="#78c8c8"/><path d="M217.93535,158.47757c-0.51724,-0.38411 -0.77586,-0.96028 -0.71121,-1.53645c-0.12931,-0.51215 0.06465,-1.08831 0.51724,-1.40841c0.64655,0.19206 0.84052,0.38411 0.90517,1.08832c0.06465,0.70421 0.12931,1.47243 -0.7112,1.85654z" fill="#000000"/><path d="M262.87069,157.45327c-0.71121,-0.70421 -0.71121,-1.85654 0,-2.56074v0c0.32328,-0.06402 0.51724,0.12803 0.64655,0.38411c0.32328,0.44813 0.38793,1.0243 0.19396,1.53645z" fill="#000000"/><path d="M269.14224,202.45841c4.00862,0.25608 5.04311,16.13271 1.22845,15.94066c-3.29742,-0.19206 -4.20259,-2.0486 -4.39655,-4.22523c-0.38793,-5.1215 -0.84052,-11.9715 3.1681,-11.71542z" fill="#78c8c8"/><path d="M259.05604,200.60187c4.00862,0.19206 5.04311,8.06636 1.22845,8.00234c-3.29742,-0.12804 -4.20259,-1.02429 -4.39656,-2.11262c-0.38793,-2.56075 -0.84052,-6.08178 3.1681,-5.88972z" fill="#78c8c8"/><path d="M272.24569,200.60187c-3.94396,0.3201 -3.68535,-10.30701 0.12931,-10.69112c3.29742,-0.3201 3.81466,10.37102 -0.12931,10.69112z" fill="#00a0b4"/><path d="M223.81897,212.7014c-3.94396,0.19206 -3.68534,-5.31355 0.12931,-5.50561c3.29742,-0.12804 3.81465,5.31355 -0.12931,5.50561z" fill="#006482"/><path d="M208.23707,191.83131c-2.84483,0.12804 -2.58621,-3.84112 0.12931,-3.96916c2.39224,-0.06402 2.71552,3.84112 -0.12931,3.96916z" fill="#78c8c8"/><path d="M252.13793,196.56869c-2.78017,0.12804 -2.58621,-3.84112 0.12931,-3.96916c2.39224,-0.12804 2.65086,3.84112 -0.12931,3.96916z" fill="#78c8c8"/><path d="M229.70259,186.58178c-2.78017,0.12804 -2.58621,-3.84112 0.12931,-3.96916c2.32758,-0.12804 2.65086,3.84112 -0.12931,3.96916z" fill="#00a0b4"/><path d="M213.47414,192.27944c6.2069,0.38411 7.82327,23.81496 1.875,23.49486c-5.10776,-0.25608 -6.59483,-2.94486 -6.85345,-6.20982c-0.5819,-7.5542 -1.22844,-17.66915 4.97845,-17.28504z" fill="#78c8c8"/></g><g data-paper-data="{&quot;index&quot;:null}"><path d="M220.8233,185.5l-11.1854,-0.5762c0.2587,-6.2738 2.263,-39.1154 5.5604,-43.4046l0.7112,-0.1281c0.3233,0.8323 -0.5819,4.1612 0.6465,4.2253c1.1638,-0.8323 1.0345,-3.201 2.0043,-4.2893c0.5173,1.2804 -1.2931,4.2252 0.9699,4.4813c0.5172,-1.1523 0.9051,-3.0729 1.9396,-3.9051c0.9699,1.7285 0.2586,35.3383 -0.6465,43.5967z" fill="#78c8c8"/><path d="M218.6897,167.3187c-2.7156,-0.128 -2.9742,-4.0972 -0.1294,-3.9692c2.8449,0.1281 2.4569,4.0972 0.1294,3.9692z" fill="#aadcdc"/><path d="M214.6164,160.5327c-1.4871,-0.064 -1.6164,-2.2406 -0.0647,-2.1766c1.5517,0.064 1.3578,2.1766 0.0647,2.1766z" fill="#aadcdc"/></g><g data-paper-data="{&quot;index&quot;:null}"><path d="M269.6681,178.9762l-10.6034,4.6093c0,-4.2892 0.0646,-39.0514 0.9698,-40.7159c1.2931,1.1524 0.9052,3.0729 1.9396,4.2253h0.5819c1.2931,-1.3444 0.0647,-3.7771 0.9052,-5.3776c2.1336,0.7682 1.3578,4.4173 2.7802,5.7617c1.2931,-0.7683 0.2586,-2.9449 1.2931,-3.393c2.1336,1.4724 2.3922,8.1304 2.6508,10.371c0.4526,3.9051 0.6466,7.8743 0.5819,11.8435c0,3.9051 -0.0646,8.8986 -1.0991,12.6757z" fill="#78c8c8"/><path d="M263.3966,163.1635c-3.75,-0.5761 -3.6207,-12.6116 0.3232,-12.0995c3.944,0.5122 2.9095,12.5477 -0.3232,12.0995z" fill="#aadcdc"/></g></g></g></svg>