<svg version="1.1" xmlns="http://www.w3.org/2000/svg" xmlns:xlink="http://www.w3.org/1999/xlink" width="50.01263" height="51.77818" viewBox="0,0,50.01263,51.77818"><defs><linearGradient x1="247.25826" y1="144.96343" x2="247.25826" y2="163.91154" gradientUnits="userSpaceOnUse" id="color-1"><stop offset="0" stop-color="#a90000"/><stop offset="1" stop-color="#de0000"/></linearGradient><linearGradient x1="215.25188" y1="139.00093" x2="264.16965" y2="139.00093" gradientUnits="userSpaceOnUse" id="color-2"><stop offset="0" stop-color="#ffffff"/><stop offset="1" stop-color="#00f3ff"/></linearGradient><linearGradient x1="235.48063" y1="131.71424" x2="250.38938" y2="131.71424" gradientUnits="userSpaceOnUse" id="color-3"><stop offset="0" stop-color="#ffffff"/><stop offset="1" stop-color="#00f3ff"/></linearGradient><radialGradient cx="242.51512" cy="128.64057" r="3.42907" gradientUnits="userSpaceOnUse" id="color-4"><stop offset="0" stop-color="#ffffff"/><stop offset="1" stop-color="#ffffff" stop-opacity="0"/></radialGradient><linearGradient x1="238.99392" y1="137.37553" x2="254.0278" y2="137.37553" gradientUnits="userSpaceOnUse" id="color-5"><stop offset="0" stop-color="#ffffff"/><stop offset="1" stop-color="#00f3ff"/></linearGradient><radialGradient cx="246.2454" cy="134.3647" r="3.42908" gradientUnits="userSpaceOnUse" id="color-6"><stop offset="0" stop-color="#ffffff"/><stop offset="1" stop-color="#ffffff" stop-opacity="0"/></radialGradient><linearGradient x1="241.5815" y1="142.96069" x2="255.61802" y2="142.96069" gradientUnits="userSpaceOnUse" id="color-7"><stop offset="0" stop-color="#ffffff"/><stop offset="1" stop-color="#00f3ff"/></linearGradient><radialGradient cx="248.65069" cy="140.99445" r="3.42907" gradientUnits="userSpaceOnUse" id="color-8"><stop offset="0" stop-color="#ffffff"/><stop offset="1" stop-color="#ffffff" stop-opacity="0"/></radialGradient></defs><g transform="translate(-214.75188,-125.77303)"><g data-paper-data="{&quot;isPaintingLayer&quot;:true}" fill-rule="nonzero" stroke-linejoin="miter" stroke-miterlimit="10" stroke-dasharray="" stroke-dashoffset="0" style="mix-blend-mode: normal"><path d="M240.08418,174.31737c-13.35442,0 -24.18033,-10.53243 -24.18033,-23.52484c0,-12.99241 10.8259,-23.52484 24.18033,-23.52484c13.35442,0 24.18033,10.53243 24.18033,23.52484c0,12.99241 -10.8259,23.52484 -24.18033,23.52484z" fill="#ffffff" stroke="#1af5ff" stroke-width="1" stroke-linecap="butt"/><path d="M226.62478,163.09629c0,0 -1.21936,-11.29883 2.39932,-16.06086c0.97283,-1.2802 3.2026,-2.03127 4.81309,-2.03127c2.85442,0 4.62914,2.5514 5.35085,5.73794c1.20013,5.29892 0.0279,12.35418 0.0279,12.35418c0,0 -1.35032,0.47481 -3.12679,0.72733c-0.9911,0.14088 -2.36742,0.12838 -3.10766,0.12838c-0.85676,0 -2.35951,-0.01645 -3.48414,-0.18215c-1.66895,-0.2459 -2.87256,-0.67356 -2.87256,-0.67356z" fill="#ffffff" stroke="#000000" stroke-width="1" stroke-linecap="butt"/><path d="M250.83886,163.72912c-1.12463,0.1657 -2.62738,0.18214 -3.48414,0.18214c-0.74024,0 -2.11657,0.0125 -3.10766,-0.12838c-1.77647,-0.25251 -3.12679,-0.72733 -3.12679,-0.72733c0,0 -1.17223,-7.05526 0.0279,-12.35418c0.7217,-3.18654 2.49642,-5.73794 5.35085,-5.73794c1.61049,0 3.84025,0.75106 4.81309,2.03127c3.61867,4.76202 2.39932,16.06086 2.39932,16.06086c0,0 -1.20361,0.42766 -2.87256,0.67357z" data-paper-data="{&quot;index&quot;:null}" fill="url(#color-1)" stroke="#000000" stroke-width="1" stroke-linecap="butt"/><path d="M238.17134,156.34146c0,1.65365 0.05237,3.50039 -0.3396,4.49078c-0.31482,0.79547 -1.02319,0.90833 -1.46783,0.90833c-0.55109,0 -1.26366,-0.28853 -1.59518,-1.45031c-0.26897,-0.94259 -0.21224,-2.61318 -0.21224,-3.9488c0,-1.47658 0.03411,-2.89621 0.35566,-3.87094c0.3278,-0.99367 0.94785,-1.52817 1.45175,-1.52817c0.41528,0 0.79786,0.41838 1.10306,1.12173c0.1424,0.32819 -0.69586,2.13511 -0.69586,2.13511c0,0 1.28131,0.1074 1.3375,0.72707c0.04091,0.45104 0.06273,0.92551 0.06273,1.41521z" fill="#000000" stroke="#e8c94c" stroke-width="1" stroke-linecap="butt"/><path d="M248.13413,166.13427c0,0 -0.91317,0.43142 -1.98138,0.8147c-0.42099,0.15105 -1.01874,0.32516 -1.3632,0.41625c-0.57176,0.15118 -1.4617,0.39015 -2.27327,0.52855c-1.01172,0.17253 -1.90166,0.22884 -1.90166,0.22884" fill="none" stroke="#000000" stroke-width="1" stroke-linecap="round"/><path d="M264.16965,147.00573c0,0.02651 -9.78073,4.61718 -12.14992,4.72092c-2.57469,0.11273 2.24505,-4.26194 2.24505,-4.26194c0,0 -7.39729,2.96469 -9.18286,2.96635c-2.82671,0.00266 1.52174,-3.3141 1.52174,-3.3141c0,0 -6.79038,3.11716 -9.1313,3.01911c-2.62816,-0.11008 3.15521,-3.89472 3.15521,-3.89472c0,0 -8.44112,3.26368 -9.98986,3.17736c-4.78345,-0.2666 3.61907,-3.70598 3.61907,-3.70598c0,0 -11.4295,3.56531 -14.06755,3.35876c-2.09929,-0.16438 4.80779,-4.36207 4.80779,-4.36207c0,0 -6.55979,2.04473 -8.44008,1.8669c-2.87985,-0.27236 -0.0951,-2.84841 -0.0951,-2.84841c0,0 5.1695,-18.14839 23.82075,-17.43435c18.68408,0.7153 23.88708,14.46306 23.88708,20.71218z" fill="url(#color-2)" stroke="#1af5ff" stroke-width="1" stroke-linecap="butt"/><path d="M240.72716,164.68827c0,0 -0.87683,-0.0489 -1.46385,-0.26838c-0.65773,-0.24592 -1.03947,-0.67633 -1.15953,-0.90323c-0.25614,-0.48409 0.12799,-1.00393 0.7224,-1.11254c0.502,-0.09171 1.21316,0.19316 1.21316,0.19316" fill="#ffffff" stroke="#ffffff" stroke-width="1" stroke-linecap="round"/><g stroke-width="1"><path d="M225.65661,175.27399c0,0 -0.56023,-2.19906 -0.56023,-3.02524c0,-0.57327 0.56023,-1.4566 0.56023,-1.4566c0,0 9.12329,-0.97235 13.78054,-0.95395c4.78832,0.01892 14.56707,1.06599 14.56707,1.06599c0,0 0.78432,1.35888 0.78432,2.01683c0,0.80581 -0.78432,2.46501 -0.78432,2.46501c0,0 -3.43833,1.16538 -7.29199,1.66518c-2.85893,0.37079 -12.19724,0.17662 -15.20149,-0.26424c-3.22425,-0.47314 -5.85413,-1.51298 -5.85413,-1.51298z" fill="#fbff00" stroke="#1af5ff" stroke-linecap="butt"/><path d="M225.33366,172.7405l2.46501,0.89637" fill="none" stroke="#000000" stroke-linecap="round"/><path d="M254.57764,172.51641l-3.24933,1.56865" fill="none" stroke="#000000" stroke-linecap="round"/></g><g><path d="M235.48063,130.52036c0,0 2.06821,-1.609 4.57117,-2.57862c2.01804,-0.78176 4.49032,-0.96146 5.06586,-0.98461c2.30979,-0.09292 4.98829,0.91862 5.2673,1.53508c0.13924,0.30764 -3.03961,1.7246 -5.60106,3.67668c-2.47862,1.88896 -4.31733,4.30842 -4.31733,4.30842" fill="url(#color-3)" stroke="#1af5ff" stroke-width="1" stroke-linecap="round"/><g stroke="none" stroke-width="0" stroke-linecap="butt"><path d="M245.89112,128.03962c-0.03463,0.58288 -1.57418,1.32444 -3.4387,1.65633c-1.86452,0.33189 -3.34794,0.12842 -3.31331,-0.45446c0.03463,-0.58288 1.57419,-1.32444 3.4387,-1.65633c1.86452,-0.33189 3.34794,-0.12843 3.31331,0.45445z" fill="url(#color-4)"/><path d="M245.29308,128.11549c-0.028,0.47126 -1.27274,1.07084 -2.78023,1.33917c-1.50749,0.26834 -2.70684,0.10383 -2.67884,-0.36744c0.028,-0.47126 1.27274,-1.07083 2.78023,-1.33916c1.50749,-0.26833 2.70684,-0.10383 2.67884,0.36743z" fill="#ffffff"/></g></g><g><path d="M238.99392,135.02314c0,0 2.31131,-1.2346 4.94254,-1.76527c2.12145,-0.42786 4.58836,-0.18529 5.15948,-0.11042c2.29204,0.3005 4.75996,1.75203 4.93029,2.4069c0.085,0.3268 -3.28823,1.18362 -6.14387,2.67257c-2.7633,1.44081 -4.98601,3.51305 -4.98601,3.51305" fill="url(#color-5)" stroke="#1af5ff" stroke-width="1" stroke-linecap="round"/><g stroke="none" stroke-width="0" stroke-linecap="butt"><path d="M249.67442,134.34553c-0.13306,0.56854 -1.77616,1.03802 -3.66996,1.0486c-1.8938,0.01057 -3.32114,-0.44172 -3.18808,-1.01027c0.13306,-0.56854 1.77616,-1.03802 3.66996,-1.04861c1.8938,-0.01057 3.32115,0.44173 3.18808,1.01028z" fill="url(#color-6)"/><path d="M249.07218,134.31877c-0.10758,0.45967 -1.43605,0.83924 -2.9672,0.8478c-1.53115,0.00856 -2.68519,-0.35714 -2.57761,-0.81682c0.10758,-0.45967 1.43605,-0.83925 2.9672,-0.84781c1.53115,-0.00856 2.68519,0.35715 2.57761,0.81683z" fill="#ffffff"/></g></g><g><path d="M241.5815,139.24973c0,0 2.5877,-0.41248 5.24803,-0.05517c2.14491,0.28809 4.39749,1.32265 4.91288,1.57986c2.06839,1.03224 3.9273,3.20986 3.87452,3.88447c-0.02633,0.33665 -3.49447,0.04538 -6.67973,0.5206c-3.08226,0.45986 -5.85966,1.693 -5.85966,1.693" fill="url(#color-7)" stroke="#1af5ff" stroke-width="1" stroke-linecap="round"/><g fill="url(#color-8)" stroke="none" stroke-width="0" stroke-linecap="butt"><path d="M251.89812,142.0957c-0.31137,0.49397 -2.01771,0.40136 -3.81122,-0.20684c-1.79351,-0.6082 -2.99501,-1.50167 -2.68365,-1.99564c0.31137,-0.49397 2.01771,-0.40136 3.81122,0.20684c1.79351,0.6082 2.99501,1.50167 2.68365,1.99563z"/></g></g></g></g></svg>