<svg version="1.1" xmlns="http://www.w3.org/2000/svg" xmlns:xlink="http://www.w3.org/1999/xlink" width="101.79309" height="106.95486" viewBox="0,0,101.79309,106.95486"><g transform="translate(-198.75119,-111.72554)"><g data-paper-data="{&quot;isPaintingLayer&quot;:true}" fill-rule="nonzero" stroke="none" stroke-width="1" stroke-linecap="butt" stroke-linejoin="miter" stroke-miterlimit="10" stroke-dasharray="" stroke-dashoffset="0" style="mix-blend-mode: normal"><path d="M296.94976,187.77409c-0.21557,5.44126 -0.49504,10.87868 -0.90605,16.30514c-0.2228,2.94157 0.71108,15.76874 -6.29225,14.51523c-7.00333,-1.25351 -5.44602,-11.39386 -5.00115,-12.93767c1.5565,-5.80001 2.26941,-11.7301 2.13176,-17.72462c-0.12165,-9.67482 -1.09119,-22.04438 5.67122,-29.75165l1.31124,0.03313c7.6585,7.35342 3.47121,20.12164 3.08523,29.56044zM290.18328,205.08148c3.51853,-0.45656 2.9133,-6.35512 3.09154,-8.70838c0.27733,-3.66151 0.61549,-7.25223 0.89282,-10.91374c0.45909,-6.93513 2.13586,-13.4491 0.15709,-20.30613c-0.51261,-0.1702 -1.10092,-0.21476 -1.64322,0.00691l-1.27074,1.15332c-0.79532,2.70165 -0.56495,6.59818 -0.78284,9.47494c-0.27235,3.5957 -0.80104,7.1068 -1.33463,10.68271c-0.449,3.31957 -0.70156,6.65402 -0.69286,10.00826c0.00684,1.64421 -0.47397,7.13157 0.68326,8.33742z" data-paper-data="{&quot;index&quot;:null}" fill="#c8bea0"/><path d="M238.46397,178.32959c-3.83996,4.24495 -8.39112,7.6893 -12.09961,12.10356c-3.82108,4.50168 -8.28623,8.87114 -11.73179,13.62402c-1.10298,1.4874 -8.977,17.1718 -14.18801,10.11304c-5.21015,-7.05944 3.05289,-11.30855 5.35679,-12.64563c2.13459,-1.20561 3.68172,-3.4002 5.29197,-5.28286c3.11953,-3.77647 6.05088,-7.67821 8.89566,-11.6932c3.20838,-4.47641 6.82164,-8.54671 10.8987,-12.25388c3.61337,-3.25758 6.73919,-7.4908 11.94334,-6.83679c3.22958,5.43842 -0.68371,8.65749 -4.36703,12.87174zM224.02413,190.44424c2.63134,-3.12601 5.13122,-6.42133 7.76189,-9.54819c2.15497,-2.57564 6.27466,-5.41358 7.01611,-8.87818l-1.99391,-1.52111c-3.46622,0.0726 -6.89985,5.53809 -8.87369,7.88217c-2.26689,2.66392 -4.44788,5.44024 -6.81554,8.09149c-2.83049,3.10018 -5.66118,6.20188 -8.2051,9.44047c-1.34017,1.76387 -6.43908,7.52778 -5.3594,9.8497c3.18921,2.12903 14.2588,-12.69733 16.46964,-15.31635z" data-paper-data="{&quot;index&quot;:null}" fill="#dcd2b4"/><g data-paper-data="{&quot;index&quot;:null}" fill="#c8bea0"><path d="M291.01913,155.56684c1.50577,-0.83146 3.66425,-0.38696 4.85805,0.24641c2.09169,1.12522 1.73031,5.74091 -0.65291,7.54616c-1.32664,1.06323 -4.63989,0.17846 -5.23012,-0.10693c-1.34763,-0.7366 -2.16575,-2.17977 -2.13614,-3.72253c0.68397,-0.93673 1.65516,-3.13264 3.16112,-3.96312z"/><path d="M290.56315,153.25029c-0.29449,-0.47609 -0.58819,-0.95335 -0.83067,-1.50694c-0.47221,-1.04243 -0.88084,-2.09839 -1.3405,-3.07704c-0.71489,-1.597 -1.1727,-3.2446 -1.38601,-5.00658c-0.06335,-0.32182 -0.13925,-0.70743 0.1308,-1.02863c1.23572,-0.51026 1.87796,-0.30238 2.42767,0.79206c0.65154,1.27518 1.04601,2.60095 1.3247,4.01679c0.25178,1.62089 0.55557,3.16428 0.80853,4.78595c0.11395,0.57889 0.16313,1.17053 0.28963,1.8132c-0.59145,0.05017 -1.18148,-0.23423 -1.42415,-0.78881z"/><path d="M293.7264,144.20814c0.38216,0.92664 0.71328,1.93059 0.91607,2.96082c0.25276,1.6207 0.36326,3.20213 0.55146,4.83655c0.02487,0.46291 0.03601,0.86126 0.04814,1.25941c-0.01396,0.2708 -0.0919,0.55316 -0.16983,0.83553c-0.19329,0.03805 -0.46291,0.02487 -0.66797,-0.00203c-0.20604,-0.02671 -0.41188,-0.05244 -0.56572,-0.15567c-1.03487,-2.2026 -1.95249,-8.90456 -1.44581,-10.74201c0.66797,0.00203 1.15496,0.44125 1.33367,1.0074z"/><path d="M287.50342,157.72852c-1.18526,-3.30838 -2.4863,-6.5267 -3.41449,-9.88568c-0.07609,-0.38658 -0.15199,-0.77218 -0.08681,-1.11931c0.09049,-0.21859 0.32225,-0.39772 0.46397,-0.69265c0.89888,0.49166 1.53908,1.3675 1.80545,2.3842c0.41977,1.45431 0.9043,2.89587 1.45261,4.32488c0.53575,1.36523 0.89175,2.8321 1.10548,4.25969l-1.00579,1.00008c-0.17913,-0.23177 -0.25566,-0.28397 -0.32041,-0.27123z"/><path d="M284.59177,155.82909c1.30492,1.8814 2.31449,3.95547 2.82248,6.19452c0.06335,0.32182 -0.01459,0.60419 -0.09252,0.88656c-0.35987,-0.12994 -0.71955,-0.25891 -1.02741,-0.46636c-0.70539,-0.52872 -1.29421,-1.14868 -1.83259,-1.84379c-0.40906,-0.72158 -0.93391,-1.35311 -1.34297,-2.07469c-0.38376,-0.59305 -0.65154,-1.27518 -0.97152,-1.88078c-0.24248,-0.55359 -0.24064,-1.22254 0.13382,-1.69679c0.87444,-0.30563 1.87635,0.03121 2.31071,0.88133z"/></g><g data-paper-data="{&quot;index&quot;:null}"><path d="M248.56544,155.94696c0.95394,0.58612 1.84472,1.30611 2.57928,2.14614c0.08034,0.10347 0.16069,0.20694 0.18969,0.35027c0.50958,1.51228 0.02484,3.13322 -1.13725,4.20142c-0.7136,0.47181 -1.4669,0.89087 -2.26067,1.25781c-0.29893,0.14982 -0.62749,0.15552 -0.94298,0.06879c-0.88507,-0.39144 -1.71881,-0.82275 -2.07409,-1.70913c-0.47628,-1.04058 -0.50968,-2.25919 -0.13418,-3.38003c0.40371,-0.97689 1.01883,-1.7875 1.80751,-2.4822c0.73673,-0.65562 1.36343,-0.81053 1.97269,-0.45308z" fill="#aaa082"/><path d="M263.52862,153.62123c-0.9958,0.85678 -1.97916,1.62035 -3.05592,2.37287c-1.16796,0.74105 -2.54795,1.31502 -3.76804,2.09655c-0.90889,0.53989 -1.97908,0.87204 -3.05375,0.87723c-0.32776,0.00509 -0.69618,-0.04056 -0.83373,-0.43131c0.01804,-0.51157 0.25976,-0.94868 0.67443,-1.27066c0.69608,-0.70635 1.52463,-1.3497 2.43431,-1.8902c1.93273,-1.25132 3.95825,-2.49239 5.98297,-3.73284c0.46601,-0.36185 1.04137,-0.47689 1.5928,-0.40751l1.08046,1.07027c-0.29446,0.47679 -0.66786,0.8503 -1.05353,1.31561z" fill="#c8bea0"/><path d="M261.72206,149.04942c-0.77133,0.93064 -1.67453,1.79907 -2.65868,2.56325c-1.60576,1.24685 -3.4409,2.09067 -5.11535,3.14144c-0.20694,0.16069 -0.45374,0.27003 -0.68969,0.28738c-0.57597,0.11425 -1.11006,0.28082 -1.61654,0.59053c-0.1556,0.12082 -0.33941,0.09769 -0.48275,0.1267c-0.25838,-0.54635 -0.13687,-1.13827 0.32914,-1.50012c0.63247,-0.57466 1.27721,-1.24115 1.95095,-1.7643c1.51315,-1.2585 3.05513,-2.37226 4.72958,-3.42303c0.76494,-0.51167 1.5305,-1.02256 2.29545,-1.53423c0.56948,-0.44219 1.28878,-0.58545 2.0017,-0.30974c0.01078,0.65631 -0.26633,1.36905 -0.74381,1.8221z" fill="#c8bea0"/><path d="M256.47823,149.13939c-0.71343,0.4704 -1.43851,1.03342 -2.11146,1.55595c-1.13975,0.885 -2.27871,1.76938 -3.41846,2.65438c-0.56948,0.44219 -1.28878,0.58545 -1.96043,0.36126c1.16934,-2.23608 7.09001,-6.58397 9.48246,-7.03127c-0.31171,0.98775 -1.03109,1.87932 -1.99212,2.45968z" fill="#c8bea0"/><path d="M258.1352,164.52941c-1.83452,0.84462 -3.82457,1.06175 -5.77413,1.33101c-0.99432,0.10865 -1.89087,-0.19158 -2.55753,-0.83492c-0.12082,-0.1556 -0.28151,-0.36254 -0.39006,-0.60996c0.10347,-0.08034 0.29893,-0.14982 0.49422,-0.2179c2.02482,-0.49355 4.07278,-1.17092 5.99912,-2.00327c0.35168,-0.18951 0.6903,-0.28659 1.06958,-0.33295c0.73078,-0.23446 1.50668,-0.09123 2.10448,0.35743c0.33803,1.39734 0.1593,1.70197 -0.94567,2.31055z" fill="#c8bea0"/></g><g><path d="M266.15863,143.52229c1.96743,2.04742 3.25684,5.27928 5.01874,7.3497c-0.54722,0.68874 -3.96613,2.35554 -4.70731,2.62828c-0.74075,0.27364 -1.41765,0.37187 -2.18629,0.58569c-0.50372,0.16202 -0.99808,0.03172 -1.46142,-0.18588c-1.59243,-0.77687 -2.75594,-2.18623 -3.2655,-3.90158c-0.30111,-0.79966 -0.12994,-1.67498 0.44517,-2.3039c0.99425,-0.96998 4.67915,-3.77255 6.15661,-4.17231z" fill="#c8bea0"/><path d="M259.42371,146.30037c-0.74431,0.41984 -1.67902,0.27747 -2.27649,-0.38402c-1.0298,-0.96637 -1.66659,-2.33221 -1.74474,-3.74226c-0.01185,-0.64545 0.15039,-1.22752 0.57442,-1.71429c0.69788,-0.8318 1.47901,-1.48506 2.40229,-1.98723c0.44703,-0.28124 3.64898,-2.56958 4.29443,-2.58143l2.7688,7.02501c-0.32921,0.22631 -3.3082,1.90426 -3.60548,2.04286c-0.80455,0.44682 -1.60868,0.89454 -2.41323,1.34136z" fill="#f0e6d2"/><path d="M256.71196,137.22523c-0.32517,0.07878 -0.6778,0.09865 -1.05742,0.05828c-1.24675,-1.5879 -1.2899,-3.23053 -0.50814,-4.96867c0.495,-0.95457 1.16095,-1.69867 2.02888,-2.31958c0.24192,-0.25733 2.79396,-2.3872 3.22942,-2.22943c0.14598,1.08935 1.56045,6.14189 1.64752,7.2587c-1.72741,0.9499 -3.53806,1.72125 -5.34027,2.20069z" fill="#f0e6d2"/><path d="M276.0976,156.46033c-1.22502,0.78739 -5.22956,2.43815 -6.52534,2.60756c-1.14874,0.17478 -2.36776,-0.26975 -3.19558,-1.11293c-0.09823,-0.67689 -0.07814,-1.41005 0.14391,-2.02001c0.06338,-0.17408 0.12675,-0.34817 0.24994,-0.55014c0.39656,-0.54568 4.58029,-3.36457 5.44019,-3.69266c0.34015,0.41957 3.30502,3.52015 3.88688,4.76818z" fill="#aaa082"/><path d="M298.73798,133.17777c5.17843,11.10715 -1.34356,22.10186 -12.35979,25.93706c-2.54694,0.89837 -5.28428,1.23454 -8.00956,1.13037c-2.86749,-0.25302 -7.30096,-5.41734 -9.03002,-7.57589c-4.02548,-5.06545 -5.41041,-6.94973 -7.76384,-13.08381c-1.91463,-5.03672 -3.90677,-12.56837 -1.09995,-17.56434c2.65217,-4.70763 9.22862,-8.13563 14.256,-9.61118c6.56424,-1.90411 10.17115,0.24727 14.10537,5.427c3.62153,4.81907 7.32185,9.9633 9.90179,15.34081z" fill="#dcd2b4"/><path d="M288.46433,153.65933c-2.95662,2.96837 -6.05754,2.67853 -8.77757,0.25931c-2.20489,-1.93671 -2.91563,-5.94369 -0.29575,-8.39426c1.53346,-1.36591 3.65993,-1.92371 5.70029,-1.42849c0.49479,0.13121 1.01704,0.32134 1.48039,0.53893c0.6064,0.36825 1.15299,0.76439 1.6353,1.33504c1.15995,1.55555 3.00801,4.74321 0.25734,7.68948z" fill="#ffffff"/><path d="M277.47493,128.84586c-1.99807,3.31808 -6.41868,2.99255 -9.1378,0.57289c-2.20489,-1.93671 -2.91563,-5.94369 -0.29666,-8.39384c1.41473,-1.31055 3.92618,-1.97502 5.70029,-1.42849c0.49527,0.12988 1.01795,0.32092 1.48129,0.53851c0.6055,0.36867 1.15209,0.76481 1.63487,1.33413c1.21929,1.52899 2.61649,4.05962 0.618,7.3768z" fill="#ffffff"/><path d="M273.15133,126.08968c-0.70882,0.18593 -1.56873,0.51402 -2.1303,-0.38046c0.1149,-0.99362 0.9389,-1.08871 1.59237,-1.39337c0.44347,-0.13504 0.93917,-0.00425 1.2195,0.4432c0.04329,0.55907 -0.23454,1.0494 -0.68157,1.33063z" fill="#dcd2b4"/><path d="M282.40614,149.97519c0.54722,-0.68874 1.3114,-0.75595 1.93385,-0.97332c0.02747,0.05891 0.08638,0.03145 0.08638,0.03145c0.38052,0.03995 0.72067,0.45952 0.62181,0.8675c-0.36421,0.45888 -0.90341,0.85481 -1.52586,1.07219c-0.26493,0.0518 -0.35263,0.01987 -1.07644,-0.29254z" fill="#dcd2b4"/><path d="M273.8329,124.75904c0.04329,0.55907 -0.23454,1.0494 -0.68157,1.33063c-0.76864,0.21382 -1.54084,0.57384 -2.1303,-0.38046c0.1149,-0.99362 0.9389,-1.08871 1.59237,-1.39337c0.44347,-0.13504 0.96706,0.05557 1.2195,0.4432z" fill="#000000"/><path d="M282.44588,150.68046l-0.00738,-0.79207c0.54589,-0.68923 1.3114,-0.75595 1.93252,-0.97381c0.44034,0.01206 0.75302,0.37271 0.68163,0.83961c0,0 0.02747,0.05891 -0.03235,0.0868c-0.39614,0.54659 -0.93534,0.94251 -1.52544,1.07309c-0.23746,0.11071 -0.32517,0.07878 -1.04897,-0.23363z" fill="#000000"/><path d="M271.89229,146.20033c-0.3207,-0.06784 -1.71493,0.51046 -1.63083,-1.48166c0.08451,-1.99122 1.77155,-2.5615 1.06783,-3.60707c-0.70463,-1.04515 -3.10182,-0.28941 -3.87721,-1.95254c-0.77539,-1.66313 1.52607,-2.15797 2.56006,-2.42269c1.53728,-0.42764 3.09799,-0.64885 4.60781,-1.13541c1.47747,-0.39976 3.03775,-0.62187 4.56297,-0.60917c0.88291,-0.12256 1.74978,0.34051 2.07877,1.2c0.91335,3.04529 -6.25132,8.62653 -9.3694,10.00853z" fill="#c8bea0"/></g></g></g></svg>