<svg version="1.1" xmlns="http://www.w3.org/2000/svg" xmlns:xlink="http://www.w3.org/1999/xlink" width="276.97898" height="290.61151" viewBox="0,0,276.97898,290.61151"><g transform="translate(-106.42102,-109.63005)"><g data-paper-data="{&quot;isPaintingLayer&quot;:true}" stroke-width="3" stroke-miterlimit="10" stroke-dasharray="" stroke-dashoffset="0" style="mix-blend-mode: normal"><g fill-rule="evenodd"><path d="M200.56699,315.24219c2.33226,1.16613 7.2883,3.78992 0.29153,13.70201c-6.99677,9.9121 -27.11249,11.95282 -29.44475,11.95282c-9.0375,0.29153 -20.11572,0.29153 -32.36007,-3.78992c-35.56692,-11.66129 -35.85846,-49.852 -24.48871,-55.97418c11.07823,-6.12218 16.03427,17.49193 32.06854,31.77701c6.99677,6.41371 15.45121,8.74597 22.44798,10.20363c9.91209,1.74919 28.86168,-9.32903 31.48547,-7.87137z" fill="#ffffff" stroke="#001026" stroke-linecap="round" stroke-linejoin="round"/><path d="M128.26701,291.62808c4.66451,7.87137 13.70201,18.94959 13.70201,18.94959c0,0 -10.78669,-2.62379 -16.90887,2.33225c-4.95605,3.78992 -3.78992,10.20363 -3.20685,12.24436c-3.78992,-3.78992 -8.45444,-9.0375 -11.36975,-19.24113c-2.91532,-10.20362 0,-22.44798 5.83064,-24.19718c5.83065,-1.16613 7.28831,3.20686 11.95282,9.9121z" fill="#ff0000" stroke="none" stroke-linecap="butt" stroke-linejoin="miter"/></g><path d="M215.1436,345.56154c-5.24758,3.49838 -23.32257,16.32581 -46.35362,23.61411l-1.16612,0.29153c-1.16613,0.29153 -1.7492,1.74919 -1.16613,2.91532c4.95604,6.99677 13.99354,20.99032 -2.04073,25.94637c-15.4512,4.95605 -44.31289,-36.14999 -32.06854,-46.93668c5.53911,-4.08145 10.49515,-2.04073 13.11894,-0.87459c1.45766,0.58306 2.91532,0.58306 4.37299,0.29153c3.49839,-1.16613 9.9121,-3.49839 14.86814,-6.12218c12.53589,-6.41371 15.4512,-9.03749 21.28185,-13.41048c5.83065,-4.37299 19.24113,-15.15967 30.02782,-5.83065c9.32903,7.87137 4.08145,16.61734 -0.87459,20.11572z" fill="#ffffff" fill-rule="evenodd" stroke="#001026" stroke-linecap="round" stroke-linejoin="round"/><path d="M261.49721,284.92284c1.45766,1.16613 19.24113,22.15645 25.07177,16.90887c6.99677,-6.12218 16.61733,-18.075 27.11249,-8.45443c10.49516,9.62056 -9.32903,25.94636 -17.78346,30.31935c-20.11572,9.0375 -36.44153,-8.1629 -39.93991,-12.82741c-3.49839,-4.66451 -9.62056,-12.53589 -9.62056,-20.11572c0.29153,-8.1629 10.20362,-10.20363 15.15967,-5.83065z" fill="#ffffff" fill-rule="evenodd" stroke="#001026" stroke-linecap="round" stroke-linejoin="round"/><g fill-rule="evenodd"><path d="M261.78875,352.84984c6.12218,5.53911 19.53265,16.90887 19.53265,16.90887c0,0 41.68911,-7.2883 41.68911,13.70201c0,12.53589 -20.99032,15.45121 -49.26894,12.82742c-1.74919,-0.29153 -3.49839,-0.87459 -4.95605,-2.04073c-6.41371,-5.53911 -24.78023,-21.86491 -36.44152,-33.23467c-17.2004,-16.90886 -31.48548,-27.98709 -31.48548,-27.98709c-24.78024,-24.19717 -4.66452,-34.4008 3.20685,-48.39434c7.28831,-11.95282 10.49516,-9.62056 27.98709,-6.12217c9.91209,1.45766 15.74273,2.33226 22.15644,2.04073c9.62056,-0.29153 7.87137,13.70201 5.24758,20.99031c0,0 -4.08145,10.7867 -7.87136,16.32581c-4.66451,6.70524 -8.1629,11.07822 -11.66129,13.70201z" fill="#ffffff" stroke="#001026" stroke-linecap="round" stroke-linejoin="round"/><path d="M237.30004,331.27646c0,0 -4.37298,-3.49839 -9.0375,-7.87137c-5.83065,-5.24758 -11.66129,-9.62056 -5.83064,-18.65806c5.24758,-6.99677 10.20362,-16.32581 23.32258,-7.87137c12.53589,7.87137 6.99677,15.15967 6.99677,15.15967c-6.41371,13.11895 -15.45121,19.24113 -15.45121,19.24113z" fill="#ff0000" stroke="none" stroke-linecap="butt" stroke-linejoin="miter"/></g><path d="M193.27868,307.37082c6.41371,8.1629 16.32581,18.36653 3.78992,26.82096c-17.2004,9.62056 -31.48548,-19.53266 -34.4008,-29.73629c-2.62379,-9.0375 4.95604,-14.86814 11.36975,-19.82418c12.53589,-9.0375 23.03105,-17.2004 34.69233,-12.82742c14.57661,5.24758 4.08145,16.90887 -3.20685,22.15645c-4.37298,3.20686 -8.74596,6.70524 -11.95282,8.74597c-0.87459,1.45766 -1.16613,3.20686 -0.29153,4.66451z" fill="#ffffff" fill-rule="evenodd" stroke="#001026" stroke-linecap="round" stroke-linejoin="round"/><path d="M285.11132,110.87813c0.87459,-0.58307 2.33226,-0.29153 2.62379,0.87459l7.57984,31.19395c0,0 18.65806,13.70201 24.19717,23.32258c9.32903,16.03427 9.62056,29.15322 9.62056,29.15322c0,0 20.69879,6.12217 24.19717,22.73951c3.49838,16.61733 -9.32903,48.10281 -64.13708,58.8895c-54.80805,10.78669 -98.82941,-4.08145 -119.52819,-37.31612c-20.69878,-33.23467 11.95282,-72.88304 10.20362,-70.55079l-6.12217,-52.18426c-0.29153,-1.16613 1.16612,-2.04072 2.33226,-1.45766l35.2754,23.03105c0,0 13.11894,-4.95605 26.82096,-5.53912c8.1629,-0.58307 15.15968,0 21.86492,1.16613z" fill="#ffffff" fill-rule="evenodd" stroke="#001026" stroke-linecap="butt" stroke-linejoin="miter"/><path d="M328.25809,196.58859c0,0 20.11572,5.24757 23.6141,21.86491c3.49838,16.61733 -10.49516,46.64515 -64.72014,57.14031c-70.55079,14.57661 -104.07699,-27.40403 -84.54433,-58.30644c19.53266,-31.19394 53.05885,-4.66452 77.54756,-6.41371c20.99032,-1.45766 23.32258,-19.82418 48.10282,-14.28507z" fill="#ff0000" fill-rule="evenodd" stroke="none" stroke-linecap="butt" stroke-linejoin="miter"/><path d="M381.90001,199.79544c-13.70202,11.07823 -34.69233,11.36976 -34.69233,11.36976" fill="none" fill-rule="evenodd" stroke="#001026" stroke-linecap="round" stroke-linejoin="round"/><path d="M378.11009,232.44705c-18.36653,1.45766 -29.73628,-4.08145 -29.73628,-4.08145" fill="none" fill-rule="evenodd" stroke="#001026" stroke-linecap="round" stroke-linejoin="round"/><path d="M278.98915,203.29383c6.12218,0 12.53588,0.58306 12.82741,2.62379c0.29153,4.08145 -4.08145,12.24435 -8.74596,12.53588c-5.24758,0.58307 -17.49193,-6.70524 -17.49193,-11.36975c-0.29153,-3.49839 7.57984,-3.78991 13.41048,-3.78991z" fill="#ff0000" fill-rule="evenodd" stroke="#001026" stroke-linecap="round" stroke-linejoin="round"/><path d="M147.79966,198.92085c0,0 25.07177,8.1629 35.2754,17.2004" fill="none" fill-rule="evenodd" stroke="#001026" stroke-linecap="round" stroke-linejoin="round"/><path d="M183.94965,226.32487c-12.53589,4.95604 -34.10926,1.74919 -34.10926,1.74919" fill="none" fill-rule="evenodd" stroke="#001026" stroke-linecap="round" stroke-linejoin="round"/><g fill-rule="evenodd"><path d="M313.38994,169.18457c8.45443,13.11895 8.74596,27.98709 0.58306,33.23467c-8.1629,5.24758 -21.57338,-0.87459 -30.31934,-13.99355c-8.45443,-13.11895 -8.74596,-27.98708 -0.58306,-33.23466c8.1629,-5.53911 21.86491,0.87459 30.31935,13.99354z" fill="#ffffff" stroke="#001026" stroke-linecap="round" stroke-linejoin="round"/><path d="M300.74264,183.10045c0,3.20685 -2.33226,5.83064 -5.24758,5.83064c-2.91532,0 -5.24758,-2.62378 -5.24758,-5.83064c0,-3.20685 2.33226,-5.83065 5.24758,-5.83065c2.91532,0 5.24758,2.62379 5.24758,5.83065" fill="#001026" stroke="none" stroke-linecap="butt" stroke-linejoin="miter"/></g><g fill-rule="evenodd"><path d="M241.08996,177.34747c8.74597,12.82742 8.1629,28.57016 0.29153,34.10926c-9.62056,5.53911 -22.44798,1.45766 -31.19395,-11.36975c-9.0375,-12.82742 -9.62056,-29.44475 -0.58306,-35.85846c9.0375,-6.70524 22.73951,0.29154 31.48547,13.11895z" fill="#ffffff" stroke="#001026" stroke-linecap="round" stroke-linejoin="round"/><path d="M227.85959,191.55488c0,3.20685 -2.33226,5.83065 -5.24758,5.83065c-2.91532,0 -5.24758,-2.62379 -5.24758,-5.83065c0,-3.20685 2.33226,-5.83064 5.24758,-5.83064c2.91532,0.29153 5.24758,2.62379 5.24758,5.83064" fill="#001026" stroke="none" stroke-linecap="butt" stroke-linejoin="miter"/></g><path d="M241.19602,251.28726c0,0 26.97078,-17.55945 39.17105,-17.55945c12.76279,0 35.79426,17.55945 35.79426,17.55945" fill="none" fill-rule="nonzero" stroke="#001026" stroke-linecap="round" stroke-linejoin="miter"/><path d="M246.5989,170.91904l-45.92469,-18.91018" fill="none" fill-rule="nonzero" stroke="#001026" stroke-linecap="round" stroke-linejoin="miter"/><path d="M253.35253,166.19149l45.92469,-18.91018" data-paper-data="{&quot;index&quot;:null}" fill="none" fill-rule="nonzero" stroke="#001026" stroke-linecap="round" stroke-linejoin="miter"/></g></g></svg>