<svg version="1.1" xmlns="http://www.w3.org/2000/svg" xmlns:xlink="http://www.w3.org/1999/xlink" width="47.25698" height="58.65916" viewBox="0,0,47.25698,58.65916"><g transform="translate(-209.00026,-128.74943)"><g data-paper-data="{&quot;isPaintingLayer&quot;:true}" fill-rule="nonzero" stroke-linecap="butt" stroke-linejoin="miter" stroke-miterlimit="10" stroke-dasharray="" stroke-dashoffset="0" style="mix-blend-mode: normal"><path d="M232.657,140.562c-0.069,0.048 -0.652,-0.479 -0.693,-0.414c0.649,0.283 1.077,0.389 1.645,0.766c-0.011,0.056 0.621,0.144 0.619,0.2c1.375,0.606 2.926,0.103 4.392,0.398c1.378,0.277 2.919,-0.133 4.317,-0.071c2.514,0.111 6.348,0.855 7.136,3.333c0.263,0.824 0.444,1.637 0.725,2.689c0.404,1.517 -0.198,1.458 -0.346,2.961c-0.029,0.295 -0.078,1.563 -0.195,1.843c-0.181,0.431 0.031,0.697 -0.288,1.02c-0.303,0.307 -0.134,1.037 -0.076,1.486c0.063,0.49 0.097,1.37 0.274,1.85c0.188,0.512 0.314,1.13 0.374,1.674c0.215,1.955 0.019,3.767 -1.61,5.103c-0.397,0.326 -0.803,0.969 -1.073,1.398c-0.29,0.462 -0.789,0.709 -1.244,1.058c-0.959,0.732 -1.622,1.218 -2.664,1.771c-0.985,0.522 -1.348,1.06 -2.537,1.303c-0.566,0.115 -1.341,0.466 -1.881,0.661c-0.437,0.158 -0.536,0.272 -1.053,0.412c-0.384,0.104 0.061,0.456 0,0.747c-0.06,0.291 0.543,2.002 0.463,2.295c-0.237,0.881 0.169,0.81 0.751,0.88c0.676,0.21 2.182,0.303 2.904,0.13c0.345,-0.082 0.676,3 0.709,3.424c0.043,0.574 -0.199,1.99 -0.439,2.53c-0.82,1.839 -0.865,1.892 -1.288,2.424c-0.857,1.08 -0.95,0.827 -2.73,1.533c-0.988,0.393 -0.968,0.293 -1.713,0.42c-0.587,0.1 -0.982,0.075 -1.572,-0.068c-0.958,-0.232 -1.381,-0.363 -2,-0.78c-0.648,-0.438 -1.765,-1.489 -2.232,-2.062c-0.318,-0.389 -0.571,-0.606 -0.895,-1.151c-0.655,-1.103 -0.662,-0.812 -1.194,-1.941c-0.609,-0.86 -0.847,-1.438 -0.619,-2.435c-0.273,-0.74 -0.416,-3.289 -0.834,-3.934c-0.287,-0.443 0.487,0.257 0.399,-0.655c0.435,-0.146 0.581,-1.273 0.833,-1.653c0.283,-0.426 0.362,-1.517 0.618,-1.951c0.548,-0.934 0.202,-1.472 0.485,-2.548c-0.057,0.089 -0.096,-0.277 -0.155,-0.193c0.113,-0.173 -0.503,-0.494 -0.449,-0.703c-0.816,-0.586 -1.766,-1.61 -2.289,-2.476c-0.534,-0.887 -1.372,-2.05 -1.447,-3.073c-0.536,-0.081 -0.667,0.351 -1.224,0.153c-0.531,-0.187 -1.056,-0.156 -1.406,-0.571c-0.634,-0.75 -2.087,-1.623 -2.318,-2.618c-0.239,-1.029 -0.407,-2.593 0.184,-3.444c0.332,-0.479 0.468,-0.874 1.046,-1.041c0.374,-0.107 1.126,0.069 1.479,0.316c0.376,0.265 0.652,0.87 0.863,1.229c0.204,0.347 0.829,0.663 1.128,0.914c0.69,0.579 1.113,0.749 1.966,0.993c-1.622,-1.824 -2.125,-4.781 -1.305,-7.288c0.327,-0.999 0.638,-2.023 1.337,-2.786c0.417,-0.454 0.827,-1.042 1.272,-1.52c0.439,-0.471 0.749,-0.694 1.17,-1.09c0.378,-0.354 1.074,-0.778 1.147,-1.409c0.303,-2.58 -0.168,-0.018 0.837,-0.45" fill="#deb252" stroke="none" stroke-width="1"/><path d="M251.16,164.449c-0.078,0.003 -0.154,-0.002 -0.22,0.039M242.192,173.306c-0.235,0.251 -3.083,-0.259 -3.345,-0.573c-0.738,-0.888 -1.035,-2.505 -0.371,-2.728c12.146,-4.082 12.122,-10.038 12.13,-10.723c0.006,-0.498 -0.105,-0.993 -0.145,-1.513c-0.091,-1.215 -0.427,-2.257 -0.792,-3.392c-0.321,-0.997 1.066,-2.542 1.065,-3.652c0.002,-1.154 -0.251,-2.356 -0.306,-3.529c-0.03,-0.641 0.021,-1.413 -0.175,-2.018c-0.203,-0.628 -0.364,-0.643 -0.712,-1.188c-0.753,-1.18 -2.212,-1.774 -3.612,-2.136c-2.554,-0.659 -4.796,-0.41 -7.569,-0.456c-1.565,-0.025 -2.079,0.152 -3.617,-0.165c-0.656,-0.135 -1.638,-0.502 -2.254,-0.747c-0.438,-0.174 -1.006,-1.453 -1.42,-1.322c0.039,0.066 -0.083,1.332 -0.033,1.748c-0.379,0.777 -0.32,0.639 -1.122,1.274c-0.536,0.425 -1.479,1.026 -1.878,1.646c-0.59,0.916 -0.562,1.203 -1.369,2.037c-0.767,0.791 -0.665,2.374 -0.683,3.515c-0.008,0.518 0.078,1.039 0.099,1.582c0.023,0.575 0.502,1.574 0.574,2.14c0.131,1.02 -0.093,0.879 0.727,1.448c-0.831,-0.388 -0.848,-0.195 -1.653,-0.696c-0.638,-0.397 -1.839,-1.633 -2.32,-2.362c-0.365,-0.551 -1.996,-0.09 -2.293,0.554c-0.369,0.803 -0.551,1.85 -0.5,2.643c0.075,1.167 1.573,2.924 2.537,3.654c0.381,0.288 2.009,0.382 2.355,0.574c0.547,0.304 0.19,0.258 0.443,0.829c0.319,0.72 1.449,2.125 2.058,2.938c0.693,0.924 1.125,1.348 1.959,2.327c0.197,1.06 0.148,1.897 -0.284,2.905c-0.223,0.524 -0.312,0.92 -0.526,1.476c-0.186,0.478 -0.104,1.82 -0.849,1.488c0.029,0.017 0.145,0.038 0.177,0.039c-0.172,0.614 -0.3,0.438 -0.312,1.036c-0.169,0.116 -0.11,-0.301 -0.464,0.283c0.092,0.323 0.378,0.732 0.466,1.063c0.202,0.751 0.006,0.521 0.199,1.375c0.128,0.561 0.678,4.56 0.247,4.189c-0.973,-0.837 -4.733,-3.783 -4.379,-3.4c3.599,3.898 1.392,7.825 0.806,8.617c-0.573,0.773 -2.086,2.042 -2.842,3.028c-0.237,-1.156 -0.222,-1.439 -1.004,-2.291c-1.674,-1.822 -3.276,-4.493 -5.25,-5.954c-1.61,-1.19 -1.61,-1.19 -2.139,-3.049c-0.776,0.015 0.518,-1.836 -0.14,-1.592c-1.353,0.5 -1.532,2.165 -1.001,2.891c-0.446,-0.314 -0.857,-0.747 -1.175,-1.201c-0.403,-0.577 -1.379,-2.507 -1.629,-3.153c-0.273,-0.705 -0.522,-3.033 -0.695,-3.757c-0.186,-0.778 0.758,-3.512 0.886,-4.308c0.182,-1.131 0.747,-2.031 1.31,-3.004c0.598,-1.032 1.212,-1.686 1.714,-2.747c0.621,-1.311 1.625,-1.381 1.996,-2.801c0.152,-0.58 0.677,-1.61 0.978,-2.133c0.305,-0.53 0.545,-2.21 0.696,-2.823c0.612,-2.488 0.573,-4.423 1.199,-7.203c0.271,-1.202 0.675,-2.61 0.813,-3.845c0.145,-1.29 0.359,-2.4 0.789,-3.544c0.421,-1.119 0.929,-1.925 1.673,-2.916c0.873,-1.164 1.347,-1.909 2.747,-2.253c0.731,-0.18 1.037,-0.041 1.518,-0.55c0.383,-0.405 1.594,0.162 1.982,-0.264c0.884,-0.973 1.937,-1.618 3.251,-1.643c1.923,-0.038 3.801,-0.149 6.006,0.005c2.28,0.16 4.204,0.646 6.358,1.359c2.046,0.677 4.402,1.619 6.207,2.872c0.959,0.666 2.066,2.066 2.684,3.061c1.158,1.864 2.674,3.865 2.938,6.093c0.135,1.149 0.527,1.859 0.793,2.997c0.278,1.191 0.45,2.585 0.312,3.802c-0.271,2.408 -0.322,4.704 -0.92,7.102c-0.157,0.62 -0.084,1.049 -0.226,1.663c-0.133,0.575 -1.454,3.563 -1.684,4.086c-0.646,1.464 -3.02,2.713 -2.948,3.193c0.932,6.206 5.789,7.838 4.066,11.499c-0.042,0.068 -1.171,-2.652 -2.308,-2.479c0.768,6.306 -1.323,3.376 -1.323,2.012c0,-3.053 -4.729,-5.193 -7.186,-3.76" fill="#613d27" stroke="none" stroke-width="1"/><path d="M230.743,151.095c0.972,0.108 0.419,-0.413 1.289,-0.244c0.492,0.095 2.287,0.297 2.797,0.548c0.549,0.271 0.81,0.122 1.133,0.478c0.279,0.308 0.739,0.715 0.954,1.074c0.063,0.105 0.508,0.881 0.546,1.012c0.174,0.58 -0.572,0.734 -0.689,0.777c-0.599,0.219 -0.788,0.142 -1.359,0.267c-0.582,0.127 -1.48,0.299 -2.039,0.055c-0.58,-0.254 -2.127,-1.335 -2.421,-1.936c-0.116,-0.235 -0.518,-1.606 -0.078,-1.7M244.745,153.643c-0.181,0.074 -0.509,0.305 -0.599,0.469c-0.197,0.363 -0.532,0.852 -0.127,0.995c0.337,0.119 1.733,0.904 2.088,0.989c0.7,0.167 1.905,-0.086 2.728,-0.653c0.282,-0.194 0.346,-0.527 0.521,-0.811c0.148,-0.24 0.595,-1.361 0.42,-1.607c-0.257,-0.362 -0.247,-0.164 -0.907,-0.285c-0.588,-0.108 -1.217,-0.296 -1.81,-0.204c-0.38,0.06 -0.911,0.205 -1.134,0.388c-0.141,0.115 -0.374,-0.029 -0.521,0.077c-0.129,0.093 -0.511,0.168 -0.52,0.355" fill="#ffffff" stroke="none" stroke-width="1"/><path d="M234.081,151.526c0.204,-0.008 0.472,0.218 0.627,0.343c0.205,0.162 0.226,0.296 0.29,0.529c0.037,0.134 -0.018,0.278 -0.019,0.421c0,0.14 0.027,0.154 -0.023,0.269c-0.077,0.177 -0.036,0.23 -0.191,0.377c-0.098,0.092 -0.186,0.18 -0.308,0.246c-0.476,0.264 -1.169,0.283 -1.595,-0.113c-0.209,-0.196 -0.312,-0.245 -0.359,-0.553c-0.049,-0.321 0.032,-0.652 0.147,-0.936c0.174,-0.43 1,-0.719 1.431,-0.583" fill="#3b2416" stroke="none" stroke-width="1"/><path d="M246.408,152.975c0.192,0.07 0.627,0.204 0.775,0.37c0.13,0.146 0.179,0.699 0.13,0.878c-0.064,0.23 -0.222,0.632 -0.407,0.743c-0.356,0.214 -1,0.225 -1.301,-0.135c-0.147,-0.176 -0.373,-0.446 -0.397,-0.688c-0.06,-0.582 0.332,-1.485 1.2,-1.168z" fill="#3b2416" stroke="none" stroke-width="1"/><path d="M237.771,162.554c1.148,0.023 0.925,-0.201 2.078,-0.221c0.974,-0.018 2.274,0.225 3.079,0.649c0.081,0.042 0.248,0.042 0.319,0.106c0.299,0.034 -0.205,0.227 -0.208,0.237c-0.213,0.004 -0.313,0.141 -0.492,0.253c-0.34,0.213 -0.353,0.19 -0.739,0.104c-0.548,-0.122 -1.206,-0.174 -1.76,-0.335c-0.606,-0.176 -1.329,-0.196 -1.948,-0.358c-0.344,-0.089 -0.752,-0.101 -1.082,-0.187c-0.228,-0.06 -0.395,-0.132 -0.626,-0.108c-0.013,0.008 0.633,-0.03 0.501,-0.063" fill="#ffffff" stroke="none" stroke-width="1"/><path d="M235.598,162.711c0.875,-0.17 1.337,0.156 2.214,0.214c0.912,0.06 2.038,0.364 2.923,0.567c0.543,0.126 1.171,0.237 1.671,0.234c-0.081,0.134 -0.341,0.239 -0.404,0.405c-0.058,0.149 -0.084,0.316 -0.126,0.473c-0.061,0.229 -0.043,0.703 -0.246,0.852c-0.131,0.095 -0.164,0.09 -0.281,0.025c-0.161,-0.089 -0.327,-0.191 -0.504,-0.276c-0.36,-0.174 -0.884,-0.435 -1.266,-0.58c-0.758,-0.291 -0.737,-0.432 -1.532,-0.547c-0.311,-0.045 -1.604,-0.384 -1.911,-0.452c-0.318,-0.07 -0.194,-0.023 -0.421,-0.268c-0.064,-0.069 -0.382,-0.42 -0.339,-0.494" fill="#3f1212" stroke="none" stroke-width="1"/><path d="M236.936,163.735c0.439,0.091 1.376,0.441 1.638,0.527c0.375,0.123 0.89,0.375 1.646,0.664c0.22,0.084 0.428,0.155 0.625,0.279c0.157,0.099 0.276,0.127 0.504,0.276c0.155,0.027 0.351,-0.105 0.355,-0.103c-0.294,0.445 -0.707,0.671 -1.115,0.787c-0.459,0.131 -0.945,0.029 -1.432,-0.047c-0.608,-0.097 -1.203,-0.501 -1.674,-0.889c-0.258,-0.212 -0.45,-0.456 -0.667,-0.707c-0.18,-0.207 -0.426,-0.427 -0.572,-0.651c-0.061,-0.093 -0.024,-0.279 0.124,-0.246" fill="#a23422" stroke="none" stroke-width="1"/><path d="M237.42,154.363c0.249,-0.11 0.564,0.087 0.219,0.238c-1.409,0.623 -3.26,0.94 -4.765,0.526c-1.807,-0.496 -2.7,-2.724 -2.522,-4.412c0.015,-0.145 0.267,-0.192 0.375,-0.193c2.614,-0.021 6.61,0.777 7.074,3.887c0.032,0.212 -0.514,0.341 -0.543,0.146c-0.445,-2.981 -4.232,-3.731 -6.738,-3.71c0.125,-0.064 0.25,-0.129 0.375,-0.192c-0.158,1.509 0.538,3.375 2.02,4.036c1.333,0.596 3.211,0.246 4.505,-0.326zM243.469,154.867c-0.157,-0.134 0.351,-0.346 0.501,-0.216c1.027,0.882 2.968,1.913 4.261,0.972c0.817,-0.595 2.219,-2.212 0.66,-2.675c-1.885,-0.559 -4.045,-0.083 -4.918,1.821c-0.077,0.169 -0.621,0.228 -0.507,-0.02c0.615,-1.342 1.896,-2.148 3.354,-2.3c0.985,-0.102 2.431,-0.11 3.227,0.604c0.988,0.885 -1.465,2.894 -2.247,3.122c-1.519,0.442 -3.175,-0.316 -4.331,-1.308zM231.085,150.938c-0.251,0.087 -0.577,-0.115 -0.219,-0.241c0.124,-0.044 0.247,-0.085 0.375,-0.117c0.002,0.101 0.003,0.201 0.004,0.303c-0.168,0.008 -0.319,0.014 -0.479,0.087c0.019,-0.09 0.037,-0.181 0.056,-0.272c0.212,0.03 0.459,0.069 0.667,-0.014c0.024,0.092 0.05,0.185 0.074,0.278c-0.223,0.036 -0.405,0.112 -0.507,0.329c-0.121,-0.043 -0.242,-0.087 -0.363,-0.13c0.162,-0.066 0.281,-0.147 0.379,-0.294c0.141,0.033 0.282,0.065 0.424,0.098c-0.257,0.158 -0.372,0.388 -0.435,0.676c-0.04,0.184 -0.568,0.297 -0.544,0.063c0.029,-0.285 0.101,-0.562 0.099,-0.849c0.181,-0.021 0.363,-0.042 0.544,-0.063c-0.24,0.737 -0.07,1.362 0.146,2.08c0.061,0.201 -0.455,0.334 -0.542,0.146c-0.582,-1.244 0.891,-2.931 2.176,-2.237c0.232,0.125 -0.265,0.36 -0.43,0.271c-0.968,-0.524 -1.534,1.115 -1.204,1.82c-0.18,0.049 -0.361,0.098 -0.542,0.146c-0.225,-0.747 -0.396,-1.396 -0.147,-2.162c0.056,-0.17 0.543,-0.313 0.544,-0.063c0.002,0.287 -0.07,0.565 -0.099,0.849c-0.181,0.021 -0.363,0.042 -0.544,0.063c0.086,-0.396 0.293,-0.701 0.638,-0.915c0.082,-0.05 0.574,-0.128 0.424,0.098c-0.165,0.248 -0.395,0.403 -0.668,0.515c-0.104,0.042 -0.464,0.086 -0.363,-0.13c0.194,-0.415 0.664,-0.557 1.084,-0.626c0.251,-0.041 0.308,0.185 0.074,0.278c-0.401,0.159 -0.793,0.141 -1.215,0.08c-0.218,-0.031 -0.048,-0.225 0.055,-0.272c0.247,-0.114 0.498,-0.151 0.768,-0.165c0.316,-0.015 0.265,0.236 0.004,0.303c-0.079,0.017 -0.157,0.04 -0.234,0.067zM249.391,153.839c-0.014,-0.219 0.531,-0.334 0.541,-0.145c0.024,0.382 -0.124,0.664 -0.275,1.004c-0.062,0.14 -0.572,0.242 -0.525,0.022c0.095,-0.447 0.221,-0.79 0.007,-1.226c-0.091,-0.184 0.413,-0.291 0.522,-0.182c0.037,0.038 0.074,0.076 0.112,0.113c-0.167,0.072 -0.335,0.145 -0.502,0.217c-0.24,-0.385 -0.523,-0.687 -0.961,-0.837c0.126,-0.096 0.253,-0.192 0.379,-0.288c0.466,0.218 0.823,0.548 1.164,0.928c-0.168,0.072 -0.335,0.145 -0.502,0.217c-0.345,-0.495 -0.748,-0.895 -1.384,-0.921c-0.368,-0.015 -0.008,-0.331 0.207,-0.322c0.752,0.031 1.261,0.424 1.68,1.026c0.136,0.195 -0.376,0.358 -0.502,0.217c-0.321,-0.358 -0.651,-0.668 -1.091,-0.874c-0.235,-0.109 0.238,-0.337 0.379,-0.289c0.51,0.175 0.851,0.472 1.135,0.927c0.13,0.206 -0.372,0.347 -0.502,0.217c-0.038,-0.037 -0.075,-0.075 -0.113,-0.112c0.174,-0.061 0.349,-0.121 0.523,-0.182c0.227,0.461 0.096,0.83 -0.006,1.307c-0.175,0.007 -0.351,0.014 -0.526,0.022c0.125,-0.281 0.259,-0.522 0.24,-0.839z" fill="#010101" stroke="none" stroke-width="1"/><path d="M234.977,152.873c-0.097,0.677 -0.724,1.147 -1.401,1.051c-0.678,-0.097 -1.148,-0.724 -1.051,-1.401c0.097,-0.678 0.724,-1.148 1.401,-1.052c0.677,0.097 1.147,0.724 1.051,1.402zM246.498,152.987c-0.566,-0.118 -1.121,0.246 -1.238,0.813c-0.118,0.566 0.246,1.121 0.813,1.239c0.567,0.117 1.121,-0.247 1.239,-0.813c0.116,-0.567 -0.247,-1.121 -0.814,-1.239z" fill="none" stroke="#010101" stroke-width="0.75"/><path d="M249.322,154.624c-0.036,-0.13 0.506,-0.278 0.541,-0.146c0.568,2.021 1.522,4.274 0.767,6.38c-0.67,1.869 -1.896,3.397 -3.447,4.625c-1.635,1.292 -3.41,2.358 -5.287,3.256c-1.275,0.611 -2.586,1.227 -4.025,1.22c-0.271,-0.001 0.231,-0.23 0.35,-0.229c2.065,0.01 4.625,-1.606 6.3,-2.681c1.316,-0.845 2.643,-1.757 3.683,-2.94c1.2,-1.366 2.258,-3.125 2.146,-5.019c-0.091,-1.548 -0.612,-2.985 -1.028,-4.466zM239.56,173.78c0.046,0.105 -0.482,0.285 -0.542,0.146c-0.613,-1.399 -0.783,-2.624 -0.88,-4.148c-0.011,-0.157 0.535,-0.253 0.542,-0.146c0.097,1.524 0.267,2.749 0.88,4.148zM228.111,172.193c-0.068,0.141 -0.581,0.185 -0.536,0.093c1.149,-2.378 2.273,-4.726 2.275,-7.424c0.001,-0.164 0.543,-0.245 0.543,-0.146c-0.003,2.708 -1.126,5.083 -2.282,7.477zM237.531,169.901c-0.272,-0.004 0.23,-0.232 0.349,-0.227c2.115,0.029 4.463,-1.263 6.208,-2.353c1.469,-0.917 2.963,-1.899 4.116,-3.211c1.2,-1.366 2.258,-3.125 2.146,-5.019c-0.091,-1.548 -0.612,-2.985 -1.028,-4.466c-0.036,-0.129 0.506,-0.278 0.543,-0.146c0.617,2.196 1.568,4.53 0.621,6.784c-0.777,1.85 -2.069,3.247 -3.629,4.479c-2.45,1.938 -6.062,4.205 -9.326,4.159zM237.928,169.678c0.166,0.044 -0.315,0.251 -0.445,0.217c-2.746,-0.744 -5.268,-2.927 -7.345,-4.787c-1.882,-1.686 -4.044,-3.664 -4.9,-6.118c-0.042,-0.119 0.495,-0.282 0.542,-0.146c0.887,2.539 3.177,4.625 5.164,6.334c2.014,1.732 4.368,3.792 6.984,4.5zM240.329,160.416c-0.169,-0.061 0.319,-0.263 0.445,-0.216c0.774,0.276 1.976,1.121 2.448,-0.103c0.055,-0.143 0.577,-0.2 0.536,-0.092c-0.209,0.542 -0.787,0.865 -1.34,0.961c-0.819,0.14 -1.366,-0.293 -2.089,-0.55zM243.561,159.184c0.078,0.044 -0.37,0.265 -0.511,0.189c-0.827,-0.457 -1.746,-0.479 -2.657,-0.304c-0.38,0.073 -0.121,-0.17 0.098,-0.212c1.042,-0.199 2.12,-0.197 3.07,0.327zM223.765,151.464c0.081,0.049 -0.373,0.27 -0.511,0.188c-2.462,-1.476 -2.803,3.086 -1.934,4.47c0.813,1.296 3.882,4.158 4.724,1.39c0.043,-0.142 0.573,-0.212 0.536,-0.092c-0.94,3.09 -4.443,1.013 -5.619,-0.859c-0.857,-1.366 -1.14,-3.735 0.263,-4.924c0.805,-0.683 1.635,-0.716 2.541,-0.173zM221.962,156.114c-0.048,-0.093 0.47,-0.286 0.544,-0.146c0.434,0.833 1.269,1.113 2.166,0.91c0.307,-0.069 0.625,-0.142 0.941,-0.152c0.584,-0.017 1.101,0.112 0.896,0.805c-0.042,0.143 -0.572,0.214 -0.536,0.093c0.342,-1.161 -1.413,-0.446 -1.976,-0.435c-0.865,0.016 -1.62,-0.278 -2.035,-1.075zM225.818,154.833c0.09,0.072 -0.392,0.283 -0.512,0.187c-0.634,-0.516 -1.076,-1.248 -1.73,-1.737c-0.612,-0.459 -1.873,-0.623 -1.854,0.442c0.003,0.162 -0.541,0.248 -0.542,0.146c-0.016,-0.867 0.886,-1.222 1.645,-1.202c1.403,0.035 2.01,1.363 2.993,2.164zM249.872,154.548c-0.035,0.141 -0.568,0.222 -0.535,0.091c0.954,-3.906 2.484,-8.81 -1.256,-11.671c-0.089,-0.068 0.387,-0.282 0.51,-0.188c3.767,2.882 2.243,7.832 1.281,11.768zM230.764,139.162c-0.047,-0.098 0.475,-0.285 0.542,-0.146c1.308,2.714 6.253,2.272 8.712,2.329c2.649,0.062 6.319,-0.263 8.572,1.435c0.089,0.066 -0.386,0.281 -0.51,0.188c-1.289,-0.973 -3.079,-1.143 -4.638,-1.249c-1.788,-0.123 -3.579,-0.12 -5.37,-0.188c-2.219,-0.085 -6.151,0.033 -7.308,-2.369zM239.291,173.988c-0.163,-0.037 0.314,-0.246 0.445,-0.216c0.784,0.181 1.559,0.494 2.361,0.204c0.211,-0.076 0.554,0.004 0.191,0.135c-1.056,0.381 -1.942,0.121 -2.997,-0.123zM238.612,149.816c0.091,0.111 -0.423,0.295 -0.51,0.187c-1.585,-1.959 -5.324,-2.587 -7.38,-1.297c-0.102,0.065 -0.649,0.122 -0.418,-0.024c2.372,-1.488 6.468,-1.142 8.308,1.134zM250.288,150.286c0.086,0.06 -0.382,0.278 -0.51,0.188c-1.292,-0.895 -3.259,-1.071 -4.33,0.256c-0.084,0.103 -0.608,0.177 -0.493,0.035c1.254,-1.556 3.774,-1.561 5.333,-0.479zM235.527,162.833c-0.271,0 0.231,-0.23 0.35,-0.23c0.27,0 -0.231,0.23 -0.35,0.23zM243.848,163.581c-0.05,0.142 -0.576,0.205 -0.536,0.094c0.098,-0.286 0.012,-0.564 -0.201,-0.771c-0.093,-0.089 0.404,-0.291 0.51,-0.188c0.243,0.234 0.339,0.541 0.227,0.865zM235.472,162.188c0.03,-0.006 0.262,-0.035 0.218,0.06c-0.045,0.097 -0.225,0.137 -0.317,0.152c0.174,-0.028 0.147,-0.069 0.082,-0.004c-0.019,0.019 -0.037,0.038 -0.054,0.058c-0.037,0.047 -0.072,0.097 -0.096,0.152c-0.065,0.145 -0.087,0.286 -0.06,0.443c0.024,0.144 -0.522,0.267 -0.543,0.146c-0.086,-0.498 0.291,-0.928 0.77,-1.007zM243.728,163.125c0.088,0.063 -0.384,0.278 -0.51,0.187c-2.207,-1.588 -5.722,-0.305 -8.25,-0.513c-0.275,-0.023 0.228,-0.24 0.35,-0.23c2.554,0.211 6.145,-1.075 8.41,0.556zM234.887,162.778c-0.089,-0.07 0.39,-0.283 0.511,-0.186c0.929,0.727 1.474,1.832 2.413,2.594c1.123,0.911 3.321,1.772 3.732,-0.35c0.027,-0.139 0.562,-0.23 0.536,-0.093c-0.252,1.301 -1.495,1.864 -2.745,1.648c-0.947,-0.163 -1.66,-0.638 -2.353,-1.302c-0.737,-0.707 -1.306,-1.694 -2.094,-2.311zM243.522,163.111c0.382,-0.05 0.126,0.182 -0.098,0.213c-0.768,0.104 -1.205,0.69 -1.345,1.417c-0.027,0.139 -0.562,0.229 -0.536,0.093c0.195,-1.014 0.986,-1.587 1.979,-1.723zM241.789,165.49c0.078,0.044 -0.37,0.267 -0.51,0.188c-1.745,-0.969 -3.434,-1.646 -5.404,-1.991c-0.158,-0.028 0.312,-0.239 0.444,-0.217c2.001,0.351 3.701,1.038 5.47,2.02zM237.557,166.942c-0.092,-0.087 0.403,-0.29 0.51,-0.188c0.725,0.685 2.703,0.738 3.236,-0.242c0.076,-0.14 0.582,-0.177 0.536,-0.093c-0.665,1.223 -3.332,1.42 -4.282,0.523zM242.581,163.611c0.272,0.003 -0.23,0.232 -0.349,0.231c-1.063,-0.008 -2.15,-0.407 -3.2,-0.57c-0.618,-0.097 -1.26,-0.142 -1.876,-0.251c-0.315,-0.057 -0.755,-0.238 -1.068,-0.182c-0.38,0.068 -0.122,-0.172 0.098,-0.212c0.71,-0.127 1.609,0.182 2.302,0.281c1.335,0.188 2.753,0.692 4.093,0.703z" fill="#010101" stroke="none" stroke-width="1"/><path d="M227.639,172.293c-0.041,-0.095 0.357,-0.226 0.408,-0.111c0.928,2.147 0.596,4.747 0.78,7.028c0.01,0.12 -0.357,0.218 -0.407,0.109c-0.307,-0.673 -0.694,-0.909 -1.203,-1.377c-0.42,-0.386 -0.747,-0.881 -1.206,-1.224c-0.803,-0.6 -1.712,-1.022 -2.547,-1.575c0.127,-0.048 0.254,-0.097 0.381,-0.146c1.66,1.483 3.119,3.877 2.619,6.2c-0.255,1.185 -0.82,2.619 -1.708,3.492c-0.815,0.801 -1.974,1.422 -2.281,2.584c-0.025,0.095 -0.366,0.199 -0.405,0.087c-1.066,-3.086 -3.03,-5.651 -5.507,-7.755c-1.834,-1.558 -3.483,-2.697 -3.091,-5.35c0.017,-0.113 0.422,-0.189 0.404,-0.063c-0.473,3.196 2.359,4.465 4.317,6.422c1.921,1.921 3.392,4.059 4.284,6.637c-0.135,0.029 -0.27,0.058 -0.405,0.087c0.228,-0.861 0.86,-1.364 1.52,-1.913c1.059,-0.881 1.853,-2.045 2.262,-3.371c0.804,-2.606 -0.444,-5.171 -2.389,-6.91c-0.091,-0.081 0.291,-0.206 0.381,-0.146c1.087,0.721 2.316,1.202 3.185,2.211c0.606,0.703 1.4,1.137 1.795,2.003c-0.136,0.036 -0.271,0.072 -0.407,0.109c-0.183,-2.282 0.148,-4.882 -0.78,-7.028zM209.311,167.322c0.035,-0.115 0.437,-0.172 0.403,-0.063c-0.608,1.993 -0.284,4.07 0.561,5.949c0.613,1.362 1.324,3.012 2.566,3.904c0.082,0.059 -0.279,0.22 -0.381,0.147c-1.243,-0.893 -2.026,-2.561 -2.591,-3.942c-0.798,-1.948 -1.183,-3.947 -0.558,-5.995zM223.087,151.106c-0.037,-0.104 0.366,-0.225 0.407,-0.111c0.654,1.845 2.414,2.917 4.158,3.587c-0.119,0.054 -0.237,0.106 -0.356,0.16c-2.072,-2.414 -2.212,-6.062 -0.778,-8.852c0.72,-1.4 1.701,-2.557 2.854,-3.622c0.378,-0.348 1.263,-0.762 1.356,-1.312c0.101,-0.598 0.18,-1.208 0.104,-1.813c-0.016,-0.126 0.394,-0.212 0.407,-0.108c0.092,0.739 0.155,1.988 -0.52,2.473c-1.323,0.952 -2.585,2.16 -3.402,3.591c-1.684,2.949 -1.954,6.803 0.36,9.497c0.093,0.108 -0.286,0.187 -0.355,0.161c-1.777,-0.682 -3.57,-1.775 -4.235,-3.651zM250.407,165.223c-0.084,0.058 -0.494,0.09 -0.319,-0.033c3.164,-2.223 4.602,-6.921 5.252,-10.531c0.907,-5.039 0.705,-10.778 -1.655,-15.43c-1.998,-3.937 -5.544,-6.767 -9.627,-8.348c-2.378,-0.921 -4.897,-1.556 -7.438,-1.805c-1.587,-0.157 -3.146,-0.131 -4.736,-0.062c-1.607,0.07 -3.399,0.057 -4.155,1.779c-0.045,0.102 -0.235,0.137 -0.331,0.126c-1.427,-0.16 -2.479,0.312 -3.794,0.705c-0.239,0.071 -0.278,-0.088 -0.042,-0.158c1.084,-0.323 2.02,-0.819 3.165,-0.817c0.881,0.002 1.231,-0.938 2.023,-1.351c0.76,-0.395 1.733,-0.413 2.566,-0.445c1.676,-0.065 3.339,-0.185 5.014,-0.021c5.475,0.537 11.336,2.377 15.161,6.542c4.042,4.4 5.216,10.815 4.621,16.62c-0.453,4.42 -1.792,10.479 -5.705,13.229zM223.463,131.504c0.109,-0.064 0.476,-0.059 0.243,0.079c-3.771,2.251 -4.214,6.274 -5.039,10.179c-0.754,3.562 -1.139,7.205 -2.012,10.741c-0.601,2.433 -1.443,4.215 -3.07,6.069c-2.154,2.455 -3.099,5.568 -3.87,8.686c-0.029,0.116 -0.433,0.179 -0.404,0.063c0.773,-3.124 1.724,-6.285 3.901,-8.733c1.978,-2.226 2.789,-4.625 3.376,-7.548c0.738,-3.684 1.335,-7.401 2.026,-11.093c0.641,-3.428 1.707,-6.569 4.849,-8.443zM251.605,178.369c-0.08,0.07 -0.483,0.113 -0.318,-0.037c1.037,-0.915 1.169,-3.411 0.248,-4.45c-0.093,-0.103 0.299,-0.199 0.381,-0.147c1.202,0.76 2.126,1.544 2.602,2.913c-0.134,0.028 -0.27,0.057 -0.405,0.086c0.673,-1.689 0.401,-2.959 -0.681,-4.414c-0.587,-0.788 -1.251,-1.526 -1.803,-2.339c-0.924,-1.363 -1.139,-3.172 -1.583,-4.723c-0.032,-0.111 0.374,-0.222 0.407,-0.109c0.526,1.842 0.785,3.721 1.983,5.261c0.704,0.904 1.546,1.783 2.049,2.824c0.623,1.286 0.547,2.146 0.032,3.437c-0.035,0.087 -0.364,0.206 -0.406,0.086c-0.475,-1.366 -1.393,-2.127 -2.576,-2.874c0.127,-0.048 0.254,-0.098 0.381,-0.147c0.985,1.112 0.792,3.658 -0.311,4.633zM213.848,174.148c0.285,-0.041 0.11,0.155 -0.067,0.181c-1.231,0.173 -1.199,1.811 -1.027,2.734c0.023,0.121 -0.387,0.217 -0.407,0.108c-0.24,-1.283 -0.017,-2.808 1.501,-3.023z" fill="#010101" stroke="none" stroke-width="1"/></g></g></svg>