<svg version="1.1" xmlns="http://www.w3.org/2000/svg" xmlns:xlink="http://www.w3.org/1999/xlink" width="216.66521" height="251.43458" viewBox="0,0,216.66521,251.43458"><g transform="translate(61.41519,-204.75101)"><g data-paper-data="{&quot;isPaintingLayer&quot;:true}" fill-rule="nonzero" stroke-linecap="butt" stroke-linejoin="miter" stroke-miterlimit="10" stroke-dasharray="" stroke-dashoffset="0" style="mix-blend-mode: normal"><g fill="#323232" stroke="#000000" stroke-width="2.5"><path d="M125.66669,330.00004v-21.66666h22v21.66666z"/><path d="M58.66669,330.00004v-21.66666h22v21.66666z"/><path d="M52.66669,318.00004v-45.66666h101.33334v45.66666z"/></g><g data-paper-data="{&quot;index&quot;:null}" fill="#000000" stroke="#000000" stroke-width="2.5"><g><path d="M90.83383,269.86974c1.73451,1.98443 1.53192,4.99923 -0.45252,6.73375c-1.98443,1.73451 -4.99923,1.53192 -6.73373,-0.45251c-1.73451,-1.98443 -1.53192,-4.99923 0.45251,-6.73373c1.98443,-1.73451 4.99923,-1.53192 6.73373,0.45251z"/><path d="M96.51619,277.57945c1.73451,1.98443 1.53192,4.99923 -0.45251,6.73373c-1.98443,1.73451 -4.99923,1.53192 -6.73375,-0.45252c-1.73451,-1.98443 -1.53192,-4.99923 0.45251,-6.73373c1.98443,-1.73451 4.99923,-1.53192 6.73373,0.45251z"/></g><g><path d="M101.97455,284.42855c1.73451,1.98443 1.53192,4.99923 -0.45251,6.73373c-1.98443,1.73451 -4.99923,1.53192 -6.73373,-0.45251c-1.73451,-1.98443 -1.53192,-4.99923 0.45252,-6.73375c1.98443,-1.73451 4.99923,-1.53192 6.73373,0.45251z"/><path d="M107.65692,292.13826c1.73451,1.98443 1.53192,4.99923 -0.45251,6.73373c-1.98443,1.73451 -4.99923,1.53192 -6.73373,-0.45251c-1.73451,-1.98443 -1.53192,-4.99923 0.45251,-6.73373c1.98443,-1.73451 4.99923,-1.53192 6.73373,0.45251z"/></g><g><path d="M113.5633,300.70854c1.73451,1.98443 1.53192,4.99923 -0.45252,6.73375c-1.98443,1.73451 -4.99923,1.53192 -6.73373,-0.45251c-1.73451,-1.98443 -1.53192,-4.99923 0.45251,-6.73373c1.98443,-1.73451 4.99923,-1.53192 6.73373,0.45251z"/><path d="M119.24566,308.41822c1.73451,1.98443 1.53192,4.99923 -0.45251,6.73373c-1.98443,1.73451 -4.99923,1.53192 -6.73375,-0.45252c-1.73451,-1.98443 -1.53192,-4.99923 0.45251,-6.73373c1.98443,-1.73451 4.99923,-1.53192 6.73373,0.45251z"/></g></g><path d="M77.70874,283.37075v-22.24764h7.41588v22.24764z" fill="#121212" stroke="#000000" stroke-width="2.5"/><path d="M128.13673,283.37075v-22.24764h7.41588v22.24764z" fill="#121212" stroke="#000000" stroke-width="2.5"/><g data-paper-data="{&quot;index&quot;:null}" fill="#000000" stroke="#000000" stroke-width="2.5"><g><path d="M147.00798,378.44337c-1.89609,4.11864 -6.77198,5.92037 -10.89063,4.02428c-4.11864,-1.89609 -5.92038,-6.77199 -4.02429,-10.89063c1.89609,-4.11864 6.772,-5.92038 10.89064,-4.02429c4.11864,1.89609 5.92037,6.77199 4.02428,10.89064z"/><path d="M138.89872,392.78609c-1.89609,4.11864 -6.77199,5.92038 -10.89063,4.02429c-4.11864,-1.89609 -5.92038,-6.772 -4.02429,-10.89064c1.89609,-4.11864 6.772,-5.92037 10.89064,-4.02429c4.11864,1.89609 5.92037,6.77199 4.02429,10.89063z"/></g><g><path d="M131.98313,406.172c-1.89609,4.11864 -6.77199,5.92038 -10.89063,4.02429c-4.11864,-1.89609 -5.92037,-6.772 -4.02429,-10.89064c1.89609,-4.11864 6.77199,-5.92037 10.89063,-4.02429c4.11864,1.89609 5.92036,6.77199 4.02429,10.89063z"/><path d="M123.87389,420.51474c-1.89609,4.11864 -6.77201,5.92038 -10.89065,4.02429c-4.11864,-1.89609 -5.92038,-6.77199 -4.02429,-10.89063c1.89609,-4.11864 6.772,-5.92038 10.89064,-4.02429c4.11864,1.89609 5.92038,6.77199 4.02429,10.89063z"/></g><g><path d="M114.57097,435.81427c-1.89609,4.11864 -6.772,5.92038 -10.89064,4.02429c-4.11864,-1.89609 -5.92037,-6.772 -4.02429,-10.89064c1.89609,-4.11864 6.77199,-5.92037 10.89063,-4.02428c4.11864,1.89609 5.92038,6.77199 4.02429,10.89063z"/><path d="M106.46172,450.15701c-1.89609,4.11864 -6.772,5.92038 -10.89064,4.02429c-4.11864,-1.89609 -5.92037,-6.77199 -4.02428,-10.89064c1.89609,-4.11864 6.77199,-5.92037 10.89063,-4.02429c4.11864,1.89609 5.92038,6.77199 4.02429,10.89063z"/></g></g><g fill="#000000" stroke="#000000" stroke-width="2.5"><path d="M121.31933,311.03689c1.42517,2.4297 0.61085,5.55469 -1.81884,6.97987c-2.4297,1.42517 -5.55469,0.61085 -6.97987,-1.81885c-1.42517,-2.4297 -0.61085,-5.55469 1.81885,-6.97987c2.4297,-1.42517 5.55469,-0.61085 6.97987,1.81885z"/><path d="M125.74713,320.26568c1.42517,2.4297 0.61085,5.55469 -1.81885,6.97988c-2.4297,1.42517 -5.55469,0.61085 -6.97987,-1.81885c-1.42517,-2.4297 -0.61085,-5.55469 1.81885,-6.97987c2.4297,-1.42517 5.55469,-0.61085 6.97987,1.81884z"/></g><g fill="#000000" stroke="#000000" stroke-width="2.5"><path d="M132.30967,330.61167c1.71056,2.91625 0.73317,6.66702 -2.18306,8.37758c-2.91625,1.71056 -6.66701,0.73317 -8.37758,-2.18308c-1.71056,-2.91625 -0.73318,-6.66701 2.18307,-8.37758c2.91625,-1.71056 6.66702,-0.73318 8.37758,2.18307z"/><path d="M137.62413,341.68855c1.71056,2.91625 0.73318,6.66701 -2.18307,8.37758c-2.91625,1.71056 -6.66702,0.73317 -8.37758,-2.18308c-1.71056,-2.91625 -0.73317,-6.66701 2.18308,-8.37758c2.91625,-1.71056 6.66701,-0.73317 8.37758,2.18306z"/></g><g fill="#000000" stroke="#000000" stroke-width="2.5"><path d="M143.01478,353.90358c1.71056,2.91625 0.73317,6.66701 -2.18306,8.37758c-2.91625,1.71056 -6.66701,0.73318 -8.37759,-2.18307c-1.71056,-2.91625 -0.73317,-6.66702 2.18308,-8.37758c2.91625,-1.71056 6.66701,-0.73317 8.37758,2.18308z"/><path d="M148.32924,364.98045c1.71056,2.91625 0.73317,6.66701 -2.18306,8.37758c-2.91625,1.71056 -6.66701,0.73317 -8.37759,-2.18308c-1.71056,-2.91625 -0.73317,-6.66701 2.18308,-8.37758c2.91625,-1.71056 6.66701,-0.73317 8.37758,2.18308z"/></g><g fill="#323232" stroke="#000000" stroke-width="2.5"><path d="M129.15289,384.25759l-42.78742,35.56424c0,0 -56.69676,-40.27263 -77.61816,-65.44321c-22.31031,-26.84159 -52.34501,-90.91579 -52.34501,-90.91579l42.78744,-35.56424c0,0 29.3935,67.60113 50.23205,92.67205c22.37333,26.91741 79.73111,63.68696 79.73111,63.68696z"/><path d="M138.1884,437.0373c-15.89977,13.21564 -39.50248,11.03972 -52.71812,-4.86005c-13.21564,-15.89977 -11.0397,-39.50245 4.86007,-52.71808c15.89978,-13.21564 39.50245,-11.03972 52.71808,4.86003c13.21564,15.89976 11.03974,39.50246 -4.86003,52.7181z"/><path d="M1.20019,272.22645c-15.89975,13.21564 -39.50244,11.03972 -52.71808,-4.86005c-13.21563,-15.89975 -11.03973,-39.50245 4.86004,-52.71809c15.89977,-13.21565 39.50244,-11.03971 52.7181,4.86006c13.21564,15.89976 11.03973,39.50246 -4.86004,52.7181z"/></g><path d="M-26.02937,211.54791c0,-0.33543 0.27193,-0.60736 0.60737,-0.60736c0.33544,0 0.60737,0.27193 0.60737,0.60736c0,0.33543 -0.27193,0.60737 -0.60737,0.60737c-0.33544,0 -0.60737,-0.27193 -0.60737,-0.60737z" fill="#000000" stroke="none" stroke-width="0.5"/><path d="M-15.89502,214.47561c0,-0.33543 0.27193,-0.60737 0.60737,-0.60737c0.33544,0 0.60736,0.27193 0.60736,0.60737c0,0.33543 -0.27193,0.60737 -0.60736,0.60737c-0.33544,0 -0.60737,-0.27194 -0.60737,-0.60737z" fill="#000000" stroke="none" stroke-width="0.5"/><path d="M-6.88671,221.00664c0,-0.33543 0.27194,-0.60737 0.60737,-0.60737c0.33544,0 0.60737,0.27193 0.60737,0.60737c0,0.33543 -0.27193,0.60737 -0.60737,0.60737c-0.33543,0 -0.60737,-0.27194 -0.60737,-0.60737z" fill="#000000" stroke="none" stroke-width="0.5"/><path d="M-0.13048,228.43851c0,-0.33543 0.27194,-0.60737 0.60737,-0.60737c0.33544,0 0.60736,0.27194 0.60736,0.60737c0,0.33543 -0.27193,0.60737 -0.60736,0.60737c-0.33544,0 -0.60737,-0.27193 -0.60737,-0.60737z" fill="#000000" stroke="none" stroke-width="0.5"/><path d="M4.14849,241.50056c0,-0.33543 0.27193,-0.60736 0.60736,-0.60736c0.33544,0 0.60737,0.27193 0.60737,0.60736c0,0.33543 -0.27193,0.60737 -0.60737,0.60737c-0.33544,0 -0.60736,-0.27193 -0.60736,-0.60737z" fill="#000000" stroke="none" stroke-width="0.5"/><path d="M2.12161,253.887c0,-0.33543 0.27193,-0.60736 0.60736,-0.60736c0.33544,0 0.60736,0.27193 0.60736,0.60736c0,0.33543 -0.27193,0.60737 -0.60736,0.60737c-0.33544,0 -0.60736,-0.27193 -0.60736,-0.60737z" fill="#000000" stroke="none" stroke-width="0.5"/><path d="M-4.85983,264.92219c0,-0.33544 0.27193,-0.60737 0.60737,-0.60737c0.33544,0 0.60736,0.27193 0.60736,0.60737c0,0.33544 -0.27193,0.60737 -0.60736,0.60737c-0.33544,0 -0.60737,-0.27193 -0.60737,-0.60737z" fill="#000000" stroke="none" stroke-width="0.5"/><path d="M-16.12022,269.87677c0,-0.33544 0.27193,-0.60737 0.60737,-0.60737c0.33544,0 0.60737,0.27193 0.60737,0.60737c0,0.33544 -0.27193,0.60737 -0.60737,0.60737c-0.33544,0 -0.60737,-0.27193 -0.60737,-0.60737z" fill="#000000" stroke="none" stroke-width="0.5"/><path d="M-31.43436,269.87677c0,-0.33544 0.27193,-0.60737 0.60736,-0.60737c0.33543,0 0.60737,0.27193 0.60737,0.60737c0,0.33544 -0.27193,0.60737 -0.60737,0.60737c-0.33543,0 -0.60736,-0.27193 -0.60736,-0.60737z" fill="#000000" stroke="none" stroke-width="0.5"/><path d="M-42.69476,262.4449c0,-0.33544 0.27193,-0.60737 0.60737,-0.60737c0.33543,0 0.60737,0.27193 0.60737,0.60737c0,0.33544 -0.27193,0.60737 -0.60737,0.60737c-0.33543,0 -0.60737,-0.27193 -0.60737,-0.60737z" fill="#000000" stroke="none" stroke-width="0.5"/><path d="M-51.25266,253.21138c0,-0.33543 0.27193,-0.60736 0.60737,-0.60736c0.33543,0 0.60737,0.27193 0.60737,0.60736c0,0.33543 -0.27194,0.60737 -0.60737,0.60737c-0.33543,0 -0.60737,-0.27194 -0.60737,-0.60737z" fill="#000000" stroke="none" stroke-width="0.5"/><path d="M-51.92829,235.87037c0,-0.33543 0.27194,-0.60737 0.60737,-0.60737c0.33543,0 0.60736,0.27194 0.60736,0.60737c0,0.33543 -0.27193,0.60736 -0.60736,0.60736c-0.33543,0 -0.60737,-0.27193 -0.60737,-0.60736z" fill="#000000" stroke="none" stroke-width="0.5"/><path d="M-43.5956,224.15955c0,-0.33543 0.27193,-0.60736 0.60737,-0.60736c0.33543,0 0.60737,0.27193 0.60737,0.60736c0,0.33543 -0.27193,0.60737 -0.60737,0.60737c-0.33543,0 -0.60737,-0.27193 -0.60737,-0.60737z" fill="#000000" stroke="none" stroke-width="0.5"/><path d="M-35.48812,217.62853c0,-0.33543 0.27193,-0.60736 0.60736,-0.60736c0.33544,0 0.60737,0.27193 0.60737,0.60736c0,0.33543 -0.27193,0.60737 -0.60737,0.60737c-0.33543,0 -0.60736,-0.27193 -0.60736,-0.60737z" fill="#000000" stroke="none" stroke-width="0.5"/><path d="M-24.22771,222.5831c0,-0.33543 0.27193,-0.60737 0.60736,-0.60737c0.33544,0 0.60737,0.27194 0.60737,0.60737c0,0.33543 -0.27193,0.60736 -0.60737,0.60736c-0.33544,0 -0.60736,-0.27193 -0.60736,-0.60736z" fill="#000000" stroke="none" stroke-width="0.5"/><path d="M-11.39086,229.11413c0,-0.33543 0.27193,-0.60737 0.60737,-0.60737c0.33544,0 0.60737,0.27193 0.60737,0.60737c0,0.33543 -0.27193,0.60736 -0.60737,0.60736c-0.33543,0 -0.60737,-0.27193 -0.60737,-0.60736z" fill="#000000" stroke="none" stroke-width="0.5"/><path d="M-10.49003,241.95098c0,-0.33543 0.27193,-0.60737 0.60737,-0.60737c0.33544,0 0.60737,0.27193 0.60737,0.60737c0,0.33543 -0.27193,0.60737 -0.60737,0.60737c-0.33543,0 -0.60737,-0.27194 -0.60737,-0.60737z" fill="#000000" stroke="none" stroke-width="0.5"/><path d="M-16.12022,248.2568c0,-0.33543 0.27193,-0.60736 0.60737,-0.60736c0.33544,0 0.60737,0.27193 0.60737,0.60736c0,0.33543 -0.27193,0.60737 -0.60737,0.60737c-0.33544,0 -0.60737,-0.27194 -0.60737,-0.60737z" fill="#000000" stroke="none" stroke-width="0.5"/><path d="M-19.04792,256.58949c0,-0.33543 0.27193,-0.60736 0.60737,-0.60736c0.33544,0 0.60737,0.27193 0.60737,0.60736c0,0.33544 -0.27194,0.60737 -0.60737,0.60737c-0.33544,0 -0.60737,-0.27193 -0.60737,-0.60737z" fill="#000000" stroke="none" stroke-width="0.5"/><path d="M-7.56233,252.98617c0,-0.33543 0.27193,-0.60736 0.60736,-0.60736c0.33544,0 0.60737,0.27193 0.60737,0.60736c0,0.33543 -0.27194,0.60737 -0.60737,0.60737c-0.33544,0 -0.60736,-0.27194 -0.60736,-0.60737z" fill="#000000" stroke="none" stroke-width="0.5"/><path d="M-32.78561,253.43658c0,-0.33543 0.27193,-0.60736 0.60737,-0.60736c0.33544,0 0.60737,0.27193 0.60737,0.60736c0,0.33543 -0.27193,0.60737 -0.60737,0.60737c-0.33544,0 -0.60737,-0.27194 -0.60737,-0.60737z" fill="#000000" stroke="none" stroke-width="0.5"/><path d="M-28.05624,258.84157c0,-0.33544 0.27193,-0.60737 0.60736,-0.60737c0.33543,0 0.60737,0.27193 0.60737,0.60737c0,0.33544 -0.27193,0.60737 -0.60737,0.60737c-0.33543,0 -0.60736,-0.27193 -0.60736,-0.60737z" fill="#000000" stroke="none" stroke-width="0.5"/><path d="M-31.65957,241.27536c0,-0.33543 0.27193,-0.60736 0.60737,-0.60736c0.33543,0 0.60737,0.27193 0.60737,0.60736c0,0.33543 -0.27193,0.60737 -0.60737,0.60737c-0.33544,0 -0.60737,-0.27193 -0.60737,-0.60737z" fill="#000000" stroke="none" stroke-width="0.5"/><path d="M-39.54184,242.85181c0,-0.33543 0.27193,-0.60737 0.60736,-0.60737c0.33543,0 0.60737,0.27193 0.60737,0.60737c0,0.33543 -0.27193,0.60736 -0.60737,0.60736c-0.33543,0 -0.60736,-0.27193 -0.60736,-0.60736z" fill="#000000" stroke="none" stroke-width="0.5"/><path d="M-48.09975,243.52744c0,-0.33543 0.27193,-0.60737 0.60737,-0.60737c0.33543,0 0.60737,0.27194 0.60737,0.60737c0,0.33543 -0.27193,0.60736 -0.60737,0.60736c-0.33543,0 -0.60737,-0.27193 -0.60737,-0.60736z" fill="#000000" stroke="none" stroke-width="0.5"/><path d="M-37.96539,234.0687c0,-0.33543 0.27193,-0.60736 0.60737,-0.60736c0.33543,0 0.60737,0.27193 0.60737,0.60736c0,0.33543 -0.27193,0.60737 -0.60737,0.60737c-0.33543,0 -0.60737,-0.27193 -0.60737,-0.60737z" fill="#000000" stroke="none" stroke-width="0.5"/><path d="M-27.38062,232.49225c0,-0.33543 0.27193,-0.60737 0.60737,-0.60737c0.33543,0 0.60736,0.27193 0.60736,0.60737c0,0.33543 -0.27193,0.60737 -0.60736,0.60737c-0.33544,0 -0.60737,-0.27193 -0.60737,-0.60737z" fill="#000000" stroke="none" stroke-width="0.5"/><path d="M-21.52521,241.95098c0,-0.33543 0.27193,-0.60737 0.60736,-0.60737c0.33544,0 0.60737,0.27193 0.60737,0.60737c0,0.33543 -0.27193,0.60737 -0.60737,0.60737c-0.33544,0 -0.60736,-0.27194 -0.60736,-0.60737z" fill="#000000" stroke="none" stroke-width="0.5"/><path d="M-19.94876,228.2133c0,-0.33543 0.27193,-0.60737 0.60737,-0.60737c0.33544,0 0.60737,0.27193 0.60737,0.60737c0,0.33543 -0.27193,0.60737 -0.60737,0.60737c-0.33544,0 -0.60737,-0.27194 -0.60737,-0.60737z" fill="#000000" stroke="none" stroke-width="0.5"/><path d="M-26.02937,221.00664c0,-0.33543 0.27193,-0.60737 0.60737,-0.60737c0.33544,0 0.60737,0.27193 0.60737,0.60737c0,0.33543 -0.27193,0.60737 -0.60737,0.60737c-0.33544,0 -0.60737,-0.27194 -0.60737,-0.60737z" fill="#000000" stroke="none" stroke-width="0.5"/><path d="M-32.78561,227.08725c0,-0.33543 0.27193,-0.60737 0.60737,-0.60737c0.33544,0 0.60737,0.27193 0.60737,0.60737c0,0.33543 -0.27193,0.60737 -0.60737,0.60737c-0.33544,0 -0.60737,-0.27194 -0.60737,-0.60737z" fill="#000000" stroke="none" stroke-width="0.5"/><g fill="#323232" stroke="none" stroke-width="0.5"><path d="M111.12224,378.47702c0,-0.33544 0.27193,-0.60737 0.60737,-0.60737c0.33544,0 0.60737,0.27193 0.60737,0.60737c0,0.33544 -0.27193,0.60736 -0.60737,0.60736c-0.33544,0 -0.60737,-0.27193 -0.60737,-0.60736z"/><path d="M121.2566,381.40472c0,-0.33544 0.27193,-0.60736 0.60737,-0.60736c0.33544,0 0.60737,0.27193 0.60737,0.60736c0,0.33544 -0.27193,0.60737 -0.60737,0.60737c-0.33544,0 -0.60737,-0.27193 -0.60737,-0.60737z"/><path d="M130.26491,387.93574c0,-0.33544 0.27194,-0.60736 0.60737,-0.60736c0.33544,0 0.60736,0.27193 0.60736,0.60736c0,0.33544 -0.27193,0.60737 -0.60736,0.60737c-0.33543,0 -0.60737,-0.27193 -0.60737,-0.60737z"/><path d="M137.02114,395.3676c0,-0.33544 0.27193,-0.60737 0.60737,-0.60737c0.33543,0 0.60737,0.27193 0.60737,0.60737c0,0.33544 -0.27193,0.60737 -0.60737,0.60737c-0.33544,0 -0.60737,-0.27193 -0.60737,-0.60737z"/><path d="M141.3001,408.42967c0,-0.33544 0.27193,-0.60737 0.60737,-0.60737c0.33543,0 0.60737,0.27193 0.60737,0.60737c0,0.33544 -0.27194,0.60736 -0.60737,0.60736c-0.33544,0 -0.60737,-0.27193 -0.60737,-0.60736z"/><path d="M139.27323,420.81611c0,-0.33544 0.27193,-0.60737 0.60737,-0.60737c0.33543,0 0.60736,0.27193 0.60736,0.60737c0,0.33544 -0.27193,0.60737 -0.60736,0.60737c-0.33544,0 -0.60737,-0.27193 -0.60737,-0.60737z"/><path d="M132.29178,431.85129c0,-0.33544 0.27193,-0.60737 0.60737,-0.60737c0.33543,0 0.60737,0.27193 0.60737,0.60737c0,0.33544 -0.27194,0.60736 -0.60737,0.60736c-0.33544,0 -0.60737,-0.27193 -0.60737,-0.60736z"/><path d="M121.03139,436.80586c0,-0.33544 0.27193,-0.60737 0.60737,-0.60737c0.33544,0 0.60737,0.27193 0.60737,0.60737c0,0.33544 -0.27193,0.60737 -0.60737,0.60737c-0.33544,0 -0.60737,-0.27193 -0.60737,-0.60737z"/><path d="M105.71725,436.80586c0,-0.33544 0.27193,-0.60737 0.60737,-0.60737c0.33544,0 0.60737,0.27193 0.60737,0.60737c0,0.33544 -0.27193,0.60737 -0.60737,0.60737c-0.33544,0 -0.60737,-0.27193 -0.60737,-0.60737z"/><path d="M94.45685,429.374c0,-0.33544 0.27193,-0.60737 0.60736,-0.60737c0.33544,0 0.60737,0.27193 0.60737,0.60737c0,0.33544 -0.27193,0.60737 -0.60737,0.60737c-0.33544,0 -0.60736,-0.27193 -0.60736,-0.60737z"/><path d="M85.89896,420.14047c0,-0.33544 0.27193,-0.60737 0.60737,-0.60737c0.33544,0 0.60737,0.27193 0.60737,0.60737c0,0.33544 -0.27193,0.60737 -0.60737,0.60737c-0.33544,0 -0.60737,-0.27193 -0.60737,-0.60737z"/><path d="M85.22332,402.79946c0,-0.33544 0.27193,-0.60736 0.60737,-0.60736c0.33544,0 0.60737,0.27193 0.60737,0.60736c0,0.33544 -0.27193,0.60737 -0.60737,0.60737c-0.33544,0 -0.60737,-0.27193 -0.60737,-0.60737z"/><path d="M93.55602,391.08866c0,-0.33544 0.27193,-0.60736 0.60736,-0.60736c0.33544,0 0.60737,0.27193 0.60737,0.60736c0,0.33544 -0.27193,0.60737 -0.60737,0.60737c-0.33544,0 -0.60736,-0.27193 -0.60736,-0.60737z"/><path d="M101.66351,384.55763c0,-0.33544 0.27193,-0.60736 0.60736,-0.60736c0.33544,0 0.60737,0.27193 0.60737,0.60736c0,0.33544 -0.27193,0.60737 -0.60737,0.60737c-0.33544,0 -0.60736,-0.27193 -0.60736,-0.60737z"/><path d="M112.92391,389.5122c0,-0.33544 0.27193,-0.60737 0.60737,-0.60737c0.33544,0 0.60737,0.27193 0.60737,0.60737c0,0.33544 -0.27193,0.60736 -0.60737,0.60736c-0.33544,0 -0.60737,-0.27193 -0.60737,-0.60736z"/><path d="M125.76076,396.04323c0,-0.33544 0.27193,-0.60737 0.60737,-0.60737c0.33543,0 0.60736,0.27193 0.60736,0.60737c0,0.33544 -0.27193,0.60736 -0.60736,0.60736c-0.33544,0 -0.60737,-0.27193 -0.60737,-0.60736z"/><path d="M126.66158,408.88008c0,-0.33544 0.27193,-0.60737 0.60737,-0.60737c0.33543,0 0.60736,0.27193 0.60736,0.60737c0,0.33544 -0.27193,0.60737 -0.60736,0.60737c-0.33544,0 -0.60737,-0.27193 -0.60737,-0.60737z"/><path d="M121.03139,415.1859c0,-0.33544 0.27193,-0.60737 0.60737,-0.60737c0.33544,0 0.60737,0.27193 0.60737,0.60737c0,0.33544 -0.27193,0.60737 -0.60737,0.60737c-0.33544,0 -0.60737,-0.27193 -0.60737,-0.60737z"/><path d="M118.10369,423.5186c0,-0.33544 0.27193,-0.60737 0.60737,-0.60737c0.33544,0 0.60737,0.27193 0.60737,0.60737c0,0.33544 -0.27193,0.60736 -0.60737,0.60736c-0.33544,0 -0.60737,-0.27193 -0.60737,-0.60736z"/><path d="M129.58929,419.91527c0,-0.33544 0.27193,-0.60736 0.60737,-0.60736c0.33543,0 0.60737,0.27193 0.60737,0.60736c0,0.33544 -0.27194,0.60737 -0.60737,0.60737c-0.33544,0 -0.60737,-0.27193 -0.60737,-0.60737z"/><path d="M104.366,420.36568c0,-0.33544 0.27193,-0.60737 0.60737,-0.60737c0.33544,0 0.60737,0.27193 0.60737,0.60737c0,0.33544 -0.27193,0.60737 -0.60737,0.60737c-0.33544,0 -0.60737,-0.27193 -0.60737,-0.60737z"/><path d="M109.09537,425.77068c0,-0.33544 0.27193,-0.60737 0.60737,-0.60737c0.33544,0 0.60737,0.27193 0.60737,0.60737c0,0.33544 -0.27193,0.60737 -0.60737,0.60737c-0.33544,0 -0.60737,-0.27193 -0.60737,-0.60737z"/><path d="M105.49205,408.20446c0,-0.33544 0.27193,-0.60737 0.60737,-0.60737c0.33544,0 0.60737,0.27193 0.60737,0.60737c0,0.33544 -0.27193,0.60736 -0.60737,0.60736c-0.33544,0 -0.60737,-0.27193 -0.60737,-0.60736z"/><path d="M97.60976,409.78091c0,-0.33544 0.27193,-0.60737 0.60737,-0.60737c0.33544,0 0.60737,0.27193 0.60737,0.60737c0,0.33544 -0.27193,0.60736 -0.60737,0.60736c-0.33544,0 -0.60737,-0.27193 -0.60737,-0.60736z"/><path d="M89.05186,410.45653c0,-0.33544 0.27193,-0.60737 0.60737,-0.60737c0.33544,0 0.60737,0.27193 0.60737,0.60737c0,0.33544 -0.27193,0.60737 -0.60737,0.60737c-0.33544,0 -0.60737,-0.27193 -0.60737,-0.60737z"/><path d="M99.18622,400.99781c0,-0.33544 0.27193,-0.60737 0.60737,-0.60737c0.33544,0 0.60737,0.27193 0.60737,0.60737c0,0.33544 -0.27193,0.60737 -0.60737,0.60737c-0.33544,0 -0.60737,-0.27193 -0.60737,-0.60737z"/><path d="M109.77099,399.42135c0,-0.33544 0.27193,-0.60737 0.60737,-0.60737c0.33544,0 0.60737,0.27193 0.60737,0.60737c0,0.33544 -0.27193,0.60737 -0.60737,0.60737c-0.33544,0 -0.60737,-0.27193 -0.60737,-0.60737z"/><path d="M115.6264,408.88008c0,-0.33544 0.27193,-0.60737 0.60736,-0.60737c0.33544,0 0.60737,0.27193 0.60737,0.60737c0,0.33544 -0.27193,0.60737 -0.60737,0.60737c-0.33544,0 -0.60736,-0.27193 -0.60736,-0.60737z"/><path d="M117.20285,395.1424c0,-0.33544 0.27193,-0.60737 0.60737,-0.60737c0.33544,0 0.60737,0.27193 0.60737,0.60737c0,0.33544 -0.27193,0.60737 -0.60737,0.60737c-0.33544,0 -0.60737,-0.27193 -0.60737,-0.60737z"/><path d="M111.12224,387.93574c0,-0.33544 0.27193,-0.60736 0.60737,-0.60736c0.33544,0 0.60737,0.27193 0.60737,0.60736c0,0.33544 -0.27193,0.60737 -0.60737,0.60737c-0.33544,0 -0.60737,-0.27193 -0.60737,-0.60737z"/><path d="M104.366,394.01636c0,-0.33544 0.27193,-0.60737 0.60737,-0.60737c0.33544,0 0.60737,0.27193 0.60737,0.60737c0,0.33544 -0.27193,0.60737 -0.60737,0.60737c-0.33544,0 -0.60737,-0.27193 -0.60737,-0.60737z"/></g><g fill="#000000" stroke="none" stroke-width="0.5"><path d="M111.23549,377.96637c0,-0.33544 0.27193,-0.60737 0.60737,-0.60737c0.33544,0 0.60737,0.27193 0.60737,0.60737c0,0.33544 -0.27193,0.60736 -0.60737,0.60736c-0.33544,0 -0.60737,-0.27193 -0.60737,-0.60736z"/><path d="M121.36984,380.89407c0,-0.33544 0.27193,-0.60736 0.60737,-0.60736c0.33544,0 0.60737,0.27193 0.60737,0.60736c0,0.33544 -0.27193,0.60737 -0.60737,0.60737c-0.33544,0 -0.60737,-0.27193 -0.60737,-0.60737z"/><path d="M130.37815,387.42509c0,-0.33544 0.27193,-0.60736 0.60737,-0.60736c0.33543,0 0.60737,0.27193 0.60737,0.60736c0,0.33544 -0.27193,0.60737 -0.60737,0.60737c-0.33544,0 -0.60737,-0.27193 -0.60737,-0.60737z"/><path d="M137.13438,394.85697c0,-0.33544 0.27193,-0.60737 0.60736,-0.60737c0.33544,0 0.60737,0.27193 0.60737,0.60737c0,0.33544 -0.27193,0.60736 -0.60737,0.60736c-0.33543,0 -0.60736,-0.27193 -0.60736,-0.60736z"/><path d="M141.41335,407.91902c0,-0.33544 0.27193,-0.60737 0.60737,-0.60737c0.33544,0 0.60737,0.27193 0.60737,0.60737c0,0.33544 -0.27193,0.60736 -0.60737,0.60736c-0.33543,0 -0.60737,-0.27193 -0.60737,-0.60736z"/><path d="M139.38647,420.30546c0,-0.33544 0.27193,-0.60737 0.60737,-0.60737c0.33544,0 0.60737,0.27193 0.60737,0.60737c0,0.33544 -0.27193,0.60736 -0.60737,0.60736c-0.33543,0 -0.60737,-0.27193 -0.60737,-0.60736z"/><path d="M132.40503,431.34064c0,-0.33544 0.27193,-0.60737 0.60737,-0.60737c0.33543,0 0.60737,0.27193 0.60737,0.60737c0,0.33544 -0.27194,0.60736 -0.60737,0.60736c-0.33544,0 -0.60737,-0.27193 -0.60737,-0.60736z"/><path d="M121.14464,436.29522c0,-0.33544 0.27193,-0.60737 0.60737,-0.60737c0.33544,0 0.60737,0.27193 0.60737,0.60737c0,0.33544 -0.27193,0.60737 -0.60737,0.60737c-0.33544,0 -0.60737,-0.27193 -0.60737,-0.60737z"/><path d="M105.83049,436.29522c0,-0.33544 0.27193,-0.60737 0.60737,-0.60737c0.33544,0 0.60737,0.27193 0.60737,0.60737c0,0.33544 -0.27193,0.60737 -0.60737,0.60737c-0.33544,0 -0.60737,-0.27193 -0.60737,-0.60737z"/><path d="M94.5701,428.86335c0,-0.33544 0.27193,-0.60737 0.60737,-0.60737c0.33544,0 0.60737,0.27193 0.60737,0.60737c0,0.33544 -0.27193,0.60737 -0.60737,0.60737c-0.33544,0 -0.60737,-0.27193 -0.60737,-0.60737z"/><path d="M86.01219,419.62984c0,-0.33544 0.27193,-0.60737 0.60737,-0.60737c0.33544,0 0.60737,0.27193 0.60737,0.60737c0,0.33544 -0.27193,0.60737 -0.60737,0.60737c-0.33544,0 -0.60737,-0.27193 -0.60737,-0.60737z"/><path d="M85.33657,402.28883c0,-0.33544 0.27193,-0.60737 0.60737,-0.60737c0.33544,0 0.60737,0.27193 0.60737,0.60737c0,0.33544 -0.27193,0.60737 -0.60737,0.60737c-0.33544,0 -0.60737,-0.27193 -0.60737,-0.60737z"/><path d="M93.66925,390.57801c0,-0.33544 0.27193,-0.60736 0.60737,-0.60736c0.33544,0 0.60737,0.27193 0.60737,0.60736c0,0.33544 -0.27193,0.60737 -0.60737,0.60737c-0.33544,0 -0.60737,-0.27193 -0.60737,-0.60737z"/><path d="M101.77674,384.04698c0,-0.33544 0.27193,-0.60736 0.60736,-0.60736c0.33544,0 0.60737,0.27193 0.60737,0.60736c0,0.33544 -0.27193,0.60737 -0.60737,0.60737c-0.33544,0 -0.60736,-0.27193 -0.60736,-0.60737z"/><path d="M113.03714,389.00155c0,-0.33544 0.27193,-0.60737 0.60737,-0.60737c0.33544,0 0.60737,0.27193 0.60737,0.60737c0,0.33544 -0.27193,0.60736 -0.60737,0.60736c-0.33544,0 -0.60737,-0.27193 -0.60737,-0.60736z"/><path d="M125.87399,395.53259c0,-0.33544 0.27194,-0.60737 0.60737,-0.60737c0.33544,0 0.60737,0.27193 0.60737,0.60737c0,0.33544 -0.27193,0.60737 -0.60737,0.60737c-0.33543,0 -0.60737,-0.27193 -0.60737,-0.60737z"/><path d="M126.77483,408.36944c0,-0.33544 0.27193,-0.60737 0.60737,-0.60737c0.33543,0 0.60737,0.27193 0.60737,0.60737c0,0.33544 -0.27193,0.60736 -0.60737,0.60736c-0.33544,0 -0.60737,-0.27193 -0.60737,-0.60736z"/><path d="M121.14464,414.67525c0,-0.33544 0.27193,-0.60737 0.60737,-0.60737c0.33544,0 0.60737,0.27193 0.60737,0.60737c0,0.33544 -0.27193,0.60737 -0.60737,0.60737c-0.33544,0 -0.60737,-0.27193 -0.60737,-0.60737z"/><path d="M118.21694,423.00795c0,-0.33544 0.27193,-0.60737 0.60737,-0.60737c0.33544,0 0.60737,0.27193 0.60737,0.60737c0,0.33544 -0.27193,0.60736 -0.60737,0.60736c-0.33544,0 -0.60737,-0.27193 -0.60737,-0.60736z"/><path d="M129.70253,419.40462c0,-0.33544 0.27193,-0.60736 0.60737,-0.60736c0.33544,0 0.60737,0.27193 0.60737,0.60736c0,0.33544 -0.27193,0.60737 -0.60737,0.60737c-0.33543,0 -0.60737,-0.27193 -0.60737,-0.60737z"/><path d="M104.47925,419.85503c0,-0.33544 0.27193,-0.60737 0.60737,-0.60737c0.33544,0 0.60737,0.27193 0.60737,0.60737c0,0.33544 -0.27193,0.60737 -0.60737,0.60737c-0.33544,0 -0.60737,-0.27193 -0.60737,-0.60737z"/><path d="M109.20862,425.26003c0,-0.33544 0.27193,-0.60737 0.60737,-0.60737c0.33544,0 0.60737,0.27193 0.60737,0.60737c0,0.33544 -0.27193,0.60737 -0.60737,0.60737c-0.33544,0 -0.60737,-0.27193 -0.60737,-0.60737z"/><path d="M105.60528,407.69382c0,-0.33544 0.27193,-0.60737 0.60737,-0.60737c0.33544,0 0.60737,0.27193 0.60737,0.60737c0,0.33544 -0.27193,0.60737 -0.60737,0.60737c-0.33544,0 -0.60737,-0.27193 -0.60737,-0.60737z"/><path d="M97.72301,409.27026c0,-0.33544 0.27193,-0.60737 0.60736,-0.60737c0.33544,0 0.60737,0.27193 0.60737,0.60737c0,0.33544 -0.27193,0.60736 -0.60737,0.60736c-0.33544,0 -0.60736,-0.27193 -0.60736,-0.60736z"/><path d="M89.16511,409.9459c0,-0.33544 0.27193,-0.60737 0.60737,-0.60737c0.33544,0 0.60737,0.27193 0.60737,0.60737c0,0.33544 -0.27193,0.60736 -0.60737,0.60736c-0.33544,0 -0.60737,-0.27193 -0.60737,-0.60736z"/><path d="M99.29947,400.48716c0,-0.33544 0.27193,-0.60737 0.60737,-0.60737c0.33544,0 0.60737,0.27193 0.60737,0.60737c0,0.33544 -0.27193,0.60737 -0.60737,0.60737c-0.33544,0 -0.60737,-0.27193 -0.60737,-0.60737z"/><path d="M109.88424,398.9107c0,-0.33544 0.27193,-0.60737 0.60737,-0.60737c0.33544,0 0.60737,0.27193 0.60737,0.60737c0,0.33544 -0.27193,0.60737 -0.60737,0.60737c-0.33544,0 -0.60737,-0.27193 -0.60737,-0.60737z"/><path d="M115.73964,408.36944c0,-0.33544 0.27193,-0.60737 0.60737,-0.60737c0.33544,0 0.60737,0.27193 0.60737,0.60737c0,0.33544 -0.27193,0.60736 -0.60737,0.60736c-0.33544,0 -0.60737,-0.27193 -0.60737,-0.60736z"/><path d="M117.3161,394.63175c0,-0.33544 0.27193,-0.60736 0.60737,-0.60736c0.33544,0 0.60737,0.27193 0.60737,0.60736c0,0.33544 -0.27193,0.60737 -0.60737,0.60737c-0.33544,0 -0.60737,-0.27193 -0.60737,-0.60737z"/><path d="M111.23549,387.42509c0,-0.33544 0.27193,-0.60736 0.60737,-0.60736c0.33544,0 0.60737,0.27193 0.60737,0.60736c0,0.33544 -0.27193,0.60737 -0.60737,0.60737c-0.33544,0 -0.60737,-0.27193 -0.60737,-0.60737z"/><path d="M104.47925,393.50571c0,-0.33544 0.27193,-0.60737 0.60737,-0.60737c0.33544,0 0.60737,0.27193 0.60737,0.60737c0,0.33544 -0.27193,0.60737 -0.60737,0.60737c-0.33544,0 -0.60737,-0.27193 -0.60737,-0.60737z"/></g></g></g></svg>