<svg version="1.1" xmlns="http://www.w3.org/2000/svg" xmlns:xlink="http://www.w3.org/1999/xlink" width="184.596" height="123.96579" viewBox="0,0,184.596,123.96579"><g transform="translate(-151.162,-120.5972)"><g data-paper-data="{&quot;isPaintingLayer&quot;:true}" fill-rule="nonzero" stroke="none" stroke-width="1" stroke-linecap="butt" stroke-linejoin="miter" stroke-miterlimit="10" stroke-dasharray="" stroke-dashoffset="0" style="mix-blend-mode: normal"><path d="M278.4,131.994v2.107c-1.697,0 -7.029,0.163 -10.341,0.081v-2.107c2.908,-0.081 7.432,-0.162 10.341,-0.081z" fill="#fab414"/><path d="M280.581,137.505c-1.616,0.405 -3.151,0.649 -4.767,0.811l-2.423,-10.86c1.535,-0.729 4.605,-0.729 4.605,-0.729z" fill="#ffc800"/><path d="M220.072,132.075v2.107c-3.312,0.082 -8.644,-0.081 -10.341,-0.081v-2.107c2.828,-0.081 7.352,0 10.341,0.081z" fill="#fab414"/><path d="M210.135,126.727c0,0 3.07,0 4.605,0.729l-2.423,10.86c-1.616,-0.162 -3.151,-0.406 -4.767,-0.811z" fill="#ffc800"/><path d="M274.764,150.067l-60.912,0.243c0.807,-7.213 2.181,-20.99 4.281,-25.366c2.505,-5.187 7.594,-3.971 12.684,-4.053c5.412,-0.081 30.052,-1.053 37.646,1.054c2.02,1.945 5.574,21.557 6.301,28.122z" fill="#a0aa1e"/><path d="M272.502,135.56c0,0 0.081,0 0.081,0.081z" fill="#a0aa1e"/><path d="M251.417,133.939c-3.151,1.054 -13.734,0.568 -14.057,0.325c0,-2.675 -0.565,-5.511 6.14,-5.917c6.705,-0.405 7.352,3.161 7.917,5.592z" fill="#82783c"/><path d="M241.965,137.019c0,0 2.989,-0.162 4.443,-0.081c0.162,0.405 0.243,0.891 0.162,1.297c-0.081,0.081 -0.081,0.243 -0.162,0.243c-0.565,0 -4.201,0.324 -4.443,-0.243c0,-0.325 0,-0.811 0,-1.216z" fill="#000000"/><path d="M266.12,132.724c0,1.215 -0.646,1.377 -1.131,1.377c-1.292,-0.081 -1.373,-1.783 -1.05,-2.269c0.161,-0.405 0.565,-0.729 1.05,-0.729c0.485,0 1.131,0.405 1.131,1.621z" fill="#000000"/><path d="M227.02,132.724c0,1.215 -0.647,1.377 -1.131,1.377c-1.293,-0.081 -1.374,-1.783 -1.051,-2.269c0.162,-0.405 0.566,-0.729 1.051,-0.729c0.484,0 1.131,0.405 1.131,1.621z" fill="#000000"/><path d="M248.67,131.589c0.647,0 1.131,0.486 1.131,1.135c0,0.81 -0.646,0.891 -1.131,0.891c-1.292,-0.081 -1.292,-1.215 -1.05,-1.54c0.242,-0.324 0.646,-0.486 1.05,-0.486c0.081,0 0.081,0 0,0z" fill="#645a1e"/><path d="M184.607,191.966c0,0 -29.891,3.161 -33.445,-1.054c1.211,-26.501 31.91,-38.009 31.91,-38.009z" fill="#824600"/><path d="M335.758,189.616c-1.616,1.783 -14.299,0.972 -27.952,1.296l-12.037,-14.02l7.593,-25.528c5.575,2.026 30.699,18.153 32.396,38.252z" fill="#824600"/><path d="M183.153,174.218c-0.404,-7.294 -0.081,-21.477 -0.081,-21.477c0,0 7.352,-3.647 13.249,-5.835c5.897,-2.188 14.218,-3.404 14.218,-3.404c0,0 60.913,-0.486 69.072,-0.162c7.352,0.324 19.631,3.404 23.751,7.942c0.243,1.378 2.343,16.695 2.424,17.019c0.969,5.025 1.939,22.611 1.939,22.611l-62.771,24.718l-60.428,-23.664c0,0 -0.808,-7.375 -1.373,-17.748z" fill="#a0640a"/><path d="M252.952,198.206l-7.675,45.627l-58.57,0.73l-2.262,-52.597c0,0 20.035,-26.663 24.559,-28.365c0.081,0.243 3.636,0 3.636,0c0,0 16.319,-0.162 32.637,-0.162z" fill="#008264"/><path d="M245.358,163.439c14.784,0 30.052,0.081 35.223,0.405c5.251,2.918 27.144,27.068 27.144,27.068l1.616,52.111l-64.064,0.81z" fill="#00a08c"/><path d="M283.085,141.638c1.374,8.348 1.131,36.389 1.131,36.389l-7.755,-0.082l-0.808,-36.307z" fill="#005a5a"/><path d="M280.662,171.786c1.211,0.081 2.181,1.135 2.1,2.35c0,1.702 -1.293,2.027 -2.343,1.946c-2.666,-0.082 -2.747,-2.513 -2.181,-3.242c0.565,-0.73 1.373,-1.135 2.262,-1.135c0,0 0.081,0 0.162,0.081z" fill="#ffc800"/><path d="M213.124,141.638l-0.807,36.307l-7.675,0.082c0,0 -0.242,-28.041 1.131,-36.389z" fill="#005a5a"/><path d="M208.277,171.705c0.889,0 1.697,0.405 2.262,1.135c0.566,0.729 0.485,3.16 -2.181,3.242c-1.05,0.081 -2.343,-0.244 -2.343,-1.946c-0.081,-1.215 0.889,-2.269 2.101,-2.35c0,-0.081 0.081,-0.081 0.161,-0.081z" fill="#ffc800"/><path d="M258.688,183.213c0.081,1.135 0.081,2.269 0.081,3.404c0.08,4.944 -1.212,11.265 -6.059,14.02c-4.201,2.432 -13.169,2.108 -17.127,-0.81c-3.312,-3.566 -5.574,-11.103 -4.282,-16.614z" fill="#005a5a"/><path d="M229.362,178.027h31.022v8.752h-31.022z" fill="#006482"/><path d="M245.358,180.458c1.293,0.081 2.262,1.215 2.181,2.512c0,1.783 -1.211,2.107 -2.342,2.026c-2.747,-0.162 -2.909,-2.593 -2.263,-3.404c0.566,-0.729 1.455,-1.215 2.343,-1.134z" fill="#fab414"/></g></g></svg>