<svg version="1.1" xmlns="http://www.w3.org/2000/svg" xmlns:xlink="http://www.w3.org/1999/xlink" width="42.91092" height="35" viewBox="0,0,42.91092,35"><g transform="translate(-218.54454,-162.5)"><g data-paper-data="{&quot;isPaintingLayer&quot;:true}" stroke-miterlimit="10" stroke-dasharray="" stroke-dashoffset="0" style="mix-blend-mode: normal"><path d="M218.54454,197.5v-35h42.91092v35z" fill="#ffe800" fill-rule="nonzero" stroke="none" stroke-width="NaN" stroke-linecap="butt" stroke-linejoin="miter"/><path d="M242.96868,167.59325c0.12814,-0.08543 0.34172,-0.04271 0.38443,0.12814l1.11059,4.57049c0,0 2.73375,2.0076 3.54533,3.41719c1.36687,2.34932 1.40959,4.27148 1.40959,4.27148c0,0 3.03275,0.89701 3.54533,3.33176c0.51258,2.43474 -1.36687,7.04795 -9.39726,8.62839c-8.03039,1.58045 -14.48032,-0.59801 -17.51308,-5.4675c-3.03275,-4.86949 1.75131,-10.6787 1.49502,-10.33699l-0.89701,-7.64595c-0.04271,-0.17086 0.17086,-0.299 0.34172,-0.21357l5.16849,3.37447c0,0 1.92217,-0.72615 3.92976,-0.81158c1.19601,-0.08543 2.22117,0 3.20361,0.17086z" fill="#000000" fill-rule="evenodd" stroke="#000000" stroke-width="1.2" stroke-linecap="butt" stroke-linejoin="miter"/><path d="M249.29047,180.1514c0,0 2.94732,0.76887 3.4599,3.20361c0.51258,2.43474 -1.53773,6.83437 -9.48269,8.3721c-10.33699,2.13574 -15.24919,-4.01519 -12.3873,-8.54296c2.86189,-4.57049 7.7741,-0.68344 11.36214,-0.93973c3.07547,-0.21357 3.41719,-2.90461 7.04795,-2.09303z" fill="#000000" fill-rule="evenodd" stroke="#000000" stroke-width="1" stroke-linecap="butt" stroke-linejoin="miter"/><path d="M235.83531,184.72189c0,-0.17086 0.17086,-0.299 0.34172,-0.25629c0.81158,0.299 3.11818,0.98244 5.68107,1.1533c2.3066,0.12814 3.67347,0 4.3142,-0.12814c0.21357,-0.04271 0.38443,0.17086 0.299,0.38443c-0.38443,1.1533 -2.0076,4.35691 -6.49265,4.10062c-3.88705,-0.42715 -4.27148,-3.1609 -4.14334,-5.25392z" fill="#000000" fill-rule="evenodd" stroke="#000000" stroke-width="1.2" stroke-linecap="round" stroke-linejoin="round"/><path d="M257.15,180.62127c-2.0076,1.62316 -5.08306,1.66588 -5.08306,1.66588" fill="#000000" fill-rule="evenodd" stroke="#000000" stroke-width="1.2" stroke-linecap="round" stroke-linejoin="round"/><path d="M256.59471,185.40533c-2.69103,0.21357 -4.35691,-0.59801 -4.35691,-0.59801" fill="#000000" fill-rule="evenodd" stroke="#000000" stroke-width="1.2" stroke-linecap="round" stroke-linejoin="round"/><path d="M242.07167,181.13384c0.89701,0 1.83674,0.08543 1.87945,0.38443c0.04271,0.59801 -0.59801,1.79402 -1.28144,1.83674c-0.76887,0.08543 -2.56289,-0.98244 -2.56289,-1.66588c-0.04271,-0.51258 1.11059,-0.55529 1.96488,-0.55529z" fill="#000000" fill-rule="evenodd" stroke="#000000" stroke-width="1.2" stroke-linecap="round" stroke-linejoin="round"/><path d="M222.85,180.49312c0,0 3.67347,1.19601 5.16849,2.52017" fill="#000000" fill-rule="evenodd" stroke="#000000" stroke-width="1.2" stroke-linecap="round" stroke-linejoin="round"/><path d="M228.14664,184.50832c-1.83674,0.72615 -4.99763,0.25629 -4.99763,0.25629" fill="#000000" fill-rule="evenodd" stroke="#000000" stroke-width="1.2" stroke-linecap="round" stroke-linejoin="round"/><path d="M244.94286,178.24531c-0.04049,0.46812 -0.41406,0.82168 -0.83962,0.78487c-0.42556,-0.03681 -0.73288,-0.44926 -0.69239,-0.91737c0.04049,-0.46812 0.41406,-0.82167 0.83962,-0.78486c0.42556,0.03681 0.73288,0.44926 0.69239,0.91737" fill="#ff0000" fill-rule="evenodd" stroke="#ff0000" stroke-width="1" stroke-linecap="butt" stroke-linejoin="miter"/><path d="M234.19713,178.55924c-0.04049,0.46812 -0.41406,0.82168 -0.83962,0.78487c-0.42556,-0.03681 -0.73288,-0.44926 -0.69239,-0.91737c0.04049,-0.46812 0.41406,-0.82168 0.83962,-0.78487c0.42188,0.07936 0.73288,0.44926 0.69239,0.91737" fill="#ff0000" fill-rule="evenodd" stroke="#ff0000" stroke-width="1" stroke-linecap="butt" stroke-linejoin="miter"/></g></g></svg>