<svg version="1.1" xmlns="http://www.w3.org/2000/svg" xmlns:xlink="http://www.w3.org/1999/xlink" width="44" height="52.125" viewBox="0,0,44,52.125"><g transform="translate(-218,-158)"><g data-paper-data="{&quot;isPaintingLayer&quot;:true}" fill-rule="nonzero" stroke-linejoin="miter" stroke-miterlimit="10" stroke-dasharray="" stroke-dashoffset="0" style="mix-blend-mode: normal"><path d="M218,177.75c0,-3.68976 2.78334,-5.71058 4.38861,-7.43216c3.68083,-3.94752 9.15089,-4.19284 17.61139,-4.19284c8.8735,0 15.14501,-0.28015 18.62394,4.3015c1.28468,1.69189 3.37606,4.04674 3.37606,7.3235c0,0.46567 -0.01447,11.30297 -0.04298,11.76146c-0.71541,11.50434 -10.27243,20.61354 -21.95702,20.61354c-11.72317,0 -21.30471,-9.16946 -21.96382,-20.72758c-0.02401,-0.42108 -0.03618,-11.22033 -0.03618,-11.64742z" fill="#0fdc00" stroke="none" stroke-width="0" stroke-linecap="butt"/><path d="M218,180c0,-12.15026 9.84974,-22 22,-22c12.15026,0 22,9.84974 22,22c0,12.15026 -9.84974,22 -22,22c-12.15026,0 -22,-9.84974 -22,-22z" fill="#13ff00" stroke="none" stroke-width="0" stroke-linecap="butt"/><g stroke-width="3.5"><path d="M233.07571,177.3892c0,0 1.3814,-12.48643 3.63242,-12.48643c0.03119,0 6.78618,0.02438 6.83375,0.08605c2.82251,3.65872 2.92836,12.40038 2.92836,12.40038" fill="none" stroke="#0ba200" stroke-linecap="round"/><path d="M230.46491,195.09722v-20.43233h19.07018v20.43233z" fill="#0ba200" stroke="none" stroke-linecap="butt"/></g></g></g></svg>