<svg version="1.1" xmlns="http://www.w3.org/2000/svg" xmlns:xlink="http://www.w3.org/1999/xlink" width="60.68556" height="47.74667" viewBox="0,0,60.68556,47.74667"><g transform="translate(-206.10722,-124.40333)"><g data-paper-data="{&quot;isPaintingLayer&quot;:true}" fill-rule="nonzero" stroke="none" stroke-width="1" stroke-linecap="butt" stroke-linejoin="miter" stroke-miterlimit="10" stroke-dasharray="" stroke-dashoffset="0" style="mix-blend-mode: normal"><g><path d="M246.3,145.9c2.3,-3.8 8,-3.5 11.6,-3.5c3.6,0 6.8,-2.3 8.5,-1.9c1.7,0.4 -2.5,1.9 -5.3,4.7c-2.8,2.8 -6.5,7.9 -13.2,6.2c-2.8,-0.7 -2.6,-3.8 -1.6,-5.5z" fill="#a2b04a"/><path d="M248.8,149.2c0.4,-0.1 1.1,-0.3 1.8,-0.7c0.3,-0.2 0.7,-0.5 1,-0.8c0.2,-0.1 0.4,-0.3 0.5,-0.5l0.2,-0.3l0.3,-0.3c0.1,-0.2 0.4,-0.4 0.6,-0.6c0.2,-0.2 0.5,-0.4 0.7,-0.5c0.5,-0.3 1,-0.5 1.5,-0.7c1,-0.4 2.1,-0.7 3.1,-0.9c1,-0.2 1.9,-0.4 2.7,-0.6c0.8,-0.2 1.4,-0.4 1.9,-0.5c0.4,-0.1 0.7,-0.2 0.7,-0.2c0,0 -0.3,0.1 -0.7,0.3c-0.5,0.2 -1.1,0.5 -1.9,0.7c-0.8,0.3 -1.7,0.5 -2.7,0.8c-1,0.2 -2.1,0.5 -3.1,0.9c-0.6,0.1 -1,0.4 -1.5,0.6c-0.5,0.3 -0.9,0.5 -1.2,0.9c-0.2,0.2 -0.3,0.4 -0.5,0.6c-0.1,0.2 -0.3,0.3 -0.5,0.5c-0.4,0.3 -0.8,0.5 -1.2,0.7c-0.8,0.4 -1.5,0.5 -2,0.5c-0.5,0 -0.8,0 -0.8,0c0,0 0.2,0 1.1,0.1z" fill="#698237"/><path d="M246.4,145.6c0.2,-0.3 0.4,-0.6 0.7,-1c0.3,-0.3 0.8,-0.7 1.3,-1c0.5,-0.3 1.1,-0.6 1.7,-0.8c0.6,-0.2 1.2,-0.3 1.8,-0.4c0.6,-0.1 1.1,-0.1 1.6,-0.1c0.4,0 0.8,0.1 1.1,0.1c0.2,0 0.4,0 0.4,0c0,0 -0.1,0.1 -0.4,0.1c-0.3,0.1 -0.6,0.1 -1.1,0.2c-0.5,0.1 -1,0.2 -1.6,0.3c-0.5,0.1 -1.1,0.2 -1.7,0.4c-0.5,0.2 -1.1,0.5 -1.6,0.7c-0.5,0.2 -0.9,0.5 -1.3,0.8c-0.7,0.5 -1,1.1 -1,1.1c0,0 0,-0.2 0.1,-0.4z" fill="#698237"/></g><path d="M229.3,163.5c1.4,-4.6 10.6,-5.9 12.2,1.5c0,0 -0.2,5.4 1.2,7c-1.3,0.2 -2.5,0.2 -3.3,0c-2,-0.4 -6.5,-3.5 -10.1,-8.5z" fill="#a2b04a"/><g><path d="M224.1,135.6c4.4,-12 17.9,-13.7 25.2,-8.2c8.1,6.1 7.1,19.7 7.1,19.7c0,0 4.2,6.4 -1.7,14c-3,3.8 -7.1,6.1 -12.8,6.3c-4.7,0.2 -16,-4.8 -18.5,-15c-1,-4.6 -0.9,-12.4 0.7,-16.8z" fill="#a2b04a"/><path d="M237.6,150.4c-0.60751,0 -1.1,-1.11929 -1.1,-2.5c0,-1.38071 0.49249,-2.5 1.1,-2.5c0.60751,0 1.1,1.11929 1.1,2.5c0,1.38071 -0.49249,2.5 -1.1,2.5z" fill="#382c18"/><path d="M250.2,149.8c-0.60751,0 -1.1,-1.11929 -1.1,-2.5c0,-1.38071 0.49249,-2.5 1.1,-2.5c0.60751,0 1.1,1.11929 1.1,2.5c0,1.38071 -0.49249,2.5 -1.1,2.5z" fill="#382c18"/><path d="M246.2,150.5c0.2,0.3 0.5,0.7 0.8,1.1c0.3,0.4 0.6,0.9 0.9,1.2c0.4,0.2 0.9,0.5 1.4,0.7c0.5,0.2 1.1,0.4 1.6,0.7c0.3,0.2 0.6,0.3 0.8,0.6c0.3,0.3 0.4,0.7 0.2,1.1c-0.1,0.1 -0.2,0.3 -0.3,0.4c-0.1,0.1 -0.1,0.2 -0.3,0.3c-0.3,0.2 -0.5,0.3 -0.8,0.4c-0.6,0.2 -1.1,0.3 -1.6,0.3c-0.5,0 -1,0 -1.4,0c-0.9,-0.1 -1.6,-0.1 -2.1,-0.1c-0.5,0 -0.8,0.1 -0.8,0.1c0,0 0.3,-0.1 0.8,-0.2c0.5,-0.1 1.2,-0.2 2.1,-0.2c0.8,0 1.9,-0.1 2.8,-0.4c0.2,0 0.4,-0.2 0.6,-0.3c0.1,-0.1 0.2,-0.2 0.3,-0.3c0.1,-0.1 0.1,-0.2 0.2,-0.3c0.1,-0.2 0,-0.3 -0.1,-0.5c-0.1,-0.1 -0.4,-0.3 -0.6,-0.4c-0.5,-0.2 -1,-0.5 -1.5,-0.7c-0.5,-0.3 -1,-0.5 -1.5,-0.9c-0.4,-0.4 -0.6,-0.9 -0.9,-1.3c-0.2,-0.4 -0.5,-0.8 -0.7,-1.2c-0.9,-1.5 -1.4,-2.5 -1.4,-2.5c0,0 0.7,1 1.5,2.4z" fill="#546626"/><path d="M244.4,156.8c0,0 -0.1,0.1 -0.2,0.1c-0.1,0 -0.2,0 -0.3,0.1c-0.2,0.1 -0.3,0.2 -0.5,0.2c-0.2,0.1 -0.3,0.1 -0.3,0.1c0,0 0,-0.2 0.1,-0.3c0.1,-0.1 0.1,-0.1 0.2,-0.2c0.1,-0.1 0.2,-0.1 0.3,-0.2c0.2,-0.1 0.4,-0.1 0.6,-0.1c0.2,0 0.3,0 0.3,0c0,0 0,0.1 -0.2,0.3z" fill="#546626"/><path d="M247,161.4c-0.5,0.2 -1,0.4 -1.6,0.5c-0.6,0.1 -1.3,0.1 -1.9,0.1c-0.7,0 -1.3,-0.1 -1.9,-0.2c-0.6,-0.2 -1.2,-0.3 -1.6,-0.5c-0.4,-0.2 -0.7,-0.4 -1,-0.5c-0.3,-0.1 -0.4,-0.2 -0.4,-0.2c0,0 0.1,0 0.4,0.1c0.3,0 0.6,0.1 1.1,0.2c0.5,0.1 1,0.2 1.6,0.3c0.6,0 1.2,0.1 1.8,0.1c1.2,0 2.4,-0.1 3.3,-0.3c0.9,-0.1 1.5,-0.4 1.5,-0.4c0,0 -0.5,0.4 -1.3,0.8z" fill="#546626"/><path d="M252.1,143.1c-0.4,-0.1 -1,-0.1 -1.6,-0.2c-0.6,-0.1 -1.2,-0.2 -1.6,-0.3c-0.2,0 -0.4,-0.1 -0.5,-0.1c-0.1,-0.1 -0.2,-0.1 -0.2,-0.1c0,0 0.3,-0.1 0.8,-0.2c0.5,-0.1 1.1,-0.1 1.7,0c0.6,0 1.2,0.2 1.6,0.4c0.4,0.2 0.7,0.4 0.7,0.4c0,0 -0.3,0 -0.9,0.1z" fill="#546626"/><path d="M235.7,143.2c0.5,-0.2 1.2,-0.5 1.9,-0.6c0.7,-0.1 1.5,-0.2 2,-0.1c0.5,0.1 0.9,0.2 0.9,0.2c0,0 0,0.1 -0.2,0.1c-0.1,0 -0.3,0 -0.6,0.1c-0.5,0.1 -1.2,0.2 -1.9,0.3c-0.7,0.1 -1.4,0.2 -1.9,0.3c-0.5,0 -0.9,0.1 -0.9,0.1c0,0 0.3,-0.3 0.7,-0.4z" fill="#546626"/><path d="M252.8,163.5c-0.4,0.4 -1,0.9 -1.8,1.4c-0.4,0.3 -0.8,0.5 -1.3,0.8c-0.5,0.2 -1,0.5 -1.6,0.7c-0.5,0.2 -1.1,0.4 -1.7,0.6c-0.6,0.1 -1.3,0.3 -1.9,0.4c-0.4,0 -0.7,0.1 -1,0.1c-0.4,0 -0.7,0 -1,0c-0.6,0 -1.2,-0.1 -1.8,-0.1c-0.6,-0.1 -1.2,-0.2 -1.7,-0.4c-0.6,-0.2 -1.1,-0.3 -1.5,-0.5c-0.5,-0.1 -0.9,-0.3 -1.2,-0.5c-0.4,-0.2 -0.7,-0.4 -0.9,-0.5c-0.4,-0.3 -0.7,-0.5 -0.7,-0.5c0,0 0.3,0.2 0.8,0.4c0.3,0.1 0.5,0.3 0.9,0.4c0.4,0.1 0.8,0.2 1.2,0.4c0.4,0.2 0.9,0.3 1.4,0.4c0.5,0.2 1,0.2 1.6,0.3c0.6,0.1 1.2,0.1 1.8,0.1c0.3,0 0.6,0 0.9,0l0.9,-0.1c0.6,0 1.2,-0.2 1.8,-0.3c0.6,-0.1 1.2,-0.3 1.7,-0.5c0.5,-0.2 1,-0.4 1.5,-0.6c0.4,-0.2 0.9,-0.5 1.3,-0.7c0.8,-0.5 1.4,-0.9 1.9,-1.2c0.4,-0.3 0.7,-0.5 0.7,-0.5c0,0 -0.2,0.2 -0.3,0.4z" fill="#698237"/></g><g><path d="M225,155c-6.7,1.7 -10.4,-3.4 -13.2,-6.2c-2.8,-2.8 -7,-4.3 -5.3,-4.7c1.7,-0.4 4.9,1.9 8.5,1.9c3.6,0 9.3,-0.3 11.6,3.5c1,1.7 1.3,4.8 -1.6,5.5z" fill="#a2b04a"/><path d="M224.9,152.5c-0.5,-0.1 -1.2,-0.1 -2,-0.5c-0.4,-0.1 -0.8,-0.4 -1.2,-0.7c-0.1,-0.1 -0.3,-0.3 -0.5,-0.5c-0.2,-0.2 -0.3,-0.4 -0.5,-0.6c-0.4,-0.4 -0.7,-0.6 -1.2,-0.9c-0.5,-0.2 -1,-0.4 -1.5,-0.6c-1,-0.4 -2.1,-0.6 -3.1,-0.9c-1,-0.3 -1.9,-0.5 -2.7,-0.8c-0.8,-0.2 -1.5,-0.5 -1.9,-0.7c-0.5,-0.2 -0.7,-0.3 -0.7,-0.3c0,0 0.2,0.1 0.7,0.2c0.4,0.1 1.1,0.3 1.9,0.5c0.7,0.2 1.7,0.4 2.7,0.6c1,0.3 2,0.5 3.1,0.9c0.5,0.2 1,0.4 1.5,0.7c0.2,0.2 0.5,0.3 0.7,0.5c0.2,0.2 0.5,0.4 0.6,0.6l0.3,0.3l0.2,0.3c0.2,0.2 0.3,0.3 0.5,0.5c0.3,0.4 0.7,0.6 1,0.8c0.7,0.4 1.3,0.6 1.8,0.7c0.4,0.1 0.7,0.1 0.7,0.1c0,0 -0.3,0 -0.4,-0.2z" fill="#698237"/><path d="M225.7,148.4c-0.3,-0.3 -0.8,-0.5 -1.3,-0.8c-0.6,-0.2 -1.1,-0.4 -1.7,-0.6c-0.5,-0.1 -1.1,-0.3 -1.7,-0.4c-0.6,-0.1 -1.1,-0.2 -1.6,-0.3c-0.4,-0.1 -0.8,-0.2 -1.1,-0.2c-0.2,-0.1 -0.4,-0.1 -0.4,-0.1c0,0 0.1,0 0.4,0c0.2,0 0.6,-0.1 1.1,-0.1c0.5,0 1,0 1.6,0.1c0.6,0.1 1.2,0.2 1.8,0.4c0.6,0.2 1.2,0.5 1.7,0.8c0.5,0.3 1,0.6 1.3,1c0.4,0.4 0.6,0.7 0.7,1c0.2,0.2 0.2,0.4 0.2,0.4c0,0 -0.3,-0.6 -1,-1.2z" fill="#698237"/></g></g></g></svg>