<svg version="1.1" xmlns="http://www.w3.org/2000/svg" xmlns:xlink="http://www.w3.org/1999/xlink" width="853" height="853" viewBox="0,0,853,853"><g transform="translate(186.5,246.5)"><g data-paper-data="{&quot;isPaintingLayer&quot;:true}" stroke-width="5" stroke-miterlimit="10" stroke-dasharray="" stroke-dashoffset="0" style="mix-blend-mode: normal"><path d="M-186.5,606.5v-853h853v853z" fill="#000000" fill-rule="nonzero" stroke="none" stroke-linecap="butt" stroke-linejoin="miter"/><path d="M125.3848,433.4032c4.36675,2.18338 13.64611,7.09598 0.54584,25.65469c-13.10026,18.55871 -50.76353,22.37962 -55.13028,22.37962c-16.92118,0.54584 -37.66326,0.54584 -60.58872,-7.09598c-66.59301,-21.83377 -67.13886,-93.33939 -45.85093,-104.80212c20.74209,-11.46273 30.02144,32.75066 60.04288,59.49704c13.10026,12.00858 28.92975,16.37533 42.03002,19.10455c18.55871,3.27507 54.03859,-17.46702 58.95119,-14.7378z" fill="#ffffff" fill-rule="evenodd" stroke="#001026" stroke-linecap="round" stroke-linejoin="round"/><path d="M-9.9846,389.18981c8.73351,14.7378 25.65469,35.47988 25.65469,35.47988c0,0 -20.19624,-4.9126 -31.65897,4.36675c-9.27935,7.09598 -7.09598,19.10455 -6.00429,22.92546c-7.09598,-7.09598 -15.82949,-16.92118 -21.28793,-36.02573c-5.45844,-19.10455 0,-42.03002 10.91689,-45.30508c10.91689,-2.18338 13.64611,6.00429 22.37962,18.55871z" fill="#ff0000" fill-rule="evenodd" stroke="none" stroke-linecap="butt" stroke-linejoin="miter"/><path d="M152.67702,490.17102c-9.8252,6.55013 -43.66755,30.56728 -86.78925,44.21339l-2.18338,0.54584c-2.18338,0.54584 -3.27507,3.27507 -2.18338,5.45844c9.27935,13.10026 26.20053,39.30079 -3.82091,48.58015c-28.92975,9.27935 -82.96834,-67.6847 -60.04288,-87.88094c10.37104,-7.64182 19.6504,-3.82091 24.563,-1.63753c2.72922,1.09169 5.45844,1.09169 8.18767,0.54584c6.55013,-2.18338 18.55871,-6.55013 27.83806,-11.46273c23.47131,-12.00858 28.92975,-16.92118 39.84664,-25.10884c10.91689,-8.18767 36.02573,-28.38391 56.22197,-10.91689c17.46702,14.7378 7.64182,31.11313 -1.63753,37.66326z" fill="#ffffff" fill-rule="evenodd" stroke="#001026" stroke-linecap="round" stroke-linejoin="round"/><path d="M239.46627,376.63539c2.72922,2.18338 36.02573,41.48417 46.94262,31.65897c13.10026,-11.46273 31.11313,-33.84235 50.76353,-15.82949c19.6504,18.01286 -17.46702,48.58015 -33.29651,56.76781c-37.66326,16.92118 -68.23055,-15.28364 -74.78068,-24.01715c-6.55013,-8.73351 -18.01286,-23.47131 -18.01286,-37.66326c0.54584,-15.28364 19.10455,-19.10455 28.38391,-10.91689z" fill="#ffffff" fill-rule="evenodd" stroke="#001026" stroke-linecap="round" stroke-linejoin="round"/><path d="M240.01212,503.81713c11.46273,10.37104 36.57157,31.65897 36.57157,31.65897c0,0 78.05574,-13.64611 78.05574,25.65469c0,23.47131 -39.30079,28.92975 -92.2477,24.01715c-3.27507,-0.54584 -6.55013,-1.63753 -9.27935,-3.82091c-12.00858,-10.37104 -46.39677,-40.93833 -68.23055,-62.22626c-32.20482,-31.65897 -58.95119,-52.40106 -58.95119,-52.40106c-46.39677,-45.30508 -8.73351,-64.40964 6.00429,-90.61016c13.64611,-22.37962 19.6504,-18.01286 52.40106,-11.46273c18.55871,2.72922 29.4756,4.36675 41.48417,3.82091c18.01286,-0.54584 14.7378,25.65469 9.8252,39.30079c0,0 -7.64182,20.19624 -14.7378,30.56728c-8.73351,12.55442 -15.28364,20.74209 -21.83377,25.65469z" fill="#ffffff" fill-rule="evenodd" stroke="#001026" stroke-linecap="round" stroke-linejoin="round"/><path d="M194.16119,463.42464c0,0 -8.18767,-6.55013 -16.92118,-14.7378c-10.91689,-9.8252 -21.83377,-18.01286 -10.91689,-34.93404c9.8252,-13.10026 19.10455,-30.56728 43.66755,-14.7378c23.47131,14.7378 13.10026,28.38391 13.10026,28.38391c-12.00858,24.563 -28.92975,36.02573 -28.92975,36.02573z" fill="#ff0000" fill-rule="evenodd" stroke="none" stroke-linecap="butt" stroke-linejoin="miter"/><path d="M111.73869,418.66541c12.00858,15.28364 30.56728,34.3882 7.09598,50.21768c-32.20482,18.01286 -58.95119,-36.57157 -64.40964,-55.67613c-4.9126,-16.92118 9.27935,-27.83806 21.28793,-37.11742c23.47131,-16.92118 43.12171,-32.20482 64.95548,-24.01715c27.29222,9.8252 7.64182,31.65897 -6.00429,41.48417c-8.18767,6.00429 -16.37533,12.55442 -22.37962,16.37533c-1.63753,2.72922 -2.18338,6.00429 -0.54584,8.73351z" fill="#ffffff" fill-rule="evenodd" stroke="#001026" stroke-linecap="round" stroke-linejoin="round"/><path d="M283.67967,50.7663c1.63753,-1.09169 4.36675,-0.54584 4.9126,1.63753l14.19195,58.40535c0,0 34.93404,25.65469 45.30508,43.66755c17.46702,30.02144 18.01286,54.58444 18.01286,54.58444c0,0 38.75495,11.46273 45.30508,42.57586c6.55013,31.11313 -17.46702,90.06432 -120.08576,110.26056c-102.61874,20.19624 -185.04124,-7.64182 -223.79619,-69.86808c-38.75495,-62.22626 22.37962,-136.46109 19.10455,-132.09434l-11.46273,-97.70614c-0.54584,-2.18338 2.18338,-3.82091 4.36675,-2.72922l66.04717,43.12171c0,0 24.563,-9.27935 50.21768,-10.37104c15.28364,-1.09169 28.38391,0 40.93833,2.18338z" fill="#ffffff" fill-rule="evenodd" stroke="#001026" stroke-linecap="butt" stroke-linejoin="miter"/><path d="M364.46463,211.24455c0,0 37.66326,9.8252 44.21339,40.93833c6.55013,31.11313 -19.6504,87.3351 -121.17745,106.9855c-132.09434,27.29222 -194.86644,-51.30937 -158.29487,-109.16887c36.57157,-58.40535 99.34367,-8.73351 145.1946,-12.00858c39.30079,-2.72922 43.66755,-37.11742 90.06432,-26.74637z" fill="#ff0000" fill-rule="evenodd" stroke="none" stroke-linecap="butt" stroke-linejoin="miter"/><path d="M192.52366,269.64989c0,-2.18338 2.18338,-3.82091 4.36675,-3.27507c10.37104,3.82091 39.84664,12.55442 72.5973,14.7378c29.4756,1.63753 46.94262,0 55.13028,-1.63753c2.72922,-0.54584 4.9126,2.18338 3.82091,4.9126c-4.9126,14.7378 -25.65469,55.67613 -82.96834,52.40106c-49.67184,-5.45844 -54.58444,-40.39248 -52.9469,-67.13886z" fill="#000000" fill-rule="evenodd" stroke="#001026" stroke-linecap="round" stroke-linejoin="round"/><path d="M464.89999,217.24884c-25.65469,20.74209 -64.95548,21.28793 -64.95548,21.28793" fill="none" fill-rule="evenodd" stroke="#001026" stroke-linecap="round" stroke-linejoin="round"/><path d="M457.80402,278.3834c-34.3882,2.72922 -55.67613,-7.64182 -55.67613,-7.64182" fill="none" fill-rule="evenodd" stroke="#001026" stroke-linecap="round" stroke-linejoin="round"/><path d="M272.21693,223.79897c11.46273,0 23.47131,1.09169 24.01715,4.9126c0.54584,7.64182 -7.64182,22.92546 -16.37533,23.47131c-9.8252,1.09169 -32.75066,-12.55442 -32.75066,-21.28793c-0.54584,-6.55013 14.19195,-7.09598 25.10884,-7.09598z" fill="#ff0000" fill-rule="evenodd" stroke="#001026" stroke-linecap="round" stroke-linejoin="round"/><path d="M26.58697,215.6113c0,0 46.94262,15.28364 66.04717,32.20482" fill="none" fill-rule="evenodd" stroke="#001026" stroke-linecap="round" stroke-linejoin="round"/><path d="M94.27167,266.92067c-23.47131,9.27935 -63.86379,3.27507 -63.86379,3.27507" fill="none" fill-rule="evenodd" stroke="#001026" stroke-linecap="round" stroke-linejoin="round"/><path d="M336.62657,159.93518c15.82949,24.563 16.37533,52.40106 1.09169,62.22626c-15.28364,9.8252 -40.39248,-1.63753 -56.76781,-26.20053c-15.82949,-24.563 -16.37533,-52.40106 -1.09169,-62.22626c15.28364,-10.37104 40.93833,1.63753 56.76781,26.20053z" fill="#ffffff" fill-rule="evenodd" stroke="#001026" stroke-linecap="round" stroke-linejoin="round"/><path d="M312.94664,185.99029c0,6.00429 -4.36675,10.91689 -9.8252,10.91689c-5.45844,0 -9.8252,-4.9126 -9.8252,-10.91689c0,-6.00429 4.36675,-10.91689 9.8252,-10.91689c5.45844,0 9.8252,4.9126 9.8252,10.91689" fill="#000000" fill-rule="evenodd" stroke="none" stroke-linecap="butt" stroke-linejoin="miter"/><path d="M201.25717,175.21882c16.37533,24.01715 15.28364,53.49275 0.54584,63.86379c-18.01286,10.37104 -42.03002,2.72922 -58.40535,-21.28793c-16.92118,-24.01715 -18.01286,-55.13028 -1.09169,-67.13886c16.92118,-12.55442 42.57586,0.54584 58.95119,24.563z" fill="#ffffff" fill-rule="evenodd" stroke="#001026" stroke-linecap="round" stroke-linejoin="round"/><path d="M176.48555,201.81978c0,6.00429 -4.36675,10.91689 -9.8252,10.91689c-5.45844,0 -9.8252,-4.9126 -9.8252,-10.91689c0,-6.00429 4.36675,-10.91689 9.8252,-10.91689c5.45844,0.54584 9.8252,4.9126 9.8252,10.91689" fill="#000000" fill-rule="evenodd" stroke="none" stroke-linecap="butt" stroke-linejoin="miter"/></g></g></svg>