<svg version="1.1" xmlns="http://www.w3.org/2000/svg" xmlns:xlink="http://www.w3.org/1999/xlink" width="100.80552" height="86.96431" viewBox="0,0,100.80552,86.96431"><g transform="translate(-194.5,-161.17731)"><g data-paper-data="{&quot;isPaintingLayer&quot;:true}" fill-rule="nonzero" stroke="none" stroke-width="1" stroke-linecap="butt" stroke-linejoin="miter" stroke-miterlimit="10" stroke-dasharray="" stroke-dashoffset="0" style="mix-blend-mode: normal"><g><path d="M255.721,221.62842c1.122,-0.197 25.989,-4.646 25.989,-4.646l1.23,3.32c0,0 -27.099,5.046 -27.36,4.986c-0.341,-1.271 -0.051,-2.273 0.141,-3.66" fill="#006482"/><path d="M275.604,213.39942l2.977,13.242l-4.019,0.893l-3.48,-13.094l4.522,-1.041" fill="#008cb4"/><path d="M269.054,192.27042c2.828,-0.744 3.704,4.472 3.704,4.472c0,0 12.148,40.521 12.91,42.609c1.206,3.306 2.268,7.12 0.699,8.349c-0.94,0.401 -1.708,0.126 -2.41,-0.559c-2.006,-3.991 -2.982,-8.425 -4.279,-12.674c-1.344,-4.405 -9.677,-31.052 -10.922,-37.733c-0.691,-3.707 -1.312,-4.041 0.298,-4.464" fill="#000000"/><path d="M275.511,197.12742c0.786,-0.199 1.636,1.659 1.636,1.659c0,0 11.769,37.823 11.975,38.403c0.327,0.92 0.541,2.801 0.102,3.138c-0.261,0.108 -0.473,0.03 -0.666,-0.162c-0.547,-1.112 -0.806,-2.344 -1.156,-3.525c-0.361,-1.225 -11.656,-36.419 -11.985,-38.276c-0.182,-1.029 -0.354,-1.123 0.094,-1.237" fill="#000000"/></g><g><path d="M234.001,221.62842c0.192,1.387 0.483,2.389 0.141,3.66c-0.261,0.06 -27.36,-4.986 -27.36,-4.986l1.231,-3.32c0,0 24.867,4.449 25.988,4.646" fill="#006482"/><path d="M214.118,213.39942l4.522,1.041l-3.48,13.094l-4.02,-0.893l2.978,-13.242" fill="#008cb4"/><path d="M220.669,192.27042c1.609,0.423 0.988,0.757 0.297,4.464c-1.244,6.681 -9.578,33.328 -10.922,37.733c-1.297,4.249 -2.273,8.683 -4.279,12.674c-0.702,0.685 -1.469,0.96 -2.409,0.559c-1.569,-1.229 -0.507,-5.043 0.699,-8.349c0.761,-2.088 12.909,-42.609 12.909,-42.609c0,0 0.876,-5.216 3.705,-4.472" fill="#000000"/><path d="M214.211,197.12742c0.448,0.114 0.277,0.208 0.094,1.237c-0.328,1.857 -11.623,37.051 -11.985,38.276c-0.349,1.181 -0.609,2.413 -1.155,3.525c-0.193,0.192 -0.406,0.27 -0.667,0.162c-0.438,-0.337 -0.224,-2.218 0.102,-3.138c0.206,-0.58 11.976,-38.403 11.976,-38.403c0,0 0.85,-1.858 1.635,-1.659" fill="#000000"/></g><g><path d="M208.718,194.52142c0.81,-0.397 4.471,-1.433 5.226,-1.46c0.747,-0.026 1.239,0.323 1.382,1.072c-0.391,1.071 -3.58,3.436 -4.671,3.873c-0.579,-0.778 -1.278,-2.601 -1.937,-3.485" fill="#a0783c"/><path d="M212.289,206.97942c-0.166,-0.063 -4.839,-0.671 -8.26,-2.922c-3.173,-2.088 -5.097,-5.794 -5.65,-6.703c-5.377,-8.829 -5.095,-22.231 2.238,-29.314c4.816,-4.653 10.236,-6.262 16.94,-6.7c3.474,-0.227 8.948,-0.096 12.416,0.41c3.99,0.583 7.975,3.329 7.975,3.329c0,0 4.726,10.303 1.659,9.832c-6.669,-1.026 -12.18,-1.639 -14.119,-1.604c-2.4,0.041 -4.905,-0.065 -7.292,0.181c-4.296,0.444 -9.265,2.675 -10.757,7.027c-1.521,4.434 -0.459,8.744 2.052,12.4c1.244,1.812 5.784,4.826 5.524,7.437c-0.047,0.471 -0.807,0.715 -0.957,1.473c-0.092,0.459 0.225,1.173 0.147,1.693c-0.106,0.708 -1.058,1.045 -1.326,1.62c-0.336,0.719 -0.031,1.615 -0.59,1.841" fill="#be965a"/><path d="M207.229,186.02842c1.26,2.593 2.977,7.068 2.977,7.068c0,0 -9.317,6.202 -11.921,6.296c-1.036,-0.685 -1.961,-2.806 -2.668,-4.436c-1.05,-2.418 -1.117,-5.208 -1.117,-5.208c0,0 9.48,-2.701 12.729,-3.72" fill="#f01446"/></g><path d="M280.949,193.72942c-0.418,1.021 -0.639,2.96 -1.006,3.858c-1.166,-0.152 -4.844,-1.646 -5.49,-2.585c-0.049,-0.761 0.341,-1.222 1.07,-1.383c0.738,-0.163 4.541,-0.072 5.426,0.11" fill="#a0783c"/><path d="M277.701,206.92942c-0.558,-0.226 -0.254,-1.122 -0.59,-1.841c-0.268,-0.574 -1.22,-0.911 -1.326,-1.62c-0.077,-0.519 0.239,-1.233 0.148,-1.693c-0.15,-0.758 -0.911,-1.001 -0.958,-1.472c-0.259,-2.611 4.281,-5.625 5.525,-7.437c2.511,-3.656 3.572,-7.966 2.052,-12.401c-1.492,-4.352 -6.462,-6.582 -10.757,-7.026c-2.388,-0.247 -4.893,-0.14 -7.292,-0.182c-1.94,-0.034 -8.456,0.522 -11.306,1.376c-2.972,0.892 0.075,-5.126 -0.887,-8.036c0.58,-1.611 7.606,-4.305 9.244,-4.681c3.417,-0.783 7.406,-0.853 10.879,-0.626c6.704,0.439 12.124,2.048 16.941,6.701c7.332,7.082 7.614,20.485 2.238,29.314c-0.554,0.908 -2.827,5.093 -6,7.181c-3.421,2.25 -7.744,2.38 -7.911,2.443" fill="#be965a"/><g><path d="M222.494,209.26542c0,0 1.457,-13.138 2.428,-14.836c0.971,-1.698 40.043,-1.577 40.043,-1.577l3.15,15.162z" fill="#006482"/><path d="M268.243,221.32942c-0.174,1.035 -0.363,2.067 -0.522,3.097c-0.456,2.975 -1.861,11.264 -3.022,15.552c-0.644,2.378 -1.441,2.544 -1.441,2.544c0,0 -24.511,0.263 -27.522,0.265c-2.867,0.002 -5.785,0.231 -8.628,-0.233c-0.505,0.071 -1.108,-2.033 -1.255,-2.576c-1.162,-4.288 -2.567,-12.577 -3.023,-15.552c-0.158,-1.03 -0.347,-2.062 -0.522,-3.097h2.884c0.732,4.557 3.015,17.511 3.015,17.511c0,0 0.152,0.529 0.217,1.186c0.944,-0.117 2.058,-0.102 3.113,-0.046c1.451,0.077 29.111,-0.083 29.111,-0.083c0,0 0.712,-0.091 1.494,-0.012c0.071,-0.591 0.202,-1.045 0.202,-1.045c0,0 2.283,-12.954 3.015,-17.511z" fill="#006482"/><path d="M259.02,248.14142c-0.724,0.017 -1.007,-1.013 -1.009,-2.185c-0.001,-1.132 -0.105,-1.379 0.222,-2.5c0.204,-0.219 0.489,-0.343 0.931,-0.316c0.766,0.173 0.847,1.084 0.785,1.939c-0.003,0.049 0.343,3.032 -0.929,3.062" fill="#000000"/><path d="M256.926,244.45242v-5.202h4.082v5.202h-4.082" fill="#008cb4"/><path d="M231.705,248.14142c-0.724,0.017 -1.006,-1.013 -1.008,-2.185c-0.002,-1.132 -0.106,-1.379 0.221,-2.5c0.205,-0.219 0.489,-0.343 0.932,-0.316c0.766,0.173 0.847,1.084 0.785,1.939c-0.004,0.049 0.343,3.032 -0.93,3.062" fill="#000000"/><path d="M229.611,244.45242v-5.202h4.082v5.202h-4.082" fill="#008cb4"/><path d="M227.735,221.36842l-2.393,0.539l-2.848,-12.642l2.393,-0.538l2.848,12.641" fill="#006482"/><path d="M218.63,237.66742l-2.398,-0.519l3.728,-17.17l2.397,0.519l-3.727,17.17" fill="#006482"/><path d="M271.301,237.66742l-3.727,-17.17l2.397,-0.519l3.728,17.17l-2.398,0.519" fill="#006482"/><path d="M265.473,221.91042l-2.417,-0.417l2.205,-12.77l2.417,0.417l-2.205,12.77" fill="#006482"/><path d="M234.891,221.62742c5.741,-0.007 13.723,-0.036 20.771,-0.065v3.766c-8.242,0.07 -16.948,0.044 -20.771,0.037v-3.738" fill="#006482"/><path d="M268.032,206.13942c2.013,-0.397 1.249,3.003 1.03,4.018c-0.726,0.515 -3.987,0.995 -4.793,0.724c-6.646,0.151 -32.165,0.129 -39.583,0.284c-1.325,0.333 -2.847,-0.279 -3.798,-1.101c-0.872,-1.866 -0.138,-3.16 2.154,-3.006c2.931,-1.034 37.675,-1.318 44.99,-0.919" fill="#008cb4"/><path d="M274.202,237.31342c0.043,1.086 -0.285,0.762 -2.734,1.039c-4.416,0.5 -42.771,0.389 -45.782,0.392c-2.905,0.002 -5.864,0.24 -8.743,-0.25c-0.562,-0.307 -0.881,-0.735 -0.81,-1.399c0.468,-1.215 3.056,-1.28 5.354,-1.159c1.451,0.077 49.21,-0.082 49.21,-0.082c0,0 3.429,-0.45 3.505,1.459" fill="#008cb4"/></g><g><path d="M260.787,195.81142c-0.074,0.695 -0.579,9.974 -0.731,11.261c-4.158,0.895 -27.254,1.204 -29.117,0.73l-3.804,-11.698c4.45,0.337 31.795,-0.618 33.652,-0.293" fill="#780046"/><path d="M253.689,164.37042c0.071,2.208 0,8.977 0,8.977l-17.742,1.884c0,0 0.907,-10.589 1.219,-11.415c0.427,-0.269 15.461,0.282 16.523,0.554" fill="#be965a"/><path d="M259.495,181.36742c0.14,0.862 3.064,16.387 2.733,17.175l-34.156,0.337c-0.997,-1.235 0.469,-6.517 0.652,-7.888c0.566,-4.241 1.216,-8.473 1.946,-12.689c0.402,-2.326 3.507,-15.161 6.256,-16.031c0.226,-0.072 2.167,0.043 2.167,0.043c0,0 -0.073,2.706 1.083,4.768c0.803,1.435 2.724,2.61 5.258,2.541c1.424,-0.038 3.576,-0.959 4.85,-2.728c0.993,-1.379 1.299,-3.629 1.305,-4.068c0.714,-0.132 3.504,0.118 3.504,0.118c0,0 0.859,2.476 1.603,5.523c1.233,5.053 2.63,11.86 2.799,12.899" fill="#f01446"/></g><g><path d="M257.842,179.58342c0.34,2.223 0.087,4.398 -0.638,6.369c-0.647,2.345 -1.778,3.44 -2.114,3.792c-0.18,0.189 -0.368,0.371 -0.559,0.551c-1.905,2.044 -4.485,3.488 -7.462,3.943c-0.637,0.097 -1.27,0.145 -1.896,0.148c-3.551,0.233 -7.057,-0.943 -9.42,-4.05c-1.727,-1.833 -2.937,-4.189 -3.347,-6.866c-1.074,-7.02 3.75,-13.581 10.773,-14.654c7.024,-1.074 13.589,3.747 14.663,10.767" fill="#e6781e"/><path d="M245.07,181.31742l-1.835,-12.508c2.848,-0.423 5.618,0.122 7.975,1.389c-3.037,4.91 -1.868,10.424 -1.868,10.424z" fill="#ff963c"/><path d="M240.856,181.83442c0,0 1.352,6.37 -2.492,10.922c-0.965,-0.618 -1.848,-1.417 -2.611,-2.421c-1.728,-1.832 -2.937,-4.188 -3.347,-6.865c-0.019,-0.125 -0.032,-0.249 -0.047,-0.374l8.497,-1.262" fill="#ff963c"/><path d="M243.55,168.76942c1.089,7.48 2.442,16.772 3.837,25.413c-0.106,0.019 -0.211,0.04 -0.319,0.056c-0.014,0.002 -0.03,0.003 -0.044,0.005c-1.396,-8.647 -2.75,-17.944 -3.839,-25.428c0.122,-0.019 0.243,-0.031 0.365,-0.046" fill="#824600"/><path d="M257.761,179.12942c0.024,0.129 0.049,0.258 0.069,0.388l-25.416,3.885c-0.006,0.001 -0.011,-0.002 -0.017,-0.001c-0.019,-0.129 -0.034,-0.258 -0.049,-0.387c0.002,-0.001 0.004,-0.003 0.007,-0.003z" fill="#824600"/><path d="M249.421,175.70142c-0.704,6.421 2.065,11.825 5.4,14.308c-0.094,0.092 -0.185,0.187 -0.281,0.277c-4.31,-3.187 -6.039,-9.587 -5.485,-14.639c0.232,-2.115 0.925,-4.006 2.014,-5.522c0.115,0.06 0.228,0.122 0.34,0.186c-1.075,1.47 -1.76,3.317 -1.988,5.39" fill="#824600"/><path d="M241.084,186.27942c-0.319,2.629 -1.213,4.858 -2.609,6.545c-0.113,-0.07 -0.225,-0.142 -0.335,-0.217c2.592,-3.167 3.845,-8.92 1.509,-15.062c-0.779,-2.046 -2.105,-3.945 -3.578,-5.152c0.09,-0.09 0.181,-0.179 0.274,-0.266c1.503,1.253 2.851,3.191 3.644,5.276c1.046,2.749 1.445,5.985 1.095,8.876" fill="#824600"/></g><g><path d="M227.135,200.71342v-4.885h34.659v4.885h-34.659" fill="#000000"/><path d="M241.207,201.18942v-6.047h7.745v6.047h-7.745" fill="#64645a"/></g><g><path d="M264.335,197.88242c-0.061,6.597 -2.141,12.758 -2.141,12.758l-12.288,0.194c0,0 0.802,-19.316 3.892,-22.292c0.867,-0.836 3.017,-3.558 7.289,-1.724c4.273,1.835 3.275,8.166 3.248,11.064" fill="#be965a"/><path d="M263.851,206.30242c-0.717,3.706 -2.118,9.602 -2.893,10.767c-1.945,0.453 -9.956,1.474 -12.102,0.845c-0.011,-1.364 0.114,-7.992 0.449,-11.612z" fill="#f0e6d2"/><path d="M246.118,234.62042l6.621,-1.665l9.135,1.812l-0.246,1.242l-15.742,0.092l0.232,-1.481" fill="#f01446"/><path d="M262.708,214.26442c-1.054,5.404 -4.303,17.079 -4.903,19.061c1.203,0.467 3.296,-0.05 4.212,0.956c-0.036,0.125 -0.083,0.283 -0.142,0.486c-1.207,-0.095 -15.757,-0.147 -15.757,-0.147c0,0 1.468,-17.106 1.708,-20.173c0.268,-0.01 3.889,-0.054 7.493,-0.097c3.704,-0.044 7.389,-0.086 7.389,-0.086" fill="#000000"/><path d="M255.997,219.50342c0,2.133 -1.73,3.863 -3.865,3.863c-2.134,0 -3.865,-1.73 -3.865,-3.863c0,-2.134 1.731,-3.863 3.865,-3.863c2.135,0 3.865,1.729 3.865,3.863" fill="#f01446"/><path d="M253.966,219.50342c0,1.012 -0.821,1.833 -1.834,1.833c-1.013,0 -1.834,-0.821 -1.834,-1.833c0,-1.013 0.821,-1.833 1.834,-1.833c1.013,0 1.834,0.82 1.834,1.833" fill="#780046"/><path d="M261.527,216.08642c0,0.424 -0.344,0.768 -0.769,0.768c-0.424,0 -0.769,-0.344 -0.769,-0.768c0,-0.424 0.345,-0.768 0.769,-0.768c0.425,0 0.769,0.344 0.769,0.768" fill="#780046"/><path d="M260.694,219.09842c0,0.425 -0.345,0.769 -0.769,0.769c-0.425,0 -0.77,-0.344 -0.77,-0.769c0,-0.424 0.345,-0.768 0.77,-0.768c0.424,0 0.769,0.344 0.769,0.768" fill="#780046"/><path d="M259.988,222.23942c0,0.425 -0.344,0.769 -0.769,0.769c-0.425,0 -0.769,-0.344 -0.769,-0.769c0,-0.424 0.344,-0.768 0.769,-0.768c0.425,0 0.769,0.344 0.769,0.768" fill="#780046"/><path d="M259.218,224.86742c0,0.425 -0.344,0.769 -0.768,0.769c-0.425,0 -0.77,-0.344 -0.77,-0.769c0,-0.424 0.345,-0.768 0.77,-0.768c0.424,0 0.768,0.344 0.768,0.768" fill="#780046"/><path d="M258.513,227.62342c0,0.425 -0.344,0.769 -0.769,0.769c-0.425,0 -0.769,-0.344 -0.769,-0.769c0,-0.424 0.344,-0.768 0.769,-0.768c0.425,0 0.769,0.344 0.769,0.768" fill="#780046"/><path d="M257.743,230.50842c0,0.424 -0.344,0.768 -0.768,0.768c-0.425,0 -0.77,-0.344 -0.77,-0.768c0,-0.425 0.345,-0.769 0.77,-0.769c0.424,0 0.768,0.344 0.768,0.769" fill="#780046"/></g><g><path d="M239.609,208.45542c-1.064,0.073 -11.048,-0.19 -11.369,-0.239c-0.437,-2.525 -2.644,-9.667 -2.475,-14.41c0.101,-2.815 0.871,-5.68 2.539,-7.254c1.001,-0.943 2.326,-1.422 4.023,-1.146c4.385,0.714 5.797,7.214 6.356,10.92c0.533,3.536 0.475,8.62 0.926,12.129" fill="#be965a"/><path d="M240.078,206.30242c0.418,2.722 1.356,8.756 0.94,9.881c-3.198,0.693 -9.409,1.025 -12.507,-0.02c-0.256,-2.016 -1.001,-6.952 -1.444,-9.861z" fill="#f0e6d2"/><path d="M243.765,234.62042l0.232,1.481l-15.742,-0.092l-0.246,-1.242l9.136,-1.812l6.62,1.665" fill="#f01446"/><path d="M227.175,214.26442c0,0 3.685,0.042 7.39,0.086c3.603,0.043 7.225,0.087 7.492,0.097c0.24,3.067 1.709,20.173 1.709,20.173c0,0 -14.551,0.052 -15.757,0.147c-0.06,-0.203 -0.106,-0.361 -0.143,-0.486c0.916,-1.006 3.009,-0.489 4.212,-0.956c-0.599,-1.982 -3.731,-13.02 -4.903,-19.061" fill="#000000"/><path d="M233.886,219.50342c0,-2.134 1.731,-3.863 3.865,-3.863c2.135,0 3.865,1.729 3.865,3.863c0,2.133 -1.73,3.863 -3.865,3.863c-2.134,0 -3.865,-1.73 -3.865,-3.863" fill="#f01446"/><path d="M235.918,219.50342c0,-1.013 0.821,-1.833 1.833,-1.833c1.013,0 1.834,0.82 1.834,1.833c0,1.012 -0.821,1.833 -1.834,1.833c-1.012,0 -1.833,-0.821 -1.833,-1.833" fill="#780046"/><path d="M228.356,216.08642c0,-0.424 0.344,-0.768 0.769,-0.768c0.425,0 0.769,0.344 0.769,0.768c0,0.424 -0.344,0.768 -0.769,0.768c-0.425,0 -0.769,-0.344 -0.769,-0.768" fill="#780046"/><path d="M229.19,219.09842c0,-0.424 0.344,-0.768 0.769,-0.768c0.424,0 0.769,0.344 0.769,0.768c0,0.425 -0.345,0.769 -0.769,0.769c-0.425,0 -0.769,-0.344 -0.769,-0.769" fill="#780046"/><path d="M229.896,222.23942c0,-0.424 0.344,-0.768 0.768,-0.768c0.425,0 0.769,0.344 0.769,0.768c0,0.425 -0.344,0.769 -0.769,0.769c-0.424,0 -0.768,-0.344 -0.768,-0.769" fill="#780046"/><path d="M230.665,224.86742c0,-0.424 0.344,-0.768 0.769,-0.768c0.424,0 0.769,0.344 0.769,0.768c0,0.425 -0.345,0.769 -0.769,0.769c-0.425,0 -0.769,-0.344 -0.769,-0.769" fill="#780046"/><path d="M231.37,227.62342c0,-0.424 0.345,-0.768 0.769,-0.768c0.425,0 0.769,0.344 0.769,0.768c0,0.425 -0.344,0.769 -0.769,0.769c-0.424,0 -0.769,-0.344 -0.769,-0.769" fill="#780046"/><path d="M232.14,230.50842c0,-0.425 0.344,-0.769 0.769,-0.769c0.424,0 0.769,0.344 0.769,0.769c0,0.424 -0.345,0.768 -0.769,0.768c-0.425,0 -0.769,-0.344 -0.769,-0.768" fill="#780046"/></g></g></g></svg>