<svg version="1.1" xmlns="http://www.w3.org/2000/svg" xmlns:xlink="http://www.w3.org/1999/xlink" width="88.1617" height="157.43857" viewBox="0,0,88.1617,157.43857"><g transform="translate(-201.06168,-166.56345)"><g data-paper-data="{&quot;isPaintingLayer&quot;:true}" fill-rule="nonzero" stroke="none" stroke-width="0.95" stroke-linecap="butt" stroke-linejoin="miter" stroke-miterlimit="10" stroke-dasharray="" stroke-dashoffset="0" style="mix-blend-mode: normal"><g><path d="M240.2842,174.3395c-4.2133,0.2109 -6.6149,-2.3712 -7.4034,-3.4048l0.209,-2.736l0.0694,-0.9225c0.0598,0.0323 0.1187,0.0656 0.1795,0.095c2.3123,1.1267 5.2497,2.375 7.8584,2.4263c0.0409,0.001 0.0694,-0.0028 0.0893,-0.0076c0.001,0 0.0019,0 0.0019,0c0.6479,-0.1529 1.2673,-0.4436 1.8544,-0.8008c0.0209,2.1821 1.9067,1.8848 2.3437,1.786c-0.1881,1.0383 -1.0659,3.3573 -5.2022,3.5644z" fill="#a86c35"/><path d="M233.0908,168.1987l-0.2176,2.8509l-0.1947,-0.2802l-0.1216,-0.1748l0.2375,-2.7522l0.1482,-0.8911l0.2375,0.0599l-0.02,0.2641l-0.0693,0.9234" fill="#000000"/><path d="M245.5795,170.7523c0,0 -2.4121,0.7058 -2.4358,-1.7642c-0.001,-0.0969 -0.0057,-0.1881 0.0009,-0.2945h0.2375c0,0 -0.2574,2.2962 2.1774,1.8411l0.0171,0.1824l0.0029,0.0352z" fill="#000000"/></g><g><path d="M260.1658,306.3811c-0.2746,0.5938 1.6036,0.9861 2.0681,1.0412c1.2303,0.1397 3.06,-0.2945 4.2494,-0.3002c1.0564,-0.0085 2.2363,0.1596 3.1654,0.5634c0.5966,0.2584 1.6843,1.4744 1.8392,2.109c0.0342,0.1406 0.0152,0.4161 -0.019,0.5548c-0.9947,0.3876 -1.8449,1.1295 -2.8025,1.634c-1.3281,0.7001 -2.7664,1.2236 -4.2769,1.5314c-1.5808,0.3249 -1.4839,0.6032 -3.1084,0.6811c-1.3823,0.0656 -4.5011,0.1596 -5.8093,-0.0931c-2.7806,-0.5282 -5.0834,-0.6013 -7.6541,-1.8924c-0.8028,-0.0959 -5.2991,-1.8278 -3.8741,-2.1584c1.2454,-0.2888 4.8079,-0.3258 6.0914,-0.2584c1.8981,0.0988 3.857,-0.6659 5.642,-1.4003c0.8484,-0.3486 1.5343,-0.6621 2.3323,-1.083c0.7163,-0.3771 1.253,-0.5348 1.7651,-1.1219" fill="#eaa06d"/><path d="M271.6703,310.2999c0.2441,0.9129 0.2935,1.8591 0.3239,2.8538c0.0133,0.4873 -0.1073,0.8512 -0.1662,1.2663c-0.0608,0.4551 0.1064,0.8902 0.0437,1.3443c-1.0118,0.399 -1.8934,1.0089 -2.9488,1.3556c-1.1391,0.3753 -2.3228,0.6641 -3.4713,1.0241c-2.698,0.8493 -5.7542,0.6869 -8.4778,0.0551c-1.084,-0.2508 -2.11,-0.6393 -3.1379,-1.0554c-0.9918,-0.4028 -1.728,-0.9405 -2.83,-1.0327c-1.1229,-0.0969 -2.2069,0.2347 -3.3421,0.1549c-1.0583,-0.0722 -2.2629,-0.1454 -3.2481,-0.5225c-2.0985,-0.8056 -0.6469,-3.9748 -0.7058,-5.5129c0.4227,0.2518 1.253,0.7059 1.6691,0.9966c0.8978,0.6175 1.6369,0.7533 2.6781,1.0488c1.1105,0.3173 2.0083,0.7077 3.115,1.0098c2.3931,0.6546 4.8887,0.8864 7.3825,1.0241c2.3997,0.133 4.7091,-0.0038 6.9321,-0.8578c1.2388,-0.475 2.4282,-1.0811 3.6053,-1.6958c0.7201,-0.3762 1.7166,-1.5646 2.5137,-1.576" fill="#bc7240"/><path d="M271.2637,310.0177v0c-1.0754,-3.3259 -4.1078,-3.0295 -6.9711,-2.6486c-0.8731,0.1169 -1.7604,0.2328 -2.641,0.1074c-0.9709,-0.1387 -1.4402,-0.5957 -2.0986,-1.2882c-0.133,-0.1406 0.3439,-0.1064 0.4427,-0.0029c0.6764,0.7125 1.2597,1.0821 2.2762,1.0897c0.5748,0.0066 1.1552,-0.0827 1.7271,-0.1558c1.0897,-0.1406 2.1784,-0.2983 3.2823,-0.2784c2.185,0.0371 3.7819,1.1467 4.4593,3.2386c0.0513,0.1577 -0.4256,0.0921 -0.4769,-0.0618zM271.8878,310.0795v0c0.3211,1.9332 0.2185,3.8855 0.2594,5.8387c0.0057,0.1909 -0.4731,0.0845 -0.4769,-0.0627c-0.039,-1.9504 0.0608,-3.9026 -0.2594,-5.8387c-0.0285,-0.1786 0.4522,-0.0941 0.4769,0.0627zM261.776,318.7748v0c-2.7702,0.0618 -5.2877,-0.3106 -7.8517,-1.3784c-0.8018,-0.3354 -1.5561,-0.7372 -2.3883,-0.9966c-1.0944,-0.3363 -2.0625,-0.0541 -3.155,0.0304c-1.747,0.1368 -3.3962,-0.3011 -5.0483,-0.8274c-0.0655,-0.019 -0.1909,-0.058 -0.2109,-0.1416c-0.3448,-1.785 0.419,-3.4741 0.3487,-5.2601c-0.0076,-0.1891 0.4693,-0.0874 0.4769,0.0598c0.0513,1.3329 -1.2844,4.902 0.3078,5.3875c1.4193,0.4313 2.85,0.6897 4.3291,0.4607c0.742,-0.1149 1.4564,-0.2109 2.2021,-0.1159c1.6407,0.209 3.136,1.1942 4.6721,1.7461c1.976,0.7097 4.047,0.8246 6.1275,0.7781c0.171,-0.0038 0.5149,0.2498 0.19,0.2574zM272.1025,315.997v0c-3.3459,1.5086 -6.6557,2.6325 -10.3246,2.7807c-0.1719,0.0066 -0.5101,-0.2451 -0.1881,-0.2575c3.5948,-0.1463 6.8562,-1.2654 10.1327,-2.7455c0.1311,-0.0617 0.571,0.1359 0.38,0.2223zM271.7244,310.1412v0c-3.5644,3.078 -8.5908,4.4451 -13.2107,4.3425c-2.6163,-0.0618 -5.206,-0.5653 -7.7387,-1.198c-1.1932,-0.2992 -2.3636,-0.6669 -3.5216,-1.083c-1.3566,-0.4845 -2.3066,-1.3509 -3.5853,-1.956c-0.2993,-0.1406 -0.0219,-0.2784 0.1833,-0.1796c0.741,0.3496 1.3595,0.8512 2.0416,1.2996c1.1542,0.7553 2.755,1.0878 4.065,1.4583c2.5755,0.7315 5.2326,1.2245 7.9059,1.3775c4.6389,0.2612 9.8354,-1.1609 13.4131,-4.2465c0.1263,-0.1026 0.569,0.0817 0.4474,0.1852z" fill="#000000"/></g><g><path d="M237.1178,316.453c0.0076,0.6897 -0.4636,2.0245 -0.9984,2.3722c-0.7239,0.4664 -2.0387,0.968 -2.8747,1.1381c-3.6613,0.7495 -8.9243,0.779 -12.5704,-0.1387c-0.8351,-0.21 -1.653,-0.6593 -1.8649,-1.3262c-0.1102,-0.3525 -0.3695,-1.7936 -0.3173,-2.1147c0.0931,-0.5938 1.3661,-1.3509 1.7423,-1.8801c0.4038,-0.5671 1.2474,-1.0241 1.8088,-1.4753c1.1315,-0.9149 2.8709,-1.1923 4.295,-1.4051c1.6273,-0.2451 3.0675,-0.0228 4.7481,0.456c1.3034,0.3762 2.3626,0.9652 3.5264,1.6302c0.5605,0.323 1.0706,0.5748 1.4079,1.1733c0.2793,0.4921 0.5757,1.2739 1.0972,1.5703" fill="#eaa06d"/><path d="M237.2233,317.7973c0.3781,0.9889 -0.1834,2.8082 -0.4608,3.8589c-0.1349,0.5092 -1.0478,0.6602 -1.4981,0.9452c-0.6527,0.4095 -1.4307,0.4342 -2.1746,0.6137c-1.4658,0.3544 -3.0039,0.5748 -4.5277,0.5748c-1.386,0 -2.4025,-0.1264 -3.7924,-0.1853c-1.1476,-0.0475 -2.3379,-0.3078 -3.458,-0.5415c-0.9281,-0.1957 -1.9323,-0.3439 -2.5669,-1.0868c-0.7628,-0.892 -1.1675,-1.9047 -1.3262,-2.9877c-0.1187,-0.8056 -0.3458,-2.1746 0.5197,-2.5289c0.8502,-0.3458 0.7201,1.3632 0.8702,2.032c0.2441,1.0811 2.0187,1.3547 3.078,1.6302c2.774,0.7239 5.1024,0.8389 7.7966,0.4741c1.5219,-0.2052 3.1122,-0.2537 4.5125,-0.8389c0.4142,-0.1729 1.1524,-0.2878 1.5029,-0.6032c0.3506,-0.3173 0.5881,-0.495 0.8218,-0.8237c0.0826,0.0209 0.2137,-0.5624 0.2593,-0.5168" fill="#bc7240"/><path d="M236.8518,316.4302v0c-0.1843,-1.1286 -2.7778,-2.2971 -3.6727,-2.7398c-1.5637,-0.7704 -3.248,-0.9585 -4.9675,-0.9015c-1.8136,0.0579 -3.7288,0.17 -5.4464,0.7837c-1.6254,0.5805 -2.9668,1.7357 -4.1268,2.9792c-0.1111,0.1169 -0.5662,-0.056 -0.4474,-0.1805c1.3775,-1.4791 2.9222,-2.6391 4.8687,-3.249c1.8335,-0.5728 4.047,-0.6175 5.9575,-0.607c1.6406,0.0133 3.286,0.4142 4.7386,1.1856c0.93,0.4949 3.3734,1.5694 3.572,2.7911c0.0294,0.1795 -0.4513,0.0931 -0.476,-0.0618zM218.7277,316.5756v0c0.057,0.7951 0.0314,1.5893 0.4285,2.3066c0.4579,0.8208 1.9817,1.0298 2.8129,1.1818c1.7528,0.3249 3.5426,0.494 5.3229,0.4911c1.9855,-0.0009 3.9795,-0.2641 5.9175,-0.702c0.9567,-0.2166 1.8782,-0.5586 2.6752,-1.1381c0.7999,-0.5843 0.7344,-1.4621 0.9652,-2.3161c0.0409,-0.1549 0.4551,-0.038 0.4769,0.0988c0.2442,1.4924 0.134,3.0153 -0.2137,4.484c-0.134,0.5643 -0.0086,0.7077 -0.4988,1.0839c-0.4607,0.3496 -1.0279,0.6194 -1.5713,0.8132c-3.0884,1.0954 -6.7022,1.2768 -9.9455,1.0203c-2.4444,-0.1947 -5.7941,-0.4037 -7.201,-2.7483c-0.7068,-1.1752 -1.5086,-4.7766 0.5671,-5.1034c0.1435,-0.019 0.5624,0.2099 0.2964,0.2517c-2.0292,0.3192 -0.8911,4.0641 -0.266,5.1015c0.8113,1.35 2.5555,1.6502 3.9786,1.9266c1.3842,0.2689 2.8044,0.3563 4.2142,0.3819c2.718,0.0504 5.5927,-0.2137 8.1719,-1.1286c0.381,-0.1377 0.7401,-0.3543 1.0887,-0.5567c0.7277,-0.4237 0.6033,-0.7875 0.7686,-1.4839c0.3144,-1.3328 0.3638,-2.7616 0.1387,-4.1087c0.1596,0.0332 0.3173,0.0627 0.4769,0.0988c-0.2584,0.9661 -0.1948,1.671 -0.9966,2.3693c-0.6897,0.6032 -1.6368,0.8844 -2.4937,1.1257c-2.3361,0.6527 -4.8631,0.8332 -7.277,0.7904c-1.919,-0.0313 -3.9435,-0.2793 -5.7988,-0.7742c-0.6821,-0.1767 -1.3253,-0.4674 -1.8525,-0.9348c-0.6888,-0.6137 -0.5947,-1.7623 -0.6536,-2.5897c-0.019,-0.1919 0.4598,-0.095 0.4683,0.0589z" fill="#000000"/></g><g><path d="M261.871,307.0756c-0.018,0.0285 0.0713,0.0845 0.1796,0.1235c-0.6014,0.532 -2.0549,-0.9975 -2.7503,-0.7258c-1.2074,0.3553 -1.0241,0.9148 -2.2239,1.4041c-1.3756,0.5576 -3.1512,1.5646 -4.6132,1.6938c-2.7037,0.2375 -4.2532,0.2461 -6.8391,0.2233c-2.7578,0 -2.0311,1.2217 -1.9475,1.6093c-1.995,1.2464 -4.3548,-0.3515 -4.8706,-1.6093c-0.97,1.234 -1.6093,0.7001 -1.1951,1.9959c0.7923,2.4814 0.037,3.4618 -0.7002,3.5464c-0.4465,0.0503 -2.3522,-1.8801 -3.1635,-2.186c-1.672,-1.0687 -2.0881,-1.0725 -4.0878,-1.3651c-2.0957,-0.304 -3.6224,-0.3667 -5.9831,0.2717c-2.1195,0.1938 -3.1958,2.4909 -4.5828,3.496c-0.0523,-0.057 -0.2907,-0.1558 -0.3563,-0.1596c-2.2163,-0.0295 -1.1362,-1.1201 -2.1118,-1.9998c-1.1153,-1.0013 -2.0948,-2.147 -2.907,-3.4086c-0.4674,-0.7286 -0.9101,-1.3585 -0.5738,-2.2524c0.1843,-0.495 0.4142,-0.9624 0.7334,-1.3861c0.6925,-0.9215 1.5209,-1.7299 2.1327,-2.716c0.001,-0.0219 -0.0038,-0.0352 -0.0199,-0.0494c-0.7885,-0.6185 -1.5419,-1.0194 -0.5662,-1.7936c0.6108,-0.4826 0.3752,-0.6052 0.2546,-1.2236c-0.5852,-2.9897 0.6004,-6.1104 1.3271,-8.9804c1.6027,-6.3422 2.9222,-12.8563 3.3241,-19.3952c0,-0.0019 -0.0029,-0.0028 -0.0029,-0.0038c0.9652,-10.2362 1.9342,-20.4772 2.8994,-30.7106c0.153,0.0484 0.0209,-0.2195 0.0209,-0.2195l1.1153,-12.8544c15.9724,-2.6724 29.1536,-2.5536 29.1536,-2.5536l1.1524,15.5363c-0.0038,0.0038 -0.019,0.0038 -0.019,0.0085c0.0076,7.8128 0.532,15.6114 0.3315,23.427c0,0.0057 0.0114,0.0105 0.0133,0.0162c-0.0009,0.0028 -0.0095,0.0028 -0.0085,0.0066c0.5624,2.6391 0.4256,5.1908 0.6621,7.847c0.2204,2.5071 0.6375,5.0103 1.0127,7.4955c0.3791,2.508 0.7192,4.979 0.8104,7.5145c0.0494,1.445 0.0817,3.2395 1.1846,4.3168c-0.3306,-0.0703 -0.6659,-0.1159 -1.0041,-0.1225c-0.2356,-0.0048 0.209,0.1947 0.3097,0.1938c0.6384,0.0133 1.4003,0.2384 2.0092,0.6355c0.0656,0.0456 0.1359,0.0941 0.2033,0.1425c0.5786,0.4475 0.9643,1.0707 0.8351,1.8573c-0.1131,0.6897 -0.418,1.2758 -0.6745,1.918c-0.4836,1.2198 -0.5358,2.2762 0.6431,3.0172c1.3357,0.8436 2.7398,1.406 2.4453,3.2984c-0.2213,1.4317 -0.7353,2.9175 -1.5523,4.1202z" fill="#3d6767"/><path d="M263.847,301.8449c0.5216,1.6074 -0.6165,4.0631 -1.4991,5.3646c-0.0171,0.0247 -0.057,0.0276 -0.0959,0.0295c-0.0551,0.1453 -0.6014,0.2422 -0.6014,0.2422l-0.0142,-0.0456c-0.6935,-0.1007 -1.4098,-1.3214 -1.8991,-0.988c-1.5618,1.0621 -3.2433,1.9342 -5.0112,2.5983c-1.9019,0.7163 -3.8,0.931 -5.814,0.9186c-2.1993,-0.0142 -4.4983,-0.2023 -6.5522,0.7391c-0.1282,0.0627 -0.5082,-0.1349 -0.4493,-0.1605c1.6235,-0.7439 3.3782,-0.8018 5.1338,-0.7933c2.393,0.0124 4.5942,-0.0009 6.896,-0.7486c1.1343,-0.3686 2.2154,-0.8854 3.2642,-1.4449c0.7315,-0.3914 1.5913,-1.2369 2.3731,-1.4573c0.1986,-0.0599 0.3933,-0.0295 0.5833,0.0589c0.3392,0.1634 1.0089,1.1219 1.3025,1.0982c0.0266,-0.0019 0.0741,0.0085 0.1292,0.0266l-0.0029,-0.0086l0.2812,-0.1957c0.818,-1.2027 1.3319,-2.6885 1.5523,-4.1201c0.2945,-1.8934 -1.1096,-2.4548 -2.4453,-3.2984c-1.1789,-0.741 -1.1267,-1.7974 -0.6431,-3.0172c0.2565,-0.6422 0.5614,-1.2284 0.6745,-1.9181c0.1292,-0.7866 -0.2565,-1.4098 -0.8351,-1.8572c-0.0646,-0.0494 -0.133,-0.0969 -0.2033,-0.1425c-0.608,-0.3971 -1.3708,-0.6223 -2.0092,-0.6356c-0.1007,0.001 -0.5453,-0.1985 -0.3097,-0.1938c0.3391,0.0067 0.6735,0.0523 1.0041,0.1226c-1.1029,-1.0773 -1.1352,-2.8719 -1.1846,-4.3168c-0.0912,-2.5356 -0.4323,-5.0056 -0.8104,-7.5145c-0.3743,-2.4862 -0.7923,-4.9885 -1.0127,-7.4955c-0.2365,-2.6562 -0.0997,-5.2089 -0.6621,-7.847c-0.001,-0.0038 0.0076,-0.0038 0.0085,-0.0067c-0.0019,-0.0057 -0.0133,-0.0104 -0.0133,-0.0161c0.2005,-7.8147 -0.3239,-15.6133 -0.3315,-23.427c0,-0.0048 0.0152,-0.0048 0.019,-0.0086l-1.1524,-15.5363c0,0 -13.1822,-0.1178 -29.1536,2.5536l-1.1153,12.8545c0,0 0.1321,0.2679 -0.0209,0.2194c-0.9652,10.2334 -1.9342,20.4744 -2.8994,30.7107c0,0.0009 0.0029,0.0019 0.0029,0.0038c-0.4019,6.5388 -1.7214,13.053 -3.3241,19.3952c-0.7106,2.8053 -1.8487,5.851 -1.3528,8.7808c2.546,0.7752 4.8669,2.5175 7.5934,2.5375c2.5726,0.0199 5.0777,-1.2806 7.5116,-1.9494c0.115,-0.0314 0.5358,0.1472 0.3962,0.1862c-2.6163,0.7182 -5.2849,2.147 -8.0332,1.956c-2.6923,-0.1862 -4.9248,-1.7822 -7.4471,-2.5602c0.0019,0.0095 0.0019,0.019 0.0038,0.0294c0.1207,0.6185 0.3563,0.741 -0.2546,1.2236c-0.9756,0.7752 -0.2223,1.1761 0.5662,1.7936c0.0152,0.0143 0.0209,0.0285 0.02,0.0494c-0.6109,0.9861 -1.4402,1.7936 -2.1328,2.7161c-0.3182,0.4237 -0.5491,0.8911 -0.7334,1.386c-0.3363,0.894 0.1074,1.5238 0.5738,2.2525c0.8132,1.2616 1.7917,2.4073 2.907,3.4086c0.9766,0.8787 -0.1045,1.9703 2.1119,1.9997l0.5804,-0.2299c3.4238,-5.6382 13.3922,-4.4393 17.3622,0.0855c0.7391,-0.4579 1.3699,-0.8474 1.1704,-1.8658c-0.1824,-0.9281 -0.5206,-1.4525 -0.4455,-2.3351c-1.2597,0.2613 -2.6895,-0.0285 -3.9292,-0.2289c-2.0463,-0.3278 -4.0109,-0.913 -6.1038,-0.855c-0.0988,0.0019 -0.5453,-0.191 -0.3078,-0.1986c3.2262,-0.0826 6.2966,1.1685 9.5228,1.179c0.0485,-0.229 0.0988,-0.4589 0.1463,-0.6897c-0.3163,-0.1995 -0.6536,-0.3544 -1.0089,-0.4655c-0.5405,-0.1881 -1.0659,-0.3867 -1.6169,-0.5558c-0.8502,-0.2574 -1.7195,-0.4493 -2.583,-0.646c-1.9846,-0.455 -3.9853,-0.8464 -6.0088,-1.0754c-0.1216,-0.0133 -0.5168,-0.2289 -0.2042,-0.1938c2.5441,0.2879 5.0549,0.818 7.542,1.4184c1.4155,0.342 3.6841,0.7239 4.713,1.9513c2.0216,-1.672 3.23,-4.7367 2.3607,-7.2932c-0.3705,-1.0868 -1.6207,-1.3186 -2.2116,-2.2002c-0.398,-0.5918 -0.076,-1.006 0.2974,-1.539c0.494,-0.6944 0.2033,-1.5114 0.1045,-2.2942c0,-0.0019 -0.0029,-0.0029 -0.0029,-0.0038c0,-0.0067 0,-0.0152 0,-0.0238c-0.0038,-0.0342 -0.0104,-0.0684 -0.0133,-0.1026c0,-0.0028 0.0095,-0.0019 0.0105,-0.0047c-0.001,-0.0371 -0.0029,-0.0732 -0.0029,-0.1102c-0.0095,-0.0124 -0.0199,-0.0238 -0.0294,-0.0361c-0.0266,-0.0333 -0.0095,-0.0504 0.0266,-0.0589c-0.1672,-8.2204 -0.8731,-16.492 0.4617,-24.6592c0.0047,-0.0218 0.038,-0.0313 0.0779,-0.0351c1.216,-4.4137 1.9171,-8.9338 2.4709,-13.472c0.2755,-2.2667 0.5957,-4.541 0.7382,-6.82c0.1387,-2.1432 0.1007,-4.1363 1.0089,-6.1361c0.0484,-0.1121 0.513,0.0494 0.474,0.1321c-0.8407,1.8572 -0.9091,3.7316 -0.988,5.7323c-0.0874,2.2562 -0.4398,4.5201 -0.703,6.7583c-0.5624,4.7899 -1.2882,9.5646 -2.5925,14.2158c-0.0038,0.0133 -0.0285,0.0133 -0.0437,0.0199c-1.2797,8.0969 -0.5881,16.2982 -0.4237,24.4492c1.5371,1.9323 3.6309,4.256 6.3232,3.9786c0.1035,-0.0133 0.55,0.172 0.3106,0.1967c-2.7265,0.2802 -4.9115,-1.6473 -6.5844,-3.6233c0.1111,0.7049 0.2707,1.3575 -0.1416,2.0225c-0.1729,0.2793 -0.3496,0.5092 -0.4864,0.8113c-0.2622,0.5957 0.6736,1.1296 1.0346,1.3899c0.8113,0.5823 1.3053,1.102 1.5238,2.1023c0.4379,1.976 -0.2565,4.1449 -1.5286,5.7352c0.0029,0.0028 0.0114,0.0038 0.0133,0.0076c0.4171,0.5871 0.8607,1.1172 1.4649,1.52c0.9111,0.607 2.0397,0.2869 2.9697,-0.0589c0.1064,-0.0399 0.5339,0.1339 0.3905,0.1862c-2.1081,0.7752 -3.7231,0.2356 -5.0436,-1.4165c-0.2897,0.3325 -0.5985,0.6422 -0.9357,0.9063c-0.1739,1.159 0.4484,1.9561 0.5006,3.079c0.0352,0.7581 -0.9718,1.1856 -1.4839,1.5105c-0.0997,0.0608 -0.3714,-0.0133 -0.4417,-0.0988c-3.7449,-4.6332 -13.6572,-5.7095 -16.8426,0.094c-0.0674,0.1093 -0.4465,-0.0323 -0.4693,-0.1111c-0.056,0.0199 -0.1111,0.0389 -0.1634,0.056c0.0428,0.0209 0.0789,0.0428 0.096,0.0608c0.0209,0.0228 0.0133,0.038 -0.0466,0.039c-0.0028,0 -0.0028,0.0009 -0.0066,0.0009c-0.039,-0.0009 -0.077,-0.0038 -0.1159,-0.0047c-0.6071,-0.0171 -1.1818,-0.1121 -1.634,-0.419c-0.0067,-0.0038 -0.0124,-0.0095 -0.0181,-0.0133c-0.2508,-0.1738 -0.4655,-0.4104 -0.6213,-0.7438c-0.3553,-0.7667 -0.5719,-1.1277 -1.2074,-1.7537c-0.837,-0.8275 -1.5476,-1.7746 -2.1974,-2.7522c-0.2764,-0.4132 -0.5282,-0.8417 -0.7799,-1.2682c-0.152,-0.2556 0.2156,-1.0773 0.3135,-1.331c0.2916,-0.7818 0.8854,-1.4459 1.4202,-2.071c0.3373,-0.3933 0.6755,-0.7828 0.9861,-1.1998c0.4712,-0.6327 -0.1605,-0.8303 -0.5738,-1.2132c-0.3211,-0.2983 -0.2878,-0.6222 0,-0.9139c0.3819,-0.3838 1.0061,-0.5823 0.7163,-1.2407c-0.3961,-0.8996 -0.3116,-1.9598 -0.2175,-2.9317c0.2555,-2.7531 1.2245,-5.4587 1.8734,-8.132c1.3889,-5.7389 2.5061,-11.6403 2.8671,-17.5427c0,-0.0009 -0.0019,-0.0019 -0.0019,-0.0028c0.4408,-4.6674 0.8816,-9.3338 1.3224,-14.0011c0.0779,-0.8256 0.1558,-1.6502 0.2337,-2.4748c0.456,-4.8203 0.911,-9.6406 1.3661,-14.459l1.177,-13.2012c0,0 17.8724,-2.9697 30.0438,-2.5536l1.1352,16.151c0.0086,7.8109 0.533,15.6066 0.3325,23.4184c0.4323,2.034 0.5691,4.0328 0.5795,6.1057c0.0124,2.6419 0.5482,5.2582 0.9044,7.8679c0.3525,2.5716 0.855,5.1357 0.97,7.7358c0.076,1.7119 -0.1606,4.0584 1.1609,5.3751c0.0484,0.0485 0.0826,0.1045 0.1358,0.1501c0.0228,0.0076 0.0466,0.0181 0.0694,0.0266c0.6336,0.2242 1.2245,0.5586 1.7071,1.045c1.331,1.3367 -0.2593,3.2234 -0.5016,4.6512c-0.341,2.0235 2.7949,2.1993 3.363,3.9435z" fill="#000000"/></g><g><path d="M222.8327,240.3723c0,-0.001 -0.001,-0.001 -0.001,-0.0029c0.0342,-2.8557 0.6023,-5.6658 0.8189,-8.5053c0.0988,-0.5149 0.1511,-1.0118 0.1834,-1.6312c-0.0295,-0.3173 0.0313,0.1245 0.3021,-0.1909c0.2156,-0.2508 0.342,0.3002 0.7125,0.4161c0.5377,0.1719 1.5143,0.4446 2.0586,0.5738c1.2084,0.2926 2.9118,0.6716 4.1667,0.6716c2.9118,0 5.5832,-0.0323 8.4759,-0.3819c3.3659,-0.4066 5.6687,-1.348 8.8597,-2.4405c2.5318,-0.8683 5.0835,-2.755 7.62,-3.6176c0.2916,0.7923 0.2745,1.7299 0.3429,2.5612c0.0874,1.0792 0.2765,2.1536 0.4228,3.2262c0.3173,2.3313 0.6631,4.6493 1.2179,6.9331c-0.0342,0.0342 -0.0447,0.0798 0.0304,0.1387c0.0009,0.0009 0.0009,0.0009 0.0009,0.0019c0.0067,0.0237 0.0114,0.0484 0.0171,0.0722c0.0114,0.0465 0.0608,0.0788 0.1178,0.1016c0.0333,0.0684 0.0447,0.1435 0.0371,0.2223c-0.0019,0.0266 -0.0086,0.0551 -0.0114,0.0827c-0.2955,1.1884 -4.4489,3.2205 -4.7652,3.3392c-2.965,1.1343 -6.0848,1.6283 -9.2283,1.9589c-0.6831,-0.6203 -0.3401,-2.6961 -0.3164,-3.476c0.0618,-1.957 -0.2926,-3.8941 -0.6194,-5.814c-0.0218,-0.1207 -0.3363,-0.2157 -0.36,-0.0627c-0.2375,1.5646 -0.6945,3.0894 -0.9225,4.6664c-0.1254,0.8654 -0.2726,1.7261 -0.3828,2.5925c-0.0998,0.7847 -0.3658,1.5286 -0.4589,2.3057c-0.0019,0.0085 0.0095,0.0152 0.0105,0.0237c-3.8285,0.1577 -7.6133,-0.3106 -11.3886,-0.8949c-0.6812,-0.1045 -1.5267,-0.1767 -2.395,-0.3021c-0.8151,-0.1396 -1.6606,-0.3201 -2.4187,-0.5823c-0.9851,-0.3867 -1.7907,-0.988 -2.127,-1.9855z" fill="#c0e1e1"/><path d="M258.395,238.1084c0.873,1.0317 -2.167,2.7778 -2.8348,3.1635c-3.3849,1.9779 -7.6,2.4995 -11.4266,2.8928c-0.1235,0.0142 -0.2727,-0.1169 -0.2309,-0.1919c-0.5899,-0.628 -0.4132,-2.015 -0.398,-2.756c0.038,-1.8629 -0.1378,-3.6565 -0.4104,-5.4748c-0.0038,-0.019 -0.0067,-0.039 -0.0095,-0.0589c-0.0038,0.018 -0.0067,0.0361 -0.0105,0.0551c-0.2394,1.1875 -0.5424,2.3674 -0.7258,3.5748c-0.1292,0.8655 -0.2707,1.7262 -0.3819,2.5926c-0.0988,0.779 -0.3629,1.5181 -0.455,2.2914c0.0883,0.0684 0.1292,0.1672 -0.0295,0.1748c-4.4118,0.209 -8.702,-0.4978 -13.0558,-1.0897c-2.072,-0.2821 -5.168,-0.6165 -5.9546,-2.9355c0,-0.0028 -0.0029,-0.0038 -0.0029,-0.0057c0.0048,-0.3828 0.0228,-0.7647 0.0447,-1.1466c0.0864,-1.5257 0.2888,-3.0419 0.4797,-4.5591c0.209,-1.6615 0.3971,-3.325 0.3791,-5.0055c-0.0019,-0.1739 0.3619,-0.1102 0.3638,0.0342c0.0076,0.7362 -0.0304,1.4696 -0.0864,2.2011c-0.2166,2.8396 -0.7847,5.6497 -0.8189,8.5054c0.0009,0.0009 0.0019,0.0009 0.0019,0.0019c0.3353,0.9975 1.1419,1.5988 2.127,1.9855c0.7448,0.2916 1.5903,0.4636 2.4187,0.5823c0.8683,0.1245 1.7138,0.1976 2.395,0.3021c3.7753,0.5843 7.561,1.0526 11.3886,0.8949c-0.001,-0.0076 -0.0114,-0.0142 -0.0105,-0.0237c0.0922,-0.7781 0.3591,-1.521 0.4589,-2.3057c0.1102,-0.8664 0.2574,-1.7271 0.3828,-2.5925c0.229,-1.577 0.685,-3.1018 0.9225,-4.6664c0.0237,-0.1539 0.3391,-0.058 0.36,0.0627c0.3259,1.9199 0.6802,3.856 0.6194,5.814c-0.0237,0.7799 -0.3667,2.8557 0.3164,3.476c3.1435,-0.3306 6.2633,-0.8255 9.2283,-1.9589c0.3163,-0.1187 4.4697,-2.1508 4.7652,-3.3392c0.0066,-0.0285 0.0085,-0.0561 0.0114,-0.0827c0.0076,-0.0788 -0.0038,-0.1539 -0.0371,-0.2223c-0.057,-0.0228 -0.1064,-0.0541 -0.1178,-0.1016c-0.0057,-0.0238 -0.0104,-0.0485 -0.0171,-0.0722c0,-0.001 0,-0.001 -0.0009,-0.0019c-0.0751,-0.0599 -0.0646,-0.1055 -0.0304,-0.1387c-0.5548,-2.2838 -0.9006,-4.6018 -1.2179,-6.9331c-0.1463,-1.0716 -0.3344,-2.1461 -0.4228,-3.2262c-0.0684,-0.8313 -0.0503,-1.7689 -0.3429,-2.5612c-0.0067,-0.0181 -0.0095,-0.0371 -0.0162,-0.0551c-0.0731,-0.1824 0.285,-0.1615 0.3373,-0.0276c0.5747,1.4706 0.4664,3.4419 0.6811,4.997c0.3639,2.661 0.722,5.32 1.3633,7.9306z" fill="#000000"/></g><g><path d="M278.9482,190.3215c3.7544,5.1443 -6.8656,10.6419 -8.056,11.7278c-0.4968,0.4465 -1.804,1.1381 -2.4643,1.5333c-1.0763,0.6431 -1.0763,0.6431 -1.7575,0.6232c-1.3034,0.3591 -0.3771,0.4474 -1.3034,0.3591c-1.2122,-0.114 -1.2369,-0.2594 -2.3949,-0.5805c-1.1096,-0.3068 -2.1708,-1.2806 -3.1008,-1.9085c-1.6388,-1.1096 -2.0007,-2.9697 -2.5052,-3.2329c-1.1742,-0.6108 -2.5849,-6.0695 -3.1863,-6.061c0.0352,0.3914 -0.2973,5.0398 -0.1824,5.4502c0.1625,0.5776 1.1201,5.2212 1.2958,5.8358c0.3316,1.1619 2.1765,5.6525 2.508,6.5161c0.3192,0.8407 0.76,1.9617 1.1676,2.7607c0.3334,0.6545 0.7809,1.9133 0.8512,2.6191c0.1586,1.5884 -0.2869,2.1356 -1.027,3.4523c-0.3296,0.5881 -0.9205,1.007 -1.2074,1.5438c-0.2955,0.5519 0.3534,0.8844 0.455,1.4592c0.0741,0.4113 0.2765,1.5067 0.0038,1.8572c-0.2384,0.304 -1.1067,0.437 -1.4877,0.6736c-1.4573,0.8958 -2.8481,1.7024 -4.4099,2.4092c-1.5551,0.7039 -3.4969,1.6235 -5.1395,2.1185c-1.7252,0.5244 -3.1863,0.7809 -4.8868,1.3623c-1.7793,0.6089 -3.9149,0.6175 -5.7978,0.6175c-3.0324,0 -5.5775,0.7571 -8.4028,-0.134c-1.0393,-0.3296 -2.5279,-0.2223 -3.78,-1.2796c-0.5691,-0.4769 -2.0843,-0.6479 -1.8079,-1.2882c0.171,-0.4 0.0475,-1.5666 0,-2.6572c-0.2669,-0.4427 0.8607,-1.6511 0.4399,-2.0111c0.1159,-0.0599 0.3125,-0.1511 0.5453,-0.2584l0.2175,-5.758l-0.2546,-0.6783c-0.1624,0.5472 -0.3581,1.083 -0.5956,1.6008c-0.9633,2.089 -2.8519,5.0407 -5.5499,4.6673c-0.0276,-0.0038 -0.0323,0.0048 -0.0532,0.0048c-4.3016,-0.1558 -6.7327,-5.7048 -8.5529,-8.9006c-1.253,-2.2049 -2.5137,-4.4279 -4.0175,-6.479c-1.2996,-1.7698 -2.3769,-3.6546 -2.9222,-5.7988c-0.001,-0.0009 0,-0.0009 0,-0.0009c-0.3344,-1.6768 1.2872,-3.6566 2.1156,-4.9799c1.2027,-1.9162 2.0748,-4.0451 3.2348,-5.9983c1.4981,-2.5242 2.9288,-5.0958 4.4688,-7.5972c1.4734,-2.3883 3.0172,-4.7338 4.351,-7.2067c0,-0.0009 -0.001,-0.0019 -0.001,-0.0019c2.5147,-5.1651 7.9829,-4.5894 12.7025,-6.0163c0.1149,0.0047 0.2603,-0.076 0.2603,-0.076l3.6005,-1.0289c0.1577,0.1587 2.4139,4.1173 7.9163,3.8399c5.5015,-0.2774 5.6212,-4.0774 5.6212,-4.0774l3.3896,0.4541c0.5035,0.115 1.0022,0.2527 1.4924,0.418c1.7974,0.6156 3.5236,1.482 5.0664,2.5973c2.1812,1.5742 4.0679,3.5616 5.4663,5.8691c0.8939,1.4839 1.5409,3.097 2.4785,4.5553c0.8588,1.3309 1.7955,2.6068 2.547,4.0004c-2.8966,-1.0811 -5.6449,0.2356 -6.9578,3.0172c-0.057,0.1207 0.4085,0.2765 0.4778,0.1292c1.1856,-2.5108 3.6813,-4.0308 6.4325,-2.9364c0.0494,0.019 0.1035,0.0256 0.1529,0.0247c-0.0114,0.0199 -0.0209,0.0399 -0.0323,0.0598c-2.7607,-0.4645 -5.2886,2.4976 -5.6439,5.035c-0.02,0.1596 0.4598,0.266 0.4778,0.1283c0.3021,-2.1679 2.5622,-5.2944 5.0521,-4.9628c-0.5358,0.9177 -1.2093,1.7138 -2.3275,1.9294c-0.2603,0.0523 0.1663,0.2613 0.2964,0.2366c3.2614,-0.627 2.9935,-5.2212 6.081,-6.2225l-0.0475,-0.2223c0.0342,-0.0048 0.0636,-0.0038 0.0959,-0.0086c-0.0902,0.1805 0.1121,0.1273 0.1121,0.1273c0.3259,-0.1482 2.7607,-0.5044 5.017,2.0188c0.4484,0.5016 0.816,0.9718 1.1447,1.4193c-0.93,-0.8484 -3.1948,-2.5441 -5.8491,-1.9285c-0.0456,0.0997 -0.1007,0.1938 -0.1758,0.2707c-1.5542,1.5827 -2.7227,3.1759 -1.9104,4.9685c0.6004,1.3234 2.4909,2.9897 3.6461,3.288c6.5958,1.7185 5.5945,-4.675 6.6072,-3.288zM223.701,213.5766l0.3486,-1.0279c-0.037,-0.2223 -0.0826,-0.438 -0.1624,-0.6242c-0.058,-0.1425 -0.5311,-0.1957 -0.4741,-0.0703c0.1796,0.4199 0.2214,1.1942 0.285,1.6796c0.0019,0.0143 0.001,0.0285 0.0029,0.0428zM216.3955,202.036c-0.0504,0.019 -0.0504,0.0475 -0.0257,0.0826c0.1302,-0.1206 0.3677,-0.208 0.0257,-0.0826zM221.9881,208.4019c0.6109,0.114 1.2521,0.4171 1.2825,0.4427c0.3192,0.3306 0.7695,0.5957 0.6308,0.2575c-0.1216,-0.2955 0.1986,-0.7695 0,-1.0488c-0.1007,-0.2261 0.0836,-0.8522 -0.0057,-1.0811c-0.0256,-0.7999 0.1064,-0.4399 0.1064,-0.989c0,-0.4189 -0.1387,-1.139 -0.1387,-1.1428c-0.0275,-0.5453 0.0181,-0.2698 -0.0969,-0.8056c0.0238,-0.1824 -0.1178,-0.7705 -0.1235,-0.9586c0.0504,-0.475 -0.1311,-0.4484 -0.1254,-0.9281c0.0038,-0.1558 -0.0874,-0.5643 -0.1947,-0.5852c0.0076,-0.4503 -0.2451,-0.6774 -0.266,-1.1134c-0.0409,-0.7667 -0.4551,-1.1809 -0.684,-1.9171c-0.7667,-2.4862 -1.0469,-0.989 -1.0916,-1.691c-0.018,-0.1378 -0.0503,0.2774 -0.1558,0.2451c-0.019,-0.3135 0,0 -0.0864,0.3173c-0.0846,0.1453 -0.1197,0.2783 -0.1853,0.4275c-0.0494,0.0845 0,0 -0.0494,0.0855c-0.0199,0.037 0.0314,0.303 0.0266,0.3372c-0.0997,0.2081 -0.1672,0.1881 -0.2508,0.4028c-0.037,0.0798 -0.3135,0.267 -0.3439,0.3525c0,0 -0.1862,0.2992 -0.1909,0.3182c-0.1397,0.4817 -0.1995,0.0152 -0.3316,0.495c-0.0095,0.038 -0.5918,0.6944 -0.6013,0.7324c-0.3468,0.5159 -0.418,0.3829 -0.76,0.6356c-1.1913,0.5871 -0.6527,0.3306 -0.6536,0.3334c-0.134,0.152 0.0665,0.7372 0,0.9263c-0.057,0.0731 -0.0542,0.19 -0.1102,0.266c-0.0105,0.0152 -0.0513,0.0076 -0.1036,-0.0105c-0.0009,-0.0218 -0.0237,-0.0484 -0.0218,-0.0332c-0.0086,0.0066 -0.0998,-0.0276 -0.2109,-0.0694c-0.2518,-0.1254 -0.5748,-0.3059 -0.7714,-0.3857c0.1064,0.0751 0.2527,0.1587 0.3382,0.2318c-0.3173,0.0447 -0.2005,0.1444 0.1491,0.1435c0.058,0 0.0684,0.151 0.1074,0.1263c0.0845,0.0627 0.0959,0.1862 0.1805,0.2442c-0.0295,0.2593 -0.1539,0.1805 0.0579,0.3334c0.1017,0.076 0.2803,0.4674 0.3876,0.5311c0.0912,0.3334 0.2166,0.7049 0.4114,0.9699c0.0513,0.0675 0.2536,0.5681 0.3201,0.5814c0.3325,0.4836 0.2955,0.1292 0.3962,0.6061c0.0342,0.1615 0.265,0.5643 0.3923,0.5444c0.0998,0.1377 0.1188,0.1776 0.2375,0.303c0.4684,0.5026 -0.3059,0.0637 0.3107,0.3724c0.4275,0.2109 -0.0551,0.4627 0.4085,0.4266c0.265,0.0199 0.1387,0.2394 0.4075,0.2375c0.2204,0.0513 0.2565,0.3049 0.4551,0.4294c0.0522,0.0294 0.892,0.1083 0.9471,0.1035z" fill="#302d63"/><path d="M273.9028,191.1623c1.5447,0.5937 3.1521,0.2593 4.4108,-0.6935c-0.3705,1.4164 -1.1694,2.7607 -2.6533,3.2157c-0.3753,0.1159 -0.7619,0.1739 -1.1495,0.19c-0.4437,0.0181 -0.8902,-0.0228 -1.3281,-0.1187c-0.7971,-0.1748 -1.5628,-0.5197 -2.2173,-0.9861c-0.2651,-0.1891 -0.5244,-0.4009 -0.7714,-0.6318c-0.0209,-0.0199 -0.0428,-0.0418 -0.0646,-0.0617c-0.7543,-0.7258 -1.3528,-1.6416 -1.4516,-2.6904c-0.1634,-1.7452 0.9547,-3.0837 2.2914,-4.0537c0,0 3.3867,-0.4522 6.4153,2.7835l-0.0076,-0.0161c0.5339,0.8588 0.818,1.4991 0.9405,1.804c-1.406,1.3281 -3.3924,1.7765 -5.1328,0.6755c-1.3338,-0.8417 -2.566,-2.3522 -1.8164,-3.9872c0.0551,-0.1216 -0.4114,-0.2764 -0.4769,-0.1263c-0.9823,2.1413 1.216,4.0052 3.0115,4.6968z" fill="#c0e1e1"/><path d="M278.8466,190.0745c1.7784,1.3158 1.1485,3.5245 0.1197,5.1443c-1.5903,2.4994 -3.9634,4.5296 -6.6111,5.8425c-0.0038,0.0019 -0.0095,0.0009 -0.0133,0.0019c-0.4854,0.4389 -0.9804,0.8664 -1.4981,1.2663c-1.7585,1.3614 -3.8086,2.072 -5.9964,2.3494c-0.0171,0.0019 -0.0418,-0.001 -0.0675,-0.0057c-0.0323,0 -0.0598,0.0047 -0.1045,-0.0076c-2.5498,-0.7154 -4.7329,-1.958 -6.3783,-4.0603c-1.6805,-2.148 -2.7284,-4.77 -3.9425,-7.2134c-0.3572,3.5359 -0.0076,6.8571 1.0336,10.299c1.1818,3.8988 3.1797,7.485 4.4441,11.3439c0.855,2.6087 -0.6232,4.2864 -2.2268,5.947c0.3895,0.7999 1.5343,3.1645 0.4665,3.7962c-0.0599,0.0352 -0.1748,0.0133 -0.2746,-0.0237c-1.5504,0.3695 -2.7854,1.1476 -4.1496,1.9826c-1.4497,0.8892 -3.1046,1.4231 -4.674,2.0587c-3.4342,1.3917 -6.6946,2.3845 -10.3939,2.6809c-3.5435,0.2831 -7.1269,0.5918 -10.6495,-0.0428c-1.8383,-0.3306 -3.9102,-0.987 -5.4008,-2.1888c-0.1548,0.0029 -0.3771,-0.0912 -0.341,-0.1852c0.2764,-0.7353 -0.0713,-1.7518 -0.096,-2.5137c-0.0266,-0.9785 0.077,-1.9656 0.8911,-2.6125l0.437,-5.4777c-0.1966,0.4978 -0.4104,0.987 -0.6526,1.4573c-1.0308,2.0035 -2.8633,4.1686 -5.302,3.9995c-0.0171,0.0028 -0.0313,0.0057 -0.0551,0.0057c-0.113,-0.001 -0.2194,-0.0162 -0.3296,-0.0238c-0.0076,0 -0.0152,-0.0009 -0.0228,-0.0009c-1.3766,-0.0931 -2.5517,-0.6441 -3.5692,-1.463c-1.7271,-1.3899 -3.0124,-3.5255 -4.104,-5.4074c-0.1225,-0.2109 -0.2422,-0.419 -0.36,-0.6223c-0.4693,-0.8084 -0.9329,-1.6197 -1.3984,-2.4301c-0.7068,-1.2293 -1.4279,-2.4491 -2.1888,-3.6451c-0.2945,-0.4617 -0.5881,-0.9234 -0.8978,-1.3756c-1.4259,-2.0824 -2.7911,-4.029 -3.4276,-6.5256c-0.0009,-0.0028 -0.0057,-0.0038 -0.0057,-0.0057c-0.3002,-1.5143 0.9576,-3.1977 1.7138,-4.4051c1.1847,-1.8981 2.0862,-3.9463 3.1996,-5.891c1.5343,-2.6723 3.0913,-5.3437 4.6883,-7.98c1.5238,-2.5222 3.1663,-4.9713 4.5714,-7.5648c0,-0.001 -0.001,-0.0019 -0.001,-0.0019c1.1628,-2.3902 3.0685,-3.838 5.5851,-4.5999c2.3389,-0.7078 4.8136,-0.8009 7.1563,-1.4915c0.1055,-0.0314 0.2119,-0.057 0.3164,-0.0903l4.0422,-1.1894l0.2081,0.0589c0,0 0.0997,0.1644 0.2954,0.4209c0.7876,1.0336 3.1892,3.6157 7.4024,3.4048c4.1363,-0.2071 5.0141,-2.5261 5.2022,-3.5644c0.0513,-0.2812 0.0542,-0.4741 0.0542,-0.4988c0,0 3.0875,0.2774 3.8399,0.475l-0.0399,0.0893c0.38,0.0694 0.76,0.1672 1.1381,0.2774c1.9617,0.571 3.8703,1.6331 5.4834,2.736c1.7955,1.2274 3.3392,2.775 4.6445,4.5059c0.172,0.228 0.3354,0.4626 0.4997,0.6973c0.1349,0.1938 0.2841,0.379 0.4133,0.5766c0.7372,1.1296 1.2977,2.3541 1.9256,3.5426c0.2347,0.4455 0.4788,0.8873 0.7458,1.3157c0.019,0.0314 0.0389,0.0618 0.0589,0.0922c0.7847,1.2483 1.6549,2.4339 2.3778,3.7183c0.1957,-0.3829 0.381,-0.7686 0.5748,-1.1267c0.3971,-0.7325 0.8749,-1.3547 1.4734,-1.8221c0.2081,-0.1625 0.4285,-0.3078 0.6679,-0.4285c0.3334,-0.1681 0.6992,-0.2954 1.1048,-0.3724c0,0 2.2734,-0.8882 5.302,1.9618c2.755,2.5935 2.2581,3.5406 2.8775,4.5172c0.1549,0.0295 0.324,0.1235 0.2537,0.1957c-0.0209,0.0209 -0.0437,0.039 -0.0656,0.0589c0.0095,0.0133 0.0181,0.0247 0.0295,0.038zM278.3184,189.9035c-0.1226,-0.3059 -0.4066,-0.9452 -0.9386,-1.8031l0.0076,0.0162c-3.0286,-3.2367 -6.4154,-2.7835 -6.4154,-2.7835c-1.3366,0.9699 -2.4548,2.3085 -2.2914,4.0536c0.0979,1.0488 0.6973,1.9646 1.4516,2.6904c0.0209,0.0209 0.0437,0.0418 0.0646,0.0618c0.2461,0.2308 0.5064,0.4427 0.7714,0.6317c0.6546,0.4665 1.4203,0.8113 2.2173,0.9861c0.437,0.095 0.8835,0.1368 1.3281,0.1188c0.3876,-0.0162 0.7743,-0.0741 1.1495,-0.19c1.4849,-0.4551 2.2829,-1.7993 2.6534,-3.2158c-1.2607,0.9519 -2.8681,1.2863 -4.4128,0.6926c-1.7955,-0.6907 -3.9938,-2.5555 -3.0115,-4.6968c0.0656,-0.1501 0.532,0.0047 0.4769,0.1263c-0.7495,1.634 0.4826,3.1445 1.8164,3.9872c1.7404,1.101 3.7269,0.6517 5.1329,-0.6755zM277.9925,195.8211c1.0973,-1.4592 2.2914,-3.8646 0.8341,-5.3818c-0.4028,1.6777 -1.3604,3.0913 -3.1179,3.5492c-1.4858,0.3867 -3.1055,-0.0494 -4.4279,-0.7438c-1.3661,-0.7182 -2.5555,-1.9314 -2.9859,-3.4343c-0.551,-1.9247 0.7553,-3.591 2.2249,-4.6597c0.0228,-0.0152 0.0608,-0.0143 0.096,-0.0152c0.0009,-0.0038 0,-0.0152 0,-0.0162c0,-0.0009 0,-0.0057 0,-0.0057c2.7255,-0.7267 5.0635,1.0279 6.0135,1.8943c-0.3287,-0.4484 -0.6964,-0.9186 -1.1448,-1.4193c-1.862,-2.0824 -3.8418,-2.203 -4.6616,-2.0985c-0.0067,0.0199 -0.0247,0.0361 -0.077,0.0465c-0.0617,0.0114 -0.114,0.0342 -0.1729,0.0485c-3.3839,0.8094 -2.9915,5.6658 -6.3479,6.3118c-0.1301,0.0247 -0.5567,-0.1843 -0.2964,-0.2366c1.1182,-0.2147 1.7917,-1.0117 2.3275,-1.9294c-2.4899,-0.3306 -4.75,2.7949 -5.0521,4.9628c-0.018,0.1368 -0.4978,0.0313 -0.4778,-0.1283c0.3553,-2.5374 2.8832,-5.4995 5.6439,-5.035c0.0114,-0.0199 0.0209,-0.0399 0.0323,-0.0598c-0.0494,0.0019 -0.1035,-0.0048 -0.1529,-0.0247c-2.7503,-1.0944 -5.2469,0.4256 -6.4325,2.9364c-0.0693,0.1473 -0.5358,-0.0085 -0.4778,-0.1292c1.3129,-2.7816 4.0612,-4.0992 6.9578,-3.0172c-0.7515,-1.3936 -1.6891,-2.6695 -2.547,-4.0004c-0.9376,-1.4583 -1.5846,-3.0714 -2.4785,-4.5553c-1.3984,-2.3075 -3.2851,-4.2949 -5.4663,-5.8691c-1.5428,-1.1143 -3.269,-1.9817 -5.0664,-2.5973c-0.4892,-0.1643 -0.9889,-0.303 -1.4924,-0.418l-3.3896,-0.4541c0,0 -0.1197,3.8 -5.6212,4.0774c-5.5014,0.2765 -7.7577,-3.6812 -7.9163,-3.8399l-3.6005,1.0289c0,0 -0.1454,0.0807 -0.2603,0.076c-4.7196,1.4269 -10.1888,0.8512 -12.7025,6.0163c0,0.001 0.001,0.0019 0.001,0.0019c-1.3338,2.4729 -2.8776,4.8184 -4.351,7.2067c-1.54,2.5014 -2.9707,5.073 -4.4688,7.5972c-1.159,1.9522 -2.0311,4.0812 -3.2348,5.9983c-0.8293,1.3224 -2.451,3.3022 -2.1156,4.9799c0,0.0009 0,0.0009 0,0.0009c0.5462,2.1451 1.6235,4.0299 2.9222,5.7988c1.5038,2.0511 2.7654,4.2741 4.0175,6.479c1.8202,3.1958 4.2513,8.7438 8.5529,8.9006c0.0209,0 0.0256,-0.0086 0.0532,-0.0048c2.698,0.3734 4.5866,-2.5783 5.5499,-4.6673c0.5139,-1.1191 0.8493,-2.3209 1.0155,-3.5397c0.0884,-0.6365 0.0865,-1.2835 0.001,-1.92c-0.0646,-0.4854 -0.1064,-1.2606 -0.285,-1.6796c-0.057,-0.1254 0.4151,-0.0722 0.474,0.0703c0.1074,0.2527 0.1625,0.551 0.2024,0.8579c0.0456,0.3553 0.0684,0.721 0.1102,1.0431c0.0779,0.5814 0.0351,1.177 -0.0247,1.7546c-0.038,0.342 -0.0969,0.6802 -0.1729,1.0156c0.4617,-0.9035 1.1514,-2.6885 1.1913,-5.4131c0,0 0.0142,-0.0504 0.038,-0.1074c-0.0798,-0.0228 -0.1539,-0.0551 -0.1767,-0.1026c-0.6603,-1.3518 -1.7718,-2.2363 -3.2661,-2.4975c-0.4171,-0.0732 -1.8212,-0.2318 -2.091,0.2783c-0.0788,0.1463 -0.5377,-0.018 -0.4788,-0.1301c0.2033,-0.3829 0.7961,-0.4817 1.3946,-0.4769c-0.7752,-0.5586 -1.3803,-1.293 -1.9342,-2.071c-0.798,-1.1163 -1.102,-2.5736 -2.0301,-3.572c-0.3952,-0.3164 -0.723,-0.7458 -1.1001,-1.0659c-0.6394,-0.5472 -1.4564,-0.8303 -2.2544,-1.0488c-0.2821,-0.076 -0.228,-0.2831 0.0561,-0.2052c0.7562,0.2071 1.5171,0.4588 2.1669,0.9044c0.3658,0.2489 0.6831,0.5272 0.989,0.8426c0.1909,0.1967 1.007,1.008 0.9519,0.2765c-0.0703,-0.9282 -1.2227,-1.9 -1.8202,-2.5422c-0.1254,-0.1349 0.3477,-0.0922 0.4398,0.0076c0.3981,0.4227 0.7866,0.8512 1.1448,1.3081c0.0912,0.1178 0.2052,0.2603 0.3144,0.4161c2.604,-1.0868 3.5141,-4.6673 4.5059,-7.0433c0.532,-1.2806 1.0535,-2.5612 1.7204,-3.78c0.456,-0.8332 1.046,-1.8183 1.9798,-2.1575c0.1235,-0.0437 0.5596,0.152 0.381,0.2176c-1.2502,0.4569 -1.9219,2.0795 -2.4577,3.1844c-0.551,1.1409 -1.0136,2.3275 -1.4991,3.496c-0.1349,0.3277 -0.2726,0.6773 -0.4123,1.0336c1.7889,-0.76 2.7826,-2.8557 3.5692,-4.5059c0.0684,-0.1482 0.5329,0.0057 0.4769,0.1283c-0.856,1.7974 -1.9447,4.1059 -4.0024,4.7395c-0.0199,0.0057 -0.0465,0.0048 -0.076,0.0019c0.9386,1.635 1.5086,3.668 2.0017,5.4749c0.6222,2.2667 0.3971,4.7471 0.3847,7.0708c0.59,0.4684 1.0726,1.0726 1.4212,1.7841c0,0 0.3031,3.7231 -1.8012,6.7317l-0.1472,3.1341l4.332,2.4424c3.2737,1.9608 6.7393,3.781 10.5887,4.1933c3.686,0.3933 7.2314,-0.9747 10.3987,-2.7255c0.1206,-0.0646 0.5624,0.1178 0.3838,0.2166c-3.3336,1.8401 -6.8657,3.0599 -10.7103,2.7407c-3.9425,-0.3258 -7.6219,-2.3142 -10.9507,-4.312l-4.0565,-2.2629l-0.1368,2.9136c-0.9224,0.7277 -0.911,1.9171 -0.8312,2.9887c0.0446,0.5928 0.2517,1.349 0.0902,1.9523c0.0361,0.0114 0.0684,0.0237 0.0874,0.0399c2.0121,1.7024 4.9628,2.222 7.4927,2.413c3.4152,0.2584 6.9815,-0.0675 10.3749,-0.4665c3.4181,-0.4018 6.6719,-1.9513 9.8335,-3.2205c2.4937,-1.0003 4.6293,-2.8443 7.2922,-3.3734c0.5956,-0.646 -0.039,-2.2534 -0.4598,-3.1588c-0.4294,0.4427 -0.8579,0.8883 -1.2426,1.3538c-0.0922,0.1149 -0.5472,-0.0513 -0.4446,-0.1786c0.4731,-0.5738 0.9984,-1.0973 1.5238,-1.6226c0.0076,-0.0038 0.0038,-0.0124 0.0152,-0.0143c0.456,-0.4579 0.9129,-0.9177 1.329,-1.4136c1.3367,-1.595 1.2854,-3.3734 0.5852,-5.2506c-1.3775,-3.6917 -3.1473,-7.1991 -4.294,-10.9811c-0.9861,-3.248 -1.2863,-6.4533 -0.93,-9.8163c0.0285,-0.2632 0.0579,-0.5254 0.0874,-0.7876c-0.0038,-0.0066 -0.0076,-0.0142 -0.0114,-0.0209c-0.0048,-0.0104 0.0123,-0.0133 0.0161,-0.0218c0.3705,-3.3146 0.8199,-6.5645 0.5729,-9.9266c-0.0133,-0.171 0.4645,-0.0703 0.475,0.0684c0.2479,3.3678 -0.1558,6.6567 -0.5653,9.9931c1.2331,2.3398 2.2525,4.8079 3.6765,7.0385c1.5514,2.4339 3.7877,3.9311 6.536,4.7215c2.3579,-0.3144 4.3852,-1.1637 6.2434,-2.6581c1.7195,-1.3841 3.2063,-3.0447 4.8688,-4.4944c0.1168,-0.1036 0.5595,0.0788 0.4465,0.1748c-0.9187,0.8037 -1.7898,1.6634 -2.6733,2.5099c1.7185,-1.0992 3.2404,-2.5099 4.4659,-4.1382zM217.7207,201.6797c0.1634,0.286 0.2727,0.5928 0.1967,0.8693c-0.0741,0.2574 -0.3297,0.3049 -0.5852,0.2698c0.4645,0.626 0.7182,1.3452 1.0478,2.071c0.5425,1.196 1.5884,2.5469 2.7018,3.2784c0.3439,0.0295 0.6574,0.077 0.8503,0.1112c0.6232,0.1092 1.1941,0.3306 1.7033,0.6431c0.0181,-2.2743 0.1492,-4.5818 -0.3857,-6.8096c-0.2536,-1.0469 -0.6536,-2.0558 -1.0383,-3.0571c-0.2613,-0.6897 -0.4351,-1.3357 -0.7448,-1.9855c-0.7733,1.9019 -1.7642,3.8855 -3.6822,4.6028c-0.0171,0.0066 -0.039,0.0076 -0.0637,0.0066z" fill="#000000"/></g><g><path d="M244.1602,168.481c0.1434,-0.1862 -0.3097,-0.3686 -0.4408,-0.2071c-0.038,0.0485 -0.0713,0.1007 -0.1083,0.1501c0.0019,-0.0323 0.0019,-0.1282 0.0019,-0.0959c0.0038,0.6783 -0.59,-0.7268 -0.0836,-0.9301l0.0171,-0.0104c0.0285,0.0228 0.0522,0.0484 0.1016,0.0608c1.7186,0.4455 3.6946,1.0621 5.1072,2.203c-1.3081,2.8738 -2.8661,5.7523 -3.8342,8.7666c-0.8037,-0.8559 -1.5969,-1.7242 -2.3959,-2.5859c-0.4104,-0.4408 -0.8198,-0.8816 -1.2397,-1.3129c-0.6061,-0.6251 -0.875,-0.9006 -0.1824,-1.6131c0.5348,-0.5481 0.9633,-1.1742 1.3661,-1.8202c0.0741,-0.1187 0.1491,-0.2365 0.2213,-0.3562c0.4655,-0.7667 0.913,-1.5476 1.4697,-2.2487z" fill="#c0e1e1"/><path d="M233.9838,176.8933c-0.0779,-0.1121 -0.1625,-0.2128 -0.3164,-0.2869c-0.0085,-0.0048 -0.0152,-0.0105 -0.0237,-0.0143c-0.703,-0.6118 -1.3813,-1.2426 -1.9589,-1.9437c-0.3658,-0.4465 -3.4476,-4.1353 -2.8738,-4.5828c0.0143,-0.0095 0.0285,-0.0171 0.038,-0.0313c0.9301,-1.3471 2.509,-2.2069 3.9045,-3.0315c0.0067,0.0086 0.0133,0.0171 0.02,0.0257c0.2213,0.3059 0.456,0.6023 0.7011,0.8901c0.3505,0.4114 0.7172,0.8104 1.1067,1.1885c0.0903,0.0874 0.1843,0.1691 0.2755,0.2546c1.1638,1.0896 2.4567,2.0548 3.7468,2.9478c0.6859,0.4779 1.4839,0.7382 0.9367,1.6483c-0.3933,0.6498 -0.7866,1.3024 -1.159,1.9665c-0.5975,1.0678 -0.9709,2.2534 -1.6292,3.2841c-0.8854,-0.7856 -1.8459,-1.5333 -2.7683,-2.3151z" fill="#c0e1e1"/><path d="M249.2655,169.6847c-0.0019,0.0076 0.0066,0.0133 0.0047,0.0199c-1.3651,3.0049 -3.0181,6.0126 -3.9814,9.177c-0.0076,0.0257 -0.0295,0.0456 -0.0618,0.0599c-0.1016,0.0788 -0.3002,0.0437 -0.3828,-0.0589c-1.0213,-1.0688 -2.0102,-2.166 -3.0153,-3.2519c-0.457,-0.4921 -1.4108,-1.1115 -1.634,-1.824c-0.6061,0.988 -1.2208,1.976 -1.7395,3.0106c-0.4759,0.9452 -0.7742,1.9361 -1.3879,2.812c-0.096,0.1368 -0.3259,0.0456 -0.4161,-0.039c-2.0131,-1.842 -4.295,-3.4437 -5.9831,-5.6012c-0.4009,-0.5092 -2.9165,-3.3943 -2.2696,-4.1334c0.0048,-0.0095 0.0038,-0.019 0.0105,-0.0295c1.0022,-1.4506 2.7255,-2.3446 4.2047,-3.2262c0.1387,-0.0826 0.3287,-0.0161 0.4132,0.1083c0.0019,0.0029 0.0038,0.0057 0.0057,0.0086c1.8639,2.716 4.6693,4.4365 7.2523,6.3716c0.1663,-0.2337 0.4342,-0.4436 0.5871,-0.5975c0.3886,-0.4 0.6945,-0.8921 0.9994,-1.3557c0.495,-0.7619 0.9339,-1.5608 1.4497,-2.3094c0.0941,-0.1368 0.1929,-0.2698 0.2917,-0.4028c0.0361,-0.0494 0.0693,-0.1017 0.1083,-0.1501c0.1301,-0.1615 0.5823,0.0209 0.4398,0.2071c-0.5567,0.702 -1.0041,1.482 -1.4696,2.2486c-0.0722,0.1188 -0.1473,0.2375 -0.2214,0.3563c-0.4028,0.646 -0.8312,1.272 -1.3661,1.8202c-0.6925,0.7125 -0.4246,0.988 0.1824,1.6131c0.4209,0.4313 0.8294,0.8721 1.2398,1.3129c0.7989,0.8616 1.5912,1.7309 2.3959,2.5859c0.9671,-3.0153 2.526,-5.8929 3.8342,-8.7666c-1.4127,-1.141 -3.3887,-1.7566 -5.1072,-2.2031c-0.0485,-0.0123 -0.0732,-0.038 -0.1017,-0.0608c-0.1444,-0.113 -0.0598,-0.3106 0.1872,-0.2479c0.3011,0.0779 0.6108,0.1643 0.9234,0.2546c0.0788,0.0228 0.1586,0.0465 0.2384,0.0703c1.5276,0.456 3.1113,1.0773 4.2902,2.0738c0.0057,0.0048 0.0067,0.0086 0.0114,0.0133c0.0266,0.0181 0.0409,0.0361 0.0532,0.0599c0.0152,0.0275 0.0181,0.0522 0.0143,0.0741zM231.6848,174.6465c0.5776,0.7011 1.2549,1.3319 1.9589,1.9428c0.1149,0.0997 0.2242,0.2033 0.3401,0.3021c0.9224,0.7818 1.8829,1.5295 2.7683,2.3151c0.6583,-1.0307 1.0317,-2.2163 1.6292,-3.2841c0.3724,-0.6641 0.7657,-1.3158 1.159,-1.9665c0.5472,-0.9101 -0.2498,-1.1704 -0.9367,-1.6483c-1.2901,-0.8939 -2.5821,-1.8591 -3.7468,-2.9478c-0.0912,-0.0855 -0.1852,-0.1672 -0.2755,-0.2546c-0.3895,-0.3781 -0.7562,-0.7771 -1.1067,-1.1885c-0.2461,-0.2878 -0.4798,-0.5842 -0.7011,-0.8901c-0.0067,-0.0086 -0.0133,-0.0171 -0.02,-0.0257c-1.3955,0.8246 -2.9744,1.6853 -3.9045,3.0315c-0.0095,0.0142 -0.0237,0.0218 -0.038,0.0313c-0.5747,0.4475 2.508,4.1373 2.8738,4.5828z" fill="#000000"/></g><g><path d="M224.5484,212.2428c0.2726,-0.3914 0.5728,-0.8541 0.7571,-1.2882c0.1653,-0.3848 0.1786,-1.1837 0.7439,-1.1039c0.4997,0.0693 1.063,0.2831 1.2825,0.7429c0.1358,0.2764 0.1235,0.3524 0.4275,0.4189c0.2812,0.0599 0.456,0.1197 0.7229,0.2708c1.1125,0.6241 1.9665,1.5352 2.9089,2.3778c0.4399,0.3943 0.9519,0.8104 0.5121,1.426c-0.3021,0.4218 -0.9301,0.5139 -1.406,0.5529c0.0199,0.3591 -0.4104,0.759 -0.5539,1.0725c-0.0855,0.1824 0.2622,0.1777 0.2812,0.3382c0.02,0.209 0.0912,0.2461 -0.0085,0.5016c-0.1368,0.3601 -0.2907,0.779 -0.5111,1.1049c-0.1102,0.1615 -0.2489,0.3097 -0.4066,0.4341c-0.1378,0.1093 -0.4551,0.1929 -0.5121,0.3477c0.3639,0.2565 1.0754,0.3363 0.9871,0.9947c-0.0741,0.5728 -0.5691,0.9747 -0.7885,1.4696c-0.247,0.5539 -0.5805,0.8123 -1.0317,1.2322c-0.2005,0.1909 -0.5387,0.8455 -0.7999,0.9253c-0.2375,0.0731 -0.4674,-0.0551 -0.685,-0.1055c-0.7277,-0.1776 -1.3433,-0.6355 -0.8179,-1.4155c-0.5396,0.4199 -1.2635,1.0184 -1.8392,1.3927c-0.6109,0.4 -0.8978,0.2679 -1.5143,0.0171c-0.5643,-0.2289 -1.3481,-0.4037 -1.7072,-0.93c-0.2023,-0.2936 -0.1149,-0.3648 0.1416,-0.5368c0.2812,-0.1871 0.4911,-0.4379 0.7505,-0.6545c0.5177,-0.4237 0.9044,-1.198 1.1732,-1.8012c0.2822,-0.627 0.4133,-1.0631 0.6869,-1.6825c0.2242,-0.5006 0.4588,-0.9329 0.5652,-1.4763c0.1226,-0.6355 0.1169,-1.3053 0.1169,-1.9589c0,-0.5358 -0.0513,-1.0431 -0.0513,-1.5846c0,-0.1121 -0.0352,-0.284 0,-0.3885c0.057,-0.1672 0.0807,-0.1235 0.2109,-0.2394c0.1558,-0.1425 0.265,-0.2945 0.3914,-0.4532" fill="#a86c35"/><path d="M228.0244,211.1446v0c-1.3081,0.4636 -2.5137,1.1419 -3.781,1.6929c-0.1358,0.0598 -0.4161,-0.1349 -0.2118,-0.2242c1.2711,-0.5501 2.4719,-1.2293 3.78,-1.691c0.1378,-0.0513 0.4218,0.1491 0.2128,0.2223zM225.8755,213.5889v0c0.3962,-0.0579 0.9434,0.1853 1.3262,0.2765c1.0982,0.2612 2.1955,0.5377 3.2766,0.8569c0.057,0.0199 0.1368,0.0589 0.1491,0.1292c0.1311,0.7353 -0.0171,1.4639 -0.5738,1.9836c-0.1083,0.1007 -0.4474,-0.0418 -0.3306,-0.1511c0.4769,-0.4417 0.6194,-1.0108 0.5795,-1.6492c-0.019,-0.3192 -1.5447,-0.5443 -1.8012,-0.6089c-0.455,-0.115 -0.9063,-0.229 -1.3613,-0.3392c-0.3069,-0.075 -0.8189,-0.3021 -1.1343,-0.2574c-0.1615,0.0228 -0.3715,-0.2052 -0.1302,-0.2404zM225.3407,215.4994v0c1.577,0.6241 3.2319,1.0611 4.9124,1.2996c0.0618,0.0085 0.2014,0.0513 0.1995,0.1377c-0.0171,1.2198 -0.6108,2.5033 -1.956,2.5926c-0.1596,0.0114 -0.3762,-0.2214 -0.1321,-0.2394c0.8037,-0.0532 1.2464,-0.59 1.5343,-1.2882c0.0921,-0.2185 0.1301,-0.4541 0.1672,-0.684c0.0788,-0.4712 -0.456,-0.3791 -0.7486,-0.437c-1.4108,-0.2774 -2.7921,-0.665 -4.1306,-1.1932c-0.2261,-0.0912 -0.02,-0.2556 0.1539,-0.1881zM225.486,218.5261v0c1.4953,0.1843 2.87,0.8008 4.2826,1.2844c0.0741,0.0247 0.1596,0.0684 0.1501,0.1586c-0.0978,0.9396 -0.6849,1.691 -1.2321,2.4235c-0.4503,0.5975 -0.7752,1.4183 -1.5077,1.7071c-0.4883,0.1929 -1.1609,-0.0636 -1.5722,-0.3258c-0.6565,-0.4142 -0.3135,-1.0374 0.0057,-1.5352c0.0684,-0.1074 0.3914,-0.0143 0.341,0.1244c-0.0294,0.0912 -0.0446,0.1045 -0.1168,0.1644c-0.1112,0.0902 -0.4304,-0.0713 -0.2803,-0.1938c0.0152,-0.0209 0.0238,-0.0447 0.039,-0.0665c0.1149,0.0418 0.228,0.0826 0.342,0.1254c-0.5539,0.8626 0.6279,2.0605 1.4981,1.1514c0.2508,-0.2594 0.4323,-0.609 0.6289,-0.9092c0.4342,-0.6526 0.9367,-1.2226 1.2863,-1.9332c0.4256,-0.8636 -0.2717,-0.8883 -0.9538,-1.1391c-0.9348,-0.3496 -1.8762,-0.6726 -2.8737,-0.797c-0.19,-0.0228 -0.2841,-0.2679 -0.0371,-0.2394zM226.0712,222.3004v0c-1.083,0.6688 -1.5352,1.6578 -2.8766,1.8943c-1.0488,0.1815 -2.0406,-0.7106 -2.8243,-1.2435c-0.2033,-0.1368 0.0969,-0.2337 0.2299,-0.1416c1.0839,0.7306 1.9646,1.4735 3.3573,0.8598c0.7163,-0.3164 1.158,-1.1476 1.8325,-1.5637c0.1226,-0.0741 0.4475,0.094 0.2812,0.1947zM227.9921,210.9384v0c1.3975,0.6555 2.6011,1.8991 3.7221,2.9374c0.4551,0.418 0.5349,0.646 0.209,1.1714c-0.2764,0.4474 -0.8702,0.6536 -1.3613,0.7201c-0.1615,0.0209 -0.3724,-0.2052 -0.1302,-0.2385c0.3971,-0.0579 1.8117,-0.6279 1.1894,-1.3604c-0.3676,-0.4246 -0.8417,-0.7571 -1.2711,-1.1115c-0.8274,-0.684 -1.5219,-1.4658 -2.5108,-1.9304c-0.2214,-0.1054 -0.019,-0.2698 0.1529,-0.1881zM226.7961,213.2194v0c0.3838,0.246 0.8141,0.4769 1.121,0.8246c0.1444,0.1672 -0.1995,0.1985 -0.2964,0.0893c-0.2869,-0.324 -0.6954,-0.5406 -1.0574,-0.7714c-0.0579,-0.038 -0.0969,-0.1235 -0.0228,-0.1682c0.077,-0.0465 0.1824,-0.018 0.2556,0.0257zM223.9974,212.4888v0c0.7657,-0.5766 1.4259,-1.7147 1.5219,-2.6619c0.0076,-0.0475 0.0779,-0.0712 0.114,-0.0722c1.0583,-0.0285 2.0757,0.3097 1.9959,1.5371c-0.0123,0.1454 -0.3714,0.0637 -0.3581,-0.0978c0.0484,-0.7239 -0.3382,-1.102 -1.0393,-1.1942c-0.3297,-0.0418 -0.3582,0.0532 -0.4266,0.3297c-0.0579,0.2147 -0.1501,0.4199 -0.2441,0.6222c-0.2936,0.6394 -0.7154,1.3044 -1.2844,1.73c-0.114,0.0874 -0.437,-0.0751 -0.2793,-0.1929z" fill="#000000"/></g><g><path d="M278.6271,189.8475c-0.228,0.4617 -1.4003,1.1447 -1.9161,1.2939c-0.798,0.2308 -2.1033,0.2128 -2.8377,-0.114c-0.6127,-0.2736 -1.1295,-0.7154 -1.462,-0.9994c-0.6185,-0.533 -0.7904,-0.6536 -1.16,-1.33c-0.1938,-0.3572 -0.4797,-0.9386 -0.3838,-1.3899c0.0703,-0.3258 0.4978,-0.5567 0.3762,-0.9566c-0.0741,-0.2432 -0.2878,-0.1919 -0.3847,-0.3724c-0.0732,-0.134 -0.0494,-0.3781 -0.0836,-0.5377c-0.077,-0.3639 -0.1368,-0.6432 -0.1387,-1.0526c-0.0076,-0.8047 -0.0988,-1.6549 0.2261,-2.395c0.3363,-0.7666 0.3942,-1.4791 0.5738,-2.2515c0.0902,-0.3838 0.2745,-0.7476 0.3458,-1.1485c0.075,-0.4038 0.0209,-0.8303 0.0589,-1.2464c0.0332,-0.3933 0.1121,-0.78 0.0855,-1.1961c-0.0238,-0.3657 -0.3116,-0.8331 -0.1929,-1.197c0.209,-0.6469 1.7528,-0.3543 2.0036,0.1919c0.114,0.2489 0.1615,0.9101 0.2004,1.197c0.0551,0.4076 0.0076,0.8246 -0.1444,1.1875c-0.3192,0.7591 -0.6089,1.463 -0.4788,2.3551c0.0589,0.4009 0.1625,0.7942 0.6337,0.684c0.1358,-0.0323 0.2812,-0.2347 0.417,-0.2983c0.172,-0.0827 0.2204,-0.5425 0.4085,-0.6698c0.2964,-0.2004 0.5719,-0.0579 0.6926,-0.379c0.1662,-0.4446 0.2546,-0.7838 0.4693,-1.2132c0.1871,-0.3743 0.1786,-0.8008 0.3543,-1.1827c0.1805,-0.3914 0.2632,-0.627 0.3249,-1.0526c0.1387,-0.9215 0.8142,-1.6492 1.3044,-2.3807c0.5529,-0.8218 0.8911,-1.6369 1.6644,-2.2762c0.6137,-0.5073 0.9367,-1.5599 1.9171,-1.0422c1.0345,0.5453 0.8787,1.311 0.3828,2.0473c-0.7657,1.1466 -0.7799,1.3756 -1.2454,2.1888c-0.2185,0.3876 -0.6327,0.6327 -0.9111,0.9908c-0.4037,0.5187 -0.9376,1.6027 -0.9091,2.3893c0.2413,-0.4826 0.8702,-1.35 1.2464,-1.7385c1.1419,-1.1761 1.9294,-2.9222 3.1008,-3.8656c0.2859,-0.2299 0.5652,-0.4218 0.8246,-0.6659c0.3667,-0.3439 0.227,-0.4551 0.8018,-0.3259c1.0184,0.228 1.0602,0.7496 0.9756,1.7081c0.419,-0.0883 0.6498,-0.2745 1.0906,-0.0902c0.608,0.2565 0.8598,1.0564 0.5653,1.6644c-0.2138,0.4341 -0.6983,0.645 -1.0422,0.9671c-0.3914,0.3686 -0.6308,0.8626 -0.9956,1.2464c-0.2498,0.265 -0.5852,0.5339 -0.8122,0.8265c-0.3487,0.4522 -0.6764,0.9975 -0.8237,1.5228c-0.1434,0.4978 -0.3619,0.6299 -0.6925,1.007c-0.2546,0.2898 -0.0532,0.6584 0.1738,1.045c0.0637,0.0105 0.1169,0.0048 0.1824,0c0.1786,-0.0114 0.4313,-0.3705 0.5738,-0.4683c0.2119,-0.1473 0.4589,-0.2632 0.6812,-0.3819c0.4436,-0.2375 0.8778,-0.4684 1.292,-0.7543c0.7191,-0.4959 1.3585,-1.3576 2.2866,-1.3538c0.4836,0.0019 0.6052,0.1805 0.5843,0.6717c-0.0171,0.4408 -0.2423,0.6289 -0.5843,0.9462c-0.3809,0.3486 -0.854,0.6061 -1.2834,0.9167c-0.4047,0.2964 -0.7325,0.7249 -1.1087,1.0555c-0.7799,0.6897 -1.5741,1.2834 -2.1964,2.1118c-0.6536,0.8731 -0.9861,2.2525 -1.5124,3.2044c-0.2175,0.4009 -0.6536,1.0697 -0.8512,1.4839c-0.2299,0.4854 -0.2964,0.094 -0.7125,0.4683c-0.588,0.5235 -1.4468,0.8493 -2.1555,1.0156" fill="#a86c35"/><path d="M275.7686,178.6128v0c-0.4969,0.9177 -0.894,2.0083 -1.9817,2.3265c-0.1349,0.0399 -0.361,-0.0028 -0.4294,-0.1396c-0.4912,-0.9747 -0.0732,-2.1698 0.1558,-3.1626c0.1349,-0.5852 0.2536,-1.177 0.2014,-1.7784c-0.0998,-1.1447 -2.1375,-1.8088 -1.863,-0.303c0.362,1.994 -0.0256,4.1534 -0.6792,6.0515c-0.703,2.0406 -0.3411,4.711 1.2625,6.2481c0.1967,0.1862 -0.2774,0.1539 -0.3762,0.058c-1.5523,-1.4858 -1.9522,-3.8067 -1.5333,-5.853c0.3031,-1.4886 0.8123,-2.8348 0.9415,-4.3728c0.0921,-1.1058 -0.2698,-2.2059 -0.0114,-3.2766c0.0114,-0.0541 0.0997,-0.0589 0.1406,-0.0589c1.1609,0.0437 2.5868,0.361 2.6096,1.786c0.0228,1.4972 -1.0925,3.3013 -0.3762,4.731c-0.1425,-0.0475 -0.2869,-0.094 -0.4284,-0.1406c1.0431,-0.3078 1.4136,-1.367 1.8895,-2.242c0.0808,-0.1472 0.5387,0.0143 0.4779,0.1264zM275.2907,178.4864v0c1.0089,-3.1369 2.4567,-6.2082 4.9476,-8.4388c0.115,-0.1026 0.5577,0.0788 0.4456,0.1786c-2.4757,2.2211 -3.9131,5.2696 -4.9163,8.3875c-0.0456,0.1492 -0.5206,0.0114 -0.4769,-0.1273zM280.2193,170.1435v0c0.8075,-0.7362 2.4814,-0.1577 2.0625,1.0631c-0.0532,0.1491 -0.5263,0.0104 -0.4788,-0.1283c0.1168,-0.3372 0.1168,-0.7391 -0.2176,-0.9509c-0.2954,-0.1853 -0.6906,-0.0162 -0.9186,0.1947c-0.115,0.1017 -0.5567,-0.0788 -0.4475,-0.1786zM277.8434,178.5434v0c0.493,-1.0431 0.9813,-2.0824 1.5276,-3.0979c0.3629,-0.6717 0.7457,-1.3348 1.1219,-1.9988c0.4475,-0.7866 1.0545,-1.4944 1.311,-2.3665c0.0447,-0.1482 0.5197,-0.0161 0.4788,0.1273c-0.2223,0.7534 -0.6716,1.3006 -1.083,1.9608c-0.4408,0.7068 -0.8274,1.4564 -1.2302,2.1869c-0.5976,1.0821 -1.1191,2.1993 -1.6464,3.3184c-0.0693,0.1463 -0.5367,-0.0086 -0.4797,-0.1302zM278.0562,178.5605v0c1.957,-2.622 3.1901,-5.9128 6.0353,-7.7482c0.134,-0.0845 0.5548,0.1074 0.4465,0.1786c-2.849,1.8364 -4.0774,5.1215 -6.0363,7.7473c-0.0874,0.1187 -0.5472,-0.0399 -0.4455,-0.1777zM284.5637,170.8399v0c0.7467,0.113 1.8088,0.7419 1.2777,1.615c-0.0902,0.1453 -0.5396,-0.0247 -0.4797,-0.1292c0.3638,-0.5957 -0.0941,-1.1571 -0.7249,-1.2512c-0.0855,-0.0123 -0.2432,-0.0532 -0.2745,-0.151c-0.0304,-0.0998 0.1539,-0.0912 0.2014,-0.0836zM280.3704,179.5447v0c0.6184,-1.064 1.2388,-2.0748 1.9304,-3.0979c0.4313,-0.6432 0.7638,-1.3272 1.2331,-1.9428c0.5956,-0.7818 1.3252,-1.4335 1.8496,-2.2724c0.0912,-0.1434 0.5406,0.0276 0.4779,0.1283c-0.7942,1.2682 -1.9219,2.2391 -2.6686,3.5492c-0.7334,1.2853 -1.6026,2.4833 -2.3446,3.7629c-0.0845,0.1473 -0.5377,-0.0218 -0.4778,-0.1273zM279.9381,180.1594v0c1.958,-2.623 3.1901,-5.9128 6.0392,-7.7501c0.132,-0.0846 0.5548,0.1073 0.4455,0.1786c-2.85,1.8373 -4.0774,5.1233 -6.0363,7.7501c-0.0883,0.1159 -0.5472,-0.0418 -0.4484,-0.1786zM286.4475,172.4378v0c0.7467,0.113 1.8079,0.74 1.2768,1.615c-0.0883,0.1453 -0.5396,-0.0238 -0.4778,-0.1283c0.3629,-0.5975 -0.0969,-1.158 -0.7258,-1.254c-0.0884,-0.0114 -0.2451,-0.0513 -0.2746,-0.1501c-0.0323,-0.0988 0.152,-0.0912 0.2014,-0.0826zM282.6352,181.0818v0c0.038,-1.2169 1.0127,-2.3579 1.6796,-3.3117c0.38,-0.5491 0.6906,-1.1352 1.1001,-1.6682c0.5956,-0.7818 1.3224,-1.4326 1.8468,-2.2724c0.094,-0.1425 0.5415,0.0266 0.4769,0.1292c-0.7923,1.2654 -1.8782,2.3 -2.6895,3.5635c-0.7153,1.1134 -1.8933,2.2942 -1.937,3.6869c-0.0048,0.1292 -0.4836,0.0399 -0.4769,-0.1273zM282.8318,181.1398v0c0.7762,-0.9234 1.9257,-1.3557 2.8852,-2.0511c0.7847,-0.569 1.5627,-1.1808 2.5507,-1.3138c0.1321,-0.019 0.5586,0.2023 0.2964,0.2375c-1.1162,0.1482 -1.9779,0.9699 -2.869,1.5865c-0.8303,0.5766 -1.7527,0.9281 -2.4168,1.7214c-0.0969,0.113 -0.55,-0.0523 -0.4465,-0.1805zM288.262,177.8091v0c0.3857,0.0209 0.799,0.1586 0.9272,0.5576c0.1254,0.3876 -0.114,0.8313 -0.398,1.0802c-0.1159,0.1007 -0.5577,-0.0817 -0.4456,-0.1786c0.1948,-0.1691 0.3173,-0.3772 0.3753,-0.628c0.0494,-0.2109 0.0085,-0.5709 -0.266,-0.5871c-0.1055,-0.0066 -0.2461,-0.0342 -0.3154,-0.1254c-0.0703,-0.0855 0.056,-0.1206 0.1225,-0.1187zM284.0535,182.7168v0c1.4231,-1.159 2.8481,-2.3161 4.295,-3.4495c0.1225,-0.0969 0.5576,0.0903 0.4455,0.1786c-1.4459,1.1334 -2.8709,2.2905 -4.294,3.4495c-0.1206,0.0988 -0.5586,-0.0865 -0.4465,-0.1786zM284.5143,182.8716v0c-0.7638,1.5628 -1.5153,3.1407 -2.4244,4.6265c-0.4798,0.7771 -1.0707,1.6492 -1.9019,2.091c-1.7366,0.9215 -3.8931,-0.1292 -5.5262,-0.7999c-0.3125,-0.1292 -0.0218,-0.2508 0.1796,-0.1672c1.633,0.6726 3.7183,1.7214 5.3314,0.4949c1.8781,-1.4259 2.8699,-4.3386 3.8627,-6.3754c0.075,-0.1482 0.5377,0.0104 0.4788,0.1301zM275.9415,179.1638v0c1.6074,0.3296 3.135,0.7866 4.6369,1.4449c0.9348,0.4095 1.9741,0.9614 2.3551,1.9656c0.0513,0.1358 -0.4199,0.076 -0.475,-0.0665c-0.7714,-2.0283 -4.6322,-2.7389 -6.4429,-3.1103c-0.2119,-0.0428 -0.4047,-0.2993 -0.0741,-0.2337zM274.0586,181.4058v0c0.93,0.8977 1.7081,1.5827 1.7869,2.9507c0.057,1.0564 -0.19,2.317 -1.0763,2.9849c-0.1254,0.094 -0.5577,-0.0941 -0.4465,-0.1786c0.7486,-0.5634 0.95,-1.4773 1.0336,-2.3646c0.1415,-1.5171 -0.647,-2.3446 -1.6749,-3.3373c-0.1947,-0.1872 0.2784,-0.1501 0.3772,-0.0551z" fill="#000000"/></g></g></g></svg>