<svg version="1.1" xmlns="http://www.w3.org/2000/svg" xmlns:xlink="http://www.w3.org/1999/xlink" width="42.91092" height="35" viewBox="0,0,42.91092,35"><g transform="translate(-218.54454,-162.5)"><g data-paper-data="{&quot;isPaintingLayer&quot;:true}" stroke-miterlimit="10" stroke-dasharray="" stroke-dashoffset="0" style="mix-blend-mode: normal"><path d="M218.54454,197.5v-35h42.91092v35z" fill="#ffe800" fill-rule="nonzero" stroke="none" stroke-width="NaN" stroke-linecap="butt" stroke-linejoin="miter"/><path d="M243.49481,165.39442c0.15086,-0.10057 0.40228,-0.05029 0.45257,0.15086l1.30741,5.3805c0,0 3.21825,2.3634 4.17366,4.02281c1.60912,2.76568 1.65941,5.02851 1.65941,5.02851c0,0 3.57024,1.05599 4.17366,3.92224c0.60342,2.86625 -1.60912,8.29704 -11.06272,10.15759c-9.4536,1.86055 -17.04664,-0.70399 -20.61689,-6.43649c-3.57024,-5.7325 2.06169,-12.57127 1.75998,-12.16899l-1.05599,-9.00103c-0.05029,-0.20114 0.20114,-0.352 0.40228,-0.25143l6.0845,3.97252c0,0 2.26283,-0.85485 4.62623,-0.95542c1.40798,-0.10057 2.61482,0 3.77138,0.20114z" fill="#ffffff" fill-rule="evenodd" stroke="#001026" stroke-width="0.5" stroke-linecap="butt" stroke-linejoin="miter"/><path d="M250.93701,180.17824c0,0 3.46967,0.90513 4.07309,3.77138c0.60342,2.86625 -1.81026,8.04561 -11.16329,9.85588c-12.16899,2.51425 -17.95178,-4.7268 -14.58267,-10.05702c3.3691,-5.3805 9.15189,-0.80456 13.37583,-1.10627c3.62053,-0.25143 4.02281,-3.41939 8.29704,-2.46397z" fill="#ff0000" fill-rule="evenodd" stroke="none" stroke-width="0.5" stroke-linecap="butt" stroke-linejoin="miter"/><path d="M260.18946,180.73137c-2.3634,1.91083 -5.98393,1.96112 -5.98393,1.96112" fill="none" fill-rule="evenodd" stroke="#001026" stroke-width="0.5" stroke-linecap="round" stroke-linejoin="round"/><path d="M259.53576,186.3633c-3.16796,0.25143 -5.12908,-0.70399 -5.12908,-0.70399" fill="none" fill-rule="evenodd" stroke="#001026" stroke-width="0.5" stroke-linecap="round" stroke-linejoin="round"/><path d="M242.43883,181.33479c1.05599,0 2.16226,0.10057 2.21254,0.45257c0.05029,0.70399 -0.70399,2.11197 -1.50855,2.16226c-0.90513,0.10057 -3.01711,-1.15656 -3.01711,-1.96112c-0.05029,-0.60342 1.30741,-0.65371 2.31311,-0.65371z" fill="#ff0000" fill-rule="evenodd" stroke="#001026" stroke-width="0.5" stroke-linecap="round" stroke-linejoin="round"/><path d="M219.81054,180.58052c0,0 4.32452,1.40798 6.0845,2.96682" fill="none" fill-rule="evenodd" stroke="#001026" stroke-width="0.5" stroke-linecap="round" stroke-linejoin="round"/><path d="M226.04589,185.30732c-2.16226,0.85485 -5.88336,0.30171 -5.88336,0.30171" fill="none" fill-rule="evenodd" stroke="#001026" stroke-width="0.5" stroke-linecap="round" stroke-linejoin="round"/><g fill-rule="evenodd" stroke-width="0.5"><path d="M248.37247,175.45144c1.45827,2.26283 1.50855,4.82737 0.10057,5.7325c-1.40798,0.90513 -3.7211,-0.15086 -5.22965,-2.41368c-1.45827,-2.26283 -1.50855,-4.82737 -0.10057,-5.7325c1.40798,-0.95542 3.77138,0.15086 5.22965,2.41368z" fill="#ffffff" stroke="#001026" stroke-linecap="round" stroke-linejoin="round"/><path d="M246.19099,177.85173c0,0.55314 -0.40228,1.0057 -0.90513,1.0057c-0.50285,0 -0.90513,-0.45257 -0.90513,-1.0057c0,-0.55314 0.40228,-1.0057 0.90513,-1.0057c0.50285,0 0.90513,0.45257 0.90513,1.0057" fill="#001026" stroke="none" stroke-linecap="butt" stroke-linejoin="miter"/></g><g fill-rule="evenodd" stroke-width="0.5"><path d="M235.90177,176.85942c1.50855,2.21254 1.40798,4.92794 0.05029,5.88336c-1.65941,0.95542 -3.87195,0.25143 -5.3805,-1.96112c-1.55884,-2.21254 -1.65941,-5.07879 -0.10057,-6.18507c1.55884,-1.15656 3.92224,0.05029 5.43079,2.26283z" fill="#ffffff" stroke="#001026" stroke-linecap="round" stroke-linejoin="round"/><path d="M233.61972,179.30999c0,0.55314 -0.40228,1.0057 -0.90513,1.0057c-0.50285,0 -0.90513,-0.45257 -0.90513,-1.0057c0,-0.55314 0.40228,-1.0057 0.90513,-1.0057c0.50285,0.05029 0.90513,0.45257 0.90513,1.0057" fill="#001026" stroke="none" stroke-linecap="butt" stroke-linejoin="miter"/></g><path d="M235.92006,189.61297c0,0 4.65207,-3.02875 6.75644,-3.02875c2.2014,0 6.17399,3.02875 6.17399,3.02875" fill="none" fill-rule="nonzero" stroke="#001026" stroke-width="0.5" stroke-linecap="round" stroke-linejoin="miter"/><path d="M228.93064,172.48888l7.92134,3.26173" fill="none" fill-rule="nonzero" stroke="#001026" stroke-width="0.5" stroke-linecap="round" stroke-linejoin="miter"/><path d="M238.01688,174.93518l7.92134,-3.26173" data-paper-data="{&quot;index&quot;:null}" fill="none" fill-rule="nonzero" stroke="#001026" stroke-width="0.5" stroke-linecap="round" stroke-linejoin="miter"/></g></g></svg>