<svg version="1.1" xmlns="http://www.w3.org/2000/svg" xmlns:xlink="http://www.w3.org/1999/xlink" width="779.86061" height="640.25" viewBox="0,0,779.86061,640.25"><defs><linearGradient x1="260.25" y1="272" x2="260.25" y2="588" gradientUnits="userSpaceOnUse" id="color-1"><stop offset="0" stop-color="#451032"/><stop offset="1" stop-color="#000000"/></linearGradient><linearGradient x1="483.25" y1="165" x2="483.25" y2="411" gradientUnits="userSpaceOnUse" id="color-2"><stop offset="0" stop-color="#3e3e3e"/><stop offset="1" stop-color="#000000"/></linearGradient><linearGradient x1="5.25" y1="165" x2="5.25" y2="411" gradientUnits="userSpaceOnUse" id="color-3"><stop offset="0" stop-color="#3e3e3e"/><stop offset="1" stop-color="#000000"/></linearGradient><linearGradient x1="244.5" y1="294" x2="244.5" y2="412" gradientUnits="userSpaceOnUse" id="color-4"><stop offset="0" stop-color="#202020"/><stop offset="1" stop-color="#211111"/></linearGradient><linearGradient x1="260.25" y1="288" x2="260.25" y2="604" gradientUnits="userSpaceOnUse" id="color-5"><stop offset="0" stop-color="#202020"/><stop offset="1" stop-color="#1e1e1e"/></linearGradient></defs><g transform="translate(116,227)"><g data-paper-data="{&quot;isPaintingLayer&quot;:true}" fill-rule="nonzero" stroke-linecap="butt" stroke-linejoin="miter" stroke-miterlimit="10" stroke-dasharray="" stroke-dashoffset="0" style="mix-blend-mode: normal"><path d="M98,322v-284h284v284z" fill-opacity="0.09061" fill="#ff0000" stroke="none" stroke-width="0"/><path d="M122.54263,276.93752c-23.19596,0 -18,38.26296 -18,17c0,-19.148 -9.75067,-216.03114 10.22286,-219.00139c2.20614,-0.32807 62.46992,-3.49861 64.77714,-3.49861c16.3941,0 205.59436,7.6102 212.51271,20.16652c2.8704,5.20958 -246.31675,185.33348 -269.51271,185.33348z" fill-opacity="0.10381" fill="#ff0000" stroke="none" stroke-width="0"/><path d="M358.25,289.5v-12h15.5v12z" fill="#2b2b2b" stroke="none" stroke-width="0"/><path d="M118.25,289.5v-12h15.5v12z" fill="#2b2b2b" stroke="none" stroke-width="0"/><path d="M208.25,291.5v-14.5h72.5v14.5z" fill="#2b2b2b" stroke="none" stroke-width="0"/><path d="M53.5,286h413.5z" fill="url(#color-1)" stroke="none" stroke-width="0"/><path d="M368,410.5v-464h231.5v464z" fill="#3e3e3e" stroke="none" stroke-width="0"/><path d="M-116,411v-464h242.5v464z" fill="#3e3e3e" stroke="none" stroke-width="0"/><path d="M53.5,281.5c0,-3.08796 0,-9.5 0,-9.5h413.5c0,0 0,6.61976 0,10c0,0.02269 -29.99166,-0.00299 -73.8205,-0.05268c-11.77258,-0.01335 -27.87681,-3.02842 -41.33297,-3.04475c-17.71665,-0.0215 -33.28785,2.9548 -52.66578,2.93001c-114.56693,-0.14657 -245.68075,-0.33173 -245.68075,-0.33258z" fill="#222222" stroke="none" stroke-width="0"/><path d="M367.5,411v-246h231.5v246z" fill="url(#color-2)" stroke="none" stroke-width="0"/><path d="M-116,411v-246h242.5v246z" fill="url(#color-3)" stroke="none" stroke-width="0"/><path d="M-72.5,412v-118c0,0 165.28341,0 259.75,0c113.39173,0 374.25,0 374.25,0v118z" fill="url(#color-4)" stroke="#000000" stroke-width="2.5"/><path d="M31.5,89v-316h413.5v316c0,0 -91.68523,-12 -159.85368,-12c-69.63372,0 -253.64631,12 -253.64631,12z" fill="#3e3e3e" stroke="none" stroke-width="0"/><path d="M125.5,272v-184h242v184z" fill="none" stroke="#000000" stroke-width="2.5"/><path d="M652.54263,-64.56248c0,82.29043 47.31634,267 -51.54263,267c-48.13565,0 -106.09752,-99.73077 -215.50111,-145.89632c-115.28491,-48.64732 -280.95625,-44.88148 -280.95625,-87.10368c0,-82.29043 270.14103,-183 369,-183c98.85897,0 179,66.70957 179,149z" fill="#4c4c4c" stroke="none" stroke-width="0"/><path d="M53.5,293c0,-3.08796 -2.75,-7.75 -2.75,-7.75h413.5c0,0 2.75,4.86976 2.75,8.25c0,0.08706 -413.5,-0.45283 -413.5,-0.5z" fill="url(#color-5)" stroke="none" stroke-width="0"/></g></g></svg>