<svg version="1.1" xmlns="http://www.w3.org/2000/svg" xmlns:xlink="http://www.w3.org/1999/xlink" width="46.26114" height="156.02474" viewBox="0,0,46.26114,156.02474"><g transform="translate(-218.44524,-168.33054)"><g data-paper-data="{&quot;isPaintingLayer&quot;:true}" fill-rule="nonzero" stroke="none" stroke-width="0.95" stroke-linecap="butt" stroke-linejoin="miter" stroke-miterlimit="10" stroke-dasharray="" stroke-dashoffset="0" style="mix-blend-mode: normal"><path d="M240.31896,302.20264c0.0741,0.0162 0.1434,-0.0076 0.2204,0.0124c0.0171,0.7134 0.2346,1.3309 0.4617,1.9427c0.2565,0.6926 0.2118,1.2436 0.3211,2.0017c0.0997,0.7039 0.2755,1.3936 0.3895,2.0966c0.1073,0.6489 0.5453,1.0849 0.721,1.6853c0.3259,1.1258 -2.0653,1.178 -2.9678,1.5903c-1.444,0.6574 -2.9136,1.5181 -4.3633,2.1223c-1.2189,0.5073 -2.2857,1.2797 -3.4571,0.7125c-1.5314,-0.74 -1.3737,-0.627 -3.0162,-1.7964c-1.7604,-0.9519 -2.2335,-0.8075 -3.1103,-2.319c-0.4741,-0.816 -0.3316,-1.3328 -0.2518,-2.2306c0.115,-1.2825 0.0551,-2.4928 0.3154,-3.7202c0.2385,-1.1267 0.856,-2.2201 1.254,-3.343c0.3952,-1.1115 0.5757,-2.1964 0.4532,-3.4894c-0.115,-1.2207 -0.4294,-2.261 -0.4788,-3.5397c-0.0969,-2.4757 0.1567,-5.0815 0.3021,-7.4765c0.1567,-2.5726 0.512,-5.015 0.8882,-7.5249c0.191,-1.274 0.2955,-2.432 0.4674,-3.7316c0.1701,-1.2901 0.6023,-2.3902 0.7391,-3.8542c0.0532,-0.5757 -0.1415,-1.1428 -0.0123,-1.7632c0.1396,-0.6754 0.5738,-1.1742 0.9775,-1.6634c0.8769,-1.0659 0.6802,-2.3446 0.6802,-3.668c0,-1.4696 -0.0361,-2.8462 -0.1586,-4.3282c-0.1368,-1.6568 -0.2812,-3.3145 -0.5472,-5.0967c-0.3753,-2.5042 -0.817,-5.2801 -0.6014,-7.847c0.6641,-0.1473 0.7059,0.284 1.2255,0.4569c0.4598,0.1539 1.083,-0.1624 1.54,0.0124c0.5833,0.2223 0.8863,1.5076 2.3873,-0.1596c0.3126,-0.3449 -1.5333,-4.9163 -1.0136,-4.8887c-0.1083,0.322 -0.0713,-3.2728 -0.3297,-3.4808c-2.299,-1.8364 -3.6356,-5.8862 -3.324,-5.719c0.0465,0.056 5.3884,2.0662 5.3656,2.0463c1.0231,-0.0836 2.1147,0.2755 3.1397,0.17c1.5371,-0.1586 1.6682,-0.3296 3.1322,-0.7324c3.2062,-0.8854 10.5649,-7.012 13.6135,-7.7824c0.7761,-0.1967 1.52,13.7047 -0.2413,17.8172c-0.2879,0.6736 -0.2546,1.8687 -0.3734,2.4805c-0.1596,0.816 -0.2698,1.7432 -0.3087,2.5621c-0.0694,1.463 0.0674,2.9745 -0.0846,4.4023c-0.1672,1.5694 -0.4598,2.9127 -0.3021,4.4375c0.1378,1.3224 -0.2356,2.6334 -0.2337,3.9605c0.001,1.2977 -0.2489,2.6847 -0.2451,3.9948c0.0124,5.1528 -1.0184,10.2182 -0.7647,15.3016c0.0617,1.2293 0.3505,2.547 0.2327,3.743c-0.1225,1.2474 -0.8132,2.3418 -1.1799,3.5511c-0.3714,1.2265 -0.2441,2.4282 0.1938,3.5815c0.3743,0.9899 1.3281,1.9532 1.064,3.1075c-0.2137,0.9348 -1.4126,1.5827 -2.1717,2.1337c-1.0763,0.7818 -2.8842,1.71 -4.0574,2.2961c-2.2097,1.103 -3.6984,2.0929 -6.2643,2.1109" fill="#244764"/><path d="M235.01606,168.33054c-1.2854,0.4665 -0.0922,2.2382 0.4427,2.8776c0.6944,0.8284 0.9177,1.8126 1.3556,2.8196c0.4836,1.1124 1.3281,2.6951 1.7756,3.8218c0.4246,1.0678 1.2179,1.4108 1.8192,2.4083c0.7999,1.33 1.3709,1.7537 2.9916,1.9142c1.5266,0.1511 2.4139,-0.8179 3.1872,-2.0368c0.7676,-1.2084 0.2375,-2.4652 -0.265,-3.6584c-0.2176,-0.5159 -0.3905,-1.0868 -0.7268,-1.5799c-0.3838,-0.5643 -0.6298,-1.3024 -1.0896,-2.2144c0.893,0.7001 2.0767,1.3509 2.9887,2.0738c1.88,1.4906 3.8513,2.4795 4.1382,5.0464c0.1415,1.2645 0.2014,3.2842 0.3781,4.561c0.171,1.2388 0.4664,2.4671 0.8046,3.6641c0.3411,1.2103 0.7667,2.3655 1.4051,3.3972c0.5738,0.9244 1.8059,1.5618 1.006,2.8548c-0.5738,0.93 -1.4753,1.9418 -2.3921,2.4652c-0.5329,0.305 -1.0877,0.5121 -1.6824,0.6071c-0.8151,0.1301 -1.1163,0.2194 -1.083,1.1058c0.0541,1.4535 -0.2404,2.5118 0.1928,3.5634c0.5206,1.2645 0.2964,2.4577 0.514,3.7981c0.1045,0.6517 0.3315,1.2607 0.5168,1.901c0.2175,0.7562 0.5994,1.3642 0.7923,2.0548c0.171,0.6099 0.0997,1.1809 0.3154,1.7575c0.2232,0.6033 0.5871,1.1609 0.8588,1.7547c0.5462,1.1979 1.3119,2.0833 1.6881,3.3687c0.1853,0.6289 0.4988,1.1903 0.3971,1.9c-0.0826,0.5871 -0.512,1.1438 -0.5548,1.7385c-0.0931,1.3024 0.704,2.3465 1.0241,3.401c0.2128,0.7058 0.3506,1.3129 0.2299,1.9446c-0.1681,0.8845 -0.266,0.913 -1.0963,1.4364c-1.1875,0.7486 -2.6495,1.1286 -3.7924,1.9333c-1.2378,0.8721 -2.4386,1.6596 -3.7392,2.4149c-1.216,0.7058 -2.2192,1.709 -3.4637,2.3788c-1.0003,0.5386 -2.6951,1.3784 -3.7952,1.5181c-2.6439,0.3353 -5.3913,-0.0257 -7.6722,-1.1258c-1.3063,-0.6289 -2.2468,-0.2688 -2.6296,-1.804c-0.3107,-1.2502 -0.6147,-2.6933 -0.6137,-4.0309c0.0028,-3.2347 -0.2793,-6.4875 -0.0789,-9.7289c0.1558,-2.5251 0.551,-5.4264 -0.4826,-7.8584c-0.5073,-1.1961 -0.7372,-2.0121 -0.4693,-3.3716c0.2556,-1.2977 0.4608,-2.8091 0.8911,-4.0356c0.8142,-2.3237 1.6055,-4.8051 2.1005,-7.1896c-0.8845,0.4437 -2.4738,0.6213 -3.4789,0.7154c-1.1096,0.1035 -2.2715,-0.2394 -3.3098,-0.6489c-1.1438,-0.4512 -2.1347,-1.102 -3.1588,-1.8145c-0.6716,-0.4664 -2.5906,-2.0491 -2.4386,-2.8481c0.1111,-0.5861 0.9671,-0.9547 1.1856,-1.5903c0.2042,-0.5871 0.4968,-1.2131 0.6992,-1.8107c0.3971,-1.1808 1.0108,-2.2372 1.1229,-3.5359c0.2232,-2.5707 0.2337,-1.9266 0.7923,-4.5714c0.2764,-1.3081 1.2065,-3.7962 1.9475,-4.959c-0.5672,0.8902 0.6973,-0.4997 3.5292,-2.7398c2.2525,-1.2483 4.4308,-2.2733 6.5218,-3.4836" fill="#555d7b"/><path d="M231.38986,196.50564c-0.6374,-0.1159 -0.9794,2.3133 -1.1808,2.8728c-0.4028,1.1267 -0.6802,2.2069 -1.0317,3.325c-0.3895,1.2369 -0.152,2.451 -0.457,3.6718c-0.0655,0.265 -0.3002,0.4978 -0.3581,0.7505c-0.0627,0.2783 0.0826,0.6146 -0.0086,0.8892c-0.2033,0.6089 -0.6488,0.8806 -0.3562,1.6226c0.1938,0.4949 0.5548,0.9395 0.7343,1.4744c0.2014,0.5947 0.3401,1.197 0.5149,1.7727c0.3857,1.2682 0.0504,2.3161 -0.0684,3.5416c-0.2308,2.3588 -0.1681,4.7243 -0.0484,7.1487c0.0598,1.197 0.1947,2.4016 0.1947,3.6214c0,1.2436 0.3221,2.1869 0.3686,3.3934c0.0789,2.0891 0.6897,4.8887 1.8981,6.6605c0.5795,0.8502 1.4516,1.3205 1.8658,2.2648c0.4674,1.0621 0.1245,2.261 0.2936,3.3953c0.076,0.5063 0.0665,1.2255 0.2061,1.7138c0.1473,0.5139 0.5016,0.8683 0.6622,1.33c0.2954,0.8493 0.0627,2.3921 -1.2236,2.1821c-0.3363,0.0181 -0.8351,-0.8759 -1.6321,-0.7951c-0.7629,0.0769 -1.2588,-0.1815 -1.9941,-0.2993c-0.5424,-0.0864 -1.0127,-0.2565 -1.4934,-0.4959c-0.5225,-0.2612 -0.9927,-0.265 -1.5314,-0.4797c-0.8531,-0.3363 -1.3243,-1.976 -1.5513,-2.8576c-0.3002,-1.1533 -0.5007,-2.2848 -0.4418,-3.5426c0.0589,-1.2426 0.6508,-2.3512 0.5168,-3.6157c-0.2479,-2.3398 -0.8474,-4.1657 -1.4098,-6.4201c-0.2745,-1.0972 -0.7752,-2.4225 -1.0003,-3.5501c-0.2461,-1.2284 -0.7325,-2.4472 -1.1657,-3.6442c-0.2014,-0.5529 -0.2318,-1.1096 -0.4617,-1.6606c-0.2232,-0.533 -0.266,-1.0526 -0.4446,-1.6198c-0.3543,-1.1286 -0.6631,-2.2458 -0.9766,-3.3972c-0.5795,-2.1346 -1.2274,-4.8108 -0.3876,-7.0214c0.4798,-1.2635 0.3724,-2.1898 0.3135,-3.5065c-0.0598,-1.3433 0.1501,-2.7825 0.571,-4.027c0.3999,-1.1828 0.3315,-2.1869 0.4664,-3.3649c0.0779,-0.6802 0.0646,-1.0602 0.3344,-1.6635c0.2556,-0.5709 0.3962,-0.9101 0.4133,-1.5038c0.6868,0.2156 1.33,1.0212 2.0472,1.3376c0.7543,0.3325 1.6492,0.6137 2.4349,0.797c0.7676,0.1796 1.767,0.1102 2.5688,0.0694c0.4085,-0.02 0.7505,-0.0703 1.1238,-0.1454c0.2432,-0.0484 0.4921,-0.0902 0.7391,-0.1491c0.1577,-0.0371 0.78,-0.1017 0.5149,-0.1473" fill="#d8ad8c"/><path d="M253.89156,196.17794c0,1.8667 0.0713,3.7382 0.2565,5.5736c0.1159,1.1467 -0.0798,2.3741 0.0779,3.5236c0.0637,0.4598 0.0466,1.1571 0.1767,1.6036c0.115,0.3961 0.5586,0.7305 0.7885,1.0887c0.6679,1.0383 0.5159,1.007 0.8569,2.2629c0.2062,0.7609 0.8227,2.4586 1.0469,3.2119c0.2233,0.7477 -0.0769,1.4336 0,2.2135c0.0608,0.6071 0.229,1.0593 0.1729,1.6825c-0.0722,0.798 0.2489,1.538 0.2128,2.3569c-0.0456,1.0346 -0.1121,2.0995 -0.1292,3.0723c-0.0152,1.007 0.1596,2.0862 0.7201,2.9431c0.5586,0.8541 1.2654,1.6758 1.539,2.679c0.2727,0.9966 0.9025,1.844 0.7543,2.9631c-0.132,1.0032 -0.4845,2.1916 -0.7847,3.1388c-0.2821,0.8892 -0.9367,1.7898 -1.3822,2.564c-0.2147,0.3753 -0.4209,0.8987 -0.703,1.102c-0.2575,0.1843 -0.9519,0.3325 -1.2863,0.3601c-0.1188,-0.6793 -0.001,-1.5552 -0.0741,-2.2325c-0.0798,-0.7391 -0.0637,-1.4877 -0.0637,-2.242c0,-1.4288 -0.2327,-2.8956 -0.4446,-4.2931c-0.1406,-0.9196 -0.3325,-2.2125 -0.0541,-3.1236c0.0874,-0.2878 0.2593,-0.3353 0.3059,-0.6564c0.0361,-0.2556 -0.0409,-0.4731 -0.0637,-0.7049c-0.0513,-0.5168 -0.1149,-1.0279 -0.2422,-1.5381c-0.2166,-0.8645 -1.1115,-2.0187 -1.0412,-2.8832c0.037,-0.4522 0.3971,-0.9044 0.531,-1.3462c0.1644,-0.5462 0.1758,-1.0212 0.1767,-1.6017c0,-0.9661 -0.2498,-2.0311 -0.9652,-2.7626c-0.4398,-0.4503 -0.5234,-0.7533 -0.817,-1.4022c-0.2166,-0.4788 -0.304,-1.0488 -0.5234,-1.5342c-0.4693,-1.0327 -1.0241,-1.8991 -1.2854,-3.0134c-0.2707,-1.1514 -0.5215,-1.882 -0.8094,-3.0543c-0.1263,-0.5177 -0.0665,-1.4981 -0.1482,-2.0092c-0.0883,-0.5501 -0.399,-1.4887 -0.4227,-2.033c-0.0466,-1.0289 -0.1653,-1.4906 -0.3487,-2.452c-0.0912,-0.4759 0.058,-1.025 0.1292,-1.4734c0.1045,-0.6641 0.2489,-0.8047 0.893,-0.9462c0.5615,-0.1235 1.0127,-0.172 1.5248,-0.4769c0.4142,-0.2461 0.9348,-0.7904 1.4259,-0.4978" fill="#d8ad8c"/><path d="M252.80476,296.60334c0.1777,0.5282 1.5457,1.0488 2.0663,1.2797c0.8863,0.3933 1.9475,0.8531 2.8509,1.1371c0.8408,0.2651 1.6103,0.5453 2.4938,0.7638c0.379,0.095 1.2065,0.1292 1.5475,0.305c0.3639,0.1881 0.3819,0.6887 0.495,1.1419c0.5975,2.3902 -2.1081,3.4276 -4.0898,3.4874c-0.5443,0.0152 -1.0041,-0.1311 -1.5162,-0.2394c-0.4085,-0.0864 -1.0687,0.0067 -1.444,-0.17c-0.7828,-0.3658 -0.6545,-1.5533 -1.6254,-1.8734c-2.375,-0.7819 -4.8811,-1.3661 -7.3245,-1.5751c0.3686,-0.9652 2.2182,-1.6521 3.0723,-2.1413c1.0697,-0.6118 2.1327,-1.236 3.172,-1.7575M252.70216,304.79804c-0.1311,-0.2669 -0.246,-0.5766 -0.4018,-0.8303c-0.1558,-0.2536 0.0741,-0.1567 -0.1691,-0.2964c-0.2014,-0.1149 -0.8702,-0.1681 -1.0935,-0.2451c-0.9376,-0.3239 -1.8905,-0.5614 -2.8443,-0.8626c-0.7286,-0.2308 -1.4896,-0.4446 -2.242,-0.6422c-0.6203,-0.1624 -1.5409,-0.3524 -2.1631,-0.2194c-0.5425,0.1149 -1.3025,0.4617 -1.8649,0.4712c-0.3192,1.5105 3.4058,1.2939 4.1876,1.3423c1.6739,0.1026 3.3421,1.0992 5.0056,1.3101c0.5149,0.0646 0.9519,-0.2147 1.4478,-0.1463" fill="#0b1938"/><path d="M262.09296,300.20864c0.0912,-0.2119 1.0222,0.113 1.2169,0.2185c0.2375,0.1292 0.5007,0.341 0.6185,0.5928c0.2441,0.5168 0.4161,1.1343 0.4626,1.6615c0.0561,0.6508 0.1131,1.0906 -0.0817,1.7879c-0.2356,0.8446 -0.3866,1.5637 -1.2245,1.8649c-0.5377,0.1938 -1.1201,0.437 -1.6407,0.6754c-0.2688,0.1235 -0.4892,0.1359 -0.7647,0.2556c-0.7828,0.3391 -1.8145,0.0722 -2.6458,0.1387c-0.9053,0.0722 -1.8506,-0.0057 -2.7455,-0.095c-0.8483,-0.0836 -1.6169,0.0304 -2.4548,-0.0969c-0.6669,-0.0998 -1.3243,-0.1511 -1.9541,-0.4133c-0.7524,-0.3144 -1.5447,-0.5595 -2.3152,-0.8493c-1.1229,-0.4227 -2.3075,-1.1162 -3.4903,-1.0801c-0.6441,0.0199 -1.0744,0.0579 -1.6948,0.171c-0.5339,0.0988 -1.1789,0.0465 -1.6701,-0.1197c-0.4531,-0.1549 -0.7809,-0.837 -0.9547,-1.2863c-0.1463,-0.3829 -0.5434,-1.0507 -0.038,-1.2626c0.2052,-0.0864 0.5814,-0.1216 0.8065,-0.1263c0.3126,-0.0076 0.3677,0.3961 0.5776,0.608c0.3914,0.3933 0.8313,0.3505 1.3528,0.5177c1.1334,0.3639 2.4729,-0.094 3.6366,0.1967c0.7543,0.1881 1.5181,0.4778 2.2553,0.7533c1.0412,0.3886 2.2221,0.5083 3.3317,0.4532c0.0142,-0.266 -0.3629,-1.0327 -0.5947,-1.1761c-0.286,-0.1767 -0.817,-0.191 -1.1448,-0.2698c-0.304,-0.0722 -0.5671,-0.1558 -0.8692,-0.2014c-0.7268,-0.1102 -1.4317,-0.4161 -2.1442,-0.5795c-0.6764,-0.1539 -1.3395,-0.4019 -1.976,-0.6242c-0.608,-0.2137 -1.3138,-0.0209 -1.8914,-0.2622c0.4959,-0.1007 0.9642,-0.2831 1.3832,-0.5709c0.2223,-0.1539 0.4037,-0.3012 0.6887,-0.3002c0.4598,0 0.9757,0.152 1.444,0.2023c0.5919,0.0627 1.197,0.1976 1.7746,0.3392c0.4769,0.1168 0.8246,0.2688 1.3063,0.3353c0.4094,0.057 1.0345,0.2214 1.4278,0.3202c0.4437,0.1121 0.7439,0.1102 1.1875,0.2308c0.3781,0.1036 0.5605,0.1378 0.8256,0.3981c0.5139,0.5025 0.8151,0.9557 1.121,1.5941c0.0836,0.1748 0.0627,0.1976 0.2242,0.2698c0.1985,0.0893 0.5443,0.0408 0.7628,0.0617c0.4247,0.0428 0.8655,0.0665 1.2987,0.0903c0.9329,0.0494 1.9408,0.1168 2.8405,-0.1881c0.4617,-0.1568 1.2454,-0.5995 1.4791,-1.045c0.2784,-0.5311 0.4522,-0.9529 0.3325,-1.5637c-0.0655,-0.3325 0.0485,-0.5577 0.0912,-0.8712c0.0333,-0.2517 -0.1786,-0.589 -0.1225,-0.7524" fill="#a2c6dd"/><path d="M239.84676,311.39204c0.5919,0.0988 1.1989,0.5073 1.7072,0.8189c0.5738,0.3524 0.8426,0.6783 1.368,1.0602c0.322,0.2327 0.7001,0.6973 1.0193,0.9395c0.3534,0.2679 0.6916,0.5415 1.083,0.7572c0.7078,0.3895 1.3699,0.2593 2.1223,0.4218c0.2793,0.0598 0.5548,0.19 0.7866,0.3676c0.2803,0.2166 0.2299,0.4228 0.2394,0.7667c0.0114,0.3505 0.0817,0.6678 -0.1121,0.9699c-0.2289,0.3582 -0.74,0.9367 -1.0592,1.2075c-0.3686,0.3144 -0.6555,0.3173 -1.0222,0.626c-0.3392,0.2869 -0.9567,0.5757 -1.388,0.6603c-1.0915,0.2166 -1.3053,0.4921 -2.393,0.7457c-0.8028,0.1881 -2.3893,0.4294 -3.2234,0.3867c-0.5738,-0.0285 -0.8996,-0.1758 -1.444,-0.3211c-0.6146,-0.1663 -1.14,-0.3658 -1.6539,-0.7448c-0.533,-0.3933 -0.6308,-0.7249 -0.6897,-1.3652c-0.0209,-0.2498 -0.2689,-0.5899 -0.3905,-0.8113c-0.1187,-0.2194 -0.1795,-0.494 -0.3923,-0.6032c-0.5054,-0.2603 -0.9776,-0.552 -1.4725,-0.8332c-0.5691,-0.3239 -1.0973,-0.6992 -1.6891,-0.9861c-0.5596,-0.2717 -1.084,-0.665 -1.6464,-0.9091c-0.3391,-0.1473 -0.5766,-0.153 -0.6327,-0.5719c-0.0418,-0.3021 0.1387,-0.5805 0.1235,-0.8978c0.8056,0.2822 1.4782,0.8294 2.2753,1.1476c0.3391,0.1368 0.6194,0.3069 0.9937,0.3601c0.4161,0.0589 0.7353,-0.1007 1.1191,-0.2556c0.3904,-0.1577 0.7989,-0.3068 1.2074,-0.4446c0.4845,-0.1634 0.8911,-0.4408 1.3395,-0.6602c0.9386,-0.4589 1.8896,-0.9728 2.8453,-1.3823c0.1862,-0.0798 1.0469,-0.2973 1.0402,-0.4816M232.18316,317.82444c-0.0675,-0.2831 -0.6204,-0.4256 -0.8721,-0.5415c-0.2793,-0.1292 -0.5016,-0.3021 -0.7515,-0.474c-0.4873,-0.3344 -0.9785,-0.6878 -1.501,-0.969c-0.4873,-0.2613 -1.1134,-0.3278 -1.3233,-0.8712c-0.0846,-0.2175 -0.0732,-0.4493 -0.1302,-0.6916c-0.0532,-0.2289 -0.1672,-0.4522 -0.2232,-0.6925c-0.1235,-0.5254 0.1767,-0.9453 0.4465,-1.3813c-0.3838,-0.2936 -0.8275,-0.5795 -1.2968,-0.723c-0.3505,-0.1054 -0.5434,0.0181 -0.5937,0.3553c-0.0409,0.2689 -0.2261,0.3781 -0.3867,0.608c-0.1672,0.2394 -0.0057,0.4332 -0.0418,0.7429c-0.0361,0.323 0.0181,0.6536 0.0304,0.97c0.0228,0.5776 -0.1244,1.1609 0.361,1.5637c0.4693,0.3904 0.8389,0.8616 1.292,1.2635c0.5852,0.5196 1.293,0.7695 1.9922,1.1115c0.3638,0.1786 0.7391,0.3173 1.1276,0.4493c0.4304,0.1463 0.9842,0.4142 1.4573,0.3335c0.2356,-0.0409 0.3762,-0.1729 0.4437,-0.4209c0.0418,-0.1501 0.0446,-0.6165 -0.0903,-0.6612" fill="#0b1938"/><path d="M247.81446,315.50934c0.589,-0.0304 1.4003,0.2441 1.9532,0.4284c0.5757,0.1938 1.063,0.6926 1.2036,1.2863c0.3981,1.6825 -1.12,3.3697 -2.526,4.1135c-0.3734,0.1967 -0.7467,0.2888 -1.0811,0.5529c-0.3297,0.2603 -0.6821,0.4636 -1.0517,0.6612c-0.8084,0.4294 -1.709,0.5349 -2.5612,0.8569c-0.8911,0.3363 -1.7394,0.666 -2.6942,0.6983c-0.6583,0.0228 -1.3556,0.1957 -2.0197,0.0912c-0.246,-0.038 -0.475,-0.1539 -0.721,-0.2337c-0.3392,-0.1102 -0.7116,-0.3145 -1.0517,-0.457c-0.2603,-0.1083 -0.4531,-0.1482 -0.6612,-0.3315c-0.265,-0.2318 -0.5605,-0.399 -0.8426,-0.608c-0.5672,-0.4171 -1.0023,-0.8465 -1.6454,-1.1885c-0.6042,-0.322 -1.1229,-0.6441 -1.7737,-0.8721c-0.9832,-0.3448 -2.0016,-0.703 -3.0124,-0.8711c-0.9909,-0.1663 -2.2772,-0.3914 -2.9982,-1.1277c-0.4076,-0.4142 -0.5491,-0.8027 -0.5491,-1.3746c0,-0.2727 -0.0124,-0.4902 -0.0836,-0.7515c-0.0637,-0.2327 -0.1938,-0.5044 -0.153,-0.7476c0.6584,0.1729 1.1742,0.8711 1.6777,1.2825c0.6337,0.5149 1.5542,0.816 2.2905,1.1713c0.5719,0.2755 1.025,0.5178 1.6805,0.5178c0.1957,0 0.6945,0.1358 0.8436,0.0608c0.2185,-0.1102 0.1159,-0.4636 0.0637,-0.6622c-0.1226,-0.4712 -0.8265,-0.74 -1.2388,-0.9851c-0.5444,-0.324 -1.0279,-0.6745 -1.5932,-0.9614c-0.3515,-0.1786 -0.6583,-0.4342 -0.9994,-0.6394c-0.2527,-0.151 -0.4759,-0.2261 -0.6023,-0.5092c-0.1824,-0.4104 -0.2574,-0.987 -0.2622,-1.4449c-0.0038,-0.3582 0.1036,-1.2569 0.5406,-1.2246c0.1605,0.0124 0.3933,0.2499 0.5405,0.323c0.134,0.0665 0.5596,0.1549 0.6242,0.3002c0.0674,0.1454 -0.2613,0.4893 -0.2936,0.722c-0.0959,0.7011 0.5254,0.9785 1.0583,1.2616c0.6688,0.3572 1.35,0.6764 2.0064,1.046c0.628,0.3543 1.216,0.7467 1.8345,1.1124c0.4275,0.2518 0.9319,0.3487 1.121,0.8189c0.36,0.8949 0.4227,1.92 1.3737,2.4577c1.3005,0.7353 2.2695,0.9832 3.7278,0.8436c0.7239,-0.0694 1.557,-0.2185 2.261,-0.3914c1.1001,-0.2689 2.3854,-0.8284 3.4209,-1.2863c0.3591,-0.1587 0.4551,-0.2698 0.722,-0.5035c0.2318,-0.2043 0.5586,-0.3154 0.8113,-0.4864c0.4285,-0.2926 0.5168,-0.6033 0.7743,-1.0241c0.246,-0.4009 0.7619,-1.6815 -0.0228,-1.863" fill="#a2c6dd"/><path d="M240.34746,311.44804c1.6321,0.6669 2.6885,1.7765 4.0365,2.8918c1.4583,1.2075 2.9564,0.932 4.6246,1.3063c0.6432,0.1434 1.3471,0.3572 1.768,0.9091c1.4269,1.8639 -0.2841,3.3345 -1.7309,4.4593c-2.1508,1.673 -4.8279,2.6268 -7.4737,3.1616c-1.6368,0.3306 -3.4181,0.2793 -4.768,-0.8065c-2.489,-2.0007 -5.168,-3.0961 -8.2812,-3.763c-1.3813,-0.2973 -2.5726,-0.7913 -2.9554,-2.2695c-0.4275,-1.6521 -0.8484,-4.5125 0.3895,-5.9176c0.0826,-0.0921 0.5434,0.0817 0.4664,0.1691c-1.0744,1.2189 -0.7723,3.611 -0.5206,5.0531c0.1796,1.0307 0.3762,1.8848 1.3804,2.4196c0.7875,0.4199 1.785,0.4741 2.6438,0.6973c1.5694,0.4095 3.231,0.9434 4.6588,1.7281c0.7524,0.4151 1.4345,0.8882 2.0891,1.4421c1.6596,1.4069 3.3886,1.3176 5.3656,0.8645c2.2733,-0.5206 4.4222,-1.4592 6.3336,-2.7911c1.4298,-0.9966 3.155,-2.4083 2.1147,-4.2741c-0.6764,-1.2112 -3.2471,-1.0222 -4.5115,-1.2882c-0.6156,-0.1292 -1.1714,-0.5044 -1.6749,-0.855c-1.4554,-1.0127 -2.4529,-2.3389 -4.1268,-3.0238c-0.3249,-0.133 -0.0152,-0.1891 0.172,-0.1131zM231.98366,318.87704c-2.5888,0.0437 -4.9381,-1.5437 -6.6415,-3.3506c-0.2166,-0.229 0.2584,-0.324 0.4161,-0.1558c1.5865,1.6824 3.7696,3.1711 6.1855,3.1302c0.2888,-0.0038 0.3752,0.3705 0.0399,0.3762zM247.51896,315.51974c1.2179,0.1682 1.122,1.0004 0.6156,1.9836c-0.8977,1.7442 -2.887,2.4795 -4.655,3.0277c-1.8335,0.569 -4.1002,1.064 -5.9831,0.399c-0.797,-0.2831 -1.6264,-0.6565 -2.2809,-1.197c-0.4855,-0.4019 -0.6622,-1.7005 -0.6954,-2.2914c-0.0029,-0.058 0.4873,-0.0048 0.4949,0.1339c0.0323,0.5805 0.2993,1.273 0.4446,1.8459c0.2746,1.0735 2.9802,1.5751 3.5483,1.6036c1.6178,0.0817 3.2908,-0.4114 4.8079,-0.9168c1.1828,-0.3942 2.546,-0.9927 3.345,-1.9912c0.2356,-0.2935 1.4915,-2.2847 0.5766,-2.4101c-0.1168,-0.0181 -0.5396,-0.2309 -0.2185,-0.1872zM234.45556,317.59934c-0.7828,-0.6451 -1.8706,-1.0802 -2.7503,-1.5894c-0.9348,-0.5405 -1.8648,-1.0773 -2.831,-1.5646c-0.2973,-0.1511 0.1492,-0.2119 0.304,-0.1349c1.0916,0.5519 2.1413,1.1666 3.1996,1.7793c0.8151,0.4703 1.7452,0.8389 2.4729,1.4393c0.2166,0.1786 -0.2793,0.1672 -0.3952,0.0703zM231.97226,317.86724c-1.3794,-0.8721 -2.7617,-1.7366 -4.1914,-2.5261c-0.2926,-0.1615 0.1472,-0.2346 0.3068,-0.1444c1.4279,0.7904 2.812,1.653 4.1914,2.5251c0.2831,0.1786 -0.1491,0.2451 -0.3068,0.1454zM227.72006,315.29844c-0.437,-0.8484 -0.7325,-2.2667 -0.1321,-3.1037c0.0684,-0.0959 0.4275,0.0257 0.3458,0.1406c-0.5785,0.8085 -0.2641,2.1964 0.1568,3.0144c0.0494,0.0959 -0.3126,0.0598 -0.3705,-0.0513zM228.85336,314.35504c-0.1586,-0.4474 -0.1225,-0.9063 0.0475,-1.3452c0.0399,-0.1054 0.4066,0.0095 0.3705,0.0998c-0.1653,0.4265 -0.2042,0.8673 -0.0494,1.3043c0.0323,0.0922 -0.3315,0.0456 -0.3686,-0.0589zM231.95896,318.70324c-0.0038,-0.304 -0.0542,-0.6242 0.0247,-0.9225c0.0418,-0.1567 0.4132,-0.057 0.3724,0.0988c-0.0741,0.2793 -0.0266,0.5748 -0.0228,0.8598c0.0019,0.1795 -0.3724,0.1121 -0.3743,-0.0361z" fill="#010101"/><path d="M252.99196,296.74494c2.147,1.2996 4.4963,2.1888 6.9084,2.8566c1.064,0.2945 2.146,0.5178 3.2347,0.7002c0.5054,0.0836 0.6137,0.0418 0.8816,0.4968c1.7233,2.9194 0.057,5.9755 -3.2195,6.5218c-1.7623,0.2935 -3.5502,0.189 -5.3267,0.1045c-1.8202,-0.0865 -3.4713,-0.1368 -5.224,-0.6992c-0.8531,-0.2736 -1.6796,-0.628 -2.5042,-0.9757c-1.3519,-0.5681 -2.5346,-0.8132 -3.9815,-0.5709c-1.0602,0.1748 -2.1232,0.2261 -2.9146,-0.6004c-0.1187,-0.1245 0.3629,-0.0732 0.4541,0.0218c0.9728,1.0175 3.3174,0.0238 4.5838,0.2204c0.5643,0.0874 1.1181,0.399 1.6368,0.6156c1.0536,0.4408 2.1005,0.8854 3.1892,1.235c1.7166,0.5501 3.5235,0.476 5.3029,0.5605c1.7983,0.0855 3.6603,0.172 5.396,-0.3828c1.4668,-0.4684 2.5336,-1.6217 2.8253,-3.1246c0.1368,-0.7106 -0.02,-1.4373 -0.2518,-2.1071c-0.4151,-1.2008 -1.3081,-1.1865 -2.393,-1.4136c-3.1388,-0.6564 -6.2349,-1.7613 -8.9832,-3.4247c-0.2185,-0.1302 0.284,-0.096 0.3857,-0.0342zM262.42736,300.26844c0.1596,1.7851 0.094,3.1369 -1.5913,4.1164c-1.6064,0.9329 -3.7952,0.3154 -5.5166,0.2403c-0.2622,-0.0114 -0.3981,-0.3268 -0.058,-0.3116c1.5105,0.0656 3.0039,0.399 4.5049,0.0665c0.932,-0.2042 1.6359,-0.8683 2.072,-1.6853c0.3999,-0.7495 0.1624,-1.6796 0.0921,-2.4785c-0.0209,-0.2252 0.4798,-0.1387 0.4969,0.0522zM255.05916,304.47414c-0.4171,-0.7372 -0.9681,-1.3794 -1.4934,-2.0406c-0.1359,-0.171 0.361,-0.1321 0.4598,-0.0076c0.5244,0.6612 1.0763,1.3024 1.4934,2.0406c0.1149,0.2014 -0.3819,0.1453 -0.4598,0.0076zM253.86786,302.64064c-2.5783,-0.7942 -5.3533,-1.35 -8.037,-1.6635c-0.2518,-0.0285 -0.4,-0.3429 -0.0589,-0.303c2.7331,0.3192 5.5404,0.8787 8.17,1.6891c0.2945,0.0912 0.2242,0.3695 -0.0741,0.2774zM243.65056,301.55194c0.7287,-0.0371 1.5647,0.2185 2.2705,0.3743c2.0321,0.4474 4.0185,1.0811 6.0392,1.5779c0.2935,0.0722 0.2432,0.2556 -0.0485,0.1843c-1.5418,-0.3809 -3.0618,-0.8293 -4.5951,-1.2388c-0.9757,-0.2593 -2.3047,-0.7296 -3.3507,-0.6735c-0.1197,0.0057 -0.5728,-0.21 -0.3154,-0.2242zM252.74586,304.89114c-2.47,0.3363 -4.7585,-1.2777 -7.1943,-1.3138c-1.1011,-0.0162 -3.6461,0.1501 -3.9577,-1.3262c-0.038,-0.1777 0.4598,-0.095 0.4949,0.0655c0.2888,1.3661 3.1398,0.9035 4.2104,1.0669c1.9912,0.3011 4.0888,1.5285 6.1418,1.2492c0.1472,-0.0209 0.5814,0.2204 0.3049,0.2584zM252.51696,304.76954c-0.2071,-0.3904 -0.3572,-0.8122 -0.6042,-1.1799c-0.0836,-0.1225 0.2831,-0.0722 0.3401,0.0124c0.2584,0.3828 0.4161,0.8179 0.6336,1.2245c0.0409,0.0789 -0.3135,0.0466 -0.3695,-0.057z" fill="#010101"/><path d="M250.72526,239.03054c-0.8256,0.2831 -1.692,0.4864 -2.3522,1.0849c-1.0887,0.987 -1.4972,2.7901 -1.9029,4.1296c-0.0389,0.1273 -0.532,-0.0123 -0.4949,-0.1339c0.4199,-1.388 0.8322,-2.9631 1.8297,-4.0679c0.6393,-0.7078 1.652,-0.9196 2.5156,-1.216c0.1197,-0.0399 0.5662,0.1482 0.4047,0.2033zM248.30746,240.33964c-0.2555,4.4384 -1.1941,8.8777 -2.1109,13.2192c-0.4446,2.1062 -1.2198,4.1363 -1.9522,6.1541c-0.7182,1.9817 -1.8164,4.3339 -1.8164,6.4743c0,0.2631 -0.5016,0.1909 -0.5016,-0.0361c0,-1.7613 0.7894,-3.6281 1.3594,-5.2725c0.7553,-2.1793 1.5998,-4.3225 2.1993,-6.5531c0.5681,-2.1147 0.8778,-4.3216 1.2882,-6.4733c0.4759,-2.4966 0.8863,-5.0075 1.0326,-7.5487c0.0143,-0.2632 0.5149,-0.1881 0.5016,0.0361zM229.95446,247.07794c-0.2318,5.4084 1.007,10.7531 1.1903,16.15c0.0371,1.1201 0.0694,2.2268 -0.1748,3.326c-0.1966,0.8854 -0.8056,1.5209 -1.2302,2.2876c-0.4266,0.7695 -0.1492,1.9408 -0.2717,2.7816c-0.1805,1.2435 -0.6432,2.3579 -0.627,3.6366c0,0.0836 -0.494,0.0123 -0.495,-0.134c-0.0152,-1.1276 0.286,-2.1574 0.5472,-3.2442c0.2394,-0.9937 0.0133,-2.0302 0.2812,-3.0068c0.1824,-0.6669 0.8123,-1.2454 1.1039,-1.8762c0.4845,-1.0517 0.4038,-2.3028 0.3829,-3.4267c-0.1055,-5.5632 -1.4412,-11.0551 -1.2018,-16.6269c0.0038,-0.0902 0.5016,-0.0085 0.495,0.133zM243.14426,274.66124c-0.0371,-2.1033 0.6555,-4.1088 0.8835,-6.1855c0.2736,-2.4947 -0.8227,-4.9162 -0.8835,-7.3986c-0.0067,-0.2356 0.493,-0.1453 0.4968,0.0485c0.0561,2.2192 0.837,4.3272 0.9187,6.5426c0.0883,2.3826 -0.9595,4.6522 -0.9187,7.0414c0.0048,0.2366 -0.494,0.1463 -0.4968,-0.0484zM253.96186,250.73544c0.0532,-4.1106 1.5922,-7.9382 1.8782,-12.0175c0.284,-4.0584 -0.2907,-8.0807 -0.6916,-12.1077c-0.0219,-0.2176 0.4778,-0.1283 0.4968,0.0551c0.3724,3.7544 0.8379,7.4575 0.7344,11.2394c-0.1207,4.3957 -1.8639,8.4911 -1.9219,12.8877c-0.0009,0.2223 -0.4978,0.1216 -0.4959,-0.057zM253.47646,285.41904c-0.6584,1.4259 -1.1562,2.8785 -1.6397,4.3681c-0.4076,1.2549 -0.9339,2.1242 -1.7756,3.1112c-0.6213,0.7277 -1.2027,1.4402 -2.0425,1.9257c-1.1248,0.6498 -2.5555,0.7191 -3.8152,0.7676c-0.1976,0.0066 -0.5234,-0.2841 -0.1881,-0.2964c1.3842,-0.0542 2.794,-0.1748 3.9824,-0.9472c0.7714,-0.5035 1.3243,-1.3319 1.9228,-2.0168c1.6435,-1.881 2.0245,-4.8013 3.0609,-7.0433c0.0827,-0.1824 0.5691,-0.0295 0.495,0.1311zM252.98146,285.80184c-0.8445,-3.0096 -0.4484,-6.1702 -0.2907,-9.2435c0.1834,-3.5805 0.1957,-7.1516 0.4731,-10.7302c0.2366,-3.0628 0.5577,-6.1256 0.6536,-9.197c0.076,-2.4757 0.0979,-4.9523 0.2062,-7.428c0.0066,-0.1625 0.5044,-0.0608 0.4949,0.133c-0.2375,5.3941 -0.3895,10.7416 -0.8208,16.13c-0.2774,3.4495 -0.3999,6.8828 -0.4778,10.3417c-0.0751,3.3545 -0.6669,6.765 0.2565,10.0548c0.0522,0.1824 -0.4465,0.1102 -0.495,-0.0608zM251.53366,290.59744c0.1568,0.6736 0.305,1.3471 0.494,2.014c0.2261,0.8018 0.7135,1.3937 1.1533,2.0824c1.0659,1.6663 -1.121,2.8462 -2.2999,3.4808c-3.2804,1.7642 -6.4325,4.2218 -10.3037,4.314c-0.1159,0.0028 -0.57,-0.2138 -0.3154,-0.2204c3.8332,-0.0903 6.8932,-2.5565 10.1536,-4.2693c0.7039,-0.3677 1.3756,-0.7695 1.9722,-1.2968c1.0241,-0.9034 0.3895,-2.013 -0.2575,-2.8861c-0.6878,-0.93 -0.8303,-2.2002 -1.0868,-3.2984c-0.0313,-0.133 0.4589,-0.0551 0.4902,0.0798zM228.82486,274.99184c0.0884,0.8417 -0.2441,1.9019 -0.3572,2.7531c-0.1681,1.2939 -0.3676,2.584 -0.5377,3.8769c-0.322,2.4605 -0.1624,4.96 -0.703,7.3891c-0.5776,2.5935 -0.284,5.2421 0.1758,7.8242c0.2137,1.2008 0.4113,2.3817 0.7524,3.5559c0.3638,1.253 0.7381,2.4681 0.8265,3.7762c0.018,0.2518 -0.4845,0.1767 -0.4997,-0.0408c-0.1568,-2.3247 -1.102,-4.5534 -1.4925,-6.8505c-0.4322,-2.5232 -0.7467,-4.9647 -0.4113,-7.5211c0.1776,-1.3547 0.4959,-2.6135 0.5443,-3.9929c0.0399,-1.1115 0.0817,-2.2068 0.1986,-3.3136c0.1377,-1.2939 0.3372,-2.5802 0.5196,-3.8684c0.0912,-0.6431 0.1767,-1.2863 0.2565,-1.9323c0.0618,-0.4959 0.2793,-1.2084 0.228,-1.6976c-0.0266,-0.248 0.4779,-0.1748 0.4997,0.0418zM227.56996,297.90674c0.1225,2.4377 -1.1495,4.7111 -1.7566,7.0262c-0.3705,1.4136 -0.5434,2.8529 -0.3467,4.3064c0.246,1.8145 1.8743,2.4168 3.2585,3.2756c1.6283,1.0089 3.3326,2.4073 5.3019,1.4516c1.2635,-0.6137 2.451,-1.3614 3.7307,-1.9485c0.7894,-0.3629 1.5988,-0.684 2.4434,-0.8911c0.4655,-0.114 2.4548,-0.4389 2.1394,-1.2207c-0.1007,-0.247 0.3961,-0.21 0.4664,-0.0342c0.5159,1.2787 -2.6818,1.6273 -3.4247,1.8962c-1.8829,0.684 -3.5445,1.7698 -5.3362,2.6391c-0.9642,0.4683 -1.8411,0.4303 -2.8006,0.0152c-1.5456,-0.6688 -2.9887,-1.8278 -4.4298,-2.699c-0.6413,-0.3885 -1.1894,-0.5244 -1.4839,-1.216c-0.2945,-0.6897 -0.3981,-1.4402 -0.4541,-2.1812c-0.1235,-1.6302 0.3524,-3.287 0.8037,-4.8336c0.55,-1.8857 1.4915,-3.6176 1.3908,-5.6363c-0.0114,-0.2328 0.4883,-0.1435 0.4978,0.0503zM238.94336,301.01514c0.6507,-1.558 2.241,-2.4804 2.5735,-4.2018c0.2499,-1.2901 -0.5225,-2.661 -0.9177,-3.8494c-0.3619,-1.0849 -0.2755,-2.147 0.0694,-3.2234c0.3467,-1.083 0.9585,-2.0843 1.4212,-3.1198c0.55,-1.2331 0.7894,-2.5982 0.9433,-3.9292c0.3164,-2.735 0.0162,-5.5176 0,-8.2593c-0.0009,-0.0817 0.494,-0.0104 0.495,0.1321c0.0142,2.6049 0.2251,5.2069 0.0408,7.8099c-0.095,1.3538 -0.3714,2.6781 -0.8179,3.9587c-0.4266,1.2217 -1.1296,2.3313 -1.5875,3.5425c-0.9234,2.4415 0.8332,4.3672 0.8769,6.7441c0.0342,1.8544 -1.9466,2.9611 -2.6002,4.5277c-0.0522,0.1216 -0.5348,-0.0399 -0.4968,-0.1321zM238.57376,298.78934c-0.3515,1.9427 1.9627,2.697 2.4396,4.3595c0.2983,1.0365 0.4503,2.0967 0.6052,3.1616c0.1985,1.3623 0.6118,2.546 1.1894,3.7924c0.1159,0.2499 -0.3829,0.2328 -0.4703,0.0466c-0.4693,-1.0127 -0.9129,-1.9827 -1.0991,-3.0913c-0.2299,-1.3718 -0.2755,-2.8709 -0.8161,-4.1648c-0.6574,-1.5647 -2.697,-2.2819 -2.3436,-4.2361c0.0399,-0.2175 0.5358,-0.0912 0.4949,0.1321z" fill="#010101"/><path d="M231.39656,196.43634c-1.2683,4.2493 -2.356,8.5101 -3.1341,12.8801c-0.0285,0.1586 -0.5253,0.0399 -0.4949,-0.133c0.7771,-4.37 1.8639,-8.6298 3.134,-12.8801c0.0494,-0.1634 0.5434,-0.0266 0.495,0.133zM221.63626,194.70354c-0.7762,4.2047 -1.3576,8.3923 -1.6492,12.6606c-0.0095,0.1435 -0.5073,0.0437 -0.495,-0.133c0.2907,-4.2683 0.8721,-8.4559 1.6492,-12.6606c0.0285,-0.1539 0.5254,-0.0342 0.495,0.133zM227.46826,207.33944c0.894,2.47 2.128,4.5648 2.2154,7.2466c0.0988,3.0628 -0.55,6.0933 -0.3667,9.1609c0.2869,4.7984 0.038,10.5934 3.401,14.4305c0.1055,0.1225 -0.3695,0.0589 -0.4503,-0.0323c-3.2148,-3.6689 -2.982,-8.7581 -3.3383,-13.3276c-0.2337,-3.0115 0.0931,-5.9128 0.2394,-8.9176c0.0789,-1.616 -0.0057,-3.1911 -0.5538,-4.7225c-0.4779,-1.3328 -1.1524,-2.5887 -1.6359,-3.9225c-0.0361,-0.0998 0.4427,-0.0447 0.4892,0.0845zM219.96136,207.20174c-0.0133,1.082 -0.3657,2.0767 -0.6175,3.1179c-0.2983,1.235 -0.1235,2.5355 0.1007,3.7667c0.4541,2.4786 1.4431,4.8659 2.1565,7.277c0.7458,2.5213 1.6321,4.9961 2.3066,7.5383c0.6679,2.5137 1.0555,5.0426 1.5979,7.581c0.039,0.1805 -0.4588,0.0997 -0.4949,-0.0656c-0.5425,-2.5355 -0.9386,-5.0654 -1.597,-7.58c-0.6678,-2.5441 -1.5447,-5.0236 -2.3066,-7.5383c-0.7324,-2.4158 -1.6387,-4.8032 -2.1565,-7.2779c-0.2356,-1.1248 -0.323,-2.2876 -0.1786,-3.4295c0.152,-1.2046 0.6793,-2.2905 0.6945,-3.5226c0.0019,-0.1482 0.4978,-0.0542 0.4949,0.133zM233.11696,240.98274c0.9092,1.7347 1.3471,3.6794 1.767,5.5841c0.2651,1.1894 -0.5966,1.5428 -1.6121,1.8012c-0.134,0.0352 -0.2955,-0.0275 -0.3819,-0.1311c-1.2398,-1.4981 -1.7461,-3.3582 -2.5147,-5.1119c-0.1016,-0.229 0.3943,-0.1739 0.4627,-0.0181c0.3914,0.893 0.7258,1.8098 1.0972,2.7123c0.4133,1.006 1.1039,2.9687 2.3579,1.6672c0.4798,-0.4987 -0.133,-1.9313 -0.266,-2.4681c-0.3439,-1.3898 -0.703,-2.7398 -1.3718,-4.0175c-0.114,-0.2176 0.3829,-0.1691 0.4617,-0.0181zM232.51656,247.53684c-0.6555,0 -1.31,0 -1.9655,0c-0.2793,0 -0.3838,-0.3515 -0.0475,-0.3515c0.6555,0 1.311,0 1.9655,0c0.2793,0 0.3838,0.3515 0.0475,0.3515zM230.29166,247.30694c-0.7077,-1.0175 -1.0839,-2.1603 -1.5333,-3.3041c-0.1016,-0.2594 0.3952,-0.2413 0.4712,-0.0485c0.4503,1.1438 0.8265,2.2867 1.5324,3.3051c0.151,0.2166 -0.3544,0.2147 -0.4703,0.0475zM230.22706,247.11884c-0.6802,-0.0057 -1.3585,-0.0722 -2.0168,-0.2508c-0.3002,-0.0798 -0.2271,-0.3525 0.0722,-0.2708c0.5719,0.1539 1.1656,0.2147 1.7565,0.2185c0.1995,0.0029 0.5235,0.3059 0.1881,0.3031zM228.17416,246.81004c-0.6983,-0.9063 -0.8873,-2.0083 -1.1191,-3.1008c-0.0361,-0.17 0.4607,-0.0874 0.494,0.0694c0.2251,1.0668 0.4009,2.147 1.083,3.0333c0.1273,0.1663 -0.3677,0.1159 -0.4579,-0.0019zM228.17316,246.35404c-0.5956,0 -1.2027,-0.0085 -1.7499,-0.2774c-0.6935,-0.342 -0.9338,-1.1295 -1.0953,-1.8297c-0.0209,-0.0902 0.4607,-0.0209 0.4873,0.0922c0.1273,0.551 0.2888,1.1485 0.7097,1.5542c0.3458,0.3315 0.8835,0.2726 1.3233,0.2726c0.095,0 0.5605,0.1881 0.3249,0.1881zM225.32126,244.27834c-0.2299,-1.2768 -0.6393,-2.5109 -0.7714,-3.8067c-0.1396,-1.3822 0.3325,-2.7597 0.3781,-4.1372c0.0086,-0.2727 0.5111,-0.2052 0.5035,0.0313c-0.0408,1.2445 -0.3553,2.451 -0.3942,3.6974c-0.0437,1.4336 0.5358,2.851 0.7866,4.2456c0.0465,0.2622 -0.4608,0.2052 -0.5026,-0.0304zM232.81676,238.08434c0.4608,0.7229 1.0403,1.2122 1.1932,2.089c0.1425,0.8094 0.058,1.7034 -0.1292,2.4976c-0.0266,0.1168 -0.5244,-0.0095 -0.4949,-0.133c0.171,-0.7334 0.2109,-1.4801 0.1596,-2.2297c-0.0656,-0.9728 -0.7268,-1.5371 -1.2179,-2.3085c-0.0428,-0.0655 0.4094,-0.0399 0.4892,0.0846z" fill="#010101"/><path d="M253.89256,195.89674c0.1102,4.1714 0.4379,8.2764 1.025,12.4089c0.0057,0.0437 -0.475,0.0095 -0.4949,-0.133c-0.5881,-4.1325 -0.9149,-8.2375 -1.0251,-12.4089c-0.0009,-0.0618 0.4921,-0.001 0.495,0.133zM254.78646,207.36894c1.6141,2.4985 2.5451,4.9295 2.6942,7.904c0.1596,3.1606 -0.1938,6.3251 0.2223,9.4753c0.0181,0.1425 -0.4731,0.0475 -0.4911,-0.0808c-0.3762,-2.8614 -0.1644,-5.7494 -0.1995,-8.625c-0.0409,-3.326 -0.9177,-5.9727 -2.7161,-8.7543c-0.0475,-0.0741 0.4085,-0.0456 0.4902,0.0808zM257.69636,224.67504c1.2017,2.4624 3.078,4.332 2.6951,7.2447c-0.2802,2.128 -1.4012,4.4897 -2.4291,6.3517c-0.1121,0.2033 -0.5824,0.0133 -0.4522,-0.2213c0.9224,-1.672 1.7138,-3.5977 2.2163,-5.4407c0.8712,-3.1986 -1.2027,-5.2041 -2.5061,-7.8698c-0.1263,-0.2593 0.3762,-0.2698 0.476,-0.0646zM256.61046,233.82164c0.038,0.8009 -0.0171,1.577 0.2081,2.3589c0.0893,0.3068 0.6517,1.216 0.8892,0.6308c0.2432,-0.5976 0.1045,-1.52 0.1244,-2.1575c0.0295,-0.8692 0.1539,-1.7024 0.4731,-2.5137c0.0399,-0.1054 0.5254,0.0542 0.495,0.1321c-0.4836,1.2283 -0.4646,2.5023 -0.5121,3.8c-0.0161,0.4655 0.0295,1.3452 -0.6574,1.2131c-1.6197,-0.3116 -1.4563,-2.3807 -1.5152,-3.5957c-0.0019,-0.0551 0.4883,-0.001 0.4949,0.132zM256.16306,233.82644c0.0076,-0.931 -0.438,-1.7718 -0.5121,-2.6914c-0.0066,-0.0741 0.4817,-0.019 0.495,0.133c0.0741,0.9206 0.5196,1.7585 0.512,2.6914c0,0.0874 -0.4959,0.0123 -0.4949,-0.133zM258.05356,238.22114c-0.4655,0.3676 -1.0536,0.5377 -1.6416,0.5491c-0.1207,0.0028 -0.2651,-0.0304 -0.323,-0.1511c-0.0504,-0.1045 0.0446,-0.2052 0.1501,-0.2071c0.5234,-0.0104 1.0184,-0.1482 1.4326,-0.475c0.171,-0.1358 0.6051,0.1064 0.3819,0.2841z" fill="#010101"/><path d="M234.28166,169.28534c-2.3664,1.6473 -6.6918,2.6723 -10.7597,7.9581c-0.8493,2.4444 -1.1419,5.5005 -1.6425,8.0332c-0.4978,2.5137 -1.3623,4.5914 -2.9355,6.5987c-0.0931,0.1197 -0.532,-0.0855 -0.495,-0.133c1.5808,-2.0178 2.4083,-4.0821 2.9346,-6.5987c0.3277,-1.5637 0.5557,-3.1464 0.8892,-4.7101c0.2403,-1.1248 0.361,-1.8563 0.8008,-3.4133c1.8259,-3.3336 7.6456,-6.233 11.458,-8.304c0.114,-0.0313 0.6127,-0.3249 0.4693,-0.285zM244.56066,172.52954c2.1394,1.3139 4.0119,2.8339 5.9043,4.4717c1.5114,1.3053 1.5912,3.666 1.6805,5.4929c0.0903,1.8563 0.019,3.8427 0.646,5.6135c0.7087,1.9988 1.9732,3.6518 3.0638,5.435c0.1301,0.2128 -0.3715,0.1786 -0.4655,0.0256c-0.913,-1.4934 -1.8905,-2.8775 -2.6486,-4.4669c-0.7467,-1.5665 -0.8854,-3.0542 -0.9776,-4.7633c-0.1159,-2.1308 0.001,-4.5115 -1.0602,-6.4315c-0.6783,-1.2293 -2.3009,-2.2809 -3.3867,-3.1359c-0.9728,-0.7667 -2.0169,-1.4212 -3.0704,-2.0682c-0.286,-0.1757 0.1406,-0.2793 0.3144,-0.1729zM255.87236,193.62054c-0.893,1.7974 -3.4856,4.1686 -5.6611,3.8294c-0.2394,-0.037 -0.4075,-0.3334 -0.0665,-0.2802c1.9542,0.303 4.427,-2.0596 5.2326,-3.6822c0.0865,-0.1739 0.5691,-0.0152 0.495,0.133zM251.02446,184.19554c0.2366,2.8025 -0.0684,5.567 -0.2878,8.361c-0.2394,3.0409 -0.7923,6.2206 -0.3724,9.2596c0.0209,0.1568 -0.3534,0.0931 -0.3724,-0.0427c-0.3658,-2.6372 0.0826,-5.2868 0.2802,-7.9202c0.2413,-3.2252 0.6527,-6.4647 0.38,-9.6995c-0.0133,-0.1615 0.361,-0.0931 0.3724,0.0418zM250.21606,192.38174c-0.0209,2.8139 -0.0428,5.6097 0.0845,8.4236c0.1359,2.946 0.8997,6.0591 1.7366,8.8759c0.3895,1.3119 0.8978,2.583 1.4972,3.8133c0.5976,1.2302 1.3813,2.3113 1.7575,3.6423c0.7011,2.47 -1.4782,4.7433 -2.564,6.7326c-0.0637,0.1159 -0.4199,-0.0104 -0.3715,-0.0997c1.2341,-2.262 3.2395,-4.3092 2.4567,-7.0709c-0.3686,-1.3053 -1.2559,-2.4519 -1.8477,-3.666c-0.6641,-1.368 -1.141,-2.8234 -1.5523,-4.2845c-0.7572,-2.6895 -1.3718,-5.6183 -1.5001,-8.4123c-0.1244,-2.6951 -0.0883,-5.3599 -0.0684,-8.0541c0,-0.0988 0.3724,-0.0332 0.3715,0.0998zM218.92776,191.80414c1.445,2.0596 3.8979,3.9938 6.3812,4.5847c1.8895,0.4503 5.0521,0.5329 6.6148,-0.8132c0.1321,-0.114 0.5938,0.0769 0.4589,0.1938c-1.6891,1.4573 -4.7852,1.2758 -6.8315,0.93c-2.7445,-0.4636 -5.5252,-2.6638 -7.0841,-4.8849c-0.1311,-0.1862 0.3676,-0.1425 0.4607,-0.0104zM234.58946,186.84134c-2.8281,1.2378 -2.6486,6.2424 -2.2135,8.7561c0.0181,0.1102 -0.4674,0.0276 -0.4873,-0.0893c-0.4408,-2.5441 -0.6441,-7.5743 2.2344,-8.834c0.132,-0.058 0.5139,0.1472 0.4664,0.1672zM234.60756,169.05824c1.0573,2.0824 2.071,4.1867 3.0542,6.3052c1.0156,2.184 1.9295,4.2341 3.7174,5.9185c2.1812,2.0558 5.1841,0.1415 5.2421,-2.4662c0.0475,-2.148 -1.2673,-4.4983 -2.546,-6.1123c-0.0219,-0.0285 0.398,-0.0219 0.4873,0.0912c1.4592,1.843 3.0163,4.75 2.4178,7.1981c-0.5092,2.0834 -2.7075,2.5546 -4.4954,2.1062c-1.8896,-0.4741 -3.2015,-2.5726 -4.0641,-4.1591c-1.5789,-2.9013 -2.8016,-6.0249 -4.2997,-8.9737c-0.0304,-0.057 0.4246,-0.0285 0.4864,0.0921zM254.87956,220.35544c0.0038,2.1232 2.6363,4.7956 0.6346,6.6215c-0.0912,0.0826 -0.5272,-0.1083 -0.4674,-0.1634c1.958,-1.786 -0.6583,-4.4764 -0.6621,-6.5911c0,-0.0627 0.494,0.0028 0.4949,0.133zM239.60926,232.82604c-5.0103,0.2242 -8.1975,-3.7506 -10.6343,-7.6085c-0.113,-0.1786 0.3791,-0.114 0.456,0.0066c2.28,3.6138 5.2288,7.5639 9.9779,7.3511c0.1681,-0.0085 0.5339,0.2356 0.2004,0.2508zM255.59396,226.75554c-2.203,1.4307 -4.4954,2.7104 -6.7193,4.104c-2.1622,1.3547 -4.2532,2.8063 -6.6206,3.7886c-4.2085,1.7461 -8.6212,0.7686 -12.4554,-1.4212c-0.2917,-0.1662 0.1453,-0.2403 0.3059,-0.1482c2.0282,1.1581 4.1524,1.9513 6.4875,2.1898c2.5403,0.2584 4.9619,-0.6023 7.1801,-1.7575c1.8962,-0.988 3.6243,-2.262 5.4616,-3.3497c2.0054,-1.1875 4.0109,-2.376 5.9669,-3.6452c0.1359,-0.0893 0.5938,0.1093 0.3933,0.2394z" fill="#010101"/></g></g></svg>