<svg version="1.1" xmlns="http://www.w3.org/2000/svg" xmlns:xlink="http://www.w3.org/1999/xlink" width="42.91092" height="35" viewBox="0,0,42.91092,35"><g transform="translate(-218.54454,-162.5)"><g data-paper-data="{&quot;isPaintingLayer&quot;:true}" stroke-miterlimit="10" stroke-dasharray="" stroke-dashoffset="0" style="mix-blend-mode: normal"><path d="M218.54454,197.5v-35h42.91092v35z" fill="#ffe800" fill-rule="nonzero" stroke="none" stroke-width="NaN" stroke-linecap="butt" stroke-linejoin="miter"/><path d="M243.05842,167.21822c0.13202,-0.08801 0.35205,-0.04401 0.39605,0.13202l1.14416,4.70864c0,0 2.81638,2.06828 3.6525,3.52048c1.40819,2.42033 1.4522,4.4006 1.4522,4.4006c0,0 3.12442,0.92412 3.6525,3.43247c0.52807,2.50834 -1.40819,7.26098 -9.68132,8.88921c-8.27312,1.62822 -14.91803,-0.61608 -18.04246,-5.63277c-3.12442,-5.01668 1.80425,-11.00149 1.54021,-10.64945l-0.92412,-7.87707c-0.04401,-0.17602 0.17602,-0.30804 0.35205,-0.22003l5.32473,3.47648c0,0 1.98027,-0.7481 4.04855,-0.83611c1.23217,-0.08801 2.28831,0 3.30045,0.17602z" fill="#ffab19" fill-rule="evenodd" stroke="#001026" stroke-width="0.5" stroke-linecap="butt" stroke-linejoin="miter"/><path d="M249.5713,180.15598c0,0 3.03641,0.7921 3.56449,3.30045c0.52807,2.50834 -1.58422,7.04095 -9.76933,8.62517c-10.64945,2.2003 -15.71013,-4.13656 -12.76173,-8.80119c2.9484,-4.70864 8.00909,-0.70409 11.7056,-0.96813c3.16844,-0.22003 3.52048,-2.9924 7.26098,-2.15629z" fill="#ffffff" fill-rule="evenodd" stroke="none" stroke-width="0.5" stroke-linecap="butt" stroke-linejoin="miter"/><path d="M257.6684,180.64004c-2.06828,1.67223 -5.23671,1.71624 -5.23671,1.71624" fill="none" fill-rule="evenodd" stroke="#001026" stroke-width="0.5" stroke-linecap="round" stroke-linejoin="round"/><path d="M257.09632,185.56872c-2.77237,0.22003 -4.48861,-0.61608 -4.48861,-0.61608" fill="none" fill-rule="evenodd" stroke="#001026" stroke-width="0.5" stroke-linecap="round" stroke-linejoin="round"/><path d="M242.13428,181.16812c0.92412,0 1.89226,0.08801 1.93626,0.39605c0.04401,0.61608 -0.61608,1.84825 -1.32018,1.89226c-0.7921,0.08801 -2.64036,-1.01213 -2.64036,-1.71624c-0.04401,-0.52807 1.14416,-0.57207 2.02428,-0.57207z" fill="#001026" fill-rule="evenodd" stroke="#001026" stroke-width="0.5" stroke-linecap="round" stroke-linejoin="round"/><path d="M222.3316,180.50802c0,0 3.78452,1.23217 5.32473,2.59635" fill="none" fill-rule="evenodd" stroke="#001026" stroke-width="0.5" stroke-linecap="round" stroke-linejoin="round"/><path d="M227.78833,184.64459c-1.89226,0.7481 -5.14869,0.26403 -5.14869,0.26403" fill="none" fill-rule="evenodd" stroke="#001026" stroke-width="0.5" stroke-linecap="round" stroke-linejoin="round"/><path d="M247.15097,178.52775c0,0.48406 -0.35205,0.88012 -0.7921,0.88012c-0.44006,0 -0.7921,-0.39605 -0.7921,-0.88012c0,-0.48406 0.35205,-0.88012 0.7921,-0.88012c0.44006,0 0.7921,0.39605 0.7921,0.88012" fill="#001026" fill-rule="evenodd" stroke="none" stroke-width="0.5" stroke-linecap="butt" stroke-linejoin="miter"/><path d="M236.14947,179.80393c0,0.48406 -0.35205,0.88012 -0.7921,0.88012c-0.44006,0 -0.7921,-0.39605 -0.7921,-0.88012c0,-0.48406 0.35205,-0.88012 0.7921,-0.88012c0.44006,0.04401 0.7921,0.39605 0.7921,0.88012" fill="#001026" fill-rule="evenodd" stroke="none" stroke-width="0.5" stroke-linecap="butt" stroke-linejoin="miter"/><path d="M228.76454,177.09924c-0.27856,-2.6315 9.25095,-3.64026 9.52952,-1.00876c0.27856,2.6315 -1.62888,4.99057 -4.26038,5.26914c-2.6315,0.27856 -4.99057,-1.62888 -5.26914,-4.26038z" fill="#000000" fill-rule="nonzero" stroke="none" stroke-width="0.5" stroke-linecap="butt" stroke-linejoin="miter"/><path d="M240.30575,176.27424c-0.2187,-2.63715 9.33128,-3.42912 9.54997,-0.79198c0.2187,2.63715 -1.74185,4.95227 -4.379,5.17098c-2.63715,0.2187 -4.95227,-1.74185 -5.17098,-4.379z" fill="#000000" fill-rule="nonzero" stroke="none" stroke-width="0.5" stroke-linecap="butt" stroke-linejoin="miter"/><path d="M229.59926,176.68901l-2.95638,-0.50972" fill="none" fill-rule="nonzero" stroke="#000000" stroke-width="0.5" stroke-linecap="round" stroke-linejoin="miter"/><path d="M237.42771,175.71557l4.32415,-0.09201" fill="none" fill-rule="nonzero" stroke="#000000" stroke-width="0.5" stroke-linecap="round" stroke-linejoin="miter"/><path d="M244.58505,171.89763l3.4661,2.65055" fill="none" fill-rule="nonzero" stroke="#000000" stroke-width="0.5" stroke-linecap="round" stroke-linejoin="miter"/><path d="M247.64339,187.08731c0,0 -3.75279,0.7138 -5.83918,0.7138c-1.90732,0 -6.19024,-0.7138 -6.19024,-0.7138" fill="none" fill-rule="nonzero" stroke="#001026" stroke-width="0.5" stroke-linecap="round" stroke-linejoin="miter"/><path d="M236.42952,174.03846h-5.60693" fill="none" fill-rule="nonzero" stroke="#001026" stroke-width="0.5" stroke-linecap="round" stroke-linejoin="miter"/><path d="M247.03172,173.52874h-5.60693" fill="none" fill-rule="nonzero" stroke="#001026" stroke-width="0.5" stroke-linecap="round" stroke-linejoin="miter"/></g></g></svg>