<svg version="1.1" xmlns="http://www.w3.org/2000/svg" xmlns:xlink="http://www.w3.org/1999/xlink" width="81.92995" height="222.0171" viewBox="0,0,81.92995,222.0171"><g transform="translate(-192.86867,-119.08292)"><g data-paper-data="{&quot;isPaintingLayer&quot;:true}" fill-rule="nonzero" stroke-miterlimit="10" stroke-dasharray="" stroke-dashoffset="0" style="mix-blend-mode: normal"><g><path d="M252.10483,261.0082l3.92895,-0.47379c0,5.03817 -0.11863,28.63043 -0.4167,31.59401c-0.29732,2.96433 -1.84547,37.16677 -1.7261,38.23372c0.11863,1.12627 5.77443,0.82968 8.57267,1.65937c1.42878,0.41521 1.96485,1.06695 2.08348,1.54148c-5.06041,-0.47453 -11.01353,-0.41521 -12.38299,-1.66011c-0.89271,-0.82968 0.17869,-29.10422 0.71476,-39.24061c0.23801,-4.92028 -0.6547,-28.03801 -0.77408,-31.65407z" fill="#e5c0ac" stroke="none" stroke-width="1" stroke-linecap="butt" stroke-linejoin="miter"/><path d="M266.09529,337.8901c0.71402,0.94832 0.59539,2.66774 -1.07214,2.60843c-1.60673,-0.11863 -2.50018,-0.59316 -5.05967,-0.83043c-2.97693,-0.17721 -6.01318,-0.17721 -8.98936,0.05932c-3.69169,0.3559 -7.44195,0.29658 -7.44195,-2.84495c0,-3.79401 0.35738,-4.6237 -0.05932,-8.71354c-0.53607,-5.57201 -3.21494,-21.10247 -3.63163,-32.18718c-0.17869,-4.6237 -2.73818,-20.80589 -3.69095,-33.01686l15.95457,-1.95669c0.11937,3.61606 1.01208,26.7338 0.77408,31.65407c-0.53607,10.19571 -1.60747,38.41092 -0.71476,39.24061c1.36946,1.30421 7.32258,1.18558 12.38299,1.66011c0.05932,0.23726 0.05932,0.5331 0,0.77037l-3.03625,2.01527c0,0 3.33431,0 4.5844,1.54148z" fill="#dca886" stroke="none" stroke-width="1" stroke-linecap="butt" stroke-linejoin="miter"/><path d="M261.57095,336.34862c0,0 3.33357,0 4.52434,1.54148c0.71402,0.94832 0.59539,2.66774 -1.07214,2.60843c-1.60673,-0.11863 -2.50018,-0.59316 -5.05967,-0.83043c-2.97693,-0.17721 -6.01318,-0.17721 -8.98936,0.05932c-3.69169,0.3559 -7.44195,0.29658 -7.44195,-2.84495c0,-3.79401 0.35738,-4.6237 -0.05932,-8.71354c-0.53607,-5.57201 -3.21494,-21.10247 -3.63163,-32.18718c-0.17869,-4.6237 -2.73818,-20.80589 -3.69095,-33.01686l19.8242,-2.43048c0,5.03817 -0.05932,28.57111 -0.35738,31.5347c-0.29732,2.96433 -1.84547,37.16677 -1.7261,38.23372c0.11863,1.12627 5.83374,0.82968 8.57267,1.65937c2.73818,0.83043 2.08348,2.37116 2.08348,2.37116z" fill="#000000" stroke="#000000" stroke-width="1.2" stroke-linecap="round" stroke-linejoin="round"/><path d="M261.3322,333.74094c0,0 2.02416,-0.11863 3.21494,0.5331c1.01208,0.53385 1.42878,1.42285 1.19077,3.26016c0,0 -1.13146,-1.12627 -4.22702,-1.2449" fill="#000000" stroke="#000000" stroke-width="1.2" stroke-linecap="round" stroke-linejoin="round"/></g><g><path d="M227.01706,295.03343c0.6547,-4.14991 1.13146,-26.7338 1.3094,-34.49902h3.81032c0,5.03817 -1.7261,31.5347 -2.02416,34.49902c-0.29732,2.96358 -5.00035,34.20244 -4.88172,35.26939c0.11937,1.12627 5.77517,0.82968 8.57267,1.65937c1.42878,0.41521 1.96485,1.00763 2.08348,1.54148c-4.58366,-1.06695 -11.48954,-0.71105 -12.56094,-1.42285c-1.31015,-0.889 2.73818,-30.52706 3.69095,-37.04739z" fill="#e5c0ac" stroke="none" stroke-width="1" stroke-linecap="butt" stroke-linejoin="miter"/><path d="M237.37589,337.83079c0.71402,0.94832 0.53533,2.72706 -1.0714,2.60843c-1.60747,-0.11863 -2.50092,-0.59316 -5.06041,-0.83043c-2.97693,-0.17721 -6.01318,-0.17721 -8.98936,0.05932c-3.75101,0.3559 -7.44195,0.29658 -7.44195,-2.84495c0,-3.79401 0.47601,-6.28306 0.47601,-10.37366c0,-4.68301 -1.19003,-27.44485 -1.36872,-32.00923c-0.17869,-4.56438 -2.02416,-29.04564 -1.42878,-33.90586h15.83519c-0.17795,7.70591 -0.71402,30.34912 -1.3094,34.49902c-0.95277,6.46101 -5.00109,36.15839 -3.69095,37.04739c1.01208,0.71179 7.91797,0.41521 12.50162,1.42285c0.05932,0.29658 0.05932,0.59242 0,0.82968l-3.03625,2.01527c0,0 3.33431,0 4.5844,1.48216z" fill="#dca886" stroke="none" stroke-width="1" stroke-linecap="butt" stroke-linejoin="miter"/><path d="M232.85155,336.28931c0,0 3.33357,0 4.52434,1.54148c0.71402,0.94832 0.59539,2.66774 -1.0714,2.60843c-1.60747,-0.11863 -2.50092,-0.59316 -5.06041,-0.83043c-2.97693,-0.17721 -6.01318,-0.17721 -8.98936,0.05932c-3.69095,0.3559 -7.44195,0.29658 -7.44195,-2.84495c0,-3.79401 0.47601,-6.28306 0.47601,-10.37366c0,-4.68301 -1.19003,-27.44485 -1.36872,-32.00923c-0.17869,-4.56438 -2.02416,-29.10496 -1.42878,-33.90586h19.64551c0,5.03817 -1.78616,31.5347 -2.08348,34.49902c-0.29806,2.96358 -5.00109,34.20244 -4.88172,35.26939c0.11937,1.12627 5.83449,0.82968 8.57267,1.65937c2.73818,0.83043 2.08348,2.37116 2.08348,2.37116z" fill="#000000" stroke="#000000" stroke-width="1.2" stroke-linecap="round" stroke-linejoin="round"/><path d="M232.67286,333.80025c0,0 2.08348,-0.11863 3.21419,0.5331c1.01208,0.59316 1.36946,1.48216 1.19077,3.26016c0,0 -1.13071,-1.18558 -4.22628,-1.2449" fill="#000000" stroke="#000000" stroke-width="1.2" stroke-linecap="round" stroke-linejoin="round"/></g><g><path d="M216.12439,250.44399c-0.35664,3.3788 -0.4167,8.29833 -0.47601,11.97371c-1.19077,-0.17795 -2.38154,-0.47453 -3.51226,-0.889c-0.23801,-3.97196 -0.23801,-8.00249 0,-11.97445c0.4167,-5.80854 2.79824,-9.00938 2.79824,-9.00938h3.75026l-0.23801,0.65174c-0.35738,1.42285 -2.02416,5.21612 -2.32223,9.24739z" fill="#fff2bb" stroke="none" stroke-width="1" stroke-linecap="butt" stroke-linejoin="miter"/><path d="M255.89291,261.58801c0,0 -7.20395,2.667 -19.82495,1.36279c0,0 -0.59539,-9.54323 -2.08348,-9.54323c-1.48809,0 -2.08348,9.54323 -2.08348,9.54323c-5.41779,0.65248 -10.8949,0.47453 -16.31195,-0.47379c0.05932,-3.67538 0.17869,-8.65423 0.47601,-11.97371c0.35738,-4.09059 2.02416,-7.88386 2.38154,-9.30671l0.23801,-0.65174h34.52868c0,0 2.38154,3.20085 2.79824,9.00938c0.23801,3.97196 0.23801,8.00249 -0.11863,12.03377z" fill="#ffffff" stroke="none" stroke-width="1" stroke-linecap="butt" stroke-linejoin="miter"/><path d="M255.95222,261.5287c0,0 -7.20395,2.667 -19.8242,1.36279c0,0 -0.59539,-9.54323 -2.08422,-9.54323c-1.48809,0 -2.08348,9.54323 -2.08348,9.54323c-12.621,1.30421 -19.8242,-1.36279 -19.8242,-1.36279c-0.23801,-3.97196 -0.23801,-8.00249 0,-11.97445c0.4167,-5.80854 2.79824,-9.00938 2.79824,-9.00938h38.27895c0,0 2.38154,3.20085 2.79824,9.00938c0.23801,3.97196 0.23801,8.00249 -0.05932,11.97445z" fill="#000000" stroke="#000000" stroke-width="1.2" stroke-linecap="round" stroke-linejoin="round"/></g><g><path d="M200.91424,261.23656v0.05857c0.06006,-1.18484 0.4167,-5.80854 0.4167,-5.80854c0,0 -0.11863,3.67464 -0.4167,5.74996z" fill="none" stroke="none" stroke-width="1" stroke-linecap="butt" stroke-linejoin="miter"/><path d="M198.83076,257.79845c0.17869,-1.36353 0.29732,-2.4898 0.29732,-2.4898c0,0 -0.11863,1.12627 -0.29732,2.4898z" fill="none" stroke="none" stroke-width="1" stroke-linecap="butt" stroke-linejoin="miter"/><path d="M197.87799,251.10017c-0.29732,0.71105 -2.44086,4.14917 -3.92895,6.57965c-0.53607,-0.3559 -0.6547,-1.06695 -0.29732,-1.60079c0.6547,-1.30421 1.54741,-2.54911 2.73818,-5.1568c1.0714,-2.43048 3.98901,-22.82189 4.88172,-26.85243c0.29732,-1.30421 0.71476,-4.2678 1.36946,-7.82454l2.02416,0.41521c-0.95277,4.91953 -2.97693,14.99661 -3.81032,19.44236c-1.0714,6.04654 -2.56023,13.9304 -2.97693,14.99735z" fill="#e5c0ac" stroke="none" stroke-width="1" stroke-linecap="butt" stroke-linejoin="miter"/><path d="M211.09438,226.44096c-1.66678,5.86859 -6.66788,22.93979 -6.25044,24.48126c0.29732,1.60005 1.66678,4.38643 2.08348,6.87623c0.29732,1.83732 -1.72684,2.19322 -2.14354,0.82968c-0.29732,-0.889 -1.25009,-3.31948 -1.25009,-3.31948c0,0 0,3.14153 -0.23801,5.69064c-0.17869,2.01527 -2.26217,1.71869 -2.26217,0.23726v-0.05932c0.29732,-2.07532 0.4167,-5.74996 0.4167,-5.74996c0,0 -0.35738,4.6237 -0.4167,5.80928c-0.29806,1.778 -2.38154,1.71869 -2.38154,-0.17795c0,-0.83043 0.11937,-2.1339 0.23801,-3.31948c0.11937,-1.30421 0.29806,-2.4898 0.29806,-2.4898c0,0 -0.17869,1.12627 -0.29806,2.4898c-0.11863,1.00763 -0.23801,2.1339 -0.29732,2.96358c-0.05932,1.42285 -2.20285,1.48216 -2.14354,-0.23726c0.06006,-1.18558 0.47675,-5.63133 0.47675,-5.63133c-0.29806,1.00763 -0.77408,1.89738 -1.48884,2.60843c-0.4167,0.41521 -0.95202,0.47453 -1.42878,0.17795c1.48884,-2.37116 3.63163,-5.80928 3.9297,-6.57965c0.4167,-1.00763 1.90479,-8.89149 2.97619,-14.93803c0.77408,-4.50506 2.79824,-14.52282 3.81032,-19.44236l8.69204,1.95595c-0.95277,3.08222 -1.84547,6.10512 -2.32223,7.82454z" fill="#dca886" stroke="none" stroke-width="1" stroke-linecap="butt" stroke-linejoin="miter"/><path d="M202.7004,216.24525l10.71621,2.37116c-0.95277,3.08222 -1.84547,6.10512 -2.32223,7.82454c-1.66678,5.86859 -6.66788,22.93979 -6.3105,24.54058c0.29806,1.60005 1.66678,4.38643 2.08348,6.87623c0.29806,1.83732 -1.7261,2.19322 -2.1428,0.82968c-0.29806,-0.889 -1.25009,-3.31948 -1.25009,-3.31948c0,0 0,3.14153 -0.23801,5.69064c-0.17869,2.01527 -2.26217,1.71869 -2.26217,0.23652v-0.05857c0.29732,-2.07532 0.4167,-5.74996 0.4167,-5.74996c0,0 -0.35738,4.6237 -0.4167,5.80854c-0.29806,1.77874 -2.38154,1.71943 -2.38154,-0.17721c0,-0.83043 0.11863,-2.1339 0.23801,-3.31948c0.11937,-1.30421 0.29732,-2.4898 0.29732,-2.4898c0,0 -0.17795,1.12627 -0.29732,2.4898c-0.11937,1.00763 -0.23801,2.1339 -0.29732,2.96358c-0.06006,1.42285 -2.20285,1.48216 -2.14354,-0.23726c0.05932,-1.18558 0.47601,-5.63133 0.47601,-5.63133c-0.29732,1.00763 -0.77333,1.89738 -1.48809,2.60843c-0.89271,0.82968 -2.44086,0 -1.7261,-1.42285c0.6547,-1.30421 1.54741,-2.54911 2.73818,-5.1568c1.0714,-2.43048 3.98901,-22.82189 4.88172,-26.85243c0.29732,-1.30421 0.77408,-4.2678 1.42878,-7.82454z" fill="#000000" stroke="#000000" stroke-width="1.2" stroke-linecap="round" stroke-linejoin="round"/></g><g><path d="M266.51866,255.50291c0,0 0.35738,4.6237 0.4167,5.80928v-0.05932c-0.29732,-2.07458 -0.4167,-5.74996 -0.4167,-5.74996z" fill="none" stroke="none" stroke-width="1" stroke-linecap="butt" stroke-linejoin="miter"/><path d="M269.01958,257.81476c-0.17869,-1.36353 -0.29806,-2.4898 -0.29806,-2.4898c0,0 0.17869,1.12627 0.29806,2.4898z" fill="none" stroke="none" stroke-width="1" stroke-linecap="butt" stroke-linejoin="miter"/><path d="M266.99541,236.11988c-0.83339,-4.44575 -2.85756,-14.52282 -3.81032,-19.4431l2.02416,-0.47379c0.6547,3.556 1.0714,6.52033 1.36946,7.82454c0.89271,4.03053 3.80958,24.42195 4.88172,26.85169c1.19003,2.60843 2.08348,3.85333 2.73818,5.15754c0.35738,0.5331 0.23801,1.2449 -0.29806,1.60005c-1.48809,-2.43048 -3.63089,-5.86785 -3.92895,-6.57965c-0.35738,-1.00763 -1.84547,-8.89149 -2.97619,-14.93729z" fill="#e5c0ac" stroke="none" stroke-width="1" stroke-linecap="butt" stroke-linejoin="miter"/><path d="M254.49305,218.63273l8.69204,-1.95595c1.01208,4.92028 3.03625,14.93803 3.81032,19.4431c1.0714,6.0458 2.55949,13.92966 2.97619,14.93729c0.29806,0.77037 2.44086,4.20848 3.92895,6.57965c-0.4167,0.29658 -1.01134,0.23726 -1.36872,-0.11863c-0.71476,-0.71105 -1.19077,-1.60005 -1.48884,-2.60769c0,0 0.47675,4.44575 0.47675,5.63133c0.05932,1.71869 -2.08348,1.65937 -2.14354,0.23652c-0.05932,-0.82968 -0.17869,-1.95595 -0.29732,-2.96358c-0.17869,-1.36353 -0.29806,-2.4898 -0.29806,-2.4898c0,0 0.17869,1.18558 0.29806,2.4898c0.11863,1.18558 0.23801,2.4898 0.23801,3.31948c0,1.89663 -2.08348,1.95595 -2.38154,0.17795c0,-1.18558 -0.4167,-5.80928 -0.4167,-5.80928c0,0 0.11937,3.67538 0.4167,5.74996v0.05932c0.06006,1.48216 -2.08348,1.778 -2.26217,-0.23726c-0.23801,-2.54911 -0.23801,-5.69064 -0.23801,-5.69064c0,0 -0.95277,2.43048 -1.25009,3.31948c-0.4167,1.36353 -2.50018,1.00763 -2.14354,-0.82968c0.4167,-2.4898 1.78616,-5.27543 2.08422,-6.87623c0.35664,-1.60005 -4.64371,-18.67199 -6.3105,-24.54058c-0.47675,-1.71869 -1.42878,-4.74159 -2.32223,-7.82454z" fill="#dca886" stroke="none" stroke-width="1" stroke-linecap="butt" stroke-linejoin="miter"/><path d="M266.57872,224.08685c0.89271,4.03053 3.80958,24.42121 4.88172,26.85169c1.19003,2.60843 2.08348,3.85333 2.73818,5.15754c0.71402,1.42211 -0.83339,2.25253 -1.72684,1.42211c-0.71402,-0.71105 -1.19003,-1.60005 -1.48809,-2.60769c0,0 0.47675,4.44575 0.47675,5.63133c0.05932,1.71869 -2.08422,1.65937 -2.14354,0.23652c-0.05932,-0.82968 -0.17869,-1.95595 -0.29732,-2.96358c-0.17869,-1.36353 -0.29806,-2.4898 -0.29806,-2.4898c0,0 0.17869,1.18558 0.29806,2.4898c0.11863,1.18558 0.23801,2.4898 0.23801,3.31948c0,1.89663 -2.08422,1.95595 -2.38154,0.17795c0,-1.18558 -0.4167,-5.80928 -0.4167,-5.80928c0,0 0.11937,3.67538 0.4167,5.74996v0.05932c0.05932,1.48216 -2.08348,1.778 -2.26217,-0.23726c-0.23801,-2.54911 -0.23801,-5.69064 -0.23801,-5.69064c0,0 -0.95277,2.43048 -1.25009,3.31948c-0.4167,1.36353 -2.50092,1.00763 -2.14354,-0.82968c0.4167,-2.4898 1.78616,-5.27543 2.08348,-6.87623c0.4167,-1.60005 -4.58366,-18.67199 -6.25044,-24.54058c-0.47675,-1.71869 -1.36946,-4.74159 -2.32223,-7.82454l10.71621,-2.37042c0.6547,3.556 1.0714,6.52033 1.36946,7.82454z" fill="#000000" stroke="#000000" stroke-width="1.2" stroke-linecap="round" stroke-linejoin="round"/></g><g fill="#000000"><path d="M216.30085,201.95302c-1.7261,3.55675 -4.40571,11.55924 -5.83449,16.00498l-7.85791,-1.71869c1.3094,-7.23212 3.33357,-17.13125 6.72719,-22.1101c0.77408,-1.18558 1.7261,-2.19396 2.79824,-3.02364c1.3094,1.18558 2.32149,2.66774 2.97619,4.2678c1.19077,2.60843 1.13146,6.57965 1.19077,6.57965z" stroke="none" stroke-width="1" stroke-linecap="butt" stroke-linejoin="miter"/><path d="M251.7823,202.6055c0,0 2.85756,8.95081 5.00109,15.41182l-2.38154,0.5331c-1.01208,-3.20085 -2.14354,-7.40933 -2.73818,-9.30596z" stroke="none" stroke-width="1" stroke-linecap="butt" stroke-linejoin="miter"/><path d="M218.32502,241.60959v0.11863c-1.42878,-0.23726 -2.61955,-0.47453 -3.51226,-0.65248c0.11863,-3.73395 0.17869,-6.87623 0.29732,-8.95081c0.4167,-7.82454 1.25009,-23.59152 1.25009,-23.59152c0,0 -1.60747,5.09748 -3.09556,10.07633l-2.91687,-0.65174c1.48809,-4.44575 4.10764,-12.44824 5.83374,-16.00498c0,0 0.06006,-3.97122 -1.13071,-6.63896c-0.6547,-1.60005 -1.66678,-3.0229 -2.97693,-4.20848c0.89345,-0.71105 1.90553,-1.2449 2.97693,-1.65937c1.78616,1.95595 3.86964,5.5127 4.16696,11.49918c0.53607,10.9075 -0.77333,40.60488 -0.89271,40.6642z" stroke="none" stroke-width="1" stroke-linecap="butt" stroke-linejoin="miter"/><path d="M265.296,216.23932l-8.39398,1.83732c-2.1428,-6.46101 -5.00035,-15.41182 -5.00035,-15.41182l-0.11937,6.63896c0.23801,4.20848 1.01208,16.53809 1.31015,22.82115c0.05932,2.01527 0.17795,5.15754 0.23801,8.83218c-11.43022,2.37116 -23.27715,2.60843 -34.82674,0.71179v-0.11863c0,0 1.3094,-29.69738 0.77408,-40.60488c-0.29806,-5.98648 -2.38154,-9.54323 -4.1677,-11.49918c0.77408,-0.29658 1.66678,-0.53385 2.50018,-0.71179c1.36946,-0.29584 2.79824,-0.41447 4.1677,-0.47379h0.35738c0.83339,2.54837 3.69095,8.5356 11.96555,8.5356c7.73928,0 10.65689,-6.0458 11.5496,-8.5356l0.83339,0.05932c1.25009,0.05932 2.44086,0.17795 3.69095,0.35516c3.39363,0.59316 6.36981,2.54911 8.27535,5.39481c3.33357,4.97885 5.41705,14.87798 6.84583,22.16942z" stroke="none" stroke-width="1" stroke-linecap="butt" stroke-linejoin="miter"/><path d="M212.13389,191.10558c1.3094,1.18558 2.32149,2.66774 2.97619,4.2678c1.25009,3.08296 1.36946,8.35839 1.31015,13.16003" stroke="#a80054" stroke-width="1.2" stroke-linecap="round" stroke-linejoin="round"/><path d="M251.60361,208.71062c-0.05932,-4.8009 0.06006,-10.07707 1.31015,-13.15929c0.6547,-1.60005 1.66678,-3.08222 2.97619,-4.2678" stroke="#a80054" stroke-width="1.2" stroke-linecap="round" stroke-linejoin="round"/><path d="M244.04302,191.46148c-2.1428,3.43811 -5.8938,5.45338 -9.94213,5.33475c-8.2746,0 -11.13216,-5.98723 -12.02561,-8.5356c0.77408,0 1.48884,-0.05932 2.20285,-0.17795c2.97693,-0.59316 3.27425,-6.22375 3.27425,-6.22375h10.53752c0.05932,1.83732 0.4167,3.67464 1.01208,5.45338c0.77408,2.1339 2.61955,3.73395 4.94104,4.14917z" stroke="none" stroke-width="1" stroke-linecap="butt" stroke-linejoin="miter"/><path d="M245.59117,188.142c-0.4167,1.18558 -0.95277,2.25253 -1.60747,3.26016c-2.26217,-0.41521 -4.10764,-2.01527 -4.88172,-4.14917c-0.6547,-1.71943 -0.95277,-3.61606 -1.01208,-5.45338h2.50018c0,0 0.29806,5.63133 3.27425,6.22375c0.59539,0.11863 1.13146,0.17795 1.72684,0.11863z" stroke="none" stroke-width="1" stroke-linecap="butt" stroke-linejoin="miter"/><path d="M252.97307,232.12493c0.05932,2.01527 0.17869,5.15754 0.23801,8.83218c-6.36981,1.30421 -12.859,1.95595 -19.40751,1.95595c-6.36981,-0.05857 -12.68031,-0.65174 -18.9315,-1.89663c0.05932,-3.73395 0.11937,-6.87623 0.23801,-8.95081c0.35738,-7.82454 1.25009,-23.53221 1.25009,-23.53221c0,0 -1.60747,5.09748 -3.09556,10.07633l-10.71547,-2.37042c1.25009,-7.23212 3.33357,-17.07193 6.72719,-22.1101c1.90479,-2.84569 4.88172,-4.80164 8.2746,-5.39481c1.36946,-0.29584 2.79824,-0.41447 4.1677,-0.47379h0.35664c0.83339,2.4898 3.69095,8.5356 11.96629,8.5356c7.73928,0 10.65615,-6.0458 11.5496,-8.5356l0.83339,0.05932c1.25009,0.05932 2.44086,0.17795 3.69095,0.35516c3.39363,0.59316 6.36981,2.54911 8.2746,5.39481c3.39363,5.03817 5.47711,14.87798 6.72719,22.1101l-10.71547,2.37042c-1.01208,-3.20085 -2.14354,-7.40933 -2.73818,-9.30596c0.23801,4.20848 1.01134,16.53809 1.3094,22.88047z" stroke="#000000" stroke-width="1.2" stroke-linecap="round" stroke-linejoin="round"/><path d="M222.07528,188.26063c0.77408,0 1.48884,-0.05932 2.20285,-0.17795c2.97693,-0.59316 3.27425,-6.22375 3.27425,-6.22375h13.03769c0,0 0.29806,5.63059 3.27425,6.22375c0.59539,0.11863 1.13146,0.17795 1.72684,0.17795c-0.83339,2.4898 -3.75101,8.5356 -11.49028,8.5356c-8.2746,0 -11.13216,-6.0458 -12.02561,-8.5356z" stroke="#000000" stroke-width="1.2" stroke-linecap="round" stroke-linejoin="round"/></g><g><path d="M223.94522,179.40176c0,0 -4.64371,4.97885 -11.7876,3.97122c-7.14389,-1.00763 -9.76344,-7.2907 -9.94213,-12.44824c0,0 -8.21529,-6.69828 -6.25118,-19.73894c1.96485,-13.04066 10.83484,-15.7084 10.83484,-15.7084c0,0 0.89345,-9.48391 9.8235,-13.45587c8.92931,-3.97122 15.59719,0 15.59719,0c0,0 8.75136,-6.0458 20.41959,1.30421c10.53752,6.69828 7.08457,18.02025 7.08457,18.02025c0,0 12.26362,8.06181 10.18014,23.47363c-2.08348,15.41182 -14.16915,18.49404 -23.09846,13.04066c0,0 -3.69095,4.44575 -11.7876,4.44575c-8.81067,0 -11.07284,-2.90427 -11.07284,-2.90427z" fill="#00ad20" stroke="#00ad20" stroke-width="1.2" stroke-linecap="butt" stroke-linejoin="miter"/><path d="M251.68739,163.15951c-0.83339,6.63896 -3.57232,12.86345 -7.85865,18.02025c-5.77443,3.14153 -12.79969,2.90427 -18.69349,0.41521c-7.32258,-3.14153 -13.15633,-10.25502 -13.9304,-20.62868c-0.71402,-9.48391 3.45294,-15.7084 9.46612,-20.44999c6.36981,-5.03891 12.02487,-5.74996 12.02487,-5.74996c0,0 5.53716,6.81691 9.70412,10.37366c2.56023,2.19322 6.66788,4.08985 9.46538,5.27543c0.29806,4.20848 0.29806,8.47628 -0.17795,12.74408z" fill="#dca886" stroke="none" stroke-width="1" stroke-linecap="butt" stroke-linejoin="miter"/><path d="M250.46919,174.0077c-1.7261,2.96358 -4.28633,5.45338 -7.32258,7.11275c4.28633,-5.09748 7.02526,-11.38129 7.85865,-18.02025c0.4167,-4.20848 0.47601,-8.47628 0.11863,-12.68476c1.78616,0.71105 3.03625,1.18558 3.03625,1.18558c0,0 2.38154,12.21097 -3.69095,22.40668z" fill="#e5c0ac" stroke="none" stroke-width="1" stroke-linecap="butt" stroke-linejoin="miter"/><path d="M232.69584,134.70703c0,0 5.53716,6.81691 9.70412,10.37366c4.1677,3.556 12.50162,6.46101 12.50162,6.46101c0,0 2.38154,12.21097 -3.69095,22.40668c-5.95312,9.95844 -17.26397,11.32123 -26.07539,7.58728c-7.32258,-3.08222 -13.09701,-10.19571 -13.9304,-20.56936c-0.77408,-9.48391 3.45294,-15.7084 9.46612,-20.44999c6.36981,-5.03891 12.02487,-5.80928 12.02487,-5.80928z" fill="none" stroke="#a80054" stroke-width="1.2" stroke-linecap="round" stroke-linejoin="round"/><path d="M253.11617,133.10623c0.53533,0.71179 1.01208,1.48216 1.3094,2.37116" fill="none" stroke="#00ad20" stroke-width="2.4" stroke-linecap="round" stroke-linejoin="round"/><path d="M243.23336,126.17143c2.97693,0.889 5.6558,2.48905 7.91797,4.6237" fill="none" stroke="#00ad20" stroke-width="2.4" stroke-linecap="round" stroke-linejoin="round"/></g></g></g></svg>