<svg version="1.1" xmlns="http://www.w3.org/2000/svg" xmlns:xlink="http://www.w3.org/1999/xlink" width="73.84068" height="136.82292" viewBox="0,0,73.84068,136.82292"><g transform="translate(-203.61522,-112.17708)"><g data-paper-data="{&quot;isPaintingLayer&quot;:true}" fill-rule="nonzero" stroke="none" stroke-width="1" stroke-linecap="butt" stroke-linejoin="miter" stroke-miterlimit="10" stroke-dasharray="" stroke-dashoffset="0" style="mix-blend-mode: normal"><path d="M240.2414,225.2491c-0.5819,5.7616 -2.3923,7.6822 -5.9483,8.5145c-1.8103,0.4481 -3.556,0.5121 -5.1724,-0.3201c-3.4267,-1.7926 -4.1379,-6.786 -5.8836,-10.051c-3.4914,-0.9603 -3.0388,2.6888 -8.0173,2.6888c-8.6638,0 -8.5991,-4.5453 -10.2155,-17.5411c-1.6164,-12.9958 34.0086,-8.9626 34.0086,-8.9626c0,0 1.8104,19.9738 1.2285,25.6715z" fill="#00a0b4"/><path d="M246.1897,222.4322c-1.2285,-3.2649 0.2586,-19.2056 0.2586,-19.2056l25.6681,2.8809c0,0 0.9052,8.3864 1.0345,11.0112c0.3232,11.9075 -3.5561,13.5079 -6.2069,13.4439c-3.6854,-0.128 -9.569,-7.5542 -10.7974,-10.179c-1.4871,-3.2649 -7.6294,-1.1523 -9.9569,2.0486z" fill="#00a0b4"/><path d="M218.9698,248.4238c-1.0345,-0.8322 -1.4224,-2.7528 -1.9396,-3.9051c-2.263,0.2561 -0.4526,3.2009 -0.9699,4.4813c-0.9698,-1.0883 -0.8405,-3.457 -2.0043,-4.2893c-1.2284,0.0641 -0.3232,3.393 -0.6465,4.2253l-0.7112,-0.1281c-3.2974,-4.2892 -5.3017,-37.1308 -5.5604,-43.4046l11.1854,-0.5762c0.9051,8.2584 1.6164,41.8682 0.6465,43.5967z" fill="#78c8c8"/><path d="M271.0172,223.7766c0.0647,3.9692 -0.1293,7.9384 -0.5819,11.8435c-0.2586,2.2406 -0.5172,8.8986 -2.6508,10.371c-1.0345,-0.4481 0,-2.6247 -1.2931,-3.393c-1.4224,1.3444 -0.6466,4.9935 -2.7802,5.7617c-0.8405,-1.6005 0.3879,-4.0332 -0.9052,-5.3776h-0.5819c-1.0344,1.1524 -0.6465,3.0729 -1.9396,4.2253c-0.9052,-1.6645 -0.9698,-36.4267 -0.9698,-40.7159l10.6034,4.6093c1.0345,3.7771 1.0991,8.7706 1.0991,12.6757z" fill="#78c8c8"/><path d="M227.31035,172.04954v-21.19019h27.99569v21.19019z" fill="#006482"/><path d="M247.61207,151.43552c0,0 0.19397,3.20093 -0.51724,4.67336c-0.71121,1.47243 -2.26293,1.40841 -4.13793,0.70421c-1.875,-0.70421 -1.16379,-4.60934 -1.16379,-4.60934z" fill="#ffffff"/><path d="M252.84914,171.98552c-0.90517,4.86542 -6.65948,8.70654 -14.87069,7.23411c-6.46552,-1.15233 -11.37931,-3.64907 -10.47414,-8.32243c1.03448,-5.1215 7.43534,-7.93832 14.87069,-6.78598c8.0819,1.15233 12.09052,1.79253 10.47414,7.8743z" fill="#000000"/><path d="M276.44828,206.93972c-0.19396,4.60934 0.06465,11.33131 -2.52155,15.36449c-2.58621,4.03318 -7.82328,3.32897 -10.73276,0c-2.39224,-2.68878 -3.42672,-11.58738 -10.60345,-11.01121c-7.17673,0.57617 -0.90517,14.98038 -9.375,18.30935c-4.13793,1.60047 -10.21552,-1.28037 -12.73707,-4.73738c-1.35776,-1.85654 0,-8.32243 -5.17242,-8.8986c-5.17242,-0.57617 -6.85345,4.48131 -10.47414,5.1215c-7.88793,1.40841 -10.28017,-13.37991 -10.60344,-21.31823c-0.38793,-8.45047 -0.96983,-16.4528 -0.32328,-24.83925c1.09914,-14.78832 -0.32327,-30.85701 6.07759,-44.81308c5.81896,-12.6757 23.14655,-20.16589 37.24138,-17.34906c14.61207,2.94486 22.04742,11.58738 26.44397,25.60747c5.04311,16.00467 2.06896,31.88131 3.62069,48.2701c0.58189,6.59393 -0.51724,13.63598 -0.84052,20.29393zM241.21121,153.1c-6.72414,-0.38411 -10.73275,3.7771 -10.15086,8.77056c0.5819,4.99346 4.65517,7.42617 9.50431,7.42617c4.84914,0 10.02155,-1.66449 10.21552,-7.49019c0.19396,-5.8257 -3.23276,-8.25841 -9.56896,-8.70654z" fill="#aadcdc"/><path d="M217.93535,158.47757c-0.51724,-0.38411 -0.77586,-0.96028 -0.71121,-1.53645c-0.12931,-0.51215 0.06465,-1.08831 0.51724,-1.40841c0.64655,0.19206 0.84052,0.38411 0.90517,1.08832c0.06465,0.70421 0.12931,1.47243 -0.7112,1.85654z" fill="#000000"/><path d="M262.87069,157.45327c-0.71121,-0.70421 -0.71121,-1.85654 0,-2.56074v0c0.32328,-0.06402 0.51724,0.12803 0.64655,0.38411c0.32328,0.44813 0.38793,1.0243 0.19396,1.53645z" fill="#000000"/></g></g></svg>