<svg version="1.1" xmlns="http://www.w3.org/2000/svg" xmlns:xlink="http://www.w3.org/1999/xlink" width="58.33333" height="42.50211" viewBox="0,0,58.33333,42.50211"><g transform="translate(-211.49999,-123.12232)"><g data-paper-data="{&quot;isPaintingLayer&quot;:true}" fill-rule="evenodd" stroke="#000000" stroke-miterlimit="10" stroke-dasharray="" stroke-dashoffset="0" style="mix-blend-mode: normal"><path d="M245.61158,123.62155c0.21345,-0.1423 0.5692,-0.07115 0.64035,0.21345l1.8499,7.61303c0,0 4.55359,3.34404 5.90544,5.69199c2.2768,3.91324 2.34795,7.11499 2.34795,7.11499c0,0 5.05164,1.49415 5.90544,5.54969c0.8538,4.05554 -2.2768,11.73973 -15.65297,14.37227c-13.37617,2.63254 -24.1198,-0.9961 -29.17144,-9.10718c-5.05164,-8.11108 2.91714,-17.78746 2.49024,-17.21826l-1.49415,-12.73582c-0.07115,-0.2846 0.2846,-0.49805 0.5692,-0.35575l8.60913,5.62084c0,0 3.20174,-1.20955 6.54579,-1.35185c1.9922,-0.1423 3.69979,0 5.33624,0.2846z" fill="#000000" stroke-width="1.2" stroke-linecap="butt" stroke-linejoin="miter"/><path d="M256.14176,144.53961c0,0 4.90934,1.2807 5.76314,5.33624c0.8538,4.05554 -2.56139,11.38398 -15.79527,13.94537c-17.21826,3.55749 -25.4005,-6.68809 -20.63346,-14.22997c4.76704,-7.61303 12.94927,-1.1384 18.92586,-1.5653c5.12279,-0.35575 5.69199,-4.83819 11.73973,-3.48634z" fill="#000000" stroke-width="1" stroke-linecap="butt" stroke-linejoin="miter"/><path d="M233.72955,152.15264c0,-0.2846 0.2846,-0.49805 0.5692,-0.4269c1.35185,0.49805 5.19394,1.63645 9.46293,1.92105c3.84209,0.21345 6.11889,0 7.18614,-0.21345c0.35575,-0.07115 0.64035,0.2846 0.49805,0.64035c-0.64035,1.92105 -3.34404,7.25729 -10.81478,6.83039c-6.47464,-0.7115 -7.11499,-5.26509 -6.90154,-8.75143z" fill="#000000" stroke-width="1.2" stroke-linecap="round" stroke-linejoin="round"/><path d="M269.23333,145.32225c-3.34404,2.70369 -8.46683,2.77484 -8.46683,2.77484" fill="#000000" stroke-width="1.2" stroke-linecap="round" stroke-linejoin="round"/><path d="M268.30838,153.29104c-4.48244,0.35575 -7.25729,-0.9961 -7.25729,-0.9961" fill="#000000" stroke-width="1.2" stroke-linecap="round" stroke-linejoin="round"/><path d="M244.11743,146.17605c1.49415,0 3.05944,0.1423 3.13059,0.64035c0.07115,0.9961 -0.9961,2.98829 -2.1345,3.05944c-1.2807,0.1423 -4.26899,-1.63645 -4.26899,-2.77484c-0.07115,-0.8538 1.8499,-0.92495 3.27289,-0.92495z" fill="#000000" stroke-width="1.2" stroke-linecap="round" stroke-linejoin="round"/><path d="M212.09999,145.10881c0,0 6.11889,1.9922 8.60913,4.19784" fill="#000000" stroke-width="1.2" stroke-linecap="round" stroke-linejoin="round"/><path d="M220.92258,151.79689c-3.05944,1.20955 -8.32453,0.4269 -8.32453,0.4269" fill="#000000" stroke-width="1.2" stroke-linecap="round" stroke-linejoin="round"/><path d="M248.89995,141.36464c-0.06744,0.77974 -0.6897,1.36866 -1.39855,1.30735c-0.70885,-0.06131 -1.22075,-0.74833 -1.15331,-1.52806c0.06744,-0.77974 0.68971,-1.36865 1.39856,-1.30734c0.70885,0.06131 1.22075,0.74833 1.15331,1.52806" fill="#ff0000" stroke-width="1" stroke-linecap="butt" stroke-linejoin="miter"/><path d="M231.00085,141.88755c-0.06744,0.77974 -0.6897,1.36866 -1.39855,1.30735c-0.70885,-0.06131 -1.22075,-0.74833 -1.15331,-1.52806c0.06744,-0.77974 0.6897,-1.36866 1.39855,-1.30735c0.70272,0.1322 1.22075,0.74833 1.15331,1.52806" fill="#ff0000" stroke-width="1" stroke-linecap="butt" stroke-linejoin="miter"/></g></g></svg>