<svg version="1.1" xmlns="http://www.w3.org/2000/svg" xmlns:xlink="http://www.w3.org/1999/xlink" width="582.57753" height="147" viewBox="0,0,582.57753,147"><g transform="translate(317.5,-100.43755)"><g data-paper-data="{&quot;isPaintingLayer&quot;:true}" fill-rule="nonzero" stroke-linecap="butt" stroke-linejoin="miter" stroke-miterlimit="10" stroke-dasharray="" stroke-dashoffset="0" style="mix-blend-mode: normal"><path d="M229.97038,129.78652c0,-5.01001 4.06142,-9.07142 9.07143,-9.07142c5.01001,0 9.07142,4.06141 9.07142,9.07142c0,5.01001 -4.06141,9.07143 -9.07142,9.07143c-5.01001,0 -9.07143,-4.06141 -9.07143,-9.07143z" fill="none" stroke="#595959" stroke-width="2.5"/><path d="M221.68467,129.78652c0,-9.74388 7.89898,-17.64285 17.64285,-17.64285c9.74388,0 17.64285,7.89897 17.64285,17.64285c0,9.74388 -7.89898,17.64286 -17.64285,17.64286c-9.74388,0 -17.64285,-7.89898 -17.64285,-17.64286z" fill="none" stroke="#595959" stroke-width="2.5"/><path d="M219.375,184.02084v-15.54167h41.25v15.54167z" fill="#595959" stroke="none" stroke-width="NaN"/><path d="M-317.5,247.43755v-147h198v147z" fill-opacity="0" fill="#892163" stroke="none" stroke-width="0"/><path d="M230.97038,174.42616v-12h17.28572v12z" fill="#595959" stroke="none" stroke-width="0"/><path d="M235.25609,165.58198v-11.33929h8.57143v11.33929z" fill="#595959" stroke="none" stroke-width="0"/><g fill="#000000" stroke="#000000" stroke-width="2.5"><path d="M249.28557,121.74404c-2.50233,5.18755 -6.72273,8.33559 -9.42655,7.03135c-2.70382,-1.30424 -2.86716,-6.56688 -0.36483,-11.75443c2.50233,-5.18755 6.72273,-8.33559 9.42655,-7.03135c2.70382,1.30424 2.86716,6.56688 0.36483,11.75443z"/><path d="M246.93121,141.0766c-5.18755,-2.50233 -8.33559,-6.72273 -7.03135,-9.42655c1.30424,-2.70381 6.56688,-2.86716 11.75443,-0.36483c5.18755,2.50233 8.33559,6.72273 7.03135,9.42655c-1.30424,2.70382 -6.56688,2.86716 -11.75443,0.36483z"/><path d="M228.80496,138.83599c2.50233,-5.18755 6.72273,-8.33559 9.42655,-7.03135c2.70382,1.30424 2.86716,6.56688 0.36483,11.75443c-2.50233,5.18755 -6.72273,8.33559 -9.42655,7.03135c-2.70382,-1.30424 -2.86716,-6.56688 -0.36483,-11.75443z" data-paper-data="{&quot;index&quot;:null}"/><path d="M231.15933,119.50342c5.18755,2.50233 8.33559,6.72273 7.03135,9.42655c-1.30424,2.70382 -6.56688,2.86716 -11.75443,0.36483c-5.18755,-2.50233 -8.33559,-6.72273 -7.03135,-9.42655c1.30424,-2.70381 6.56688,-2.86716 11.75443,-0.36483z" data-paper-data="{&quot;index&quot;:null}"/></g><path d="M215.11324,129.9294c0,-13.45208 10.90506,-24.35715 24.35714,-24.35715c13.45208,0 24.35715,10.90507 24.35715,24.35715c0,13.45208 -10.90507,24.35714 -24.35715,24.35714c-13.45208,0 -24.35714,-10.90506 -24.35714,-24.35714z" fill="none" stroke="#595959" stroke-width="2.5"/></g></g></svg>