<svg version="1.1" xmlns="http://www.w3.org/2000/svg" xmlns:xlink="http://www.w3.org/1999/xlink" width="39.119" height="47.345" viewBox="0,0,39.119,47.345"><g transform="translate(-221.812,-121.427)"><g data-paper-data="{&quot;isPaintingLayer&quot;:true}" fill-rule="nonzero" stroke="none" stroke-linecap="butt" stroke-linejoin="miter" stroke-miterlimit="10" stroke-dasharray="" stroke-dashoffset="0" style="mix-blend-mode: normal"><path d="M233.51312,168.772v-12h14v12z" fill="#dc785a" stroke-width="0"/><path d="M249.837,153.829c-0.12,-0.192 0.567,-5.256 1.33,-6.753c0.675,-1.324 2.644,-2.681 4.037,-1.866c1.725,1.015 1.17,3.531 0.4,4.892c-1.127,2.01 -3.614,3.073 -5.767,3.727z" fill="#dc785a" stroke-width="1"/><path d="M225.746,150.102c-0.771,-1.361 -1.326,-3.877 0.399,-4.892c1.394,-0.815 3.362,0.542 4.037,1.866c0.763,1.497 1.454,6.561 1.33,6.753c-2.136,-0.654 -4.624,-1.717 -5.766,-3.727z" fill="#dc785a" stroke-width="1"/><path d="M250.636,129.091c0.723,-2.389 1.829,-4.643 3.274,-6.673c3.427,0.846 6.126,2.744 7.021,6.276c-1.27,1.147 -10.335,9.482 -11.98,6.906c0.056,-2.159 1.026,-4.471 1.685,-6.509z" fill="#ffc800" stroke-width="1"/><path d="M250.077,135.447c2.803,2.741 -0.256,5.217 -0.256,5.217l-5.107,-4.816c0,0 2.56,-3.142 5.363,-0.401z" fill="#006482" stroke-width="1"/><path d="M232.235,135.331c-2.117,2.203 -9.388,-7.753 -10.423,-9.129c1.566,-3.287 4.565,-4.623 8.103,-4.775c1.036,2.274 1.696,4.703 1.952,7.19c0.228,2.127 0.731,4.583 0.368,6.714z" fill="#ffc800" stroke-width="1"/><path d="M236.34,136.406l-5.946,3.728c0,0 -2.52,-3.026 0.767,-5.176c3.286,-2.151 5.179,1.448 5.179,1.448z" fill="#006482" stroke-width="1"/><path d="M252.425,140.969l-23.433,-0.057c0,0 0.184,-6.127 12.28,-6.051c9.512,0.076 11.153,6.108 11.153,6.108z" fill="#ffc800" stroke-width="1"/><path d="M252.633,143.107c0.283,1.826 -0.671,4.655 -0.915,6.473c-0.531,3.944 -1.661,8.009 -4.976,10.365c-2.779,1.974 -6.98,2.335 -10.286,1.011c-1.709,-0.678 -3.347,-2.315 -4.393,-3.796c-0.963,-1.734 -1.777,-3.548 -2.432,-5.421c-0.707,-2.336 -0.287,-3.21 -0.239,-4.165c0.171,-0.346 0.267,-3.977 0.439,-4.318z" fill="#dc785a" stroke-width="1"/><path d="M242.649,147.734c-0.072,1.798 -4.428,2.576 -4.304,-0.309c0.123,-2.885 -0.044,-4.791 1.968,-4.815c2.013,-0.024 2.4,3.314 2.336,5.124z" fill="#dc5050" stroke-width="1"/><path d="M248.551,144.56l4.213,0.096l-0.814,4.928l-3.399,-5.024" fill="#ffc800" stroke-width="1"/><path d="M232.638,144.56l-3.394,5.024l-0.819,-4.928l4.213,-0.096" fill="#ffc800" stroke-width="1"/><path d="M227.507,146.835c-0.1,-1.613 0.128,-5.65 1.25,-6.553h24.51c1.083,1.152 0.683,4.575 0.284,6.268z" fill="#00a0dc" stroke-width="1"/><path d="M243.3,151.606c0,0 -0.615,1.204 -2.931,1.116c-2.316,-0.088 -2.767,-1.076 -2.767,-1.076z" fill="#000000" stroke-width="1"/><path d="M247.693,148.998c-0.687,0.955 -1.418,-0.626 -0.655,-1.308c0.495,0.044 0.667,0.401 0.655,1.308z" fill="#000000" stroke-width="1"/><path d="M234.12,149.05c-0.499,-0.212 -0.46,-0.658 -0.543,-1.059l0.65,-0.498c0.727,0.241 0.576,1.397 -0.107,1.557z" fill="#000000" stroke-width="1"/><path d="M253.902,145.058l-26.619,-0.008l0.348,-3.279l26.271,-0.104v3.391" fill="#006482" stroke-width="1"/></g></g></svg>