<svg version="1.1" xmlns="http://www.w3.org/2000/svg" xmlns:xlink="http://www.w3.org/1999/xlink" width="40.52275" height="44.10894" viewBox="0,0,40.52275,44.10894"><g transform="translate(-216.54981,-131.00076)"><g data-paper-data="{&quot;isPaintingLayer&quot;:true}" fill-rule="nonzero" stroke="none" stroke-width="0.95" stroke-linecap="butt" stroke-linejoin="miter" stroke-miterlimit="10" stroke-dasharray="" stroke-dashoffset="0" style="mix-blend-mode: normal"><path d="M248.6628,140.119c0.5216,0.1691 1.4345,0.5244 1.8107,0.9063c0.4988,0.5064 1.0574,1.0289 1.5438,1.5685c0.6555,0.7258 0.8816,1.4839 1.2701,2.3522c0.3506,0.7809 0.9966,1.7708 1.16,2.6001c0.3192,1.6093 -0.3097,3.5369 0.5234,4.9961c0.4047,0.7077 0.8588,1.1628 1.2208,1.9066c0.246,0.5083 0.3097,1.0251 0.5006,1.5476c0.1786,0.4854 0.1321,0.8835 0.1378,1.4164c0.0104,1.0308 -0.1131,1.881 -0.4864,2.832c-0.419,1.0668 -0.6213,2.0092 -1.2616,2.9906c-0.4323,0.664 -0.4313,1.5314 -0.6888,2.2752c-0.1558,0.4446 -0.4094,0.8664 -0.7049,1.2075c-0.1482,0.1691 -0.2004,0.5291 -0.3135,0.7362c-0.0931,0.1739 -0.247,0.1634 -0.3505,0.3031c-0.5824,0.7923 -2.1613,0.8464 -3.0258,0.9205c-0.6526,0.0561 -1.1951,-0.1368 -1.8534,-0.1539c-0.4693,-0.0133 -0.8237,-0.0931 -1.2379,-0.1928c-0.1738,0.5975 -0.417,1.5048 -0.2593,2.1565c0.1615,0.6678 0.9167,0.8873 1.3727,1.3062c0.3411,0.3135 0.5292,0.4978 0.438,0.9605c-0.0409,0.2128 -0.1188,0.6536 -0.1967,0.8512c-0.2574,0.6441 -1.2093,1.0003 -1.8031,1.2179c-2.299,0.8407 -4.2294,-0.3449 -6.3108,-1.311c-1.92,-0.8902 -3.5217,-2.2829 -4.4213,-4.2323c-0.2347,-0.5025 -0.1786,-0.4655 0.0218,-0.9918c0.1359,-0.3543 0.2803,-0.7381 0.4047,-1.1162c0.3211,-0.9833 0.3363,-1.8506 0.2879,-2.8671c-0.0485,-1.0222 0.0294,-2.1689 -0.4047,-3.078c-0.399,-0.8284 -0.4902,-1.4839 -0.7515,-2.3997c-0.4284,0.3087 -0.6403,0.702 -1.2578,0.6498c-0.4655,-0.039 -1.0934,-0.475 -1.4696,-0.7686c-0.4769,-0.3733 -0.8569,-0.7562 -1.2958,-1.1932c-0.533,-0.5339 -0.8997,-0.6469 -1.0042,-1.4079c-0.1054,-0.7505 -0.2964,-1.7708 -0.0931,-2.5032c0.115,-0.4 0.2575,-0.7458 0.343,-1.1676c0.1111,-0.5339 0.2726,-0.5928 0.8056,-0.7543c0.8056,-0.2432 1.7204,-0.0817 2.3341,0.4674c0.342,0.3031 0.4807,0.8256 0.7999,1.1514c0.3743,0.3819 0.475,0.6945 1.1315,0.5862c-0.0266,-0.4665 0.1444,-0.9358 0.0589,-1.4117c-0.0751,-0.4133 -0.3268,-0.8408 -0.4551,-1.2455c-0.1985,-0.6137 -0.6175,-0.8787 -0.9519,-1.4079c-0.2641,-0.4161 -0.5177,-0.5975 -0.7277,-1.0184c-0.2631,-0.5234 -0.284,-1.1561 -0.4674,-1.728c-0.1434,-0.4427 -0.0598,-0.8113 0.0627,-1.2569c0.2727,-0.9823 1.0811,-1.6349 1.92,-2.3531c0.2185,-0.3164 0.5709,-0.4171 0.9015,-0.6698c1.6027,-1.2283 3.2842,-1.9712 5.3029,-2.2752c1.7271,-0.2603 3.782,-0.2898 5.4663,0.3429c0.1891,-0.3344 0.2888,-1.1257 0.6137,-1.1865c0.2774,-0.0532 1.1486,0.3733 1.406,0.4389" fill="#a16235"/><path d="M250.6768,141.0234c-0.626,-0.2983 -1.2397,-0.6621 -2.071,-1.0383c-0.4674,-0.2138 -1.1428,-0.5121 -1.4658,-0.038c-0.191,0.2831 -0.3743,0.4997 -0.495,0.8094c-0.6678,-0.0979 -1.4098,-0.2385 -2.0814,-0.3268c-0.7258,-0.096 -1.9057,-0.0922 -2.5774,-0.0181c-1.9836,0.2166 -3.5511,0.8816 -5.2972,1.8905c-0.7761,0.4475 -1.4231,0.7885 -2.0225,1.4298c-0.514,0.55 -1.0963,1.0165 -1.4155,1.7043c-0.5672,1.2264 0.0171,2.6885 0.7666,3.7857c0.7648,1.1172 1.8848,2.148 1.5884,3.6262c-0.0313,0.1643 -0.0978,0.9538 -0.1909,1.0488c-0.2375,0.2394 -0.6061,-0.1349 -0.7733,-0.3249c-0.3895,-0.4437 -0.5976,-1.0688 -1.0783,-1.4583c-0.228,-0.1852 -0.6441,-0.455 -0.9167,-0.5519c-0.3278,-0.115 -0.551,0.1216 -0.8161,-0.0437c-0.4892,-0.304 -1.2777,-1.4944 -1.4696,-1.976c-0.2926,-0.7249 -0.3686,-1.3623 -0.5577,-2.1299c-0.1786,-0.7211 -0.323,-1.388 -0.4047,-2.148c-0.0874,-0.8398 -0.1149,-1.4791 0,-2.3541c0.0504,-0.3762 0.1264,-0.968 0.2185,-1.3366c0.0988,-0.3914 0.1834,-0.7106 0.3021,-1.0783c0.2575,-0.7951 0.6698,-1.767 1.1429,-2.4491c0.4303,-0.6194 0.9794,-1.368 1.501,-1.9c0.323,-0.3306 0.5956,-0.5358 0.9595,-0.8179c0.2907,-0.2261 0.6365,-0.4684 0.9329,-0.6859c0.5861,-0.4313 1.2454,-0.913 2.0263,-1.2046c1.7176,-0.6384 3.477,-0.8892 5.2972,-0.6175c0.7344,0.1102 1.5048,0.3515 2.204,0.6726c0.3933,0.1776 0.5995,0.3923 0.9092,0.6669c0.3714,0.3277 0.7809,0.3011 1.1875,0.5557c-0.0209,-0.0237 0.3201,0.1264 0.3011,0.0998c-0.019,-0.0162 0.8256,0.0218 0.2575,0.0959c0.7809,0.0713 1.0079,0.3544 1.6682,0.7287c0.6935,0.3952 1.3471,0.8426 1.8145,1.5143c0.3838,0.55 0.4826,1.1675 0.6792,1.7993c0.115,0.3724 0.133,0.5624 0.0998,0.9633c-0.019,0.208 0.0066,0.3923 -0.0542,0.5975c-0.0427,0.1416 -0.2802,0.4608 -0.1282,0.3677M233.8647,131.7115c-0.9643,0.3553 -1.9665,0.7182 -2.8776,1.2303c-0.9386,0.5263 -2.1223,1.254 -2.8424,2.0653c-1.1485,1.2958 -1.7641,2.4016 -2.3987,3.99c-0.362,0.9044 -0.6422,1.7062 -0.6422,2.7037c0,0.8455 0.0627,1.6292 0.1463,2.4633c0.1691,1.7262 0.6232,3.2053 1.5162,4.7225c0.2099,0.3553 0.3429,0.8654 0.5738,1.2065c0.3154,0.4683 0.7201,0.7571 1.0963,1.1894c0.5453,0.627 1.8221,1.0763 1.7404,1.8857c-0.0836,0.8028 -0.1539,1.6787 -0.0152,2.4605c0.0608,0.3449 0.2128,0.7534 0.3914,1.0469c0.1615,0.2632 0.6346,0.5444 0.5738,0.8246c0.6507,0.5577 1.2331,0.9918 1.9589,1.4127c0.8911,0.5168 1.405,0.3923 2.3379,-0.1701c-0.1301,0.9776 0.609,2.3484 0.798,3.2376c0.1739,0.8151 0.3895,1.8326 0.2632,2.6838c-0.1112,0.7514 -0.4712,1.8002 -1.3006,2.0273c-1.4934,0.4094 -1.2302,-3.2148 -1.4307,-4.2665c-0.5063,0.4788 -0.9547,1.0317 -1.3689,1.6074c-0.4304,0.6014 -0.9728,1.5447 -1.8801,1.4877c-0.7666,-0.0465 -0.4864,-0.7248 -0.5766,-1.329c-0.1264,-0.8474 0.0104,-1.6074 0.3391,-2.3959c-0.3876,0.3553 -0.7828,0.7305 -1.1295,1.1172c-0.2841,0.3163 -0.2936,0.6887 -0.5862,0.9851c-0.7068,0.7106 -1.9418,0.3278 -2.2762,-0.5415c-0.323,-0.836 -0.1909,-1.7945 -0.1149,-2.6087c0.0864,-0.9205 0.3648,-1.8971 0.1187,-2.7873c-0.3268,0.1881 -0.5738,0.8503 -0.8075,1.1552c-0.2546,0.3335 -0.3752,0.3781 -0.7628,0.589c-0.6736,0.3667 -0.8854,0.551 -1.445,0.0817c-0.9462,-0.7923 -0.9329,-3.9026 -0.3695,-5.0274c-0.2765,0.5301 -1.1913,1.3633 -1.7851,1.4611c-0.7362,0.1216 -1.3708,-0.6488 -1.5656,-1.2787c-0.228,-0.74 -0.0161,-1.5124 0.0922,-2.2277c0.1121,-0.7458 0,-1.5343 0.0712,-2.2952c-0.6289,0.5595 -1.1989,3.0419 -2.4833,2.3683c-0.6194,-0.3249 -0.5434,-1.4098 -0.4161,-1.9836c0.1653,-0.7562 0.2081,-1.2369 0.1805,-2.0026c-0.094,-2.4681 1.2531,-4.5676 2.3541,-6.7516c0.8294,-1.6464 1.6502,-3.5673 2.8538,-4.9809c0.6242,-0.7362 1.5647,-1.2625 2.3142,-1.8724c0.8588,-0.704 1.7338,-1.255 2.7503,-1.7205c1.0336,-0.4712 2.147,-0.93 3.249,-1.2084c0.5586,-0.1415 1.2948,-0.4151 1.8563,-0.5177c0.4769,-0.0893 1.0317,0.1358 1.4525,-0.0333" fill="#371e10"/><path d="M244.764,133.7046c0.171,0.1131 0.8588,0.8218 0.7458,0.9652c-0.247,-0.1377 -0.3411,-0.4959 -0.6251,-0.626c-0.1853,-0.0827 -0.1758,-0.0409 -0.3468,-0.1606c-0.3382,-0.2384 -0.5415,-0.4683 -0.9148,-0.6175c-0.5995,-0.2403 -1.2597,-0.3923 -1.8725,-0.4826c-0.759,-0.1121 -1.6824,-0.1453 -2.4063,-0.057c-1.5827,0.191 -3.1635,0.7163 -4.6218,1.6511c-0.7467,0.4788 -1.3794,0.9861 -1.995,1.6017c-0.6365,0.6384 -1.2293,1.4497 -1.6938,2.1888c-0.4028,0.6394 -0.7572,1.5827 -1.0536,2.1622c-0.1871,0.3629 -0.1634,0.6622 -0.2764,1.0393c-0.1207,0.4047 -0.1796,0.7524 -0.2613,1.1742c-0.3249,1.6958 0.1596,3.2699 0.3914,4.9514c0.0618,0.4551 0.0779,1.0222 0.3705,1.4003c0.1311,0.1701 0.1311,0.4465 0.2195,0.6432c0.0874,0.1966 0.3429,0.3211 0.4227,0.532c0.134,0.3629 0.4237,0.9186 0.7258,1.1685c0.2822,0.2375 0.0466,-0.1273 0.2508,0.2755c-0.3714,0.1092 -0.7571,0.2061 -1.0374,0.5158c-0.1653,0.1872 -0.2432,0.8227 -0.4997,0.8788c-0.1757,0.038 -0.4322,-0.3496 -0.5861,-0.4655c-0.3354,-0.2518 -0.6375,-0.5406 -1.0089,-0.7847c-0.5624,-0.3715 -0.9576,-1.1438 -1.3205,-1.7205c-0.4066,-0.645 -0.7857,-1.3452 -1.1049,-2.0406c-0.322,-0.7001 -0.4674,-1.4525 -0.7267,-2.184c-0.2689,-0.7619 -0.2356,-1.293 -0.3401,-2.091c-0.096,-0.7039 -0.2109,-1.3328 -0.02,-2.0425c0.1843,-0.6754 0.1691,-1.3575 0.3743,-2.0425c0.114,-0.3762 0.3173,-0.7134 0.4332,-1.0963c0.1188,-0.3999 0.0703,-0.436 0.324,-0.8094c0.4341,-0.6412 0.6536,-1.3585 1.1856,-1.9608c0.3249,-0.3686 0.6384,-0.7125 1.0355,-1.0117c0.3192,-0.2413 0.6023,-0.4931 0.893,-0.7572c0.5282,-0.4778 1.2283,-0.8113 1.8924,-1.1333c1.4677,-0.7154 3.0077,-1.1391 4.5704,-1.4307c0.9985,-0.1862 2.2791,-0.267 3.2899,-0.1568c0.4104,0.0456 0.7467,0.1254 1.1675,0.1786c0.4294,0.0551 1.045,0.1634 1.4421,0.3553c0.7999,0.3886 1.6255,0.6897 2.338,1.3158c0.5139,0.4531 1.1485,0.8607 1.349,1.5988" fill="#bd5da4"/><path d="M243.8796,151.9465c0.6042,0.0751 0.8027,1.7585 0.2185,2.0758c-0.4769,0.2593 -1.1191,0.0817 -1.7328,-0.0808c-1.996,-0.5272 0.4455,-1.9959 1.31,-2.146M252.2719,150.5738c-0.343,0.0294 -0.6755,1.0222 -0.5919,1.3727c0.6451,0.2736 1.3177,0.6698 1.6502,-0.1634c0.1396,-0.3543 0.095,-1.1086 -0.1796,-1.3243c-0.3334,-0.2603 -0.2042,-0.3382 -0.6897,-0.2926" fill="#371e10"/><path d="M253.0338,149.9553c0.5785,-0.2517 1.5418,0.3658 1.3784,1.0213c-0.1168,0.4702 -0.9034,0.8958 -1.3509,1.1276c0.0409,-0.1862 0.3116,-0.3448 0.3781,-0.5529c0.0627,-0.1976 -0.0199,-0.3952 -0.056,-0.5747c-0.0428,-0.2176 -0.0741,-0.3582 -0.2337,-0.5168c-0.1074,-0.1055 -0.381,-0.2214 -0.3354,-0.3895c0.1055,-0.0428 0.2366,-0.0798 0.3297,-0.115M243.6753,151.7955c0.3097,-0.2461 0.8892,-0.2499 1.2635,-0.266c0.4009,-0.0181 0.7714,0.0646 1.1543,0.1054c0.6308,0.0684 1.6387,0.4931 1.2359,1.331c-0.3078,0.6403 -0.9965,0.8084 -1.6349,0.9348c-0.6365,0.1301 -1.2825,0.3458 -1.9276,0.2403c-0.076,-0.2489 0.3154,-0.3752 0.456,-0.5339c0.1672,-0.1843 0.2565,-0.4531 0.228,-0.7049c-0.0218,-0.1919 -0.1406,-0.5405 -0.2508,-0.7049c-0.1111,-0.1672 -0.3714,-0.2413 -0.4826,-0.4037" fill="#f5f6f6"/><path d="M236.0164,157.8717c-0.9927,3.1568 -4.3139,0.5918 -5.5195,-1.0802c-1.4326,-1.9845 -0.3581,-6.9103 2.6591,-5.0654c0.2185,0.1359 -0.1074,0.2242 -0.2451,0.1397c-1.7091,-1.046 -2.4159,0.8255 -2.679,1.9237c-0.2214,0.9244 0.018,1.8582 0.4398,2.6781c0.4294,0.8369 1.2037,1.462 1.957,1.9902c0.3895,0.2717 0.8056,0.495 1.254,0.6536c1.084,0.38 1.5067,-0.5624 1.7499,-1.3442c0.0494,-0.1511 0.4304,-0.0447 0.3838,0.1045zM231.7205,156.6671c-0.0503,0.1016 1.0593,1.1637 2.3266,0.7362c0.5662,-0.1387 1.1704,-0.2897 1.5589,-0.0978c0.3601,0.266 0.0836,0.6555 0.1463,0.626c-0.0703,0.0247 0.2527,-0.3372 -0.1206,-0.664c-0.4123,-0.2328 -1.0393,-0.1045 -1.6103,-0.0048c-1.2359,0.3107 -2.1099,-0.6897 -2.0615,-0.7533c-0.0703,-0.1254 -0.1871,-0.2024 -0.2612,-0.1739c-0.0722,0.0295 -0.0665,0.1777 0.0218,0.3316zM234.9505,154.9134c-0.1406,0.0399 -0.8388,-1.1201 -2.0244,-1.806c-0.6365,-0.2242 -1.3604,-0.1187 -1.7309,0.2147c-0.3648,0.3639 -0.2299,0.7505 -0.2689,0.7315c0.0371,0.02 -0.0665,-0.3743 0.2974,-0.6963c0.3657,-0.2964 1.0744,-0.3563 1.6454,-0.1159c1.045,0.6726 1.7366,1.9095 1.8886,1.8857c0.1358,0.1235 0.2821,0.1729 0.3306,0.1093c0.0465,-0.0656 -0.0143,-0.209 -0.1378,-0.323zM252.289,158.8226c-0.3392,0.1359 -0.627,0.381 -0.9424,0.5634c-0.2708,0.1548 -0.6517,0.1339 -0.9405,0.0513c-0.6584,-0.1891 -0.7667,-0.9082 -0.4142,-1.4203c0.0503,-0.0741 0.2964,0.0133 0.2356,0.1017c-0.3525,0.512 -0.1986,1.2264 0.5291,1.2283c0.5102,0.001 0.8816,-0.4712 1.33,-0.6517c0.0798,-0.0304 0.3116,0.0836 0.2024,0.1273zM252.6671,158.9547c0.9861,-0.0618 2.7882,-0.8987 1.5599,-2.0302c-0.4247,-0.3923 -1.026,-0.5329 -1.4611,-0.9243c-0.3658,-0.3278 -0.5396,-0.8978 -0.703,-1.3481c-0.0133,-0.0361 0.228,-0.0123 0.2508,0.0494c0.284,0.7857 0.5937,1.3766 1.3756,1.7879c0.5196,0.2727 1.0165,0.5206 1.1856,1.1201c0.284,1.0051 -1.3671,1.3984 -2.0397,1.4402c-0.0494,0.0028 -0.2907,-0.0874 -0.1681,-0.095zM254.4008,151.52c-0.2935,-0.4826 -0.1596,-1.2217 -0.1263,-1.7585c0.076,-1.2131 0.2185,-2.3189 -0.5434,-3.381c-0.1853,-0.2575 0.2964,-0.305 0.4208,-0.1311c0.609,0.8464 0.779,1.7632 0.7106,2.7958c-0.0484,0.6935 -0.3638,1.7965 0.02,2.4292c0.1444,0.2337 -0.3734,0.2213 -0.4817,0.0456zM254.8369,151.5095c0.2631,1.16 1.3024,2.0995 1.7499,3.2215c0.3752,0.9414 0.5643,1.9921 0.455,3.001c-0.304,2.813 -1.6292,5.1737 -2.6239,7.7672c-0.0684,0.1805 -0.4493,0.0741 -0.38,-0.1016c0.8911,-2.3237 2.0786,-4.4774 2.5194,-6.9578c0.2822,-1.5789 -0.0199,-2.9963 -0.6716,-4.4441c-0.4123,-0.913 -1.2075,-1.502 -1.4364,-2.5109c-0.0447,-0.1966 0.3467,-0.1539 0.3876,0.0247zM254.5737,165.0632c-0.6792,1.8743 -1.1058,3.1616 -3.2129,3.534c-2.3398,0.4113 -4.7405,-0.076 -6.9188,-0.931c-2.1708,-0.8512 -4.2361,-2.2943 -6.0639,-3.7278c-1.6083,-1.2597 -2.8737,-2.8785 -3.1302,-4.9486c-0.0276,-0.2014 0.3638,-0.1539 0.3857,0.0257c0.4579,3.6869 4.3918,5.9935 7.3587,7.6475c2.1023,1.1694 4.5324,1.8677 6.9464,1.7603c0.9519,-0.0427 1.919,-0.1187 2.7683,-0.5985c0.8911,-0.5044 1.1628,-1.9684 1.4867,-2.8614c0.0646,-0.1814 0.4446,-0.075 0.38,0.0998zM247.0858,168.5411c-0.1729,1.2037 -0.3952,2.5194 0.5472,3.4599c0.1283,0.1273 -0.3695,0.0789 -0.4655,-0.019c-0.9794,-0.9737 -0.7704,-2.3246 -0.5918,-3.5777c0.019,-0.1339 0.5329,-0.0209 0.5101,0.1368zM253.8166,146.8023c-0.8731,-3.382 -2.6971,-6.2102 -6.2966,-6.9806c-0.3154,-0.0675 -0.2318,-0.3563 0.0779,-0.2907c3.8019,0.8141 5.7978,3.7145 6.7307,7.3254c0.0542,0.2109 -0.4617,0.1378 -0.512,-0.0541zM251.5128,152.887c-0.8274,-1.0478 -0.2242,-3.5948 0.7534,-4.3823c0.0294,-0.0247 0.1463,0.0237 0.1187,0.0475c-0.9538,0.7685 -1.5589,3.3231 -0.7552,4.3377c0.0323,0.0399 -0.0941,0.0247 -0.1169,-0.0029zM235.9015,161.1311c-0.0057,-0.018 -0.0133,-0.0361 -0.019,-0.0551c-0.0741,-0.2014 0.3059,-0.1871 0.3638,-0.037c0.4826,1.2901 0.4731,2.7854 0.4142,4.1401c-0.0522,1.2141 -0.1814,2.7597 -1.0374,3.7069c-0.1111,0.1235 -0.4731,-0.0266 -0.3505,-0.1644c0.8939,-0.9908 0.9633,-2.6486 1.0165,-3.9083c0.0503,-1.2084 0.0218,-2.5897 -0.4066,-3.7382c-0.076,-0.2014 0.304,-0.1881 0.3619,-0.0371c0.0057,0.0181 0.0133,0.0361 0.02,0.0542c0.0769,0.2033 -0.3059,0.189 -0.3629,0.0389z" fill="#010101"/><path d="M249.4703,162.5362c-0.056,0.1387 -0.1035,0.2736 -0.0798,0.4256c0.02,0.1444 0.0428,0.2821 0.0447,0.4284c0.0019,0.0646 -0.2527,0.0219 -0.2546,-0.0684c-0.0019,-0.1548 -0.0352,-0.2992 -0.0523,-0.4531c-0.0152,-0.1406 0.0371,-0.2746 0.0893,-0.4019c0.0304,-0.0779 0.2803,0 0.2527,0.0694zM249.4703,162.8193c1.7385,0.228 3.6917,-0.0979 5.1015,-1.1885c0.0741,-0.0589 0.3116,0.0437 0.2356,0.1007c-1.4696,1.1381 -3.4912,1.4735 -5.3038,1.235c-0.1264,-0.0152 -0.21,-0.17 -0.0333,-0.1472zM254.5623,161.647c0.2261,-0.4551 0.3287,-0.97 -0.2821,-1.1571c-0.3373,-0.1036 -0.7714,-0.0532 -1.0944,0.0807c-0.7838,0.3259 -1.4051,0.8759 -2.0957,1.3557c-0.076,0.0532 -0.3097,-0.0561 -0.2005,-0.1311c0.8873,-0.6156 1.7461,-1.4716 2.888,-1.5105c0.931,-0.0323 1.4839,0.5386 1.0412,1.4307c-0.0484,0.0969 -0.2973,0.0171 -0.2565,-0.0684zM254.3989,161.8379c0.3952,0.0694 0.5938,0.552 0.7125,0.8911c0.228,0.6527 -0.4066,1.3177 -0.8588,1.6787c-1.2502,0.9975 -2.9792,0.7676 -4.0964,-0.2755c-0.0541,-0.0504 0.1853,-0.0209 0.2299,0.0199c1.1913,1.1125 2.7883,0.9491 3.9159,-0.0779c0.2917,-0.2622 0.4845,-0.6004 0.5719,-0.9766c0.0485,-0.2033 -0.1444,-1.1162 -0.4265,-1.1666c-0.0998,-0.019 -0.228,-0.1244 -0.0485,-0.0931z" fill="#010101"/><path d="M245.3511,151.6539c-0.8179,-0.0703 -1.6197,-0.1985 -2.394,-0.4873c-0.1672,-0.0618 -0.0114,-0.1188 0.095,-0.0798c0.7068,0.2631 1.445,0.38 2.1936,0.4446c0.0798,0.0066 0.2745,0.1368 0.1054,0.1225zM243.6696,151.8002c-0.5253,-0.0304 -1.026,-0.0646 -1.4915,-0.3287c-0.152,-0.0855 -0.0152,-0.1985 0.1055,-0.132c0.4284,0.2403 0.8816,0.2631 1.3585,0.2926c0.1377,0.0085 0.2023,0.1786 0.0275,0.1681zM242.9571,152.0225c-0.5329,0.1786 -1.1485,0.0352 -1.6349,-0.2128c-0.152,-0.0769 0.0779,-0.1035 0.1539,-0.0646c0.38,0.1929 0.8645,0.2974 1.2768,0.1596c0.075,-0.0237 0.3049,0.0846 0.2042,0.1178zM251.4872,151.8268c0.0256,-0.9414 0.5434,-1.7404 1.4924,-1.9446c0.6365,-0.1387 1.3994,0.1026 1.635,0.7524c0.0522,0.1396 -0.3344,0.0931 -0.3819,-0.0428c-0.2204,-0.6042 -0.9282,-0.5833 -1.4222,-0.3572c-0.6602,0.3012 -0.9224,1.0118 -0.9405,1.6958c-0.0047,0.133 -0.3866,0.0541 -0.3828,-0.1036zM251.7152,151.9769c1.158,0.5738 2.0824,-0.1871 2.7151,-1.0611c0.0218,-0.0304 0.1358,0.0218 0.1282,0.0342c-0.3971,0.5462 -0.9281,1.0421 -1.5656,1.2806c-0.4332,0.1615 -0.9642,-0.0475 -1.3499,-0.2385c-0.076,-0.037 0.0427,-0.0304 0.0722,-0.0152zM247.1884,152.5783c-0.0503,-1.0013 -1.9703,-0.912 -2.6343,-0.8607c-1.3585,0.1054 -2.4643,1.0089 -3.5473,1.7347c-0.1463,0.0978 -0.4769,-0.1026 -0.2936,-0.2252c1.388,-0.9291 2.642,-1.8154 4.37,-1.8183c0.8018,-0.0009 2.4377,0.1131 2.4938,1.197c0.0104,0.2024 -0.3781,0.1501 -0.3886,-0.0275zM247.5447,152.6258c-0.134,1.2017 -1.958,1.3946 -2.8985,1.52c-1.5732,0.2071 -2.4472,-0.1615 -3.8351,-0.7638c-0.1653,-0.0713 -0.0114,-0.1311 0.095,-0.0846c1.2521,0.5425 2.1432,0.8788 3.5815,0.7239c0.9148,-0.0988 2.6752,-0.3182 2.8034,-1.4639c0.0086,-0.0703 0.2641,-0.0162 0.2537,0.0684zM254.1842,149.3863c0.0627,0.3078 -0.1947,0.493 -0.4693,0.5377c-0.0608,0.0104 -0.1301,-0.0751 -0.0446,-0.0893c0.2356,-0.0399 0.4379,-0.2005 0.3857,-0.4598c-0.0133,-0.0589 0.1168,-0.0418 0.1282,0.0114zM254.7058,149.4756c0.1852,0.3667 -0.1577,0.5852 -0.475,0.6688c-0.0627,0.0171 -0.1378,0.0038 -0.1796,-0.0485c-0.037,-0.0418 -0.0256,-0.1054 0.0333,-0.1216c0.2261,-0.0589 0.5196,-0.1928 0.38,-0.4712c-0.0675,-0.1282 0.1909,-0.1263 0.2413,-0.0275zM253.6142,149.3863c0.0627,0.3078 -0.1947,0.4949 -0.4712,0.5405c-0.0608,0.0105 -0.1282,-0.0788 -0.0427,-0.0931c0.2356,-0.0399 0.4379,-0.1976 0.3838,-0.4569c-0.0105,-0.0637 0.1197,-0.0475 0.1301,0.0095zM243.6867,151.6824c0.456,0.2765 0.8294,0.6622 0.9187,1.2056c0.0969,0.5804 -0.3658,1.026 -0.8313,1.2711c-0.0912,0.0484 -0.3173,-0.077 -0.1966,-0.1397c1.0725,-0.5643 0.9091,-1.6463 -0.0561,-2.2306c-0.1482,-0.0902 0.0675,-0.1662 0.1653,-0.1064zM252.877,150.0921c0.8712,0.4256 0.8883,1.6749 0.0428,2.1442c-0.0969,0.0551 -0.3211,-0.0779 -0.1967,-0.1454c0.6859,-0.3809 0.8066,-1.4753 0.0409,-1.8487c-0.1539,-0.0769 -0.0152,-0.2128 0.113,-0.1501zM241.3431,153.2214c0.0057,0.0732 0.0256,0.1302 0.0627,0.1919c-0.0817,-0.0085 -0.1653,-0.0171 -0.247,-0.0247c0.019,-0.0465 0.0332,-0.095 0.0484,-0.1415c0.0295,-0.0969 0.2565,-0.0475 0.2565,0.0465c0,0.0399 0,0.0789 0,0.1188c-0.0874,-0.0086 -0.1729,-0.0162 -0.2574,-0.0247c0,-0.1102 0.0019,-0.2204 0.0256,-0.3306c0.019,-0.0998 0.247,-0.0418 0.2546,0.0465c0.0095,0.0988 0.0428,0.19 0.0722,0.285c-0.0855,-0.0161 -0.171,-0.0304 -0.2565,-0.0465c0.0504,-0.2337 0.1321,-0.4437 0.2708,-0.6375c0.0589,-0.0826 0.3002,0.0038 0.2356,0.1064c-0.1634,0.2575 -0.1834,0.5225 0.0114,0.7714c0.095,0.1226 -0.1188,0.1254 -0.1872,0.0789c-0.1729,-0.1159 -0.3657,-0.1843 -0.5215,-0.3278c-0.0428,-0.0399 -0.0219,-0.094 0.0294,-0.1092c0.0627,-0.0181 0.134,0.0057 0.1796,0.0494c0.1377,0.1263 0.323,0.1852 0.4769,0.2907c-0.0608,0.0266 -0.1245,0.0532 -0.1872,0.0788c-0.2375,-0.3059 -0.2413,-0.6146 -0.0351,-0.9395c0.0779,0.0351 0.1558,0.0712 0.2337,0.1064c-0.1321,0.1814 -0.2043,0.379 -0.2508,0.5985c-0.0238,0.1111 -0.2337,0.0313 -0.2565,-0.0466c-0.0276,-0.0969 -0.0608,-0.1862 -0.0703,-0.285c0.0836,0.0152 0.1691,0.0304 0.2546,0.0466c-0.019,0.0959 -0.0219,0.1909 -0.0219,0.2878c0,0.1226 -0.2565,0.076 -0.2565,-0.0247c0,-0.0399 0,-0.0788 0,-0.1187c0.0836,0.0171 0.1691,0.0313 0.2565,0.0475c-0.0171,0.0475 -0.0275,0.0959 -0.0484,0.1415c-0.0409,0.095 -0.2062,0.0456 -0.247,-0.0237c-0.0466,-0.0779 -0.0722,-0.1463 -0.0798,-0.2356c-0.0105,-0.1216 0.246,-0.0779 0.2546,0.0237z" fill="#010101"/><path d="M247.3718,149.1241c-1.1505,0.0057 -2.3047,-0.3354 -3.4514,-0.1957c-1.0611,0.1282 -2.0653,0.8797 -2.9611,1.405c-0.2432,0.1435 -1.0612,-0.2774 -0.9614,-0.3353c0.9946,-0.5843 1.9465,-1.178 3.0799,-1.445c1.1685,-0.2745 2.451,0.1891 3.6271,0.1824c0.1957,0.001 1.1533,0.3867 0.6669,0.3886zM251.8691,148.8201c0.265,-0.9823 1.3946,-1.4611 2.1584,-1.9941c0.1539,-0.1092 0.6175,0.1121 0.399,0.2651c-0.7144,0.4997 -1.8012,0.9471 -2.0492,1.8648c-0.0532,0.2033 -0.5614,0.0665 -0.5082,-0.1358z" fill="#010101"/><path d="M231.9286,158.9262c-0.6422,1.1343 -2.7921,6.2101 -4.6883,5.4036c-1.178,-0.5026 -1.1723,-2.4938 -1.2188,-3.5882c-0.0798,-1.8705 0.6574,-4.1287 1.3509,-5.8567c0.037,-0.0931 0.4094,0.0304 0.3819,0.1026c-1.0384,2.583 -1.6863,5.414 -1.0146,8.1567c0.57,2.3237 2.507,-0.4541 3.0542,-1.2721c0.6489,-0.9728 1.178,-2.0311 1.7518,-3.0466c0.0542,-0.096 0.4142,0.0465 0.3829,0.1007zM234.8194,150.7144c-0.7999,-1.4801 -2.0263,-2.4795 -1.8905,-4.3406c0.1359,-1.8525 1.6958,-2.9032 3.1132,-3.8788c3.1074,-2.1375 6.5426,-2.6999 10.1621,-1.8753c0.1558,0.0351 0.115,0.1757 -0.0389,0.1396c-3.6148,-0.8217 -6.8153,-0.152 -9.9228,1.8658c-1.5323,0.9956 -3.1027,2.1888 -3.0504,4.1705c0.0446,1.6701 1.1371,2.5641 1.8648,3.9083c0.0627,0.1112 -0.1928,0.0912 -0.2375,0.0105zM246.5348,140.8021c-0.3078,-0.0485 -0.494,-0.0589 -0.759,-0.2375c-1.0906,-0.7325 -2.3845,-1.197 -3.6518,-1.5267c-2.1242,-0.5538 -4.3273,-0.0427 -6.4258,0.381c-0.0608,0.0123 -0.2822,-0.0865 -0.2081,-0.1007c1.8478,-0.3734 3.7003,-0.7667 5.5908,-0.5615c0.7438,0.0808 1.4658,0.2936 2.1707,0.5254c0.4142,0.1368 0.8237,0.3011 1.2208,0.475c0.5662,0.2479 1.4288,0.855 2.0149,0.9471c0.1055,0.0152 0.2242,0.1273 0.0475,0.0979zM246.513,140.7185c0.2878,-0.647 0.7828,-1.1571 1.0649,-1.8079c0.7182,-1.652 -1.6017,-2.2819 -2.6885,-2.5963c-2.3902,-0.6916 -4.3396,-1.0526 -6.8229,-0.5871c-0.0874,0.018 -0.3021,-0.1178 -0.1539,-0.1444c1.2417,-0.2328 2.4567,-0.399 3.7183,-0.2432c1.3215,0.1643 2.6182,0.6355 3.8912,1.0117c0.8607,0.2546 1.6844,0.5919 2.2135,1.3443c0.7439,1.0573 -0.5785,2.222 -0.969,3.0922c-0.0408,0.0931 -0.2907,0.0162 -0.2536,-0.0693zM250.426,141.0291c1.008,-2.2106 -0.5339,-4.4127 -2.5232,-5.3637c-2.0596,-0.987 -4.0432,-1.348 -6.3127,-1.1808c-0.2594,0.0199 -0.5159,-0.3601 -0.1729,-0.3857c2.6771,-0.1976 5.0863,0.3106 7.4442,1.6216c1.842,1.0241 2.9706,3.4761 2.0729,5.4473c-0.1074,0.2318 -0.6128,0.0855 -0.5083,-0.1387zM235.0569,150.7125c0.7904,0.8768 0.6641,2.166 0.6565,3.2623c0,0.0275 -0.0589,0.0275 -0.076,0.0275c-1.3899,-0.0123 -1.4383,-1.842 -2.585,-2.2087c-0.1482,-0.0466 -0.1244,-0.1501 0.0257,-0.1007c0.7885,0.2508 1.1286,1.0535 1.5998,1.6672c0.1406,0.1824 0.7771,0.7667 0.7847,0.2423c0.0038,-0.2831 0.0057,-0.5681 0,-0.8512c-0.0171,-0.7306 -0.134,-1.4858 -0.6403,-2.0454c-0.0637,-0.0712 0.1881,-0.0456 0.2346,0.0067zM234.1791,131.6365c-3.5834,0.3163 -7.0176,1.7613 -9.9075,3.8779c-2.7588,2.0206 -4.3434,5.0302 -5.5661,8.1396c-0.6678,1.6986 -1.1675,3.4485 -1.4383,5.2525c-0.1149,0.7638 -0.1463,1.5352 -0.1795,2.3057c-0.0228,0.5339 -0.1596,1.8449 0.8103,1.3395c1.1058,-0.5748 1.5096,-2.5375 1.882,-3.6062c0.5139,-1.4659 1.1694,-3.0011 2.1432,-4.2171c0.0988,-0.1216 0.5434,0.0922 0.5101,0.1368c-1.1837,1.4811 -1.8411,3.3554 -2.4605,5.1281c-0.3154,0.9073 -0.9462,2.945 -2.2078,2.9754c-0.607,0.0143 -1.0583,-0.2375 -1.1447,-0.8949c-0.2318,-1.8078 0.1463,-3.7658 0.5785,-5.5147c0.9519,-3.8409 2.7351,-7.733 5.6668,-10.4529c2.8965,-2.6847 7.0832,-4.3282 10.982,-4.673c0.1073,-0.0124 0.5842,0.1805 0.3315,0.2033zM227.7752,155.2744c-0.5985,1.3879 -2.1033,5.7209 -4.2731,4.7443c-1.1913,-0.5368 -1.0707,-2.9574 -1.0042,-3.9748c0.1207,-1.7784 0.856,-3.3507 2.0786,-4.5885c0.1074,-0.1083 0.4712,0.0399 0.3525,0.1586c-1.9124,1.9342 -2.4795,4.77 -1.7585,7.3844c0.5919,2.147 2.6572,-0.6707 3.2044,-1.4573c0.4712,-0.6793 0.6935,-1.6207 1.0184,-2.3712c0.0665,-0.1492 0.4427,-0.0352 0.3819,0.1045zM221.3931,146.5249c-0.817,1.5637 -1.216,3.6537 -1.5238,5.3722c-0.1729,0.9766 -0.2271,1.9836 -0.0561,2.9631c0.1321,0.7495 0.7315,2.0311 2.0359,0.7847c0.2916,-0.2793 0.4997,-0.665 0.7258,-0.9985c0.0902,-0.1368 0.4541,0.0057 0.3467,0.1644c-0.4246,0.6346 -1.0345,1.6948 -1.9589,1.6197c-0.7828,-0.0617 -1.2711,-0.551 -1.4639,-1.3233c-0.3857,-1.559 -0.0741,-3.2091 0.2897,-4.7424c0.3135,-1.3281 0.6213,-2.793 1.2559,-4.0062c0.0741,-0.1415 0.4399,-0.0057 0.3487,0.1663zM234.6855,160.4851c-0.6717,1.5219 -1.4545,2.9906 -2.4833,4.3026c-0.4456,0.5652 -1.1657,1.1029 -1.9019,0.7875c-0.6869,-0.2935 -0.4437,-1.4335 -0.4456,-2.0026c-0.0076,-0.9775 0.4152,-1.9104 0.7515,-2.8082c0.0551,-0.1425 0.4322,-0.0304 0.38,0.1017c-0.5121,1.3651 -0.7923,2.4814 -0.7629,3.9282c0.0323,1.7281 1.8896,-0.5006 2.1679,-0.8911c0.7733,-1.0887 1.3747,-2.3009 1.9114,-3.5216c0.0646,-0.1397 0.4389,-0.0228 0.3829,0.1035zM234.0309,161.9928c-0.2185,1.0839 -0.189,2.2458 0.0646,3.324c0.0998,0.4285 0.2689,0.8892 0.6033,1.1894c0.5215,0.4684 1.3528,-0.7856 1.5608,-1.0849c0.0646,-0.0931 0.4323,0.0295 0.3563,0.1425c-0.5843,0.837 -1.6198,1.8164 -2.4681,0.7144c-0.8408,-1.0953 -0.7515,-3.1283 -0.4988,-4.389c0.0219,-0.113 0.4057,-0.019 0.3819,0.1036z" fill="#010101"/><path d="M245.1839,134.5967c-1.4449,-2.0292 -4.7671,-2.0986 -7.0015,-1.6331c-2.6761,0.5596 -5.0578,2.4292 -6.65,4.5914c-1.3946,1.8981 -1.9313,4.3111 -1.9598,6.63c-0.0295,2.3 0.6137,5.6012 2.4196,7.2276c0.0561,0.0494 -0.1833,0.0219 -0.2299,-0.019c-2.051,-1.8458 -2.5346,-5.4682 -2.4215,-8.0693c0.1377,-3.1397 1.5684,-5.9042 3.8931,-7.9724c1.9256,-1.7147 4.4792,-2.7863 7.0708,-2.6999c1.8297,0.0589 3.9929,0.3886 5.13,1.9884c0.0181,0.0256 -0.2061,0.0171 -0.2508,-0.0437zM245.3977,134.4893c-2.1043,-2.8481 -5.5537,-3.4276 -8.8825,-3.1511c-3.5017,0.2926 -6.5113,1.5979 -8.8341,4.3168c-4.294,5.034 -2.6866,13.1252 2.3655,16.985c0.1368,0.1036 -0.0741,0.1625 -0.1634,0.0941c-5.7779,-4.4137 -6.6557,-13.2829 -1.2967,-18.3863c4.1838,-3.9824 13.2905,-4.9647 17.0477,0.1254c0.0789,0.1016 -0.1814,0.0921 -0.2365,0.0161z" fill="#010101"/></g></g></svg>