<svg version="1.1" xmlns="http://www.w3.org/2000/svg" xmlns:xlink="http://www.w3.org/1999/xlink" width="41.24346" height="66.32137" viewBox="0,0,41.24346,66.32137"><g transform="translate(-215.80237,-108.51732)"><g data-paper-data="{&quot;isPaintingLayer&quot;:true}" fill-rule="nonzero" stroke-linejoin="miter" stroke-miterlimit="10" stroke-dasharray="" stroke-dashoffset="0" style="mix-blend-mode: normal"><path d="M256.45038,134.21732c0,14.3 -9,26 -20.1,26c-6.9,0 -11.6,-2.2 -11.6,-2.2c0,0 -6.3,-9.3 -8.3,-17.1c-0.9,-3.5 -0.6,-6.2 -0.6,-9.9c0,-14.3 8,-18.9 19.2,-18.9c0,0 17,-1.9 20.9,6.6c1.7,3.8 0.5,1.2 0.5,15.5z" fill="#0a0500" stroke="none" stroke-width="1" stroke-linecap="butt"/><g fill="#9b6a2d" stroke="none" stroke-width="1" stroke-linecap="butt"><path d="M228.45038,154.31732l15.2,3.4l-0.1,9.1c0,0 4.9,0.9 4.8,3.7c-0.1,4.5 -18.9,6.9 -22.8,0c-1.5,-3.4 2,-4.6 2,-4.6z" data-paper-data="{&quot;origPos&quot;:null}"/><path d="M223.85038,143.21732c0.8,2.4 0.3,4.7 -1,5.1c-1.4,0.5 -3.2,-1 -4,-3.4c-0.8,-2.4 -0.3,-4.7 1,-5.1c1.4,-0.5 3.2,1.1 4,3.4z" data-paper-data="{&quot;origPos&quot;:null}"/><path d="M255.35038,141.01732c0,12.8 -7.9,19.6 -14.7,19.9c-11.8,0.2 -19.4,-9.5 -19.4,-22.3c0,-12.8 2.2,-22.4 17.2,-23.1c11.4,-0.6 18.8488,11.5 16.8488,25.2z" data-paper-data="{&quot;origPos&quot;:null}"/></g><path d="M243.75038,153.71732c0,0.7 -2,2.2 -3.7,2.2c-1.8,0 -3.5,-1.9 -3.5,-2.7c0,-0.8 2.2,0 4,0c1.7,0.1 3.2,-0.2 3.2,0.5z" fill="#000000" stroke="none" stroke-width="1" stroke-linecap="butt"/><path d="M241.95038,140.41732c0,0 2.3,4.1 2.2,5.6c0,0.7 -3.4,2.1 -3.4,2.1" fill="none" stroke="#000000" stroke-width="1.46" stroke-linecap="round"/><g><path d="M229.65038,134.51732c0,0 2.9,-0.8 4.4,-0.8c1.7,-0.1 3.7,0.8 3.7,0.8" fill="none" stroke="#000000" stroke-width="1.46" stroke-linecap="round"/><g><path d="M229.55038,137.71732c0,0 2.2,-0.8 4.5,-0.6c2.5,0.2 2.9,1.5 2.9,1.5" fill="none" stroke="#000000" stroke-width="1.46" stroke-linecap="round"/><path d="M232.85038,139.61732c0,-1.2 0.9,-2.2 2.1,-2.2c1.2,0 2.1,1 2.1,2.2c0,1.2 -0.9,2.2 -2.1,2.2c-1.1,0 -2.1,-1 -2.1,-2.2z" fill="#000000" stroke="none" stroke-width="1" stroke-linecap="butt"/></g></g><g><path d="M245.05038,134.41732c0,0 2.3,-0.8 4,-0.8c1.5,0.1 3.2,0.5 3.2,0.5" fill="none" stroke="#000000" stroke-width="1.46" stroke-linecap="round"/><g><path d="M245.05038,138.51732c0,0 0.5,-1.3 2.9,-1.5c2.3,-0.2 3.8,0.5 3.8,0.5" fill="none" stroke="#000000" stroke-width="1.46" stroke-linecap="round"/><path d="M249.95038,141.51732c-1.2,0 -2.1,-1 -2.1,-2.2c0,-1.2 0.9,-2.2 2.1,-2.2c1.2,0 2.1,1 2.1,2.2c0,1.2 -0.9,2.2 -2.1,2.2z" fill="#000000" stroke="none" stroke-width="1" stroke-linecap="butt"/></g></g><g fill="#0a0500" stroke="none" stroke-width="1" stroke-linecap="butt"><path d="M254.95038,127.41732c-1.7,1.1 -6.8,-1.5 -8.9,-1.5c-3.7,0 -14.2,0.4 -17.9,-0.1c-4.1,-0.6 -5.1,-2.3 -5.1,-6.5c0,-3.9 6.1,-10.8 15,-10.8c8.9,0 13,5.1 17.2,7.3c0,0 2.5,6.2 1.6,8.4z"/><path d="M222.85038,118.21732c7.3,0 4,3.1 4,9c0,5.9 -4.4,12.6 -6.1,12.6c-1.7,0 -3,-4.8 -3,-10.7c0,-6 3.4,-10.9 5.1,-10.9z"/></g></g></g></svg>