<svg version="1.1" xmlns="http://www.w3.org/2000/svg" xmlns:xlink="http://www.w3.org/1999/xlink" width="22.92605" height="25.60921" viewBox="0,0,22.92605,25.60921"><g transform="translate(-234.18515,-136.25038)"><g data-paper-data="{&quot;isPaintingLayer&quot;:true}" fill-rule="nonzero" stroke="none" stroke-width="1" stroke-linecap="butt" stroke-linejoin="miter" stroke-miterlimit="10" stroke-dasharray="" stroke-dashoffset="0" style="mix-blend-mode: normal"><path d="M252.755,148.599c0,0 0.61,-2.05 3.05,-0.961c2.441,1.089 0.823,3.511 0.229,4.419c-0.73,1.117 -2.125,1.473 -3.496,1.853c0.185,-2.094 0.217,-5.311 0.217,-5.311" fill="#a0783c"/><path d="M238.758,153.788c-1.371,-0.38 -2.767,-0.736 -3.497,-1.853c-0.593,-0.909 -2.21,-3.33 0.23,-4.419c2.44,-1.089 3.049,0.961 3.049,0.961c0,0 0.033,3.217 0.218,5.311" fill="#a0783c"/><path d="M253.333,146.582c0.297,2.378 0.392,8.476 -0.345,9.887c-0.756,1.444 -0.771,4.134 -3.503,5.022c-2.732,0.888 -7.279,0.303 -9.665,-3.209c-1.127,-1.66 -1.517,-3.245 -1.737,-5.216c-0.16,-1.438 -0.252,-6.243 -0.375,-6.529c0.031,-2.539 0.714,-4.802 2.104,-6.239c0.548,-0.567 3.268,-1.877 5.665,-1.729c3.294,0.204 6.413,2.028 6.413,2.028c0,0 1.032,2.684 1.443,5.985" fill="#be965a"/><path d="M252.55542,153.22729c0.14042,0 -0.07213,3.40917 -1.58975,5.54875c-1.34622,1.89794 -2.52283,2.59232 -4.63351,2.58141c-2.11069,-0.01091 -3.47512,-0.68716 -4.96611,-2.63105c-1.60619,-2.09408 -1.91822,-5.42858 -1.92063,-5.46054" fill="#000000"/><path d="M247.203,150.839c0.187,0.52 0.094,1.427 -0.354,1.637c-1.27,0.598 -2.038,-0.215 -2.207,-0.487c-0.68,-1.101 -0.013,-3.499 1.159,-4.149c0.583,0.772 1.103,2.166 1.402,2.999" fill="#a0783c"/><path d="M250.682,148.006c0.219,0.707 0.259,1.247 -0.238,1.75c-0.814,-0.4 -0.543,-1.073 -0.559,-1.75z" fill="#000000"/><path d="M241.328,149.879c-0.567,-0.165 -0.567,-0.165 -0.836,-0.765c0.107,-0.176 0.228,-0.379 0.367,-0.609c0.199,0.038 0.363,0.069 0.533,0.102c0.215,0.436 0.255,0.824 -0.064,1.272" fill="#000000"/><path d="M251.89,140.597c0,0 -2.322,3.511 -7.03,4.972c-4.708,1.46 -7.136,2.541 -7.136,2.541c-0.329,-2.541 -1.441,-7.785 3.739,-11.002c0.706,-0.438 3.474,-1.439 6.368,-0.405c2.322,0.829 4.059,3.894 4.059,3.894" fill="#000000"/><path d="M251.89,140.597c-2.107,7.043 -9.743,7.621 -9.743,7.621l2.821,-3.625z" fill="#000000"/><path d="M251.89,140.597c2.075,2.777 1.547,8.058 1.547,8.058l-4.47,-5.751z" fill="#000000"/></g></g></svg>