<svg version="1.1" xmlns="http://www.w3.org/2000/svg" xmlns:xlink="http://www.w3.org/1999/xlink" width="31.69459" height="31.83709" viewBox="0,0,31.69459,31.83709"><g transform="translate(-225.18744,-192.9073)"><g data-paper-data="{&quot;isPaintingLayer&quot;:true}" fill-rule="nonzero" stroke-miterlimit="10" stroke-dasharray="" stroke-dashoffset="0" style="mix-blend-mode: normal"><path d="M235.2053,203.51409v0v0v0v0v0c-0.2476,1.8356 -1.282,5.2116 -2.0058,6.0866c0,0 -2.987,3.2949 -5.1061,2.112c-0.9057,-0.5051 -1.3081,-1.3891 -1.3261,-2.5495c-0.3952,-0.1324 -0.9426,-0.4033 -1.1865,-0.9867c-0.406,-0.9669 1.6582,-1.7069 1.6582,-1.7069v0.0189c0.0982,-0.3024 0.2017,-0.604 0.325,-0.9227c0.7031,-1.8005 2.2506,-4.2447 3.0329,-5.6094c0,0 0.6464,-1.2036 2.2407,-1.1712c1.6961,0.0342 2.6153,2.8933 2.3677,4.7289z" fill="#be1e2d" stroke="#231f20" stroke-width="0.78673" stroke-linecap="round" stroke-linejoin="round"/><path d="M249.0177,208.72299c-1.3891,-1.5908 -2.2425,-6.2027 -2.4423,-7.1453c-0.199,-0.9425 0.3475,-3.0761 1.5997,-3.5073c1.2522,-0.4322 2.4757,0.7886 2.4757,0.7886c0.9128,1.2801 2.6944,3.5622 3.5748,5.2808c0.1531,0.3052 0.2854,0.5978 0.415,0.8858l-0.0018,-0.018c0,0 2.1273,0.5348 1.8194,1.5359c-0.1863,0.6058 -0.7004,0.9281 -1.083,1.0983c0.0946,1.1568 -0.2133,2.0804 -1.0676,2.6692c-1.9896,1.3927 -5.2899,-1.588 -5.2899,-1.588v0v0v0v0v0z" fill="#be1e2d" stroke="#231f20" stroke-width="0.78673" stroke-linecap="round" stroke-linejoin="round"/><path d="M244.8784,210.10749c1.5583,-0.4528 3.4713,0 3.4713,0c0,0 0.8472,5.1476 1.1064,7.0102c0.2602,1.8653 1.2253,4.7821 1.2253,4.7821c0,0 0.487,0.2917 0.3502,1.0533c-0.1405,0.7598 -1.8131,0.9074 -3.9107,1.3063c-2.094,0.3943 -3.8062,0.0567 -4.1357,-0.6923c-0.3322,-0.7454 0.2872,-1.0929 0.2872,-1.0929c0,0 0.9758,-6.1478 0.0873,-8.2634c0.0045,0.0045 -0.4681,-3.5262 1.5187,-4.1033v0v0v0v0v0z" fill="#be1e2d" stroke="#231f20" stroke-width="0.90025" stroke-linecap="round" stroke-linejoin="round"/><path d="M238.1617,210.68459v0v0v0v0v0c2.8087,1.2882 3.1076,3.8701 3.1085,3.8728c-0.5563,2.22 1.2235,7.3775 1.2235,7.3775c0,0 0.6661,0.2449 0.4573,1.0326c-0.2125,0.7895 -1.8482,1.3891 -3.9827,1.3216c-2.1309,-0.0694 -3.8053,0.0432 -4.0619,-0.6887c-0.2566,-0.7319 0.181,-1.0938 0.181,-1.0938c0,0 0.0495,-1.7618 0.0162,-3.6451c-0.0352,-1.8779 -0.343,-7.0327 -0.343,-7.0327c0,0 1.561,-1.9886 3.4011,-1.1442z" fill="#be1e2d" stroke="#231f20" stroke-width="0.90025" stroke-linecap="round" stroke-linejoin="round"/><g stroke-width="0.90025"><path d="M248.9952,203.50329v0v0v0v0v0c0.415,2.8016 -0.2521,7.9609 -3.4623,9.7722c-3.1752,1.7879 -6.543,1.5484 -10.0341,-0.8336c-2.8925,-1.9743 -2.8232,-7.6206 -2.5207,-10.7796v0c0,0 0.0198,-7.3081 6.1703,-8.2084c6.1486,-0.9002 9.0042,4.7074 9.4795,8.2057c0.1495,0.6158 0.2773,1.2442 0.3673,1.8437z" fill="#be1e2d" stroke="#000000" stroke-linecap="butt" stroke-linejoin="miter"/><path d="M247.2992,211.53169v0v0v0v0v0l-0.0153,0.1431c-0.4718,0.6518 -1.0515,1.2046 -1.7501,1.5989c-2.9411,1.6564 -6.0461,1.5736 -9.2626,-0.3412l-0.0333,-0.144c0,0 -1.7033,-9.2942 4.2221,-9.7092c6.7284,-0.4681 6.8815,6.8977 6.8392,8.4524z" fill="#e6e7e8" stroke="#231f20" stroke-linecap="round" stroke-linejoin="round"/></g></g></g></svg>