<svg version="1.1" xmlns="http://www.w3.org/2000/svg" xmlns:xlink="http://www.w3.org/1999/xlink" width="779.86061" height="640.25" viewBox="0,0,779.86061,640.25"><defs><linearGradient x1="260.25" y1="288" x2="260.25" y2="604" gradientUnits="userSpaceOnUse" id="color-1"><stop offset="0" stop-color="#451032"/><stop offset="1" stop-color="#000000"/></linearGradient><linearGradient x1="260.25" y1="272" x2="260.25" y2="588" gradientUnits="userSpaceOnUse" id="color-2"><stop offset="0" stop-color="#451032"/><stop offset="1" stop-color="#000000"/></linearGradient><linearGradient x1="260.25" y1="272" x2="260.25" y2="588" gradientUnits="userSpaceOnUse" id="color-3"><stop offset="0" stop-color="#451032"/><stop offset="1" stop-color="#000000"/></linearGradient><linearGradient x1="483.25" y1="165" x2="483.25" y2="411" gradientUnits="userSpaceOnUse" id="color-4"><stop offset="0" stop-color="#7b1d59"/><stop offset="1" stop-color="#000000"/></linearGradient><linearGradient x1="5.25" y1="165" x2="5.25" y2="411" gradientUnits="userSpaceOnUse" id="color-5"><stop offset="0" stop-color="#7b1d59"/><stop offset="1" stop-color="#000000"/></linearGradient><linearGradient x1="244.5" y1="294" x2="244.5" y2="412" gradientUnits="userSpaceOnUse" id="color-6"><stop offset="0" stop-color="#202020"/><stop offset="1" stop-color="#211111"/></linearGradient><linearGradient x1="-21.60625" y1="295.9" x2="10.40625" y2="295.9" gradientUnits="userSpaceOnUse" id="color-7"><stop offset="0" stop-color="#ffd49b"/><stop offset="1" stop-color="#e0aa63"/></linearGradient><linearGradient x1="53.23334" y1="10.8" x2="53.23334" y2="63" gradientUnits="userSpaceOnUse" id="color-8"><stop offset="0" stop-color="#ffd49b"/><stop offset="1" stop-color="#e0aa63"/></linearGradient><linearGradient x1="40.2" y1="76.6" x2="40.2" y2="150.6" gradientUnits="userSpaceOnUse" id="color-9"><stop offset="0" stop-color="#ffd49b"/><stop offset="1" stop-color="#e0aa63"/></linearGradient></defs><g transform="translate(116,227)"><g data-paper-data="{&quot;isPaintingLayer&quot;:true}" fill-rule="nonzero" stroke-linejoin="miter" stroke-miterlimit="10" stroke-dasharray="" stroke-dashoffset="0" style="mix-blend-mode: normal"><path d="M122.54263,276.93752c-23.19596,0 -18,38.26296 -18,17c0,-19.148 -9.75067,-216.03114 10.22286,-219.00139c2.20614,-0.32807 62.46992,-3.49861 64.77714,-3.49861c16.3941,0 205.59436,7.6102 212.51271,20.16652c2.8704,5.20958 -246.31675,185.33348 -269.51271,185.33348z" fill-opacity="0.1209" fill="#ffffff" stroke="none" stroke-width="0" stroke-linecap="butt"/><path d="M358.25,289.5v-12h15.5v12z" fill="#2b2b2b" stroke="none" stroke-width="0" stroke-linecap="butt"/><path d="M118.25,289.5v-12h15.5v12z" fill="#2b2b2b" stroke="none" stroke-width="0" stroke-linecap="butt"/><path d="M208.25,291.5v-14.5h72.5v14.5z" fill="#2b2b2b" stroke="none" stroke-width="0" stroke-linecap="butt"/><path d="M53.5,293c0,-3.08796 -2.75,-7.75 -2.75,-7.75h413.5c0,0 2.75,4.86976 2.75,8.25c0,0.08706 -413.5,-0.45283 -413.5,-0.5z" fill="url(#color-1)" stroke="none" stroke-width="0" stroke-linecap="butt"/><path d="M53.5,286h413.5z" fill="url(#color-2)" stroke="none" stroke-width="0" stroke-linecap="butt"/><path d="M368,410.5v-464h231.5v464z" fill="#7b1d59" stroke="none" stroke-width="0" stroke-linecap="butt"/><path d="M-116,411v-464h242.5v464z" fill="#7b1d59" stroke="none" stroke-width="0" stroke-linecap="butt"/><path d="M98,322v-284h284v284z" fill-opacity="0.00736" fill="#ff0000" stroke="none" stroke-width="0" stroke-linecap="butt"/><path d="M53.5,281.5c0,-3.08796 0,-9.5 0,-9.5h413.5c0,0 0,6.61976 0,10c0,0.08426 -413.5,-0.49848 -413.5,-0.5z" fill="url(#color-3)" stroke="none" stroke-width="0" stroke-linecap="butt"/><path d="M367.5,411v-246h231.5v246z" fill="url(#color-4)" stroke="none" stroke-width="0" stroke-linecap="butt"/><path d="M-116,411v-246h242.5v246z" fill="url(#color-5)" stroke="none" stroke-width="0" stroke-linecap="butt"/><path d="M-72.5,412v-118c0,0 165.28341,0 259.75,0c113.39173,0 374.25,0 374.25,0v118z" fill="url(#color-6)" stroke="#000000" stroke-width="2.5" stroke-linecap="butt"/><path d="M31.5,89v-316h413.5v316z" fill="#7b1d59" stroke="none" stroke-width="0" stroke-linecap="butt"/><path d="M125.5,272v-184h242v184z" fill="none" stroke="#000000" stroke-width="2.5" stroke-linecap="butt"/><path d="M652.54263,-64.56248c0,82.29043 47.31634,267 -51.54263,267c-48.13565,0 -106.09752,-99.73077 -215.50111,-145.89632c-115.28491,-48.64732 -280.95625,-44.88148 -280.95625,-87.10368c0,-82.29043 270.14103,-183 369,-183c98.85897,0 179,66.70957 179,149z" fill="#892163" stroke="none" stroke-width="0" stroke-linecap="butt"/><g stroke-linecap="butt"><path d="M10.40625,308.2125h-32.0125v-24.625h32.0125z" fill="url(#color-7)" stroke="#000000" stroke-width="2"/><text transform="translate(-14.49375,306.7589) rotate(-90) scale(0.08541,0.08541)" font-size="40" xml:space="preserve" fill="#000000" fill-rule="nonzero" stroke="none" stroke-width="1" stroke-linecap="butt" stroke-linejoin="miter" stroke-miterlimit="10" stroke-dasharray="" stroke-dashoffset="0" font-family="Sans Serif" font-weight="normal" text-anchor="start" style="mix-blend-mode: normal"><tspan x="0" dy="0">something is</tspan><tspan x="0" dy="46.15px">wrong with</tspan><tspan x="0" dy="46.15px">Scratchy</tspan><tspan x="0" dy="46.15px">The Milkman</tspan><tspan x="0" dy="46.15px">We beed to</tspan><tspan x="0" dy="46.15px">find out what</tspan></text></g><g stroke-linecap="butt"><path d="M21.33334,63l3.13828,-8.06143l-2.92729,-6.50231l5.51623,-10.22347l-4.44176,-8.48871l6.04788,-10.15399l-7.33334,-8.77008h63.8l-4.33333,5.43675l3.95689,8.99295l-3.56417,13.33833l6.21152,8.32709l-2.27091,16.10488c0,0 -10.24207,0 -17.45245,0c-11.75015,0 -46.34754,0 -46.34754,0z" fill="url(#color-8)" stroke="#000000" stroke-width="1"/><text transform="translate(42.2,29.8) scale(0.5,0.5)" font-size="40" xml:space="preserve" fill="#000000" fill-rule="nonzero" stroke="none" stroke-width="1" stroke-linecap="butt" stroke-linejoin="miter" stroke-miterlimit="10" stroke-dasharray="" stroke-dashoffset="0" font-family="Curly" font-weight="normal" text-anchor="start" style="mix-blend-mode: normal"><tspan x="0" dy="0">ST</tspan></text><text transform="translate(33.9,51.8) scale(0.5,0.5)" font-size="40" xml:space="preserve" fill="#000000" fill-rule="nonzero" stroke="none" stroke-width="1" stroke-linecap="butt" stroke-linejoin="miter" stroke-miterlimit="10" stroke-dasharray="" stroke-dashoffset="0" font-family="Curly" font-weight="normal" text-anchor="start" style="mix-blend-mode: normal"><tspan x="0" dy="0">4122</tspan></text><path d="M73.18634,25.79686l-1.20219,-6.55738l28.52459,-5.22951l1.20219,6.55738z" fill-opacity="0.57251" fill="#ffecd4" stroke="none" stroke-width="0"/><path d="M106.71093,54.23949l-1.20218,6.55738l-28.52459,-5.22951l1.20219,-6.55738z" data-paper-data="{&quot;index&quot;:null}" fill-opacity="0.57251" fill="#ffecd4" stroke="none" stroke-width="0"/><path d="M4.3175,20.56735l1.20219,-6.55737l28.52459,5.2295l-1.20218,6.55738z" data-paper-data="{&quot;index&quot;:null}" fill-opacity="0.57251" fill="#ffecd4" stroke="none" stroke-width="0"/><path d="M27.50875,49.00998l1.20219,6.55738l-28.52459,5.22951l-1.20218,-6.55737z" data-paper-data="{&quot;index&quot;:null}" fill-opacity="0.57251" fill="#ffecd4" stroke="none" stroke-width="0"/><text transform="translate(35.84709,59.65342) scale(0.14608,0.14608)" font-size="40" xml:space="preserve" fill="#000000" fill-rule="nonzero" stroke="none" stroke-width="1" stroke-linecap="butt" stroke-linejoin="miter" stroke-miterlimit="10" stroke-dasharray="" stroke-dashoffset="0" font-family="Curly" font-weight="normal" text-anchor="start" style="mix-blend-mode: normal"><tspan x="0" dy="0">EMERGANCY</tspan></text></g><g><path d="M-1.8,150.6v-74h84v74z" fill="url(#color-9)" stroke="#000000" stroke-width="1" stroke-linecap="butt"/><text transform="translate(0.8,91.61774) scale(0.37924,0.37924)" font-size="40" xml:space="preserve" fill="#000000" fill-rule="nonzero" stroke="none" stroke-width="1" stroke-linecap="butt" stroke-linejoin="miter" stroke-miterlimit="10" stroke-dasharray="" stroke-dashoffset="0" font-family="Curly" font-weight="normal" text-anchor="start" style="mix-blend-mode: normal"><tspan x="0" dy="0">1978</tspan></text><g fill="none" stroke="#000000" stroke-width="1" stroke-linecap="butt"><path d="M2.01422,106.18315v-9.31003h11.00277v9.31003z"/><path d="M13.01699,106.18316v-9.31005h11.00277v9.31005z"/><path d="M24.01976,106.18316v-9.31005h11.00278v9.31005z"/><path d="M35.02254,106.18315v-9.31003h11.00277v9.31003z"/><path d="M46.02531,106.18316v-9.31005h11.00278v9.31005z"/><path d="M57.02808,106.18316v-9.31005h11.00277v9.31005z"/><path d="M68.16262,106.18316v-9.31004h11.00278v9.31004z"/></g><g fill="none" stroke="#000000" stroke-width="1" stroke-linecap="butt"><path d="M2.01422,115.51649v-9.31003h11.00277v9.31003z"/><path d="M13.01699,115.5165v-9.31005h11.00277v9.31005z"/><path d="M24.01976,115.5165v-9.31005h11.00278v9.31005z"/><path d="M35.02254,115.51649v-9.31003h11.00277v9.31003z"/><path d="M46.02531,115.5165v-9.31005h11.00278v9.31005z"/><path d="M57.02808,115.5165v-9.31005h11.00277v9.31005z"/><path d="M68.16262,115.51649v-9.31004h11.00278v9.31004z"/></g><g fill="none" stroke="#000000" stroke-width="1" stroke-linecap="butt"><path d="M2.01422,125.18315v-9.31003h11.00277v9.31003z"/><path d="M13.01699,125.18316v-9.31005h11.00277v9.31005z"/><path d="M24.01976,125.18316v-9.31005h11.00278v9.31005z"/><path d="M35.02254,125.18315v-9.31003h11.00277v9.31003z"/><path d="M46.02531,125.18316v-9.31005h11.00278v9.31005z"/><path d="M57.02808,125.18316v-9.31005h11.00277v9.31005z"/><path d="M68.16262,125.18316v-9.31004h11.00278v9.31004z"/></g><text transform="translate(49.99755,103.51013) scale(0.16743,0.16743)" font-size="40" xml:space="preserve" fill="#000000" fill-rule="nonzero" stroke="none" stroke-width="1" stroke-linecap="butt" stroke-linejoin="miter" stroke-miterlimit="10" stroke-dasharray="" stroke-dashoffset="0" font-family="Curly" font-weight="normal" text-anchor="start" style="mix-blend-mode: normal"><tspan x="0" dy="0">5</tspan></text><g fill="none" stroke="#000000" stroke-width="1" stroke-linecap="butt"><path d="M2.01422,134.84982v-9.31004h11.00277v9.31004z"/><path d="M13.01699,134.84983v-9.31005h11.00277v9.31005z"/><path d="M24.01976,134.84983v-9.31005h11.00278v9.31005z"/><path d="M35.02254,134.84982v-9.31004h11.00277v9.31004z"/><path d="M46.02531,134.84983v-9.31005h11.00278v9.31005z"/><path d="M57.02808,134.84983v-9.31005h11.00277v9.31005z"/><path d="M68.16262,134.84982v-9.31004h11.00278v9.31004z"/></g><g fill="none" stroke="#000000" stroke-width="1" stroke-linecap="butt"><path d="M2.01422,144.18315v-9.31003h11.00277v9.31003z"/><path d="M13.01699,144.18316v-9.31004h11.00277v9.31004z"/></g><text transform="translate(55.34755,90.69123) scale(0.30775,0.30775)" font-size="40" xml:space="preserve" fill="#000000" fill-rule="nonzero" stroke="none" stroke-width="1" stroke-linecap="butt" stroke-linejoin="miter" stroke-miterlimit="10" stroke-dasharray="" stroke-dashoffset="0" font-family="Curly" font-weight="normal" text-anchor="start" style="mix-blend-mode: normal"><tspan x="0" dy="0">June</tspan></text><text transform="translate(6.54755,103.51013) scale(0.16743,0.16743)" font-size="40" xml:space="preserve" fill="#000000" fill-rule="nonzero" stroke="none" stroke-width="1" stroke-linecap="butt" stroke-linejoin="miter" stroke-miterlimit="10" stroke-dasharray="" stroke-dashoffset="0" font-family="Curly" font-weight="normal" text-anchor="start" style="mix-blend-mode: normal"><tspan x="0" dy="0">1</tspan></text><text transform="translate(16.87254,103.51013) scale(0.16743,0.16743)" font-size="40" xml:space="preserve" fill="#000000" fill-rule="nonzero" stroke="none" stroke-width="1" stroke-linecap="butt" stroke-linejoin="miter" stroke-miterlimit="10" stroke-dasharray="" stroke-dashoffset="0" font-family="Curly" font-weight="normal" text-anchor="start" style="mix-blend-mode: normal"><tspan x="0" dy="0">2</tspan></text><text transform="translate(27.87255,103.51013) scale(0.16743,0.16743)" font-size="40" xml:space="preserve" fill="#000000" fill-rule="nonzero" stroke="none" stroke-width="1" stroke-linecap="butt" stroke-linejoin="miter" stroke-miterlimit="10" stroke-dasharray="" stroke-dashoffset="0" font-family="Curly" font-weight="normal" text-anchor="start" style="mix-blend-mode: normal"><tspan x="0" dy="0">3</tspan></text><text transform="translate(38.87255,103.51013) scale(0.16743,0.16743)" font-size="40" xml:space="preserve" fill="#000000" fill-rule="nonzero" stroke="none" stroke-width="1" stroke-linecap="butt" stroke-linejoin="miter" stroke-miterlimit="10" stroke-dasharray="" stroke-dashoffset="0" font-family="Curly" font-weight="normal" text-anchor="start" style="mix-blend-mode: normal"><tspan x="0" dy="0">4</tspan></text><text transform="translate(60.87255,103.51013) scale(0.16743,0.16743)" font-size="40" xml:space="preserve" fill="#000000" fill-rule="nonzero" stroke="none" stroke-width="1" stroke-linecap="butt" stroke-linejoin="miter" stroke-miterlimit="10" stroke-dasharray="" stroke-dashoffset="0" font-family="Curly" font-weight="normal" text-anchor="start" style="mix-blend-mode: normal"><tspan x="0" dy="0">6</tspan></text><text transform="translate(71.99755,103.51013) scale(0.16743,0.16743)" font-size="40" xml:space="preserve" fill="#000000" fill-rule="nonzero" stroke="none" stroke-width="1" stroke-linecap="butt" stroke-linejoin="miter" stroke-miterlimit="10" stroke-dasharray="" stroke-dashoffset="0" font-family="Curly" font-weight="normal" text-anchor="start" style="mix-blend-mode: normal"><tspan x="0" dy="0">7</tspan></text><text transform="translate(48.87255,112.88513) scale(0.16743,0.16743)" font-size="40" xml:space="preserve" fill="#000000" fill-rule="nonzero" stroke="none" stroke-width="1" stroke-linecap="butt" stroke-linejoin="miter" stroke-miterlimit="10" stroke-dasharray="" stroke-dashoffset="0" font-family="Curly" font-weight="normal" text-anchor="start" style="mix-blend-mode: normal"><tspan x="0" dy="0">12</tspan></text><text transform="translate(5.67255,112.76013) scale(0.16743,0.16743)" font-size="40" xml:space="preserve" fill="#000000" fill-rule="nonzero" stroke="none" stroke-width="1" stroke-linecap="butt" stroke-linejoin="miter" stroke-miterlimit="10" stroke-dasharray="" stroke-dashoffset="0" font-family="Curly" font-weight="normal" text-anchor="start" style="mix-blend-mode: normal"><tspan x="0" dy="0">8</tspan></text><text transform="translate(16.62254,112.76013) scale(0.16743,0.16743)" font-size="40" xml:space="preserve" fill="#000000" fill-rule="nonzero" stroke="none" stroke-width="1" stroke-linecap="butt" stroke-linejoin="miter" stroke-miterlimit="10" stroke-dasharray="" stroke-dashoffset="0" font-family="Curly" font-weight="normal" text-anchor="start" style="mix-blend-mode: normal"><tspan x="0" dy="0">9</tspan></text><text transform="translate(26.49755,112.76013) scale(0.16743,0.16743)" font-size="40" xml:space="preserve" fill="#000000" fill-rule="nonzero" stroke="none" stroke-width="1" stroke-linecap="butt" stroke-linejoin="miter" stroke-miterlimit="10" stroke-dasharray="" stroke-dashoffset="0" font-family="Curly" font-weight="normal" text-anchor="start" style="mix-blend-mode: normal"><tspan x="0" dy="0">10</tspan></text><text transform="translate(38.49755,112.76013) scale(0.16743,0.16743)" font-size="40" xml:space="preserve" fill="#000000" fill-rule="nonzero" stroke="none" stroke-width="1" stroke-linecap="butt" stroke-linejoin="miter" stroke-miterlimit="10" stroke-dasharray="" stroke-dashoffset="0" font-family="Curly" font-weight="normal" text-anchor="start" style="mix-blend-mode: normal"><tspan x="0" dy="0">11</tspan></text><text transform="translate(59.87255,112.88513) scale(0.16743,0.16743)" font-size="40" xml:space="preserve" fill="#000000" fill-rule="nonzero" stroke="none" stroke-width="1" stroke-linecap="butt" stroke-linejoin="miter" stroke-miterlimit="10" stroke-dasharray="" stroke-dashoffset="0" font-family="Curly" font-weight="normal" text-anchor="start" style="mix-blend-mode: normal"><tspan x="0" dy="0">13</tspan></text><text transform="translate(70.74755,112.76013) scale(0.16743,0.16743)" font-size="40" xml:space="preserve" fill="#000000" fill-rule="nonzero" stroke="none" stroke-width="1" stroke-linecap="butt" stroke-linejoin="miter" stroke-miterlimit="10" stroke-dasharray="" stroke-dashoffset="0" font-family="Curly" font-weight="normal" text-anchor="start" style="mix-blend-mode: normal"><tspan x="0" dy="0">14</tspan></text><text transform="translate(48.74755,122.51013) scale(0.16743,0.16743)" font-size="40" xml:space="preserve" fill="#000000" fill-rule="nonzero" stroke="none" stroke-width="1" stroke-linecap="butt" stroke-linejoin="miter" stroke-miterlimit="10" stroke-dasharray="" stroke-dashoffset="0" font-family="Curly" font-weight="normal" text-anchor="start" style="mix-blend-mode: normal"><tspan x="0" dy="0">19</tspan></text><text transform="translate(26.49755,122.38513) scale(0.16743,0.16743)" font-size="40" xml:space="preserve" fill="#000000" fill-rule="nonzero" stroke="none" stroke-width="1" stroke-linecap="butt" stroke-linejoin="miter" stroke-miterlimit="10" stroke-dasharray="" stroke-dashoffset="0" font-family="Curly" font-weight="normal" text-anchor="start" style="mix-blend-mode: normal"><tspan x="0" dy="0">17</tspan></text><text transform="translate(37.62255,122.38513) scale(0.16743,0.16743)" font-size="40" xml:space="preserve" fill="#000000" fill-rule="nonzero" stroke="none" stroke-width="1" stroke-linecap="butt" stroke-linejoin="miter" stroke-miterlimit="10" stroke-dasharray="" stroke-dashoffset="0" font-family="Curly" font-weight="normal" text-anchor="start" style="mix-blend-mode: normal"><tspan x="0" dy="0">18</tspan></text><text transform="translate(58.74755,122.51013) scale(0.16743,0.16743)" font-size="40" xml:space="preserve" fill="#000000" fill-rule="nonzero" stroke="none" stroke-width="1" stroke-linecap="butt" stroke-linejoin="miter" stroke-miterlimit="10" stroke-dasharray="" stroke-dashoffset="0" font-family="Curly" font-weight="normal" text-anchor="start" style="mix-blend-mode: normal"><tspan x="0" dy="0">20</tspan></text><text transform="translate(70.74755,122.38513) scale(0.16743,0.16743)" font-size="40" xml:space="preserve" fill="#000000" fill-rule="nonzero" stroke="none" stroke-width="1" stroke-linecap="butt" stroke-linejoin="miter" stroke-miterlimit="10" stroke-dasharray="" stroke-dashoffset="0" font-family="Curly" font-weight="normal" text-anchor="start" style="mix-blend-mode: normal"><tspan x="0" dy="0">21</tspan></text><text transform="translate(4.74754,122.51013) scale(0.16743,0.16743)" font-size="40" xml:space="preserve" fill="#000000" fill-rule="nonzero" stroke="none" stroke-width="1" stroke-linecap="butt" stroke-linejoin="miter" stroke-miterlimit="10" stroke-dasharray="" stroke-dashoffset="0" font-family="Curly" font-weight="normal" text-anchor="start" style="mix-blend-mode: normal"><tspan x="0" dy="0">15</tspan></text><text transform="translate(15.62255,122.38513) scale(0.16743,0.16743)" font-size="40" xml:space="preserve" fill="#000000" fill-rule="nonzero" stroke="none" stroke-width="1" stroke-linecap="butt" stroke-linejoin="miter" stroke-miterlimit="10" stroke-dasharray="" stroke-dashoffset="0" font-family="Curly" font-weight="normal" text-anchor="start" style="mix-blend-mode: normal"><tspan x="0" dy="0">16</tspan></text><text transform="translate(47.74755,132.26013) scale(0.16743,0.16743)" font-size="40" xml:space="preserve" fill="#000000" fill-rule="nonzero" stroke="none" stroke-width="1" stroke-linecap="butt" stroke-linejoin="miter" stroke-miterlimit="10" stroke-dasharray="" stroke-dashoffset="0" font-family="Curly" font-weight="normal" text-anchor="start" style="mix-blend-mode: normal"><tspan x="0" dy="0">26</tspan></text><text transform="translate(25.87255,132.13513) scale(0.16743,0.16743)" font-size="40" xml:space="preserve" fill="#000000" fill-rule="nonzero" stroke="none" stroke-width="1" stroke-linecap="butt" stroke-linejoin="miter" stroke-miterlimit="10" stroke-dasharray="" stroke-dashoffset="0" font-family="Curly" font-weight="normal" text-anchor="start" style="mix-blend-mode: normal"><tspan x="0" dy="0">24</tspan></text><text transform="translate(36.99755,132.13513) scale(0.16743,0.16743)" font-size="40" xml:space="preserve" fill="#000000" fill-rule="nonzero" stroke="none" stroke-width="1" stroke-linecap="butt" stroke-linejoin="miter" stroke-miterlimit="10" stroke-dasharray="" stroke-dashoffset="0" font-family="Curly" font-weight="normal" text-anchor="start" style="mix-blend-mode: normal"><tspan x="0" dy="0">25</tspan></text><text transform="translate(58.87255,132.26013) scale(0.16743,0.16743)" font-size="40" xml:space="preserve" fill="#000000" fill-rule="nonzero" stroke="none" stroke-width="1" stroke-linecap="butt" stroke-linejoin="miter" stroke-miterlimit="10" stroke-dasharray="" stroke-dashoffset="0" font-family="Curly" font-weight="normal" text-anchor="start" style="mix-blend-mode: normal"><tspan x="0" dy="0">27</tspan></text><text transform="translate(70.12255,132.13513) scale(0.16743,0.16743)" font-size="40" xml:space="preserve" fill="#000000" fill-rule="nonzero" stroke="none" stroke-width="1" stroke-linecap="butt" stroke-linejoin="miter" stroke-miterlimit="10" stroke-dasharray="" stroke-dashoffset="0" font-family="Curly" font-weight="normal" text-anchor="start" style="mix-blend-mode: normal"><tspan x="0" dy="0">28</tspan></text><text transform="translate(4.12254,132.26013) scale(0.16743,0.16743)" font-size="40" xml:space="preserve" fill="#000000" fill-rule="nonzero" stroke="none" stroke-width="1" stroke-linecap="butt" stroke-linejoin="miter" stroke-miterlimit="10" stroke-dasharray="" stroke-dashoffset="0" font-family="Curly" font-weight="normal" text-anchor="start" style="mix-blend-mode: normal"><tspan x="0" dy="0">22</tspan></text><text transform="translate(14.99755,132.13513) scale(0.16743,0.16743)" font-size="40" xml:space="preserve" fill="#000000" fill-rule="nonzero" stroke="none" stroke-width="1" stroke-linecap="butt" stroke-linejoin="miter" stroke-miterlimit="10" stroke-dasharray="" stroke-dashoffset="0" font-family="Curly" font-weight="normal" text-anchor="start" style="mix-blend-mode: normal"><tspan x="0" dy="0">23</tspan></text><text transform="translate(3.74755,141.63513) scale(0.16743,0.16743)" font-size="40" xml:space="preserve" fill="#000000" fill-rule="nonzero" stroke="none" stroke-width="1" stroke-linecap="butt" stroke-linejoin="miter" stroke-miterlimit="10" stroke-dasharray="" stroke-dashoffset="0" font-family="Curly" font-weight="normal" text-anchor="start" style="mix-blend-mode: normal"><tspan x="0" dy="0">29</tspan></text><text transform="translate(14.87255,141.38513) scale(0.16743,0.16743)" font-size="40" xml:space="preserve" fill="#000000" fill-rule="nonzero" stroke="none" stroke-width="1" stroke-linecap="butt" stroke-linejoin="miter" stroke-miterlimit="10" stroke-dasharray="" stroke-dashoffset="0" font-family="Curly" font-weight="normal" text-anchor="start" style="mix-blend-mode: normal"><tspan x="0" dy="0">30</tspan></text><path d="M56.43784,93.69716h23.875" fill="none" stroke="#000000" stroke-width="1" stroke-linecap="round"/><path d="M1.56284,93.86404h30.5" fill="none" stroke="#000000" stroke-width="1" stroke-linecap="round"/><text transform="translate(1.06284,79.19399) scale(0.04558,0.04558)" font-size="40" xml:space="preserve" fill="#000000" fill-rule="nonzero" stroke="none" stroke-width="1" stroke-linecap="butt" stroke-linejoin="miter" stroke-miterlimit="10" stroke-dasharray="" stroke-dashoffset="0" font-family="Curly" font-weight="normal" text-anchor="start" style="mix-blend-mode: normal"><tspan x="0" dy="0">It's a great year!</tspan></text><g fill="none" stroke="#ff0000" stroke-width="1.5" stroke-linecap="round"><path d="M45.34755,96.87311l-9,9"/><path d="M45.34755,105.87311l-9,-9" data-paper-data="{&quot;index&quot;:null}"/></g><g fill="none" stroke="#ff0000" stroke-width="1.5" stroke-linecap="round"><path d="M25.68088,105.87311l9,-9"/><path d="M25.68088,96.87311l9,9" data-paper-data="{&quot;index&quot;:null}"/></g><g fill="none" stroke="#ff0000" stroke-width="1.5" stroke-linecap="round"><path d="M14.34755,105.87311l9,-9"/><path d="M23.34755,105.87311l-9,-9" data-paper-data="{&quot;index&quot;:null}"/></g><g fill="none" stroke="#ff0000" stroke-width="1.5" stroke-linecap="round"><path d="M3.01422,105.87311l9,-9"/><path d="M12.01422,105.87311l-9,-9" data-paper-data="{&quot;index&quot;:null}"/></g><path d="M57.15853,97.36023l-6.6,7.4l-2.2,-3.4" fill="none" stroke="#ff0000" stroke-width="1.5" stroke-linecap="round"/></g></g></g></svg>