<svg version="1.1" xmlns="http://www.w3.org/2000/svg" xmlns:xlink="http://www.w3.org/1999/xlink" width="42.91092" height="35" viewBox="0,0,42.91092,35"><g transform="translate(-218.54454,-162.5)"><g data-paper-data="{&quot;isPaintingLayer&quot;:true}" stroke-miterlimit="10" stroke-dasharray="" stroke-dashoffset="0" style="mix-blend-mode: normal"><path d="M218.54454,197.5v-35h42.91092v35z" fill="#ffe800" fill-rule="nonzero" stroke="none" stroke-width="NaN" stroke-linecap="butt" stroke-linejoin="miter"/><g fill-rule="evenodd" stroke-width="0.5"><path d="M243.56691,163.84088c0.15397,-0.10265 0.41058,-0.05132 0.4619,0.15397l1.33439,5.49151c0,0 3.28464,2.41216 4.25977,4.1058c1.64232,2.82274 1.69364,5.13225 1.69364,5.13225c0,0 3.6439,1.07777 4.25977,4.00316c0.61587,2.92538 -1.64232,8.46821 -11.29095,10.36715c-9.64863,1.89893 -17.39833,-0.71852 -21.04223,-6.56928c-3.6439,-5.85077 2.10422,-12.83063 1.79629,-12.42005l-1.07777,-9.18673c-0.05132,-0.20529 0.20529,-0.35926 0.41058,-0.25661l6.21002,4.05448c0,0 2.30951,-0.87248 4.72167,-0.97513c1.43703,-0.10265 2.66877,0 3.84919,0.20529z" fill="#ffab19" stroke="#001026" stroke-linecap="butt" stroke-linejoin="miter"/><path d="M251.16265,178.9297c0,0 3.54125,0.92381 4.15712,3.84919c0.61587,2.92538 -1.84761,8.2116 -11.3936,10.05921c-12.42005,2.56613 -18.32214,-4.82432 -14.88353,-10.2645c3.43861,-5.49151 9.3407,-0.82116 13.65179,-1.1291c3.69522,-0.25661 4.1058,-3.48993 8.46821,-2.5148z" fill="#ffffff" stroke="none" stroke-linecap="butt" stroke-linejoin="miter"/><path d="M234.99605,184.42121c0,-0.20529 0.20529,-0.35926 0.41058,-0.30794c0.97513,0.35926 3.74654,1.18042 6.82589,1.38571c2.77142,0.15397 4.41374,0 5.18357,-0.15397c0.25661,-0.05132 0.4619,0.20529 0.35926,0.4619c-0.4619,1.38571 -2.41216,10.704 -7.80102,10.39607c-4.67035,-0.51323 -5.13225,-9.26697 -4.97828,-11.78178z" fill="#ffffff" stroke="#001026" stroke-linecap="round" stroke-linejoin="round"/><path d="M260.60599,179.49425c-2.41216,1.95026 -6.10738,2.00158 -6.10738,2.00158" fill="none" stroke="#001026" stroke-linecap="round" stroke-linejoin="round"/><path d="M259.9388,185.24237c-3.23332,0.25661 -5.2349,-0.71852 -5.2349,-0.71852" fill="none" stroke="#001026" stroke-linecap="round" stroke-linejoin="round"/><path d="M242.48914,180.11012c1.07777,0 2.20687,0.10265 2.25819,0.4619c0.05132,0.71852 -0.71852,2.15555 -1.53968,2.20687c-0.92381,0.10265 -3.07935,-1.18042 -3.07935,-2.00158c-0.05132,-0.61587 1.33439,-0.66719 2.36084,-0.66719z" fill="#001026" stroke="#001026" stroke-linecap="round" stroke-linejoin="round"/><path d="M219.39401,179.34028c0,0 4.41374,1.43703 6.21002,3.02803" fill="none" stroke="#001026" stroke-linecap="round" stroke-linejoin="round"/><path d="M225.758,184.16459c-2.20687,0.87248 -6.00473,0.30794 -6.00473,0.30794" fill="none" stroke="#001026" stroke-linecap="round" stroke-linejoin="round"/><g><path d="M248.5452,174.10538c1.48835,2.30951 1.53968,4.92696 0.10265,5.85077c-1.43703,0.92381 -3.79787,-0.15397 -5.33754,-2.46348c-1.48835,-2.30951 -1.53968,-4.92696 -0.10265,-5.85077c1.43703,-0.97513 3.84919,0.15397 5.33754,2.46348z" fill="#ffffff" stroke="#001026" stroke-linecap="round" stroke-linejoin="round"/><path d="M248.69659,178.2197c0,0.56455 -0.41058,1.02645 -0.92381,1.02645c-0.51323,0 -0.92381,-0.4619 -0.92381,-1.02645c0,-0.56455 0.41058,-1.02645 0.92381,-1.02645c0.51323,0 0.92381,0.4619 0.92381,1.02645" fill="#001026" stroke="none" stroke-linecap="butt" stroke-linejoin="miter"/></g><g><path d="M235.81722,175.54241c1.53968,2.25819 1.43703,5.02961 0.05132,6.00473c-1.69364,0.97513 -3.95183,0.25661 -5.49151,-2.00158c-1.591,-2.25819 -1.69364,-5.18357 -0.10265,-6.31267c1.591,-1.18042 4.00316,0.05132 5.54283,2.30951z" fill="#ffffff" stroke="#001026" stroke-linecap="round" stroke-linejoin="round"/><path d="M231.82357,175.54677c0,0.56455 -0.41058,1.02645 -0.92381,1.02645c-0.51323,0 -0.92381,-0.4619 -0.92381,-1.02645c0,-0.56455 0.41058,-1.02645 0.92381,-1.02645c0.51323,0.05132 0.92381,0.4619 0.92381,1.02645" fill="#001026" stroke="none" stroke-linecap="butt" stroke-linejoin="miter"/></g></g></g></g></svg>