<svg version="1.1" xmlns="http://www.w3.org/2000/svg" xmlns:xlink="http://www.w3.org/1999/xlink" width="347" height="306.46536" viewBox="0,0,347,306.46536"><g transform="translate(-66.5,-28.5)"><g data-paper-data="{&quot;isPaintingLayer&quot;:true}" fill-rule="nonzero" stroke-linejoin="miter" stroke-miterlimit="10" stroke-dasharray="" stroke-dashoffset="0" style="mix-blend-mode: normal"><path d="M75,331.5v-303h330v303z" fill="#656565" stroke="none" stroke-width="0" stroke-linecap="butt"/><path d="M67,180h346" fill="none" stroke="#000000" stroke-width="1" stroke-linecap="round"/><path d="M67,150h346" fill="none" stroke="#000000" stroke-width="1" stroke-linecap="round"/><path d="M67,120h346" fill="none" stroke="#000000" stroke-width="1" stroke-linecap="round"/><path d="M67,90h346" fill="none" stroke="#000000" stroke-width="1" stroke-linecap="round"/><path d="M67,60h346" fill="none" stroke="#000000" stroke-width="1" stroke-linecap="round"/><path d="M67,30h346" fill="none" stroke="#000000" stroke-width="1" stroke-linecap="round"/><path d="M67,330h346" fill="none" stroke="#000000" stroke-width="1" stroke-linecap="round"/><path d="M67,300h346" fill="none" stroke="#000000" stroke-width="1" stroke-linecap="round"/><path d="M67,270h346" fill="none" stroke="#000000" stroke-width="1" stroke-linecap="round"/><path d="M67,240h346" fill="none" stroke="#000000" stroke-width="1" stroke-linecap="round"/><path d="M67,210h346" fill="none" stroke="#000000" stroke-width="1" stroke-linecap="round"/><path d="M200.66368,101.49093c0,15.78164 20.78375,44.61173 11.08837,54.20123c-8.05006,7.96215 -45.47228,-1.90008 -56.96657,-1.90008c-10.07247,0 -33.45612,29.33192 -41.02336,23.05859c-11.46854,-9.50756 -4.85484,-57.95723 -4.85484,-75.35974c0,-28.88512 20.54037,-52.30114 45.8782,-52.30114c18.74616,0 59.33467,-1.25194 66.45331,17.11473c2.50311,6.45823 -20.57512,27.67191 -20.57512,35.18641z" fill-opacity="0.05222" fill="#910000" stroke="none" stroke-width="0" stroke-linecap="butt"/><path d="M258.77607,253.50068c0,-4.36147 -78.49554,-36.76466 -77.70295,-40.89497c5.96072,-31.0622 112.1903,-26.39305 144.99097,-26.39305c8.21953,0 51.57398,-83.55381 58.85524,-80.85609c25.63876,9.49921 8.43278,119.2015 8.43278,148.14411c0,37.16215 -30.12587,67.28802 -67.28802,67.28802c-27.01591,0 -105.97876,28.12182 -116.68645,5.15032c-4.02144,-8.6273 49.39843,-62.2921 49.39843,-72.43834z" fill-opacity="0.05222" fill="#910000" stroke="none" stroke-width="0" stroke-linecap="butt"/></g></g></svg>