<svg version="1.1" xmlns="http://www.w3.org/2000/svg" xmlns:xlink="http://www.w3.org/1999/xlink" width="58.14818" height="60.91226" viewBox="0,0,58.14818,60.91226"><g transform="translate(-224.643,-130.65342)"><g data-paper-data="{&quot;isPaintingLayer&quot;:true}" fill-rule="nonzero" stroke="none" stroke-width="1" stroke-linecap="butt" stroke-linejoin="miter" stroke-miterlimit="10" stroke-dasharray="" stroke-dashoffset="0" style="mix-blend-mode: normal"><g><path d="M260.753,153.155c0.398,0 13.6,11.612 15.034,13.288c0.993,1.045 1.902,2.168 2.719,3.358c1.39,2.145 2.448,4.49 3.135,6.954c0.274,1.073 0.595,2.135 0.815,3.226c0.347,1.968 0.425,3.975 0.232,5.964c-0.087,1.148 -0.39,2.269 -0.892,3.304c-0.159,0.331 -0.375,0.632 -0.637,0.889c-1.252,1.201 -3.024,1.687 -4.712,1.294c-0.247,-0.052 -0.483,-0.149 -0.696,-0.286c-1.038,-0.642 -1.942,-1.481 -2.659,-2.469c-1.321,-1.967 -2.338,-4.123 -3.017,-6.394c-0.165,-0.529 -0.387,-1.039 -0.66,-1.521c-0.475,-0.791 -0.845,-1.641 -1.101,-2.528c-0.957,-3.304 -1.987,-6.561 -2.897,-9.9c-0.5,-1.825 -1.023,-3.632 -1.648,-5.41c-0.071,-0.173 -2.974,-9.465 -3.016,-9.769z" fill="#000000"/><path d="M263.061,161.128c-0.988,1.115 -3.635,3.501 -4.891,4.097c-1.328,0.556 -2.689,1.03 -4.075,1.42c-0.347,0.127 -0.713,0.194 -1.083,0.197c-1.623,0.089 -3.251,-0.001 -4.854,-0.269c-1.301,-0.268 -2.56,-0.711 -3.742,-1.318c-0.689,-0.356 -1.306,-0.838 -1.821,-1.419c-0.583,-0.668 -1.297,-1.223 -1.85,-1.909c-0.763,-0.903 -1.444,-1.873 -2.035,-2.898c-0.797,-1.379 -1.431,-2.846 -1.892,-4.372c-0.113,-0.423 -0.374,-4.616 -0.464,-4.968l26.558,-0.447c0.089,0.06 -0.03,11.737 0.149,11.886z" fill="#824600"/><path d="M252.344,164.404h-0.732c-0.596,-0.35 -1.105,-0.831 -1.487,-1.408c-0.708,-1.318 -2.261,-4.133 -2.291,-4.944c0.851,-0.185 4.974,0.483 6.544,0.847c0.452,1.926 -0.363,4.699 -2.034,5.505z" fill="#642800"/><path d="M241.519,153.156c0.272,0.508 0.292,1.115 0.053,1.64c-0.127,0.289 -0.431,0.457 -0.743,0.412c-0.673,-0.352 -0.637,-0.943 -0.464,-1.599c0.307,-0.302 0.724,-0.466 1.154,-0.453z" fill="#000000"/><path d="M250.994,155.458c-0.008,-0.487 0.166,-0.959 0.488,-1.324l0.708,0.28c0.226,0.596 -0.036,0.918 -0.5,1.24z" fill="#000000"/></g><g><path d="M271.214,158.879c-1.283,1.207 -2.838,2.085 -4.533,2.558c-1.475,0.425 -3.05,0.343 -4.474,-0.232c-6.758,-3.221 -4.938,-8.272 -5.354,-8.35c-8.359,-1.592 -22.102,-4.21 -23.387,-5.218c-0.559,-6.31 4.902,-13.431 9.983,-15.596c5.438,-2.338 14.915,-1.586 20.133,1.241c5.503,2.982 9.828,9.101 10.524,15.393c0.375,3.429 -0.494,7.604 -2.892,10.204z" fill="#f01446"/><path d="M256.484,152.504c-5.355,0.692 -26.867,-0.788 -31.841,-1.008c2.041,-1.396 8.454,-4.211 8.454,-4.211c0,0 20.626,3.99 23.387,5.219z" fill="#be0a3c"/><path d="M249.587,141.424c1.558,6.155 -9.323,6.984 -9.329,0.686c-0.006,-5.356 8.966,-6.62 9.329,-0.686z" fill="#be0a3c"/><path d="M266.078,158.501c-3.825,0.567 -5.973,-3.399 -2.85,-6.035l1.327,-0.286c1.407,-0.052 2.727,0.683 3.427,1.908c0.874,1.485 -0.03,3.727 -1.904,4.413z" fill="#6e1e3c"/></g></g></g></svg>