<svg version="1.1" xmlns="http://www.w3.org/2000/svg" xmlns:xlink="http://www.w3.org/1999/xlink" width="59.78005" height="154.37736" viewBox="0,0,59.78005,154.37736"><g transform="translate(-217.97081,-168.35003)"><g data-paper-data="{&quot;isPaintingLayer&quot;:true}" fill-rule="nonzero" stroke="none" stroke-width="0.95" stroke-linecap="butt" stroke-linejoin="miter" stroke-miterlimit="10" stroke-dasharray="" stroke-dashoffset="0" style="mix-blend-mode: normal"><path d="M236.0478,211.0451c-0.2166,0.2261 -0.2223,0.6897 -0.3154,0.9937c-0.1387,0.4474 -0.1444,0.8027 -0.456,1.1998c-0.2119,0.2717 -0.5368,0.4855 -0.6812,0.8123c-0.0997,0.2318 -0.0465,0.5149 -0.1577,0.7514c-0.17,0.3601 -0.5937,0.5995 -0.6156,1.0099c-0.0171,0.2793 0.1891,0.6688 -0.2451,0.7609c-0.2574,0.0561 -0.4322,-0.2109 -0.5861,-0.3771c-0.5881,-0.6308 -1.7319,-1.3329 -2.4254,-1.8658c-0.8616,-0.6641 -1.2587,-0.9472 -2.0786,-1.5428c-0.3211,-0.2337 -0.6251,-0.4997 -0.95,-0.7239c-0.3762,-0.2594 -0.7704,-0.4598 -1.1485,-0.7116c-0.0589,-0.1748 -0.2204,-0.3524 -0.2841,-0.5481c-0.1092,-0.3259 -0.076,-0.7144 -0.0389,-1.0545c0.0285,-0.2974 0.1767,-0.4057 0.2916,-0.6688c0.1188,-0.2594 0.1321,-0.5586 0.2575,-0.8246c0.2954,-0.6327 0.3752,-1.2151 0.9281,-1.7214c0.5681,-0.5178 1.1115,-0.9206 1.8069,-1.2569c0.6555,-0.3163 1.2882,-0.5234 1.9523,-0.1263c0.304,0.1814 0.5415,0.551 0.7552,0.8322c0.2413,0.3182 0.4826,0.6194 0.6907,0.9595c0.4009,0.6574 0.9091,1.0972 1.3784,1.7138c0.2613,0.341 0.5719,0.7286 0.8721,1.0355c0.3563,0.3638 0.8275,0.9034 0.9985,1.3756c-0.0095,-0.0409 -0.038,-0.0532 -0.058,-0.0732" fill="#a16235"/><path d="M264.0348,201.2943c-0.0181,0.1463 0.0199,0.2821 0.0332,0.4208c0.0466,0.4361 0.2176,0.6935 0.3563,1.0897c0.0589,0.1691 0.0332,0.3876 0.0931,0.5614c0.0665,0.1881 0.2014,0.3202 0.285,0.494c0.3116,0.6394 0.2679,1.3737 0.0674,2.0368c-0.1909,0.6413 -0.5956,1.2312 -0.8588,1.863c-0.1586,0.3743 -0.2061,0.5728 -0.4949,0.8787c-0.191,0.2033 -0.3249,0.4465 -0.5083,0.6584c-0.1406,0.1653 -0.3268,0.3382 -0.5158,0.4379c-0.3962,0.2071 -0.4199,-0.0114 -0.5539,-0.3923c-0.2223,-0.6403 -0.5044,-1.3614 -0.8236,-1.9703c-0.4028,-0.7638 -0.7258,-1.5637 -1.0479,-2.3798c-0.1539,-0.3857 -0.3467,-0.7742 -0.4227,-1.1675c-0.0542,-0.2803 -0.3354,-0.6717 -0.2765,-0.9434c0.7144,-0.037 1.3946,0.0295 2.0701,-0.2251c0.4161,-0.1568 0.7609,-0.3895 1.1295,-0.6242c0.381,-0.2413 0.9975,-0.7495 1.4345,-0.8084" fill="#a16235"/><path d="M243.7513,312.601c0.2261,0.0019 0.4361,-0.057 0.4969,0.1786c0.0817,0.3097 -0.3753,0.5719 -0.5605,0.7201c-0.2518,0.2005 -0.3506,0.4731 -0.5786,0.6935c-0.7419,0.7277 -1.6425,0.9405 -2.6571,1.1372c-1.2464,0.2394 -2.4453,0.513 -3.592,1.0488c-0.8873,0.4161 -1.7394,0.9006 -2.6315,1.31c-0.9348,0.4247 -2.0358,0.7819 -3.0466,0.9595c-1.255,0.2204 -2.3978,0.1273 -3.6518,0.0428c-1.2759,-0.0836 -2.9051,-0.2394 -4.1686,-0.4646c-1.1096,-0.2004 -1.2493,-0.4997 -2.0786,-0.8844c-0.6945,-0.3211 -1.6768,-0.6907 -1.7195,-1.5789c-0.0162,-0.286 -0.0266,-0.2451 0.0019,-0.5197c0.0408,-0.3562 0.4484,-0.892 0.74,-1.1675c0.2945,-0.2784 0.7534,-0.3487 1.1011,-0.5415c0.2555,-0.1368 0.4816,-0.2746 0.7638,-0.4228c0.8151,-0.4284 1.7385,-0.607 2.3911,-1.2673c0.5871,-0.5975 0.9595,-1.2606 1.6131,-1.7613c0.3316,-0.2498 0.7306,-0.3467 1.0688,-0.5747c0.3116,-0.2081 0.4398,-0.4399 0.8274,-0.4902c0.7182,-0.095 1.3595,0.1377 2.0264,0.3562c0.8179,0.2679 1.6644,0.552 2.4453,0.8911c0.8635,0.3753 1.6929,0.8256 2.5925,1.0944c0.9614,0.2841 1.8981,0.608 2.8519,0.8959c1.9409,0.5785 3.9283,0.0237 5.8986,0.3097c-0.0342,0.0019 -0.0656,0.0019 -0.0988,0.0019" fill="#4e3a78"/><path d="M267.4443,307.9783c0.2062,0.1777 0.1359,0.3135 0.3857,0.4285c0.3658,0.1672 0.6014,0.5035 0.9795,0.6517c0.7514,0.2878 1.4269,0.7961 2.1878,1.0858c1.7148,0.6536 4.0917,0.9035 5.5993,1.2616c0.6498,0.1539 1.0707,0.7572 -0.5244,1.8126c-0.4911,0.3221 -0.6859,0.6213 -1.178,0.9719c-0.588,0.418 -1.3347,0.5937 -1.9969,0.8797c-0.57,0.2422 -1.4753,0.228 -2.0558,0.4208c-0.7999,0.2613 -1.6625,0.1501 -2.4975,0.1891c-0.9092,0.0446 -1.9979,0.0522 -2.9127,-0.1017c-0.7011,-0.1197 -1.5618,-0.2565 -2.2762,-0.3363c-0.6726,-0.0731 -0.7486,-0.19 -1.4269,-0.2907c-0.3325,-0.0484 -0.7733,-0.2413 -1.0982,-0.3401c-0.3971,-0.1225 -0.8788,-0.1786 -1.2369,-0.3562c-0.2964,-0.1454 -0.7363,-0.2128 -1.0431,-0.3012c-0.7809,-0.227 -1.8725,-0.494 -2.679,-0.6289c-1.6017,-0.2679 -2.4643,0.0276 -3.7449,0.4114c-2.4567,0.7334 -3.2025,-0.2518 -3.5435,-0.2993c0,-0.1909 0.2964,-1.4972 0.4398,-1.6321c0.2223,-0.2052 1.9646,-0.741 2.1983,-0.93c0.399,-0.323 1.5324,-0.5605 2.053,-0.6517c0.4436,-0.0741 1.3841,0.1548 1.8278,0.1957c0.5234,0.0494 1.3917,0.1425 1.9076,0.2318c1.3642,0.2318 3.1397,0.4674 4.4925,0.7144c1.2208,0.2213 1.6796,0.0551 3.2728,-0.3525c0.5253,-0.1311 0.7552,-0.9728 1.0117,-1.4535c0.1273,-0.2375 0.4285,-0.6583 0.5966,-0.8901c0.1197,-0.1653 0.495,-0.0247 0.6394,-0.1558c0.0969,-0.0836 -0.0057,-0.1948 0.0969,-0.0836" fill="#4e3a78"/><path d="M244.1038,313.362c-0.039,0.2888 0.1311,0.5994 0.228,0.8607c0.1244,0.3382 0.0389,0.5719 0.0057,0.9148c-0.0133,0.1511 0.0256,0.3173 -0.0038,0.4665c-0.0352,0.1786 -0.1596,0.3306 -0.2299,0.4949c-0.1188,0.2784 -0.1986,0.5092 -0.4171,0.7325c-0.3002,0.304 -0.9053,0.4113 -1.3376,0.5301c-0.9737,0.2669 -1.785,0.6384 -2.6828,1.0649c-1.2673,0.6033 -2.2353,1.5476 -3.3915,2.3028c-0.2242,0.1473 -0.3876,0.3468 -0.6194,0.4855c-0.2242,0.133 -0.4826,0.2251 -0.7106,0.3496c-0.5852,0.3201 -1.2378,0.4959 -1.88,0.6925c-0.6954,0.2138 -1.3319,0.3734 -2.0615,0.399c-1.1134,0.039 -2.2249,-0.1092 -3.3345,-0.1035c-1.9418,0.0057 -3.8722,-0.2765 -5.7665,-0.5767c-0.532,-0.0836 -1.0688,-0.1833 -1.6008,-0.3097c-0.4997,-0.1225 -0.7533,-0.303 -1.0896,-0.6811c-0.685,-0.7686 -1.007,-1.5846 -0.9434,-2.6553c0.0276,-0.4788 0.3126,-0.8778 0.4513,-1.3119c0.1206,-0.381 0.3173,-1.0764 0.664,-1.2987c0.1007,0.1539 0.0637,0.323 0.1948,0.4864c0.1121,0.1387 0.2584,0.2185 0.3543,0.3734c0.1112,0.1919 0.095,0.2745 0.2936,0.4142c0.1482,0.1016 0.3078,0.1729 0.4674,0.247c0.7315,0.3486 1.3642,0.7809 2.1935,0.9405c0.6128,0.1149 1.273,0.0133 1.8592,0.171c0.7248,0.1928 1.4193,0.3078 2.1612,0.399c1.7053,0.2023 3.4637,0.2042 5.1158,-0.323c1.311,-0.419 2.7303,-0.5624 3.8589,-1.4032c0.6327,-0.4693 1.2511,-0.8474 2.0358,-1.0241c0.419,-0.0959 0.8313,-0.1966 1.2483,-0.3002c0.2765,-0.0684 1.1096,-0.1054 1.2151,-0.3268c0.7942,-0.2299 1.7366,-0.4455 2.4177,-0.931c0.2147,-0.1539 0.38,-0.3895 0.5748,-0.57c0.2185,-0.2023 0.4541,-0.3372 0.7049,-0.475" fill="#bfb3d8"/><path d="M277.3918,311.8116c0.4522,-0.0732 0.0104,0.8873 -0.02,1.0887c-0.0665,0.4493 -0.0589,0.911 -0.0589,1.3727c0,0.5377 -0.0988,0.9405 -0.2859,1.445c-0.1691,0.455 -0.5339,0.7239 -0.7515,1.1409c-0.2356,0.4532 -0.6137,0.7391 -1.1153,0.9301c-0.7571,0.2878 -1.557,0.6526 -2.3626,0.7628c-1.8288,0.2556 -3.9454,0.1758 -5.6896,-0.455c-1.0203,-0.3696 -2.1897,-0.8056 -3.2642,-0.97c-0.8559,-0.132 -1.8012,-0.0817 -2.6543,-0.0057c-1.235,0.1112 -2.4795,0.2651 -3.7249,0.2651c-1.2521,0 -2.5147,0.0266 -3.7611,0.1263c-1.0716,0.0827 -2.1052,-0.0494 -3.1606,-0.2166c-0.4171,-0.0636 -0.8123,-0.1501 -1.2227,-0.2375c-0.1966,-0.0408 -0.816,-0.0408 -0.9813,-0.1843c-0.1691,-0.1482 -0.0561,-0.4379 -0.0836,-0.6393c-0.0466,-0.3126 -0.058,-0.5681 -0.0561,-0.8949c0.0048,-0.4978 0.0409,-1.0669 0.2594,-1.5143c0.2014,-0.4161 0.892,0.0142 1.2483,0.0988c0.6602,0.1577 1.3955,-0.1387 2.0263,-0.3059c1.2037,-0.3173 2.6372,-0.7477 3.8751,-0.4361c1.026,0.2575 2.0349,0.6907 3.0799,0.9358c0.5196,0.1235 1.0431,0.2175 1.5409,0.3895c0.436,0.1482 1.0887,0.2166 1.4506,0.5063c0.1207,-0.0475 0.5083,0.0779 0.6973,0.1102c0.2233,0.0409 0.4446,0.0532 0.6726,0.0798c1.2246,0.1463 2.4102,0.3876 3.6366,0.5045c1.0849,0.1007 2.4434,0.1434 3.5036,-0.0817c0.8702,-0.1853 1.787,-0.2242 2.6315,-0.4693c0.6755,-0.1967 1.3642,-0.609 1.9884,-0.9358c0.4902,-0.2574 1.0098,-0.5899 1.4402,-0.95c0.2166,-0.1776 0.3534,-0.4018 0.5339,-0.6165c0.1444,-0.1777 0.5586,-0.7809 0.7163,-0.7971" fill="#bfb3d8"/><path d="M263.727,223.834c0.132,1.2217 0.5225,2.299 0.7999,3.5919c0.2764,1.2882 0.5595,2.5308 0.6992,3.8409c0.2175,2.0225 0.4636,4.3348 0.3581,6.3821c-0.1187,2.3256 -0.1786,4.6331 -0.4341,6.9378c-0.2594,2.3342 -1.0023,4.5961 -1.4383,6.9227c-0.5083,2.698 -1.0906,5.3475 -1.521,8.055c-0.1919,1.2018 -0.3173,2.414 -0.4493,3.6214c-0.1226,1.1134 -0.1596,2.1005 -0.6194,3.1616c-0.6717,1.5457 -2.0644,2.2268 -3.4096,3.0837c-1.0317,0.6546 -1.9874,1.5419 -2.9801,2.2762c-1.578,1.1676 -3.3279,1.8782 -5.2003,2.4738c-2.1185,0.6774 -4.3548,1.0023 -6.5142,1.5162c-2.2315,0.5349 -4.4384,0.9092 -6.7184,1.1657c-2.4272,0.2669 -4.8431,0.6887 -7.2922,0.683c-0.874,-0.0019 -1.6796,-0.2821 -2.4434,-0.3467c-0.0408,-0.9928 -0.0057,-2.0672 -0.0076,-3.0248c0.0428,-0.4826 -0.1111,-0.9329 -0.1833,-1.4013c-0.1463,-0.9272 -0.6935,-1.4772 -0.6935,-2.5659c0,-1.0431 0.4446,-2.2154 0.4446,-3.2956c0,-0.4807 0,-1.0573 0,-1.5846c0,0.0076 0,0.0162 0,0.02c0,-1.5039 0.6127,-3.0685 0.9652,-4.5325c0.246,-1.0089 -0.0551,-2.2543 0.2147,-3.2822c0.2451,-0.95 0.7068,-1.7661 0.8645,-2.7237c0.171,-1.0488 0.665,-3.5311 0.665,-4.5923c0,-2.355 0.3952,-2.1726 0.987,-4.6426c0.2803,-1.1543 0.3876,-2.3693 0.5045,-3.5293c0.1026,-1.0573 0.3192,-2.089 0.4588,-3.1597c0.0684,-0.512 0.2575,-1.0535 0.4361,-1.5475c0.1985,-0.551 0.2337,-1.0042 0.3705,-1.5495c0.1244,-0.5063 0.3581,-0.8759 0.4066,-1.425c0.0484,-0.5472 0.1463,-0.9709 0.3078,-1.4839c0.3638,-1.1637 0.6735,-2.2952 0.9424,-3.4722c0.2669,-1.1676 0.2004,-2.6733 0.683,-3.7601c0.5586,-1.2559 0.4693,-2.6942 1.2559,-3.9169c0.6166,-0.9585 1.197,-1.2445 2.1005,-0.627c0.3249,-0.0969 1.8031,0.8493 2.2097,1.0346c0.7571,0.3448 1.0763,0.5994 1.7736,0.8246c1.6796,0.5443 4.1601,1.8183 5.8634,2.052c0.0019,0.0047 -0.0997,-0.0618 -0.1092,-0.0684c0.4341,0.0646 2.8205,0.4218 3.2841,0.4218c2.2933,0 3.1531,0.1805 5.4986,-0.1226c1.5846,-0.2052 3.0856,-0.4275 4.6227,-0.7771c0.609,-0.1368 2.66,-1.159 3.1132,-0.6963M225.1085,274.5706c0.0599,-0.2764 0.5178,-1.4877 0.2603,-1.5656c0.3506,-0.4227 0.0722,-0.7011 0.1387,-1.2692c0.1805,-1.5418 5.0531,-0.1615 6.7745,-0.7476c2.4253,-0.8218 4.9827,-1.1058 7.5002,-1.5124c2.6011,-0.4209 5.1927,-0.9263 7.7463,-1.5903c2.9222,-0.7591 5.9043,-1.6369 8.532,-3.1616c1.6805,-0.9776 3.0761,-2.2933 4.6151,-3.4637c0.323,-0.2442 1.1685,-1.2512 1.6549,-0.9253c0.2926,0.1966 -0.0466,2.0881 -0.0523,2.2762c-0.0779,2.2268 -0.152,4.2522 0.1577,6.4429c0.3126,2.2059 -0.4417,4.484 -0.0503,6.6918c0.0912,0.5234 -0.2413,1.2378 0.0465,1.672c0.3734,0.5624 0.3981,0.8863 0.3639,1.5789c-0.0238,0.4588 0.3733,0.6137 0.399,1.0241c0.0313,0.5339 0.5339,0.8046 0.9424,1.0972c0.5719,0.4114 0.6279,0.4912 0.6631,1.1932c0.0266,0.5691 -0.4437,1.2949 -0.5824,1.8734c-0.19,0.7885 -0.7077,1.5666 -0.7552,2.3931c-0.0285,0.5434 0.018,1.083 0.1463,1.6036c0.2802,1.1248 1.2103,2.5441 1.7632,3.5311c0.6925,1.236 0.5196,2.0872 0.4265,3.4286c-0.0256,0.3838 -0.1567,0.7885 -0.1852,1.1742c-0.02,0.2375 0.1206,0.6146 0.1168,0.7552c-0.0114,0.4304 0.7068,0.4674 0.9624,1.0517c0.2926,0.6707 1.0621,1.4981 1.3347,1.8411c0.6365,0.8113 0.7353,1.481 1.425,1.8002c0.684,1.4488 0.7904,0.4047 1.0745,1.711c0.1206,0.551 -0.096,0.4655 -0.3515,0.9576c-0.2442,0.455 -0.1397,1.3243 -0.456,1.7328c-0.2546,0.3287 -1.0403,2.1717 -1.1676,2.5925c-0.1548,0.5159 -0.8958,-1.2606 -1.7812,-0.4455c-0.3715,0.342 -0.2489,0.5529 -0.5786,0.9357c-0.36,0.4161 -0.5082,0.9538 -0.95,1.2711c-0.3904,0.2793 -0.4712,0.4019 -0.9538,0.5596c-0.4731,0.1529 -1.539,0.4474 -1.995,0.4047c-1.2806,-0.1226 -2.1802,-0.3449 -3.4561,-0.4047c-1.7014,-0.0817 -3.4162,-0.8702 -5.1623,-0.7885c-0.8531,0.0389 -1.1352,0.0095 -1.7974,0.2964c-0.5424,0.228 -2.2287,0.5472 -2.6666,0.9329c-0.38,0.3401 -0.8493,-0.096 -1.2949,0.1615c-0.2147,0.1225 -0.5301,-0.3544 -0.703,-0.1748c-0.0589,0.0608 -0.7106,0.399 -0.6992,0.3933c-0.5643,0.3087 -0.6954,0.3885 -1.3043,0.5719c-0.456,0.1387 -0.248,0.247 -0.703,0.2175c-0.4978,-0.0285 -0.8075,-0.0389 -1.3215,-0.1187c-1.1742,-0.1843 -2.5403,0.3762 -3.7126,0.1026c-1.6549,-0.3848 -3.0428,-0.3544 -4.1895,-1.1153c-0.6032,-0.3971 -2.1783,-0.7771 -2.8405,-1.0488c-0.8521,-0.3468 -2.0453,-0.7904 -2.8965,-1.1372c-1.2227,-0.494 -1.8744,-0.5529 -2.509,0.1387c-0.6536,0.7125 -0.5662,1.0184 -1.6976,1.6397c-0.8161,0.4522 -0.7942,1.1258 -1.6293,1.1628c-0.6032,0.6223 -0.3866,-0.418 -1.158,-1.4126c-0.9519,-1.2284 -1.5713,-3.7554 -0.2375,-4.7443c0.0722,-0.8417 -1.4022,-2.2905 -0.8826,-2.7911c0.4408,-0.4228 -1.0602,-1.178 -0.3287,-1.1951c-0.5852,-1.2578 -1.4193,-4.769 -0.9642,-5.6411c0.7571,-1.4488 1.0041,-1.6606 2.5232,-3.2101c0.9072,-0.9281 1.007,-0.494 1.007,-1.8981c0,-1.1837 -0.1254,-2.3009 -0.1254,-3.4675c0,-1.1561 0.1396,-2.2638 0.7533,-3.2376c0.6033,-0.9633 0.5235,-2.165 0.5767,-3.2936c0.0627,-1.3794 -0.6755,-3.2215 0,-4.4128c0.2707,-0.4807 0.2527,-1.0545 0,-1.5143" fill="#a17456"/><path d="M238.9329,227.4231c0.5786,0 1.0802,-0.019 1.5846,0.2042c0.7648,0.3382 0.533,0.4247 0.3392,1.0308c-0.3373,1.0706 -0.2242,2.1289 -0.6888,3.1711c-0.8018,1.7983 -1.5979,3.7686 -3.3677,4.8858c-1.2027,0.76 -2.3009,1.2797 -3.7202,1.4317c-0.6137,0.0655 -1.7271,0.2175 -1.9257,-0.3297c-0.1852,-0.5101 0.2803,-1.6644 0.6194,-2.0007c1.6473,0.8455 3.7687,-1.2188 4.8042,-2.488c0.6308,-0.7724 0.8778,-1.6796 1.3024,-2.5308c0.4513,-0.9054 0.3563,-1.8326 0.7182,-2.7512c0.1055,-0.267 0.1387,-0.5282 0.4693,-0.5472" fill="#4e3a78"/><path d="M265.3097,232.6756c0.1263,0.5938 0.0513,1.2835 0.0513,1.9c0,0.3544 -0.0304,0.7268 0,1.0792c0.0266,0.2784 0.152,0.5833 0.0959,0.8645c-0.9167,-0.0199 -1.709,-1.7366 -2.0339,-2.4576c-0.2223,-0.494 -0.4304,-0.7667 -0.7714,-1.1809c-0.343,-0.4132 -0.267,-0.874 -0.3715,-1.3841c-0.1577,-0.7695 -0.0969,-1.6217 -0.2156,-2.4111c-0.0855,-0.5558 -0.1473,-0.7648 0.4835,-0.912c0.3392,-0.0798 0.9966,-0.1853 1.1704,0.0893c0.1416,0.2299 0.0133,0.949 0.0874,1.235c0.0969,0.3771 0.2128,0.7818 0.3601,1.1305c0.1748,0.4113 0.2802,0.551 0.3211,1.0241c0.0237,0.2821 0.4208,1.4573 0.7182,1.0782" fill="#4e3a78"/><path d="M219.2033,201.1936c0.0504,-0.4532 -0.2432,-0.874 -0.3933,-1.3006c-0.2128,-0.589 -0.1767,-1.0345 -0.1149,-1.6463c0.0608,-0.6289 -0.0732,-0.9016 -0.1862,-1.4478c-0.2147,-1.0431 0.0741,-2.2382 0.2356,-3.2253c0.1634,-0.9965 0.4645,-1.9085 0.7571,-2.8823c0.3268,-1.0934 0.3411,-2.0311 0.1359,-3.1559c-0.2062,-1.1276 -0.6603,-1.9779 -0.4807,-3.1787c0.1605,-1.0773 0.4598,-2.1289 0.7733,-3.1597c0.323,-1.0754 0.5529,-1.9722 1.1485,-2.9583c0.59,-0.9747 1.3604,-1.7081 2.1565,-2.5042c1.654,-1.6473 3.2823,-3.5558 5.4777,-4.5277c2.1166,-0.9376 4.2579,-2.7037 6.6776,-2.6191c0.2175,0.3239 0.3325,0.949 0.5291,1.2901c0.2689,0.4683 0.8446,0.8284 1.1685,1.2416c0.7325,0.9301 1.0878,1.0773 1.8706,1.5504c0.9148,0.552 2.0577,1.0773 3.0191,1.5229c1.0982,0.5101 2.4681,1.0716 3.7069,0.816c0.8179,-0.1691 2.3864,-1.0393 2.7179,-1.8952c0.3781,-0.9785 -0.8369,-1.8278 -1.6549,-1.9333c-0.3429,-1.6406 1.1657,-0.5396 1.5609,-0.3952c0.8274,0.304 1.8088,0.6479 2.5327,0.9082c1.2435,0.4484 2.0301,0.9899 3.0571,1.7528c0.8683,0.6422 1.9133,1.1181 2.7122,1.8411c0.8465,0.7638 1.178,1.6245 1.5162,2.6172c0.4085,1.198 0.7904,2.2981 1.1058,3.4884c0.6565,2.4786 1.4649,4.7852 3.0305,6.8552c0.7135,0.9424 1.1875,1.7252 1.1951,2.889c0.0114,1.2511 -1.2663,2.241 -0.0465,3.2385c0.417,0.343 0.8274,0.5919 0.9348,1.1685c0.1026,0.5425 -0.0076,0.9396 -0.0352,1.4507c-0.0266,0.5624 0.2964,1.3148 0.7591,1.5855c0.6374,0.3734 0.8616,-0.0294 0.4123,0.7676c-0.5985,1.0564 -1.6882,2.1375 -2.7161,2.7398c-0.9262,0.5425 -2.3569,0.8066 -3.4057,0.9529c0.0722,0.6669 0.494,1.2768 0.74,1.9199c0.2603,0.6726 0.6147,1.1999 0.7505,1.8782c4.0052,7.6009 2.2335,8.2469 2.1831,8.2146l1.0906,1.7898c-0.3876,1.064 -1.5532,3.1939 0.0589,5.9024c0.6555,1.102 -7.6266,2.4643 -8.5842,2.4567c-1.7537,-0.0133 -2.2733,0.1757 -4.0365,0.1757c-1.0089,0 -4.0375,-0.3515 -4.9543,-0.6004c-1.7128,-0.4655 -5.6297,-2.1812 -6.5835,-2.3968c-1.7613,-0.4 -3.3487,-2.8586 -4.9096,-0.8712c-0.2156,0.2746 -1.6701,-2.8547 -1.5751,-3.4323c0.1378,-0.8151 1.3728,-4.9524 2.585,-6.3137c0.2783,-0.4304 0.5842,-0.8892 0.5234,-1.388c-0.1035,-0.8464 -0.7866,-1.957 -1.405,-2.5203c-0.9168,-0.8332 -0.7296,-1.654 -0.1786,-2.5812c1.1229,-1.8838 0.1653,-4.389 -0.7705,-6.1009c-0.6108,-1.1143 -1.2967,-2.317 -2.2429,-3.1635c-0.8417,-0.7524 -1.52,-2.0919 -2.4596,-2.6837c-0.0389,1.0003 0.0931,2.3645 0.0931,3.4076c0,0.6014 0.0333,0.9386 0.3116,1.4516c0.19,0.3496 0.6014,1.3205 0.646,1.711c0.0504,0.4503 -0.5719,0.455 -0.4341,0.741c0.0617,0.1273 0.911,0.2375 1.082,0.3429c1.0374,0.6451 1.9,1.3452 1.4773,2.7332c-0.1226,0.4075 -0.4513,1.0326 -0.7771,1.3157c-0.5339,0.4627 -0.7163,0.0038 -1.3139,-0.0693c-1.102,-0.1349 -2.4006,0.8094 -2.9488,1.6473c-0.5937,0.9101 -1.5998,1.7926 -1.6625,2.8984c-0.0551,0.9795 0.4047,2.0862 1.1932,2.6334c-0.3353,0.2993 -0.9661,0.552 -1.4155,0.6783c-0.6526,0.1824 -1.4981,0.2584 -2.1251,0.1967c-1.4184,-0.1397 -2.0653,-0.5178 -2.87,-1.7157c-0.4199,-0.6242 -0.7229,-0.9823 -0.7723,-1.7271c-0.0352,-0.5425 0,-1.1011 0,-1.6454c0,-0.8579 -0.0124,-0.7192 -0.5881,-1.1343c-0.4788,-0.3458 -0.5016,-0.7106 -0.6754,-1.2341c-0.3135,-0.9538 -0.4893,-2.0225 -0.1691,-3.0276c0.1349,-0.4237 0.5158,-0.9158 0.5595,-1.3357z" fill="#4e3a78"/><path d="M244.3099,313.3373c-1.1618,1.5865 -2.85,2.0862 -4.7015,2.4595c-2.2876,0.456 -4.1154,1.672 -6.2529,2.5441c-2.6762,1.0925 -5.5423,0.7439 -8.3144,0.2356c-1.6682,-0.3078 -5.2307,-0.8056 -5.739,-2.8652c-0.323,-1.3062 1.4117,-2.2876 2.3342,-2.7369c0.8778,-0.4256 1.7926,-0.7429 2.6106,-1.2863c1.1333,-0.7515 1.937,-1.7594 3.1483,-2.4273c0.1729,-0.0969 0.6308,0.1425 0.3971,0.2746c-1.6511,0.9129 -2.8073,2.3883 -4.542,3.1768c-1.2122,0.5491 -3.4789,1.2521 -3.4551,2.9108c0.0313,2.0729 4.8868,2.5849 6.2804,2.7911c2.9764,0.4436 5.359,0.3971 8.17,-0.9168c1.6293,-0.759 2.9726,-1.5979 4.7481,-1.9589c1.8801,-0.379 3.648,-0.7799 4.8488,-2.4177c0.1207,-0.1606 0.609,0.0237 0.4674,0.2166zM243.6848,317.0774c-1.9503,0.3696 -3.7126,1.1267 -5.3219,2.2895c-1.2416,0.8978 -2.1394,1.9855 -3.5815,2.5992c-2.6381,1.1191 -5.9204,0.7458 -8.6906,0.4883c-1.6188,-0.1539 -3.2366,-0.3657 -4.8488,-0.5719c-0.7514,-0.0969 -1.652,-0.247 -2.2724,-0.7239c-1.9266,-1.4839 -0.6735,-4.807 0.4826,-6.3697c0.096,-0.134 0.5862,0.0389 0.4731,0.1928c-1.3043,1.7604 -2.5593,5.6943 0.4114,6.4866c1.2169,0.3268 2.5536,0.3544 3.8019,0.5064c1.4145,0.1748 2.8262,0.3135 4.2512,0.3781c2.9222,0.132 5.9803,0.0313 8.2289,-2.0834c1.9152,-1.7964 4.1658,-2.9668 6.7517,-3.4551c0.1491,-0.0266 0.5966,0.209 0.3144,0.2631zM243.7979,316.8656c0.0152,0.0199 0.0275,0.0427 0.0427,0.057c-0.1463,-0.0371 -0.2935,-0.0779 -0.4379,-0.1169c0.3543,-0.1463 0.5377,-1.0592 0.6232,-1.3746c0.247,-0.931 0.0741,-1.8687 -0.3135,-2.7294c-0.1055,-0.2356 0.4047,-0.1852 0.4769,-0.0199c0.3895,0.8683 0.5415,1.7204 0.3914,2.6647c-0.0665,0.4266 -0.3021,1.5219 -0.7771,1.7205c-0.1387,0.0608 -0.3506,0.0152 -0.438,-0.115c-0.0152,-0.018 -0.0294,-0.0427 -0.0446,-0.0627c-0.1387,-0.2052 0.3771,-0.17 0.4769,-0.0237z" fill="#010101"/><path d="M277.7376,311.7916c0.0817,2.7028 -0.1245,5.6022 -3.2367,6.2776c-0.1786,0.039 -0.6023,-0.2337 -0.3049,-0.2964c2.9887,-0.6498 3.1074,-3.496 3.0314,-6.0363c-0.0076,-0.2299 0.5045,-0.1301 0.5102,0.0551zM248.7094,313.5909c-0.3933,1.1562 -0.4161,2.0558 -0.1435,3.2462c-0.1377,-0.0475 -0.2764,-0.096 -0.4161,-0.1425c0.6935,-0.0257 1.444,0.3249 2.128,0.4474c1.3414,0.2432 2.7151,0.2575 4.0736,0.2242c2.3902,-0.0608 4.7614,-0.4151 7.1516,-0.4949c1.71,-0.0551 3.4029,0.303 5.0284,0.8065c2.7474,0.8503 5.3114,1.1647 8.0484,0.076c0.1387,-0.056 0.513,0.1558 0.4807,0.1701c-1.6787,0.6669 -3.4514,0.8654 -5.2459,0.7305c-0.7201,-0.0532 -1.4526,-0.2166 -2.1413,-0.4341c-1.7727,-0.5691 -3.4723,-1.0792 -5.3504,-1.1486c-2.5375,-0.0912 -5.1015,0.3933 -7.6361,0.494c-1.102,0.0456 -2.2012,0 -3.2984,-0.1064c-0.9225,-0.0921 -2.0074,-0.5975 -2.9042,-0.5643c-0.0798,0.0038 -0.3933,-0.0389 -0.4161,-0.1444c-0.2707,-1.177 -0.2593,-2.1356 0.134,-3.2917c0.0361,-0.1112 0.5367,0.0427 0.5073,0.132zM253.5221,313.0608c1.6843,-0.4009 3.4238,0.2565 5.0226,0.7372c2.2962,0.6945 4.5923,1.3433 6.9873,1.5884c2.0748,0.2109 4.1838,0.1777 6.2253,-0.2546c1.0032,-0.2137 1.9599,-0.5823 2.8519,-1.082c0.4152,-0.2318 2.7161,-1.8164 2.3969,-2.4748c-0.1188,-0.2489 0.3952,-0.2166 0.4807,-0.037c0.2679,0.5586 -0.5282,1.1362 -0.8645,1.5162c-0.6118,0.6811 -1.4051,1.1818 -2.2154,1.5922c-1.8202,0.9205 -3.9596,1.158 -5.9708,1.1989c-2.0292,0.0408 -4.0688,-0.1948 -6.0439,-0.646c-1.3252,-0.3002 -2.621,-0.7296 -3.9311,-1.0906c-1.4858,-0.4133 -3.0742,-1.1039 -4.6388,-0.7325c-0.1929,0.0447 -0.6014,-0.2441 -0.3002,-0.3154zM253.8926,313.3696c-1.6825,0.113 -3.7288,1.2673 -5.3238,0.2612c-0.2917,-0.1814 0.1444,-0.2954 0.3249,-0.1814c1.31,0.8236 3.3915,-0.305 4.8098,-0.4009c0.2157,-0.0143 0.5349,0.2983 0.1891,0.3211zM277.4288,311.6976c-3.2775,-0.8911 -7.201,-1.1448 -9.9294,-3.3678c-0.2213,-0.1805 0.2869,-0.171 0.4057,-0.0722c2.6001,2.1176 6.4533,2.3513 9.5874,3.2025c0.303,0.0836 0.2394,0.3211 -0.0637,0.2375zM249.2091,311.6643c-0.6156,0.6992 -0.666,1.3842 -0.5748,2.2753c0.019,0.1843 -0.4921,0.0798 -0.5063,-0.0684c-0.095,-0.9348 -0.0352,-1.6635 0.6089,-2.395c0.1026,-0.1206 0.5871,0.0589 0.4722,0.1881z" fill="#010101"/><path d="M238.8474,227.3024c0.7686,0.0352 1.4953,0.1872 2.243,0.3715c0.0332,0.0085 0.1852,0.0456 0.1786,0.1016c-0.3525,2.8348 -1.444,6.0544 -3.306,8.266c-1.5922,1.8876 -4.4517,2.2515 -6.7488,1.956c-0.0903,-0.0133 -0.418,-0.171 -0.172,-0.1377c2.9688,0.3762 5.7589,-0.5007 7.372,-3.1046c0.7182,-1.1543 1.236,-2.432 1.6825,-3.7107c0.2204,-0.6365 0.3933,-1.2882 0.5491,-1.9428c0.0541,-0.2441 0.1035,-0.4873 0.1444,-0.7324c0.1691,-0.9168 -1.0944,-0.8978 -1.692,-0.9244c-0.0722,-0.0047 -0.4303,-0.152 -0.2508,-0.1425zM239.0745,227.3357c-0.2024,2.6552 -1.4716,5.4995 -3.5207,7.2342c-0.7885,0.666 -3.0362,2.4748 -4.0233,1.1913c-0.1463,-0.1909 0.2176,-0.228 0.3154,-0.0988c0.8959,1.1676 3.7725,-1.5789 4.3235,-2.1555c1.4772,-1.5447 2.3655,-4.1762 2.5251,-6.2738c0.0104,-0.1615 0.3942,-0.0722 0.38,0.1026zM263.9426,227.8829c0.0941,1.7423 0.4256,3.4637 1.3329,4.9808c0.0997,0.1682 -0.2879,0.1473 -0.361,0.0247c-0.9158,-1.5361 -1.2588,-3.2775 -1.3557,-5.0445c-0.0095,-0.1786 0.3753,-0.1092 0.3838,0.039zM263.7954,228.0254c-0.7068,0.0408 -1.7632,-0.0171 -1.6435,0.9338c0.0646,0.5007 0.1558,0.9994 0.2508,1.4953c0.1976,1.0393 0.4978,2.0558 0.8892,3.0381c0.3752,0.95 1.0117,1.71 1.5741,2.5489c0.2033,0.3011 -0.0617,0.1026 -0.0057,0.1007c0.1701,-0.0019 0.3449,0.0579 0.5045,0.1054c0.2213,0.0637 0.1843,0.21 -0.039,0.1435c-0.9424,-0.2784 -1.0877,-0.7144 -1.7271,-1.6378c-1.2739,-1.844 -1.6606,-4.37 -1.9066,-6.5465c-0.0038,-0.0294 0.0057,-0.0437 0.0332,-0.0513c0.6156,-0.1501 1.1942,-0.2688 1.8288,-0.3049c0.0931,-0.0038 0.4417,0.1643 0.2413,0.1748z" fill="#010101"/><path d="M259.9004,234.6877c-3.934,0.9994 -7.1412,3.2025 -9.8202,6.2159c-0.0646,0.0703 -0.4208,-0.0608 -0.3581,-0.134c2.6885,-3.0257 5.9213,-5.2297 9.8667,-6.2339c0.0893,-0.0237 0.4275,0.1235 0.3116,0.152zM235.8549,221.0191c-0.494,1.1799 -0.7666,2.3779 -1.0925,3.6081c-0.4987,1.8829 -1.1599,3.7259 -1.6682,5.6107c-1.0146,3.7687 -1.7508,7.6076 -2.2971,11.4703c-0.0218,0.1615 -0.5329,0.0466 -0.5082,-0.1377c0.5234,-3.705 1.2359,-7.3777 2.1707,-10.9991c0.4969,-1.92 1.0688,-3.8171 1.6825,-5.7c0.436,-1.3338 0.6564,-2.6838 1.2027,-3.9881c0.0722,-0.171 0.5728,-0.0143 0.5101,0.1358zM263.803,223.4131c0.7001,1.7784 0.9167,3.6252 1.1894,5.5053c0.3363,2.299 0.57,4.6113 0.6925,6.9283c0.229,4.427 -0.1235,8.8711 -1.2188,13.1699c-0.0532,0.2071 -0.5624,0.0722 -0.5083,-0.1378c1.0507,-4.1306 1.3842,-8.3438 1.2369,-12.5951c-0.076,-2.1508 -0.2973,-4.294 -0.5738,-6.4258c-0.2802,-2.1574 -0.4949,-4.3709 -1.2986,-6.4106c-0.0988,-0.2527 0.4104,-0.2156 0.4807,-0.0342zM230.7192,241.6636c-0.0703,2.4814 -0.9034,4.9485 -1.2872,7.3929c-0.4855,3.0609 -1.0403,6.0885 -1.6768,9.1209c-0.6327,2.9973 -1.0393,6.0287 -1.4088,9.0678c-0.1967,1.6273 -0.4104,3.2547 -0.5862,4.8849c-0.1852,1.6948 -0.6545,3.3658 -0.6992,5.073c-0.0076,0.2479 -0.5177,0.1539 -0.5139,-0.0485c0.0351,-1.2834 0.3182,-2.5184 0.5339,-3.7791c0.2707,-1.5789 0.3752,-3.1986 0.5738,-4.7908c0.3828,-3.0638 0.741,-6.1285 1.3157,-9.1675c0.5748,-3.0343 1.2483,-6.0382 1.7309,-9.0906c0.2261,-1.4326 0.4266,-2.868 0.7344,-4.2845c0.3173,-1.4582 0.7296,-2.9241 0.7714,-4.427c0.0047,-0.2479 0.5177,-0.152 0.512,0.0485zM264.5193,249.0137c-0.1321,1.3775 -0.7553,2.7417 -1.0317,4.1107c-0.3382,1.6587 -0.59,3.3383 -0.7619,5.0207c-0.3629,3.573 -0.419,7.1725 -0.3259,10.7597c0.0504,1.9209 0.0646,3.8466 0.1786,5.7656c0.1188,1.9864 0.2451,4.3671 1.3737,6.0762c0.1378,0.2118 -0.3771,0.1786 -0.4769,0.0228c-1.0393,-1.5723 -1.2046,-3.6499 -1.3604,-5.4787c-0.1814,-2.1413 -0.1615,-4.2978 -0.2261,-6.4448c-0.1016,-3.2718 -0.0256,-6.5493 0.2356,-9.8154c0.1359,-1.6976 0.3705,-3.3782 0.666,-5.0549c0.1444,-0.8199 0.3163,-1.6397 0.4968,-2.451c0.2024,-0.9054 0.6346,-1.7176 0.723,-2.6496c0.019,-0.1871 0.5291,-0.0722 0.5092,0.1387zM263.0667,280.4464c0.7999,0.2574 1.7813,0.5624 1.9352,1.5019c0.0845,0.5159 -0.1691,1.1277 -0.3088,1.6112c-0.303,1.0536 -0.6099,2.1147 -0.873,3.1797c-0.2765,1.1115 -0.0931,1.5846 0.5766,2.4624c0.6137,0.8065 1.0393,1.6625 1.3433,2.6305c0.5263,1.6749 0.4532,3.5217 -0.0199,5.1946c-0.0285,0.1083 -0.5349,-0.0304 -0.5054,-0.1387c0.4455,-1.5846 0.4788,-3.1796 0.1206,-4.787c-0.1643,-0.7315 -0.4655,-1.4212 -0.8179,-2.0786c-0.3496,-0.6489 -1.0583,-1.0963 -1.388,-1.7015c-0.2574,-0.4788 0.1682,-1.6663 0.2879,-2.1517c0.2023,-0.8189 0.455,-1.6331 0.6802,-2.4472c0.4417,-1.6017 0.7486,-2.5422 -1.2056,-3.173c-0.3448,-0.1083 -0.0142,-0.1634 0.1748,-0.1026zM251.738,271.4147c-0.1815,1.6483 -0.3078,3.3041 -0.5102,4.9524c-0.2137,1.728 -0.7049,3.382 -1.0497,5.0834c-0.5862,2.8738 -0.609,5.8577 -0.9187,8.7638c-0.019,0.1757 -0.4009,0.0826 -0.38,-0.1007c0.3097,-2.9156 0.38,-5.871 0.9168,-8.7647c0.2964,-1.6017 0.7733,-3.1521 1.0089,-4.7671c0.2527,-1.7471 0.36,-3.5141 0.5529,-5.2678c0.018,-0.1757 0.3999,-0.0826 0.38,0.1007zM255.785,236.4775c-0.4769,2.5926 -0.6422,5.2212 -1.1429,7.8185c-0.5472,2.8282 -0.9699,5.6763 -1.5105,8.5054c-1.1865,6.2044 -1.4611,12.3072 -1.3946,18.6133c0.0019,0.1045 -0.3781,0.038 -0.38,-0.1007c-0.0646,-6.1322 0.1577,-12.1068 1.3044,-18.144c0.5443,-2.8643 0.9785,-5.7428 1.5295,-8.607c0.5234,-2.7199 0.7144,-5.4768 1.2131,-8.19c0.0219,-0.1168 0.4057,-0.0237 0.381,0.1045zM249.2366,238.9361c2.0929,-0.4047 3.6946,-2.0577 5.7475,-2.6125c0.1169,-0.0294 0.4494,0.1454 0.2356,0.2043c-2.0558,0.5548 -3.647,2.204 -5.7475,2.6125c-0.1168,0.0199 -0.4493,-0.1615 -0.2356,-0.2043zM248.8766,300.5246c0.5605,-0.9129 1.2046,-1.7679 1.7423,-2.6989c0.2878,-0.4931 0.531,-1.0137 0.6792,-1.5685c0.2043,-0.76 -0.4693,-1.5589 -0.8217,-2.165c-0.7553,-1.292 -1.1875,-2.5365 -1.5998,-3.9596c-0.0352,-0.1226 0.3467,-0.0656 0.38,0.0532c0.1833,0.6355 0.2964,1.2673 0.5396,1.8819c0.4284,1.0925 1.0573,2.0368 1.6273,3.0543c1.0042,1.7936 -1.291,4.0764 -2.165,5.5043c-0.0722,0.1187 -0.4342,-0.0143 -0.3819,-0.1017zM267.8652,308.592c-0.3525,-0.4104 -0.2214,-0.6137 -0.8921,-0.2223c-0.4047,0.2356 -0.6241,0.8123 -0.8265,1.2056c-0.4569,0.8882 -1.1105,1.3879 -2.0453,1.7014c-2.3218,0.7743 -4.9552,0.0523 -7.2656,-0.4018c-1.445,-0.2841 -3.1673,-0.6527 -4.6303,-0.2917c-0.7961,0.1967 -1.5637,0.5681 -2.3361,0.8408c-0.6678,0.2356 -2.3826,0.9462 -2.8281,-0.02c-0.1226,-0.2584 0.3914,-0.2517 0.4845,-0.0532c0.3325,0.7192 3.9187,-0.9889 4.5296,-1.1381c2.0776,-0.5139 4.5324,0.2622 6.5692,0.6536c1.4735,0.2822 2.9479,0.456 4.4422,0.2432c1.4697,-0.208 2.2154,-0.9984 2.8576,-2.2287c0.2622,-0.5006 0.6869,-0.9642 1.2673,-1.0725c0.6916,-0.1302 0.6812,0.1548 1.0973,0.6422c0.2071,0.2403 -0.2803,0.3125 -0.4237,0.1415zM265.7714,296.8206c0.9243,0.7752 1.6463,1.9133 2.393,2.8547c0.9225,1.1638 1.8012,2.3589 2.6448,3.5825c0.1093,0.1596 -0.3885,0.0893 -0.4645,-0.0219c-0.6802,-0.9889 -1.3899,-1.957 -2.1204,-2.9089c-0.8702,-1.1295 -1.7547,-2.5441 -2.8462,-3.4637c-0.2128,-0.1795 0.2945,-0.1244 0.3933,-0.0427zM270.832,303.3148c-0.3135,0.969 -0.5899,1.9475 -0.9281,2.9051c-0.3002,0.8455 -0.6565,2.0273 -1.445,2.5536c-0.1149,0.076 -0.5358,-0.1321 -0.4816,-0.1691c0.7704,-0.5178 1.1124,-1.6958 1.4164,-2.5213c0.3525,-0.9557 0.6147,-1.9371 0.9301,-2.9061c0.0332,-0.1035 0.5377,0.0475 0.5082,0.1378zM224.3561,304.0387c-0.9129,1.0982 -1.8183,2.1451 -2.6239,3.3259c-0.0836,0.1216 -0.5434,-0.0817 -0.5082,-0.1377c0.8075,-1.1818 1.709,-2.2268 2.6239,-3.3269c0.0978,-0.1188 0.5405,0.0997 0.5082,0.1387zM221.7332,307.3637c-0.7458,2.128 1.1951,3.0685 1.8762,4.7775c0.1093,0.2755 -0.4028,0.2755 -0.4902,0.0589c-0.323,-0.8122 -1.0573,-1.4639 -1.5257,-2.1964c-0.5491,-0.8578 -0.7068,-1.8126 -0.3705,-2.7778c0.0846,-0.2356 0.5919,-0.0921 0.5102,0.1378zM220.4488,296.1204c-0.0855,3.3231 1.0697,6.8495 2.1612,9.957c0.0428,0.1225 -0.4541,0.0589 -0.5025,-0.0817c-1.1001,-3.1303 -2.2544,-6.6652 -2.167,-10.014c0.0038,-0.1092 0.5121,-0.0228 0.5083,0.1387zM219.9329,296.1594c0.8332,-1.5761 2.243,-2.7009 3.4476,-3.9777c0.113,-0.1187 0.5937,0.0608 0.475,0.191c-1.1875,1.2578 -2.5926,2.3674 -3.4143,3.9225c-0.0855,0.1606 -0.5748,-0.0114 -0.5083,-0.1358zM223.3634,292.2083c-0.0019,-2.0985 -0.4978,-4.3548 0.2137,-6.3726c0.4921,-1.3974 0.9405,-2.6334 1.0593,-4.1315c0.1187,-1.5238 -0.0285,-3.0685 -0.0874,-4.5942c-0.0038,-0.058 0.5006,0 0.5082,0.1368c0.1159,2.9488 0.2584,5.6249 -0.8512,8.4151c-0.8445,2.1204 -0.3344,4.4536 -0.3344,6.6832c0.001,0.0637 -0.5082,-0.0047 -0.5082,-0.1368zM247.405,308.612c0.8588,-1.5723 2.1964,-2.7845 3.3564,-4.1268c0.0969,-0.1112 0.4598,0.0285 0.3524,0.1558c-1.158,1.3423 -2.4975,2.5545 -3.3563,4.1268c-0.0684,0.1225 -0.438,-0.001 -0.3525,-0.1558zM250.7471,304.5412c-0.6536,-1.7423 -1.4753,-3.3943 -2.4234,-4.9932c-0.095,-0.1615 0.2897,-0.1282 0.3562,-0.0171c0.9595,1.6179 1.7889,3.2918 2.4491,5.0521c0.0504,0.1387 -0.3344,0.0912 -0.3819,-0.0418zM244.9968,312.6409c-2.9127,0.2822 -5.776,0.2043 -8.6061,-0.588c-1.4231,-0.4009 -2.7939,-1.0156 -4.1762,-1.5362c-0.7581,-0.2821 -1.5095,-0.5795 -2.2534,-0.8949c-0.9908,-0.4199 -2.1061,-1.0526 -2.8414,0.2176c-0.095,0.1653 -0.5881,-0.0038 -0.4693,-0.21c1.2046,-2.0814 4.2465,0.0608 5.7741,0.6403c2.0748,0.7866 4.1002,1.6274 6.2994,1.9941c2.0093,0.3372 4.0651,0.2527 6.0838,0.0589c0.2166,-0.0238 0.532,0.2859 0.1891,0.3182zM244.7222,312.3626c0.8294,-0.0238 1.5808,-0.6118 2.0748,-1.2417c0.5102,-0.6488 0.514,-1.7622 0.5377,-2.5507c0.0038,-0.1378 0.514,-0.0428 0.5102,0.1368c-0.0276,0.9443 -0.0855,1.9864 -0.6888,2.7512c-0.5196,0.6593 -1.3879,1.1381 -2.2306,1.1656c-0.1719,0.0038 -0.5462,-0.2527 -0.2033,-0.2612z" fill="#010101"/><path d="M231.4545,205.1104c0.9766,0.609 1.5371,1.9665 2.2525,2.851c0.8854,1.0925 1.8259,2.1413 2.6847,3.2547c0.1909,0.2517 -0.2936,0.2869 -0.419,0.1225c-0.7847,-1.0165 -1.6311,-1.9845 -2.4529,-2.9716c-0.3676,-0.4446 -0.7277,-0.8958 -1.0763,-1.3585c-0.4228,-0.5614 -0.6954,-1.3129 -1.3196,-1.7005c-0.2907,-0.1833 0.1416,-0.3163 0.3306,-0.1976zM226.4813,210.9529c1.177,1.3851 3.1321,2.5565 4.6626,3.5606c1.0022,0.6565 1.9,1.3804 2.7977,2.1803c0.2204,0.1976 -0.284,0.1966 -0.4104,0.0855c-1.0374,-0.9253 -2.1118,-1.6872 -3.2452,-2.4795c-1.4326,-1.0013 -3.1378,-1.9922 -4.2807,-3.3355c-0.1444,-0.171 0.3677,-0.1368 0.476,-0.0114z" fill="#010101"/><path d="M264.2875,201.0254c0.3876,1.2407 0.6327,2.5099 1.0754,3.7345c0.1007,0.2802 -0.4095,0.2802 -0.4893,0.0627c-0.4417,-1.2265 -0.6868,-2.4928 -1.0744,-3.7354c-0.0865,-0.2831 0.4199,-0.2822 0.4883,-0.0618zM265.3733,204.5119c0.0029,2.489 -1.1685,3.896 -2.8405,5.5566c-0.0864,0.0874 -0.5415,-0.1045 -0.4797,-0.1663c1.6758,-1.6625 2.8158,-3.0561 2.812,-5.5242c0,-0.0646 0.5082,0.0019 0.5082,0.1339z" fill="#010101"/><path d="M246.7628,170.0003c3.5815,1.1315 7.202,2.7493 10.0985,5.1823c0.2204,0.1862 -0.2859,0.1719 -0.4047,0.0722c-2.7996,-2.3522 -6.2966,-3.9216 -9.7584,-5.016c-0.2973,-0.0941 -0.2375,-0.3335 0.0646,-0.2385zM253.1677,178.5532c0.9738,2.0301 2.7113,3.5824 3.478,5.7199c0.4921,1.369 0.2954,2.8624 0.1377,4.2703c-0.2185,1.9703 -0.4398,3.8969 -0.0741,5.8653c1.2379,6.6272 4.9486,12.4953 7.0063,18.8537c0.0655,0.2061 -0.4503,0.1406 -0.5121,-0.0523c-1.0117,-3.1321 -2.3959,-6.1085 -3.705,-9.1228c-1.2464,-2.8652 -2.2173,-5.7988 -3.0723,-8.8027c-0.9718,-3.4058 0.3506,-6.631 -0.0484,-10.0311c-0.304,-2.5982 -2.6049,-4.4099 -3.6898,-6.6699c-0.1169,-0.2404 0.3961,-0.2052 0.4797,-0.0304zM263.7194,213.2529c-0.0019,0.3477 -0.0067,0.6773 -0.0589,1.0193c-0.0722,0.4722 -0.552,0.646 -0.1387,1.0631c0.5177,0.5272 0.892,1.4573 0.7657,2.1992c-0.1454,0.8588 -0.8921,1.5162 -0.8341,2.3712c0.0665,1.0108 0.5538,1.6511 0.9756,2.5023c0.7382,1.4868 -3.724,2.1907 -4.4488,2.338c-3.3545,0.683 -6.9341,1.0355 -10.3522,0.7628c-2.2971,-0.1824 -4.522,-0.8493 -6.6614,-1.6748c-1.2483,-0.4807 -2.4624,-1.0479 -3.6717,-1.615c-0.6869,-0.3211 -1.3709,-0.6479 -2.0577,-0.97c-0.6498,-0.304 -0.8873,-0.303 -1.4915,-0.1206c-0.2318,0.0703 -0.5995,-0.2641 -0.2898,-0.3582c0.5273,-0.1586 0.5605,-0.4484 1.1096,-0.2555c1.0108,0.3553 1.9893,0.9262 2.9593,1.3822c2.3987,1.1315 4.8317,2.1755 7.4204,2.7949c3.5198,0.8427 7.2685,0.5149 10.8129,0.0143c1.4991,-0.2119 2.9992,-0.494 4.4451,-0.951c0.7144,-0.227 2.1204,-0.5985 1.5494,-1.4677c-0.6365,-0.969 -1.2141,-2.4786 -0.5215,-3.5321c0.5025,-0.7591 0.6612,-1.4697 0.4047,-2.3522c-0.1482,-0.5007 -0.646,-0.7857 -0.8351,-1.217c-0.0275,-0.0646 -0.0551,-0.1919 -0.0351,-0.2603c0.1672,-0.6279 0.436,-0.9984 0.4379,-1.7062c0,-0.2774 0.5178,-0.209 0.5159,0.0333zM234.0813,184.0404c-0.2784,1.1447 -1.0906,2.5289 -2.3313,2.7749c-0.1796,0.0352 -0.3905,-0.2118 -0.1387,-0.2622c1.1096,-0.2194 1.8439,-1.6159 2.089,-2.6153c0.039,-0.1653 0.4218,-0.0646 0.381,0.1026zM231.9343,186.6871c-1.064,0.9015 -1.3177,2.6999 -1.8392,3.9548c-0.6745,1.634 -0.2356,2.9868 -0.0998,4.6512c0.0494,0.5938 -0.113,1.2027 -0.1396,1.7936c-0.0247,0.6137 0.2964,1.1467 0.6099,1.6473c0.512,0.8284 0.5567,1.5609 -0.3059,2.1271c-0.1416,0.0931 -0.4769,-0.1017 -0.2945,-0.2204c1.3803,-0.9073 -0.342,-2.3646 -0.3952,-3.5825c-0.0238,-0.5928 0.1301,-1.2027 0.1406,-1.7945c0.0123,-0.7239 -0.2214,-1.4706 -0.3297,-2.1831c-0.1966,-1.3139 0.4285,-2.5118 0.9111,-3.6898c0.4389,-1.0735 0.5168,-2.1366 1.4468,-2.926c0.1321,-0.1083 0.4646,0.0798 0.2955,0.2223zM226.8309,198.1013c-2.622,-0.3543 -5.9622,0.3401 -7.1782,2.9536c-0.0285,0.0598 -0.2755,-0.0257 -0.2565,-0.0684c1.2378,-2.661 4.6569,-3.3469 7.3216,-2.9878c0.0646,0.0105 0.2793,0.1245 0.1131,0.1026zM230.1844,200.521c1.3167,0.1586 2.6514,1.1134 2.7873,2.5061c0.0997,1.006 -0.1872,2.4861 -1.4583,2.3816c-0.1615,-0.0152 -0.5434,-0.2859 -0.2052,-0.2574c0.9101,0.076 1.1011,-0.9833 1.159,-1.6739c0.1159,-1.3395 -0.8151,-2.5432 -2.1992,-2.7113c-0.2356,-0.0276 -0.438,-0.2879 -0.0836,-0.2451zM231.4792,205.5161c-0.323,-1.274 -2.7037,0.3619 -3.059,0.6669c-0.531,0.455 -0.9709,1.025 -1.3509,1.6055c-0.8721,1.3338 -1.3566,3.1758 0.3582,4.0726c0.0741,0.038 0.1501,0.1416 0.0465,0.1948c-1.0782,0.532 -1.8506,1.063 -3.1065,1.0393c-1.1799,-0.0228 -2.356,-0.5282 -3.2376,-1.2977c-1.0811,-0.9472 -1.4506,-2.6724 -1.2692,-4.0337c0.2309,-1.7281 1.6958,-3.0077 3.1008,-3.8456c0.1397,-0.0836 0.6109,0.1206 0.4066,0.2432c-2.698,1.6093 -4.4517,5.2639 -1.6036,7.7567c0.7315,0.6394 1.7832,0.8816 2.7275,0.9006c0.8274,0.0162 1.2549,-0.3543 1.937,-0.6916c0.5776,-0.2859 0.5985,-0.1244 0.1007,-0.4712c-0.2546,-0.1767 -0.512,-0.4769 -0.6184,-0.7666c-0.7515,-2.0064 1.158,-4.2864 2.6429,-5.3884c0.6925,-0.513 3.0894,-1.2797 3.4323,0.0788c0.0475,0.1843 -0.4626,0.1064 -0.5073,-0.0636zM220.3167,207.3914c-1.3043,-0.4199 -1.729,-1.5362 -1.861,-2.8263c-0.1406,-1.3927 -0.2651,-2.9659 0.874,-3.9501c0.1615,-0.1406 0.6118,0.0969 0.3933,0.286c-1.3177,1.14 -1.2673,5.529 0.683,6.1579c0.3059,0.0978 0.2214,0.4322 -0.0893,0.3325zM259.1442,202.5863c1.5257,0.1795 2.8728,-0.2907 4.0935,-1.1676c0.4114,-0.2964 2.7569,-2.1964 1.8041,-2.811c-0.419,-0.2708 -0.9785,-0.6992 -0.9567,-1.2616c0.0257,-0.646 0.1948,-1.2274 0.0627,-1.8829c-0.1482,-0.7391 -1.0241,-1.2531 -1.5656,-1.673c-0.037,-0.0285 -0.1235,-0.0959 -0.0931,-0.1567c0.4484,-0.8911 0.7705,-1.8335 0.7676,-2.8424c-0.0028,-1.1505 -0.8854,-2.1575 -1.539,-3.0277c-1.1447,-1.5238 -1.6691,-3.4751 -2.3408,-5.2345c-0.4123,-1.0754 -0.6868,-2.204 -1.0431,-3.2984c-0.4246,-1.3062 -0.9129,-3.3316 -2.1004,-4.1885c-0.2803,-0.2024 0.1482,-0.3002 0.3211,-0.1767c0.8569,0.6175 1.2749,1.7157 1.6568,2.6581c0.512,1.2635 0.8958,2.5764 1.291,3.8798c0.4304,1.4231 1.0175,2.8025 1.5295,4.199c0.7182,1.9646 2.7303,3.3953 2.7341,5.5879c0.0019,0.778 -0.3106,1.5684 -0.6156,2.2705c-0.1767,0.4056 1.0089,1.1865 1.255,1.5076c0.3534,0.4598 0.3401,1.0764 0.303,1.6226c-0.0475,0.7591 -0.0864,1.3395 0.6536,1.8383c0.1188,0.0798 0.2803,0.1634 0.3582,0.2926c0.531,0.8702 -1.2911,2.3436 -1.8069,2.7436c-1.3994,1.0849 -2.9279,1.6416 -4.7101,1.4316c-0.2556,-0.0313 -0.4104,-0.3515 -0.0589,-0.3106zM229.9887,193.0046c2.2372,2.7569 5.4045,5.7627 5.813,9.4686c0.1131,1.0127 0.2375,2.2154 -0.6089,2.9469c-1.4991,1.2949 1.2226,3.3193 1.8686,4.4156c0.1729,0.2907 -0.2878,0.9092 -0.4161,1.141c-0.5643,1.0326 -1.1685,2.0415 -1.6824,3.1036c-1.1058,2.2829 -2.2021,5.6003 0.4883,7.2086c0.2954,0.1767 -0.1321,0.3401 -0.3344,0.2185c-4.39,-2.6248 -0.0817,-8.2222 1.3566,-11.3202c0.3562,-0.7695 -1.6198,-2.3379 -2.0207,-3.0875c-0.7277,-1.3604 0.6888,-1.957 0.8921,-3.1312c0.7153,-4.1249 -3.4523,-7.96 -5.7789,-10.8262c-0.2023,-0.2479 0.2831,-0.3097 0.4228,-0.1377zM219.3458,200.7528c-0.9566,-1.1239 -1.3879,-3.1521 -0.0057,-4.1202c0.1302,-0.0902 0.5786,0.1121 0.4769,0.1834c-1.3233,0.9272 -0.9243,2.8747 -0.0057,3.9539c0.1226,0.1453 -0.3752,0.0874 -0.4655,-0.0171zM235.6269,168.7967c1.4098,2.9383 4.39,4.6911 7.4015,5.6335c1.4364,0.4493 2.6068,0.5814 3.9425,-0.1758c1.633,-0.9262 1.7271,-2.4082 -0.1501,-3.1673c-0.2451,-0.0997 -0.0238,-0.2517 0.1577,-0.1786c0.9091,0.3677 2.2448,1.1733 1.538,2.3437c-0.6906,1.14 -2.1432,1.8629 -3.4608,1.8458c-1.7946,-0.0228 -3.8171,-1.0013 -5.3552,-1.8382c-1.8667,-1.0137 -3.5064,-2.5137 -4.4327,-4.4451c-0.0845,-0.1767 0.2993,-0.1425 0.3591,-0.018zM235.3932,168.5839c-3.5102,1.1086 -7.0575,2.6951 -9.8952,5.0806c-0.1273,0.1045 -0.5937,-0.0912 -0.475,-0.19c2.8576,-2.3997 6.4306,-4.0024 9.9617,-5.1186c0.1387,-0.0437 0.5995,0.1691 0.4085,0.228zM225.4572,173.7243c-1.4621,1.4915 -3.2338,2.6828 -4.3377,4.4926c-0.5444,0.8863 -0.59,1.8382 -0.7657,2.83c-0.2394,1.3794 -0.9016,2.584 -0.8275,4.0195c0.0589,1.1295 0.5976,2.2192 0.7638,3.3392c0.1463,0.9795 -0.1814,1.9912 -0.4579,2.9156c-0.5937,1.9845 -1.6159,4.2237 -0.6935,6.2624c0.0589,0.1244 -0.4379,0.0722 -0.5044,-0.076c-0.8759,-1.9352 -0.02,-4.0774 0.5785,-5.967c0.3857,-1.2112 0.6992,-2.355 0.5102,-3.6394c-0.1691,-1.1267 -0.7847,-2.204 -0.7239,-3.3678c0.0674,-1.2521 0.5662,-2.412 0.8502,-3.6223c0.2689,-1.1476 0.3078,-2.0872 0.9443,-3.1274c1.0393,-1.7015 2.8168,-2.8443 4.1914,-4.2484c0.1036,-0.1093 0.5824,0.076 0.4722,0.189z" fill="#010101"/></g></g></svg>